%TF.GenerationSoftware,KiCad,Pcbnew,9.0.7-9.0.7~ubuntu24.04.1*%
%TF.CreationDate,2026-01-14T12:58:48+00:00*%
%TF.ProjectId,LIFT,4c494654-2e6b-4696-9361-645f70636258,rev?*%
%TF.SameCoordinates,Original*%
%TF.FileFunction,Legend,Bot*%
%TF.FilePolarity,Positive*%
%FSLAX46Y46*%
G04 Gerber Fmt 4.6, Leading zero omitted, Abs format (unit mm)*
G04 Created by KiCad (PCBNEW 9.0.7-9.0.7~ubuntu24.04.1) date 2026-01-14 12:58:48*
%MOMM*%
%LPD*%
G01*
G04 APERTURE LIST*
%ADD10C,0.400000*%
%ADD11C,0.508000*%
%ADD12C,0.000000*%
G04 APERTURE END LIST*
D10*
G36*
X180442620Y-32910000D02*
G01*
X180442620Y-30870083D01*
X180039497Y-30870083D01*
X180039497Y-32558290D01*
X179177442Y-32558290D01*
X179177442Y-32910000D01*
X180442620Y-32910000D01*
G37*
G36*
X178830739Y-31221793D02*
G01*
X178830739Y-30870083D01*
X177616120Y-30870083D01*
X177616120Y-31221793D01*
X178021929Y-31221793D01*
X178021929Y-32558290D01*
X177616120Y-32558290D01*
X177616120Y-32910000D01*
X178830739Y-32910000D01*
X178830739Y-32558290D01*
X178424930Y-32558290D01*
X178424930Y-31221793D01*
X178830739Y-31221793D01*
G37*
G36*
X175862090Y-31221793D02*
G01*
X176729762Y-31221793D01*
X176729762Y-31667292D01*
X175940003Y-31667292D01*
X175940003Y-32019002D01*
X176729762Y-32019002D01*
X176729762Y-32910000D01*
X177132763Y-32910000D01*
X177132763Y-30870083D01*
X175862090Y-30870083D01*
X175862090Y-31221793D01*
G37*
G36*
X174653332Y-32910000D02*
G01*
X175056332Y-32910000D01*
X175056332Y-31221793D01*
X175574127Y-31221793D01*
X175574127Y-30870083D01*
X174135537Y-30870083D01*
X174135537Y-31221793D01*
X174653332Y-31221793D01*
X174653332Y-32910000D01*
G37*
D11*
%TO.C,J7*%
X175525500Y-114139200D02*
G75*
G02*
X174763500Y-114139200I-381000J0D01*
G01*
X174763500Y-114139200D02*
G75*
G02*
X175525500Y-114139200I381000J0D01*
G01*
%TO.C,J3*%
X145117299Y-38000000D02*
G75*
G02*
X144355299Y-38000000I-381000J0D01*
G01*
X144355299Y-38000000D02*
G75*
G02*
X145117299Y-38000000I381000J0D01*
G01*
%TO.C,J8*%
X175631000Y-93228800D02*
G75*
G02*
X174869000Y-93228800I-381000J0D01*
G01*
X174869000Y-93228800D02*
G75*
G02*
X175631000Y-93228800I381000J0D01*
G01*
%TO.C,J9*%
X175525500Y-102139200D02*
G75*
G02*
X174763500Y-102139200I-381000J0D01*
G01*
X174763500Y-102139200D02*
G75*
G02*
X175525500Y-102139200I381000J0D01*
G01*
%TO.C,J4*%
X126367299Y-38000000D02*
G75*
G02*
X125605299Y-38000000I-381000J0D01*
G01*
X125605299Y-38000000D02*
G75*
G02*
X126367299Y-38000000I381000J0D01*
G01*
%TO.C,J2*%
X164527700Y-38105500D02*
G75*
G02*
X163765700Y-38105500I-381000J0D01*
G01*
X163765700Y-38105500D02*
G75*
G02*
X164527700Y-38105500I381000J0D01*
G01*
D12*
%TO.C,G\u002A\u002A\u002A*%
G36*
X146025332Y-155729563D02*
G01*
X146025332Y-155841877D01*
X145884942Y-155841877D01*
X145744550Y-155841877D01*
X145744550Y-155729563D01*
X145744550Y-155617251D01*
X145884942Y-155617251D01*
X146025332Y-155617251D01*
X146025332Y-155729563D01*
G37*
G36*
X146025332Y-156656147D02*
G01*
X146025332Y-157273868D01*
X145884942Y-157273868D01*
X145744550Y-157273868D01*
X145744550Y-156656147D01*
X145744550Y-156038424D01*
X145884942Y-156038424D01*
X146025332Y-156038424D01*
X146025332Y-156656147D01*
G37*
G36*
X152736031Y-155729563D02*
G01*
X152736031Y-155841877D01*
X152595639Y-155841877D01*
X152455249Y-155841877D01*
X152455249Y-155729563D01*
X152455249Y-155617251D01*
X152595639Y-155617251D01*
X152736031Y-155617251D01*
X152736031Y-155729563D01*
G37*
G36*
X152736031Y-156656147D02*
G01*
X152736031Y-157273868D01*
X152595639Y-157273868D01*
X152455249Y-157273868D01*
X152455249Y-156656147D01*
X152455249Y-156038424D01*
X152595639Y-156038424D01*
X152736031Y-156038424D01*
X152736031Y-156656147D01*
G37*
G36*
X142403241Y-153160406D02*
G01*
X142403241Y-153314836D01*
X141953991Y-153314836D01*
X141504738Y-153314836D01*
X141504738Y-154157184D01*
X141504738Y-154999531D01*
X141322230Y-154999531D01*
X141139721Y-154999531D01*
X141139721Y-154157184D01*
X141139721Y-153314836D01*
X140676431Y-153314836D01*
X140213140Y-153314836D01*
X140213140Y-153160406D01*
X140213140Y-153005976D01*
X141308192Y-153005976D01*
X142403241Y-153005976D01*
X142403241Y-153160406D01*
G37*
G36*
X165006217Y-156431520D02*
G01*
X165006217Y-157273868D01*
X164809671Y-157273868D01*
X164613122Y-157273868D01*
X164613122Y-156936927D01*
X164613122Y-156599989D01*
X164023479Y-156599989D01*
X163433836Y-156599989D01*
X163433836Y-156445558D01*
X163433836Y-156291128D01*
X164023479Y-156291128D01*
X164613122Y-156291128D01*
X164613122Y-156108620D01*
X164613122Y-155926111D01*
X164009439Y-155926111D01*
X163405758Y-155926111D01*
X163405758Y-155757643D01*
X163405758Y-155589173D01*
X164205988Y-155589173D01*
X165006217Y-155589173D01*
X165006217Y-156431520D01*
G37*
G36*
X151236448Y-156515754D02*
G01*
X151299817Y-156645156D01*
X151364266Y-156772981D01*
X151417400Y-156874279D01*
X151454975Y-156940979D01*
X151472743Y-156965007D01*
X151487222Y-156946114D01*
X151522349Y-156883848D01*
X151573326Y-156785964D01*
X151635942Y-156660563D01*
X151705992Y-156515754D01*
X151920132Y-156066504D01*
X152075293Y-156066504D01*
X152230453Y-156066504D01*
X151929000Y-156670185D01*
X151627548Y-157273868D01*
X151472509Y-157273868D01*
X151317472Y-157273868D01*
X151016020Y-156670185D01*
X150714567Y-156066504D01*
X150866915Y-156066504D01*
X151019265Y-156066504D01*
X151236448Y-156515754D01*
G37*
G36*
X163181132Y-156431520D02*
G01*
X163181132Y-157273868D01*
X162366863Y-157273868D01*
X161552595Y-157273868D01*
X161552595Y-157119437D01*
X161552595Y-156965007D01*
X162170316Y-156965007D01*
X162788037Y-156965007D01*
X162788037Y-156754419D01*
X162788037Y-156543832D01*
X162198394Y-156543832D01*
X161608751Y-156543832D01*
X161608751Y-156389402D01*
X161608751Y-156234972D01*
X162198394Y-156234972D01*
X162788037Y-156234972D01*
X162788037Y-156066504D01*
X162788037Y-155898033D01*
X162184354Y-155898033D01*
X161580673Y-155898033D01*
X161580673Y-155743603D01*
X161580673Y-155589173D01*
X162380903Y-155589173D01*
X163181132Y-155589173D01*
X163181132Y-156431520D01*
G37*
G36*
X129048787Y-156016081D02*
G01*
X129191465Y-156039683D01*
X129328273Y-156082878D01*
X129434283Y-156139323D01*
X129529373Y-156209755D01*
X129538171Y-156124089D01*
X129543606Y-156084779D01*
X129560682Y-156053008D01*
X129602829Y-156040565D01*
X129685583Y-156038424D01*
X129824195Y-156038424D01*
X129824195Y-156656147D01*
X129824195Y-157273868D01*
X129687124Y-157273868D01*
X129550052Y-157273868D01*
X129538816Y-156913268D01*
X129535217Y-156814056D01*
X129527286Y-156680395D01*
X129515945Y-156586413D01*
X129499725Y-156521663D01*
X129477152Y-156475701D01*
X129441720Y-156432484D01*
X129332877Y-156357520D01*
X129187255Y-156309207D01*
X129015407Y-156291746D01*
X128838380Y-156291128D01*
X128846937Y-156157758D01*
X128851227Y-156102118D01*
X128863354Y-156048131D01*
X128891703Y-156024561D01*
X128947500Y-156015531D01*
X129048787Y-156016081D01*
G37*
G36*
X148085827Y-156016081D02*
G01*
X148228505Y-156039683D01*
X148365313Y-156082878D01*
X148471323Y-156139323D01*
X148566412Y-156209755D01*
X148575211Y-156124089D01*
X148580645Y-156084779D01*
X148597722Y-156053008D01*
X148639869Y-156040565D01*
X148722623Y-156038424D01*
X148861235Y-156038424D01*
X148861235Y-156656147D01*
X148861235Y-157273868D01*
X148724163Y-157273868D01*
X148587092Y-157273868D01*
X148575856Y-156913268D01*
X148572256Y-156814056D01*
X148564326Y-156680395D01*
X148552985Y-156586413D01*
X148536765Y-156521663D01*
X148514191Y-156475701D01*
X148478760Y-156432484D01*
X148369917Y-156357520D01*
X148224295Y-156309207D01*
X148052447Y-156291746D01*
X147875420Y-156291128D01*
X147883977Y-156157758D01*
X147888267Y-156102118D01*
X147900394Y-156048131D01*
X147928743Y-156024561D01*
X147984540Y-156015531D01*
X148085827Y-156016081D01*
G37*
G36*
X159554146Y-153478082D02*
G01*
X159716916Y-153521193D01*
X159862948Y-153582881D01*
X159972844Y-153658042D01*
X160036371Y-153717722D01*
X160036371Y-153614553D01*
X160036371Y-153511385D01*
X160218879Y-153511385D01*
X160401387Y-153511385D01*
X160401387Y-154269498D01*
X160401387Y-155027609D01*
X160218879Y-155027609D01*
X160036371Y-155027609D01*
X160036371Y-154605533D01*
X160034731Y-154435782D01*
X160028070Y-154274979D01*
X160015962Y-154161838D01*
X159998071Y-154091794D01*
X159959866Y-154022054D01*
X159855387Y-153917261D01*
X159710904Y-153842849D01*
X159532678Y-153801576D01*
X159326973Y-153796203D01*
X159165869Y-153806207D01*
X159165906Y-153646988D01*
X159165908Y-153645334D01*
X159167646Y-153555527D01*
X159177768Y-153506344D01*
X159203756Y-153482480D01*
X159253095Y-153468627D01*
X159255969Y-153468009D01*
X159394033Y-153458653D01*
X159554146Y-153478082D01*
G37*
G36*
X158772851Y-153300798D02*
G01*
X158772851Y-153511385D01*
X158927281Y-153511385D01*
X159081711Y-153511385D01*
X159081711Y-153637737D01*
X159081711Y-153764089D01*
X158927281Y-153764089D01*
X158772851Y-153764089D01*
X158772693Y-154234400D01*
X158771942Y-154340277D01*
X158768136Y-154499504D01*
X158761666Y-154639007D01*
X158753154Y-154746641D01*
X158743222Y-154810268D01*
X158705742Y-154893687D01*
X158617888Y-154976435D01*
X158484344Y-155028426D01*
X158409226Y-155041323D01*
X158273286Y-155051461D01*
X158133120Y-155050605D01*
X158018248Y-155038139D01*
X157983062Y-155030068D01*
X157947365Y-155010194D01*
X157933093Y-154967914D01*
X157930503Y-154886370D01*
X157930503Y-154752152D01*
X158098073Y-154767346D01*
X158193213Y-154772432D01*
X158275061Y-154763616D01*
X158336739Y-154735959D01*
X158407832Y-154689376D01*
X158407832Y-154226732D01*
X158407832Y-153764089D01*
X158169168Y-153764089D01*
X157930503Y-153764089D01*
X157930503Y-153637737D01*
X157930503Y-153511385D01*
X158169168Y-153511385D01*
X158407832Y-153511385D01*
X158407832Y-153300798D01*
X158407832Y-153090212D01*
X158590341Y-153090212D01*
X158772851Y-153090212D01*
X158772851Y-153300798D01*
G37*
G36*
X159872924Y-156129680D02*
G01*
X159876687Y-156330867D01*
X159881761Y-156494458D01*
X159888498Y-156615419D01*
X159897437Y-156700681D01*
X159909112Y-156757180D01*
X159924057Y-156791853D01*
X159933038Y-156804881D01*
X160024534Y-156886551D01*
X160150912Y-156942450D01*
X160298732Y-156972156D01*
X160454558Y-156975247D01*
X160604950Y-156951299D01*
X160736470Y-156899885D01*
X160835682Y-156820586D01*
X160906796Y-156736071D01*
X160906796Y-156134545D01*
X160906796Y-155533017D01*
X161105642Y-155533017D01*
X161304487Y-155533017D01*
X161295170Y-156174079D01*
X161285851Y-156815144D01*
X161200683Y-156952822D01*
X161163174Y-157005360D01*
X161036460Y-157122645D01*
X160872252Y-157213677D01*
X160682170Y-157271321D01*
X160493156Y-157294415D01*
X160279766Y-157290864D01*
X160076500Y-157258470D01*
X159894099Y-157199865D01*
X159743303Y-157117680D01*
X159634854Y-157014553D01*
X159608356Y-156977224D01*
X159572907Y-156916815D01*
X159546324Y-156850185D01*
X159527366Y-156769011D01*
X159514789Y-156664976D01*
X159507346Y-156529761D01*
X159503793Y-156355045D01*
X159502884Y-156132509D01*
X159502884Y-155533017D01*
X159683395Y-155533017D01*
X159863905Y-155533017D01*
X159872924Y-156129680D01*
G37*
G36*
X128504517Y-155898033D02*
G01*
X128504517Y-156066504D01*
X128630869Y-156066504D01*
X128687097Y-156067108D01*
X128736243Y-156075799D01*
X128754524Y-156104392D01*
X128757221Y-156164776D01*
X128756443Y-156208509D01*
X128745270Y-156246734D01*
X128708506Y-156260952D01*
X128630869Y-156263050D01*
X128504517Y-156263050D01*
X128504517Y-156695152D01*
X128503497Y-156854532D01*
X128498037Y-157000616D01*
X128485358Y-157105409D01*
X128462699Y-157176990D01*
X128427307Y-157223435D01*
X128376425Y-157252825D01*
X128307294Y-157273242D01*
X128235234Y-157286248D01*
X128109063Y-157297125D01*
X127986203Y-157296550D01*
X127892340Y-157283861D01*
X127858457Y-157270525D01*
X127836269Y-157235911D01*
X127836184Y-157165703D01*
X127844680Y-157064861D01*
X127976153Y-157073094D01*
X128044672Y-157076457D01*
X128118044Y-157072645D01*
X128168035Y-157051755D01*
X128199122Y-157005969D01*
X128215782Y-156927477D01*
X128222492Y-156808465D01*
X128223734Y-156641118D01*
X128223734Y-156263050D01*
X128027188Y-156263050D01*
X127830640Y-156263050D01*
X127830640Y-156164776D01*
X127830640Y-156066504D01*
X128027188Y-156066504D01*
X128223734Y-156066504D01*
X128223734Y-155898033D01*
X128223734Y-155729563D01*
X128364127Y-155729563D01*
X128504517Y-155729563D01*
X128504517Y-155898033D01*
G37*
G36*
X154448802Y-156656147D02*
G01*
X154448802Y-157273868D01*
X154308412Y-157273868D01*
X154168019Y-157273868D01*
X154166436Y-156929909D01*
X154163341Y-156759044D01*
X154153055Y-156613931D01*
X154132890Y-156507276D01*
X154100085Y-156429861D01*
X154051879Y-156372466D01*
X153985511Y-156325873D01*
X153970847Y-156317558D01*
X153893169Y-156283182D01*
X153810183Y-156269031D01*
X153696970Y-156270310D01*
X153652671Y-156273171D01*
X153561423Y-156285949D01*
X153498684Y-156311361D01*
X153444265Y-156356274D01*
X153425436Y-156375532D01*
X153401307Y-156405841D01*
X153384640Y-156442633D01*
X153373716Y-156495841D01*
X153366813Y-156575397D01*
X153362213Y-156691235D01*
X153358196Y-156853286D01*
X153348600Y-157273868D01*
X153210786Y-157273868D01*
X153072970Y-157273868D01*
X153072970Y-156839222D01*
X153074091Y-156683870D01*
X153080419Y-156514202D01*
X153094412Y-156386155D01*
X153118407Y-156291403D01*
X153154739Y-156221618D01*
X153205745Y-156168475D01*
X153273763Y-156123646D01*
X153367944Y-156082973D01*
X153534993Y-156048230D01*
X153716503Y-156045676D01*
X153892611Y-156076815D01*
X153958476Y-156098714D01*
X154038175Y-156133568D01*
X154083549Y-156164493D01*
X154129497Y-156203257D01*
X154158172Y-156189194D01*
X154168019Y-156122660D01*
X154169597Y-156081062D01*
X154183859Y-156051580D01*
X154225303Y-156040264D01*
X154308412Y-156038424D01*
X154448802Y-156038424D01*
X154448802Y-156656147D01*
G37*
G36*
X159222102Y-156429820D02*
G01*
X159222102Y-157273868D01*
X159025553Y-157273868D01*
X158829007Y-157273868D01*
X158829007Y-156953644D01*
X158829007Y-156633423D01*
X158316578Y-156623726D01*
X158249410Y-156622396D01*
X158078785Y-156618007D01*
X157951801Y-156612322D01*
X157859036Y-156604320D01*
X157791067Y-156592984D01*
X157738475Y-156577298D01*
X157691839Y-156556244D01*
X157617688Y-156508190D01*
X157522823Y-156395820D01*
X157469970Y-156246438D01*
X157460942Y-156089153D01*
X157846698Y-156089153D01*
X157847051Y-156112190D01*
X157858950Y-156198759D01*
X157895661Y-156251871D01*
X157968000Y-156289371D01*
X157976911Y-156292126D01*
X158044910Y-156302740D01*
X158153008Y-156311340D01*
X158288266Y-156317104D01*
X158437739Y-156319206D01*
X158829007Y-156319206D01*
X158829007Y-156108620D01*
X158829007Y-155898033D01*
X158400042Y-155898033D01*
X158226410Y-155899291D01*
X158080443Y-155905122D01*
X157977048Y-155917998D01*
X157909100Y-155940378D01*
X157869476Y-155974723D01*
X157851051Y-156023494D01*
X157846698Y-156089153D01*
X157460942Y-156089153D01*
X157459290Y-156060381D01*
X157466957Y-155973087D01*
X157498212Y-155849281D01*
X157559701Y-155751269D01*
X157660465Y-155661103D01*
X157669151Y-155654798D01*
X157696345Y-155638607D01*
X157730743Y-155626024D01*
X157779339Y-155616483D01*
X157849124Y-155609414D01*
X157947090Y-155604248D01*
X158080234Y-155600419D01*
X158255545Y-155597357D01*
X158480019Y-155594493D01*
X159222102Y-155585774D01*
X159222102Y-156108620D01*
X159222102Y-156429820D01*
G37*
G36*
X133474365Y-156471858D02*
G01*
X133474365Y-157273868D01*
X133333973Y-157273868D01*
X133193582Y-157273868D01*
X133193582Y-156950967D01*
X133193582Y-156628067D01*
X132731674Y-156628067D01*
X132554725Y-156626938D01*
X132365815Y-156621265D01*
X132219403Y-156609507D01*
X132107803Y-156590219D01*
X132023321Y-156561956D01*
X131958267Y-156523274D01*
X131904948Y-156472724D01*
X131834081Y-156357459D01*
X131798096Y-156219243D01*
X131797823Y-156114731D01*
X132100013Y-156114731D01*
X132105808Y-156226002D01*
X132152148Y-156323116D01*
X132153207Y-156324422D01*
X132174602Y-156347951D01*
X132200557Y-156365185D01*
X132239670Y-156377304D01*
X132300539Y-156385491D01*
X132391764Y-156390919D01*
X132521942Y-156394774D01*
X132699673Y-156398232D01*
X133193582Y-156407061D01*
X133193582Y-156152547D01*
X133193582Y-155898033D01*
X132714976Y-155898033D01*
X132710287Y-155898033D01*
X132537006Y-155898308D01*
X132410659Y-155899882D01*
X132322231Y-155903891D01*
X132262709Y-155911467D01*
X132223081Y-155923748D01*
X132194332Y-155941864D01*
X132167450Y-155966952D01*
X132133828Y-156011184D01*
X132100013Y-156114731D01*
X131797823Y-156114731D01*
X131797718Y-156074423D01*
X131831295Y-155936671D01*
X131897176Y-155819659D01*
X131993712Y-155737059D01*
X132002388Y-155732527D01*
X132039674Y-155717674D01*
X132089385Y-155706109D01*
X132158811Y-155697291D01*
X132255240Y-155690676D01*
X132385961Y-155685727D01*
X132558261Y-155681897D01*
X132779428Y-155678647D01*
X133474365Y-155669848D01*
X133474365Y-156152547D01*
X133474365Y-156471858D01*
G37*
G36*
X127713926Y-156657163D02*
G01*
X127680455Y-156856283D01*
X127635242Y-156970200D01*
X127532393Y-157109475D01*
X127388356Y-157211253D01*
X127204592Y-157274250D01*
X127112478Y-157286461D01*
X126969912Y-157289590D01*
X126818289Y-157280344D01*
X126679163Y-157260210D01*
X126574083Y-157230679D01*
X126483020Y-157182721D01*
X126353911Y-157068345D01*
X126262894Y-156921035D01*
X126214831Y-156749809D01*
X126214681Y-156637397D01*
X126501407Y-156637397D01*
X126512859Y-156765575D01*
X126549661Y-156875958D01*
X126608417Y-156951137D01*
X126716392Y-157022752D01*
X126718633Y-157023763D01*
X126861753Y-157064777D01*
X127013057Y-157069574D01*
X127157903Y-157041012D01*
X127281648Y-156981951D01*
X127369644Y-156895248D01*
X127388610Y-156858898D01*
X127416549Y-156749179D01*
X127421793Y-156623010D01*
X127404557Y-156503093D01*
X127365058Y-156412126D01*
X127336765Y-156378196D01*
X127224143Y-156294597D01*
X127086411Y-156246354D01*
X126937259Y-156233537D01*
X126790385Y-156256207D01*
X126659481Y-156314433D01*
X126558243Y-156408276D01*
X126552926Y-156415979D01*
X126514897Y-156513506D01*
X126501407Y-156637397D01*
X126214681Y-156637397D01*
X126214583Y-156563682D01*
X126234019Y-156463959D01*
X126299621Y-156309090D01*
X126408830Y-156182659D01*
X126567120Y-156077119D01*
X126579003Y-156071328D01*
X126683632Y-156041210D01*
X126822464Y-156024339D01*
X126977872Y-156020530D01*
X127132238Y-156029596D01*
X127267936Y-156051348D01*
X127367349Y-156085602D01*
X127505124Y-156178806D01*
X127624923Y-156315127D01*
X127694969Y-156475678D01*
X127710358Y-156623010D01*
X127713926Y-156657163D01*
G37*
G36*
X131616801Y-156657163D02*
G01*
X131583329Y-156856283D01*
X131538116Y-156970200D01*
X131435267Y-157109475D01*
X131291231Y-157211253D01*
X131107467Y-157274250D01*
X131015352Y-157286461D01*
X130872786Y-157289590D01*
X130721164Y-157280344D01*
X130582037Y-157260210D01*
X130476957Y-157230679D01*
X130385894Y-157182721D01*
X130256785Y-157068345D01*
X130165769Y-156921035D01*
X130117705Y-156749809D01*
X130117555Y-156637397D01*
X130404281Y-156637397D01*
X130415733Y-156765575D01*
X130452536Y-156875958D01*
X130511291Y-156951137D01*
X130619267Y-157022752D01*
X130621507Y-157023763D01*
X130764625Y-157064777D01*
X130915932Y-157069574D01*
X131060778Y-157041012D01*
X131184523Y-156981951D01*
X131272518Y-156895248D01*
X131291484Y-156858898D01*
X131319422Y-156749179D01*
X131324665Y-156623010D01*
X131307431Y-156503093D01*
X131267932Y-156412126D01*
X131239640Y-156378196D01*
X131127017Y-156294597D01*
X130989285Y-156246354D01*
X130840133Y-156233537D01*
X130693257Y-156256207D01*
X130562356Y-156314433D01*
X130461118Y-156408276D01*
X130455800Y-156415979D01*
X130417771Y-156513506D01*
X130404281Y-156637397D01*
X130117555Y-156637397D01*
X130117457Y-156563682D01*
X130136893Y-156463959D01*
X130202495Y-156309090D01*
X130311705Y-156182659D01*
X130469994Y-156077119D01*
X130481875Y-156071328D01*
X130586507Y-156041210D01*
X130725339Y-156024339D01*
X130880746Y-156020530D01*
X131035112Y-156029596D01*
X131170810Y-156051348D01*
X131270223Y-156085602D01*
X131407999Y-156178806D01*
X131527795Y-156315127D01*
X131597843Y-156475678D01*
X131613232Y-156623010D01*
X131616801Y-156657163D01*
G37*
G36*
X136053160Y-156657163D02*
G01*
X136019690Y-156856283D01*
X135974477Y-156970200D01*
X135871629Y-157109475D01*
X135727592Y-157211253D01*
X135543828Y-157274250D01*
X135451714Y-157286461D01*
X135309147Y-157289590D01*
X135157525Y-157280344D01*
X135018398Y-157260210D01*
X134913319Y-157230679D01*
X134822256Y-157182721D01*
X134693146Y-157068345D01*
X134602128Y-156921035D01*
X134554066Y-156749809D01*
X134553917Y-156637397D01*
X134840640Y-156637397D01*
X134852094Y-156765575D01*
X134888897Y-156875958D01*
X134947650Y-156951137D01*
X135055628Y-157022752D01*
X135057868Y-157023763D01*
X135200987Y-157064777D01*
X135352293Y-157069574D01*
X135497139Y-157041012D01*
X135620882Y-156981951D01*
X135708880Y-156895248D01*
X135727845Y-156858898D01*
X135755783Y-156749179D01*
X135761027Y-156623010D01*
X135743792Y-156503093D01*
X135704293Y-156412126D01*
X135676001Y-156378196D01*
X135563378Y-156294597D01*
X135425644Y-156246354D01*
X135276492Y-156233537D01*
X135129618Y-156256207D01*
X134998715Y-156314433D01*
X134897479Y-156408276D01*
X134892159Y-156415979D01*
X134854130Y-156513506D01*
X134840640Y-156637397D01*
X134553917Y-156637397D01*
X134553819Y-156563682D01*
X134573252Y-156463959D01*
X134638856Y-156309090D01*
X134748066Y-156182659D01*
X134906355Y-156077119D01*
X134918237Y-156071328D01*
X135022868Y-156041210D01*
X135161698Y-156024339D01*
X135317107Y-156020530D01*
X135471471Y-156029596D01*
X135607172Y-156051348D01*
X135706584Y-156085602D01*
X135844360Y-156178806D01*
X135964156Y-156315127D01*
X136034204Y-156475678D01*
X136049593Y-156623010D01*
X136053160Y-156657163D01*
G37*
G36*
X155071474Y-156218955D02*
G01*
X155071891Y-156245116D01*
X155075393Y-156434361D01*
X155079488Y-156576624D01*
X155085017Y-156680091D01*
X155092824Y-156752954D01*
X155103746Y-156803409D01*
X155118629Y-156839642D01*
X155138310Y-156869847D01*
X155188610Y-156926881D01*
X155302980Y-157004524D01*
X155451722Y-157049058D01*
X155642128Y-157063279D01*
X155751141Y-157059149D01*
X155918014Y-157028813D01*
X156047184Y-156966645D01*
X156145943Y-156869847D01*
X156148578Y-156866283D01*
X156167641Y-156835788D01*
X156182005Y-156798284D01*
X156192511Y-156745583D01*
X156200001Y-156669490D01*
X156205315Y-156561815D01*
X156209295Y-156414366D01*
X156212782Y-156218955D01*
X156221871Y-155645329D01*
X156362604Y-155645329D01*
X156503339Y-155645329D01*
X156493907Y-156241992D01*
X156491097Y-156411821D01*
X156487648Y-156569202D01*
X156483145Y-156686200D01*
X156476591Y-156771382D01*
X156466995Y-156833318D01*
X156453363Y-156880572D01*
X156434699Y-156921713D01*
X156410012Y-156965307D01*
X156405812Y-156972322D01*
X156294514Y-157101254D01*
X156137695Y-157198691D01*
X155936948Y-157263628D01*
X155728224Y-157293352D01*
X155508057Y-157290985D01*
X155304009Y-157254693D01*
X155124711Y-157186892D01*
X154978796Y-157089994D01*
X154874892Y-156966419D01*
X154853072Y-156928279D01*
X154833469Y-156887218D01*
X154819081Y-156841455D01*
X154808908Y-156782415D01*
X154801949Y-156701523D01*
X154797202Y-156590205D01*
X154793669Y-156439888D01*
X154790348Y-156241992D01*
X154780916Y-155645329D01*
X154921650Y-155645329D01*
X155062385Y-155645329D01*
X155071474Y-156218955D01*
G37*
G36*
X137810321Y-156718892D02*
G01*
X137801984Y-156825908D01*
X137780597Y-156909147D01*
X137741593Y-156990597D01*
X137669700Y-157096800D01*
X137562321Y-157191576D01*
X137417733Y-157260048D01*
X137304218Y-157288824D01*
X137129849Y-157299044D01*
X136954409Y-157276112D01*
X136795012Y-157222735D01*
X136668769Y-157141619D01*
X136636362Y-157116271D01*
X136621835Y-157126941D01*
X136619126Y-157185281D01*
X136617527Y-157230860D01*
X136603257Y-157260851D01*
X136561825Y-157272138D01*
X136478736Y-157273868D01*
X136338344Y-157273868D01*
X136338344Y-156693335D01*
X136627690Y-156693335D01*
X136655195Y-156821963D01*
X136727799Y-156941073D01*
X136845749Y-157028138D01*
X136872470Y-157039786D01*
X136973852Y-157066620D01*
X137082417Y-157077232D01*
X137189010Y-157069515D01*
X137334060Y-157024057D01*
X137439992Y-156939382D01*
X137504927Y-156817254D01*
X137526989Y-156659434D01*
X137522290Y-156571205D01*
X137485995Y-156434666D01*
X137411107Y-156336963D01*
X137294376Y-156274682D01*
X137132557Y-156244402D01*
X137090640Y-156242154D01*
X136927651Y-156260221D01*
X136794250Y-156319364D01*
X136696048Y-156414590D01*
X136638657Y-156540911D01*
X136627690Y-156693335D01*
X136338344Y-156693335D01*
X136338344Y-156445558D01*
X136338344Y-155617251D01*
X136478736Y-155617251D01*
X136619126Y-155617251D01*
X136619126Y-155911453D01*
X136619126Y-156205658D01*
X136748356Y-156123701D01*
X136867515Y-156065710D01*
X137047211Y-156024005D01*
X137236153Y-156022381D01*
X137417860Y-156060552D01*
X137575853Y-156138227D01*
X137641651Y-156190713D01*
X137737677Y-156312592D01*
X137793139Y-156465540D01*
X137811028Y-156656147D01*
X137810991Y-156659434D01*
X137810321Y-156718892D01*
G37*
G36*
X142050133Y-156718892D02*
G01*
X142041797Y-156825908D01*
X142020410Y-156909147D01*
X141981406Y-156990597D01*
X141909513Y-157096800D01*
X141802134Y-157191576D01*
X141657546Y-157260048D01*
X141544030Y-157288824D01*
X141369661Y-157299044D01*
X141194222Y-157276112D01*
X141034825Y-157222735D01*
X140908582Y-157141619D01*
X140876175Y-157116271D01*
X140861647Y-157126941D01*
X140858939Y-157185281D01*
X140857340Y-157230860D01*
X140843072Y-157260851D01*
X140801638Y-157272138D01*
X140718549Y-157273868D01*
X140578156Y-157273868D01*
X140578156Y-156693335D01*
X140867503Y-156693335D01*
X140895008Y-156821963D01*
X140967612Y-156941073D01*
X141085562Y-157028138D01*
X141112285Y-157039786D01*
X141213665Y-157066620D01*
X141322230Y-157077232D01*
X141428822Y-157069515D01*
X141573873Y-157024057D01*
X141679805Y-156939382D01*
X141744740Y-156817254D01*
X141766802Y-156659434D01*
X141762103Y-156571205D01*
X141725807Y-156434666D01*
X141650920Y-156336963D01*
X141534189Y-156274682D01*
X141372370Y-156244402D01*
X141330453Y-156242154D01*
X141167464Y-156260221D01*
X141034062Y-156319364D01*
X140935860Y-156414590D01*
X140878470Y-156540911D01*
X140867503Y-156693335D01*
X140578156Y-156693335D01*
X140578156Y-156445558D01*
X140578156Y-155617251D01*
X140718549Y-155617251D01*
X140858939Y-155617251D01*
X140858939Y-155911453D01*
X140858939Y-156205658D01*
X140988169Y-156123701D01*
X141107328Y-156065710D01*
X141287024Y-156024005D01*
X141475966Y-156022381D01*
X141657674Y-156060552D01*
X141815665Y-156138227D01*
X141881464Y-156190713D01*
X141977490Y-156312592D01*
X142032952Y-156465540D01*
X142050841Y-156656147D01*
X142050804Y-156659434D01*
X142050133Y-156718892D01*
G37*
G36*
X145447599Y-156718892D02*
G01*
X145439265Y-156825908D01*
X145417877Y-156909147D01*
X145378873Y-156990597D01*
X145306980Y-157096800D01*
X145199602Y-157191576D01*
X145055011Y-157260048D01*
X144941496Y-157288824D01*
X144767129Y-157299044D01*
X144591687Y-157276112D01*
X144432290Y-157222735D01*
X144306047Y-157141619D01*
X144273640Y-157116271D01*
X144259115Y-157126941D01*
X144256406Y-157185281D01*
X144254805Y-157230860D01*
X144240537Y-157260851D01*
X144199106Y-157272138D01*
X144116014Y-157273868D01*
X143975624Y-157273868D01*
X143975624Y-156693335D01*
X144264969Y-156693335D01*
X144292473Y-156821963D01*
X144365078Y-156941073D01*
X144483027Y-157028138D01*
X144509750Y-157039786D01*
X144611133Y-157066620D01*
X144719697Y-157077232D01*
X144826288Y-157069515D01*
X144971339Y-157024057D01*
X145077270Y-156939382D01*
X145142205Y-156817254D01*
X145164268Y-156659434D01*
X145159568Y-156571205D01*
X145123273Y-156434666D01*
X145048385Y-156336963D01*
X144931656Y-156274682D01*
X144769837Y-156244402D01*
X144727918Y-156242154D01*
X144564931Y-156260221D01*
X144431530Y-156319364D01*
X144333326Y-156414590D01*
X144275936Y-156540911D01*
X144264969Y-156693335D01*
X143975624Y-156693335D01*
X143975624Y-156445558D01*
X143975624Y-155617251D01*
X144116014Y-155617251D01*
X144256406Y-155617251D01*
X144256406Y-155911453D01*
X144256406Y-156205658D01*
X144385637Y-156123701D01*
X144504793Y-156065710D01*
X144684490Y-156024005D01*
X144873433Y-156022381D01*
X145055140Y-156060552D01*
X145213131Y-156138227D01*
X145278932Y-156190713D01*
X145374956Y-156312592D01*
X145430417Y-156465540D01*
X145448307Y-156656147D01*
X145448270Y-156659434D01*
X145447599Y-156718892D01*
G37*
G36*
X164978139Y-154000877D02*
G01*
X164978139Y-154999531D01*
X164795631Y-154999531D01*
X164613122Y-154999531D01*
X164613122Y-154609024D01*
X164613122Y-154218517D01*
X163946263Y-154208909D01*
X163897234Y-154208199D01*
X163697194Y-154205007D01*
X163543672Y-154201505D01*
X163428718Y-154196893D01*
X163344378Y-154190365D01*
X163282704Y-154181126D01*
X163235740Y-154168369D01*
X163195537Y-154151297D01*
X163154140Y-154129106D01*
X163131428Y-154115752D01*
X163001818Y-154005331D01*
X162917662Y-153862236D01*
X162879210Y-153687068D01*
X162881329Y-153628652D01*
X163265011Y-153628652D01*
X163291011Y-153748058D01*
X163349780Y-153843399D01*
X163437173Y-153901435D01*
X163469765Y-153908678D01*
X163562482Y-153918548D01*
X163698601Y-153926075D01*
X163870307Y-153930874D01*
X164069786Y-153932557D01*
X164613122Y-153932557D01*
X164613122Y-153609659D01*
X164613122Y-153286758D01*
X164064694Y-153286758D01*
X164003765Y-153286844D01*
X163792744Y-153289256D01*
X163629423Y-153295988D01*
X163507088Y-153308390D01*
X163419020Y-153327808D01*
X163358506Y-153355593D01*
X163318825Y-153393094D01*
X163293267Y-153441658D01*
X163275921Y-153498413D01*
X163265011Y-153628652D01*
X162881329Y-153628652D01*
X162886707Y-153480430D01*
X162888950Y-153465285D01*
X162937245Y-153307680D01*
X163028644Y-153184506D01*
X163167133Y-153090212D01*
X163181713Y-153082954D01*
X163221657Y-153064372D01*
X163262071Y-153049759D01*
X163309916Y-153038545D01*
X163372150Y-153030171D01*
X163455739Y-153024070D01*
X163567638Y-153019678D01*
X163714810Y-153016432D01*
X163904213Y-153013768D01*
X164142811Y-153011120D01*
X164978139Y-153002222D01*
X164978139Y-153609659D01*
X164978139Y-154000877D01*
G37*
G36*
X157739433Y-154380117D02*
G01*
X157700437Y-154583461D01*
X157620582Y-154749172D01*
X157497906Y-154879668D01*
X157330444Y-154977379D01*
X157116234Y-155044722D01*
X157045903Y-155058674D01*
X156803702Y-155080914D01*
X156574838Y-155063239D01*
X156366405Y-155008064D01*
X156185484Y-154917806D01*
X156039163Y-154794882D01*
X155934530Y-154641708D01*
X155904184Y-154563068D01*
X155871779Y-154398206D01*
X155866035Y-154217864D01*
X155867747Y-154203605D01*
X156223187Y-154203605D01*
X156230283Y-154395715D01*
X156267647Y-154516957D01*
X156354221Y-154643317D01*
X156475885Y-154735606D01*
X156552169Y-154761063D01*
X156667943Y-154780940D01*
X156798351Y-154791626D01*
X156922116Y-154791433D01*
X157017960Y-154778668D01*
X157148815Y-154727945D01*
X157272804Y-154631490D01*
X157354468Y-154500058D01*
X157392218Y-154336402D01*
X157384464Y-154143278D01*
X157347701Y-154023076D01*
X157260052Y-153895419D01*
X157133948Y-153799167D01*
X157085332Y-153780305D01*
X156972207Y-153759003D01*
X156835649Y-153750238D01*
X156695198Y-153754011D01*
X156570402Y-153770321D01*
X156480799Y-153799167D01*
X156473202Y-153803319D01*
X156346087Y-153903976D01*
X156262269Y-154038549D01*
X156223187Y-154203605D01*
X155867747Y-154203605D01*
X155886952Y-154043680D01*
X155934530Y-153897286D01*
X155935517Y-153895262D01*
X156039366Y-153739511D01*
X156182254Y-153619218D01*
X156366952Y-153532628D01*
X156596230Y-153477985D01*
X156604788Y-153476690D01*
X156799496Y-153462882D01*
X156999486Y-153474686D01*
X157185346Y-153509795D01*
X157337668Y-153565912D01*
X157449643Y-153630974D01*
X157585726Y-153747202D01*
X157677278Y-153887345D01*
X157728657Y-154058931D01*
X157744210Y-154269498D01*
X157741320Y-154336402D01*
X157739433Y-154380117D01*
G37*
G36*
X162596967Y-154380117D02*
G01*
X162557970Y-154583461D01*
X162478116Y-154749172D01*
X162355440Y-154879668D01*
X162187977Y-154977379D01*
X161973768Y-155044722D01*
X161903437Y-155058674D01*
X161661236Y-155080914D01*
X161432372Y-155063239D01*
X161223938Y-155008064D01*
X161043017Y-154917806D01*
X160896697Y-154794882D01*
X160792064Y-154641708D01*
X160761718Y-154563068D01*
X160729313Y-154398206D01*
X160723568Y-154217864D01*
X160725280Y-154203605D01*
X161080721Y-154203605D01*
X161087817Y-154395715D01*
X161125181Y-154516957D01*
X161211755Y-154643317D01*
X161333419Y-154735606D01*
X161409703Y-154761063D01*
X161525477Y-154780940D01*
X161655885Y-154791626D01*
X161779649Y-154791433D01*
X161875494Y-154778668D01*
X162006349Y-154727945D01*
X162130337Y-154631490D01*
X162212001Y-154500058D01*
X162249751Y-154336402D01*
X162241998Y-154143278D01*
X162205235Y-154023076D01*
X162117586Y-153895419D01*
X161991482Y-153799167D01*
X161942866Y-153780305D01*
X161829741Y-153759003D01*
X161693182Y-153750238D01*
X161552732Y-153754011D01*
X161427936Y-153770321D01*
X161338333Y-153799167D01*
X161330736Y-153803319D01*
X161203621Y-153903976D01*
X161119803Y-154038549D01*
X161080721Y-154203605D01*
X160725280Y-154203605D01*
X160744486Y-154043680D01*
X160792064Y-153897286D01*
X160793051Y-153895262D01*
X160896900Y-153739511D01*
X161039790Y-153619218D01*
X161224486Y-153532628D01*
X161453763Y-153477985D01*
X161462322Y-153476690D01*
X161657029Y-153462882D01*
X161857020Y-153474686D01*
X162042880Y-153509795D01*
X162195202Y-153565912D01*
X162307179Y-153630974D01*
X162443260Y-153747202D01*
X162534812Y-153887345D01*
X162586191Y-154058931D01*
X162601744Y-154269498D01*
X162598854Y-154336402D01*
X162596967Y-154380117D01*
G37*
G36*
X152118310Y-154536240D02*
G01*
X152118310Y-155561095D01*
X151893684Y-155561095D01*
X151669057Y-155561095D01*
X151669057Y-155211277D01*
X151669057Y-154861459D01*
X151535685Y-154944194D01*
X151488673Y-154971086D01*
X151308153Y-155041163D01*
X151112611Y-155074134D01*
X150912779Y-155071726D01*
X150719394Y-155035664D01*
X150543188Y-154967682D01*
X150394896Y-154869505D01*
X150285253Y-154742862D01*
X150220400Y-154610685D01*
X150170461Y-154410424D01*
X150167638Y-154283536D01*
X150603318Y-154283536D01*
X150606955Y-154347385D01*
X150646119Y-154493789D01*
X150723409Y-154611906D01*
X150832782Y-154691002D01*
X150967235Y-154731059D01*
X151130719Y-154745951D01*
X151294137Y-154733420D01*
X151433072Y-154693369D01*
X151481438Y-154668062D01*
X151586524Y-154575174D01*
X151648637Y-154447739D01*
X151669057Y-154283536D01*
X151669057Y-154282922D01*
X151646827Y-154118414D01*
X151581136Y-153989051D01*
X151473026Y-153895737D01*
X151323541Y-153839373D01*
X151133726Y-153820861D01*
X150950730Y-153839720D01*
X150800793Y-153896613D01*
X150691998Y-153990344D01*
X150625716Y-154119716D01*
X150603318Y-154283536D01*
X150167638Y-154283536D01*
X150165810Y-154201353D01*
X150206345Y-153997455D01*
X150291965Y-153812712D01*
X150294537Y-153808683D01*
X150358681Y-153726169D01*
X150440561Y-153659696D01*
X150558501Y-153594246D01*
X150660736Y-153547413D01*
X150750461Y-153518525D01*
X150847087Y-153504571D01*
X150975177Y-153499991D01*
X151089681Y-153500367D01*
X151235822Y-153510014D01*
X151350203Y-153533903D01*
X151447418Y-153575610D01*
X151542064Y-153638704D01*
X151669057Y-153735640D01*
X151669057Y-153623511D01*
X151669057Y-153511385D01*
X151893684Y-153511385D01*
X152118310Y-153511385D01*
X152118310Y-154282922D01*
X152118310Y-154536240D01*
G37*
G36*
X140288969Y-156622997D02*
G01*
X140271355Y-156812344D01*
X140214782Y-156970210D01*
X140111790Y-157109377D01*
X139967368Y-157211197D01*
X139782802Y-157274443D01*
X139777471Y-157275523D01*
X139687330Y-157285757D01*
X139567651Y-157289928D01*
X139442822Y-157287130D01*
X139351932Y-157279228D01*
X139156647Y-157236338D01*
X139005959Y-157160538D01*
X138900523Y-157052108D01*
X138892416Y-157039756D01*
X138846993Y-156958560D01*
X138843068Y-156910169D01*
X138883913Y-156886828D01*
X138972803Y-156880771D01*
X139044589Y-156884106D01*
X139116397Y-156904347D01*
X139173480Y-156950152D01*
X139269135Y-157021930D01*
X139415057Y-157066776D01*
X139597363Y-157069666D01*
X139623403Y-157066936D01*
X139776486Y-157032450D01*
X139890276Y-156971963D01*
X139958043Y-156888850D01*
X139965373Y-156872780D01*
X139983752Y-156828447D01*
X139988917Y-156795308D01*
X139974733Y-156771739D01*
X139935066Y-156756106D01*
X139863780Y-156746783D01*
X139754742Y-156742140D01*
X139601817Y-156740548D01*
X139398870Y-156740381D01*
X138809228Y-156740381D01*
X138809228Y-156668580D01*
X138811702Y-156613299D01*
X138841180Y-156484868D01*
X139118090Y-156484868D01*
X139118583Y-156487023D01*
X139149967Y-156499800D01*
X139231588Y-156508754D01*
X139365387Y-156514027D01*
X139553301Y-156515754D01*
X139583652Y-156515719D01*
X139763686Y-156513492D01*
X139889882Y-156507699D01*
X139964179Y-156498204D01*
X139988513Y-156484868D01*
X139984471Y-156471784D01*
X139951643Y-156423303D01*
X139896588Y-156362057D01*
X139882445Y-156348678D01*
X139761781Y-156274715D01*
X139618345Y-156238944D01*
X139468099Y-156241391D01*
X139327009Y-156282082D01*
X139211035Y-156361036D01*
X139183179Y-156390319D01*
X139136525Y-156448023D01*
X139118090Y-156484868D01*
X138841180Y-156484868D01*
X138851348Y-156440570D01*
X138933558Y-156285709D01*
X139050815Y-156160252D01*
X139195602Y-156075731D01*
X139262538Y-156054938D01*
X139421705Y-156029411D01*
X139598024Y-156024261D01*
X139768347Y-156039504D01*
X139909513Y-156075164D01*
X139914246Y-156077010D01*
X140066679Y-156165451D01*
X140182618Y-156291376D01*
X140258052Y-156446617D01*
X140264756Y-156484868D01*
X140288969Y-156622997D01*
G37*
G36*
X146831002Y-153473812D02*
G01*
X147081324Y-153490939D01*
X147288027Y-153537766D01*
X147456026Y-153616503D01*
X147590229Y-153729365D01*
X147695546Y-153878568D01*
X147709103Y-153903561D01*
X147746332Y-153982046D01*
X147767452Y-154055653D01*
X147776783Y-154144700D01*
X147778644Y-154269498D01*
X147775680Y-154395544D01*
X147764689Y-154490175D01*
X147741586Y-154569402D01*
X147702278Y-154653831D01*
X147635958Y-154758530D01*
X147496865Y-154894787D01*
X147315871Y-154994328D01*
X147092306Y-155057602D01*
X147064423Y-155062007D01*
X146929957Y-155071570D01*
X146767099Y-155070468D01*
X146596803Y-155059856D01*
X146440029Y-155040898D01*
X146317729Y-155014753D01*
X146289957Y-155005927D01*
X146119348Y-154926277D01*
X145982079Y-154816379D01*
X145888668Y-154684329D01*
X145874827Y-154655508D01*
X145836855Y-154566311D01*
X145830239Y-154510644D01*
X145861170Y-154480648D01*
X145935837Y-154468460D01*
X146060430Y-154466222D01*
X146162948Y-154466902D01*
X146239204Y-154471518D01*
X146284945Y-154484152D01*
X146313844Y-154508905D01*
X146339571Y-154549871D01*
X146388451Y-154618934D01*
X146483118Y-154692377D01*
X146611344Y-154733717D01*
X146781601Y-154746721D01*
X146794276Y-154746682D01*
X146975400Y-154732192D01*
X147113717Y-154689305D01*
X147216369Y-154614626D01*
X147290500Y-154504759D01*
X147329869Y-154383432D01*
X147341305Y-154240490D01*
X147321310Y-154104715D01*
X147270672Y-153996305D01*
X147248511Y-153967601D01*
X147173364Y-153889507D01*
X147089537Y-153840156D01*
X146981376Y-153812504D01*
X146833229Y-153799507D01*
X146810533Y-153798582D01*
X146643648Y-153803081D01*
X146517723Y-153832405D01*
X146422664Y-153890326D01*
X146348379Y-153980613D01*
X146320533Y-154022468D01*
X146290499Y-154050279D01*
X146246517Y-154064810D01*
X146174517Y-154070520D01*
X146060430Y-154071867D01*
X146028078Y-154071988D01*
X145918447Y-154069800D01*
X145856164Y-154057736D01*
X145834065Y-154028452D01*
X145844981Y-153974613D01*
X145881744Y-153888873D01*
X145971557Y-153747617D01*
X146111300Y-153627940D01*
X146295489Y-153542409D01*
X146524193Y-153490988D01*
X146797483Y-153473646D01*
X146831002Y-153473812D01*
G37*
G36*
X150621757Y-156622997D02*
G01*
X150604143Y-156812344D01*
X150547569Y-156970210D01*
X150444580Y-157109377D01*
X150300155Y-157211197D01*
X150115590Y-157274443D01*
X150110260Y-157275523D01*
X150020120Y-157285757D01*
X149900439Y-157289928D01*
X149775609Y-157287130D01*
X149684720Y-157279228D01*
X149489435Y-157236338D01*
X149338747Y-157160538D01*
X149233312Y-157052108D01*
X149225204Y-157039756D01*
X149179781Y-156958560D01*
X149175856Y-156910169D01*
X149216700Y-156886828D01*
X149305591Y-156880771D01*
X149377376Y-156884106D01*
X149449185Y-156904347D01*
X149506267Y-156950152D01*
X149601923Y-157021930D01*
X149747845Y-157066776D01*
X149930151Y-157069666D01*
X149956193Y-157066936D01*
X150109276Y-157032450D01*
X150223064Y-156971963D01*
X150290832Y-156888850D01*
X150298161Y-156872780D01*
X150316539Y-156828447D01*
X150321705Y-156795308D01*
X150307521Y-156771739D01*
X150267854Y-156756106D01*
X150196567Y-156746783D01*
X150087531Y-156742140D01*
X149934606Y-156740548D01*
X149731660Y-156740381D01*
X149142017Y-156740381D01*
X149142017Y-156668580D01*
X149144490Y-156613299D01*
X149173968Y-156484868D01*
X149450878Y-156484868D01*
X149451373Y-156487023D01*
X149482754Y-156499800D01*
X149564376Y-156508754D01*
X149698175Y-156514027D01*
X149886090Y-156515754D01*
X149916440Y-156515719D01*
X150096474Y-156513492D01*
X150222670Y-156507699D01*
X150296967Y-156498204D01*
X150321303Y-156484868D01*
X150317261Y-156471784D01*
X150284431Y-156423303D01*
X150229376Y-156362057D01*
X150215233Y-156348678D01*
X150094569Y-156274715D01*
X149951133Y-156238944D01*
X149800889Y-156241391D01*
X149659799Y-156282082D01*
X149543824Y-156361036D01*
X149515967Y-156390319D01*
X149469313Y-156448023D01*
X149450878Y-156484868D01*
X149173968Y-156484868D01*
X149184135Y-156440570D01*
X149266345Y-156285709D01*
X149383603Y-156160252D01*
X149528390Y-156075731D01*
X149595326Y-156054938D01*
X149754493Y-156029411D01*
X149930814Y-156024261D01*
X150101134Y-156039504D01*
X150242303Y-156075164D01*
X150247033Y-156077010D01*
X150399467Y-156165451D01*
X150515406Y-156291376D01*
X150590840Y-156446617D01*
X150597544Y-156484868D01*
X150621757Y-156622997D01*
G37*
G36*
X140324255Y-154070385D02*
G01*
X140336819Y-154269498D01*
X140331678Y-154378926D01*
X140292134Y-154582949D01*
X140212007Y-154749030D01*
X140089254Y-154879678D01*
X139921843Y-154977406D01*
X139707731Y-155044722D01*
X139637511Y-155058255D01*
X139421994Y-155077821D01*
X139204877Y-155068738D01*
X139003584Y-155032488D01*
X138835539Y-154970550D01*
X138776349Y-154932812D01*
X138700390Y-154870217D01*
X138629449Y-154800245D01*
X138577002Y-154736351D01*
X138556525Y-154691991D01*
X138554612Y-154675626D01*
X138539482Y-154622771D01*
X138536237Y-154603892D01*
X138554099Y-154587845D01*
X138607131Y-154580263D01*
X138705790Y-154578358D01*
X138797200Y-154580183D01*
X138868521Y-154590417D01*
X138919982Y-154615118D01*
X138971101Y-154660315D01*
X138986820Y-154675119D01*
X139113870Y-154751937D01*
X139278267Y-154792622D01*
X139473770Y-154795495D01*
X139477064Y-154795229D01*
X139666180Y-154760629D01*
X139813762Y-154692158D01*
X139917793Y-154591174D01*
X139976252Y-154459024D01*
X139994601Y-154381810D01*
X139243485Y-154381810D01*
X138492368Y-154381810D01*
X138509959Y-154213511D01*
X138516913Y-154157371D01*
X138539082Y-154065929D01*
X138893569Y-154065929D01*
X138896749Y-154072776D01*
X138924615Y-154083944D01*
X138985886Y-154091978D01*
X139086245Y-154097254D01*
X139231371Y-154100146D01*
X139426950Y-154101027D01*
X139611296Y-154100091D01*
X139769306Y-154096661D01*
X139877828Y-154090517D01*
X139940368Y-154081448D01*
X139960435Y-154069244D01*
X139943381Y-154010536D01*
X139891858Y-153931713D01*
X139820037Y-153856513D01*
X139742386Y-153802631D01*
X139665051Y-153775181D01*
X139525502Y-153752976D01*
X139371278Y-153750488D01*
X139224617Y-153767654D01*
X139107755Y-153804415D01*
X139051755Y-153839361D01*
X138973597Y-153912234D01*
X138916068Y-153993618D01*
X138893569Y-154065929D01*
X138539082Y-154065929D01*
X138566139Y-153954327D01*
X138651572Y-153790609D01*
X138777090Y-153660390D01*
X138946572Y-153557841D01*
X139020017Y-153524646D01*
X139099643Y-153495712D01*
X139179176Y-153479356D01*
X139277352Y-153472059D01*
X139412910Y-153470306D01*
X139446645Y-153470460D01*
X139655949Y-153482825D01*
X139825745Y-153517389D01*
X139967933Y-153577581D01*
X140094408Y-153666835D01*
X140198341Y-153772825D01*
X140279652Y-153908697D01*
X140323941Y-154069244D01*
X140324255Y-154070385D01*
G37*
G36*
X135350232Y-153503996D02*
G01*
X135521157Y-153555109D01*
X135662598Y-153640475D01*
X135748701Y-153712925D01*
X135748701Y-153612155D01*
X135748701Y-153511385D01*
X135931209Y-153511385D01*
X136113719Y-153511385D01*
X136113719Y-154269498D01*
X136113719Y-155027609D01*
X135931209Y-155027609D01*
X135748701Y-155027609D01*
X135748701Y-154563417D01*
X135748523Y-154493547D01*
X135745458Y-154305840D01*
X135738262Y-154166111D01*
X135726506Y-154068219D01*
X135709761Y-154006025D01*
X135702768Y-153990574D01*
X135627806Y-153892118D01*
X135519966Y-153820358D01*
X135391958Y-153776789D01*
X135256487Y-153762911D01*
X135126261Y-153780221D01*
X135013983Y-153830215D01*
X134932364Y-153914395D01*
X134922965Y-153930746D01*
X134906018Y-153970065D01*
X134893953Y-154020650D01*
X134885962Y-154091476D01*
X134881241Y-154191523D01*
X134878983Y-154329766D01*
X134878380Y-154515182D01*
X134878275Y-155027609D01*
X134695767Y-155027609D01*
X134513259Y-155027609D01*
X134513259Y-154540392D01*
X134513052Y-154401620D01*
X134511605Y-154260038D01*
X134507877Y-154158071D01*
X134500835Y-154086289D01*
X134489451Y-154035264D01*
X134472691Y-153995566D01*
X134449523Y-153957769D01*
X134399074Y-153897401D01*
X134279785Y-153815341D01*
X134135421Y-153770165D01*
X133979692Y-153765255D01*
X133826305Y-153803994D01*
X133807805Y-153812059D01*
X133752386Y-153843596D01*
X133710820Y-153885728D01*
X133681166Y-153946038D01*
X133661483Y-154032114D01*
X133649828Y-154151542D01*
X133644259Y-154311912D01*
X133642833Y-154520806D01*
X133642833Y-155027609D01*
X133458328Y-155027609D01*
X133273821Y-155027609D01*
X133282840Y-154430946D01*
X133284041Y-154355167D01*
X133288649Y-154150400D01*
X133296172Y-153991666D01*
X133308771Y-153871284D01*
X133328612Y-153781567D01*
X133357856Y-153714830D01*
X133398670Y-153663389D01*
X133453215Y-153619557D01*
X133523657Y-153575653D01*
X133570923Y-153549098D01*
X133634132Y-153521491D01*
X133702706Y-153505884D01*
X133793560Y-153498963D01*
X133923616Y-153497421D01*
X133942722Y-153497479D01*
X134127882Y-153505936D01*
X134272032Y-153530978D01*
X134387657Y-153575846D01*
X134487242Y-153643780D01*
X134572110Y-153715191D01*
X134633938Y-153658689D01*
X134659499Y-153636959D01*
X134804456Y-153553616D01*
X134977491Y-153503505D01*
X135164213Y-153486879D01*
X135350232Y-153503996D01*
G37*
G36*
X147152073Y-155994812D02*
G01*
X147313093Y-156018555D01*
X147452151Y-156060502D01*
X147558522Y-156119548D01*
X147621474Y-156194589D01*
X147640948Y-156248296D01*
X147653469Y-156374978D01*
X147625237Y-156495104D01*
X147561070Y-156594318D01*
X147465787Y-156658264D01*
X147462344Y-156659475D01*
X147403668Y-156672839D01*
X147303676Y-156689501D01*
X147175460Y-156707461D01*
X147032113Y-156724709D01*
X147010632Y-156727136D01*
X146872539Y-156745137D01*
X146754599Y-156764444D01*
X146668735Y-156782893D01*
X146626866Y-156798319D01*
X146613971Y-156810860D01*
X146587244Y-156877339D01*
X146604547Y-156950936D01*
X146662846Y-157013496D01*
X146671915Y-157019129D01*
X146737092Y-157045191D01*
X146830035Y-157059141D01*
X146964688Y-157063279D01*
X147088203Y-157058997D01*
X147243189Y-157034378D01*
X147347775Y-156987643D01*
X147402834Y-156918504D01*
X147409093Y-156903561D01*
X147435206Y-156870916D01*
X147483624Y-156856152D01*
X147571171Y-156852693D01*
X147714489Y-156852693D01*
X147694897Y-156943947D01*
X147687580Y-156975024D01*
X147644860Y-157084525D01*
X147575953Y-157163730D01*
X147470937Y-157221136D01*
X147319890Y-157265247D01*
X147276476Y-157273659D01*
X147130356Y-157288563D01*
X146964622Y-157290942D01*
X146798024Y-157281617D01*
X146649311Y-157261403D01*
X146537235Y-157231120D01*
X146479548Y-157204992D01*
X146378649Y-157130767D01*
X146323111Y-157031479D01*
X146306115Y-156897272D01*
X146307562Y-156846147D01*
X146324577Y-156744879D01*
X146365839Y-156667324D01*
X146437716Y-156609354D01*
X146546569Y-156566841D01*
X146698765Y-156535654D01*
X146900668Y-156511669D01*
X146988681Y-156503107D01*
X147140007Y-156486337D01*
X147246188Y-156469719D01*
X147314647Y-156450759D01*
X147352808Y-156426971D01*
X147368096Y-156395861D01*
X147367933Y-156354942D01*
X147344178Y-156290360D01*
X147281846Y-156242957D01*
X147176244Y-156216156D01*
X147022110Y-156207723D01*
X146927899Y-156210626D01*
X146796858Y-156231322D01*
X146708864Y-156273915D01*
X146657454Y-156340763D01*
X146657130Y-156341495D01*
X146629762Y-156380473D01*
X146581932Y-156398840D01*
X146496006Y-156403442D01*
X146471083Y-156403294D01*
X146401199Y-156398105D01*
X146369646Y-156381002D01*
X146362271Y-156345890D01*
X146383697Y-156250090D01*
X146448057Y-156153302D01*
X146542287Y-156083607D01*
X146644539Y-156043829D01*
X146807068Y-156006344D01*
X146979822Y-155990374D01*
X147152073Y-155994812D01*
G37*
G36*
X143717664Y-156958668D02*
G01*
X143678604Y-157082185D01*
X143590427Y-157181434D01*
X143455526Y-157251579D01*
X143450555Y-157253264D01*
X143263790Y-157292059D01*
X143069765Y-157290817D01*
X142885636Y-157251337D01*
X142728550Y-157175414D01*
X142631251Y-157109385D01*
X142622540Y-157170568D01*
X142621747Y-157175623D01*
X142605640Y-157211842D01*
X142563566Y-157230938D01*
X142480457Y-157240308D01*
X142347085Y-157248865D01*
X142347085Y-156783135D01*
X142347134Y-156738634D01*
X142347610Y-156697173D01*
X142629693Y-156697173D01*
X142635755Y-156770071D01*
X142637438Y-156781688D01*
X142673369Y-156895012D01*
X142746617Y-156981498D01*
X142866532Y-157052589D01*
X142884568Y-157060233D01*
X143005142Y-157092352D01*
X143141572Y-157104781D01*
X143170112Y-157104688D01*
X143261167Y-157098258D01*
X143322003Y-157077546D01*
X143373218Y-157036479D01*
X143375112Y-157034575D01*
X143429940Y-156962698D01*
X143435138Y-156898140D01*
X143392114Y-156825216D01*
X143370229Y-156803192D01*
X143328910Y-156779825D01*
X143263967Y-156760788D01*
X143164619Y-156743146D01*
X143020077Y-156723964D01*
X142901897Y-156708808D01*
X142786594Y-156692557D01*
X142701416Y-156678895D01*
X142659192Y-156669750D01*
X142639529Y-156668424D01*
X142629693Y-156697173D01*
X142347610Y-156697173D01*
X142349376Y-156543507D01*
X142356551Y-156395202D01*
X142370823Y-156285957D01*
X142394359Y-156208015D01*
X142429330Y-156153610D01*
X142477901Y-156114985D01*
X142542239Y-156084375D01*
X142591046Y-156067149D01*
X142761634Y-156031109D01*
X142953970Y-156018157D01*
X143149580Y-156027740D01*
X143330000Y-156059304D01*
X143476759Y-156112299D01*
X143493180Y-156121950D01*
X143563281Y-156188658D01*
X143617149Y-156276191D01*
X143638683Y-156359930D01*
X143632710Y-156376842D01*
X143589337Y-156400053D01*
X143519213Y-156408107D01*
X143440536Y-156401697D01*
X143371510Y-156381511D01*
X143330334Y-156348240D01*
X143320159Y-156334477D01*
X143262413Y-156292990D01*
X143181935Y-156260882D01*
X143088750Y-156245436D01*
X142972632Y-156241356D01*
X142856205Y-156248556D01*
X142758118Y-156265835D01*
X142697015Y-156292000D01*
X142685018Y-156304501D01*
X142660019Y-156364510D01*
X142660374Y-156430736D01*
X142687499Y-156475785D01*
X142691849Y-156477685D01*
X142741607Y-156488470D01*
X142833312Y-156502317D01*
X142955618Y-156517650D01*
X143097180Y-156532881D01*
X143240876Y-156548971D01*
X143401869Y-156574841D01*
X143519829Y-156607114D01*
X143602441Y-156648893D01*
X143657388Y-156703288D01*
X143692357Y-156773404D01*
X143705211Y-156815715D01*
X143712391Y-156898140D01*
X143717664Y-156958668D01*
G37*
G36*
X145557345Y-154140515D02*
G01*
X145560463Y-154269498D01*
X145560449Y-154308340D01*
X145556976Y-154421342D01*
X145544849Y-154504147D01*
X145519753Y-154577071D01*
X145477368Y-154660428D01*
X145473120Y-154668048D01*
X145362858Y-154817227D01*
X145217922Y-154931275D01*
X145033288Y-155013218D01*
X144803931Y-155066084D01*
X144726760Y-155072843D01*
X144592514Y-155073689D01*
X144437284Y-155066851D01*
X144280341Y-155053653D01*
X144140955Y-155035419D01*
X144038404Y-155013471D01*
X143930004Y-154968951D01*
X143806395Y-154888024D01*
X143704792Y-154788824D01*
X143635944Y-154682264D01*
X143610605Y-154579259D01*
X143610863Y-154577648D01*
X143642384Y-154563170D01*
X143720615Y-154553683D01*
X143837045Y-154550280D01*
X143916443Y-154550696D01*
X144001916Y-154554886D01*
X144056325Y-154567116D01*
X144094880Y-154591622D01*
X144132784Y-154632640D01*
X144198251Y-154693935D01*
X144303093Y-154745354D01*
X144440851Y-154769550D01*
X144620908Y-154769146D01*
X144622064Y-154769080D01*
X144797399Y-154746758D01*
X144927583Y-154700621D01*
X145019962Y-154626716D01*
X145081880Y-154521095D01*
X145093416Y-154491811D01*
X145117316Y-154427325D01*
X145126830Y-154395281D01*
X145126500Y-154394887D01*
X145093933Y-154391408D01*
X145013141Y-154388284D01*
X144891268Y-154385638D01*
X144735467Y-154383594D01*
X144552888Y-154382276D01*
X144350679Y-154381810D01*
X143574528Y-154381810D01*
X143592796Y-154206322D01*
X143605531Y-154116419D01*
X143622367Y-154059886D01*
X144059858Y-154059886D01*
X144060037Y-154062603D01*
X144070472Y-154076656D01*
X144102005Y-154086911D01*
X144161644Y-154093920D01*
X144256400Y-154098239D01*
X144393285Y-154100423D01*
X144579305Y-154101027D01*
X144746001Y-154100717D01*
X144898641Y-154098323D01*
X145004528Y-154091701D01*
X145068794Y-154078708D01*
X145096566Y-154057201D01*
X145092972Y-154025040D01*
X145063145Y-153980079D01*
X145012207Y-153920179D01*
X144995070Y-153902028D01*
X144909658Y-153834535D01*
X144822680Y-153793005D01*
X144791958Y-153785471D01*
X144641451Y-153767049D01*
X144478720Y-153769561D01*
X144335931Y-153793005D01*
X144296063Y-153808687D01*
X144215216Y-153860474D01*
X144138903Y-153929268D01*
X144082119Y-154000571D01*
X144059858Y-154059886D01*
X143622367Y-154059886D01*
X143665063Y-153916524D01*
X143764562Y-153754405D01*
X143904878Y-153629422D01*
X144086871Y-153540937D01*
X144311394Y-153488314D01*
X144579305Y-153470916D01*
X144839950Y-153486272D01*
X145059254Y-153533817D01*
X145237559Y-153614906D01*
X145377842Y-153730900D01*
X145483083Y-153883158D01*
X145522641Y-153967745D01*
X145546121Y-154046835D01*
X145547363Y-154057201D01*
X145557345Y-154140515D01*
G37*
G36*
X153804229Y-152968865D02*
G01*
X154030174Y-152998447D01*
X154234230Y-153051079D01*
X154309248Y-153082420D01*
X154447335Y-153174306D01*
X154554443Y-153293318D01*
X154618011Y-153427150D01*
X154635181Y-153559019D01*
X154623128Y-153699967D01*
X154585639Y-153829166D01*
X154526519Y-153925863D01*
X154494264Y-153958381D01*
X154437184Y-154004485D01*
X154369608Y-154041991D01*
X154283945Y-154072928D01*
X154172602Y-154099329D01*
X154027992Y-154123228D01*
X153842521Y-154146657D01*
X153608601Y-154171647D01*
X153472259Y-154185796D01*
X153314227Y-154203906D01*
X153197859Y-154220625D01*
X153114657Y-154237836D01*
X153056120Y-154257423D01*
X153013752Y-154281272D01*
X152979052Y-154311269D01*
X152951389Y-154351491D01*
X152932572Y-154441304D01*
X152949109Y-154538065D01*
X152999546Y-154619800D01*
X153018272Y-154637030D01*
X153108988Y-154691503D01*
X153232497Y-154726131D01*
X153395853Y-154742328D01*
X153606103Y-154741505D01*
X153691523Y-154737431D01*
X153855729Y-154721184D01*
X153977319Y-154692248D01*
X154065484Y-154646559D01*
X154129417Y-154580059D01*
X154178304Y-154488687D01*
X154235322Y-154353732D01*
X154471539Y-154353732D01*
X154707756Y-154353732D01*
X154689186Y-154459024D01*
X154658901Y-154586987D01*
X154593445Y-154735606D01*
X154496109Y-154852088D01*
X154361251Y-154941011D01*
X154183237Y-155006962D01*
X153956431Y-155054519D01*
X153881999Y-155062543D01*
X153753539Y-155069078D01*
X153603779Y-155071225D01*
X153452024Y-155068452D01*
X153411373Y-155066775D01*
X153149497Y-155045389D01*
X152936037Y-155006444D01*
X152766178Y-154948355D01*
X152635113Y-154869546D01*
X152538024Y-154768436D01*
X152479670Y-154661703D01*
X152439534Y-154503896D01*
X152438713Y-154338502D01*
X152476857Y-154181756D01*
X152553612Y-154049885D01*
X152578982Y-154021871D01*
X152645615Y-153966296D01*
X152729805Y-153921561D01*
X152839268Y-153885437D01*
X152981729Y-153855692D01*
X153164904Y-153830098D01*
X153396516Y-153806423D01*
X153538320Y-153792771D01*
X153697090Y-153775584D01*
X153833142Y-153758808D01*
X153935388Y-153743825D01*
X153992748Y-153732019D01*
X154020358Y-153721628D01*
X154100253Y-153661384D01*
X154138200Y-153578833D01*
X154130696Y-153488098D01*
X154074242Y-153403296D01*
X154022932Y-153363586D01*
X153921598Y-153319185D01*
X153786178Y-153294628D01*
X153606642Y-153287429D01*
X153461772Y-153292316D01*
X153281216Y-153317455D01*
X153147122Y-153365257D01*
X153055907Y-153437193D01*
X153003986Y-153534730D01*
X152977121Y-153623697D01*
X152744262Y-153623697D01*
X152511405Y-153623697D01*
X152512021Y-153546483D01*
X152517181Y-153495738D01*
X152557119Y-153374069D01*
X152626184Y-153256627D01*
X152711915Y-153167054D01*
X152759495Y-153135218D01*
X152917744Y-153063044D01*
X153113151Y-153009421D01*
X153333907Y-152975252D01*
X153568203Y-152961432D01*
X153804229Y-152968865D01*
G37*
G36*
X138233582Y-154593631D02*
G01*
X138231021Y-154660711D01*
X138200874Y-154799512D01*
X138132431Y-154905703D01*
X138020232Y-154985883D01*
X137858819Y-155046653D01*
X137843714Y-155050715D01*
X137692739Y-155073083D01*
X137524412Y-155071913D01*
X137353239Y-155049843D01*
X137193732Y-155009513D01*
X137060401Y-154953560D01*
X136967755Y-154884621D01*
X136954331Y-154870277D01*
X136907909Y-154835622D01*
X136880637Y-154852232D01*
X136866591Y-154922317D01*
X136865247Y-154935910D01*
X136856726Y-154980834D01*
X136833837Y-155004915D01*
X136782672Y-155015960D01*
X136689322Y-155021773D01*
X136520852Y-155029976D01*
X136527577Y-154755030D01*
X136530319Y-154640583D01*
X136534295Y-154469691D01*
X136536169Y-154387172D01*
X136900014Y-154387172D01*
X136900878Y-154416081D01*
X136934640Y-154557193D01*
X137016793Y-154670158D01*
X137146342Y-154753499D01*
X137165456Y-154761506D01*
X137287927Y-154797304D01*
X137428005Y-154818936D01*
X137568002Y-154825408D01*
X137690228Y-154815726D01*
X137776997Y-154788900D01*
X137830540Y-154744011D01*
X137872229Y-154659847D01*
X137875757Y-154566180D01*
X137841460Y-154480219D01*
X137769681Y-154419170D01*
X137764800Y-154417099D01*
X137703973Y-154400930D01*
X137602211Y-154381757D01*
X137472464Y-154361803D01*
X137327692Y-154343294D01*
X137297441Y-154339762D01*
X137160670Y-154322616D01*
X137045921Y-154306361D01*
X136964465Y-154292685D01*
X136927577Y-154283282D01*
X136920352Y-154282179D01*
X136905489Y-154313392D01*
X136900014Y-154387172D01*
X136536169Y-154387172D01*
X136538456Y-154286500D01*
X136542255Y-154115067D01*
X136547549Y-153956519D01*
X136557262Y-153825058D01*
X136571712Y-153736688D01*
X136591688Y-153684539D01*
X136614017Y-153655458D01*
X136709616Y-153583626D01*
X136845119Y-153527462D01*
X137009914Y-153487887D01*
X137193397Y-153465821D01*
X137384959Y-153462180D01*
X137573994Y-153477887D01*
X137749894Y-153513857D01*
X137902050Y-153571012D01*
X137992587Y-153627431D01*
X138089601Y-153736886D01*
X138146575Y-153883421D01*
X138164499Y-153960637D01*
X137993609Y-153960637D01*
X137907292Y-153958804D01*
X137839383Y-153947488D01*
X137788276Y-153918874D01*
X137732689Y-153865177D01*
X137721857Y-153853888D01*
X137657226Y-153799257D01*
X137584275Y-153768030D01*
X137479095Y-153749283D01*
X137362168Y-153739462D01*
X137201474Y-153744250D01*
X137070752Y-153771234D01*
X136976175Y-153818065D01*
X136923925Y-153882393D01*
X136920175Y-153961872D01*
X136928304Y-153985275D01*
X136950390Y-154015159D01*
X136990642Y-154038941D01*
X137056630Y-154058656D01*
X137155922Y-154076340D01*
X137296086Y-154094033D01*
X137484690Y-154113765D01*
X137501255Y-154115434D01*
X137677935Y-154135975D01*
X137828576Y-154158453D01*
X137943172Y-154181178D01*
X138011711Y-154202470D01*
X138056654Y-154226588D01*
X138157007Y-154315176D01*
X138214938Y-154435683D01*
X138230341Y-154566180D01*
X138233582Y-154593631D01*
G37*
G36*
X149916854Y-154648439D02*
G01*
X149874500Y-154792646D01*
X149785194Y-154912021D01*
X149652829Y-155001904D01*
X149481298Y-155057639D01*
X149291374Y-155078830D01*
X149085992Y-155070337D01*
X148891101Y-155032484D01*
X148720554Y-154968027D01*
X148588204Y-154879727D01*
X148560280Y-154856198D01*
X148527483Y-154844941D01*
X148507002Y-154876480D01*
X148490538Y-154957413D01*
X148489768Y-154961785D01*
X148477165Y-154989395D01*
X148444592Y-155006221D01*
X148379986Y-155015806D01*
X148271288Y-155021677D01*
X148061005Y-155029785D01*
X148068020Y-154474152D01*
X148068193Y-154460726D01*
X148070218Y-154342619D01*
X148523713Y-154342619D01*
X148531016Y-154421986D01*
X148539411Y-154472206D01*
X148592638Y-154595602D01*
X148691222Y-154689522D01*
X148838071Y-154757146D01*
X148869033Y-154766202D01*
X148997941Y-154790239D01*
X149136883Y-154799999D01*
X149264604Y-154794797D01*
X149359852Y-154773945D01*
X149428802Y-154719435D01*
X149468155Y-154633184D01*
X149467480Y-154536461D01*
X149462422Y-154520125D01*
X149431052Y-154472397D01*
X149372260Y-154434651D01*
X149278860Y-154404334D01*
X149143671Y-154378891D01*
X148959509Y-154355766D01*
X148856752Y-154344165D01*
X148734346Y-154329018D01*
X148638295Y-154315609D01*
X148583360Y-154305896D01*
X148553687Y-154299736D01*
X148529345Y-154306140D01*
X148523713Y-154342619D01*
X148070218Y-154342619D01*
X148071220Y-154284189D01*
X148075289Y-154122275D01*
X148080045Y-153985365D01*
X148085133Y-153883842D01*
X148090195Y-153828092D01*
X148094584Y-153806544D01*
X148150610Y-153686908D01*
X148251314Y-153590800D01*
X148388290Y-153526723D01*
X148395220Y-153524691D01*
X148583227Y-153485516D01*
X148796183Y-153466068D01*
X149018372Y-153465733D01*
X149234077Y-153483899D01*
X149427585Y-153519955D01*
X149583181Y-153573287D01*
X149621275Y-153593758D01*
X149721618Y-153676957D01*
X149790381Y-153779855D01*
X149815894Y-153886736D01*
X149814596Y-153919295D01*
X149803182Y-153943111D01*
X149770145Y-153955394D01*
X149703976Y-153959963D01*
X149593161Y-153960637D01*
X149592362Y-153960637D01*
X149478244Y-153958757D01*
X149408424Y-153951544D01*
X149371185Y-153936574D01*
X149354809Y-153911431D01*
X149352418Y-153904471D01*
X149313060Y-153848181D01*
X149239047Y-153808869D01*
X149123492Y-153784094D01*
X148959509Y-153771415D01*
X148819932Y-153769586D01*
X148700036Y-153780241D01*
X148621363Y-153807424D01*
X148576463Y-153853941D01*
X148557881Y-153922595D01*
X148557698Y-153924515D01*
X148563054Y-153994733D01*
X148599999Y-154029096D01*
X148620472Y-154034096D01*
X148693100Y-154045577D01*
X148804416Y-154059797D01*
X148943614Y-154075416D01*
X149099899Y-154091096D01*
X149147294Y-154095716D01*
X149374921Y-154123384D01*
X149553448Y-154157447D01*
X149688789Y-154201133D01*
X149786865Y-154257667D01*
X149853588Y-154330277D01*
X149894873Y-154422192D01*
X149916639Y-154536638D01*
X149916824Y-154633184D01*
X149916854Y-154648439D01*
G37*
%TD*%
M02*
