%TF.GenerationSoftware,KiCad,Pcbnew,9.0.7-9.0.7~ubuntu24.04.1*%
%TF.CreationDate,2026-01-14T12:58:49+00:00*%
%TF.ProjectId,LIFT,4c494654-2e6b-4696-9361-645f70636258,rev?*%
%TF.SameCoordinates,Original*%
%TF.FileFunction,Profile,NP*%
%FSLAX46Y46*%
G04 Gerber Fmt 4.6, Leading zero omitted, Abs format (unit mm)*
G04 Created by KiCad (PCBNEW 9.0.7-9.0.7~ubuntu24.04.1) date 2026-01-14 12:58:49*
%MOMM*%
%LPD*%
G01*
G04 APERTURE LIST*
%TA.AperFunction,Profile*%
%ADD10C,0.050000*%
%TD*%
G04 APERTURE END LIST*
D10*
X123500000Y-138500000D02*
X123500000Y-111750000D01*
X119500000Y-150500000D02*
G75*
G02*
X123500000Y-154500000I0J-4000000D01*
G01*
X186500000Y-142507821D02*
G75*
G02*
X186500000Y-150492179I0J-3992179D01*
G01*
X182500000Y-31750000D02*
X182500000Y-29750000D01*
X182492179Y-154500000D02*
G75*
G02*
X186500000Y-150492179I4007821J0D01*
G01*
X119500000Y-150500000D02*
G75*
G02*
X119500000Y-142500000I0J4000000D01*
G01*
X186500000Y-35750000D02*
G75*
G02*
X182500000Y-31750000I0J4000000D01*
G01*
X123500000Y-154500000D02*
X123500000Y-155000000D01*
X123500000Y-29750000D02*
X182500000Y-29750000D01*
X123750000Y-158375000D02*
X123500000Y-158375000D01*
X123500000Y-155000000D02*
X123500000Y-158375000D01*
X182492179Y-154500000D02*
X182492179Y-158375000D01*
X123500000Y-32000000D02*
X123500000Y-29750000D01*
X119500000Y-44000000D02*
G75*
G02*
X119500000Y-36000000I0J4000000D01*
G01*
X119500000Y-44000000D02*
G75*
G02*
X123500000Y-48000000I0J-4000000D01*
G01*
X182500000Y-47750000D02*
X182500000Y-111750000D01*
X182500000Y-111750000D02*
X182500000Y-138500000D01*
X186500000Y-142500000D02*
G75*
G02*
X182500000Y-138500000I0J4000000D01*
G01*
X123500000Y-32000000D02*
G75*
G02*
X119500000Y-36000000I-4000000J0D01*
G01*
X123500000Y-111750000D02*
X123500000Y-48000000D01*
X182492179Y-158375000D02*
X123750000Y-158375000D01*
X123500000Y-138500000D02*
G75*
G02*
X119500000Y-142500000I-4000000J0D01*
G01*
X182500000Y-47750000D02*
G75*
G02*
X186500000Y-43750000I4000000J0D01*
G01*
X186500000Y-35750000D02*
G75*
G02*
X186500000Y-43750000I0J-4000000D01*
G01*
%TO.C,U7*%
X132150000Y-126050000D02*
G75*
G02*
X128150000Y-126050000I-2000000J0D01*
G01*
X128150000Y-126050000D02*
G75*
G02*
X132150000Y-126050000I2000000J0D01*
G01*
X132150000Y-153650000D02*
G75*
G02*
X128150000Y-153650000I-2000000J0D01*
G01*
X128150000Y-153650000D02*
G75*
G02*
X132150000Y-153650000I2000000J0D01*
G01*
X169750000Y-126050000D02*
G75*
G02*
X165750000Y-126050000I-2000000J0D01*
G01*
X165750000Y-126050000D02*
G75*
G02*
X169750000Y-126050000I2000000J0D01*
G01*
X169750000Y-153650000D02*
G75*
G02*
X165750000Y-153650000I-2000000J0D01*
G01*
X165750000Y-153650000D02*
G75*
G02*
X169750000Y-153650000I2000000J0D01*
G01*
%TD*%
M02*
