M48
; DRILL file {KiCad 9.0.7-9.0.7~ubuntu24.04.1} date 2026-01-14T13:17:07+0000
; FORMAT={-:-/ absolute / metric / decimal}
; #@! TF.CreationDate,2026-01-14T13:17:07+00:00
; #@! TF.GenerationSoftware,Kicad,Pcbnew,9.0.7-9.0.7~ubuntu24.04.1
; #@! TF.FileFunction,Plated,1,2,PTH
FMAT,2
METRIC
; #@! TA.AperFunction,Plated,PTH,ComponentDrill
T1C1.000
; #@! TA.AperFunction,Plated,PTH,ComponentDrill
T2C1.020
; #@! TA.AperFunction,Plated,PTH,ComponentDrill
T3C1.092
; #@! TA.AperFunction,Plated,PTH,ComponentDrill
T4C1.100
; #@! TA.AperFunction,Plated,PTH,ComponentDrill
T5C1.500
%
G90
G05
T1
X130.01Y-70.195
X130.01Y-87.975
X132.55Y-70.195
X132.55Y-87.975
X135.09Y-70.195
X135.09Y-87.975
X137.63Y-70.195
X137.63Y-87.975
X140.17Y-70.195
X140.17Y-87.975
X142.71Y-70.195
X142.71Y-87.975
X145.25Y-70.195
X145.25Y-87.975
X147.79Y-70.195
X147.79Y-87.975
X150.33Y-70.195
X150.33Y-87.975
X152.87Y-70.195
X152.87Y-87.975
X155.41Y-70.195
X155.41Y-87.975
X157.95Y-70.195
X157.95Y-87.975
X160.49Y-70.195
X160.49Y-87.975
X163.03Y-70.195
X163.03Y-87.975
X165.57Y-70.195
X165.57Y-87.975
X168.11Y-70.195
X168.11Y-87.975
X170.65Y-70.195
X170.65Y-87.975
X173.19Y-70.195
X173.19Y-87.975
X175.73Y-70.195
X175.73Y-87.975
X178.27Y-70.195
X178.27Y-87.975
T2
X126.99Y-93.915
X126.99Y-96.455
X126.99Y-98.995
X126.99Y-101.535
X168.21Y-93.915
X168.21Y-96.455
X168.21Y-98.995
X168.21Y-101.535
T3
X128.75Y-38.0
X132.25Y-38.0
X135.75Y-38.0
X139.25Y-38.0
X147.5Y-38.0
X151.0Y-38.0
X154.5Y-38.0
X158.0Y-38.0
X166.91Y-38.105
X170.41Y-38.105
X173.91Y-38.105
X175.144Y-104.91
X175.144Y-108.41
X175.144Y-116.91
X175.144Y-120.41
X175.25Y-96.0
X175.25Y-99.5
X177.41Y-38.105
T4
X126.975Y-111.615
X127.4Y-44.84
X129.94Y-44.84
X129.94Y-65.16
X130.785Y-111.615
X132.48Y-44.84
X132.48Y-65.16
X134.595Y-111.615
X135.02Y-44.84
X135.02Y-65.16
X137.56Y-44.84
X137.56Y-65.16
X138.405Y-111.615
X140.1Y-44.84
X142.215Y-111.615
X146.025Y-111.615
X146.4Y-44.84
X148.94Y-44.84
X148.94Y-65.16
X151.48Y-44.84
X151.48Y-65.16
X154.02Y-44.84
X154.02Y-65.16
X156.56Y-44.84
X156.56Y-65.16
X159.1Y-44.84
X165.4Y-44.84
X167.94Y-44.84
X167.94Y-65.16
X170.48Y-44.84
X170.48Y-65.16
X173.02Y-44.84
X173.02Y-65.16
X175.56Y-44.84
X175.56Y-65.16
X178.1Y-44.84
T5
X150.5Y-107.0
X150.5Y-121.0
X169.1Y-130.35
X169.1Y-132.95
X169.1Y-135.7
X169.1Y-138.35
X169.1Y-141.1
X169.1Y-143.7
X169.1Y-146.35
X169.1Y-149.0
X169.5Y-107.0
X169.5Y-121.0
M30
