%TF.GenerationSoftware,KiCad,Pcbnew,9.0.7-9.0.7~ubuntu24.04.1*%
%TF.CreationDate,2026-03-04T01:17:44+00:00*%
%TF.ProjectId,mission.control,6d697373-696f-46e2-9e63-6f6e74726f6c,rev?*%
%TF.SameCoordinates,Original*%
%TF.FileFunction,Copper,L2,Bot*%
%TF.FilePolarity,Positive*%
%FSLAX46Y46*%
G04 Gerber Fmt 4.6, Leading zero omitted, Abs format (unit mm)*
G04 Created by KiCad (PCBNEW 9.0.7-9.0.7~ubuntu24.04.1) date 2026-03-04 01:17:44*
%MOMM*%
%LPD*%
G01*
G04 APERTURE LIST*
G04 Aperture macros list*
%AMRoundRect*
0 Rectangle with rounded corners*
0 $1 Rounding radius*
0 $2 $3 $4 $5 $6 $7 $8 $9 X,Y pos of 4 corners*
0 Add a 4 corners polygon primitive as box body*
4,1,4,$2,$3,$4,$5,$6,$7,$8,$9,$2,$3,0*
0 Add four circle primitives for the rounded corners*
1,1,$1+$1,$2,$3*
1,1,$1+$1,$4,$5*
1,1,$1+$1,$6,$7*
1,1,$1+$1,$8,$9*
0 Add four rect primitives between the rounded corners*
20,1,$1+$1,$2,$3,$4,$5,0*
20,1,$1+$1,$4,$5,$6,$7,0*
20,1,$1+$1,$6,$7,$8,$9,0*
20,1,$1+$1,$8,$9,$2,$3,0*%
%AMFreePoly0*
4,1,37,0.603843,0.796157,0.639018,0.796157,0.711114,0.766294,0.766294,0.711114,0.796157,0.639018,0.796157,0.603843,0.800000,0.600000,0.800000,-0.600000,0.796157,-0.603843,0.796157,-0.639018,0.766294,-0.711114,0.711114,-0.766294,0.639018,-0.796157,0.603843,-0.796157,0.600000,-0.800000,0.000000,-0.800000,0.000000,-0.796148,-0.078414,-0.796148,-0.232228,-0.765552,-0.377117,-0.705537,
-0.507515,-0.618408,-0.618408,-0.507515,-0.705537,-0.377117,-0.765552,-0.232228,-0.796148,-0.078414,-0.796148,0.078414,-0.765552,0.232228,-0.705537,0.377117,-0.618408,0.507515,-0.507515,0.618408,-0.377117,0.705537,-0.232228,0.765552,-0.078414,0.796148,0.000000,0.796148,0.000000,0.800000,0.600000,0.800000,0.603843,0.796157,0.603843,0.796157,$1*%
%AMFreePoly1*
4,1,37,0.000000,0.796148,0.078414,0.796148,0.232228,0.765552,0.377117,0.705537,0.507515,0.618408,0.618408,0.507515,0.705537,0.377117,0.765552,0.232228,0.796148,0.078414,0.796148,-0.078414,0.765552,-0.232228,0.705537,-0.377117,0.618408,-0.507515,0.507515,-0.618408,0.377117,-0.705537,0.232228,-0.765552,0.078414,-0.796148,0.000000,-0.796148,0.000000,-0.800000,-0.600000,-0.800000,
-0.603843,-0.796157,-0.639018,-0.796157,-0.711114,-0.766294,-0.766294,-0.711114,-0.796157,-0.639018,-0.796157,-0.603843,-0.800000,-0.600000,-0.800000,0.600000,-0.796157,0.603843,-0.796157,0.639018,-0.766294,0.711114,-0.711114,0.766294,-0.639018,0.796157,-0.603843,0.796157,-0.600000,0.800000,0.000000,0.800000,0.000000,0.796148,0.000000,0.796148,$1*%
G04 Aperture macros list end*
%TA.AperFunction,ComponentPad*%
%ADD10C,2.250000*%
%TD*%
%TA.AperFunction,ComponentPad*%
%ADD11R,2.000000X2.000000*%
%TD*%
%TA.AperFunction,ComponentPad*%
%ADD12C,2.000000*%
%TD*%
%TA.AperFunction,ComponentPad*%
%ADD13R,1.530000X1.530000*%
%TD*%
%TA.AperFunction,ComponentPad*%
%ADD14C,1.530000*%
%TD*%
%TA.AperFunction,ComponentPad*%
%ADD15RoundRect,0.250000X-0.750000X0.750000X-0.750000X-0.750000X0.750000X-0.750000X0.750000X0.750000X0*%
%TD*%
%TA.AperFunction,ComponentPad*%
%ADD16R,1.700000X1.700000*%
%TD*%
%TA.AperFunction,ComponentPad*%
%ADD17C,1.700000*%
%TD*%
%TA.AperFunction,ComponentPad*%
%ADD18RoundRect,0.200000X-0.600000X-0.600000X0.600000X-0.600000X0.600000X0.600000X-0.600000X0.600000X0*%
%TD*%
%TA.AperFunction,ComponentPad*%
%ADD19C,1.600000*%
%TD*%
%TA.AperFunction,ComponentPad*%
%ADD20FreePoly0,0.000000*%
%TD*%
%TA.AperFunction,ComponentPad*%
%ADD21FreePoly1,0.000000*%
%TD*%
%TA.AperFunction,ViaPad*%
%ADD22C,0.700000*%
%TD*%
%TA.AperFunction,Conductor*%
%ADD23C,0.500000*%
%TD*%
G04 APERTURE END LIST*
D10*
%TO.P,U3,1,INT*%
%TO.N,/CAN_INT*%
X162450000Y-124350000D03*
%TO.P,U3,2,SCK*%
%TO.N,/SPI0_SCK*%
X165100000Y-124350000D03*
%TO.P,U3,3,SI*%
%TO.N,/SPI0_MOSI*%
X167750000Y-124350000D03*
%TO.P,U3,4,SO*%
%TO.N,/SPI0_MISO*%
X170350000Y-124350000D03*
%TO.P,U3,5,CS*%
%TO.N,/CAN_CS*%
X173100000Y-124350000D03*
%TO.P,U3,6,GND*%
%TO.N,GND*%
X175750000Y-124350000D03*
%TO.P,U3,7,VCC1*%
%TO.N,+5V*%
X178500000Y-124350000D03*
%TO.P,U3,8,VCC*%
X181100000Y-124350000D03*
%TD*%
D11*
%TO.P,BZ1,1,+*%
%TO.N,Net-(BZ1-+)*%
X179700000Y-75600000D03*
D12*
%TO.P,BZ1,2,-*%
%TO.N,GND*%
X184700000Y-75600000D03*
%TD*%
D13*
%TO.P,U2,1,GND*%
%TO.N,GND*%
X115710000Y-141260000D03*
D14*
%TO.P,U2,2,A*%
%TO.N,/RS_A*%
X118250000Y-141260000D03*
%TO.P,U2,3,B*%
%TO.N,/RS_B*%
X120790000Y-141260000D03*
%TO.P,U2,4,VCC*%
%TO.N,+5V*%
X123330000Y-141260000D03*
%TO.P,U2,5,RO*%
%TO.N,/RS_RO*%
X123330000Y-100040000D03*
%TO.P,U2,6,RE*%
%TO.N,/RS_TXEN*%
X120790000Y-100040000D03*
%TO.P,U2,7,DE*%
X118250000Y-100040000D03*
%TO.P,U2,8,DI*%
%TO.N,/RS_DI*%
X115710000Y-100040000D03*
%TD*%
D15*
%TO.P,Led,1,Pin_1*%
%TO.N,Net-(Led1-Pin_1)*%
X113000000Y-70210000D03*
D12*
%TO.P,Led,2,Pin_2*%
%TO.N,GND*%
X113000000Y-72750000D03*
%TD*%
D16*
%TO.P,U1,1,VCC*%
%TO.N,+3.3V*%
X152200000Y-144140000D03*
D17*
%TO.P,U1,2,GND*%
%TO.N,GND*%
X152200000Y-141600000D03*
%TO.P,U1,3,MISO_TX*%
%TO.N,/SPI0_MISO*%
X152200000Y-139060000D03*
%TO.P,U1,4,MOSI_RX*%
%TO.N,/SPI0_MOSI*%
X152200000Y-136520000D03*
%TO.P,U1,5,SCK_RTSN*%
%TO.N,/SPI0_SCK*%
X152200000Y-133980000D03*
%TO.P,U1,6,NSS_CTS*%
%TO.N,/RADIO_CS*%
X152200000Y-131440000D03*
%TO.P,U1,7,GND*%
%TO.N,GND*%
X152200000Y-128900000D03*
%TO.P,U1,8,RX_EN*%
%TO.N,/RADIO_RX_EN*%
X152200000Y-126360000D03*
%TO.P,U1,9,TX_EN*%
%TO.N,/RADIO_TX_EN*%
X129400000Y-126360000D03*
%TO.P,U1,10,GND*%
%TO.N,GND*%
X129400000Y-128900000D03*
%TO.P,U1,11,NRESET*%
%TO.N,/RADIO_NRESET*%
X129400000Y-131440000D03*
%TO.P,U1,12,BUSY*%
%TO.N,/RADIO_BUSY*%
X129400000Y-133980000D03*
%TO.P,U1,13,DIO1*%
%TO.N,/RADIO_DIO1*%
X129400000Y-136520000D03*
%TO.P,U1,14,DIO2*%
%TO.N,unconnected-(U1-DIO2-Pad14)*%
X129400000Y-139060000D03*
%TO.P,U1,15,DIO3*%
%TO.N,unconnected-(U1-DIO3-Pad15)*%
X129400000Y-141600000D03*
D16*
%TO.P,U1,16,GND*%
%TO.N,GND*%
X129400000Y-144140000D03*
%TD*%
D15*
%TO.P,AbortBtn,1,Pin_1*%
%TO.N,+3.3V*%
X113000000Y-85376667D03*
D12*
%TO.P,AbortBtn,2,Pin_2*%
%TO.N,/ABORT_SIGNAL*%
X113000000Y-87916667D03*
%TD*%
D15*
%TO.P,ArmKey,1,Pin_1*%
%TO.N,+3.3V*%
X113000000Y-77793333D03*
D12*
%TO.P,ArmKey,2,Pin_2*%
%TO.N,/ARM_SIGNAL*%
X113000000Y-80333333D03*
%TD*%
D18*
%TO.P,A1,1,GPIO0*%
%TO.N,/CAN_INT*%
X131310000Y-70600000D03*
D19*
%TO.P,A1,2,GPIO1*%
%TO.N,/CAN_CS*%
X131310000Y-73140000D03*
D20*
%TO.P,A1,3,GND*%
%TO.N,GND*%
X131310000Y-75680000D03*
D19*
%TO.P,A1,4,GPIO2*%
%TO.N,/BUZZER_SIGNAL*%
X131310000Y-78220000D03*
%TO.P,A1,5,GPIO3*%
%TO.N,/RADIO_NRESET*%
X131310000Y-80760000D03*
%TO.P,A1,6,GPIO4*%
%TO.N,unconnected-(A1-GPIO4-Pad6)*%
X131310000Y-83300000D03*
%TO.P,A1,7,GPIO5*%
%TO.N,/RADIO_TX_EN*%
X131310000Y-85840000D03*
D20*
%TO.P,A1,8,GND*%
%TO.N,GND*%
X131310000Y-88380000D03*
D19*
%TO.P,A1,9,GPIO6*%
%TO.N,/RADIO_RX_EN*%
X131310000Y-90920000D03*
%TO.P,A1,10,GPIO7*%
%TO.N,unconnected-(A1-GPIO7-Pad10)*%
X131310000Y-93460000D03*
%TO.P,A1,11,GPIO8*%
%TO.N,/LED_SIGNAL*%
X131310000Y-96000000D03*
%TO.P,A1,12,GPIO9*%
%TO.N,/ARM_SIGNAL*%
X131310000Y-98540000D03*
D20*
%TO.P,A1,13,GND*%
%TO.N,GND*%
X131310000Y-101080000D03*
D19*
%TO.P,A1,14,GPIO10*%
%TO.N,/ABORT_SIGNAL*%
X131310000Y-103620000D03*
%TO.P,A1,15,GPIO11*%
%TO.N,/FIRE_SIGNAL*%
X131310000Y-106160000D03*
%TO.P,A1,16,GPIO12*%
%TO.N,/RS_DI*%
X131310000Y-108700000D03*
%TO.P,A1,17,GPIO13*%
%TO.N,/RS_RO*%
X131310000Y-111240000D03*
D20*
%TO.P,A1,18,GND*%
%TO.N,GND*%
X131310000Y-113780000D03*
D19*
%TO.P,A1,19,GPIO14*%
%TO.N,/RADIO_DIO1*%
X131310000Y-116320000D03*
%TO.P,A1,20,GPIO15*%
%TO.N,/RADIO_BUSY*%
X131310000Y-118860000D03*
%TO.P,A1,21,GPIO16*%
%TO.N,/SPI0_MISO*%
X149090000Y-118860000D03*
%TO.P,A1,22,GPIO17*%
%TO.N,/RADIO_CS*%
X149090000Y-116320000D03*
D21*
%TO.P,A1,23,GND*%
%TO.N,GND*%
X149090000Y-113780000D03*
D19*
%TO.P,A1,24,GPIO18*%
%TO.N,/SPI0_SCK*%
X149090000Y-111240000D03*
%TO.P,A1,25,GPIO19*%
%TO.N,/SPI0_MOSI*%
X149090000Y-108700000D03*
%TO.P,A1,26,GPIO20*%
%TO.N,unconnected-(A1-GPIO20-Pad26)*%
X149090000Y-106160000D03*
%TO.P,A1,27,GPIO21*%
%TO.N,unconnected-(A1-GPIO21-Pad27)*%
X149090000Y-103620000D03*
D21*
%TO.P,A1,28,GND*%
%TO.N,GND*%
X149090000Y-101080000D03*
D19*
%TO.P,A1,29,GPIO22*%
%TO.N,/RS_TXEN*%
X149090000Y-98540000D03*
%TO.P,A1,30,RUN*%
%TO.N,unconnected-(A1-RUN-Pad30)*%
X149090000Y-96000000D03*
%TO.P,A1,31,GPIO26_ADC0*%
%TO.N,unconnected-(A1-GPIO26_ADC0-Pad31)*%
X149090000Y-93460000D03*
%TO.P,A1,32,GPIO27_ADC1*%
%TO.N,unconnected-(A1-GPIO27_ADC1-Pad32)*%
X149090000Y-90920000D03*
D21*
%TO.P,A1,33,AGND*%
%TO.N,unconnected-(A1-AGND-Pad33)*%
X149090000Y-88380000D03*
D19*
%TO.P,A1,34,GPIO28_ADC2*%
%TO.N,unconnected-(A1-GPIO28_ADC2-Pad34)*%
X149090000Y-85840000D03*
%TO.P,A1,35,ADC_VREF*%
%TO.N,unconnected-(A1-ADC_VREF-Pad35)*%
X149090000Y-83300000D03*
%TO.P,A1,36,3V3*%
%TO.N,+3.3V*%
X149090000Y-80760000D03*
%TO.P,A1,37,3V3_EN*%
%TO.N,unconnected-(A1-3V3_EN-Pad37)*%
X149090000Y-78220000D03*
D21*
%TO.P,A1,38,GND*%
%TO.N,GND*%
X149090000Y-75680000D03*
D19*
%TO.P,A1,39,VSYS*%
%TO.N,unconnected-(A1-VSYS-Pad39)*%
X149090000Y-73140000D03*
%TO.P,A1,40,VBUS*%
%TO.N,+5V*%
X149090000Y-70600000D03*
%TD*%
D15*
%TO.P,FireBtn,1,Pin_1*%
%TO.N,+3.3V*%
X113000000Y-92960000D03*
D12*
%TO.P,FireBtn,2,Pin_2*%
%TO.N,/FIRE_SIGNAL*%
X113000000Y-95500000D03*
%TD*%
D22*
%TO.N,GND*%
X119750000Y-92750000D03*
X111000000Y-102000000D03*
X119750000Y-78250000D03*
X119750000Y-85500000D03*
%TD*%
D23*
%TO.N,/RS_TXEN*%
X140269000Y-89719000D02*
X149090000Y-98540000D01*
X120790000Y-99741529D02*
X125180000Y-95351529D01*
X120790000Y-100040000D02*
X120790000Y-99741529D01*
X126441000Y-89719000D02*
X140269000Y-89719000D01*
X125180000Y-90980000D02*
X126441000Y-89719000D01*
X125180000Y-95351529D02*
X125180000Y-90980000D01*
%TO.N,/RADIO_RX_EN*%
X133650000Y-91650000D02*
X132920000Y-90920000D01*
X133650000Y-107810000D02*
X133650000Y-91650000D01*
X152200000Y-126360000D02*
X133650000Y-107810000D01*
X132920000Y-90920000D02*
X131310000Y-90920000D01*
%TO.N,/CAN_INT*%
X162500000Y-84400000D02*
X162500000Y-124300000D01*
X137660000Y-76950000D02*
X155050000Y-76950000D01*
X155050000Y-76950000D02*
X162500000Y-84400000D01*
X162500000Y-124300000D02*
X162450000Y-124350000D01*
X131310000Y-70600000D02*
X137660000Y-76950000D01*
%TD*%
%TA.AperFunction,Conductor*%
%TO.N,GND*%
G36*
X132769882Y-73141516D02*
G01*
X132820933Y-73172301D01*
X134975081Y-75326448D01*
X137077049Y-77428416D01*
X137181584Y-77532951D01*
X137181585Y-77532952D01*
X137304498Y-77615080D01*
X137304511Y-77615087D01*
X137441082Y-77671656D01*
X137441087Y-77671658D01*
X137441091Y-77671658D01*
X137441092Y-77671659D01*
X137586079Y-77700500D01*
X137586082Y-77700500D01*
X137586083Y-77700500D01*
X137733917Y-77700500D01*
X147720698Y-77700500D01*
X147787737Y-77720185D01*
X147833492Y-77772989D01*
X147843436Y-77842147D01*
X147838629Y-77862819D01*
X147821522Y-77915465D01*
X147789500Y-78117648D01*
X147789500Y-78322351D01*
X147821522Y-78524534D01*
X147884781Y-78719223D01*
X147977715Y-78901613D01*
X148098028Y-79067213D01*
X148242786Y-79211971D01*
X148360841Y-79297741D01*
X148408390Y-79332287D01*
X148499840Y-79378883D01*
X148501080Y-79379515D01*
X148551876Y-79427490D01*
X148568671Y-79495311D01*
X148546134Y-79561446D01*
X148501080Y-79600485D01*
X148408386Y-79647715D01*
X148242786Y-79768028D01*
X148098028Y-79912786D01*
X147977715Y-80078386D01*
X147884781Y-80260776D01*
X147821522Y-80455465D01*
X147789500Y-80657648D01*
X147789500Y-80862351D01*
X147821522Y-81064534D01*
X147884781Y-81259223D01*
X147977715Y-81441613D01*
X148098028Y-81607213D01*
X148242786Y-81751971D01*
X148355462Y-81833833D01*
X148408390Y-81872287D01*
X148499840Y-81918883D01*
X148501080Y-81919515D01*
X148551876Y-81967490D01*
X148568671Y-82035311D01*
X148546134Y-82101446D01*
X148501080Y-82140485D01*
X148408386Y-82187715D01*
X148242786Y-82308028D01*
X148098028Y-82452786D01*
X147977715Y-82618386D01*
X147884781Y-82800776D01*
X147821522Y-82995465D01*
X147789500Y-83197648D01*
X147789500Y-83402351D01*
X147821522Y-83604534D01*
X147884781Y-83799223D01*
X147977715Y-83981613D01*
X148098028Y-84147213D01*
X148242786Y-84291971D01*
X148397749Y-84404556D01*
X148408390Y-84412287D01*
X148493805Y-84455808D01*
X148501080Y-84459515D01*
X148551876Y-84507490D01*
X148568671Y-84575311D01*
X148546134Y-84641446D01*
X148501080Y-84680485D01*
X148408386Y-84727715D01*
X148242786Y-84848028D01*
X148098028Y-84992786D01*
X147977715Y-85158386D01*
X147884781Y-85340776D01*
X147821522Y-85535465D01*
X147789500Y-85737648D01*
X147789500Y-85942351D01*
X147821522Y-86144534D01*
X147884781Y-86339223D01*
X147977715Y-86521613D01*
X148098028Y-86687213D01*
X148242782Y-86831967D01*
X148242787Y-86831971D01*
X148319063Y-86887389D01*
X148361729Y-86942719D01*
X148367708Y-87012332D01*
X148335102Y-87074127D01*
X148276845Y-87107855D01*
X148256776Y-87112977D01*
X148256766Y-87112980D01*
X148183280Y-87143419D01*
X148183252Y-87143431D01*
X148134451Y-87166779D01*
X148134446Y-87166782D01*
X148019268Y-87253005D01*
X148019256Y-87253015D01*
X147963019Y-87309252D01*
X147926843Y-87349524D01*
X147926837Y-87349532D01*
X147853426Y-87473263D01*
X147822978Y-87546774D01*
X147822970Y-87546795D01*
X147804976Y-87597800D01*
X147804976Y-87597802D01*
X147790211Y-87700500D01*
X147784500Y-87740219D01*
X147784500Y-89019784D01*
X147787395Y-89073814D01*
X147787396Y-89073818D01*
X147822976Y-89213221D01*
X147822980Y-89213233D01*
X147853419Y-89286719D01*
X147853431Y-89286747D01*
X147876779Y-89335548D01*
X147876781Y-89335551D01*
X147963006Y-89450733D01*
X147963010Y-89450737D01*
X147963015Y-89450743D01*
X148019252Y-89506980D01*
X148019261Y-89506988D01*
X148019267Y-89506994D01*
X148059524Y-89543156D01*
X148059532Y-89543162D01*
X148183263Y-89616573D01*
X148183262Y-89616573D01*
X148197615Y-89622518D01*
X148256774Y-89647022D01*
X148272645Y-89652621D01*
X148285133Y-89657027D01*
X148341805Y-89697894D01*
X148367386Y-89762912D01*
X148353754Y-89831439D01*
X148316765Y-89874281D01*
X148242782Y-89928032D01*
X148098028Y-90072786D01*
X147977715Y-90238386D01*
X147884781Y-90420776D01*
X147821522Y-90615465D01*
X147789500Y-90817648D01*
X147789500Y-91022351D01*
X147821522Y-91224534D01*
X147884781Y-91419223D01*
X147938772Y-91525185D01*
X147964704Y-91576079D01*
X147977715Y-91601613D01*
X148098028Y-91767213D01*
X148242786Y-91911971D01*
X148397749Y-92024556D01*
X148408390Y-92032287D01*
X148499840Y-92078883D01*
X148501080Y-92079515D01*
X148551876Y-92127490D01*
X148568671Y-92195311D01*
X148546134Y-92261446D01*
X148501080Y-92300485D01*
X148408386Y-92347715D01*
X148242786Y-92468028D01*
X148098028Y-92612786D01*
X147977715Y-92778386D01*
X147884781Y-92960776D01*
X147821522Y-93155465D01*
X147789500Y-93357648D01*
X147789500Y-93562351D01*
X147821522Y-93764534D01*
X147884781Y-93959223D01*
X147977715Y-94141613D01*
X148098028Y-94307213D01*
X148242786Y-94451971D01*
X148397749Y-94564556D01*
X148408390Y-94572287D01*
X148499840Y-94618883D01*
X148501080Y-94619515D01*
X148551876Y-94667490D01*
X148568671Y-94735311D01*
X148546134Y-94801446D01*
X148501080Y-94840485D01*
X148408386Y-94887715D01*
X148242786Y-95008028D01*
X148098028Y-95152786D01*
X147977715Y-95318386D01*
X147884781Y-95500776D01*
X147821522Y-95695465D01*
X147789220Y-95899415D01*
X147759291Y-95962550D01*
X147699979Y-95999481D01*
X147630117Y-95998483D01*
X147579066Y-95967698D01*
X140747421Y-89136052D01*
X140747420Y-89136051D01*
X140635440Y-89061229D01*
X140635417Y-89061214D01*
X140635372Y-89061184D01*
X140624495Y-89053916D01*
X140624493Y-89053915D01*
X140624490Y-89053913D01*
X140487917Y-88997343D01*
X140487907Y-88997340D01*
X140342920Y-88968500D01*
X140342918Y-88968500D01*
X132739000Y-88968500D01*
X132671961Y-88948815D01*
X132626206Y-88896011D01*
X132615000Y-88844500D01*
X132615000Y-87740214D01*
X132612106Y-87686237D01*
X132612106Y-87686235D01*
X132576561Y-87546969D01*
X132576559Y-87546962D01*
X132553135Y-87490414D01*
X131792961Y-88250587D01*
X131775925Y-88187007D01*
X131710099Y-88072993D01*
X131617007Y-87979901D01*
X131502993Y-87914075D01*
X131439410Y-87897037D01*
X132199584Y-87136862D01*
X132143059Y-87113449D01*
X132143048Y-87113445D01*
X132114374Y-87103329D01*
X132057703Y-87062462D01*
X132032122Y-86997443D01*
X132045754Y-86928916D01*
X132082745Y-86886074D01*
X132157215Y-86831969D01*
X132157215Y-86831968D01*
X132157219Y-86831966D01*
X132301966Y-86687219D01*
X132301968Y-86687215D01*
X132301971Y-86687213D01*
X132368732Y-86595323D01*
X132422287Y-86521610D01*
X132515220Y-86339219D01*
X132578477Y-86144534D01*
X132610500Y-85942352D01*
X132610500Y-85737648D01*
X132578477Y-85535466D01*
X132515220Y-85340781D01*
X132515218Y-85340778D01*
X132515218Y-85340776D01*
X132468560Y-85249206D01*
X132422287Y-85158390D01*
X132414556Y-85147749D01*
X132301971Y-84992786D01*
X132157213Y-84848028D01*
X131991614Y-84727715D01*
X131958550Y-84710868D01*
X131898917Y-84680483D01*
X131848123Y-84632511D01*
X131831328Y-84564690D01*
X131853865Y-84498555D01*
X131898917Y-84459516D01*
X131991610Y-84412287D01*
X132012770Y-84396913D01*
X132157213Y-84291971D01*
X132157215Y-84291968D01*
X132157219Y-84291966D01*
X132301966Y-84147219D01*
X132301968Y-84147215D01*
X132301971Y-84147213D01*
X132376596Y-84044499D01*
X132422287Y-83981610D01*
X132515220Y-83799219D01*
X132578477Y-83604534D01*
X132610500Y-83402352D01*
X132610500Y-83197648D01*
X132578477Y-82995466D01*
X132515220Y-82800781D01*
X132515218Y-82800778D01*
X132515218Y-82800776D01*
X132481503Y-82734607D01*
X132422287Y-82618390D01*
X132414556Y-82607749D01*
X132301971Y-82452786D01*
X132157213Y-82308028D01*
X131991614Y-82187715D01*
X131985006Y-82184348D01*
X131898917Y-82140483D01*
X131848123Y-82092511D01*
X131831328Y-82024690D01*
X131853865Y-81958555D01*
X131898917Y-81919516D01*
X131991610Y-81872287D01*
X132044538Y-81833833D01*
X132157213Y-81751971D01*
X132157215Y-81751968D01*
X132157219Y-81751966D01*
X132301966Y-81607219D01*
X132301968Y-81607215D01*
X132301971Y-81607213D01*
X132395959Y-81477847D01*
X132422287Y-81441610D01*
X132515220Y-81259219D01*
X132578477Y-81064534D01*
X132610500Y-80862352D01*
X132610500Y-80657648D01*
X132578477Y-80455466D01*
X132515220Y-80260781D01*
X132515218Y-80260778D01*
X132515218Y-80260776D01*
X132481503Y-80194607D01*
X132422287Y-80078390D01*
X132352231Y-79981965D01*
X132301971Y-79912786D01*
X132157213Y-79768028D01*
X131991614Y-79647715D01*
X131985006Y-79644348D01*
X131898917Y-79600483D01*
X131848123Y-79552511D01*
X131831328Y-79484690D01*
X131853865Y-79418555D01*
X131898917Y-79379516D01*
X131991610Y-79332287D01*
X132039159Y-79297741D01*
X132157213Y-79211971D01*
X132157215Y-79211968D01*
X132157219Y-79211966D01*
X132301966Y-79067219D01*
X132301968Y-79067215D01*
X132301971Y-79067213D01*
X132354732Y-78994590D01*
X132422287Y-78901610D01*
X132515220Y-78719219D01*
X132578477Y-78524534D01*
X132610500Y-78322352D01*
X132610500Y-78117648D01*
X132578477Y-77915466D01*
X132515220Y-77720781D01*
X132515218Y-77720778D01*
X132515218Y-77720776D01*
X132461366Y-77615087D01*
X132422287Y-77538390D01*
X132414556Y-77527749D01*
X132301971Y-77372786D01*
X132157217Y-77228032D01*
X132080415Y-77172232D01*
X132037750Y-77116902D01*
X132031771Y-77047288D01*
X132064377Y-76985494D01*
X132122640Y-76951765D01*
X132143039Y-76946559D01*
X132199584Y-76923136D01*
X132199584Y-76923135D01*
X131439410Y-76162962D01*
X131502993Y-76145925D01*
X131617007Y-76080099D01*
X131710099Y-75987007D01*
X131775925Y-75872993D01*
X131792962Y-75809411D01*
X132553135Y-76569584D01*
X132553136Y-76569584D01*
X132576552Y-76513053D01*
X132594544Y-76462053D01*
X132614999Y-76319780D01*
X132615000Y-76319779D01*
X132615000Y-75040214D01*
X132612106Y-74986237D01*
X132612106Y-74986235D01*
X132576561Y-74846969D01*
X132576559Y-74846962D01*
X132553135Y-74790414D01*
X131792962Y-75550588D01*
X131775925Y-75487007D01*
X131710099Y-75372993D01*
X131617007Y-75279901D01*
X131502993Y-75214075D01*
X131439410Y-75197037D01*
X132199584Y-74436862D01*
X132143059Y-74413449D01*
X132143048Y-74413445D01*
X132114374Y-74403329D01*
X132057703Y-74362462D01*
X132032122Y-74297443D01*
X132045754Y-74228916D01*
X132082745Y-74186074D01*
X132157215Y-74131969D01*
X132157215Y-74131968D01*
X132157219Y-74131966D01*
X132301966Y-73987219D01*
X132301968Y-73987215D01*
X132301971Y-73987213D01*
X132354732Y-73914590D01*
X132422287Y-73821610D01*
X132515220Y-73639219D01*
X132578477Y-73444534D01*
X132610500Y-73242352D01*
X132610500Y-73242345D01*
X132610779Y-73240584D01*
X132640708Y-73177450D01*
X132700019Y-73140518D01*
X132769882Y-73141516D01*
G37*
%TD.AperFunction*%
%TA.AperFunction,Conductor*%
G36*
X189142539Y-67820185D02*
G01*
X189188294Y-67872989D01*
X189199500Y-67924500D01*
X189199500Y-149675500D01*
X189179815Y-149742539D01*
X189127011Y-149788294D01*
X189075500Y-149799500D01*
X108674500Y-149799500D01*
X108607461Y-149779815D01*
X108561706Y-149727011D01*
X108550500Y-149675500D01*
X108550500Y-140447155D01*
X114445000Y-140447155D01*
X114445000Y-141010000D01*
X115265440Y-141010000D01*
X115234755Y-141063147D01*
X115200000Y-141192857D01*
X115200000Y-141327143D01*
X115234755Y-141456853D01*
X115265440Y-141510000D01*
X114445000Y-141510000D01*
X114445000Y-142072844D01*
X114451401Y-142132372D01*
X114451403Y-142132379D01*
X114501645Y-142267086D01*
X114501649Y-142267093D01*
X114587809Y-142382187D01*
X114587812Y-142382190D01*
X114702906Y-142468350D01*
X114702913Y-142468354D01*
X114837620Y-142518596D01*
X114837627Y-142518598D01*
X114897155Y-142524999D01*
X114897172Y-142525000D01*
X115460000Y-142525000D01*
X115460000Y-141704560D01*
X115513147Y-141735245D01*
X115642857Y-141770000D01*
X115777143Y-141770000D01*
X115906853Y-141735245D01*
X115960000Y-141704560D01*
X115960000Y-142525000D01*
X116522828Y-142525000D01*
X116522844Y-142524999D01*
X116582372Y-142518598D01*
X116582379Y-142518596D01*
X116717086Y-142468354D01*
X116717093Y-142468350D01*
X116832187Y-142382190D01*
X116832190Y-142382187D01*
X116918350Y-142267093D01*
X116918354Y-142267086D01*
X116968596Y-142132379D01*
X116968598Y-142132372D01*
X116974999Y-142072844D01*
X116975000Y-142072827D01*
X116975000Y-142039743D01*
X116994685Y-141972704D01*
X117047489Y-141926949D01*
X117116647Y-141917005D01*
X117180203Y-141946030D01*
X117199316Y-141966855D01*
X117284731Y-142084418D01*
X117425582Y-142225269D01*
X117586734Y-142342353D01*
X117664913Y-142382187D01*
X117764219Y-142432786D01*
X117953657Y-142494338D01*
X117953658Y-142494338D01*
X117953661Y-142494339D01*
X118150403Y-142525500D01*
X118150404Y-142525500D01*
X118349596Y-142525500D01*
X118349597Y-142525500D01*
X118546339Y-142494339D01*
X118546342Y-142494338D01*
X118546343Y-142494338D01*
X118735780Y-142432786D01*
X118735780Y-142432785D01*
X118735783Y-142432785D01*
X118913266Y-142342353D01*
X119074418Y-142225269D01*
X119215269Y-142084418D01*
X119332353Y-141923266D01*
X119409515Y-141771827D01*
X119457490Y-141721031D01*
X119525311Y-141704236D01*
X119591446Y-141726773D01*
X119630485Y-141771827D01*
X119704011Y-141916130D01*
X119707647Y-141923266D01*
X119824731Y-142084418D01*
X119965582Y-142225269D01*
X120126734Y-142342353D01*
X120204913Y-142382187D01*
X120304219Y-142432786D01*
X120493657Y-142494338D01*
X120493658Y-142494338D01*
X120493661Y-142494339D01*
X120690403Y-142525500D01*
X120690404Y-142525500D01*
X120889596Y-142525500D01*
X120889597Y-142525500D01*
X121086339Y-142494339D01*
X121086342Y-142494338D01*
X121086343Y-142494338D01*
X121275780Y-142432786D01*
X121275780Y-142432785D01*
X121275783Y-142432785D01*
X121453266Y-142342353D01*
X121614418Y-142225269D01*
X121755269Y-142084418D01*
X121872353Y-141923266D01*
X121949515Y-141771827D01*
X121997490Y-141721031D01*
X122065311Y-141704236D01*
X122131446Y-141726773D01*
X122170485Y-141771827D01*
X122244011Y-141916130D01*
X122247647Y-141923266D01*
X122364731Y-142084418D01*
X122505582Y-142225269D01*
X122666734Y-142342353D01*
X122744913Y-142382187D01*
X122844219Y-142432786D01*
X123033657Y-142494338D01*
X123033658Y-142494338D01*
X123033661Y-142494339D01*
X123230403Y-142525500D01*
X123230404Y-142525500D01*
X123429596Y-142525500D01*
X123429597Y-142525500D01*
X123626339Y-142494339D01*
X123626342Y-142494338D01*
X123626343Y-142494338D01*
X123815780Y-142432786D01*
X123815780Y-142432785D01*
X123815783Y-142432785D01*
X123993266Y-142342353D01*
X124154418Y-142225269D01*
X124295269Y-142084418D01*
X124412353Y-141923266D01*
X124502785Y-141745783D01*
X124515631Y-141706246D01*
X124564338Y-141556343D01*
X124564338Y-141556342D01*
X124564339Y-141556339D01*
X124595500Y-141359597D01*
X124595500Y-141160403D01*
X124564339Y-140963661D01*
X124564338Y-140963657D01*
X124564338Y-140963656D01*
X124502786Y-140774219D01*
X124489514Y-140748172D01*
X124412353Y-140596734D01*
X124295269Y-140435582D01*
X124154418Y-140294731D01*
X123993266Y-140177647D01*
X123815780Y-140087213D01*
X123626342Y-140025661D01*
X123473168Y-140001401D01*
X123429597Y-139994500D01*
X123230403Y-139994500D01*
X123164822Y-140004887D01*
X123033659Y-140025661D01*
X123033656Y-140025661D01*
X122844219Y-140087213D01*
X122666733Y-140177647D01*
X122609109Y-140219514D01*
X122505582Y-140294731D01*
X122505580Y-140294733D01*
X122505579Y-140294733D01*
X122364733Y-140435579D01*
X122364733Y-140435580D01*
X122364731Y-140435582D01*
X122329025Y-140484727D01*
X122247647Y-140596733D01*
X122170485Y-140748172D01*
X122122510Y-140798968D01*
X122054689Y-140815763D01*
X121988554Y-140793225D01*
X121949515Y-140748172D01*
X121872352Y-140596733D01*
X121852854Y-140569896D01*
X121755269Y-140435582D01*
X121614418Y-140294731D01*
X121453266Y-140177647D01*
X121275780Y-140087213D01*
X121086342Y-140025661D01*
X120933168Y-140001401D01*
X120889597Y-139994500D01*
X120690403Y-139994500D01*
X120624822Y-140004887D01*
X120493659Y-140025661D01*
X120493656Y-140025661D01*
X120304219Y-140087213D01*
X120126733Y-140177647D01*
X120069109Y-140219514D01*
X119965582Y-140294731D01*
X119965580Y-140294733D01*
X119965579Y-140294733D01*
X119824733Y-140435579D01*
X119824733Y-140435580D01*
X119824731Y-140435582D01*
X119789025Y-140484727D01*
X119707647Y-140596733D01*
X119630485Y-140748172D01*
X119582510Y-140798968D01*
X119514689Y-140815763D01*
X119448554Y-140793225D01*
X119409515Y-140748172D01*
X119332352Y-140596733D01*
X119312854Y-140569896D01*
X119215269Y-140435582D01*
X119074418Y-140294731D01*
X118913266Y-140177647D01*
X118735780Y-140087213D01*
X118546342Y-140025661D01*
X118393168Y-140001401D01*
X118349597Y-139994500D01*
X118150403Y-139994500D01*
X118084822Y-140004887D01*
X117953659Y-140025661D01*
X117953656Y-140025661D01*
X117764219Y-140087213D01*
X117586733Y-140177647D01*
X117529109Y-140219514D01*
X117425582Y-140294731D01*
X117425580Y-140294733D01*
X117425579Y-140294733D01*
X117284732Y-140435580D01*
X117199318Y-140553142D01*
X117143987Y-140595807D01*
X117074374Y-140601786D01*
X117012579Y-140569180D01*
X116978222Y-140508341D01*
X116975000Y-140480256D01*
X116975000Y-140447172D01*
X116974999Y-140447155D01*
X116968598Y-140387627D01*
X116968596Y-140387620D01*
X116918354Y-140252913D01*
X116918350Y-140252906D01*
X116832190Y-140137812D01*
X116832187Y-140137809D01*
X116717093Y-140051649D01*
X116717086Y-140051645D01*
X116582379Y-140001403D01*
X116582372Y-140001401D01*
X116522844Y-139995000D01*
X115960000Y-139995000D01*
X115960000Y-140815439D01*
X115906853Y-140784755D01*
X115777143Y-140750000D01*
X115642857Y-140750000D01*
X115513147Y-140784755D01*
X115460000Y-140815439D01*
X115460000Y-139995000D01*
X114897155Y-139995000D01*
X114837627Y-140001401D01*
X114837620Y-140001403D01*
X114702913Y-140051645D01*
X114702906Y-140051649D01*
X114587812Y-140137809D01*
X114587809Y-140137812D01*
X114501649Y-140252906D01*
X114501645Y-140252913D01*
X114451403Y-140387620D01*
X114451401Y-140387627D01*
X114445000Y-140447155D01*
X108550500Y-140447155D01*
X108550500Y-126253713D01*
X128049500Y-126253713D01*
X128049500Y-126466286D01*
X128082753Y-126676239D01*
X128148444Y-126878414D01*
X128244951Y-127067820D01*
X128369890Y-127239786D01*
X128520213Y-127390109D01*
X128692179Y-127515048D01*
X128692181Y-127515049D01*
X128692184Y-127515051D01*
X128701493Y-127519794D01*
X128752290Y-127567766D01*
X128769087Y-127635587D01*
X128746552Y-127701722D01*
X128701505Y-127740760D01*
X128692446Y-127745376D01*
X128692440Y-127745380D01*
X128638282Y-127784727D01*
X128638282Y-127784728D01*
X129270591Y-128417037D01*
X129207007Y-128434075D01*
X129092993Y-128499901D01*
X128999901Y-128592993D01*
X128934075Y-128707007D01*
X128917037Y-128770591D01*
X128284728Y-128138282D01*
X128284727Y-128138282D01*
X128245380Y-128192439D01*
X128148904Y-128381782D01*
X128083242Y-128583869D01*
X128083242Y-128583872D01*
X128050000Y-128793753D01*
X128050000Y-129006246D01*
X128083242Y-129216127D01*
X128083242Y-129216130D01*
X128148904Y-129418217D01*
X128245375Y-129607550D01*
X128284728Y-129661716D01*
X128917037Y-129029408D01*
X128934075Y-129092993D01*
X128999901Y-129207007D01*
X129092993Y-129300099D01*
X129207007Y-129365925D01*
X129270590Y-129382962D01*
X128638282Y-130015269D01*
X128638282Y-130015270D01*
X128692452Y-130054626D01*
X128692451Y-130054626D01*
X128701495Y-130059234D01*
X128752292Y-130107208D01*
X128769087Y-130175029D01*
X128746550Y-130241164D01*
X128701499Y-130280202D01*
X128692182Y-130284949D01*
X128520213Y-130409890D01*
X128369890Y-130560213D01*
X128244951Y-130732179D01*
X128148444Y-130921585D01*
X128082753Y-131123760D01*
X128049500Y-131333713D01*
X128049500Y-131546286D01*
X128082753Y-131756239D01*
X128148444Y-131958414D01*
X128244951Y-132147820D01*
X128369890Y-132319786D01*
X128520213Y-132470109D01*
X128692182Y-132595050D01*
X128700946Y-132599516D01*
X128751742Y-132647491D01*
X128768536Y-132715312D01*
X128745998Y-132781447D01*
X128700946Y-132820484D01*
X128692182Y-132824949D01*
X128520213Y-132949890D01*
X128369890Y-133100213D01*
X128244951Y-133272179D01*
X128148444Y-133461585D01*
X128082753Y-133663760D01*
X128049500Y-133873713D01*
X128049500Y-134086286D01*
X128082753Y-134296239D01*
X128148444Y-134498414D01*
X128244951Y-134687820D01*
X128369890Y-134859786D01*
X128520213Y-135010109D01*
X128692182Y-135135050D01*
X128700946Y-135139516D01*
X128751742Y-135187491D01*
X128768536Y-135255312D01*
X128745998Y-135321447D01*
X128700946Y-135360484D01*
X128692182Y-135364949D01*
X128520213Y-135489890D01*
X128369890Y-135640213D01*
X128244951Y-135812179D01*
X128148444Y-136001585D01*
X128082753Y-136203760D01*
X128049500Y-136413713D01*
X128049500Y-136626286D01*
X128082753Y-136836239D01*
X128148444Y-137038414D01*
X128244951Y-137227820D01*
X128369890Y-137399786D01*
X128520213Y-137550109D01*
X128692182Y-137675050D01*
X128700946Y-137679516D01*
X128751742Y-137727491D01*
X128768536Y-137795312D01*
X128745998Y-137861447D01*
X128700946Y-137900484D01*
X128692182Y-137904949D01*
X128520213Y-138029890D01*
X128369890Y-138180213D01*
X128244951Y-138352179D01*
X128148444Y-138541585D01*
X128082753Y-138743760D01*
X128049500Y-138953713D01*
X128049500Y-139166286D01*
X128082753Y-139376239D01*
X128148444Y-139578414D01*
X128244951Y-139767820D01*
X128369890Y-139939786D01*
X128520213Y-140090109D01*
X128692182Y-140215050D01*
X128700946Y-140219516D01*
X128751742Y-140267491D01*
X128768536Y-140335312D01*
X128745998Y-140401447D01*
X128700946Y-140440484D01*
X128692182Y-140444949D01*
X128520213Y-140569890D01*
X128369890Y-140720213D01*
X128244951Y-140892179D01*
X128148444Y-141081585D01*
X128082753Y-141283760D01*
X128049500Y-141493713D01*
X128049500Y-141706286D01*
X128082735Y-141916127D01*
X128082754Y-141916243D01*
X128137398Y-142084420D01*
X128148444Y-142118414D01*
X128244951Y-142307820D01*
X128369890Y-142479786D01*
X128483818Y-142593714D01*
X128517303Y-142655037D01*
X128512319Y-142724729D01*
X128470447Y-142780662D01*
X128439471Y-142797577D01*
X128307912Y-142846646D01*
X128307906Y-142846649D01*
X128192812Y-142932809D01*
X128192809Y-142932812D01*
X128106649Y-143047906D01*
X128106645Y-143047913D01*
X128056403Y-143182620D01*
X128056401Y-143182627D01*
X128050000Y-143242155D01*
X128050000Y-143890000D01*
X128966988Y-143890000D01*
X128934075Y-143947007D01*
X128900000Y-144074174D01*
X128900000Y-144205826D01*
X128934075Y-144332993D01*
X128966988Y-144390000D01*
X128050000Y-144390000D01*
X128050000Y-145037844D01*
X128056401Y-145097372D01*
X128056403Y-145097379D01*
X128106645Y-145232086D01*
X128106649Y-145232093D01*
X128192809Y-145347187D01*
X128192812Y-145347190D01*
X128307906Y-145433350D01*
X128307913Y-145433354D01*
X128442620Y-145483596D01*
X128442627Y-145483598D01*
X128502155Y-145489999D01*
X128502172Y-145490000D01*
X129150000Y-145490000D01*
X129150000Y-144573012D01*
X129207007Y-144605925D01*
X129334174Y-144640000D01*
X129465826Y-144640000D01*
X129592993Y-144605925D01*
X129650000Y-144573012D01*
X129650000Y-145490000D01*
X130297828Y-145490000D01*
X130297844Y-145489999D01*
X130357372Y-145483598D01*
X130357379Y-145483596D01*
X130492086Y-145433354D01*
X130492093Y-145433350D01*
X130607187Y-145347190D01*
X130607190Y-145347187D01*
X130693350Y-145232093D01*
X130693354Y-145232086D01*
X130743596Y-145097379D01*
X130743598Y-145097372D01*
X130749999Y-145037844D01*
X130750000Y-145037827D01*
X130750000Y-144390000D01*
X129833012Y-144390000D01*
X129865925Y-144332993D01*
X129900000Y-144205826D01*
X129900000Y-144074174D01*
X129865925Y-143947007D01*
X129833012Y-143890000D01*
X130750000Y-143890000D01*
X130750000Y-143242164D01*
X130743598Y-143182627D01*
X130743596Y-143182620D01*
X130693354Y-143047913D01*
X130693350Y-143047906D01*
X130607190Y-142932812D01*
X130607187Y-142932809D01*
X130492093Y-142846649D01*
X130492088Y-142846646D01*
X130360528Y-142797577D01*
X130304595Y-142755705D01*
X130280178Y-142690241D01*
X130295030Y-142621968D01*
X130316175Y-142593720D01*
X130430104Y-142479792D01*
X130555051Y-142307816D01*
X130651557Y-142118412D01*
X130717246Y-141916243D01*
X130750500Y-141706287D01*
X130750500Y-141493713D01*
X130717246Y-141283757D01*
X130651557Y-141081588D01*
X130555051Y-140892184D01*
X130555049Y-140892181D01*
X130555048Y-140892179D01*
X130430109Y-140720213D01*
X130279786Y-140569890D01*
X130107820Y-140444951D01*
X130099600Y-140440763D01*
X130099054Y-140440485D01*
X130048259Y-140392512D01*
X130031463Y-140324692D01*
X130053999Y-140258556D01*
X130099054Y-140219515D01*
X130107816Y-140215051D01*
X130159299Y-140177647D01*
X130279786Y-140090109D01*
X130279788Y-140090106D01*
X130279792Y-140090104D01*
X130430104Y-139939792D01*
X130430106Y-139939788D01*
X130430109Y-139939786D01*
X130555048Y-139767820D01*
X130555047Y-139767820D01*
X130555051Y-139767816D01*
X130651557Y-139578412D01*
X130717246Y-139376243D01*
X130750500Y-139166287D01*
X130750500Y-138953713D01*
X130717246Y-138743757D01*
X130651557Y-138541588D01*
X130555051Y-138352184D01*
X130555049Y-138352181D01*
X130555048Y-138352179D01*
X130430109Y-138180213D01*
X130279786Y-138029890D01*
X130107820Y-137904951D01*
X130107115Y-137904591D01*
X130099054Y-137900485D01*
X130048259Y-137852512D01*
X130031463Y-137784692D01*
X130053999Y-137718556D01*
X130099054Y-137679515D01*
X130107816Y-137675051D01*
X130129789Y-137659086D01*
X130279786Y-137550109D01*
X130279788Y-137550106D01*
X130279792Y-137550104D01*
X130430104Y-137399792D01*
X130430106Y-137399788D01*
X130430109Y-137399786D01*
X130555048Y-137227820D01*
X130555047Y-137227820D01*
X130555051Y-137227816D01*
X130651557Y-137038412D01*
X130717246Y-136836243D01*
X130750500Y-136626287D01*
X130750500Y-136413713D01*
X130717246Y-136203757D01*
X130651557Y-136001588D01*
X130555051Y-135812184D01*
X130555049Y-135812181D01*
X130555048Y-135812179D01*
X130430109Y-135640213D01*
X130279786Y-135489890D01*
X130107820Y-135364951D01*
X130107115Y-135364591D01*
X130099054Y-135360485D01*
X130048259Y-135312512D01*
X130031463Y-135244692D01*
X130053999Y-135178556D01*
X130099054Y-135139515D01*
X130107816Y-135135051D01*
X130129789Y-135119086D01*
X130279786Y-135010109D01*
X130279788Y-135010106D01*
X130279792Y-135010104D01*
X130430104Y-134859792D01*
X130430106Y-134859788D01*
X130430109Y-134859786D01*
X130555048Y-134687820D01*
X130555047Y-134687820D01*
X130555051Y-134687816D01*
X130651557Y-134498412D01*
X130717246Y-134296243D01*
X130750500Y-134086287D01*
X130750500Y-133873713D01*
X130717246Y-133663757D01*
X130651557Y-133461588D01*
X130555051Y-133272184D01*
X130555049Y-133272181D01*
X130555048Y-133272179D01*
X130430109Y-133100213D01*
X130279786Y-132949890D01*
X130107820Y-132824951D01*
X130107115Y-132824591D01*
X130099054Y-132820485D01*
X130048259Y-132772512D01*
X130031463Y-132704692D01*
X130053999Y-132638556D01*
X130099054Y-132599515D01*
X130107816Y-132595051D01*
X130129789Y-132579086D01*
X130279786Y-132470109D01*
X130279788Y-132470106D01*
X130279792Y-132470104D01*
X130430104Y-132319792D01*
X130430106Y-132319788D01*
X130430109Y-132319786D01*
X130555048Y-132147820D01*
X130555047Y-132147820D01*
X130555051Y-132147816D01*
X130651557Y-131958412D01*
X130717246Y-131756243D01*
X130750500Y-131546287D01*
X130750500Y-131333713D01*
X130717246Y-131123757D01*
X130651557Y-130921588D01*
X130555051Y-130732184D01*
X130555049Y-130732181D01*
X130555048Y-130732179D01*
X130430109Y-130560213D01*
X130279786Y-130409890D01*
X130107817Y-130284949D01*
X130098504Y-130280204D01*
X130047707Y-130232230D01*
X130030912Y-130164409D01*
X130053449Y-130098274D01*
X130098507Y-130059232D01*
X130107555Y-130054622D01*
X130161716Y-130015270D01*
X130161717Y-130015270D01*
X129529408Y-129382962D01*
X129592993Y-129365925D01*
X129707007Y-129300099D01*
X129800099Y-129207007D01*
X129865925Y-129092993D01*
X129882962Y-129029409D01*
X130515270Y-129661717D01*
X130515270Y-129661716D01*
X130554622Y-129607554D01*
X130651095Y-129418217D01*
X130716757Y-129216130D01*
X130716757Y-129216127D01*
X130750000Y-129006246D01*
X130750000Y-128793753D01*
X130716757Y-128583872D01*
X130716757Y-128583869D01*
X130651095Y-128381782D01*
X130554624Y-128192449D01*
X130515270Y-128138282D01*
X130515269Y-128138282D01*
X129882962Y-128770590D01*
X129865925Y-128707007D01*
X129800099Y-128592993D01*
X129707007Y-128499901D01*
X129592993Y-128434075D01*
X129529409Y-128417037D01*
X130161716Y-127784728D01*
X130107547Y-127745373D01*
X130107547Y-127745372D01*
X130098500Y-127740763D01*
X130047706Y-127692788D01*
X130030912Y-127624966D01*
X130053451Y-127558832D01*
X130098508Y-127519793D01*
X130107816Y-127515051D01*
X130187007Y-127457515D01*
X130279786Y-127390109D01*
X130279788Y-127390106D01*
X130279792Y-127390104D01*
X130430104Y-127239792D01*
X130430106Y-127239788D01*
X130430109Y-127239786D01*
X130555048Y-127067820D01*
X130555047Y-127067820D01*
X130555051Y-127067816D01*
X130651557Y-126878412D01*
X130717246Y-126676243D01*
X130750500Y-126466287D01*
X130750500Y-126253713D01*
X130717246Y-126043757D01*
X130651557Y-125841588D01*
X130555051Y-125652184D01*
X130555049Y-125652181D01*
X130555048Y-125652179D01*
X130430109Y-125480213D01*
X130279786Y-125329890D01*
X130107820Y-125204951D01*
X129918414Y-125108444D01*
X129918413Y-125108443D01*
X129918412Y-125108443D01*
X129716243Y-125042754D01*
X129716241Y-125042753D01*
X129716240Y-125042753D01*
X129545192Y-125015662D01*
X129506287Y-125009500D01*
X129293713Y-125009500D01*
X129254808Y-125015662D01*
X129083760Y-125042753D01*
X128881585Y-125108444D01*
X128692179Y-125204951D01*
X128520213Y-125329890D01*
X128369890Y-125480213D01*
X128244951Y-125652179D01*
X128148444Y-125841585D01*
X128082753Y-126043760D01*
X128049500Y-126253713D01*
X108550500Y-126253713D01*
X108550500Y-99940403D01*
X114444500Y-99940403D01*
X114444500Y-100139596D01*
X114475661Y-100336340D01*
X114475661Y-100336343D01*
X114537213Y-100525780D01*
X114537215Y-100525783D01*
X114627647Y-100703266D01*
X114744731Y-100864418D01*
X114885582Y-101005269D01*
X115046734Y-101122353D01*
X115118244Y-101158789D01*
X115224219Y-101212786D01*
X115413657Y-101274338D01*
X115413658Y-101274338D01*
X115413661Y-101274339D01*
X115610403Y-101305500D01*
X115610404Y-101305500D01*
X115809596Y-101305500D01*
X115809597Y-101305500D01*
X116006339Y-101274339D01*
X116006342Y-101274338D01*
X116006343Y-101274338D01*
X116195780Y-101212786D01*
X116195780Y-101212785D01*
X116195783Y-101212785D01*
X116373266Y-101122353D01*
X116534418Y-101005269D01*
X116675269Y-100864418D01*
X116792353Y-100703266D01*
X116869515Y-100551827D01*
X116917490Y-100501031D01*
X116985311Y-100484236D01*
X117051446Y-100506773D01*
X117090485Y-100551827D01*
X117167647Y-100703266D01*
X117284731Y-100864418D01*
X117425582Y-101005269D01*
X117586734Y-101122353D01*
X117658244Y-101158789D01*
X117764219Y-101212786D01*
X117953657Y-101274338D01*
X117953658Y-101274338D01*
X117953661Y-101274339D01*
X118150403Y-101305500D01*
X118150404Y-101305500D01*
X118349596Y-101305500D01*
X118349597Y-101305500D01*
X118546339Y-101274339D01*
X118546342Y-101274338D01*
X118546343Y-101274338D01*
X118735780Y-101212786D01*
X118735780Y-101212785D01*
X118735783Y-101212785D01*
X118913266Y-101122353D01*
X119074418Y-101005269D01*
X119215269Y-100864418D01*
X119332353Y-100703266D01*
X119409515Y-100551827D01*
X119457490Y-100501031D01*
X119525311Y-100484236D01*
X119591446Y-100506773D01*
X119630485Y-100551827D01*
X119707647Y-100703266D01*
X119824731Y-100864418D01*
X119965582Y-101005269D01*
X120126734Y-101122353D01*
X120198244Y-101158789D01*
X120304219Y-101212786D01*
X120493657Y-101274338D01*
X120493658Y-101274338D01*
X120493661Y-101274339D01*
X120690403Y-101305500D01*
X120690404Y-101305500D01*
X120889596Y-101305500D01*
X120889597Y-101305500D01*
X121086339Y-101274339D01*
X121086342Y-101274338D01*
X121086343Y-101274338D01*
X121275780Y-101212786D01*
X121275780Y-101212785D01*
X121275783Y-101212785D01*
X121453266Y-101122353D01*
X121614418Y-101005269D01*
X121755269Y-100864418D01*
X121872353Y-100703266D01*
X121949515Y-100551827D01*
X121997490Y-100501031D01*
X122065311Y-100484236D01*
X122131446Y-100506773D01*
X122170485Y-100551827D01*
X122247647Y-100703266D01*
X122364731Y-100864418D01*
X122505582Y-101005269D01*
X122666734Y-101122353D01*
X122738244Y-101158789D01*
X122844219Y-101212786D01*
X123033657Y-101274338D01*
X123033658Y-101274338D01*
X123033661Y-101274339D01*
X123230403Y-101305500D01*
X123230404Y-101305500D01*
X123429596Y-101305500D01*
X123429597Y-101305500D01*
X123626339Y-101274339D01*
X123626342Y-101274338D01*
X123626343Y-101274338D01*
X123815780Y-101212786D01*
X123815780Y-101212785D01*
X123815783Y-101212785D01*
X123993266Y-101122353D01*
X124154418Y-101005269D01*
X124295269Y-100864418D01*
X124412353Y-100703266D01*
X124502785Y-100525783D01*
X124510827Y-100501031D01*
X124564338Y-100336343D01*
X124564338Y-100336342D01*
X124564339Y-100336339D01*
X124595500Y-100139597D01*
X124595500Y-99940403D01*
X124564339Y-99743661D01*
X124564338Y-99743657D01*
X124564338Y-99743656D01*
X124502786Y-99554219D01*
X124491448Y-99531967D01*
X124412353Y-99376734D01*
X124295269Y-99215582D01*
X124154418Y-99074731D01*
X123993266Y-98957647D01*
X123815780Y-98867213D01*
X123626342Y-98805661D01*
X123463142Y-98779813D01*
X123429597Y-98774500D01*
X123230403Y-98774500D01*
X123117792Y-98792335D01*
X123048499Y-98783380D01*
X122995047Y-98738383D01*
X122974408Y-98671632D01*
X122993133Y-98604318D01*
X123010710Y-98582185D01*
X125762952Y-95829944D01*
X125811223Y-95757701D01*
X125845084Y-95707024D01*
X125894961Y-95586611D01*
X125901659Y-95570441D01*
X125930500Y-95425446D01*
X125930500Y-95277611D01*
X125930500Y-91342229D01*
X125950185Y-91275190D01*
X125966819Y-91254548D01*
X126715548Y-90505819D01*
X126776871Y-90472334D01*
X126803229Y-90469500D01*
X129919457Y-90469500D01*
X129986496Y-90489185D01*
X130032251Y-90541989D01*
X130042195Y-90611147D01*
X130041930Y-90612898D01*
X130041523Y-90615464D01*
X130041523Y-90615466D01*
X130018459Y-90761087D01*
X130009500Y-90817649D01*
X130009500Y-91022351D01*
X130041522Y-91224534D01*
X130104781Y-91419223D01*
X130158772Y-91525185D01*
X130184704Y-91576079D01*
X130197715Y-91601613D01*
X130318028Y-91767213D01*
X130462786Y-91911971D01*
X130617749Y-92024556D01*
X130628390Y-92032287D01*
X130719840Y-92078883D01*
X130721080Y-92079515D01*
X130771876Y-92127490D01*
X130788671Y-92195311D01*
X130766134Y-92261446D01*
X130721080Y-92300485D01*
X130628386Y-92347715D01*
X130462786Y-92468028D01*
X130318028Y-92612786D01*
X130197715Y-92778386D01*
X130104781Y-92960776D01*
X130041522Y-93155465D01*
X130009500Y-93357648D01*
X130009500Y-93562351D01*
X130041522Y-93764534D01*
X130104781Y-93959223D01*
X130197715Y-94141613D01*
X130318028Y-94307213D01*
X130462786Y-94451971D01*
X130617749Y-94564556D01*
X130628390Y-94572287D01*
X130719840Y-94618883D01*
X130721080Y-94619515D01*
X130771876Y-94667490D01*
X130788671Y-94735311D01*
X130766134Y-94801446D01*
X130721080Y-94840485D01*
X130628386Y-94887715D01*
X130462786Y-95008028D01*
X130318028Y-95152786D01*
X130197715Y-95318386D01*
X130104781Y-95500776D01*
X130041522Y-95695465D01*
X130009500Y-95897648D01*
X130009500Y-96102351D01*
X130041522Y-96304534D01*
X130104781Y-96499223D01*
X130197715Y-96681613D01*
X130318028Y-96847213D01*
X130462786Y-96991971D01*
X130617749Y-97104556D01*
X130628390Y-97112287D01*
X130719840Y-97158883D01*
X130721080Y-97159515D01*
X130771876Y-97207490D01*
X130788671Y-97275311D01*
X130766134Y-97341446D01*
X130721080Y-97380485D01*
X130628386Y-97427715D01*
X130462786Y-97548028D01*
X130318028Y-97692786D01*
X130197715Y-97858386D01*
X130104781Y-98040776D01*
X130041522Y-98235465D01*
X130009500Y-98437648D01*
X130009500Y-98642351D01*
X130041522Y-98844534D01*
X130104781Y-99039223D01*
X130197715Y-99221613D01*
X130318028Y-99387213D01*
X130462786Y-99531971D01*
X130628388Y-99652286D01*
X130628390Y-99652287D01*
X130714294Y-99696057D01*
X130765090Y-99744031D01*
X130781886Y-99811852D01*
X130759349Y-99877987D01*
X130716455Y-99915899D01*
X130650497Y-99951155D01*
X130581086Y-99997534D01*
X130581085Y-99997534D01*
X131180589Y-100597037D01*
X131117007Y-100614075D01*
X131002993Y-100679901D01*
X130909901Y-100772993D01*
X130844075Y-100887007D01*
X130827037Y-100950588D01*
X130227534Y-100351085D01*
X130227534Y-100351086D01*
X130181158Y-100420493D01*
X130134490Y-100507801D01*
X130074185Y-100653387D01*
X130045444Y-100748135D01*
X130014701Y-100902697D01*
X130014701Y-100902700D01*
X130005000Y-101001210D01*
X130005000Y-101158789D01*
X130014701Y-101257299D01*
X130014701Y-101257302D01*
X130045444Y-101411864D01*
X130074185Y-101506612D01*
X130134490Y-101652198D01*
X130181155Y-101739501D01*
X130181161Y-101739511D01*
X130227534Y-101808912D01*
X130827037Y-101209410D01*
X130844075Y-101272993D01*
X130909901Y-101387007D01*
X131002993Y-101480099D01*
X131117007Y-101545925D01*
X131180589Y-101562962D01*
X130581085Y-102162465D01*
X130650488Y-102208838D01*
X130650498Y-102208844D01*
X130716454Y-102244099D01*
X130766298Y-102293062D01*
X130781758Y-102361200D01*
X130757926Y-102426879D01*
X130714295Y-102463942D01*
X130628386Y-102507715D01*
X130462786Y-102628028D01*
X130318028Y-102772786D01*
X130197715Y-102938386D01*
X130104781Y-103120776D01*
X130041522Y-103315465D01*
X130009500Y-103517648D01*
X130009500Y-103722351D01*
X130041522Y-103924534D01*
X130104781Y-104119223D01*
X130197715Y-104301613D01*
X130318028Y-104467213D01*
X130462786Y-104611971D01*
X130617749Y-104724556D01*
X130628390Y-104732287D01*
X130719840Y-104778883D01*
X130721080Y-104779515D01*
X130771876Y-104827490D01*
X130788671Y-104895311D01*
X130766134Y-104961446D01*
X130721080Y-105000485D01*
X130628386Y-105047715D01*
X130462786Y-105168028D01*
X130318028Y-105312786D01*
X130197715Y-105478386D01*
X130104781Y-105660776D01*
X130041522Y-105855465D01*
X130009500Y-106057648D01*
X130009500Y-106262351D01*
X130041522Y-106464534D01*
X130104781Y-106659223D01*
X130197715Y-106841613D01*
X130318028Y-107007213D01*
X130462786Y-107151971D01*
X130617749Y-107264556D01*
X130628390Y-107272287D01*
X130719840Y-107318883D01*
X130721080Y-107319515D01*
X130771876Y-107367490D01*
X130788671Y-107435311D01*
X130766134Y-107501446D01*
X130721080Y-107540485D01*
X130628386Y-107587715D01*
X130462786Y-107708028D01*
X130318028Y-107852786D01*
X130197715Y-108018386D01*
X130104781Y-108200776D01*
X130041522Y-108395465D01*
X130009500Y-108597648D01*
X130009500Y-108802351D01*
X130041522Y-109004534D01*
X130104781Y-109199223D01*
X130197715Y-109381613D01*
X130318028Y-109547213D01*
X130462786Y-109691971D01*
X130617749Y-109804556D01*
X130628390Y-109812287D01*
X130719840Y-109858883D01*
X130721080Y-109859515D01*
X130771876Y-109907490D01*
X130788671Y-109975311D01*
X130766134Y-110041446D01*
X130721080Y-110080485D01*
X130628386Y-110127715D01*
X130462786Y-110248028D01*
X130318028Y-110392786D01*
X130197715Y-110558386D01*
X130104781Y-110740776D01*
X130041522Y-110935465D01*
X130009500Y-111137648D01*
X130009500Y-111342351D01*
X130041522Y-111544534D01*
X130104781Y-111739223D01*
X130197715Y-111921613D01*
X130318028Y-112087213D01*
X130462786Y-112231971D01*
X130628388Y-112352286D01*
X130628390Y-112352287D01*
X130714294Y-112396057D01*
X130765090Y-112444031D01*
X130781886Y-112511852D01*
X130759349Y-112577987D01*
X130716455Y-112615899D01*
X130650497Y-112651155D01*
X130581086Y-112697534D01*
X130581085Y-112697534D01*
X131180589Y-113297037D01*
X131117007Y-113314075D01*
X131002993Y-113379901D01*
X130909901Y-113472993D01*
X130844075Y-113587007D01*
X130827037Y-113650588D01*
X130227534Y-113051085D01*
X130227534Y-113051086D01*
X130181158Y-113120493D01*
X130134490Y-113207801D01*
X130074185Y-113353387D01*
X130045444Y-113448135D01*
X130014701Y-113602697D01*
X130014701Y-113602700D01*
X130005000Y-113701210D01*
X130005000Y-113858789D01*
X130014701Y-113957299D01*
X130014701Y-113957302D01*
X130045444Y-114111864D01*
X130074185Y-114206612D01*
X130134490Y-114352198D01*
X130181155Y-114439501D01*
X130181161Y-114439511D01*
X130227534Y-114508912D01*
X130827037Y-113909410D01*
X130844075Y-113972993D01*
X130909901Y-114087007D01*
X131002993Y-114180099D01*
X131117007Y-114245925D01*
X131180589Y-114262962D01*
X130581085Y-114862465D01*
X130650488Y-114908838D01*
X130650498Y-114908844D01*
X130716454Y-114944099D01*
X130766298Y-114993062D01*
X130781758Y-115061200D01*
X130757926Y-115126879D01*
X130714295Y-115163942D01*
X130628386Y-115207715D01*
X130462786Y-115328028D01*
X130318028Y-115472786D01*
X130197715Y-115638386D01*
X130104781Y-115820776D01*
X130041522Y-116015465D01*
X130009500Y-116217648D01*
X130009500Y-116422351D01*
X130041522Y-116624534D01*
X130104781Y-116819223D01*
X130197715Y-117001613D01*
X130318028Y-117167213D01*
X130462786Y-117311971D01*
X130617749Y-117424556D01*
X130628390Y-117432287D01*
X130719840Y-117478883D01*
X130721080Y-117479515D01*
X130771876Y-117527490D01*
X130788671Y-117595311D01*
X130766134Y-117661446D01*
X130721080Y-117700485D01*
X130628386Y-117747715D01*
X130462786Y-117868028D01*
X130318028Y-118012786D01*
X130197715Y-118178386D01*
X130104781Y-118360776D01*
X130041522Y-118555465D01*
X130009500Y-118757648D01*
X130009500Y-118962351D01*
X130041522Y-119164534D01*
X130104781Y-119359223D01*
X130197715Y-119541613D01*
X130318028Y-119707213D01*
X130462786Y-119851971D01*
X130617749Y-119964556D01*
X130628390Y-119972287D01*
X130744607Y-120031503D01*
X130810776Y-120065218D01*
X130810778Y-120065218D01*
X130810781Y-120065220D01*
X130915137Y-120099127D01*
X131005465Y-120128477D01*
X131106557Y-120144488D01*
X131207648Y-120160500D01*
X131207649Y-120160500D01*
X131412351Y-120160500D01*
X131412352Y-120160500D01*
X131614534Y-120128477D01*
X131809219Y-120065220D01*
X131991610Y-119972287D01*
X132084590Y-119904732D01*
X132157213Y-119851971D01*
X132157215Y-119851968D01*
X132157219Y-119851966D01*
X132301966Y-119707219D01*
X132301968Y-119707215D01*
X132301971Y-119707213D01*
X132354732Y-119634590D01*
X132422287Y-119541610D01*
X132515220Y-119359219D01*
X132578477Y-119164534D01*
X132610500Y-118962352D01*
X132610500Y-118757648D01*
X132578477Y-118555466D01*
X132515220Y-118360781D01*
X132515218Y-118360778D01*
X132515218Y-118360776D01*
X132481503Y-118294607D01*
X132422287Y-118178390D01*
X132414556Y-118167749D01*
X132301971Y-118012786D01*
X132157213Y-117868028D01*
X131991614Y-117747715D01*
X131985006Y-117744348D01*
X131898917Y-117700483D01*
X131848123Y-117652511D01*
X131831328Y-117584690D01*
X131853865Y-117518555D01*
X131898917Y-117479516D01*
X131991610Y-117432287D01*
X132012770Y-117416913D01*
X132157213Y-117311971D01*
X132157215Y-117311968D01*
X132157219Y-117311966D01*
X132301966Y-117167219D01*
X132301968Y-117167215D01*
X132301971Y-117167213D01*
X132354732Y-117094590D01*
X132422287Y-117001610D01*
X132515220Y-116819219D01*
X132578477Y-116624534D01*
X132610500Y-116422352D01*
X132610500Y-116217648D01*
X132578477Y-116015466D01*
X132515220Y-115820781D01*
X132515218Y-115820778D01*
X132515218Y-115820776D01*
X132481503Y-115754607D01*
X132422287Y-115638390D01*
X132414556Y-115627749D01*
X132301971Y-115472786D01*
X132157217Y-115328032D01*
X132080415Y-115272232D01*
X132037750Y-115216902D01*
X132031771Y-115147288D01*
X132064377Y-115085494D01*
X132122640Y-115051765D01*
X132143039Y-115046559D01*
X132199584Y-115023136D01*
X132199584Y-115023135D01*
X131439410Y-114262962D01*
X131502993Y-114245925D01*
X131617007Y-114180099D01*
X131710099Y-114087007D01*
X131775925Y-113972993D01*
X131792962Y-113909411D01*
X132553135Y-114669584D01*
X132553136Y-114669584D01*
X132576552Y-114613053D01*
X132594544Y-114562053D01*
X132614999Y-114419780D01*
X132615000Y-114419779D01*
X132615000Y-113140214D01*
X132612106Y-113086237D01*
X132612106Y-113086235D01*
X132576561Y-112946969D01*
X132576559Y-112946962D01*
X132553135Y-112890414D01*
X131792962Y-113650588D01*
X131775925Y-113587007D01*
X131710099Y-113472993D01*
X131617007Y-113379901D01*
X131502993Y-113314075D01*
X131439410Y-113297037D01*
X132199584Y-112536862D01*
X132143059Y-112513449D01*
X132143048Y-112513445D01*
X132114374Y-112503329D01*
X132057703Y-112462462D01*
X132032122Y-112397443D01*
X132045754Y-112328916D01*
X132082745Y-112286074D01*
X132157215Y-112231969D01*
X132157215Y-112231968D01*
X132157219Y-112231966D01*
X132301966Y-112087219D01*
X132301968Y-112087215D01*
X132301971Y-112087213D01*
X132354732Y-112014590D01*
X132422287Y-111921610D01*
X132515220Y-111739219D01*
X132578477Y-111544534D01*
X132610500Y-111342352D01*
X132610500Y-111137648D01*
X132578477Y-110935466D01*
X132515220Y-110740781D01*
X132515218Y-110740778D01*
X132515218Y-110740776D01*
X132481503Y-110674607D01*
X132422287Y-110558390D01*
X132414556Y-110547749D01*
X132301971Y-110392786D01*
X132157213Y-110248028D01*
X131991614Y-110127715D01*
X131985006Y-110124348D01*
X131898917Y-110080483D01*
X131848123Y-110032511D01*
X131831328Y-109964690D01*
X131853865Y-109898555D01*
X131898917Y-109859516D01*
X131991610Y-109812287D01*
X132012770Y-109796913D01*
X132157213Y-109691971D01*
X132157215Y-109691968D01*
X132157219Y-109691966D01*
X132301966Y-109547219D01*
X132301968Y-109547215D01*
X132301971Y-109547213D01*
X132354732Y-109474590D01*
X132422287Y-109381610D01*
X132515220Y-109199219D01*
X132578477Y-109004534D01*
X132610500Y-108802352D01*
X132610500Y-108597648D01*
X132578477Y-108395466D01*
X132515220Y-108200781D01*
X132515218Y-108200778D01*
X132515218Y-108200776D01*
X132481503Y-108134607D01*
X132422287Y-108018390D01*
X132414556Y-108007749D01*
X132301971Y-107852786D01*
X132157213Y-107708028D01*
X131991614Y-107587715D01*
X131985006Y-107584348D01*
X131898917Y-107540483D01*
X131848123Y-107492511D01*
X131831328Y-107424690D01*
X131853865Y-107358555D01*
X131898917Y-107319516D01*
X131991610Y-107272287D01*
X132012770Y-107256913D01*
X132157213Y-107151971D01*
X132157215Y-107151968D01*
X132157219Y-107151966D01*
X132301966Y-107007219D01*
X132301968Y-107007215D01*
X132301971Y-107007213D01*
X132354732Y-106934590D01*
X132422287Y-106841610D01*
X132515220Y-106659219D01*
X132578477Y-106464534D01*
X132610500Y-106262352D01*
X132610500Y-106057648D01*
X132578477Y-105855466D01*
X132515220Y-105660781D01*
X132515218Y-105660778D01*
X132515218Y-105660776D01*
X132481503Y-105594607D01*
X132422287Y-105478390D01*
X132414556Y-105467749D01*
X132301971Y-105312786D01*
X132157213Y-105168028D01*
X131991614Y-105047715D01*
X131985006Y-105044348D01*
X131898917Y-105000483D01*
X131848123Y-104952511D01*
X131831328Y-104884690D01*
X131853865Y-104818555D01*
X131898917Y-104779516D01*
X131991610Y-104732287D01*
X132012770Y-104716913D01*
X132157213Y-104611971D01*
X132157215Y-104611968D01*
X132157219Y-104611966D01*
X132301966Y-104467219D01*
X132301968Y-104467215D01*
X132301971Y-104467213D01*
X132354732Y-104394590D01*
X132422287Y-104301610D01*
X132515220Y-104119219D01*
X132578477Y-103924534D01*
X132610500Y-103722352D01*
X132610500Y-103517648D01*
X132578477Y-103315466D01*
X132515220Y-103120781D01*
X132515218Y-103120778D01*
X132515218Y-103120776D01*
X132481503Y-103054607D01*
X132422287Y-102938390D01*
X132414556Y-102927749D01*
X132301971Y-102772786D01*
X132157217Y-102628032D01*
X132080415Y-102572232D01*
X132037750Y-102516902D01*
X132031771Y-102447288D01*
X132064377Y-102385494D01*
X132122640Y-102351765D01*
X132143039Y-102346559D01*
X132199584Y-102323136D01*
X132199584Y-102323135D01*
X131439410Y-101562962D01*
X131502993Y-101545925D01*
X131617007Y-101480099D01*
X131710099Y-101387007D01*
X131775925Y-101272993D01*
X131792962Y-101209411D01*
X132553135Y-101969584D01*
X132553136Y-101969584D01*
X132576552Y-101913053D01*
X132594544Y-101862053D01*
X132614999Y-101719780D01*
X132615000Y-101719779D01*
X132615000Y-100440214D01*
X132612106Y-100386237D01*
X132612106Y-100386235D01*
X132576561Y-100246969D01*
X132576559Y-100246962D01*
X132553135Y-100190414D01*
X131792962Y-100950588D01*
X131775925Y-100887007D01*
X131710099Y-100772993D01*
X131617007Y-100679901D01*
X131502993Y-100614075D01*
X131439410Y-100597037D01*
X132199584Y-99836862D01*
X132143059Y-99813449D01*
X132143048Y-99813445D01*
X132114374Y-99803329D01*
X132057703Y-99762462D01*
X132032122Y-99697443D01*
X132045754Y-99628916D01*
X132082745Y-99586074D01*
X132157215Y-99531969D01*
X132157215Y-99531968D01*
X132157219Y-99531966D01*
X132301966Y-99387219D01*
X132301968Y-99387215D01*
X132301971Y-99387213D01*
X132354732Y-99314590D01*
X132422287Y-99221610D01*
X132515220Y-99039219D01*
X132578477Y-98844534D01*
X132610500Y-98642352D01*
X132610500Y-98437648D01*
X132578477Y-98235466D01*
X132515220Y-98040781D01*
X132515218Y-98040778D01*
X132515218Y-98040776D01*
X132481503Y-97974607D01*
X132422287Y-97858390D01*
X132414556Y-97847749D01*
X132301971Y-97692786D01*
X132157213Y-97548028D01*
X131991614Y-97427715D01*
X131985006Y-97424348D01*
X131898917Y-97380483D01*
X131848123Y-97332511D01*
X131831328Y-97264690D01*
X131853865Y-97198555D01*
X131898917Y-97159516D01*
X131991610Y-97112287D01*
X132012770Y-97096913D01*
X132157213Y-96991971D01*
X132157215Y-96991968D01*
X132157219Y-96991966D01*
X132301966Y-96847219D01*
X132301968Y-96847215D01*
X132301971Y-96847213D01*
X132354732Y-96774590D01*
X132422287Y-96681610D01*
X132515220Y-96499219D01*
X132578477Y-96304534D01*
X132610500Y-96102352D01*
X132610500Y-95897648D01*
X132580308Y-95707024D01*
X132578477Y-95695465D01*
X132515218Y-95500776D01*
X132454648Y-95381902D01*
X132422287Y-95318390D01*
X132392660Y-95277611D01*
X132301971Y-95152786D01*
X132157213Y-95008028D01*
X131991614Y-94887715D01*
X131985006Y-94884348D01*
X131898917Y-94840483D01*
X131848123Y-94792511D01*
X131831328Y-94724690D01*
X131853865Y-94658555D01*
X131898917Y-94619516D01*
X131991610Y-94572287D01*
X132012770Y-94556913D01*
X132157213Y-94451971D01*
X132157215Y-94451968D01*
X132157219Y-94451966D01*
X132301966Y-94307219D01*
X132301968Y-94307215D01*
X132301971Y-94307213D01*
X132395371Y-94178657D01*
X132422287Y-94141610D01*
X132515220Y-93959219D01*
X132578477Y-93764534D01*
X132610500Y-93562352D01*
X132610500Y-93357648D01*
X132578477Y-93155466D01*
X132515220Y-92960781D01*
X132515218Y-92960778D01*
X132515218Y-92960776D01*
X132481503Y-92894607D01*
X132422287Y-92778390D01*
X132414556Y-92767749D01*
X132301971Y-92612786D01*
X132157213Y-92468028D01*
X131991614Y-92347715D01*
X131985006Y-92344348D01*
X131898917Y-92300483D01*
X131848123Y-92252511D01*
X131831328Y-92184690D01*
X131853865Y-92118555D01*
X131898917Y-92079516D01*
X131991610Y-92032287D01*
X132019216Y-92012230D01*
X132157213Y-91911971D01*
X132157215Y-91911968D01*
X132157219Y-91911966D01*
X132301966Y-91767219D01*
X132304650Y-91763524D01*
X132335100Y-91721615D01*
X132339431Y-91718274D01*
X132341705Y-91713297D01*
X132366804Y-91697166D01*
X132390429Y-91678949D01*
X132397102Y-91677695D01*
X132400483Y-91675523D01*
X132435418Y-91670500D01*
X132557770Y-91670500D01*
X132624809Y-91690185D01*
X132645451Y-91706819D01*
X132863181Y-91924549D01*
X132896666Y-91985872D01*
X132899500Y-92012230D01*
X132899500Y-107883918D01*
X132899500Y-107883920D01*
X132899499Y-107883920D01*
X132928340Y-108028907D01*
X132928343Y-108028917D01*
X132984914Y-108165491D01*
X132984916Y-108165495D01*
X133000703Y-108189122D01*
X133008492Y-108200780D01*
X133067049Y-108288418D01*
X133067052Y-108288421D01*
X150829824Y-126051191D01*
X150863309Y-126112514D01*
X150864616Y-126158270D01*
X150849500Y-126253707D01*
X150849500Y-126466286D01*
X150882753Y-126676239D01*
X150948444Y-126878414D01*
X151044951Y-127067820D01*
X151169890Y-127239786D01*
X151320213Y-127390109D01*
X151492179Y-127515048D01*
X151492181Y-127515049D01*
X151492184Y-127515051D01*
X151501493Y-127519794D01*
X151552290Y-127567766D01*
X151569087Y-127635587D01*
X151546552Y-127701722D01*
X151501505Y-127740760D01*
X151492446Y-127745376D01*
X151492440Y-127745380D01*
X151438282Y-127784727D01*
X151438282Y-127784728D01*
X152070591Y-128417037D01*
X152007007Y-128434075D01*
X151892993Y-128499901D01*
X151799901Y-128592993D01*
X151734075Y-128707007D01*
X151717037Y-128770591D01*
X151084728Y-128138282D01*
X151084727Y-128138282D01*
X151045380Y-128192439D01*
X150948904Y-128381782D01*
X150883242Y-128583869D01*
X150883242Y-128583872D01*
X150850000Y-128793753D01*
X150850000Y-129006246D01*
X150883242Y-129216127D01*
X150883242Y-129216130D01*
X150948904Y-129418217D01*
X151045375Y-129607550D01*
X151084728Y-129661716D01*
X151717037Y-129029408D01*
X151734075Y-129092993D01*
X151799901Y-129207007D01*
X151892993Y-129300099D01*
X152007007Y-129365925D01*
X152070590Y-129382962D01*
X151438282Y-130015269D01*
X151438282Y-130015270D01*
X151492452Y-130054626D01*
X151492451Y-130054626D01*
X151501495Y-130059234D01*
X151552292Y-130107208D01*
X151569087Y-130175029D01*
X151546550Y-130241164D01*
X151501499Y-130280202D01*
X151492182Y-130284949D01*
X151320213Y-130409890D01*
X151169890Y-130560213D01*
X151044951Y-130732179D01*
X150948444Y-130921585D01*
X150882753Y-131123760D01*
X150849500Y-131333713D01*
X150849500Y-131546286D01*
X150882753Y-131756239D01*
X150948444Y-131958414D01*
X151044951Y-132147820D01*
X151169890Y-132319786D01*
X151320213Y-132470109D01*
X151492182Y-132595050D01*
X151500946Y-132599516D01*
X151551742Y-132647491D01*
X151568536Y-132715312D01*
X151545998Y-132781447D01*
X151500946Y-132820484D01*
X151492182Y-132824949D01*
X151320213Y-132949890D01*
X151169890Y-133100213D01*
X151044951Y-133272179D01*
X150948444Y-133461585D01*
X150882753Y-133663760D01*
X150849500Y-133873713D01*
X150849500Y-134086286D01*
X150882753Y-134296239D01*
X150948444Y-134498414D01*
X151044951Y-134687820D01*
X151169890Y-134859786D01*
X151320213Y-135010109D01*
X151492182Y-135135050D01*
X151500946Y-135139516D01*
X151551742Y-135187491D01*
X151568536Y-135255312D01*
X151545998Y-135321447D01*
X151500946Y-135360484D01*
X151492182Y-135364949D01*
X151320213Y-135489890D01*
X151169890Y-135640213D01*
X151044951Y-135812179D01*
X150948444Y-136001585D01*
X150882753Y-136203760D01*
X150849500Y-136413713D01*
X150849500Y-136626286D01*
X150882753Y-136836239D01*
X150948444Y-137038414D01*
X151044951Y-137227820D01*
X151169890Y-137399786D01*
X151320213Y-137550109D01*
X151492182Y-137675050D01*
X151500946Y-137679516D01*
X151551742Y-137727491D01*
X151568536Y-137795312D01*
X151545998Y-137861447D01*
X151500946Y-137900484D01*
X151492182Y-137904949D01*
X151320213Y-138029890D01*
X151169890Y-138180213D01*
X151044951Y-138352179D01*
X150948444Y-138541585D01*
X150882753Y-138743760D01*
X150849500Y-138953713D01*
X150849500Y-139166286D01*
X150882753Y-139376239D01*
X150948444Y-139578414D01*
X151044951Y-139767820D01*
X151169890Y-139939786D01*
X151320213Y-140090109D01*
X151492179Y-140215048D01*
X151492181Y-140215049D01*
X151492184Y-140215051D01*
X151501493Y-140219794D01*
X151552290Y-140267766D01*
X151569087Y-140335587D01*
X151546552Y-140401722D01*
X151501505Y-140440760D01*
X151492446Y-140445376D01*
X151492440Y-140445380D01*
X151438282Y-140484727D01*
X151438282Y-140484728D01*
X152070591Y-141117037D01*
X152007007Y-141134075D01*
X151892993Y-141199901D01*
X151799901Y-141292993D01*
X151734075Y-141407007D01*
X151717037Y-141470591D01*
X151084728Y-140838282D01*
X151084727Y-140838282D01*
X151045380Y-140892439D01*
X150948904Y-141081782D01*
X150883242Y-141283869D01*
X150883242Y-141283872D01*
X150850000Y-141493753D01*
X150850000Y-141706246D01*
X150883242Y-141916127D01*
X150883242Y-141916130D01*
X150948904Y-142118217D01*
X151045375Y-142307550D01*
X151084728Y-142361716D01*
X151717037Y-141729408D01*
X151734075Y-141792993D01*
X151799901Y-141907007D01*
X151892993Y-142000099D01*
X152007007Y-142065925D01*
X152070590Y-142082962D01*
X151400370Y-142753181D01*
X151339047Y-142786666D01*
X151312698Y-142789500D01*
X151302134Y-142789500D01*
X151302123Y-142789501D01*
X151242516Y-142795908D01*
X151107671Y-142846202D01*
X151107664Y-142846206D01*
X150992455Y-142932452D01*
X150992452Y-142932455D01*
X150906206Y-143047664D01*
X150906202Y-143047671D01*
X150855908Y-143182517D01*
X150849501Y-143242116D01*
X150849501Y-143242123D01*
X150849500Y-143242135D01*
X150849500Y-145037870D01*
X150849501Y-145037876D01*
X150855908Y-145097483D01*
X150906202Y-145232328D01*
X150906206Y-145232335D01*
X150992452Y-145347544D01*
X150992455Y-145347547D01*
X151107664Y-145433793D01*
X151107671Y-145433797D01*
X151242517Y-145484091D01*
X151242516Y-145484091D01*
X151249444Y-145484835D01*
X151302127Y-145490500D01*
X153097872Y-145490499D01*
X153157483Y-145484091D01*
X153292331Y-145433796D01*
X153407546Y-145347546D01*
X153493796Y-145232331D01*
X153544091Y-145097483D01*
X153550500Y-145037873D01*
X153550499Y-143242128D01*
X153544091Y-143182517D01*
X153493884Y-143047906D01*
X153493797Y-143047671D01*
X153493793Y-143047664D01*
X153407547Y-142932455D01*
X153407544Y-142932452D01*
X153292335Y-142846206D01*
X153292328Y-142846202D01*
X153157482Y-142795908D01*
X153157483Y-142795908D01*
X153097883Y-142789501D01*
X153097881Y-142789500D01*
X153097873Y-142789500D01*
X153097865Y-142789500D01*
X153087309Y-142789500D01*
X153020270Y-142769815D01*
X152999628Y-142753181D01*
X152329408Y-142082962D01*
X152392993Y-142065925D01*
X152507007Y-142000099D01*
X152600099Y-141907007D01*
X152665925Y-141792993D01*
X152682962Y-141729409D01*
X153315270Y-142361717D01*
X153315270Y-142361716D01*
X153354622Y-142307554D01*
X153451095Y-142118217D01*
X153516757Y-141916130D01*
X153516757Y-141916127D01*
X153550000Y-141706246D01*
X153550000Y-141493753D01*
X153516757Y-141283872D01*
X153516757Y-141283869D01*
X153451095Y-141081782D01*
X153354624Y-140892449D01*
X153315270Y-140838282D01*
X153315269Y-140838282D01*
X152682962Y-141470590D01*
X152665925Y-141407007D01*
X152600099Y-141292993D01*
X152507007Y-141199901D01*
X152392993Y-141134075D01*
X152329409Y-141117037D01*
X152961716Y-140484728D01*
X152907547Y-140445373D01*
X152907547Y-140445372D01*
X152898500Y-140440763D01*
X152847706Y-140392788D01*
X152830912Y-140324966D01*
X152853451Y-140258832D01*
X152898508Y-140219793D01*
X152907816Y-140215051D01*
X153014131Y-140137809D01*
X153079786Y-140090109D01*
X153079788Y-140090106D01*
X153079792Y-140090104D01*
X153230104Y-139939792D01*
X153230106Y-139939788D01*
X153230109Y-139939786D01*
X153355048Y-139767820D01*
X153355047Y-139767820D01*
X153355051Y-139767816D01*
X153451557Y-139578412D01*
X153517246Y-139376243D01*
X153550500Y-139166287D01*
X153550500Y-138953713D01*
X153517246Y-138743757D01*
X153451557Y-138541588D01*
X153355051Y-138352184D01*
X153355049Y-138352181D01*
X153355048Y-138352179D01*
X153230109Y-138180213D01*
X153079786Y-138029890D01*
X152907820Y-137904951D01*
X152907115Y-137904591D01*
X152899054Y-137900485D01*
X152848259Y-137852512D01*
X152831463Y-137784692D01*
X152853999Y-137718556D01*
X152899054Y-137679515D01*
X152907816Y-137675051D01*
X152929789Y-137659086D01*
X153079786Y-137550109D01*
X153079788Y-137550106D01*
X153079792Y-137550104D01*
X153230104Y-137399792D01*
X153230106Y-137399788D01*
X153230109Y-137399786D01*
X153355048Y-137227820D01*
X153355047Y-137227820D01*
X153355051Y-137227816D01*
X153451557Y-137038412D01*
X153517246Y-136836243D01*
X153550500Y-136626287D01*
X153550500Y-136413713D01*
X153517246Y-136203757D01*
X153451557Y-136001588D01*
X153355051Y-135812184D01*
X153355049Y-135812181D01*
X153355048Y-135812179D01*
X153230109Y-135640213D01*
X153079786Y-135489890D01*
X152907820Y-135364951D01*
X152907115Y-135364591D01*
X152899054Y-135360485D01*
X152848259Y-135312512D01*
X152831463Y-135244692D01*
X152853999Y-135178556D01*
X152899054Y-135139515D01*
X152907816Y-135135051D01*
X152929789Y-135119086D01*
X153079786Y-135010109D01*
X153079788Y-135010106D01*
X153079792Y-135010104D01*
X153230104Y-134859792D01*
X153230106Y-134859788D01*
X153230109Y-134859786D01*
X153355048Y-134687820D01*
X153355047Y-134687820D01*
X153355051Y-134687816D01*
X153451557Y-134498412D01*
X153517246Y-134296243D01*
X153550500Y-134086287D01*
X153550500Y-133873713D01*
X153517246Y-133663757D01*
X153451557Y-133461588D01*
X153355051Y-133272184D01*
X153355049Y-133272181D01*
X153355048Y-133272179D01*
X153230109Y-133100213D01*
X153079786Y-132949890D01*
X152907820Y-132824951D01*
X152907115Y-132824591D01*
X152899054Y-132820485D01*
X152848259Y-132772512D01*
X152831463Y-132704692D01*
X152853999Y-132638556D01*
X152899054Y-132599515D01*
X152907816Y-132595051D01*
X152929789Y-132579086D01*
X153079786Y-132470109D01*
X153079788Y-132470106D01*
X153079792Y-132470104D01*
X153230104Y-132319792D01*
X153230106Y-132319788D01*
X153230109Y-132319786D01*
X153355048Y-132147820D01*
X153355047Y-132147820D01*
X153355051Y-132147816D01*
X153451557Y-131958412D01*
X153517246Y-131756243D01*
X153550500Y-131546287D01*
X153550500Y-131333713D01*
X153517246Y-131123757D01*
X153451557Y-130921588D01*
X153355051Y-130732184D01*
X153355049Y-130732181D01*
X153355048Y-130732179D01*
X153230109Y-130560213D01*
X153079786Y-130409890D01*
X152907817Y-130284949D01*
X152898504Y-130280204D01*
X152847707Y-130232230D01*
X152830912Y-130164409D01*
X152853449Y-130098274D01*
X152898507Y-130059232D01*
X152907555Y-130054622D01*
X152961716Y-130015270D01*
X152961717Y-130015270D01*
X152329408Y-129382962D01*
X152392993Y-129365925D01*
X152507007Y-129300099D01*
X152600099Y-129207007D01*
X152665925Y-129092993D01*
X152682962Y-129029409D01*
X153315270Y-129661717D01*
X153315270Y-129661716D01*
X153354622Y-129607554D01*
X153451095Y-129418217D01*
X153516757Y-129216130D01*
X153516757Y-129216127D01*
X153550000Y-129006246D01*
X153550000Y-128793753D01*
X153516757Y-128583872D01*
X153516757Y-128583869D01*
X153451095Y-128381782D01*
X153354624Y-128192449D01*
X153315270Y-128138282D01*
X153315269Y-128138282D01*
X152682962Y-128770590D01*
X152665925Y-128707007D01*
X152600099Y-128592993D01*
X152507007Y-128499901D01*
X152392993Y-128434075D01*
X152329409Y-128417037D01*
X152961716Y-127784728D01*
X152907547Y-127745373D01*
X152907547Y-127745372D01*
X152898500Y-127740763D01*
X152847706Y-127692788D01*
X152830912Y-127624966D01*
X152853451Y-127558832D01*
X152898508Y-127519793D01*
X152907816Y-127515051D01*
X152987007Y-127457515D01*
X153079786Y-127390109D01*
X153079788Y-127390106D01*
X153079792Y-127390104D01*
X153230104Y-127239792D01*
X153230106Y-127239788D01*
X153230109Y-127239786D01*
X153355048Y-127067820D01*
X153355047Y-127067820D01*
X153355051Y-127067816D01*
X153451557Y-126878412D01*
X153517246Y-126676243D01*
X153550500Y-126466287D01*
X153550500Y-126253713D01*
X153517246Y-126043757D01*
X153451557Y-125841588D01*
X153355051Y-125652184D01*
X153355049Y-125652181D01*
X153355048Y-125652179D01*
X153230109Y-125480213D01*
X153079786Y-125329890D01*
X152907820Y-125204951D01*
X152718414Y-125108444D01*
X152718413Y-125108443D01*
X152718412Y-125108443D01*
X152516243Y-125042754D01*
X152516241Y-125042753D01*
X152516240Y-125042753D01*
X152345192Y-125015662D01*
X152306287Y-125009500D01*
X152093713Y-125009500D01*
X152093708Y-125009500D01*
X151998270Y-125024616D01*
X151928977Y-125015662D01*
X151891191Y-124989824D01*
X149834206Y-122932839D01*
X149750590Y-122849223D01*
X155499500Y-122849223D01*
X155499500Y-123150776D01*
X155499501Y-123150793D01*
X155538861Y-123449766D01*
X155616913Y-123741060D01*
X155732314Y-124019661D01*
X155732318Y-124019671D01*
X155883099Y-124280831D01*
X156066679Y-124520078D01*
X156066685Y-124520085D01*
X156279914Y-124733314D01*
X156279921Y-124733320D01*
X156519168Y-124916900D01*
X156780328Y-125067681D01*
X156780329Y-125067681D01*
X156780332Y-125067683D01*
X156878738Y-125108444D01*
X157058939Y-125183086D01*
X157058940Y-125183086D01*
X157058942Y-125183087D01*
X157350232Y-125261138D01*
X157649217Y-125300500D01*
X157649224Y-125300500D01*
X157950776Y-125300500D01*
X157950783Y-125300500D01*
X158249768Y-125261138D01*
X158541058Y-125183087D01*
X158819668Y-125067683D01*
X159080832Y-124916900D01*
X159320080Y-124733319D01*
X159533319Y-124520080D01*
X159716900Y-124280832D01*
X159867683Y-124019668D01*
X159983087Y-123741058D01*
X160061138Y-123449768D01*
X160100500Y-123150783D01*
X160100500Y-122849217D01*
X160061138Y-122550232D01*
X159983087Y-122258942D01*
X159978691Y-122248330D01*
X159867685Y-121980338D01*
X159867681Y-121980328D01*
X159716900Y-121719168D01*
X159533320Y-121479921D01*
X159533314Y-121479914D01*
X159320085Y-121266685D01*
X159320078Y-121266679D01*
X159080831Y-121083099D01*
X158819671Y-120932318D01*
X158819661Y-120932314D01*
X158541060Y-120816913D01*
X158249766Y-120738861D01*
X157950793Y-120699501D01*
X157950788Y-120699500D01*
X157950783Y-120699500D01*
X157649217Y-120699500D01*
X157649211Y-120699500D01*
X157649206Y-120699501D01*
X157350233Y-120738861D01*
X157058939Y-120816913D01*
X156780338Y-120932314D01*
X156780328Y-120932318D01*
X156519168Y-121083099D01*
X156279921Y-121266679D01*
X156279914Y-121266685D01*
X156066685Y-121479914D01*
X156066679Y-121479921D01*
X155883099Y-121719168D01*
X155732318Y-121980328D01*
X155732314Y-121980338D01*
X155616913Y-122258939D01*
X155538861Y-122550233D01*
X155499501Y-122849206D01*
X155499500Y-122849223D01*
X149750590Y-122849223D01*
X143201825Y-116300457D01*
X134436819Y-107535451D01*
X134403334Y-107474128D01*
X134400500Y-107447770D01*
X134400500Y-91576079D01*
X134371659Y-91431092D01*
X134371658Y-91431091D01*
X134371658Y-91431087D01*
X134315084Y-91294505D01*
X134259846Y-91211835D01*
X134232952Y-91171584D01*
X133742549Y-90681181D01*
X133709064Y-90619858D01*
X133714048Y-90550166D01*
X133755920Y-90494233D01*
X133821384Y-90469816D01*
X133830230Y-90469500D01*
X139906770Y-90469500D01*
X139973809Y-90489185D01*
X139994451Y-90505819D01*
X147763526Y-98274894D01*
X147797011Y-98336217D01*
X147798318Y-98381972D01*
X147789500Y-98437647D01*
X147789500Y-98642351D01*
X147821522Y-98844534D01*
X147884781Y-99039223D01*
X147977715Y-99221613D01*
X148098028Y-99387213D01*
X148242782Y-99531967D01*
X148242787Y-99531971D01*
X148319583Y-99587767D01*
X148362249Y-99643097D01*
X148368228Y-99712710D01*
X148335622Y-99774505D01*
X148277365Y-99808233D01*
X148256973Y-99813437D01*
X148256962Y-99813441D01*
X148200415Y-99836863D01*
X148960589Y-100597037D01*
X148897007Y-100614075D01*
X148782993Y-100679901D01*
X148689901Y-100772993D01*
X148624075Y-100887007D01*
X148607037Y-100950589D01*
X147846863Y-100190415D01*
X147846862Y-100190415D01*
X147823446Y-100246947D01*
X147823431Y-100246987D01*
X147805457Y-100297939D01*
X147805455Y-100297946D01*
X147785000Y-100440219D01*
X147785000Y-101719785D01*
X147787893Y-101773762D01*
X147787893Y-101773764D01*
X147823438Y-101913030D01*
X147823442Y-101913043D01*
X147846862Y-101969584D01*
X148607037Y-101209410D01*
X148624075Y-101272993D01*
X148689901Y-101387007D01*
X148782993Y-101480099D01*
X148897007Y-101545925D01*
X148960589Y-101562962D01*
X148200414Y-102323135D01*
X148256960Y-102346557D01*
X148256986Y-102346567D01*
X148285621Y-102356669D01*
X148342294Y-102397534D01*
X148367876Y-102462552D01*
X148354246Y-102531080D01*
X148317256Y-102573924D01*
X148242782Y-102628032D01*
X148098028Y-102772786D01*
X147977715Y-102938386D01*
X147884781Y-103120776D01*
X147821522Y-103315465D01*
X147789500Y-103517648D01*
X147789500Y-103722351D01*
X147821522Y-103924534D01*
X147884781Y-104119223D01*
X147977715Y-104301613D01*
X148098028Y-104467213D01*
X148242786Y-104611971D01*
X148397749Y-104724556D01*
X148408390Y-104732287D01*
X148499840Y-104778883D01*
X148501080Y-104779515D01*
X148551876Y-104827490D01*
X148568671Y-104895311D01*
X148546134Y-104961446D01*
X148501080Y-105000485D01*
X148408386Y-105047715D01*
X148242786Y-105168028D01*
X148098028Y-105312786D01*
X147977715Y-105478386D01*
X147884781Y-105660776D01*
X147821522Y-105855465D01*
X147789500Y-106057648D01*
X147789500Y-106262351D01*
X147821522Y-106464534D01*
X147884781Y-106659223D01*
X147977715Y-106841613D01*
X148098028Y-107007213D01*
X148242786Y-107151971D01*
X148397749Y-107264556D01*
X148408390Y-107272287D01*
X148499840Y-107318883D01*
X148501080Y-107319515D01*
X148551876Y-107367490D01*
X148568671Y-107435311D01*
X148546134Y-107501446D01*
X148501080Y-107540485D01*
X148408386Y-107587715D01*
X148242786Y-107708028D01*
X148098028Y-107852786D01*
X147977715Y-108018386D01*
X147884781Y-108200776D01*
X147821522Y-108395465D01*
X147789500Y-108597648D01*
X147789500Y-108802351D01*
X147821522Y-109004534D01*
X147884781Y-109199223D01*
X147977715Y-109381613D01*
X148098028Y-109547213D01*
X148242786Y-109691971D01*
X148397749Y-109804556D01*
X148408390Y-109812287D01*
X148499840Y-109858883D01*
X148501080Y-109859515D01*
X148551876Y-109907490D01*
X148568671Y-109975311D01*
X148546134Y-110041446D01*
X148501080Y-110080485D01*
X148408386Y-110127715D01*
X148242786Y-110248028D01*
X148098028Y-110392786D01*
X147977715Y-110558386D01*
X147884781Y-110740776D01*
X147821522Y-110935465D01*
X147789500Y-111137648D01*
X147789500Y-111342351D01*
X147821522Y-111544534D01*
X147884781Y-111739223D01*
X147977715Y-111921613D01*
X148098028Y-112087213D01*
X148242782Y-112231967D01*
X148242787Y-112231971D01*
X148319583Y-112287767D01*
X148362249Y-112343097D01*
X148368228Y-112412710D01*
X148335622Y-112474505D01*
X148277365Y-112508233D01*
X148256973Y-112513437D01*
X148256962Y-112513441D01*
X148200415Y-112536863D01*
X148960589Y-113297037D01*
X148897007Y-113314075D01*
X148782993Y-113379901D01*
X148689901Y-113472993D01*
X148624075Y-113587007D01*
X148607037Y-113650589D01*
X147846863Y-112890415D01*
X147846862Y-112890415D01*
X147823446Y-112946947D01*
X147823431Y-112946987D01*
X147805457Y-112997939D01*
X147805455Y-112997946D01*
X147785000Y-113140219D01*
X147785000Y-114419785D01*
X147787893Y-114473762D01*
X147787893Y-114473764D01*
X147823438Y-114613030D01*
X147823442Y-114613043D01*
X147846862Y-114669584D01*
X148607037Y-113909410D01*
X148624075Y-113972993D01*
X148689901Y-114087007D01*
X148782993Y-114180099D01*
X148897007Y-114245925D01*
X148960589Y-114262962D01*
X148200414Y-115023135D01*
X148256960Y-115046557D01*
X148256986Y-115046567D01*
X148285621Y-115056669D01*
X148342294Y-115097534D01*
X148367876Y-115162552D01*
X148354246Y-115231080D01*
X148317256Y-115273924D01*
X148242782Y-115328032D01*
X148098028Y-115472786D01*
X147977715Y-115638386D01*
X147884781Y-115820776D01*
X147821522Y-116015465D01*
X147789500Y-116217648D01*
X147789500Y-116422351D01*
X147821522Y-116624534D01*
X147884781Y-116819223D01*
X147977715Y-117001613D01*
X148098028Y-117167213D01*
X148242786Y-117311971D01*
X148397749Y-117424556D01*
X148408390Y-117432287D01*
X148499840Y-117478883D01*
X148501080Y-117479515D01*
X148551876Y-117527490D01*
X148568671Y-117595311D01*
X148546134Y-117661446D01*
X148501080Y-117700485D01*
X148408386Y-117747715D01*
X148242786Y-117868028D01*
X148098028Y-118012786D01*
X147977715Y-118178386D01*
X147884781Y-118360776D01*
X147821522Y-118555465D01*
X147789500Y-118757648D01*
X147789500Y-118962351D01*
X147821522Y-119164534D01*
X147884781Y-119359223D01*
X147977715Y-119541613D01*
X148098028Y-119707213D01*
X148242786Y-119851971D01*
X148397749Y-119964556D01*
X148408390Y-119972287D01*
X148524607Y-120031503D01*
X148590776Y-120065218D01*
X148590778Y-120065218D01*
X148590781Y-120065220D01*
X148695137Y-120099127D01*
X148785465Y-120128477D01*
X148886557Y-120144488D01*
X148987648Y-120160500D01*
X148987649Y-120160500D01*
X149192351Y-120160500D01*
X149192352Y-120160500D01*
X149394534Y-120128477D01*
X149589219Y-120065220D01*
X149771610Y-119972287D01*
X149864590Y-119904732D01*
X149937213Y-119851971D01*
X149937215Y-119851968D01*
X149937219Y-119851966D01*
X150081966Y-119707219D01*
X150081968Y-119707215D01*
X150081971Y-119707213D01*
X150134732Y-119634590D01*
X150202287Y-119541610D01*
X150295220Y-119359219D01*
X150358477Y-119164534D01*
X150390500Y-118962352D01*
X150390500Y-118757648D01*
X150358477Y-118555466D01*
X150295220Y-118360781D01*
X150295218Y-118360778D01*
X150295218Y-118360776D01*
X150261503Y-118294607D01*
X150202287Y-118178390D01*
X150194556Y-118167749D01*
X150081971Y-118012786D01*
X149937213Y-117868028D01*
X149771614Y-117747715D01*
X149765006Y-117744348D01*
X149678917Y-117700483D01*
X149628123Y-117652511D01*
X149611328Y-117584690D01*
X149633865Y-117518555D01*
X149678917Y-117479516D01*
X149771610Y-117432287D01*
X149792770Y-117416913D01*
X149937213Y-117311971D01*
X149937215Y-117311968D01*
X149937219Y-117311966D01*
X150081966Y-117167219D01*
X150081968Y-117167215D01*
X150081971Y-117167213D01*
X150134732Y-117094590D01*
X150202287Y-117001610D01*
X150295220Y-116819219D01*
X150358477Y-116624534D01*
X150390500Y-116422352D01*
X150390500Y-116217648D01*
X150358477Y-116015466D01*
X150295220Y-115820781D01*
X150295218Y-115820778D01*
X150295218Y-115820776D01*
X150261503Y-115754607D01*
X150202287Y-115638390D01*
X150194556Y-115627749D01*
X150081971Y-115472786D01*
X149937213Y-115328028D01*
X149771614Y-115207715D01*
X149763410Y-115203535D01*
X149685703Y-115163941D01*
X149634908Y-115115968D01*
X149618113Y-115048147D01*
X149640650Y-114982012D01*
X149683546Y-114944099D01*
X149749503Y-114908843D01*
X149749515Y-114908837D01*
X149818913Y-114862465D01*
X149219410Y-114262962D01*
X149282993Y-114245925D01*
X149397007Y-114180099D01*
X149490099Y-114087007D01*
X149555925Y-113972993D01*
X149572962Y-113909410D01*
X150172465Y-114508913D01*
X150218837Y-114439515D01*
X150218838Y-114439511D01*
X150265509Y-114352198D01*
X150325814Y-114206612D01*
X150354555Y-114111864D01*
X150385298Y-113957302D01*
X150385298Y-113957299D01*
X150395000Y-113858789D01*
X150395000Y-113701210D01*
X150385298Y-113602700D01*
X150385298Y-113602697D01*
X150354555Y-113448135D01*
X150325814Y-113353387D01*
X150265509Y-113207801D01*
X150218844Y-113120498D01*
X150218838Y-113120488D01*
X150172465Y-113051085D01*
X149572962Y-113650588D01*
X149555925Y-113587007D01*
X149490099Y-113472993D01*
X149397007Y-113379901D01*
X149282993Y-113314075D01*
X149219410Y-113297037D01*
X149818912Y-112697534D01*
X149749511Y-112651161D01*
X149749500Y-112651155D01*
X149683545Y-112615900D01*
X149633701Y-112566937D01*
X149618241Y-112498799D01*
X149642073Y-112433119D01*
X149685702Y-112396059D01*
X149771610Y-112352287D01*
X149862745Y-112286074D01*
X149937213Y-112231971D01*
X149937215Y-112231968D01*
X149937219Y-112231966D01*
X150081966Y-112087219D01*
X150081968Y-112087215D01*
X150081971Y-112087213D01*
X150134732Y-112014590D01*
X150202287Y-111921610D01*
X150295220Y-111739219D01*
X150358477Y-111544534D01*
X150390500Y-111342352D01*
X150390500Y-111137648D01*
X150358477Y-110935466D01*
X150295220Y-110740781D01*
X150295218Y-110740778D01*
X150295218Y-110740776D01*
X150261503Y-110674607D01*
X150202287Y-110558390D01*
X150194556Y-110547749D01*
X150081971Y-110392786D01*
X149937213Y-110248028D01*
X149771614Y-110127715D01*
X149765006Y-110124348D01*
X149678917Y-110080483D01*
X149628123Y-110032511D01*
X149611328Y-109964690D01*
X149633865Y-109898555D01*
X149678917Y-109859516D01*
X149771610Y-109812287D01*
X149792770Y-109796913D01*
X149937213Y-109691971D01*
X149937215Y-109691968D01*
X149937219Y-109691966D01*
X150081966Y-109547219D01*
X150081968Y-109547215D01*
X150081971Y-109547213D01*
X150134732Y-109474590D01*
X150202287Y-109381610D01*
X150295220Y-109199219D01*
X150358477Y-109004534D01*
X150390500Y-108802352D01*
X150390500Y-108597648D01*
X150358477Y-108395466D01*
X150295220Y-108200781D01*
X150295218Y-108200778D01*
X150295218Y-108200776D01*
X150261503Y-108134607D01*
X150202287Y-108018390D01*
X150194556Y-108007749D01*
X150081971Y-107852786D01*
X149937213Y-107708028D01*
X149771614Y-107587715D01*
X149765006Y-107584348D01*
X149678917Y-107540483D01*
X149628123Y-107492511D01*
X149611328Y-107424690D01*
X149633865Y-107358555D01*
X149678917Y-107319516D01*
X149771610Y-107272287D01*
X149792770Y-107256913D01*
X149937213Y-107151971D01*
X149937215Y-107151968D01*
X149937219Y-107151966D01*
X150081966Y-107007219D01*
X150081968Y-107007215D01*
X150081971Y-107007213D01*
X150134732Y-106934590D01*
X150202287Y-106841610D01*
X150295220Y-106659219D01*
X150358477Y-106464534D01*
X150390500Y-106262352D01*
X150390500Y-106057648D01*
X150358477Y-105855466D01*
X150295220Y-105660781D01*
X150295218Y-105660778D01*
X150295218Y-105660776D01*
X150261503Y-105594607D01*
X150202287Y-105478390D01*
X150194556Y-105467749D01*
X150081971Y-105312786D01*
X149937213Y-105168028D01*
X149771614Y-105047715D01*
X149765006Y-105044348D01*
X149678917Y-105000483D01*
X149628123Y-104952511D01*
X149611328Y-104884690D01*
X149633865Y-104818555D01*
X149678917Y-104779516D01*
X149771610Y-104732287D01*
X149792770Y-104716913D01*
X149937213Y-104611971D01*
X149937215Y-104611968D01*
X149937219Y-104611966D01*
X150081966Y-104467219D01*
X150081968Y-104467215D01*
X150081971Y-104467213D01*
X150134732Y-104394590D01*
X150202287Y-104301610D01*
X150295220Y-104119219D01*
X150358477Y-103924534D01*
X150390500Y-103722352D01*
X150390500Y-103517648D01*
X150358477Y-103315466D01*
X150295220Y-103120781D01*
X150295218Y-103120778D01*
X150295218Y-103120776D01*
X150261503Y-103054607D01*
X150202287Y-102938390D01*
X150194556Y-102927749D01*
X150081971Y-102772786D01*
X149937213Y-102628028D01*
X149771614Y-102507715D01*
X149763410Y-102503535D01*
X149685703Y-102463941D01*
X149634908Y-102415968D01*
X149618113Y-102348147D01*
X149640650Y-102282012D01*
X149683546Y-102244099D01*
X149749503Y-102208843D01*
X149749515Y-102208837D01*
X149818913Y-102162465D01*
X149219410Y-101562962D01*
X149282993Y-101545925D01*
X149397007Y-101480099D01*
X149490099Y-101387007D01*
X149555925Y-101272993D01*
X149572962Y-101209410D01*
X150172465Y-101808913D01*
X150218837Y-101739515D01*
X150218838Y-101739511D01*
X150265509Y-101652198D01*
X150325814Y-101506612D01*
X150354555Y-101411864D01*
X150385298Y-101257302D01*
X150385298Y-101257299D01*
X150395000Y-101158789D01*
X150395000Y-101001210D01*
X150385298Y-100902700D01*
X150385298Y-100902697D01*
X150354555Y-100748135D01*
X150325814Y-100653387D01*
X150265509Y-100507801D01*
X150218844Y-100420498D01*
X150218838Y-100420488D01*
X150172465Y-100351085D01*
X149572962Y-100950588D01*
X149555925Y-100887007D01*
X149490099Y-100772993D01*
X149397007Y-100679901D01*
X149282993Y-100614075D01*
X149219410Y-100597037D01*
X149818912Y-99997534D01*
X149749511Y-99951161D01*
X149749500Y-99951155D01*
X149683545Y-99915900D01*
X149633701Y-99866937D01*
X149618241Y-99798799D01*
X149642073Y-99733119D01*
X149685702Y-99696059D01*
X149771610Y-99652287D01*
X149872526Y-99578968D01*
X149937213Y-99531971D01*
X149937215Y-99531968D01*
X149937219Y-99531966D01*
X150081966Y-99387219D01*
X150081968Y-99387215D01*
X150081971Y-99387213D01*
X150134732Y-99314590D01*
X150202287Y-99221610D01*
X150295220Y-99039219D01*
X150358477Y-98844534D01*
X150390500Y-98642352D01*
X150390500Y-98437648D01*
X150358477Y-98235466D01*
X150295220Y-98040781D01*
X150295218Y-98040778D01*
X150295218Y-98040776D01*
X150261503Y-97974607D01*
X150202287Y-97858390D01*
X150194556Y-97847749D01*
X150081971Y-97692786D01*
X149937213Y-97548028D01*
X149771614Y-97427715D01*
X149765006Y-97424348D01*
X149678917Y-97380483D01*
X149628123Y-97332511D01*
X149611328Y-97264690D01*
X149633865Y-97198555D01*
X149678917Y-97159516D01*
X149771610Y-97112287D01*
X149792770Y-97096913D01*
X149937213Y-96991971D01*
X149937215Y-96991968D01*
X149937219Y-96991966D01*
X150081966Y-96847219D01*
X150081968Y-96847215D01*
X150081971Y-96847213D01*
X150134732Y-96774590D01*
X150202287Y-96681610D01*
X150295220Y-96499219D01*
X150358477Y-96304534D01*
X150390500Y-96102352D01*
X150390500Y-95897648D01*
X150360308Y-95707024D01*
X150358477Y-95695465D01*
X150295218Y-95500776D01*
X150234648Y-95381902D01*
X150202287Y-95318390D01*
X150172660Y-95277611D01*
X150081971Y-95152786D01*
X149937213Y-95008028D01*
X149771614Y-94887715D01*
X149765006Y-94884348D01*
X149678917Y-94840483D01*
X149628123Y-94792511D01*
X149611328Y-94724690D01*
X149633865Y-94658555D01*
X149678917Y-94619516D01*
X149771610Y-94572287D01*
X149792770Y-94556913D01*
X149937213Y-94451971D01*
X149937215Y-94451968D01*
X149937219Y-94451966D01*
X150081966Y-94307219D01*
X150081968Y-94307215D01*
X150081971Y-94307213D01*
X150175371Y-94178657D01*
X150202287Y-94141610D01*
X150295220Y-93959219D01*
X150358477Y-93764534D01*
X150390500Y-93562352D01*
X150390500Y-93357648D01*
X150358477Y-93155466D01*
X150295220Y-92960781D01*
X150295218Y-92960778D01*
X150295218Y-92960776D01*
X150261503Y-92894607D01*
X150202287Y-92778390D01*
X150194556Y-92767749D01*
X150081971Y-92612786D01*
X149937213Y-92468028D01*
X149771614Y-92347715D01*
X149765006Y-92344348D01*
X149678917Y-92300483D01*
X149628123Y-92252511D01*
X149611328Y-92184690D01*
X149633865Y-92118555D01*
X149678917Y-92079516D01*
X149771610Y-92032287D01*
X149799216Y-92012230D01*
X149937213Y-91911971D01*
X149937215Y-91911968D01*
X149937219Y-91911966D01*
X150081966Y-91767219D01*
X150081968Y-91767215D01*
X150081971Y-91767213D01*
X150147008Y-91677695D01*
X150202287Y-91601610D01*
X150295220Y-91419219D01*
X150358477Y-91224534D01*
X150390500Y-91022352D01*
X150390500Y-90817648D01*
X150381542Y-90761092D01*
X150358477Y-90615465D01*
X150329127Y-90525137D01*
X150295220Y-90420781D01*
X150295218Y-90420778D01*
X150295218Y-90420776D01*
X150261503Y-90354607D01*
X150202287Y-90238390D01*
X150194556Y-90227749D01*
X150081971Y-90072786D01*
X149937213Y-89928028D01*
X149771613Y-89807715D01*
X149771612Y-89807714D01*
X149771610Y-89807713D01*
X149718947Y-89780880D01*
X149686245Y-89764217D01*
X149635449Y-89716242D01*
X149618654Y-89648421D01*
X149641192Y-89582286D01*
X149684083Y-89544376D01*
X149749783Y-89509259D01*
X149880811Y-89421709D01*
X149957412Y-89358843D01*
X150068843Y-89247412D01*
X150131709Y-89170811D01*
X150219259Y-89039783D01*
X150265972Y-88952389D01*
X150326278Y-88806798D01*
X150355044Y-88711968D01*
X150385787Y-88557410D01*
X150395500Y-88458793D01*
X150395500Y-88301207D01*
X150385787Y-88202590D01*
X150355044Y-88048032D01*
X150326278Y-87953202D01*
X150265972Y-87807611D01*
X150219259Y-87720217D01*
X150206085Y-87700500D01*
X150131721Y-87589206D01*
X150131712Y-87589194D01*
X150131709Y-87589189D01*
X150068843Y-87512588D01*
X149957412Y-87401157D01*
X149880811Y-87338291D01*
X149880804Y-87338286D01*
X149880793Y-87338278D01*
X149749799Y-87250751D01*
X149749788Y-87250744D01*
X149749783Y-87250741D01*
X149727645Y-87238908D01*
X149684086Y-87215625D01*
X149634242Y-87166662D01*
X149618782Y-87098524D01*
X149642614Y-87032845D01*
X149686246Y-86995782D01*
X149771610Y-86952287D01*
X149869626Y-86881075D01*
X149937213Y-86831971D01*
X149937215Y-86831968D01*
X149937219Y-86831966D01*
X150081966Y-86687219D01*
X150081968Y-86687215D01*
X150081971Y-86687213D01*
X150148732Y-86595323D01*
X150202287Y-86521610D01*
X150295220Y-86339219D01*
X150358477Y-86144534D01*
X150390500Y-85942352D01*
X150390500Y-85737648D01*
X150358477Y-85535466D01*
X150295220Y-85340781D01*
X150295217Y-85340777D01*
X150295217Y-85340774D01*
X150275182Y-85301454D01*
X150275181Y-85301453D01*
X150268758Y-85288847D01*
X150248569Y-85249223D01*
X155499500Y-85249223D01*
X155499500Y-85550776D01*
X155499501Y-85550793D01*
X155538861Y-85849766D01*
X155616913Y-86141060D01*
X155732314Y-86419661D01*
X155732318Y-86419671D01*
X155883099Y-86680831D01*
X156066679Y-86920078D01*
X156066685Y-86920085D01*
X156279914Y-87133314D01*
X156279921Y-87133320D01*
X156519168Y-87316900D01*
X156780328Y-87467681D01*
X156780329Y-87467681D01*
X156780332Y-87467683D01*
X156966072Y-87544619D01*
X157058939Y-87583086D01*
X157058940Y-87583086D01*
X157058942Y-87583087D01*
X157350232Y-87661138D01*
X157649217Y-87700500D01*
X157649224Y-87700500D01*
X157950776Y-87700500D01*
X157950783Y-87700500D01*
X158249768Y-87661138D01*
X158541058Y-87583087D01*
X158819668Y-87467683D01*
X159080832Y-87316900D01*
X159320080Y-87133319D01*
X159533319Y-86920080D01*
X159716900Y-86680832D01*
X159867683Y-86419668D01*
X159983087Y-86141058D01*
X160061138Y-85849768D01*
X160100500Y-85550783D01*
X160100500Y-85249217D01*
X160061138Y-84950232D01*
X159983087Y-84658942D01*
X159978691Y-84648330D01*
X159944047Y-84564690D01*
X159867683Y-84380332D01*
X159825535Y-84307330D01*
X159716900Y-84119168D01*
X159533320Y-83879921D01*
X159533314Y-83879914D01*
X159320085Y-83666685D01*
X159320078Y-83666679D01*
X159080831Y-83483099D01*
X158819671Y-83332318D01*
X158819661Y-83332314D01*
X158541060Y-83216913D01*
X158249766Y-83138861D01*
X157950793Y-83099501D01*
X157950788Y-83099500D01*
X157950783Y-83099500D01*
X157649217Y-83099500D01*
X157649211Y-83099500D01*
X157649206Y-83099501D01*
X157350233Y-83138861D01*
X157058939Y-83216913D01*
X156780338Y-83332314D01*
X156780328Y-83332318D01*
X156519168Y-83483099D01*
X156279921Y-83666679D01*
X156279914Y-83666685D01*
X156066685Y-83879914D01*
X156066679Y-83879921D01*
X155883099Y-84119168D01*
X155732318Y-84380328D01*
X155732314Y-84380338D01*
X155616913Y-84658939D01*
X155538861Y-84950233D01*
X155499501Y-85249206D01*
X155499500Y-85249223D01*
X150248569Y-85249223D01*
X150202287Y-85158390D01*
X150202285Y-85158387D01*
X150202284Y-85158385D01*
X150081971Y-84992786D01*
X149937213Y-84848028D01*
X149771614Y-84727715D01*
X149738550Y-84710868D01*
X149678917Y-84680483D01*
X149628123Y-84632511D01*
X149611328Y-84564690D01*
X149633865Y-84498555D01*
X149678917Y-84459516D01*
X149771610Y-84412287D01*
X149792770Y-84396913D01*
X149937213Y-84291971D01*
X149937215Y-84291968D01*
X149937219Y-84291966D01*
X150081966Y-84147219D01*
X150081968Y-84147215D01*
X150081971Y-84147213D01*
X150156596Y-84044499D01*
X150202287Y-83981610D01*
X150295220Y-83799219D01*
X150358477Y-83604534D01*
X150390500Y-83402352D01*
X150390500Y-83197648D01*
X150358477Y-82995466D01*
X150295220Y-82800781D01*
X150295218Y-82800778D01*
X150295218Y-82800776D01*
X150261503Y-82734607D01*
X150202287Y-82618390D01*
X150194556Y-82607749D01*
X150081971Y-82452786D01*
X149937213Y-82308028D01*
X149771614Y-82187715D01*
X149765006Y-82184348D01*
X149678917Y-82140483D01*
X149628123Y-82092511D01*
X149611328Y-82024690D01*
X149633865Y-81958555D01*
X149678917Y-81919516D01*
X149771610Y-81872287D01*
X149824538Y-81833833D01*
X149937213Y-81751971D01*
X149937215Y-81751968D01*
X149937219Y-81751966D01*
X150081966Y-81607219D01*
X150081968Y-81607215D01*
X150081971Y-81607213D01*
X150175959Y-81477847D01*
X150202287Y-81441610D01*
X150295220Y-81259219D01*
X150358477Y-81064534D01*
X150390500Y-80862352D01*
X150390500Y-80657648D01*
X150358477Y-80455466D01*
X150295220Y-80260781D01*
X150295218Y-80260778D01*
X150295218Y-80260776D01*
X150261503Y-80194607D01*
X150202287Y-80078390D01*
X150132231Y-79981965D01*
X150081971Y-79912786D01*
X149937213Y-79768028D01*
X149771614Y-79647715D01*
X149765006Y-79644348D01*
X149678917Y-79600483D01*
X149628123Y-79552511D01*
X149611328Y-79484690D01*
X149633865Y-79418555D01*
X149678917Y-79379516D01*
X149771610Y-79332287D01*
X149819159Y-79297741D01*
X149937213Y-79211971D01*
X149937215Y-79211968D01*
X149937219Y-79211966D01*
X150081966Y-79067219D01*
X150081968Y-79067215D01*
X150081971Y-79067213D01*
X150134732Y-78994590D01*
X150202287Y-78901610D01*
X150295220Y-78719219D01*
X150358477Y-78524534D01*
X150390500Y-78322352D01*
X150390500Y-78117648D01*
X150358477Y-77915466D01*
X150341371Y-77862819D01*
X150339376Y-77792977D01*
X150375456Y-77733144D01*
X150438157Y-77702316D01*
X150459302Y-77700500D01*
X154687770Y-77700500D01*
X154754809Y-77720185D01*
X154775451Y-77736819D01*
X161713181Y-84674549D01*
X161746666Y-84735872D01*
X161749500Y-84762230D01*
X161749500Y-122806593D01*
X161729815Y-122873632D01*
X161681796Y-122917077D01*
X161598051Y-122959748D01*
X161391064Y-123110132D01*
X161391059Y-123110136D01*
X161210136Y-123291059D01*
X161210132Y-123291064D01*
X161059750Y-123498049D01*
X160943589Y-123726024D01*
X160943588Y-123726027D01*
X160864526Y-123969359D01*
X160840578Y-124120558D01*
X160824500Y-124222070D01*
X160824500Y-124477930D01*
X160844513Y-124604284D01*
X160864526Y-124730640D01*
X160943588Y-124973972D01*
X160943589Y-124973975D01*
X161007803Y-125100000D01*
X161050138Y-125183087D01*
X161059750Y-125201950D01*
X161210132Y-125408935D01*
X161210136Y-125408940D01*
X161391059Y-125589863D01*
X161391064Y-125589867D01*
X161571607Y-125721038D01*
X161598053Y-125740252D01*
X161747080Y-125816185D01*
X161826024Y-125856410D01*
X161826027Y-125856411D01*
X161947693Y-125895942D01*
X162069361Y-125935474D01*
X162322070Y-125975500D01*
X162322071Y-125975500D01*
X162577929Y-125975500D01*
X162577930Y-125975500D01*
X162830639Y-125935474D01*
X163073975Y-125856410D01*
X163301947Y-125740252D01*
X163508942Y-125589862D01*
X163687319Y-125411485D01*
X163748642Y-125378000D01*
X163818334Y-125382984D01*
X163862681Y-125411485D01*
X164041059Y-125589863D01*
X164041064Y-125589867D01*
X164221607Y-125721038D01*
X164248053Y-125740252D01*
X164397080Y-125816185D01*
X164476024Y-125856410D01*
X164476027Y-125856411D01*
X164597693Y-125895942D01*
X164719361Y-125935474D01*
X164972070Y-125975500D01*
X164972071Y-125975500D01*
X165227929Y-125975500D01*
X165227930Y-125975500D01*
X165480639Y-125935474D01*
X165723975Y-125856410D01*
X165951947Y-125740252D01*
X166158942Y-125589862D01*
X166337319Y-125411485D01*
X166398642Y-125378000D01*
X166468334Y-125382984D01*
X166512681Y-125411485D01*
X166691059Y-125589863D01*
X166691064Y-125589867D01*
X166871607Y-125721038D01*
X166898053Y-125740252D01*
X167047080Y-125816185D01*
X167126024Y-125856410D01*
X167126027Y-125856411D01*
X167247693Y-125895942D01*
X167369361Y-125935474D01*
X167622070Y-125975500D01*
X167622071Y-125975500D01*
X167877929Y-125975500D01*
X167877930Y-125975500D01*
X168130639Y-125935474D01*
X168373975Y-125856410D01*
X168601947Y-125740252D01*
X168808942Y-125589862D01*
X168962319Y-125436485D01*
X169023642Y-125403000D01*
X169093334Y-125407984D01*
X169137681Y-125436485D01*
X169291059Y-125589863D01*
X169291064Y-125589867D01*
X169471607Y-125721038D01*
X169498053Y-125740252D01*
X169647080Y-125816185D01*
X169726024Y-125856410D01*
X169726027Y-125856411D01*
X169847693Y-125895942D01*
X169969361Y-125935474D01*
X170222070Y-125975500D01*
X170222071Y-125975500D01*
X170477929Y-125975500D01*
X170477930Y-125975500D01*
X170730639Y-125935474D01*
X170973975Y-125856410D01*
X171201947Y-125740252D01*
X171408942Y-125589862D01*
X171589862Y-125408942D01*
X171624681Y-125361016D01*
X171680011Y-125318351D01*
X171749624Y-125312372D01*
X171811420Y-125344977D01*
X171825319Y-125361017D01*
X171860138Y-125408942D01*
X172041059Y-125589863D01*
X172041064Y-125589867D01*
X172221607Y-125721038D01*
X172248053Y-125740252D01*
X172397080Y-125816185D01*
X172476024Y-125856410D01*
X172476027Y-125856411D01*
X172597693Y-125895942D01*
X172719361Y-125935474D01*
X172972070Y-125975500D01*
X172972071Y-125975500D01*
X173227929Y-125975500D01*
X173227930Y-125975500D01*
X173480639Y-125935474D01*
X173723975Y-125856410D01*
X173951947Y-125740252D01*
X174158942Y-125589862D01*
X174339862Y-125408942D01*
X174377476Y-125357170D01*
X174382262Y-125351955D01*
X174406356Y-125337423D01*
X174418007Y-125328438D01*
X175072421Y-124674024D01*
X175085359Y-124705258D01*
X175167437Y-124828097D01*
X175271903Y-124932563D01*
X175394742Y-125014641D01*
X175425974Y-125027577D01*
X174791402Y-125662148D01*
X174898313Y-125739824D01*
X175126215Y-125855947D01*
X175126218Y-125855948D01*
X175369476Y-125934986D01*
X175622111Y-125975000D01*
X175877889Y-125975000D01*
X176130523Y-125934986D01*
X176373781Y-125855948D01*
X176373784Y-125855947D01*
X176601685Y-125739825D01*
X176708595Y-125662148D01*
X176708596Y-125662148D01*
X176074025Y-125027578D01*
X176105258Y-125014641D01*
X176228097Y-124932563D01*
X176332563Y-124828097D01*
X176414641Y-124705258D01*
X176427578Y-124674025D01*
X177062147Y-125308595D01*
X177111238Y-125304732D01*
X177179615Y-125319096D01*
X177221284Y-125355464D01*
X177244645Y-125387617D01*
X177260135Y-125408938D01*
X177260140Y-125408944D01*
X177441059Y-125589863D01*
X177441064Y-125589867D01*
X177621607Y-125721038D01*
X177648053Y-125740252D01*
X177797080Y-125816185D01*
X177876024Y-125856410D01*
X177876027Y-125856411D01*
X177997693Y-125895942D01*
X178119361Y-125935474D01*
X178372070Y-125975500D01*
X178372071Y-125975500D01*
X178627929Y-125975500D01*
X178627930Y-125975500D01*
X178880639Y-125935474D01*
X179123975Y-125856410D01*
X179351947Y-125740252D01*
X179558942Y-125589862D01*
X179712319Y-125436485D01*
X179773642Y-125403000D01*
X179843334Y-125407984D01*
X179887681Y-125436485D01*
X180041059Y-125589863D01*
X180041064Y-125589867D01*
X180221607Y-125721038D01*
X180248053Y-125740252D01*
X180397080Y-125816185D01*
X180476024Y-125856410D01*
X180476027Y-125856411D01*
X180597693Y-125895942D01*
X180719361Y-125935474D01*
X180972070Y-125975500D01*
X180972071Y-125975500D01*
X181227929Y-125975500D01*
X181227930Y-125975500D01*
X181480639Y-125935474D01*
X181723975Y-125856410D01*
X181951947Y-125740252D01*
X182158942Y-125589862D01*
X182339862Y-125408942D01*
X182490252Y-125201947D01*
X182606410Y-124973975D01*
X182685474Y-124730639D01*
X182725500Y-124477930D01*
X182725500Y-124222070D01*
X182685474Y-123969361D01*
X182645942Y-123847693D01*
X182606411Y-123726027D01*
X182606410Y-123726024D01*
X182556882Y-123628822D01*
X182490252Y-123498053D01*
X182455170Y-123449766D01*
X182339867Y-123291064D01*
X182339863Y-123291059D01*
X182158940Y-123110136D01*
X182158935Y-123110132D01*
X181951948Y-122959748D01*
X181943891Y-122955643D01*
X181868201Y-122917077D01*
X181735032Y-122849223D01*
X183099500Y-122849223D01*
X183099500Y-123150776D01*
X183099501Y-123150793D01*
X183138861Y-123449766D01*
X183216913Y-123741060D01*
X183332314Y-124019661D01*
X183332318Y-124019671D01*
X183483099Y-124280831D01*
X183666679Y-124520078D01*
X183666685Y-124520085D01*
X183879914Y-124733314D01*
X183879921Y-124733320D01*
X184119168Y-124916900D01*
X184380328Y-125067681D01*
X184380329Y-125067681D01*
X184380332Y-125067683D01*
X184478738Y-125108444D01*
X184658939Y-125183086D01*
X184658940Y-125183086D01*
X184658942Y-125183087D01*
X184950232Y-125261138D01*
X185249217Y-125300500D01*
X185249224Y-125300500D01*
X185550776Y-125300500D01*
X185550783Y-125300500D01*
X185849768Y-125261138D01*
X186141058Y-125183087D01*
X186419668Y-125067683D01*
X186680832Y-124916900D01*
X186920080Y-124733319D01*
X187133319Y-124520080D01*
X187316900Y-124280832D01*
X187467683Y-124019668D01*
X187583087Y-123741058D01*
X187661138Y-123449768D01*
X187700500Y-123150783D01*
X187700500Y-122849217D01*
X187661138Y-122550232D01*
X187583087Y-122258942D01*
X187578691Y-122248330D01*
X187467685Y-121980338D01*
X187467681Y-121980328D01*
X187316900Y-121719168D01*
X187133320Y-121479921D01*
X187133314Y-121479914D01*
X186920085Y-121266685D01*
X186920078Y-121266679D01*
X186680831Y-121083099D01*
X186419671Y-120932318D01*
X186419661Y-120932314D01*
X186141060Y-120816913D01*
X185849766Y-120738861D01*
X185550793Y-120699501D01*
X185550788Y-120699500D01*
X185550783Y-120699500D01*
X185249217Y-120699500D01*
X185249211Y-120699500D01*
X185249206Y-120699501D01*
X184950233Y-120738861D01*
X184658939Y-120816913D01*
X184380338Y-120932314D01*
X184380328Y-120932318D01*
X184119168Y-121083099D01*
X183879921Y-121266679D01*
X183879914Y-121266685D01*
X183666685Y-121479914D01*
X183666679Y-121479921D01*
X183483099Y-121719168D01*
X183332318Y-121980328D01*
X183332314Y-121980338D01*
X183216913Y-122258939D01*
X183138861Y-122550233D01*
X183099501Y-122849206D01*
X183099500Y-122849223D01*
X181735032Y-122849223D01*
X181723975Y-122843589D01*
X181723972Y-122843588D01*
X181480640Y-122764526D01*
X181354284Y-122744513D01*
X181227930Y-122724500D01*
X180972070Y-122724500D01*
X180887833Y-122737842D01*
X180719359Y-122764526D01*
X180476027Y-122843588D01*
X180476024Y-122843589D01*
X180248049Y-122959750D01*
X180041064Y-123110132D01*
X180041059Y-123110136D01*
X179887681Y-123263515D01*
X179826358Y-123297000D01*
X179756666Y-123292016D01*
X179712319Y-123263515D01*
X179558940Y-123110136D01*
X179558935Y-123110132D01*
X179351950Y-122959750D01*
X179351949Y-122959749D01*
X179351947Y-122959748D01*
X179268201Y-122917077D01*
X179123975Y-122843589D01*
X179123972Y-122843588D01*
X178880640Y-122764526D01*
X178754284Y-122744513D01*
X178627930Y-122724500D01*
X178372070Y-122724500D01*
X178287833Y-122737842D01*
X178119359Y-122764526D01*
X177876027Y-122843588D01*
X177876024Y-122843589D01*
X177648049Y-122959750D01*
X177441064Y-123110132D01*
X177441059Y-123110136D01*
X177260137Y-123291058D01*
X177221284Y-123344535D01*
X177165954Y-123387200D01*
X177111239Y-123395266D01*
X177062148Y-123391402D01*
X176427577Y-124025973D01*
X176414641Y-123994742D01*
X176332563Y-123871903D01*
X176228097Y-123767437D01*
X176105258Y-123685359D01*
X176074024Y-123672421D01*
X176708596Y-123037850D01*
X176601686Y-122960175D01*
X176373784Y-122844052D01*
X176373781Y-122844051D01*
X176130523Y-122765013D01*
X175877889Y-122725000D01*
X175622111Y-122725000D01*
X175369476Y-122765013D01*
X175126218Y-122844051D01*
X175126215Y-122844052D01*
X174898310Y-122960177D01*
X174791403Y-123037849D01*
X174791402Y-123037850D01*
X175425974Y-123672421D01*
X175394742Y-123685359D01*
X175271903Y-123767437D01*
X175167437Y-123871903D01*
X175085359Y-123994742D01*
X175072421Y-124025974D01*
X174421212Y-123374765D01*
X174414967Y-123373453D01*
X174411756Y-123370958D01*
X174409583Y-123370387D01*
X174401655Y-123363110D01*
X174382262Y-123348043D01*
X174377469Y-123342820D01*
X174339862Y-123291058D01*
X174158942Y-123110138D01*
X174158940Y-123110136D01*
X174158935Y-123110132D01*
X173951950Y-122959750D01*
X173951949Y-122959749D01*
X173951947Y-122959748D01*
X173868201Y-122917077D01*
X173723975Y-122843589D01*
X173723972Y-122843588D01*
X173480640Y-122764526D01*
X173354284Y-122744513D01*
X173227930Y-122724500D01*
X172972070Y-122724500D01*
X172887833Y-122737842D01*
X172719359Y-122764526D01*
X172476027Y-122843588D01*
X172476024Y-122843589D01*
X172248049Y-122959750D01*
X172041064Y-123110132D01*
X172041059Y-123110136D01*
X171860136Y-123291059D01*
X171825318Y-123338983D01*
X171769988Y-123381648D01*
X171700375Y-123387627D01*
X171638580Y-123355021D01*
X171624682Y-123338983D01*
X171589863Y-123291059D01*
X171408940Y-123110136D01*
X171408935Y-123110132D01*
X171201950Y-122959750D01*
X171201949Y-122959749D01*
X171201947Y-122959748D01*
X171118201Y-122917077D01*
X170973975Y-122843589D01*
X170973972Y-122843588D01*
X170730640Y-122764526D01*
X170604284Y-122744513D01*
X170477930Y-122724500D01*
X170222070Y-122724500D01*
X170137833Y-122737842D01*
X169969359Y-122764526D01*
X169726027Y-122843588D01*
X169726024Y-122843589D01*
X169498049Y-122959750D01*
X169291064Y-123110132D01*
X169291059Y-123110136D01*
X169137681Y-123263515D01*
X169076358Y-123297000D01*
X169006666Y-123292016D01*
X168962319Y-123263515D01*
X168808940Y-123110136D01*
X168808935Y-123110132D01*
X168601950Y-122959750D01*
X168601949Y-122959749D01*
X168601947Y-122959748D01*
X168518201Y-122917077D01*
X168373975Y-122843589D01*
X168373972Y-122843588D01*
X168130640Y-122764526D01*
X168004284Y-122744513D01*
X167877930Y-122724500D01*
X167622070Y-122724500D01*
X167537833Y-122737842D01*
X167369359Y-122764526D01*
X167126027Y-122843588D01*
X167126024Y-122843589D01*
X166898049Y-122959750D01*
X166691064Y-123110132D01*
X166691059Y-123110136D01*
X166512681Y-123288515D01*
X166451358Y-123322000D01*
X166381666Y-123317016D01*
X166337319Y-123288515D01*
X166158940Y-123110136D01*
X166158935Y-123110132D01*
X165951950Y-122959750D01*
X165951949Y-122959749D01*
X165951947Y-122959748D01*
X165868201Y-122917077D01*
X165723975Y-122843589D01*
X165723972Y-122843588D01*
X165480640Y-122764526D01*
X165354284Y-122744513D01*
X165227930Y-122724500D01*
X164972070Y-122724500D01*
X164887833Y-122737842D01*
X164719359Y-122764526D01*
X164476027Y-122843588D01*
X164476024Y-122843589D01*
X164248049Y-122959750D01*
X164041064Y-123110132D01*
X164041059Y-123110136D01*
X163862681Y-123288515D01*
X163801358Y-123322000D01*
X163731666Y-123317016D01*
X163687319Y-123288515D01*
X163508940Y-123110136D01*
X163508935Y-123110132D01*
X163301615Y-122959506D01*
X163258949Y-122904176D01*
X163250500Y-122859188D01*
X163250500Y-85249223D01*
X183099500Y-85249223D01*
X183099500Y-85550776D01*
X183099501Y-85550793D01*
X183138861Y-85849766D01*
X183216913Y-86141060D01*
X183332314Y-86419661D01*
X183332318Y-86419671D01*
X183483099Y-86680831D01*
X183666679Y-86920078D01*
X183666685Y-86920085D01*
X183879914Y-87133314D01*
X183879921Y-87133320D01*
X184119168Y-87316900D01*
X184380328Y-87467681D01*
X184380329Y-87467681D01*
X184380332Y-87467683D01*
X184566072Y-87544619D01*
X184658939Y-87583086D01*
X184658940Y-87583086D01*
X184658942Y-87583087D01*
X184950232Y-87661138D01*
X185249217Y-87700500D01*
X185249224Y-87700500D01*
X185550776Y-87700500D01*
X185550783Y-87700500D01*
X185849768Y-87661138D01*
X186141058Y-87583087D01*
X186419668Y-87467683D01*
X186680832Y-87316900D01*
X186920080Y-87133319D01*
X187133319Y-86920080D01*
X187316900Y-86680832D01*
X187467683Y-86419668D01*
X187583087Y-86141058D01*
X187661138Y-85849768D01*
X187700500Y-85550783D01*
X187700500Y-85249217D01*
X187661138Y-84950232D01*
X187583087Y-84658942D01*
X187578691Y-84648330D01*
X187544047Y-84564690D01*
X187467683Y-84380332D01*
X187425535Y-84307330D01*
X187316900Y-84119168D01*
X187133320Y-83879921D01*
X187133314Y-83879914D01*
X186920085Y-83666685D01*
X186920078Y-83666679D01*
X186680831Y-83483099D01*
X186419671Y-83332318D01*
X186419661Y-83332314D01*
X186141060Y-83216913D01*
X185849766Y-83138861D01*
X185550793Y-83099501D01*
X185550788Y-83099500D01*
X185550783Y-83099500D01*
X185249217Y-83099500D01*
X185249211Y-83099500D01*
X185249206Y-83099501D01*
X184950233Y-83138861D01*
X184658939Y-83216913D01*
X184380338Y-83332314D01*
X184380328Y-83332318D01*
X184119168Y-83483099D01*
X183879921Y-83666679D01*
X183879914Y-83666685D01*
X183666685Y-83879914D01*
X183666679Y-83879921D01*
X183483099Y-84119168D01*
X183332318Y-84380328D01*
X183332314Y-84380338D01*
X183216913Y-84658939D01*
X183138861Y-84950233D01*
X183099501Y-85249206D01*
X183099500Y-85249223D01*
X163250500Y-85249223D01*
X163250500Y-84326079D01*
X163221659Y-84181092D01*
X163221658Y-84181091D01*
X163221658Y-84181087D01*
X163212099Y-84158009D01*
X163165087Y-84044511D01*
X163165085Y-84044507D01*
X163165084Y-84044505D01*
X163123059Y-83981610D01*
X163082952Y-83921584D01*
X159376603Y-80215235D01*
X155528421Y-76367052D01*
X155528414Y-76367046D01*
X155454729Y-76317812D01*
X155454729Y-76317813D01*
X155405491Y-76284913D01*
X155268917Y-76228343D01*
X155268907Y-76228340D01*
X155123920Y-76199500D01*
X155123918Y-76199500D01*
X150464832Y-76199500D01*
X150397793Y-76179815D01*
X150352038Y-76127011D01*
X150342094Y-76057853D01*
X150346171Y-76039507D01*
X150354552Y-76011875D01*
X150354554Y-76011866D01*
X150385298Y-75857302D01*
X150385298Y-75857299D01*
X150395000Y-75758789D01*
X150395000Y-75601210D01*
X150385298Y-75502700D01*
X150385298Y-75502697D01*
X150354555Y-75348135D01*
X150325812Y-75253382D01*
X150265509Y-75107801D01*
X150218844Y-75020498D01*
X150218838Y-75020488D01*
X150172465Y-74951085D01*
X149572961Y-75550588D01*
X149555925Y-75487007D01*
X149490099Y-75372993D01*
X149397007Y-75279901D01*
X149282993Y-75214075D01*
X149219410Y-75197037D01*
X149808663Y-74607783D01*
X149731717Y-74552135D01*
X178199500Y-74552135D01*
X178199500Y-76647870D01*
X178199501Y-76647876D01*
X178205908Y-76707483D01*
X178256202Y-76842328D01*
X178256206Y-76842335D01*
X178342452Y-76957544D01*
X178342455Y-76957547D01*
X178457664Y-77043793D01*
X178457671Y-77043797D01*
X178592517Y-77094091D01*
X178592516Y-77094091D01*
X178599444Y-77094835D01*
X178652127Y-77100500D01*
X180747872Y-77100499D01*
X180807483Y-77094091D01*
X180942331Y-77043796D01*
X181057546Y-76957546D01*
X181143796Y-76842331D01*
X181194091Y-76707483D01*
X181200500Y-76647873D01*
X181200499Y-75481947D01*
X183200000Y-75481947D01*
X183200000Y-75718052D01*
X183236934Y-75951247D01*
X183309897Y-76175802D01*
X183417087Y-76386174D01*
X183477338Y-76469104D01*
X183477340Y-76469105D01*
X184217037Y-75729408D01*
X184234075Y-75792993D01*
X184299901Y-75907007D01*
X184392993Y-76000099D01*
X184507007Y-76065925D01*
X184570590Y-76082962D01*
X183830893Y-76822658D01*
X183913828Y-76882914D01*
X184124197Y-76990102D01*
X184348752Y-77063065D01*
X184348751Y-77063065D01*
X184581948Y-77100000D01*
X184818052Y-77100000D01*
X185051247Y-77063065D01*
X185275802Y-76990102D01*
X185486163Y-76882918D01*
X185486169Y-76882914D01*
X185569104Y-76822658D01*
X185569105Y-76822658D01*
X184829408Y-76082962D01*
X184892993Y-76065925D01*
X185007007Y-76000099D01*
X185100099Y-75907007D01*
X185165925Y-75792993D01*
X185182962Y-75729408D01*
X185922658Y-76469105D01*
X185922658Y-76469104D01*
X185982914Y-76386169D01*
X185982918Y-76386163D01*
X186090102Y-76175802D01*
X186163065Y-75951247D01*
X186200000Y-75718052D01*
X186200000Y-75481947D01*
X186163065Y-75248752D01*
X186090102Y-75024197D01*
X185982914Y-74813828D01*
X185922658Y-74730894D01*
X185922658Y-74730893D01*
X185182962Y-75470590D01*
X185165925Y-75407007D01*
X185100099Y-75292993D01*
X185007007Y-75199901D01*
X184892993Y-75134075D01*
X184829409Y-75117037D01*
X185569105Y-74377340D01*
X185569104Y-74377338D01*
X185486174Y-74317087D01*
X185275802Y-74209897D01*
X185051247Y-74136934D01*
X185051248Y-74136934D01*
X184818052Y-74100000D01*
X184581948Y-74100000D01*
X184348752Y-74136934D01*
X184124197Y-74209897D01*
X183913830Y-74317084D01*
X183830894Y-74377340D01*
X184570591Y-75117037D01*
X184507007Y-75134075D01*
X184392993Y-75199901D01*
X184299901Y-75292993D01*
X184234075Y-75407007D01*
X184217037Y-75470591D01*
X183477340Y-74730894D01*
X183417084Y-74813830D01*
X183309897Y-75024197D01*
X183236934Y-75248752D01*
X183200000Y-75481947D01*
X181200499Y-75481947D01*
X181200499Y-74552128D01*
X181194091Y-74492517D01*
X181194090Y-74492514D01*
X181184922Y-74467931D01*
X181143797Y-74357671D01*
X181143793Y-74357664D01*
X181057547Y-74242455D01*
X181057544Y-74242452D01*
X180942335Y-74156206D01*
X180942328Y-74156202D01*
X180807482Y-74105908D01*
X180807483Y-74105908D01*
X180747883Y-74099501D01*
X180747881Y-74099500D01*
X180747873Y-74099500D01*
X180747864Y-74099500D01*
X178652129Y-74099500D01*
X178652123Y-74099501D01*
X178592516Y-74105908D01*
X178457671Y-74156202D01*
X178457664Y-74156206D01*
X178342455Y-74242452D01*
X178342452Y-74242455D01*
X178256206Y-74357664D01*
X178256202Y-74357671D01*
X178205908Y-74492517D01*
X178199501Y-74552116D01*
X178199501Y-74552123D01*
X178199500Y-74552135D01*
X149731717Y-74552135D01*
X149669333Y-74507019D01*
X149652875Y-74485772D01*
X149633701Y-74466937D01*
X149631801Y-74458566D01*
X149626547Y-74451783D01*
X149624188Y-74425010D01*
X149618241Y-74398799D01*
X149621168Y-74390731D01*
X149620415Y-74382183D01*
X149632904Y-74358387D01*
X149642073Y-74333119D01*
X149649460Y-74326844D01*
X149652886Y-74320317D01*
X149665722Y-74313030D01*
X149685702Y-74296059D01*
X149771610Y-74252287D01*
X149862745Y-74186074D01*
X149937213Y-74131971D01*
X149937215Y-74131968D01*
X149937219Y-74131966D01*
X150081966Y-73987219D01*
X150081968Y-73987215D01*
X150081971Y-73987213D01*
X150134732Y-73914590D01*
X150202287Y-73821610D01*
X150295220Y-73639219D01*
X150358477Y-73444534D01*
X150390500Y-73242352D01*
X150390500Y-73037648D01*
X150358477Y-72835466D01*
X150295220Y-72640781D01*
X150295218Y-72640778D01*
X150295218Y-72640776D01*
X150232868Y-72518409D01*
X150202287Y-72458390D01*
X150158958Y-72398752D01*
X150081971Y-72292786D01*
X149937213Y-72148028D01*
X149771614Y-72027715D01*
X149765006Y-72024348D01*
X149678917Y-71980483D01*
X149628123Y-71932511D01*
X149611328Y-71864690D01*
X149633865Y-71798555D01*
X149678917Y-71759516D01*
X149771610Y-71712287D01*
X149792770Y-71696913D01*
X149937213Y-71591971D01*
X149937215Y-71591968D01*
X149937219Y-71591966D01*
X150081966Y-71447219D01*
X150081968Y-71447215D01*
X150081971Y-71447213D01*
X150169170Y-71327192D01*
X150202287Y-71281610D01*
X150295220Y-71099219D01*
X150358477Y-70904534D01*
X150390500Y-70702352D01*
X150390500Y-70497648D01*
X150358477Y-70295466D01*
X150295220Y-70100781D01*
X150295218Y-70100778D01*
X150295218Y-70100776D01*
X150261503Y-70034607D01*
X150202287Y-69918390D01*
X150194556Y-69907749D01*
X150081971Y-69752786D01*
X149937213Y-69608028D01*
X149771613Y-69487715D01*
X149771612Y-69487714D01*
X149771610Y-69487713D01*
X149686855Y-69444528D01*
X149589223Y-69394781D01*
X149394534Y-69331522D01*
X149219995Y-69303878D01*
X149192352Y-69299500D01*
X148987648Y-69299500D01*
X148963329Y-69303351D01*
X148785465Y-69331522D01*
X148590776Y-69394781D01*
X148408386Y-69487715D01*
X148242786Y-69608028D01*
X148098028Y-69752786D01*
X147977715Y-69918386D01*
X147884781Y-70100776D01*
X147821522Y-70295465D01*
X147789500Y-70497648D01*
X147789500Y-70702351D01*
X147821522Y-70904534D01*
X147884781Y-71099223D01*
X147948691Y-71224653D01*
X147976554Y-71279336D01*
X147977715Y-71281613D01*
X148098028Y-71447213D01*
X148242786Y-71591971D01*
X148391477Y-71699999D01*
X148408390Y-71712287D01*
X148476161Y-71746818D01*
X148501080Y-71759515D01*
X148551876Y-71807490D01*
X148568671Y-71875311D01*
X148546134Y-71941446D01*
X148501080Y-71980485D01*
X148408386Y-72027715D01*
X148242786Y-72148028D01*
X148098028Y-72292786D01*
X147977715Y-72458386D01*
X147884781Y-72640776D01*
X147821522Y-72835465D01*
X147789500Y-73037648D01*
X147789500Y-73242351D01*
X147821522Y-73444534D01*
X147884781Y-73639223D01*
X147977715Y-73821613D01*
X148098028Y-73987213D01*
X148242782Y-74131967D01*
X148242787Y-74131971D01*
X148319583Y-74187767D01*
X148362249Y-74243097D01*
X148368228Y-74312710D01*
X148335622Y-74374505D01*
X148277365Y-74408233D01*
X148256973Y-74413437D01*
X148256962Y-74413441D01*
X148200415Y-74436863D01*
X148960589Y-75197037D01*
X148897007Y-75214075D01*
X148782993Y-75279901D01*
X148689901Y-75372993D01*
X148624075Y-75487007D01*
X148607037Y-75550589D01*
X147846863Y-74790415D01*
X147846862Y-74790415D01*
X147823446Y-74846947D01*
X147823431Y-74846987D01*
X147805457Y-74897939D01*
X147805455Y-74897946D01*
X147785000Y-75040219D01*
X147785000Y-76075500D01*
X147765315Y-76142539D01*
X147712511Y-76188294D01*
X147661000Y-76199500D01*
X138022229Y-76199500D01*
X137955190Y-76179815D01*
X137934548Y-76163181D01*
X132646819Y-70875451D01*
X132613334Y-70814128D01*
X132610500Y-70787770D01*
X132610500Y-69943386D01*
X132610500Y-69943384D01*
X132604086Y-69872804D01*
X132553478Y-69710394D01*
X132465472Y-69564815D01*
X132465470Y-69564813D01*
X132465469Y-69564811D01*
X132345188Y-69444530D01*
X132288065Y-69409998D01*
X132199606Y-69356522D01*
X132037196Y-69305914D01*
X132037194Y-69305913D01*
X132037192Y-69305913D01*
X131987778Y-69301423D01*
X131966616Y-69299500D01*
X130653384Y-69299500D01*
X130634145Y-69301248D01*
X130582807Y-69305913D01*
X130420393Y-69356522D01*
X130274811Y-69444530D01*
X130154530Y-69564811D01*
X130066522Y-69710393D01*
X130015913Y-69872807D01*
X130009500Y-69943386D01*
X130009500Y-71256613D01*
X130015913Y-71327192D01*
X130066522Y-71489606D01*
X130154530Y-71635188D01*
X130274811Y-71755469D01*
X130274813Y-71755470D01*
X130274815Y-71755472D01*
X130420394Y-71843478D01*
X130507566Y-71870641D01*
X130565712Y-71909378D01*
X130593686Y-71973403D01*
X130582605Y-72042388D01*
X130543560Y-72089344D01*
X130462782Y-72148032D01*
X130318028Y-72292786D01*
X130197715Y-72458386D01*
X130104781Y-72640776D01*
X130041522Y-72835465D01*
X130009500Y-73037648D01*
X130009500Y-73242351D01*
X130041522Y-73444534D01*
X130104781Y-73639223D01*
X130197715Y-73821613D01*
X130318028Y-73987213D01*
X130462786Y-74131971D01*
X130628388Y-74252286D01*
X130628390Y-74252287D01*
X130714294Y-74296057D01*
X130765090Y-74344031D01*
X130781886Y-74411852D01*
X130759349Y-74477987D01*
X130716455Y-74515899D01*
X130650497Y-74551155D01*
X130581086Y-74597534D01*
X130581085Y-74597534D01*
X131180589Y-75197037D01*
X131117007Y-75214075D01*
X131002993Y-75279901D01*
X130909901Y-75372993D01*
X130844075Y-75487007D01*
X130827037Y-75550588D01*
X130227534Y-74951085D01*
X130227534Y-74951086D01*
X130181158Y-75020493D01*
X130134490Y-75107801D01*
X130074188Y-75253382D01*
X130045444Y-75348135D01*
X130014701Y-75502697D01*
X130014701Y-75502700D01*
X130005000Y-75601210D01*
X130005000Y-75758789D01*
X130014701Y-75857299D01*
X130014701Y-75857302D01*
X130045444Y-76011864D01*
X130074185Y-76106612D01*
X130134490Y-76252198D01*
X130181155Y-76339501D01*
X130181161Y-76339511D01*
X130227534Y-76408912D01*
X130827037Y-75809410D01*
X130844075Y-75872993D01*
X130909901Y-75987007D01*
X131002993Y-76080099D01*
X131117007Y-76145925D01*
X131180589Y-76162962D01*
X130581085Y-76762465D01*
X130650488Y-76808838D01*
X130650498Y-76808844D01*
X130716454Y-76844099D01*
X130766298Y-76893062D01*
X130781758Y-76961200D01*
X130757926Y-77026879D01*
X130714295Y-77063942D01*
X130628386Y-77107715D01*
X130462786Y-77228028D01*
X130318028Y-77372786D01*
X130197715Y-77538386D01*
X130104781Y-77720776D01*
X130041522Y-77915465D01*
X130009500Y-78117648D01*
X130009500Y-78322351D01*
X130041522Y-78524534D01*
X130104781Y-78719223D01*
X130197715Y-78901613D01*
X130318028Y-79067213D01*
X130462786Y-79211971D01*
X130580841Y-79297741D01*
X130628390Y-79332287D01*
X130719840Y-79378883D01*
X130721080Y-79379515D01*
X130771876Y-79427490D01*
X130788671Y-79495311D01*
X130766134Y-79561446D01*
X130721080Y-79600485D01*
X130628386Y-79647715D01*
X130462786Y-79768028D01*
X130318028Y-79912786D01*
X130197715Y-80078386D01*
X130104781Y-80260776D01*
X130041522Y-80455465D01*
X130009500Y-80657648D01*
X130009500Y-80862351D01*
X130041522Y-81064534D01*
X130104781Y-81259223D01*
X130197715Y-81441613D01*
X130318028Y-81607213D01*
X130462786Y-81751971D01*
X130575462Y-81833833D01*
X130628390Y-81872287D01*
X130719840Y-81918883D01*
X130721080Y-81919515D01*
X130771876Y-81967490D01*
X130788671Y-82035311D01*
X130766134Y-82101446D01*
X130721080Y-82140485D01*
X130628386Y-82187715D01*
X130462786Y-82308028D01*
X130318028Y-82452786D01*
X130197715Y-82618386D01*
X130104781Y-82800776D01*
X130041522Y-82995465D01*
X130009500Y-83197648D01*
X130009500Y-83402351D01*
X130041522Y-83604534D01*
X130104781Y-83799223D01*
X130197715Y-83981613D01*
X130318028Y-84147213D01*
X130462786Y-84291971D01*
X130617749Y-84404556D01*
X130628390Y-84412287D01*
X130713805Y-84455808D01*
X130721080Y-84459515D01*
X130771876Y-84507490D01*
X130788671Y-84575311D01*
X130766134Y-84641446D01*
X130721080Y-84680485D01*
X130628386Y-84727715D01*
X130462786Y-84848028D01*
X130318028Y-84992786D01*
X130197715Y-85158386D01*
X130104781Y-85340776D01*
X130041522Y-85535465D01*
X130009500Y-85737648D01*
X130009500Y-85942351D01*
X130041522Y-86144534D01*
X130104781Y-86339223D01*
X130197715Y-86521613D01*
X130318028Y-86687213D01*
X130462786Y-86831971D01*
X130628388Y-86952286D01*
X130628390Y-86952287D01*
X130714294Y-86996057D01*
X130765090Y-87044031D01*
X130781886Y-87111852D01*
X130759349Y-87177987D01*
X130716455Y-87215899D01*
X130650497Y-87251155D01*
X130581086Y-87297534D01*
X130581085Y-87297534D01*
X131180589Y-87897037D01*
X131117007Y-87914075D01*
X131002993Y-87979901D01*
X130909901Y-88072993D01*
X130844075Y-88187007D01*
X130827037Y-88250588D01*
X130227534Y-87651085D01*
X130227534Y-87651086D01*
X130181158Y-87720493D01*
X130134490Y-87807801D01*
X130074185Y-87953387D01*
X130045444Y-88048135D01*
X130014701Y-88202697D01*
X130014701Y-88202700D01*
X130005000Y-88301210D01*
X130005000Y-88458789D01*
X130014701Y-88557299D01*
X130014701Y-88557302D01*
X130045444Y-88711864D01*
X130074760Y-88808505D01*
X130075383Y-88878372D01*
X130038134Y-88937485D01*
X129974840Y-88967076D01*
X129956099Y-88968500D01*
X126367080Y-88968500D01*
X126222092Y-88997340D01*
X126222082Y-88997343D01*
X126085511Y-89053912D01*
X126085498Y-89053919D01*
X125962584Y-89136048D01*
X125962580Y-89136051D01*
X124597047Y-90501584D01*
X124597043Y-90501589D01*
X124555007Y-90564504D01*
X124555006Y-90564506D01*
X124514919Y-90624499D01*
X124514912Y-90624511D01*
X124458343Y-90761082D01*
X124458340Y-90761092D01*
X124429500Y-90906079D01*
X124429500Y-94989299D01*
X124409815Y-95056338D01*
X124393181Y-95076980D01*
X120725139Y-98745021D01*
X120663816Y-98778506D01*
X120656856Y-98779813D01*
X120493659Y-98805661D01*
X120493656Y-98805661D01*
X120304219Y-98867213D01*
X120126733Y-98957647D01*
X120034790Y-99024447D01*
X119965582Y-99074731D01*
X119965580Y-99074733D01*
X119965579Y-99074733D01*
X119824733Y-99215579D01*
X119824733Y-99215580D01*
X119824731Y-99215582D01*
X119791298Y-99261599D01*
X119707647Y-99376733D01*
X119630485Y-99528172D01*
X119582510Y-99578968D01*
X119514689Y-99595763D01*
X119448554Y-99573225D01*
X119409515Y-99528172D01*
X119332352Y-99376733D01*
X119215269Y-99215582D01*
X119074418Y-99074731D01*
X118913266Y-98957647D01*
X118735780Y-98867213D01*
X118546342Y-98805661D01*
X118383142Y-98779813D01*
X118349597Y-98774500D01*
X118150403Y-98774500D01*
X118094337Y-98783380D01*
X117953659Y-98805661D01*
X117953656Y-98805661D01*
X117764219Y-98867213D01*
X117586733Y-98957647D01*
X117494790Y-99024447D01*
X117425582Y-99074731D01*
X117425580Y-99074733D01*
X117425579Y-99074733D01*
X117284733Y-99215579D01*
X117284733Y-99215580D01*
X117284731Y-99215582D01*
X117251298Y-99261599D01*
X117167647Y-99376733D01*
X117090485Y-99528172D01*
X117042510Y-99578968D01*
X116974689Y-99595763D01*
X116908554Y-99573225D01*
X116869515Y-99528172D01*
X116792352Y-99376733D01*
X116675269Y-99215582D01*
X116534418Y-99074731D01*
X116373266Y-98957647D01*
X116195780Y-98867213D01*
X116006342Y-98805661D01*
X115843142Y-98779813D01*
X115809597Y-98774500D01*
X115610403Y-98774500D01*
X115554337Y-98783380D01*
X115413659Y-98805661D01*
X115413656Y-98805661D01*
X115224219Y-98867213D01*
X115046733Y-98957647D01*
X114954790Y-99024447D01*
X114885582Y-99074731D01*
X114885580Y-99074733D01*
X114885579Y-99074733D01*
X114744733Y-99215579D01*
X114744733Y-99215580D01*
X114744731Y-99215582D01*
X114711298Y-99261599D01*
X114627647Y-99376733D01*
X114537213Y-99554219D01*
X114475661Y-99743656D01*
X114475661Y-99743659D01*
X114444500Y-99940403D01*
X108550500Y-99940403D01*
X108550500Y-92159983D01*
X111499500Y-92159983D01*
X111499500Y-93760001D01*
X111499501Y-93760018D01*
X111510000Y-93862796D01*
X111510001Y-93862799D01*
X111541952Y-93959219D01*
X111565186Y-94029334D01*
X111657288Y-94178656D01*
X111781344Y-94302712D01*
X111823102Y-94328468D01*
X111829656Y-94332511D01*
X111876381Y-94384459D01*
X111887604Y-94453421D01*
X111859760Y-94517504D01*
X111858615Y-94518759D01*
X111858647Y-94518786D01*
X111855485Y-94522487D01*
X111855483Y-94522490D01*
X111819303Y-94572287D01*
X111716657Y-94713566D01*
X111609433Y-94924003D01*
X111536446Y-95148631D01*
X111499500Y-95381902D01*
X111499500Y-95618097D01*
X111536446Y-95851368D01*
X111609433Y-96075996D01*
X111668741Y-96192393D01*
X111716657Y-96286433D01*
X111855483Y-96477510D01*
X112022490Y-96644517D01*
X112213567Y-96783343D01*
X112312991Y-96834002D01*
X112424003Y-96890566D01*
X112424005Y-96890566D01*
X112424008Y-96890568D01*
X112544412Y-96929689D01*
X112648631Y-96963553D01*
X112881903Y-97000500D01*
X112881908Y-97000500D01*
X113118097Y-97000500D01*
X113351368Y-96963553D01*
X113575992Y-96890568D01*
X113786433Y-96783343D01*
X113977510Y-96644517D01*
X114144517Y-96477510D01*
X114283343Y-96286433D01*
X114390568Y-96075992D01*
X114463553Y-95851368D01*
X114466946Y-95829944D01*
X114500500Y-95618097D01*
X114500500Y-95381902D01*
X114463553Y-95148631D01*
X114390566Y-94924003D01*
X114283342Y-94713566D01*
X114144517Y-94522490D01*
X114144508Y-94522481D01*
X114141353Y-94518786D01*
X114143134Y-94517264D01*
X114114273Y-94464408D01*
X114119257Y-94394716D01*
X114161129Y-94338783D01*
X114170334Y-94332516D01*
X114218656Y-94302712D01*
X114342712Y-94178656D01*
X114434814Y-94029334D01*
X114489999Y-93862797D01*
X114500500Y-93760009D01*
X114500499Y-92159992D01*
X114489999Y-92057203D01*
X114434814Y-91890666D01*
X114342712Y-91741344D01*
X114218656Y-91617288D01*
X114069334Y-91525186D01*
X113902797Y-91470001D01*
X113902795Y-91470000D01*
X113800010Y-91459500D01*
X112199998Y-91459500D01*
X112199981Y-91459501D01*
X112097203Y-91470000D01*
X112097200Y-91470001D01*
X111930668Y-91525185D01*
X111930663Y-91525187D01*
X111781342Y-91617289D01*
X111657289Y-91741342D01*
X111565187Y-91890663D01*
X111565186Y-91890666D01*
X111510001Y-92057203D01*
X111510001Y-92057204D01*
X111510000Y-92057204D01*
X111499500Y-92159983D01*
X108550500Y-92159983D01*
X108550500Y-84576650D01*
X111499500Y-84576650D01*
X111499500Y-86176668D01*
X111499501Y-86176685D01*
X111510000Y-86279463D01*
X111510001Y-86279466D01*
X111556458Y-86419661D01*
X111565186Y-86446001D01*
X111657288Y-86595323D01*
X111781344Y-86719379D01*
X111823102Y-86745135D01*
X111829656Y-86749178D01*
X111876381Y-86801126D01*
X111887604Y-86870088D01*
X111859760Y-86934171D01*
X111858615Y-86935426D01*
X111858647Y-86935453D01*
X111855485Y-86939154D01*
X111855483Y-86939157D01*
X111814143Y-86996057D01*
X111716657Y-87130233D01*
X111609433Y-87340670D01*
X111536446Y-87565298D01*
X111499500Y-87798569D01*
X111499500Y-88034764D01*
X111536446Y-88268035D01*
X111609433Y-88492663D01*
X111642424Y-88557410D01*
X111716657Y-88703100D01*
X111855483Y-88894177D01*
X112022490Y-89061184D01*
X112213567Y-89200010D01*
X112239519Y-89213233D01*
X112424003Y-89307233D01*
X112424005Y-89307233D01*
X112424008Y-89307235D01*
X112511162Y-89335553D01*
X112648631Y-89380220D01*
X112881903Y-89417167D01*
X112881908Y-89417167D01*
X113118097Y-89417167D01*
X113351368Y-89380220D01*
X113417159Y-89358843D01*
X113575992Y-89307235D01*
X113786433Y-89200010D01*
X113977510Y-89061184D01*
X114144517Y-88894177D01*
X114283343Y-88703100D01*
X114390568Y-88492659D01*
X114463553Y-88268035D01*
X114473901Y-88202700D01*
X114500500Y-88034764D01*
X114500500Y-87798569D01*
X114463553Y-87565298D01*
X114410220Y-87401157D01*
X114390568Y-87340675D01*
X114390566Y-87340672D01*
X114390566Y-87340670D01*
X114301965Y-87166782D01*
X114283343Y-87130234D01*
X114144517Y-86939157D01*
X114144508Y-86939148D01*
X114141353Y-86935453D01*
X114143134Y-86933931D01*
X114114273Y-86881075D01*
X114119257Y-86811383D01*
X114161129Y-86755450D01*
X114170334Y-86749183D01*
X114218656Y-86719379D01*
X114342712Y-86595323D01*
X114434814Y-86446001D01*
X114489999Y-86279464D01*
X114500500Y-86176676D01*
X114500499Y-84576659D01*
X114489999Y-84473870D01*
X114434814Y-84307333D01*
X114342712Y-84158011D01*
X114218656Y-84033955D01*
X114069334Y-83941853D01*
X113902797Y-83886668D01*
X113902795Y-83886667D01*
X113800010Y-83876167D01*
X112199998Y-83876167D01*
X112199981Y-83876168D01*
X112097203Y-83886667D01*
X112097200Y-83886668D01*
X111930668Y-83941852D01*
X111930663Y-83941854D01*
X111781342Y-84033956D01*
X111657289Y-84158009D01*
X111565187Y-84307330D01*
X111565186Y-84307333D01*
X111510001Y-84473870D01*
X111510001Y-84473871D01*
X111510000Y-84473871D01*
X111499500Y-84576650D01*
X108550500Y-84576650D01*
X108550500Y-76993316D01*
X111499500Y-76993316D01*
X111499500Y-78593334D01*
X111499501Y-78593351D01*
X111510000Y-78696129D01*
X111510001Y-78696132D01*
X111517653Y-78719223D01*
X111565186Y-78862667D01*
X111657288Y-79011989D01*
X111781344Y-79136045D01*
X111823102Y-79161801D01*
X111829656Y-79165844D01*
X111876381Y-79217792D01*
X111887604Y-79286754D01*
X111859760Y-79350837D01*
X111858615Y-79352092D01*
X111858647Y-79352119D01*
X111855485Y-79355820D01*
X111855483Y-79355823D01*
X111805063Y-79425220D01*
X111716657Y-79546899D01*
X111609433Y-79757336D01*
X111536446Y-79981964D01*
X111499500Y-80215235D01*
X111499500Y-80451430D01*
X111536446Y-80684701D01*
X111609433Y-80909329D01*
X111688515Y-81064534D01*
X111716657Y-81119766D01*
X111855483Y-81310843D01*
X112022490Y-81477850D01*
X112213567Y-81616676D01*
X112312991Y-81667335D01*
X112424003Y-81723899D01*
X112424005Y-81723899D01*
X112424008Y-81723901D01*
X112544412Y-81763022D01*
X112648631Y-81796886D01*
X112881903Y-81833833D01*
X112881908Y-81833833D01*
X113118097Y-81833833D01*
X113351368Y-81796886D01*
X113575992Y-81723901D01*
X113786433Y-81616676D01*
X113977510Y-81477850D01*
X114144517Y-81310843D01*
X114283343Y-81119766D01*
X114390568Y-80909325D01*
X114463553Y-80684701D01*
X114467838Y-80657648D01*
X114500500Y-80451430D01*
X114500500Y-80215235D01*
X114463553Y-79981964D01*
X114390566Y-79757336D01*
X114310646Y-79600485D01*
X114283343Y-79546900D01*
X114144517Y-79355823D01*
X114144508Y-79355814D01*
X114141353Y-79352119D01*
X114143134Y-79350597D01*
X114114273Y-79297741D01*
X114119257Y-79228049D01*
X114161129Y-79172116D01*
X114170334Y-79165849D01*
X114218656Y-79136045D01*
X114342712Y-79011989D01*
X114434814Y-78862667D01*
X114489999Y-78696130D01*
X114500500Y-78593342D01*
X114500499Y-77792977D01*
X114500499Y-76993331D01*
X114500498Y-76993314D01*
X114489999Y-76890536D01*
X114489998Y-76890533D01*
X114437487Y-76732066D01*
X114434814Y-76723999D01*
X114342712Y-76574677D01*
X114218656Y-76450621D01*
X114114152Y-76386163D01*
X114069336Y-76358520D01*
X114069331Y-76358518D01*
X114067862Y-76358031D01*
X113902797Y-76303334D01*
X113902795Y-76303333D01*
X113800010Y-76292833D01*
X112199998Y-76292833D01*
X112199981Y-76292834D01*
X112097203Y-76303333D01*
X112097200Y-76303334D01*
X111930668Y-76358518D01*
X111930663Y-76358520D01*
X111781342Y-76450622D01*
X111657289Y-76574675D01*
X111565187Y-76723996D01*
X111565185Y-76724001D01*
X111537349Y-76808003D01*
X111510001Y-76890536D01*
X111510001Y-76890537D01*
X111510000Y-76890537D01*
X111499500Y-76993316D01*
X108550500Y-76993316D01*
X108550500Y-69409983D01*
X111499500Y-69409983D01*
X111499500Y-71010001D01*
X111499501Y-71010018D01*
X111510000Y-71112796D01*
X111510001Y-71112799D01*
X111565185Y-71279331D01*
X111565187Y-71279336D01*
X111594705Y-71327192D01*
X111657288Y-71428656D01*
X111781344Y-71552712D01*
X111930666Y-71644814D01*
X112097203Y-71699999D01*
X112199991Y-71710500D01*
X112262692Y-71710499D01*
X112329729Y-71730183D01*
X112350372Y-71746818D01*
X112788941Y-72185387D01*
X112768409Y-72190889D01*
X112631592Y-72269881D01*
X112519881Y-72381592D01*
X112440889Y-72518409D01*
X112435387Y-72538941D01*
X111777340Y-71880894D01*
X111717084Y-71963830D01*
X111609897Y-72174197D01*
X111536934Y-72398752D01*
X111500000Y-72631947D01*
X111500000Y-72868052D01*
X111536934Y-73101247D01*
X111609897Y-73325802D01*
X111717087Y-73536174D01*
X111777338Y-73619104D01*
X111777340Y-73619105D01*
X112435387Y-72961058D01*
X112440889Y-72981591D01*
X112519881Y-73118408D01*
X112631592Y-73230119D01*
X112768409Y-73309111D01*
X112788940Y-73314612D01*
X112130893Y-73972658D01*
X112213828Y-74032914D01*
X112424197Y-74140102D01*
X112648752Y-74213065D01*
X112648751Y-74213065D01*
X112881948Y-74250000D01*
X113118052Y-74250000D01*
X113351247Y-74213065D01*
X113575802Y-74140102D01*
X113786163Y-74032918D01*
X113786169Y-74032914D01*
X113869104Y-73972658D01*
X113869105Y-73972658D01*
X113211058Y-73314612D01*
X113231591Y-73309111D01*
X113368408Y-73230119D01*
X113480119Y-73118408D01*
X113559111Y-72981591D01*
X113564612Y-72961059D01*
X114222658Y-73619105D01*
X114222658Y-73619104D01*
X114282914Y-73536169D01*
X114282918Y-73536163D01*
X114390102Y-73325802D01*
X114463065Y-73101247D01*
X114500000Y-72868052D01*
X114500000Y-72631947D01*
X114463065Y-72398752D01*
X114390102Y-72174197D01*
X114282914Y-71963828D01*
X114222658Y-71880894D01*
X114222658Y-71880893D01*
X113564612Y-72538940D01*
X113559111Y-72518409D01*
X113480119Y-72381592D01*
X113368408Y-72269881D01*
X113231591Y-72190889D01*
X113211058Y-72185387D01*
X113649627Y-71746818D01*
X113710950Y-71713333D01*
X113737307Y-71710499D01*
X113800008Y-71710499D01*
X113902797Y-71699999D01*
X114069334Y-71644814D01*
X114218656Y-71552712D01*
X114342712Y-71428656D01*
X114434814Y-71279334D01*
X114489999Y-71112797D01*
X114500500Y-71010009D01*
X114500499Y-69409992D01*
X114489999Y-69307203D01*
X114434814Y-69140666D01*
X114342712Y-68991344D01*
X114218656Y-68867288D01*
X114069334Y-68775186D01*
X113902797Y-68720001D01*
X113902795Y-68720000D01*
X113800010Y-68709500D01*
X112199998Y-68709500D01*
X112199981Y-68709501D01*
X112097203Y-68720000D01*
X112097200Y-68720001D01*
X111930668Y-68775185D01*
X111930663Y-68775187D01*
X111781342Y-68867289D01*
X111657289Y-68991342D01*
X111565187Y-69140663D01*
X111565186Y-69140666D01*
X111510001Y-69307203D01*
X111510001Y-69307204D01*
X111510000Y-69307204D01*
X111499500Y-69409983D01*
X108550500Y-69409983D01*
X108550500Y-67924500D01*
X108570185Y-67857461D01*
X108622989Y-67811706D01*
X108674500Y-67800500D01*
X189075500Y-67800500D01*
X189142539Y-67820185D01*
G37*
%TD.AperFunction*%
%TD*%
M02*
