%TF.GenerationSoftware,KiCad,Pcbnew,9.0.7-9.0.7~ubuntu24.04.1*%
%TF.CreationDate,2026-03-04T01:17:44+00:00*%
%TF.ProjectId,mission.control,6d697373-696f-46e2-9e63-6f6e74726f6c,rev?*%
%TF.SameCoordinates,Original*%
%TF.FileFunction,Legend,Bot*%
%TF.FilePolarity,Positive*%
%FSLAX46Y46*%
G04 Gerber Fmt 4.6, Leading zero omitted, Abs format (unit mm)*
G04 Created by KiCad (PCBNEW 9.0.7-9.0.7~ubuntu24.04.1) date 2026-03-04 01:17:44*
%MOMM*%
%LPD*%
G01*
G04 APERTURE LIST*
%ADD10C,0.000000*%
G04 APERTURE END LIST*
D10*
%TO.C,G\u002A\u002A\u002A*%
G36*
X172116726Y-98892174D02*
G01*
X172485772Y-99084403D01*
X172758418Y-99399907D01*
X172813679Y-99565824D01*
X172862754Y-99873311D01*
X172883245Y-100229301D01*
X172882589Y-100291846D01*
X172874877Y-100557661D01*
X172859163Y-100988219D01*
X172836189Y-101567534D01*
X172806681Y-102279627D01*
X172771384Y-103108532D01*
X172731021Y-104038255D01*
X172686336Y-105052820D01*
X172638055Y-106136257D01*
X172586928Y-107272590D01*
X172533681Y-108445832D01*
X172479047Y-109640015D01*
X172423770Y-110839147D01*
X172368576Y-112027258D01*
X172314201Y-113188376D01*
X172261389Y-114306506D01*
X172210869Y-115365686D01*
X172163382Y-116349933D01*
X172119652Y-117243263D01*
X172080427Y-118029706D01*
X172046434Y-118693277D01*
X172018408Y-119218008D01*
X171997091Y-119587914D01*
X171983208Y-119787012D01*
X171974708Y-119878841D01*
X171941028Y-120160937D01*
X171892528Y-120308900D01*
X171805062Y-120365973D01*
X171654456Y-120375393D01*
X171641609Y-120375325D01*
X171439494Y-120335992D01*
X171379365Y-120210642D01*
X171379351Y-120209211D01*
X171374162Y-120085243D01*
X171360033Y-119786264D01*
X171337598Y-119324637D01*
X171307474Y-118712749D01*
X171270279Y-117962973D01*
X171226626Y-117087687D01*
X171177135Y-116099273D01*
X171122422Y-115010096D01*
X171063116Y-113832542D01*
X170999820Y-112578986D01*
X170933168Y-111261799D01*
X170863770Y-109893356D01*
X170840566Y-109436065D01*
X170761602Y-107874658D01*
X170692026Y-106487794D01*
X170631454Y-105264856D01*
X170579517Y-104195271D01*
X170535828Y-103268423D01*
X170500015Y-102473713D01*
X170471706Y-101800558D01*
X170450511Y-101238355D01*
X170436063Y-100776491D01*
X170427976Y-100404393D01*
X170425878Y-100111446D01*
X170429388Y-99887059D01*
X170438120Y-99720626D01*
X170451723Y-99601561D01*
X170469783Y-99519260D01*
X170491950Y-99463127D01*
X170573147Y-99330919D01*
X170879495Y-99042583D01*
X171268756Y-98872513D01*
X171696111Y-98821963D01*
X172116726Y-98892174D01*
G37*
G36*
X188237823Y-105263172D02*
G01*
X188165512Y-105963128D01*
X188084345Y-106614111D01*
X187994197Y-107180547D01*
X187886259Y-107717080D01*
X187751718Y-108278321D01*
X187648681Y-108663668D01*
X187093677Y-110312407D01*
X186381519Y-111875680D01*
X185522730Y-113344550D01*
X184527840Y-114710088D01*
X183407383Y-115963369D01*
X182171882Y-117095460D01*
X180831883Y-118097435D01*
X179397907Y-118960363D01*
X177880483Y-119675310D01*
X176290148Y-120233362D01*
X174637427Y-120625575D01*
X172932855Y-120843033D01*
X172677796Y-120861776D01*
X172283467Y-120890653D01*
X171974932Y-120913111D01*
X171803164Y-120925445D01*
X171627294Y-120929330D01*
X171232269Y-120914896D01*
X170725811Y-120879777D01*
X170153151Y-120828537D01*
X169559554Y-120765716D01*
X168990251Y-120695875D01*
X168490502Y-120623566D01*
X168105542Y-120553347D01*
X167381758Y-120378244D01*
X166091244Y-119981566D01*
X164824205Y-119490468D01*
X163634849Y-118926919D01*
X162577389Y-118312895D01*
X162287725Y-118115118D01*
X161866665Y-117809272D01*
X161410300Y-117463092D01*
X160976996Y-117120084D01*
X160390662Y-116621283D01*
X159139932Y-115383644D01*
X158037266Y-114031940D01*
X157086348Y-112572223D01*
X156290863Y-111010524D01*
X155654478Y-109352881D01*
X155180890Y-107605349D01*
X155152043Y-107460556D01*
X155072029Y-106906867D01*
X155006273Y-106224048D01*
X154956239Y-105456435D01*
X154923396Y-104648382D01*
X154914350Y-104136141D01*
X155345088Y-104136141D01*
X155346295Y-104751387D01*
X155356347Y-105345546D01*
X155378652Y-105833274D01*
X155416276Y-106258937D01*
X155472274Y-106666912D01*
X155549724Y-107101567D01*
X155628831Y-107481281D01*
X155895062Y-108516137D01*
X156231962Y-109574445D01*
X156615783Y-110585628D01*
X157022784Y-111479101D01*
X157593470Y-112512086D01*
X158557264Y-113941093D01*
X159657652Y-115252726D01*
X160882715Y-116437956D01*
X162220543Y-117487738D01*
X163659219Y-118393045D01*
X165186825Y-119144841D01*
X166791454Y-119734100D01*
X168461178Y-120151768D01*
X168513987Y-120161793D01*
X169182072Y-120263157D01*
X169963190Y-120344923D01*
X170797798Y-120403729D01*
X171626338Y-120436221D01*
X172389250Y-120439048D01*
X173026990Y-120408849D01*
X173218134Y-120390486D01*
X174297956Y-120227098D01*
X175452117Y-119964664D01*
X176620820Y-119620422D01*
X177744282Y-119211612D01*
X178762695Y-118755466D01*
X178881227Y-118695323D01*
X180156237Y-117956849D01*
X181396763Y-117076860D01*
X182572044Y-116083422D01*
X183651336Y-115004585D01*
X184603866Y-113868401D01*
X185398876Y-112702933D01*
X185662283Y-112252359D01*
X186431723Y-110723965D01*
X187021036Y-109169040D01*
X187435216Y-107569428D01*
X187679288Y-105906995D01*
X187758260Y-104163606D01*
X187756071Y-103822971D01*
X187719116Y-102773913D01*
X187629154Y-101829061D01*
X187476502Y-100926994D01*
X187251451Y-100006281D01*
X186944324Y-99005477D01*
X186348066Y-97478592D01*
X185561462Y-95959059D01*
X184616421Y-94526952D01*
X183524047Y-93199016D01*
X182295439Y-91992006D01*
X181480218Y-91322152D01*
X180165223Y-90415810D01*
X178762497Y-89636879D01*
X177298557Y-88996447D01*
X175799887Y-88505617D01*
X174292985Y-88175475D01*
X172804337Y-88017122D01*
X172393149Y-87998803D01*
X172042308Y-87988508D01*
X171826076Y-87994361D01*
X171715195Y-88019639D01*
X171680384Y-88067634D01*
X171692385Y-88141609D01*
X171701538Y-88178744D01*
X171746180Y-88397293D01*
X171819515Y-88783110D01*
X171919164Y-89323056D01*
X172042751Y-90003979D01*
X172187903Y-90812764D01*
X172352244Y-91736254D01*
X172533392Y-92761314D01*
X172728986Y-93874816D01*
X172959830Y-95192783D01*
X173958355Y-97053733D01*
X174102333Y-97322667D01*
X174376142Y-97837751D01*
X174611191Y-98284693D01*
X174794777Y-98639130D01*
X174914233Y-98876679D01*
X174956877Y-98972961D01*
X174956856Y-98973512D01*
X174892779Y-98942667D01*
X174728697Y-98809908D01*
X174499546Y-98603463D01*
X173853695Y-98101822D01*
X173113782Y-97742490D01*
X172296640Y-97549378D01*
X171388788Y-97517793D01*
X171144675Y-97535943D01*
X170332413Y-97697845D01*
X169578519Y-98021800D01*
X168850010Y-98520849D01*
X168823696Y-98542171D01*
X168586609Y-98726257D01*
X168427406Y-98835447D01*
X168379308Y-98846741D01*
X168389479Y-98825465D01*
X168472437Y-98664929D01*
X168625969Y-98373464D01*
X168836607Y-97976483D01*
X169090885Y-97499393D01*
X169375335Y-96967601D01*
X170336560Y-95173575D01*
X170581134Y-93771076D01*
X170586253Y-93741730D01*
X170682789Y-93191570D01*
X170802153Y-92515865D01*
X170934364Y-91770822D01*
X171069464Y-91012624D01*
X171197479Y-90297472D01*
X171247834Y-90015716D01*
X171350664Y-89431982D01*
X171438945Y-88919506D01*
X171507890Y-88506794D01*
X171552680Y-88222328D01*
X171568540Y-88094604D01*
X171568132Y-88087052D01*
X171531199Y-88036408D01*
X171415115Y-88006114D01*
X171192730Y-87994561D01*
X170836902Y-88000166D01*
X170320454Y-88021337D01*
X170057353Y-88036452D01*
X168531224Y-88229545D01*
X167003499Y-88594717D01*
X165497506Y-89120083D01*
X164036588Y-89793744D01*
X162644076Y-90603814D01*
X161343300Y-91538416D01*
X160157598Y-92585641D01*
X159110308Y-93733606D01*
X158279561Y-94831739D01*
X157361051Y-96289434D01*
X156613399Y-97802735D01*
X156027483Y-99390662D01*
X155594203Y-101072241D01*
X155557062Y-101253964D01*
X155478511Y-101673973D01*
X155422097Y-102058448D01*
X155384187Y-102452154D01*
X155361139Y-102899838D01*
X155349316Y-103446243D01*
X155345088Y-104136141D01*
X154914350Y-104136141D01*
X154909194Y-103844215D01*
X154915097Y-103088263D01*
X154942561Y-102424873D01*
X154993046Y-101898373D01*
X155176837Y-100868879D01*
X155485839Y-99623037D01*
X155875973Y-98393495D01*
X156323236Y-97263874D01*
X156369225Y-97164020D01*
X156520433Y-96858380D01*
X156712381Y-96490130D01*
X156923937Y-96097601D01*
X157133946Y-95719145D01*
X157321277Y-95393093D01*
X157464777Y-95157788D01*
X157543296Y-95051575D01*
X157607493Y-94975921D01*
X157714948Y-94799074D01*
X157835514Y-94596396D01*
X158140838Y-94173112D01*
X158549426Y-93675515D01*
X159034662Y-93132002D01*
X159569926Y-92571010D01*
X160128597Y-92020960D01*
X160684062Y-91510280D01*
X161209696Y-91067388D01*
X162514957Y-90134784D01*
X163938359Y-89317351D01*
X165434437Y-88639583D01*
X166969095Y-88116906D01*
X168508249Y-87764743D01*
X168753984Y-87723746D01*
X169988316Y-87556222D01*
X171127754Y-87476580D01*
X172232653Y-87484820D01*
X173363394Y-87580945D01*
X174580308Y-87764969D01*
X174678915Y-87782846D01*
X176353225Y-88186007D01*
X177967709Y-88761685D01*
X179510095Y-89500575D01*
X180968092Y-90393379D01*
X182329403Y-91430776D01*
X183581744Y-92603472D01*
X184712836Y-93902150D01*
X185710383Y-95317512D01*
X186562098Y-96840244D01*
X186771275Y-97284953D01*
X187280970Y-98569111D01*
X187695318Y-99925570D01*
X188006250Y-101313775D01*
X188205696Y-102693148D01*
X188285568Y-104023141D01*
X188280165Y-104163606D01*
X188237823Y-105263172D01*
G37*
%TD*%
M02*
