%TF.GenerationSoftware,KiCad,Pcbnew,9.0.7-9.0.7~ubuntu24.04.1*%
%TF.CreationDate,2026-03-04T01:17:43+00:00*%
%TF.ProjectId,mission.control,6d697373-696f-46e2-9e63-6f6e74726f6c,rev?*%
%TF.SameCoordinates,Original*%
%TF.FileFunction,Copper,L1,Top*%
%TF.FilePolarity,Positive*%
%FSLAX46Y46*%
G04 Gerber Fmt 4.6, Leading zero omitted, Abs format (unit mm)*
G04 Created by KiCad (PCBNEW 9.0.7-9.0.7~ubuntu24.04.1) date 2026-03-04 01:17:43*
%MOMM*%
%LPD*%
G01*
G04 APERTURE LIST*
G04 Aperture macros list*
%AMRoundRect*
0 Rectangle with rounded corners*
0 $1 Rounding radius*
0 $2 $3 $4 $5 $6 $7 $8 $9 X,Y pos of 4 corners*
0 Add a 4 corners polygon primitive as box body*
4,1,4,$2,$3,$4,$5,$6,$7,$8,$9,$2,$3,0*
0 Add four circle primitives for the rounded corners*
1,1,$1+$1,$2,$3*
1,1,$1+$1,$4,$5*
1,1,$1+$1,$6,$7*
1,1,$1+$1,$8,$9*
0 Add four rect primitives between the rounded corners*
20,1,$1+$1,$2,$3,$4,$5,0*
20,1,$1+$1,$4,$5,$6,$7,0*
20,1,$1+$1,$6,$7,$8,$9,0*
20,1,$1+$1,$8,$9,$2,$3,0*%
%AMFreePoly0*
4,1,37,0.800000,0.796148,0.878414,0.796148,1.032228,0.765552,1.177117,0.705537,1.307515,0.618408,1.418408,0.507515,1.505537,0.377117,1.565552,0.232228,1.596148,0.078414,1.596148,-0.078414,1.565552,-0.232228,1.505537,-0.377117,1.418408,-0.507515,1.307515,-0.618408,1.177117,-0.705537,1.032228,-0.765552,0.878414,-0.796148,0.800000,-0.796148,0.800000,-0.800000,-1.400000,-0.800000,
-1.403843,-0.796157,-1.439018,-0.796157,-1.511114,-0.766294,-1.566294,-0.711114,-1.596157,-0.639018,-1.596157,-0.603843,-1.600000,-0.600000,-1.600000,0.600000,-1.596157,0.603843,-1.596157,0.639018,-1.566294,0.711114,-1.511114,0.766294,-1.439018,0.796157,-1.403843,0.796157,-1.400000,0.800000,0.800000,0.800000,0.800000,0.796148,0.800000,0.796148,$1*%
%AMFreePoly1*
4,1,37,1.403843,0.796157,1.439018,0.796157,1.511114,0.766294,1.566294,0.711114,1.596157,0.639018,1.596157,0.603843,1.600000,0.600000,1.600000,-0.600000,1.596157,-0.603843,1.596157,-0.639018,1.566294,-0.711114,1.511114,-0.766294,1.439018,-0.796157,1.403843,-0.796157,1.400000,-0.800000,-0.800000,-0.800000,-0.800000,-0.796148,-0.878414,-0.796148,-1.032228,-0.765552,-1.177117,-0.705537,
-1.307515,-0.618408,-1.418408,-0.507515,-1.505537,-0.377117,-1.565552,-0.232228,-1.596148,-0.078414,-1.596148,0.078414,-1.565552,0.232228,-1.505537,0.377117,-1.418408,0.507515,-1.307515,0.618408,-1.177117,0.705537,-1.032228,0.765552,-0.878414,0.796148,-0.800000,0.796148,-0.800000,0.800000,1.400000,0.800000,1.403843,0.796157,1.403843,0.796157,$1*%
%AMFreePoly2*
4,1,37,0.603843,0.796157,0.639018,0.796157,0.711114,0.766294,0.766294,0.711114,0.796157,0.639018,0.796157,0.603843,0.800000,0.600000,0.800000,-0.600000,0.796157,-0.603843,0.796157,-0.639018,0.766294,-0.711114,0.711114,-0.766294,0.639018,-0.796157,0.603843,-0.796157,0.600000,-0.800000,0.000000,-0.800000,0.000000,-0.796148,-0.078414,-0.796148,-0.232228,-0.765552,-0.377117,-0.705537,
-0.507515,-0.618408,-0.618408,-0.507515,-0.705537,-0.377117,-0.765552,-0.232228,-0.796148,-0.078414,-0.796148,0.078414,-0.765552,0.232228,-0.705537,0.377117,-0.618408,0.507515,-0.507515,0.618408,-0.377117,0.705537,-0.232228,0.765552,-0.078414,0.796148,0.000000,0.796148,0.000000,0.800000,0.600000,0.800000,0.603843,0.796157,0.603843,0.796157,$1*%
%AMFreePoly3*
4,1,37,0.000000,0.796148,0.078414,0.796148,0.232228,0.765552,0.377117,0.705537,0.507515,0.618408,0.618408,0.507515,0.705537,0.377117,0.765552,0.232228,0.796148,0.078414,0.796148,-0.078414,0.765552,-0.232228,0.705537,-0.377117,0.618408,-0.507515,0.507515,-0.618408,0.377117,-0.705537,0.232228,-0.765552,0.078414,-0.796148,0.000000,-0.796148,0.000000,-0.800000,-0.600000,-0.800000,
-0.603843,-0.796157,-0.639018,-0.796157,-0.711114,-0.766294,-0.766294,-0.711114,-0.796157,-0.639018,-0.796157,-0.603843,-0.800000,-0.600000,-0.800000,0.600000,-0.796157,0.603843,-0.796157,0.639018,-0.766294,0.711114,-0.711114,0.766294,-0.639018,0.796157,-0.603843,0.796157,-0.600000,0.800000,0.000000,0.800000,0.000000,0.796148,0.000000,0.796148,$1*%
G04 Aperture macros list end*
%TA.AperFunction,ComponentPad*%
%ADD10C,2.250000*%
%TD*%
%TA.AperFunction,ComponentPad*%
%ADD11R,2.000000X2.000000*%
%TD*%
%TA.AperFunction,ComponentPad*%
%ADD12C,2.000000*%
%TD*%
%TA.AperFunction,ComponentPad*%
%ADD13R,1.530000X1.530000*%
%TD*%
%TA.AperFunction,ComponentPad*%
%ADD14C,1.530000*%
%TD*%
%TA.AperFunction,ComponentPad*%
%ADD15RoundRect,0.250000X-0.750000X0.750000X-0.750000X-0.750000X0.750000X-0.750000X0.750000X0.750000X0*%
%TD*%
%TA.AperFunction,ComponentPad*%
%ADD16R,1.700000X1.700000*%
%TD*%
%TA.AperFunction,ComponentPad*%
%ADD17C,1.700000*%
%TD*%
%TA.AperFunction,SMDPad,CuDef*%
%ADD18RoundRect,0.135000X0.185000X-0.135000X0.185000X0.135000X-0.185000X0.135000X-0.185000X-0.135000X0*%
%TD*%
%TA.AperFunction,SMDPad,CuDef*%
%ADD19RoundRect,0.135000X-0.135000X-0.185000X0.135000X-0.185000X0.135000X0.185000X-0.135000X0.185000X0*%
%TD*%
%TA.AperFunction,SMDPad,CuDef*%
%ADD20FreePoly0,0.000000*%
%TD*%
%TA.AperFunction,ComponentPad*%
%ADD21RoundRect,0.200000X-0.600000X-0.600000X0.600000X-0.600000X0.600000X0.600000X-0.600000X0.600000X0*%
%TD*%
%TA.AperFunction,SMDPad,CuDef*%
%ADD22RoundRect,0.800000X-0.800000X-0.000010X0.800000X-0.000010X0.800000X0.000010X-0.800000X0.000010X0*%
%TD*%
%TA.AperFunction,ComponentPad*%
%ADD23C,1.600000*%
%TD*%
%TA.AperFunction,SMDPad,CuDef*%
%ADD24FreePoly1,0.000000*%
%TD*%
%TA.AperFunction,ComponentPad*%
%ADD25FreePoly2,0.000000*%
%TD*%
%TA.AperFunction,ComponentPad*%
%ADD26FreePoly3,0.000000*%
%TD*%
%TA.AperFunction,ViaPad*%
%ADD27C,0.700000*%
%TD*%
%TA.AperFunction,Conductor*%
%ADD28C,0.500000*%
%TD*%
%TA.AperFunction,Conductor*%
%ADD29C,0.130000*%
%TD*%
%TA.AperFunction,Conductor*%
%ADD30C,0.200000*%
%TD*%
%TA.AperFunction,Conductor*%
%ADD31C,1.250000*%
%TD*%
%TA.AperFunction,Conductor*%
%ADD32C,1.500000*%
%TD*%
G04 APERTURE END LIST*
D10*
%TO.P,U3,1,INT*%
%TO.N,/CAN_INT*%
X162450000Y-124350000D03*
%TO.P,U3,2,SCK*%
%TO.N,/SPI0_SCK*%
X165100000Y-124350000D03*
%TO.P,U3,3,SI*%
%TO.N,/SPI0_MOSI*%
X167750000Y-124350000D03*
%TO.P,U3,4,SO*%
%TO.N,/SPI0_MISO*%
X170350000Y-124350000D03*
%TO.P,U3,5,CS*%
%TO.N,/CAN_CS*%
X173100000Y-124350000D03*
%TO.P,U3,6,GND*%
%TO.N,GND*%
X175750000Y-124350000D03*
%TO.P,U3,7,VCC1*%
%TO.N,+5V*%
X178500000Y-124350000D03*
%TO.P,U3,8,VCC*%
X181100000Y-124350000D03*
%TD*%
D11*
%TO.P,BZ1,1,+*%
%TO.N,Net-(BZ1-+)*%
X179700000Y-75600000D03*
D12*
%TO.P,BZ1,2,-*%
%TO.N,GND*%
X184700000Y-75600000D03*
%TD*%
D13*
%TO.P,U2,1,GND*%
%TO.N,GND*%
X115710000Y-141260000D03*
D14*
%TO.P,U2,2,A*%
%TO.N,/RS_A*%
X118250000Y-141260000D03*
%TO.P,U2,3,B*%
%TO.N,/RS_B*%
X120790000Y-141260000D03*
%TO.P,U2,4,VCC*%
%TO.N,+5V*%
X123330000Y-141260000D03*
%TO.P,U2,5,RO*%
%TO.N,/RS_RO*%
X123330000Y-100040000D03*
%TO.P,U2,6,RE*%
%TO.N,/RS_TXEN*%
X120790000Y-100040000D03*
%TO.P,U2,7,DE*%
X118250000Y-100040000D03*
%TO.P,U2,8,DI*%
%TO.N,/RS_DI*%
X115710000Y-100040000D03*
%TD*%
D15*
%TO.P,Led,1,Pin_1*%
%TO.N,Net-(Led1-Pin_1)*%
X113000000Y-70210000D03*
D12*
%TO.P,Led,2,Pin_2*%
%TO.N,GND*%
X113000000Y-72750000D03*
%TD*%
D16*
%TO.P,U1,1,VCC*%
%TO.N,+3.3V*%
X152200000Y-144140000D03*
D17*
%TO.P,U1,2,GND*%
%TO.N,GND*%
X152200000Y-141600000D03*
%TO.P,U1,3,MISO_TX*%
%TO.N,/SPI0_MISO*%
X152200000Y-139060000D03*
%TO.P,U1,4,MOSI_RX*%
%TO.N,/SPI0_MOSI*%
X152200000Y-136520000D03*
%TO.P,U1,5,SCK_RTSN*%
%TO.N,/SPI0_SCK*%
X152200000Y-133980000D03*
%TO.P,U1,6,NSS_CTS*%
%TO.N,/RADIO_CS*%
X152200000Y-131440000D03*
%TO.P,U1,7,GND*%
%TO.N,GND*%
X152200000Y-128900000D03*
%TO.P,U1,8,RX_EN*%
%TO.N,/RADIO_RX_EN*%
X152200000Y-126360000D03*
%TO.P,U1,9,TX_EN*%
%TO.N,/RADIO_TX_EN*%
X129400000Y-126360000D03*
%TO.P,U1,10,GND*%
%TO.N,GND*%
X129400000Y-128900000D03*
%TO.P,U1,11,NRESET*%
%TO.N,/RADIO_NRESET*%
X129400000Y-131440000D03*
%TO.P,U1,12,BUSY*%
%TO.N,/RADIO_BUSY*%
X129400000Y-133980000D03*
%TO.P,U1,13,DIO1*%
%TO.N,/RADIO_DIO1*%
X129400000Y-136520000D03*
%TO.P,U1,14,DIO2*%
%TO.N,unconnected-(U1-DIO2-Pad14)*%
X129400000Y-139060000D03*
%TO.P,U1,15,DIO3*%
%TO.N,unconnected-(U1-DIO3-Pad15)*%
X129400000Y-141600000D03*
D16*
%TO.P,U1,16,GND*%
%TO.N,GND*%
X129400000Y-144140000D03*
%TD*%
D18*
%TO.P,R6,1*%
%TO.N,/RS_TXEN*%
X110520000Y-104160000D03*
%TO.P,R6,2*%
%TO.N,GND*%
X110520000Y-103140000D03*
%TD*%
D15*
%TO.P,AbortBtn,1,Pin_1*%
%TO.N,+3.3V*%
X113000000Y-85376667D03*
D12*
%TO.P,AbortBtn,2,Pin_2*%
%TO.N,/ABORT_SIGNAL*%
X113000000Y-87916667D03*
%TD*%
D19*
%TO.P,R1,1*%
%TO.N,Net-(Led1-Pin_1)*%
X120740000Y-71485000D03*
%TO.P,R1,2*%
%TO.N,/LED_SIGNAL*%
X121760000Y-71485000D03*
%TD*%
D15*
%TO.P,ArmKey,1,Pin_1*%
%TO.N,+3.3V*%
X113000000Y-77793333D03*
D12*
%TO.P,ArmKey,2,Pin_2*%
%TO.N,/ARM_SIGNAL*%
X113000000Y-80333333D03*
%TD*%
D20*
%TO.P,A1,1,GPIO0*%
%TO.N,/CAN_INT*%
X130510000Y-70600000D03*
D21*
X131310000Y-70600000D03*
D22*
%TO.P,A1,2,GPIO1*%
%TO.N,/CAN_CS*%
X130510000Y-73140000D03*
D23*
X131310000Y-73140000D03*
D24*
%TO.P,A1,3,GND*%
%TO.N,GND*%
X130510000Y-75680000D03*
D25*
X131310000Y-75680000D03*
D22*
%TO.P,A1,4,GPIO2*%
%TO.N,/BUZZER_SIGNAL*%
X130510000Y-78220000D03*
D23*
X131310000Y-78220000D03*
D22*
%TO.P,A1,5,GPIO3*%
%TO.N,/RADIO_NRESET*%
X130510000Y-80760000D03*
D23*
X131310000Y-80760000D03*
D22*
%TO.P,A1,6,GPIO4*%
%TO.N,unconnected-(A1-GPIO4-Pad6)*%
X130510000Y-83300000D03*
D23*
X131310000Y-83300000D03*
D22*
%TO.P,A1,7,GPIO5*%
%TO.N,/RADIO_TX_EN*%
X130510000Y-85840000D03*
D23*
X131310000Y-85840000D03*
D24*
%TO.P,A1,8,GND*%
%TO.N,GND*%
X130510000Y-88380000D03*
D25*
X131310000Y-88380000D03*
D22*
%TO.P,A1,9,GPIO6*%
%TO.N,/RADIO_RX_EN*%
X130510000Y-90920000D03*
D23*
X131310000Y-90920000D03*
D22*
%TO.P,A1,10,GPIO7*%
%TO.N,unconnected-(A1-GPIO7-Pad10)*%
X130510000Y-93460000D03*
D23*
X131310000Y-93460000D03*
D22*
%TO.P,A1,11,GPIO8*%
%TO.N,/LED_SIGNAL*%
X130510000Y-96000000D03*
D23*
X131310000Y-96000000D03*
D22*
%TO.P,A1,12,GPIO9*%
%TO.N,/ARM_SIGNAL*%
X130510000Y-98540000D03*
D23*
X131310000Y-98540000D03*
D24*
%TO.P,A1,13,GND*%
%TO.N,GND*%
X130510000Y-101080000D03*
D25*
X131310000Y-101080000D03*
D22*
%TO.P,A1,14,GPIO10*%
%TO.N,/ABORT_SIGNAL*%
X130510000Y-103620000D03*
D23*
X131310000Y-103620000D03*
D22*
%TO.P,A1,15,GPIO11*%
%TO.N,/FIRE_SIGNAL*%
X130510000Y-106160000D03*
D23*
X131310000Y-106160000D03*
D22*
%TO.P,A1,16,GPIO12*%
%TO.N,/RS_DI*%
X130510000Y-108700000D03*
D23*
X131310000Y-108700000D03*
D22*
%TO.P,A1,17,GPIO13*%
%TO.N,/RS_RO*%
X130510000Y-111240000D03*
D23*
X131310000Y-111240000D03*
D24*
%TO.P,A1,18,GND*%
%TO.N,GND*%
X130510000Y-113780000D03*
D25*
X131310000Y-113780000D03*
D22*
%TO.P,A1,19,GPIO14*%
%TO.N,/RADIO_DIO1*%
X130510000Y-116320000D03*
D23*
X131310000Y-116320000D03*
D22*
%TO.P,A1,20,GPIO15*%
%TO.N,/RADIO_BUSY*%
X130510000Y-118860000D03*
D23*
X131310000Y-118860000D03*
%TO.P,A1,21,GPIO16*%
%TO.N,/SPI0_MISO*%
X149090000Y-118860000D03*
D22*
X149890000Y-118860000D03*
D23*
%TO.P,A1,22,GPIO17*%
%TO.N,/RADIO_CS*%
X149090000Y-116320000D03*
D22*
X149890000Y-116320000D03*
D26*
%TO.P,A1,23,GND*%
%TO.N,GND*%
X149090000Y-113780000D03*
D20*
X149890000Y-113780000D03*
D23*
%TO.P,A1,24,GPIO18*%
%TO.N,/SPI0_SCK*%
X149090000Y-111240000D03*
D22*
X149890000Y-111240000D03*
D23*
%TO.P,A1,25,GPIO19*%
%TO.N,/SPI0_MOSI*%
X149090000Y-108700000D03*
D22*
X149890000Y-108700000D03*
D23*
%TO.P,A1,26,GPIO20*%
%TO.N,unconnected-(A1-GPIO20-Pad26)*%
X149090000Y-106160000D03*
D22*
X149890000Y-106160000D03*
D23*
%TO.P,A1,27,GPIO21*%
%TO.N,unconnected-(A1-GPIO21-Pad27)*%
X149090000Y-103620000D03*
D22*
X149890000Y-103620000D03*
D26*
%TO.P,A1,28,GND*%
%TO.N,GND*%
X149090000Y-101080000D03*
D20*
X149890000Y-101080000D03*
D23*
%TO.P,A1,29,GPIO22*%
%TO.N,/RS_TXEN*%
X149090000Y-98540000D03*
D22*
X149890000Y-98540000D03*
D23*
%TO.P,A1,30,RUN*%
%TO.N,unconnected-(A1-RUN-Pad30)*%
X149090000Y-96000000D03*
D22*
X149890000Y-96000000D03*
D23*
%TO.P,A1,31,GPIO26_ADC0*%
%TO.N,unconnected-(A1-GPIO26_ADC0-Pad31)*%
X149090000Y-93460000D03*
D22*
X149890000Y-93460000D03*
D23*
%TO.P,A1,32,GPIO27_ADC1*%
%TO.N,unconnected-(A1-GPIO27_ADC1-Pad32)*%
X149090000Y-90920000D03*
D22*
X149890000Y-90920000D03*
D26*
%TO.P,A1,33,AGND*%
%TO.N,unconnected-(A1-AGND-Pad33)*%
X149090000Y-88380000D03*
D20*
X149890000Y-88380000D03*
D23*
%TO.P,A1,34,GPIO28_ADC2*%
%TO.N,unconnected-(A1-GPIO28_ADC2-Pad34)*%
X149090000Y-85840000D03*
D22*
X149890000Y-85840000D03*
D23*
%TO.P,A1,35,ADC_VREF*%
%TO.N,unconnected-(A1-ADC_VREF-Pad35)*%
X149090000Y-83300000D03*
D22*
X149890000Y-83300000D03*
D23*
%TO.P,A1,36,3V3*%
%TO.N,+3.3V*%
X149090000Y-80760000D03*
D22*
X149890000Y-80760000D03*
D23*
%TO.P,A1,37,3V3_EN*%
%TO.N,unconnected-(A1-3V3_EN-Pad37)*%
X149090000Y-78220000D03*
D22*
X149890000Y-78220000D03*
D26*
%TO.P,A1,38,GND*%
%TO.N,GND*%
X149090000Y-75680000D03*
D20*
X149890000Y-75680000D03*
D23*
%TO.P,A1,39,VSYS*%
%TO.N,unconnected-(A1-VSYS-Pad39)*%
X149090000Y-73140000D03*
D22*
X149890000Y-73140000D03*
D23*
%TO.P,A1,40,VBUS*%
%TO.N,+5V*%
X149090000Y-70600000D03*
D22*
X149890000Y-70600000D03*
%TD*%
D19*
%TO.P,R3,1*%
%TO.N,GND*%
X120740000Y-93500000D03*
%TO.P,R3,2*%
%TO.N,/FIRE_SIGNAL*%
X121760000Y-93500000D03*
%TD*%
%TO.P,R4,1*%
%TO.N,GND*%
X120740000Y-86161667D03*
%TO.P,R4,2*%
%TO.N,/ABORT_SIGNAL*%
X121760000Y-86161667D03*
%TD*%
%TO.P,R2,1*%
%TO.N,/BUZZER_SIGNAL*%
X174820000Y-70010000D03*
%TO.P,R2,2*%
%TO.N,Net-(BZ1-+)*%
X175840000Y-70010000D03*
%TD*%
%TO.P,R5,1*%
%TO.N,GND*%
X120740000Y-78823333D03*
%TO.P,R5,2*%
%TO.N,/ARM_SIGNAL*%
X121760000Y-78823333D03*
%TD*%
D15*
%TO.P,FireBtn,1,Pin_1*%
%TO.N,+3.3V*%
X113000000Y-92960000D03*
D12*
%TO.P,FireBtn,2,Pin_2*%
%TO.N,/FIRE_SIGNAL*%
X113000000Y-95500000D03*
%TD*%
D27*
%TO.N,GND*%
X119750000Y-92750000D03*
X111000000Y-102000000D03*
X119750000Y-78250000D03*
X119750000Y-85500000D03*
%TD*%
D28*
%TO.N,/BUZZER_SIGNAL*%
X169790000Y-70010000D02*
X174820000Y-70010000D01*
X127350000Y-69000000D02*
X127350000Y-75500000D01*
X127850000Y-68500000D02*
X127350000Y-69000000D01*
X169780000Y-70000000D02*
X169790000Y-70010000D01*
X158760000Y-68500000D02*
X160260000Y-70000000D01*
X160260000Y-70000000D02*
X169780000Y-70000000D01*
X158760000Y-68500000D02*
X127850000Y-68500000D01*
X130070000Y-78220000D02*
X130510000Y-78220000D01*
X127350000Y-75500000D02*
X130070000Y-78220000D01*
D29*
%TO.N,/SPI0_MISO*%
X149889999Y-119659999D02*
X149090000Y-118860000D01*
D28*
X167800000Y-126900000D02*
X157930000Y-126900000D01*
X154900000Y-136360000D02*
X154900000Y-123870000D01*
X152200000Y-139060000D02*
X154900000Y-136360000D01*
X170350000Y-124350000D02*
X167800000Y-126900000D01*
X157930000Y-126900000D02*
X149890000Y-118860000D01*
X154900000Y-123870000D02*
X149890000Y-118860000D01*
%TO.N,/SPI0_SCK*%
X152200000Y-133980000D02*
X146300000Y-128080000D01*
D30*
X150370000Y-111240000D02*
X149890000Y-111240000D01*
D28*
X146300000Y-128080000D02*
X146300000Y-113230000D01*
X148290000Y-111240000D02*
X149890000Y-111240000D01*
X146300000Y-113230000D02*
X148290000Y-111240000D01*
X151990000Y-111240000D02*
X149890000Y-111240000D01*
X150221370Y-111240000D02*
X149090000Y-111240000D01*
X165100000Y-124350000D02*
X151990000Y-111240000D01*
%TO.N,/RADIO_BUSY*%
X129400000Y-133980000D02*
X127500000Y-132080000D01*
X127500000Y-121870000D02*
X130510000Y-118860000D01*
X127500000Y-132080000D02*
X127500000Y-121870000D01*
%TO.N,/LED_SIGNAL*%
X128504000Y-78229000D02*
X128504000Y-93994000D01*
X128504000Y-93994000D02*
X130510000Y-96000000D01*
X121760000Y-71485000D02*
X128504000Y-78229000D01*
%TO.N,/ABORT_SIGNAL*%
X121760000Y-86161667D02*
X121760000Y-87073334D01*
X121760000Y-86161667D02*
X125363667Y-86161667D01*
X127202000Y-88000000D02*
X127202000Y-100312000D01*
X127202000Y-100312000D02*
X130510000Y-103620000D01*
X125363667Y-86161667D02*
X127202000Y-88000000D01*
X121760000Y-87073334D02*
X120916667Y-87916667D01*
X120916667Y-87916667D02*
X113000000Y-87916667D01*
%TO.N,Net-(Led1-Pin_1)*%
X113000000Y-70210000D02*
X119465000Y-70210000D01*
X120740000Y-71485000D02*
X119465000Y-70210000D01*
%TO.N,/SPI0_MOSI*%
X145000000Y-112790000D02*
X149090000Y-108700000D01*
X145000000Y-129320000D02*
X145000000Y-112790000D01*
X152200000Y-136520000D02*
X145000000Y-129320000D01*
X150221370Y-108700000D02*
X149090000Y-108700000D01*
X167750000Y-124350000D02*
X152100000Y-108700000D01*
X152100000Y-108700000D02*
X149890000Y-108700000D01*
D30*
X150480000Y-108700000D02*
X149890000Y-108700000D01*
D28*
%TO.N,/RADIO_CS*%
X147400000Y-118010000D02*
X149090000Y-116320000D01*
X152200000Y-131440000D02*
X147400000Y-126640000D01*
X147400000Y-126640000D02*
X147400000Y-118010000D01*
%TO.N,Net-(BZ1-+)*%
X179700000Y-75600000D02*
X179700000Y-73870000D01*
X179700000Y-73870000D02*
X175840000Y-70010000D01*
%TO.N,/RS_TXEN*%
X111020000Y-106160000D02*
X110520000Y-105660000D01*
X120790000Y-100040000D02*
X118250000Y-100040000D01*
X112630000Y-106160000D02*
X111020000Y-106160000D01*
X110520000Y-105660000D02*
X110520000Y-104160000D01*
X118250000Y-100540000D02*
X112630000Y-106160000D01*
%TO.N,/RADIO_NRESET*%
X129400000Y-131440000D02*
X136400000Y-124440000D01*
X136400000Y-84150000D02*
X133000000Y-80750000D01*
X132990000Y-80760000D02*
X131310000Y-80760000D01*
X136400000Y-124440000D02*
X136400000Y-84150000D01*
X133000000Y-80750000D02*
X132990000Y-80760000D01*
%TO.N,/RADIO_DIO1*%
X129400000Y-136520000D02*
X126849000Y-133969000D01*
X126849000Y-118651000D02*
X129180000Y-116320000D01*
X129180000Y-116320000D02*
X130510000Y-116320000D01*
X126849000Y-133969000D02*
X126849000Y-118651000D01*
%TO.N,/RS_DI*%
X115710000Y-100040000D02*
X118090000Y-97660000D01*
X118090000Y-97660000D02*
X123660000Y-97660000D01*
X124940000Y-98940000D02*
X124940000Y-103130000D01*
X124940000Y-103130000D02*
X130510000Y-108700000D01*
X123660000Y-97660000D02*
X124940000Y-98940000D01*
%TO.N,GND*%
X120740000Y-86161667D02*
X120411667Y-86161667D01*
X120411667Y-86161667D02*
X119750000Y-85500000D01*
X110520000Y-103140000D02*
X110520000Y-102480000D01*
X120500000Y-93500000D02*
X119750000Y-92750000D01*
X110520000Y-102480000D02*
X111000000Y-102000000D01*
X120323333Y-78823333D02*
X119750000Y-78250000D01*
X120740000Y-78823333D02*
X120323333Y-78823333D01*
X120740000Y-93500000D02*
X120500000Y-93500000D01*
%TO.N,/ARM_SIGNAL*%
X127853000Y-80353000D02*
X127853000Y-95883000D01*
X120311760Y-80333333D02*
X113000000Y-80333333D01*
X126323333Y-78823333D02*
X127853000Y-80353000D01*
X121760000Y-78823333D02*
X121760000Y-78885093D01*
X127853000Y-95883000D02*
X130510000Y-98540000D01*
X121760000Y-78823333D02*
X126323333Y-78823333D01*
X121760000Y-78885093D02*
X120311760Y-80333333D01*
%TO.N,/FIRE_SIGNAL*%
X121760000Y-93819999D02*
X120079999Y-95500000D01*
X126250000Y-94000000D02*
X126250000Y-101900000D01*
X125750000Y-93500000D02*
X126250000Y-94000000D01*
X121760000Y-93500000D02*
X121760000Y-93819999D01*
X130510000Y-106160000D02*
X131310000Y-106160000D01*
X121760000Y-93500000D02*
X125750000Y-93500000D01*
X120079999Y-95500000D02*
X113000000Y-95500000D01*
X126250000Y-101900000D02*
X130510000Y-106160000D01*
%TO.N,/RADIO_TX_EN*%
X135000000Y-120760000D02*
X129400000Y-126360000D01*
X135000000Y-89530000D02*
X135000000Y-120760000D01*
X135000000Y-89530000D02*
X131310000Y-85840000D01*
D31*
%TO.N,+5V*%
X181100000Y-124350000D02*
X181100000Y-97850000D01*
D32*
X125680000Y-147700000D02*
X162920000Y-147700000D01*
D31*
X181100000Y-97850000D02*
X153850000Y-70600000D01*
D32*
X162920000Y-147700000D02*
X181100000Y-129520000D01*
X123330000Y-141260000D02*
X123330000Y-145350000D01*
X123330000Y-145350000D02*
X125680000Y-147700000D01*
D31*
X153850000Y-70600000D02*
X149890000Y-70600000D01*
D32*
X181100000Y-129520000D02*
X181100000Y-124350000D01*
D31*
X178500000Y-124350000D02*
X181100000Y-124350000D01*
D28*
%TO.N,/RS_RO*%
X123330000Y-104060000D02*
X130510000Y-111240000D01*
X123330000Y-100040000D02*
X123330000Y-104060000D01*
%TO.N,/CAN_CS*%
X151189544Y-74474000D02*
X148238984Y-74474000D01*
X132670000Y-74500000D02*
X131310000Y-73140000D01*
X155590000Y-74500000D02*
X151215544Y-74500000D01*
X148238984Y-74474000D02*
X148212984Y-74500000D01*
X173100000Y-92010000D02*
X155590000Y-74500000D01*
X151215544Y-74500000D02*
X151189544Y-74474000D01*
X173100000Y-124350000D02*
X173100000Y-92010000D01*
X148212984Y-74500000D02*
X132670000Y-74500000D01*
%TD*%
%TA.AperFunction,Conductor*%
%TO.N,+3.3V*%
G36*
X127255808Y-67820185D02*
G01*
X127301563Y-67872989D01*
X127311507Y-67942147D01*
X127282482Y-68005703D01*
X127276450Y-68012181D01*
X126767050Y-68521580D01*
X126767044Y-68521588D01*
X126717812Y-68595268D01*
X126717813Y-68595269D01*
X126684921Y-68644496D01*
X126684914Y-68644508D01*
X126628342Y-68781086D01*
X126628340Y-68781092D01*
X126599500Y-68926079D01*
X126599500Y-74963770D01*
X126579815Y-75030809D01*
X126527011Y-75076564D01*
X126457853Y-75086508D01*
X126394297Y-75057483D01*
X126387819Y-75051451D01*
X122546697Y-71210329D01*
X122515302Y-71157243D01*
X122482869Y-71045607D01*
X122401135Y-70907402D01*
X122401133Y-70907400D01*
X122401130Y-70907396D01*
X122287603Y-70793869D01*
X122287595Y-70793863D01*
X122149393Y-70712131D01*
X122149388Y-70712129D01*
X121995208Y-70667335D01*
X121995202Y-70667334D01*
X121959181Y-70664500D01*
X121560830Y-70664500D01*
X121560808Y-70664501D01*
X121524794Y-70667335D01*
X121370611Y-70712129D01*
X121370604Y-70712132D01*
X121313119Y-70746128D01*
X121245395Y-70763309D01*
X121204091Y-70754583D01*
X121195151Y-70751020D01*
X121129393Y-70712131D01*
X121012008Y-70678026D01*
X121006441Y-70675808D01*
X120991880Y-70664394D01*
X120964669Y-70648301D01*
X119943421Y-69627052D01*
X119943414Y-69627046D01*
X119838518Y-69556958D01*
X119820495Y-69544916D01*
X119820490Y-69544913D01*
X119683917Y-69488343D01*
X119683907Y-69488340D01*
X119538920Y-69459500D01*
X119538918Y-69459500D01*
X114617535Y-69459500D01*
X114550496Y-69439815D01*
X114504741Y-69387011D01*
X114494177Y-69348102D01*
X114492632Y-69332978D01*
X114489999Y-69307203D01*
X114434814Y-69140666D01*
X114342712Y-68991344D01*
X114218656Y-68867288D01*
X114125888Y-68810069D01*
X114069336Y-68775187D01*
X114069331Y-68775185D01*
X114067862Y-68774698D01*
X113902797Y-68720001D01*
X113902795Y-68720000D01*
X113800010Y-68709500D01*
X112199998Y-68709500D01*
X112199981Y-68709501D01*
X112097203Y-68720000D01*
X112097200Y-68720001D01*
X111930668Y-68775185D01*
X111930663Y-68775187D01*
X111781342Y-68867289D01*
X111657289Y-68991342D01*
X111565187Y-69140663D01*
X111565185Y-69140668D01*
X111541157Y-69213181D01*
X111510001Y-69307203D01*
X111510001Y-69307204D01*
X111510000Y-69307204D01*
X111499500Y-69409983D01*
X111499500Y-71010001D01*
X111499501Y-71010018D01*
X111510000Y-71112796D01*
X111510001Y-71112799D01*
X111529013Y-71170172D01*
X111565186Y-71279334D01*
X111657288Y-71428656D01*
X111781344Y-71552712D01*
X111823102Y-71578468D01*
X111829656Y-71582511D01*
X111876381Y-71634459D01*
X111887604Y-71703421D01*
X111859760Y-71767504D01*
X111858615Y-71768759D01*
X111858647Y-71768786D01*
X111855485Y-71772487D01*
X111855483Y-71772490D01*
X111826584Y-71812266D01*
X111716657Y-71963566D01*
X111609433Y-72174003D01*
X111536446Y-72398631D01*
X111499500Y-72631902D01*
X111499500Y-72868097D01*
X111536446Y-73101368D01*
X111609433Y-73325996D01*
X111705484Y-73514505D01*
X111716657Y-73536433D01*
X111855483Y-73727510D01*
X112022490Y-73894517D01*
X112213567Y-74033343D01*
X112309480Y-74082213D01*
X112424003Y-74140566D01*
X112424005Y-74140566D01*
X112424008Y-74140568D01*
X112472131Y-74156204D01*
X112648631Y-74213553D01*
X112881903Y-74250500D01*
X112881908Y-74250500D01*
X113118097Y-74250500D01*
X113351368Y-74213553D01*
X113364051Y-74209432D01*
X113575992Y-74140568D01*
X113577019Y-74140045D01*
X113644016Y-74105908D01*
X113786433Y-74033343D01*
X113977510Y-73894517D01*
X114144517Y-73727510D01*
X114283343Y-73536433D01*
X114390568Y-73325992D01*
X114463553Y-73101368D01*
X114473646Y-73037643D01*
X114500500Y-72868097D01*
X114500500Y-72631902D01*
X114463553Y-72398631D01*
X114429618Y-72294190D01*
X114390568Y-72174008D01*
X114390566Y-72174005D01*
X114390566Y-72174003D01*
X114316024Y-72027708D01*
X114283343Y-71963567D01*
X114144517Y-71772490D01*
X114144508Y-71772481D01*
X114141353Y-71768786D01*
X114143134Y-71767264D01*
X114114273Y-71714408D01*
X114119257Y-71644716D01*
X114161129Y-71588783D01*
X114170334Y-71582516D01*
X114218656Y-71552712D01*
X114342712Y-71428656D01*
X114434814Y-71279334D01*
X114489999Y-71112797D01*
X114494177Y-71071896D01*
X114520573Y-71007207D01*
X114577753Y-70967055D01*
X114617535Y-70960500D01*
X119102770Y-70960500D01*
X119169809Y-70980185D01*
X119190451Y-70996819D01*
X119953301Y-71759669D01*
X119984696Y-71812755D01*
X120017128Y-71924388D01*
X120017130Y-71924391D01*
X120098863Y-72062595D01*
X120098869Y-72062603D01*
X120212396Y-72176130D01*
X120212400Y-72176133D01*
X120212402Y-72176135D01*
X120350607Y-72257869D01*
X120391268Y-72269682D01*
X120504791Y-72302664D01*
X120504794Y-72302664D01*
X120504796Y-72302665D01*
X120540819Y-72305500D01*
X120939180Y-72305499D01*
X120975204Y-72302665D01*
X121129393Y-72257869D01*
X121186882Y-72223869D01*
X121254602Y-72206688D01*
X121295910Y-72215415D01*
X121304838Y-72218973D01*
X121370607Y-72257869D01*
X121487996Y-72291973D01*
X121493558Y-72294190D01*
X121508119Y-72305604D01*
X121535329Y-72321697D01*
X127717181Y-78503548D01*
X127750666Y-78564871D01*
X127753500Y-78591229D01*
X127753500Y-78892769D01*
X127733815Y-78959808D01*
X127681011Y-79005563D01*
X127611853Y-79015507D01*
X127548297Y-78986482D01*
X127541819Y-78980450D01*
X126801753Y-78240384D01*
X126720257Y-78185931D01*
X126720256Y-78185930D01*
X126678833Y-78158252D01*
X126678821Y-78158245D01*
X126542250Y-78101676D01*
X126542240Y-78101673D01*
X126397253Y-78072833D01*
X126397251Y-78072833D01*
X122221139Y-78072833D01*
X122158018Y-78055565D01*
X122149393Y-78050464D01*
X122149388Y-78050462D01*
X121995208Y-78005668D01*
X121995202Y-78005667D01*
X121959181Y-78002833D01*
X121560830Y-78002833D01*
X121560808Y-78002834D01*
X121524794Y-78005668D01*
X121370611Y-78050462D01*
X121370604Y-78050465D01*
X121313119Y-78084461D01*
X121245395Y-78101642D01*
X121186881Y-78084461D01*
X121129395Y-78050465D01*
X121129388Y-78050462D01*
X120975208Y-78005668D01*
X120975202Y-78005667D01*
X120939188Y-78002833D01*
X120939181Y-78002833D01*
X120651049Y-78002833D01*
X120584010Y-77983148D01*
X120538255Y-77930344D01*
X120536488Y-77926286D01*
X120503704Y-77847139D01*
X120410626Y-77707837D01*
X120292162Y-77589373D01*
X120152860Y-77496295D01*
X119998082Y-77432184D01*
X119998074Y-77432182D01*
X119833771Y-77399500D01*
X119833767Y-77399500D01*
X119666233Y-77399500D01*
X119666228Y-77399500D01*
X119501925Y-77432182D01*
X119501917Y-77432184D01*
X119347139Y-77496295D01*
X119207837Y-77589373D01*
X119089373Y-77707837D01*
X118996295Y-77847139D01*
X118932184Y-78001917D01*
X118932182Y-78001925D01*
X118899500Y-78166228D01*
X118899500Y-78333771D01*
X118932182Y-78498074D01*
X118932184Y-78498082D01*
X118996295Y-78652860D01*
X119089373Y-78792162D01*
X119207837Y-78910626D01*
X119255937Y-78942765D01*
X119347137Y-79003703D01*
X119480977Y-79059142D01*
X119486866Y-79061581D01*
X119527094Y-79088461D01*
X119740382Y-79301749D01*
X119776098Y-79337465D01*
X119809785Y-79371152D01*
X119843269Y-79432476D01*
X119838284Y-79502167D01*
X119796413Y-79558101D01*
X119730948Y-79582517D01*
X119722103Y-79582833D01*
X114372631Y-79582833D01*
X114305592Y-79563148D01*
X114272313Y-79531719D01*
X114258438Y-79512622D01*
X114144517Y-79355823D01*
X114144508Y-79355814D01*
X114141353Y-79352119D01*
X114143022Y-79350693D01*
X114113910Y-79297378D01*
X114118894Y-79227686D01*
X114160766Y-79171753D01*
X114169980Y-79165481D01*
X114218343Y-79135650D01*
X114342315Y-79011678D01*
X114434356Y-78862457D01*
X114434358Y-78862452D01*
X114489505Y-78696030D01*
X114489506Y-78696023D01*
X114499999Y-78593319D01*
X114500000Y-78593306D01*
X114500000Y-78043333D01*
X113548482Y-78043333D01*
X113559111Y-78024924D01*
X113600000Y-77872324D01*
X113600000Y-77714342D01*
X113559111Y-77561742D01*
X113548482Y-77543333D01*
X114499999Y-77543333D01*
X114499999Y-76993361D01*
X114499998Y-76993346D01*
X114489505Y-76890635D01*
X114434358Y-76724213D01*
X114434356Y-76724208D01*
X114342315Y-76574987D01*
X114218345Y-76451017D01*
X114069124Y-76358976D01*
X114069119Y-76358974D01*
X113902697Y-76303827D01*
X113902690Y-76303826D01*
X113799986Y-76293333D01*
X113250000Y-76293333D01*
X113250000Y-77244850D01*
X113231591Y-77234222D01*
X113078991Y-77193333D01*
X112921009Y-77193333D01*
X112768409Y-77234222D01*
X112750000Y-77244850D01*
X112750000Y-76293333D01*
X112200028Y-76293333D01*
X112200012Y-76293334D01*
X112097302Y-76303827D01*
X111930880Y-76358974D01*
X111930875Y-76358976D01*
X111781654Y-76451017D01*
X111657684Y-76574987D01*
X111565643Y-76724208D01*
X111565641Y-76724213D01*
X111510494Y-76890635D01*
X111510493Y-76890642D01*
X111500000Y-76993346D01*
X111500000Y-77543333D01*
X112451518Y-77543333D01*
X112440889Y-77561742D01*
X112400000Y-77714342D01*
X112400000Y-77872324D01*
X112440889Y-78024924D01*
X112451518Y-78043333D01*
X111500001Y-78043333D01*
X111500001Y-78593319D01*
X111510494Y-78696030D01*
X111565641Y-78862452D01*
X111565643Y-78862457D01*
X111657684Y-79011678D01*
X111781655Y-79135649D01*
X111781659Y-79135652D01*
X111830020Y-79165482D01*
X111876745Y-79217430D01*
X111887966Y-79286392D01*
X111860123Y-79350474D01*
X111858632Y-79352106D01*
X111858647Y-79352119D01*
X111855485Y-79355821D01*
X111855483Y-79355823D01*
X111822953Y-79400597D01*
X111716657Y-79546899D01*
X111609433Y-79757336D01*
X111536446Y-79981964D01*
X111499500Y-80215235D01*
X111499500Y-80451430D01*
X111536446Y-80684701D01*
X111609433Y-80909329D01*
X111698348Y-81083833D01*
X111716657Y-81119766D01*
X111855483Y-81310843D01*
X112022490Y-81477850D01*
X112213567Y-81616676D01*
X112312991Y-81667335D01*
X112424003Y-81723899D01*
X112424005Y-81723899D01*
X112424008Y-81723901D01*
X112534053Y-81759657D01*
X112648631Y-81796886D01*
X112881903Y-81833833D01*
X112881908Y-81833833D01*
X113118097Y-81833833D01*
X113351368Y-81796886D01*
X113575992Y-81723901D01*
X113786433Y-81616676D01*
X113977510Y-81477850D01*
X114144517Y-81310843D01*
X114272313Y-81134946D01*
X114327643Y-81092282D01*
X114372631Y-81083833D01*
X120385680Y-81083833D01*
X120483271Y-81064420D01*
X120530673Y-81054991D01*
X120667255Y-80998417D01*
X120716489Y-80965519D01*
X120790176Y-80916285D01*
X122071721Y-79634738D01*
X122079478Y-79629631D01*
X122082923Y-79624812D01*
X122100428Y-79615839D01*
X122113520Y-79607221D01*
X122119065Y-79605012D01*
X122149393Y-79596202D01*
X122166309Y-79586197D01*
X122175260Y-79582633D01*
X122196112Y-79580679D01*
X122221139Y-79573833D01*
X125961103Y-79573833D01*
X126028142Y-79593518D01*
X126048784Y-79610152D01*
X127066181Y-80627549D01*
X127099666Y-80688872D01*
X127102500Y-80715230D01*
X127102500Y-86539769D01*
X127082815Y-86606808D01*
X127030011Y-86652563D01*
X126960853Y-86662507D01*
X126897297Y-86633482D01*
X126890819Y-86627450D01*
X125842088Y-85578719D01*
X125842081Y-85578713D01*
X125768396Y-85529479D01*
X125768396Y-85529480D01*
X125719158Y-85496580D01*
X125582584Y-85440010D01*
X125582574Y-85440007D01*
X125437587Y-85411167D01*
X125437585Y-85411167D01*
X122221139Y-85411167D01*
X122158018Y-85393899D01*
X122157365Y-85393513D01*
X122149393Y-85388798D01*
X122149388Y-85388796D01*
X121995208Y-85344002D01*
X121995202Y-85344001D01*
X121959181Y-85341167D01*
X121560830Y-85341167D01*
X121560808Y-85341168D01*
X121524794Y-85344002D01*
X121370611Y-85388796D01*
X121370604Y-85388799D01*
X121313119Y-85422795D01*
X121245395Y-85439976D01*
X121186881Y-85422795D01*
X121129395Y-85388799D01*
X121129388Y-85388796D01*
X120975208Y-85344002D01*
X120975202Y-85344001D01*
X120939188Y-85341167D01*
X120939181Y-85341167D01*
X120703898Y-85341167D01*
X120674458Y-85332522D01*
X120644473Y-85326000D01*
X120639455Y-85322244D01*
X120636859Y-85321482D01*
X120616218Y-85304850D01*
X120588461Y-85277094D01*
X120561580Y-85236864D01*
X120541035Y-85187265D01*
X120503703Y-85097137D01*
X120472537Y-85050494D01*
X120410626Y-84957837D01*
X120292162Y-84839373D01*
X120152860Y-84746295D01*
X119998082Y-84682184D01*
X119998074Y-84682182D01*
X119833771Y-84649500D01*
X119833767Y-84649500D01*
X119666233Y-84649500D01*
X119666228Y-84649500D01*
X119501925Y-84682182D01*
X119501917Y-84682184D01*
X119347139Y-84746295D01*
X119207837Y-84839373D01*
X119089373Y-84957837D01*
X118996295Y-85097139D01*
X118932184Y-85251917D01*
X118932182Y-85251925D01*
X118899500Y-85416228D01*
X118899500Y-85583771D01*
X118932182Y-85748074D01*
X118932184Y-85748082D01*
X118996295Y-85902860D01*
X119089373Y-86042162D01*
X119207837Y-86160626D01*
X119276310Y-86206378D01*
X119347137Y-86253703D01*
X119347138Y-86253703D01*
X119347139Y-86253704D01*
X119486866Y-86311581D01*
X119527094Y-86338461D01*
X119828715Y-86640082D01*
X119828716Y-86640083D01*
X119907616Y-86718983D01*
X119933252Y-86744619D01*
X120056165Y-86826747D01*
X120056178Y-86826754D01*
X120192749Y-86883323D01*
X120192754Y-86883325D01*
X120279396Y-86900559D01*
X120283348Y-86902070D01*
X120285695Y-86901983D01*
X120318322Y-86915443D01*
X120352127Y-86935435D01*
X120399810Y-86986504D01*
X120412314Y-87055245D01*
X120385669Y-87119835D01*
X120328334Y-87159765D01*
X120289006Y-87166167D01*
X114372631Y-87166167D01*
X114305592Y-87146482D01*
X114272313Y-87115053D01*
X114270807Y-87112980D01*
X114144517Y-86939157D01*
X114144508Y-86939148D01*
X114141353Y-86935453D01*
X114143022Y-86934027D01*
X114113910Y-86880712D01*
X114118894Y-86811020D01*
X114160766Y-86755087D01*
X114169980Y-86748815D01*
X114218343Y-86718984D01*
X114342315Y-86595012D01*
X114434356Y-86445791D01*
X114434358Y-86445786D01*
X114489505Y-86279364D01*
X114489506Y-86279357D01*
X114499999Y-86176653D01*
X114500000Y-86176640D01*
X114500000Y-85626667D01*
X113548482Y-85626667D01*
X113559111Y-85608258D01*
X113600000Y-85455658D01*
X113600000Y-85297676D01*
X113559111Y-85145076D01*
X113548482Y-85126667D01*
X114499999Y-85126667D01*
X114499999Y-84576695D01*
X114499998Y-84576680D01*
X114489505Y-84473969D01*
X114434358Y-84307547D01*
X114434356Y-84307542D01*
X114342315Y-84158321D01*
X114218345Y-84034351D01*
X114069124Y-83942310D01*
X114069119Y-83942308D01*
X113902697Y-83887161D01*
X113902690Y-83887160D01*
X113799986Y-83876667D01*
X113250000Y-83876667D01*
X113250000Y-84828184D01*
X113231591Y-84817556D01*
X113078991Y-84776667D01*
X112921009Y-84776667D01*
X112768409Y-84817556D01*
X112750000Y-84828184D01*
X112750000Y-83876667D01*
X112200028Y-83876667D01*
X112200012Y-83876668D01*
X112097302Y-83887161D01*
X111930880Y-83942308D01*
X111930875Y-83942310D01*
X111781654Y-84034351D01*
X111657684Y-84158321D01*
X111565643Y-84307542D01*
X111565641Y-84307547D01*
X111510494Y-84473969D01*
X111510493Y-84473976D01*
X111500000Y-84576680D01*
X111500000Y-85126667D01*
X112451518Y-85126667D01*
X112440889Y-85145076D01*
X112400000Y-85297676D01*
X112400000Y-85455658D01*
X112440889Y-85608258D01*
X112451518Y-85626667D01*
X111500001Y-85626667D01*
X111500001Y-86176653D01*
X111510494Y-86279364D01*
X111565641Y-86445786D01*
X111565643Y-86445791D01*
X111657684Y-86595012D01*
X111781655Y-86718983D01*
X111781659Y-86718986D01*
X111830020Y-86748816D01*
X111876745Y-86800764D01*
X111887966Y-86869726D01*
X111860123Y-86933808D01*
X111858632Y-86935440D01*
X111858647Y-86935453D01*
X111855485Y-86939155D01*
X111855483Y-86939157D01*
X111795862Y-87021217D01*
X111716657Y-87130233D01*
X111609433Y-87340670D01*
X111536446Y-87565298D01*
X111499500Y-87798569D01*
X111499500Y-88034764D01*
X111536446Y-88268035D01*
X111609433Y-88492663D01*
X111683653Y-88638326D01*
X111716657Y-88703100D01*
X111855483Y-88894177D01*
X112022490Y-89061184D01*
X112213567Y-89200010D01*
X112239519Y-89213233D01*
X112424003Y-89307233D01*
X112424005Y-89307233D01*
X112424008Y-89307235D01*
X112511162Y-89335553D01*
X112648631Y-89380220D01*
X112881903Y-89417167D01*
X112881908Y-89417167D01*
X113118097Y-89417167D01*
X113351368Y-89380220D01*
X113417159Y-89358843D01*
X113575992Y-89307235D01*
X113786433Y-89200010D01*
X113977510Y-89061184D01*
X114144517Y-88894177D01*
X114272313Y-88718280D01*
X114327643Y-88675616D01*
X114372631Y-88667167D01*
X120990587Y-88667167D01*
X121088129Y-88647763D01*
X121135580Y-88638325D01*
X121272162Y-88581751D01*
X121321396Y-88548853D01*
X121395083Y-88499619D01*
X122342952Y-87551750D01*
X122418788Y-87438251D01*
X122425084Y-87428829D01*
X122481658Y-87292247D01*
X122506615Y-87166782D01*
X122510500Y-87147254D01*
X122510500Y-87036167D01*
X122530185Y-86969128D01*
X122582989Y-86923373D01*
X122634500Y-86912167D01*
X125001437Y-86912167D01*
X125068476Y-86931852D01*
X125089118Y-86948486D01*
X126415181Y-88274548D01*
X126448666Y-88335871D01*
X126451500Y-88362229D01*
X126451500Y-92840769D01*
X126431815Y-92907808D01*
X126379011Y-92953563D01*
X126309853Y-92963507D01*
X126246297Y-92934482D01*
X126239819Y-92928450D01*
X126228421Y-92917052D01*
X126228414Y-92917046D01*
X126154729Y-92867812D01*
X126154729Y-92867813D01*
X126105491Y-92834913D01*
X125968917Y-92778343D01*
X125968907Y-92778340D01*
X125823920Y-92749500D01*
X125823918Y-92749500D01*
X122221139Y-92749500D01*
X122158018Y-92732232D01*
X122149393Y-92727131D01*
X122149388Y-92727129D01*
X121995208Y-92682335D01*
X121995202Y-92682334D01*
X121959181Y-92679500D01*
X121560830Y-92679500D01*
X121560808Y-92679501D01*
X121524794Y-92682335D01*
X121370611Y-92727129D01*
X121370604Y-92727132D01*
X121313119Y-92761128D01*
X121245395Y-92778309D01*
X121186881Y-92761128D01*
X121129395Y-92727132D01*
X121129388Y-92727129D01*
X120975208Y-92682335D01*
X120975202Y-92682334D01*
X120939188Y-92679500D01*
X120939181Y-92679500D01*
X120792229Y-92679500D01*
X120762788Y-92670855D01*
X120732802Y-92664332D01*
X120727786Y-92660577D01*
X120725190Y-92659815D01*
X120704548Y-92643181D01*
X120588461Y-92527094D01*
X120561581Y-92486866D01*
X120503704Y-92347139D01*
X120503250Y-92346460D01*
X120450998Y-92268259D01*
X120410626Y-92207837D01*
X120292162Y-92089373D01*
X120152860Y-91996295D01*
X119998082Y-91932184D01*
X119998074Y-91932182D01*
X119833771Y-91899500D01*
X119833767Y-91899500D01*
X119666233Y-91899500D01*
X119666228Y-91899500D01*
X119501925Y-91932182D01*
X119501917Y-91932184D01*
X119347139Y-91996295D01*
X119207837Y-92089373D01*
X119089373Y-92207837D01*
X118996295Y-92347139D01*
X118932184Y-92501917D01*
X118932182Y-92501925D01*
X118899500Y-92666228D01*
X118899500Y-92833771D01*
X118932182Y-92998074D01*
X118932184Y-92998082D01*
X118996295Y-93152860D01*
X119089373Y-93292162D01*
X119207837Y-93410626D01*
X119251977Y-93440119D01*
X119347137Y-93503703D01*
X119347138Y-93503703D01*
X119347139Y-93503704D01*
X119486866Y-93561581D01*
X119527094Y-93588461D01*
X119917049Y-93978416D01*
X119970761Y-94032128D01*
X120021585Y-94082952D01*
X120144186Y-94164871D01*
X120188991Y-94218483D01*
X120197698Y-94287808D01*
X120167544Y-94350835D01*
X120162976Y-94355654D01*
X119805450Y-94713181D01*
X119744127Y-94746666D01*
X119717769Y-94749500D01*
X114372631Y-94749500D01*
X114367613Y-94748026D01*
X114362492Y-94749085D01*
X114334430Y-94738282D01*
X114305592Y-94729815D01*
X114300854Y-94725358D01*
X114297287Y-94723985D01*
X114273743Y-94699852D01*
X114272592Y-94698769D01*
X114272540Y-94698699D01*
X114144517Y-94522490D01*
X114140658Y-94518631D01*
X114135037Y-94510956D01*
X114126272Y-94486684D01*
X114113910Y-94464045D01*
X114114602Y-94454367D01*
X114111306Y-94445240D01*
X114117053Y-94420088D01*
X114118894Y-94394353D01*
X114124709Y-94386584D01*
X114126871Y-94377126D01*
X114145303Y-94359074D01*
X114160766Y-94338420D01*
X114169980Y-94332148D01*
X114218343Y-94302317D01*
X114342315Y-94178345D01*
X114434356Y-94029124D01*
X114434358Y-94029119D01*
X114489505Y-93862697D01*
X114489506Y-93862690D01*
X114499999Y-93759986D01*
X114500000Y-93759973D01*
X114500000Y-93210000D01*
X113548482Y-93210000D01*
X113559111Y-93191591D01*
X113600000Y-93038991D01*
X113600000Y-92881009D01*
X113559111Y-92728409D01*
X113548482Y-92710000D01*
X114499999Y-92710000D01*
X114499999Y-92160028D01*
X114499998Y-92160013D01*
X114489505Y-92057302D01*
X114434358Y-91890880D01*
X114434356Y-91890875D01*
X114342315Y-91741654D01*
X114218345Y-91617684D01*
X114069124Y-91525643D01*
X114069119Y-91525641D01*
X113902697Y-91470494D01*
X113902690Y-91470493D01*
X113799986Y-91460000D01*
X113250000Y-91460000D01*
X113250000Y-92411517D01*
X113231591Y-92400889D01*
X113078991Y-92360000D01*
X112921009Y-92360000D01*
X112768409Y-92400889D01*
X112750000Y-92411517D01*
X112750000Y-91460000D01*
X112200028Y-91460000D01*
X112200012Y-91460001D01*
X112097302Y-91470494D01*
X111930880Y-91525641D01*
X111930875Y-91525643D01*
X111781654Y-91617684D01*
X111657684Y-91741654D01*
X111565643Y-91890875D01*
X111565641Y-91890880D01*
X111510494Y-92057302D01*
X111510493Y-92057309D01*
X111500000Y-92160013D01*
X111500000Y-92710000D01*
X112451518Y-92710000D01*
X112440889Y-92728409D01*
X112400000Y-92881009D01*
X112400000Y-93038991D01*
X112440889Y-93191591D01*
X112451518Y-93210000D01*
X111500001Y-93210000D01*
X111500001Y-93759986D01*
X111510494Y-93862697D01*
X111565641Y-94029119D01*
X111565643Y-94029124D01*
X111657684Y-94178345D01*
X111781655Y-94302316D01*
X111781659Y-94302319D01*
X111830020Y-94332149D01*
X111876745Y-94384097D01*
X111887966Y-94453059D01*
X111860123Y-94517141D01*
X111858632Y-94518773D01*
X111858647Y-94518786D01*
X111855485Y-94522488D01*
X111855483Y-94522490D01*
X111819303Y-94572287D01*
X111716657Y-94713566D01*
X111609433Y-94924003D01*
X111536446Y-95148631D01*
X111499500Y-95381902D01*
X111499500Y-95618097D01*
X111536446Y-95851368D01*
X111609433Y-96075996D01*
X111683653Y-96221659D01*
X111716657Y-96286433D01*
X111855483Y-96477510D01*
X112022490Y-96644517D01*
X112213567Y-96783343D01*
X112312991Y-96834002D01*
X112424003Y-96890566D01*
X112424005Y-96890566D01*
X112424008Y-96890568D01*
X112482275Y-96909500D01*
X112648631Y-96963553D01*
X112881903Y-97000500D01*
X112881908Y-97000500D01*
X113118097Y-97000500D01*
X113351368Y-96963553D01*
X113575992Y-96890568D01*
X113786433Y-96783343D01*
X113977510Y-96644517D01*
X114144517Y-96477510D01*
X114272313Y-96301613D01*
X114327643Y-96258949D01*
X114372631Y-96250500D01*
X120153919Y-96250500D01*
X120251461Y-96231096D01*
X120298912Y-96221658D01*
X120435494Y-96165084D01*
X120484728Y-96132186D01*
X120558415Y-96082952D01*
X122342951Y-94298415D01*
X122342952Y-94298412D01*
X122345069Y-94295835D01*
X122346521Y-94294845D01*
X122347259Y-94294108D01*
X122347398Y-94294247D01*
X122402815Y-94256501D01*
X122440922Y-94250500D01*
X125375500Y-94250500D01*
X125442539Y-94270185D01*
X125488294Y-94322989D01*
X125499500Y-94374500D01*
X125499500Y-98138770D01*
X125479815Y-98205809D01*
X125427011Y-98251564D01*
X125357853Y-98261508D01*
X125294297Y-98232483D01*
X125287819Y-98226451D01*
X124138421Y-97077052D01*
X124138414Y-97077046D01*
X124064729Y-97027812D01*
X124064729Y-97027813D01*
X124015491Y-96994913D01*
X123878917Y-96938343D01*
X123878907Y-96938340D01*
X123733920Y-96909500D01*
X123733918Y-96909500D01*
X118163917Y-96909500D01*
X118016082Y-96909500D01*
X118016080Y-96909500D01*
X117871092Y-96938340D01*
X117871082Y-96938343D01*
X117734511Y-96994912D01*
X117734498Y-96994919D01*
X117611584Y-97077048D01*
X117611580Y-97077051D01*
X115944514Y-98744117D01*
X115883191Y-98777602D01*
X115837439Y-98778909D01*
X115809597Y-98774500D01*
X115610403Y-98774500D01*
X115544822Y-98784887D01*
X115413659Y-98805661D01*
X115413656Y-98805661D01*
X115224219Y-98867213D01*
X115046733Y-98957647D01*
X114954790Y-99024447D01*
X114885582Y-99074731D01*
X114885580Y-99074733D01*
X114885579Y-99074733D01*
X114744733Y-99215579D01*
X114744733Y-99215580D01*
X114744731Y-99215582D01*
X114705328Y-99269815D01*
X114627647Y-99376733D01*
X114537213Y-99554219D01*
X114475661Y-99743656D01*
X114475661Y-99743659D01*
X114448232Y-99916843D01*
X114444500Y-99940403D01*
X114444500Y-100139597D01*
X114449832Y-100173263D01*
X114475661Y-100336340D01*
X114475661Y-100336343D01*
X114537213Y-100525780D01*
X114602137Y-100653200D01*
X114627647Y-100703266D01*
X114744731Y-100864418D01*
X114885582Y-101005269D01*
X115046734Y-101122353D01*
X115164159Y-101182184D01*
X115224219Y-101212786D01*
X115413657Y-101274338D01*
X115413658Y-101274338D01*
X115413661Y-101274339D01*
X115610403Y-101305500D01*
X115610404Y-101305500D01*
X115809596Y-101305500D01*
X115809597Y-101305500D01*
X116006339Y-101274339D01*
X116006342Y-101274338D01*
X116006343Y-101274338D01*
X116178677Y-101218343D01*
X116248518Y-101216348D01*
X116308351Y-101252428D01*
X116339179Y-101315129D01*
X116331214Y-101384543D01*
X116304676Y-101423955D01*
X112355451Y-105373181D01*
X112294128Y-105406666D01*
X112267770Y-105409500D01*
X111394500Y-105409500D01*
X111327461Y-105389815D01*
X111281706Y-105337011D01*
X111270500Y-105285500D01*
X111270500Y-104621139D01*
X111287768Y-104558018D01*
X111292869Y-104549393D01*
X111337665Y-104395204D01*
X111340500Y-104359181D01*
X111340499Y-103960820D01*
X111337665Y-103924796D01*
X111292869Y-103770607D01*
X111258869Y-103713117D01*
X111241688Y-103645398D01*
X111258869Y-103586882D01*
X111292869Y-103529393D01*
X111298623Y-103509590D01*
X111337664Y-103375208D01*
X111337664Y-103375206D01*
X111337665Y-103375204D01*
X111340500Y-103339181D01*
X111340499Y-102940820D01*
X111337665Y-102904796D01*
X111336473Y-102900693D01*
X111336669Y-102830827D01*
X111374609Y-102772155D01*
X111398104Y-102757708D01*
X111397497Y-102756571D01*
X111402859Y-102753704D01*
X111402863Y-102753703D01*
X111542162Y-102660626D01*
X111660626Y-102542162D01*
X111753703Y-102402863D01*
X111817816Y-102248082D01*
X111850500Y-102083767D01*
X111850500Y-101916233D01*
X111817816Y-101751918D01*
X111753703Y-101597137D01*
X111669574Y-101471229D01*
X111660626Y-101457837D01*
X111542162Y-101339373D01*
X111402860Y-101246295D01*
X111248082Y-101182184D01*
X111248074Y-101182182D01*
X111083771Y-101149500D01*
X111083767Y-101149500D01*
X110916233Y-101149500D01*
X110916228Y-101149500D01*
X110751925Y-101182182D01*
X110751917Y-101182184D01*
X110597139Y-101246295D01*
X110457837Y-101339373D01*
X110339373Y-101457837D01*
X110246295Y-101597139D01*
X110188419Y-101736864D01*
X110161539Y-101777092D01*
X109937048Y-102001583D01*
X109917855Y-102030308D01*
X109898790Y-102058843D01*
X109854919Y-102124499D01*
X109854912Y-102124511D01*
X109798343Y-102261082D01*
X109798340Y-102261092D01*
X109769500Y-102406079D01*
X109769500Y-102678859D01*
X109752235Y-102741976D01*
X109747132Y-102750605D01*
X109747129Y-102750611D01*
X109702335Y-102904791D01*
X109702334Y-102904797D01*
X109699500Y-102940811D01*
X109699500Y-103339169D01*
X109699501Y-103339191D01*
X109702335Y-103375205D01*
X109747129Y-103529388D01*
X109747132Y-103529395D01*
X109781128Y-103586881D01*
X109798309Y-103654605D01*
X109781128Y-103713119D01*
X109747132Y-103770604D01*
X109747129Y-103770611D01*
X109702335Y-103924791D01*
X109702334Y-103924797D01*
X109699500Y-103960811D01*
X109699500Y-104359169D01*
X109699501Y-104359191D01*
X109702335Y-104395205D01*
X109747129Y-104549388D01*
X109747131Y-104549393D01*
X109752232Y-104558018D01*
X109769500Y-104621139D01*
X109769500Y-105733918D01*
X109769500Y-105733920D01*
X109769499Y-105733920D01*
X109798340Y-105878907D01*
X109798343Y-105878917D01*
X109854913Y-106015490D01*
X109854914Y-106015492D01*
X109883082Y-106057648D01*
X109883083Y-106057650D01*
X109937043Y-106138410D01*
X109937047Y-106138415D01*
X110541586Y-106742954D01*
X110571058Y-106762645D01*
X110615270Y-106792186D01*
X110664505Y-106825084D01*
X110664506Y-106825084D01*
X110664507Y-106825085D01*
X110664509Y-106825086D01*
X110679864Y-106831446D01*
X110801087Y-106881658D01*
X110801091Y-106881658D01*
X110801092Y-106881659D01*
X110946079Y-106910500D01*
X110946082Y-106910500D01*
X112703920Y-106910500D01*
X112801462Y-106891096D01*
X112848913Y-106881658D01*
X112985495Y-106825084D01*
X113034729Y-106792186D01*
X113034734Y-106792183D01*
X113059071Y-106775921D01*
X113108416Y-106742952D01*
X118570748Y-101280617D01*
X118620110Y-101250369D01*
X118735777Y-101212787D01*
X118735783Y-101212785D01*
X118913266Y-101122353D01*
X119074418Y-101005269D01*
X119215269Y-100864418D01*
X119231838Y-100841613D01*
X119287169Y-100798948D01*
X119332155Y-100790500D01*
X119707845Y-100790500D01*
X119774884Y-100810185D01*
X119808162Y-100841613D01*
X119824731Y-100864418D01*
X119965582Y-101005269D01*
X120126734Y-101122353D01*
X120244159Y-101182184D01*
X120304219Y-101212786D01*
X120493657Y-101274338D01*
X120493658Y-101274338D01*
X120493661Y-101274339D01*
X120690403Y-101305500D01*
X120690404Y-101305500D01*
X120889596Y-101305500D01*
X120889597Y-101305500D01*
X121086339Y-101274339D01*
X121086342Y-101274338D01*
X121086343Y-101274338D01*
X121275780Y-101212786D01*
X121275780Y-101212785D01*
X121275783Y-101212785D01*
X121453266Y-101122353D01*
X121614418Y-101005269D01*
X121755269Y-100864418D01*
X121872353Y-100703266D01*
X121949515Y-100551827D01*
X121997490Y-100501031D01*
X122065311Y-100484236D01*
X122131446Y-100506773D01*
X122170485Y-100551827D01*
X122247647Y-100703266D01*
X122364731Y-100864418D01*
X122505582Y-101005269D01*
X122528383Y-101021835D01*
X122571050Y-101077162D01*
X122579500Y-101122154D01*
X122579500Y-104133918D01*
X122579500Y-104133920D01*
X122579499Y-104133920D01*
X122608340Y-104278907D01*
X122608343Y-104278917D01*
X122664912Y-104415488D01*
X122664920Y-104415502D01*
X122694076Y-104459136D01*
X122694077Y-104459139D01*
X122694078Y-104459139D01*
X122747051Y-104538420D01*
X122747052Y-104538421D01*
X128595007Y-110386374D01*
X128628492Y-110447697D01*
X128623508Y-110517389D01*
X128608902Y-110545177D01*
X128579433Y-110587263D01*
X128483261Y-110793502D01*
X128483258Y-110793511D01*
X128424366Y-111013302D01*
X128424364Y-111013312D01*
X128409500Y-111183214D01*
X128409500Y-111296785D01*
X128424364Y-111466687D01*
X128424366Y-111466697D01*
X128483258Y-111686488D01*
X128483261Y-111686497D01*
X128579431Y-111892732D01*
X128579432Y-111892734D01*
X128709954Y-112079141D01*
X128870858Y-112240045D01*
X128870861Y-112240047D01*
X129057266Y-112370568D01*
X129108655Y-112394531D01*
X129161095Y-112440703D01*
X129180247Y-112507896D01*
X129160032Y-112574778D01*
X129114705Y-112616271D01*
X129064288Y-112643219D01*
X129050217Y-112650741D01*
X129050214Y-112650742D01*
X129050200Y-112650751D01*
X128919206Y-112738278D01*
X128919194Y-112738287D01*
X128919189Y-112738290D01*
X128919189Y-112738291D01*
X128842588Y-112801157D01*
X128842585Y-112801160D01*
X128842582Y-112801162D01*
X128731162Y-112912582D01*
X128731160Y-112912585D01*
X128731157Y-112912588D01*
X128671316Y-112985503D01*
X128668287Y-112989194D01*
X128668278Y-112989206D01*
X128580751Y-113120200D01*
X128580734Y-113120228D01*
X128534031Y-113207603D01*
X128534029Y-113207608D01*
X128473722Y-113353200D01*
X128458186Y-113404416D01*
X128444956Y-113448032D01*
X128444955Y-113448036D01*
X128444955Y-113448037D01*
X128414211Y-113602599D01*
X128414211Y-113602602D01*
X128404500Y-113701209D01*
X128404500Y-113858790D01*
X128414211Y-113957397D01*
X128414211Y-113957400D01*
X128414213Y-113957410D01*
X128444956Y-114111968D01*
X128465954Y-114181190D01*
X128473722Y-114206799D01*
X128534029Y-114352391D01*
X128534031Y-114352396D01*
X128580734Y-114439771D01*
X128580751Y-114439799D01*
X128668278Y-114570793D01*
X128668286Y-114570804D01*
X128668291Y-114570811D01*
X128731157Y-114647412D01*
X128842588Y-114758843D01*
X128919189Y-114821709D01*
X128919198Y-114821715D01*
X128919206Y-114821721D01*
X129050200Y-114909248D01*
X129050205Y-114909251D01*
X129050217Y-114909259D01*
X129050226Y-114909263D01*
X129050228Y-114909265D01*
X129114704Y-114943728D01*
X129164548Y-114992690D01*
X129180009Y-115060828D01*
X129156178Y-115126507D01*
X129108657Y-115165468D01*
X129057264Y-115189433D01*
X128870858Y-115319954D01*
X128709954Y-115480858D01*
X128579432Y-115667265D01*
X128579431Y-115667267D01*
X128483260Y-115873504D01*
X128461893Y-115953245D01*
X128429800Y-116008830D01*
X126266048Y-118172583D01*
X126250635Y-118195652D01*
X126228412Y-118228912D01*
X126183919Y-118295499D01*
X126183912Y-118295511D01*
X126127343Y-118432082D01*
X126127340Y-118432092D01*
X126098500Y-118577079D01*
X126098500Y-118577082D01*
X126098500Y-134042918D01*
X126098500Y-134042920D01*
X126098499Y-134042920D01*
X126127340Y-134187907D01*
X126127343Y-134187917D01*
X126183912Y-134324488D01*
X126183919Y-134324501D01*
X126191262Y-134335489D01*
X126191264Y-134335495D01*
X126191265Y-134335495D01*
X126266046Y-134447414D01*
X126266052Y-134447421D01*
X128029824Y-136211192D01*
X128063309Y-136272515D01*
X128064616Y-136318271D01*
X128049500Y-136413707D01*
X128049500Y-136626286D01*
X128076638Y-136797632D01*
X128082754Y-136836243D01*
X128083460Y-136838417D01*
X128148444Y-137038414D01*
X128244951Y-137227820D01*
X128369890Y-137399786D01*
X128520213Y-137550109D01*
X128692182Y-137675050D01*
X128700946Y-137679516D01*
X128751742Y-137727491D01*
X128768536Y-137795312D01*
X128745998Y-137861447D01*
X128700946Y-137900484D01*
X128692182Y-137904949D01*
X128520213Y-138029890D01*
X128369890Y-138180213D01*
X128244951Y-138352179D01*
X128148444Y-138541585D01*
X128082753Y-138743760D01*
X128049500Y-138953713D01*
X128049500Y-139166286D01*
X128082753Y-139376239D01*
X128148444Y-139578414D01*
X128244951Y-139767820D01*
X128369890Y-139939786D01*
X128520213Y-140090109D01*
X128692182Y-140215050D01*
X128700946Y-140219516D01*
X128751742Y-140267491D01*
X128768536Y-140335312D01*
X128745998Y-140401447D01*
X128700946Y-140440484D01*
X128692182Y-140444949D01*
X128520213Y-140569890D01*
X128369890Y-140720213D01*
X128244951Y-140892179D01*
X128148444Y-141081585D01*
X128082753Y-141283760D01*
X128070742Y-141359596D01*
X128049500Y-141493713D01*
X128049500Y-141706287D01*
X128082754Y-141916243D01*
X128137398Y-142084420D01*
X128148444Y-142118414D01*
X128244951Y-142307820D01*
X128369890Y-142479786D01*
X128483430Y-142593326D01*
X128516915Y-142654649D01*
X128511931Y-142724341D01*
X128470059Y-142780274D01*
X128439083Y-142797189D01*
X128307669Y-142846203D01*
X128307664Y-142846206D01*
X128192455Y-142932452D01*
X128192452Y-142932455D01*
X128106206Y-143047664D01*
X128106202Y-143047671D01*
X128055908Y-143182517D01*
X128049501Y-143242116D01*
X128049501Y-143242123D01*
X128049500Y-143242135D01*
X128049500Y-145037870D01*
X128049501Y-145037876D01*
X128055908Y-145097483D01*
X128106202Y-145232328D01*
X128106206Y-145232335D01*
X128192452Y-145347544D01*
X128192455Y-145347547D01*
X128307664Y-145433793D01*
X128307671Y-145433797D01*
X128442517Y-145484091D01*
X128442516Y-145484091D01*
X128449444Y-145484835D01*
X128502127Y-145490500D01*
X130297872Y-145490499D01*
X130357483Y-145484091D01*
X130492331Y-145433796D01*
X130607546Y-145347546D01*
X130693796Y-145232331D01*
X130744091Y-145097483D01*
X130750500Y-145037873D01*
X130750499Y-144074174D01*
X130750499Y-143242129D01*
X130750498Y-143242123D01*
X130750497Y-143242116D01*
X130744091Y-143182517D01*
X130693884Y-143047906D01*
X130693797Y-143047671D01*
X130693793Y-143047664D01*
X130607547Y-142932455D01*
X130607544Y-142932452D01*
X130492335Y-142846206D01*
X130492328Y-142846202D01*
X130360917Y-142797189D01*
X130304983Y-142755318D01*
X130280566Y-142689853D01*
X130295418Y-142621580D01*
X130316563Y-142593332D01*
X130430104Y-142479792D01*
X130555051Y-142307816D01*
X130651557Y-142118412D01*
X130717246Y-141916243D01*
X130750500Y-141706287D01*
X130750500Y-141493713D01*
X130717246Y-141283757D01*
X130651557Y-141081588D01*
X130555051Y-140892184D01*
X130555049Y-140892181D01*
X130555048Y-140892179D01*
X130430109Y-140720213D01*
X130279786Y-140569890D01*
X130107820Y-140444951D01*
X130107115Y-140444591D01*
X130099054Y-140440485D01*
X130048259Y-140392512D01*
X130031463Y-140324692D01*
X130053999Y-140258556D01*
X130099054Y-140219515D01*
X130107816Y-140215051D01*
X130159299Y-140177647D01*
X130279786Y-140090109D01*
X130279788Y-140090106D01*
X130279792Y-140090104D01*
X130430104Y-139939792D01*
X130430106Y-139939788D01*
X130430109Y-139939786D01*
X130555048Y-139767820D01*
X130555047Y-139767820D01*
X130555051Y-139767816D01*
X130651557Y-139578412D01*
X130717246Y-139376243D01*
X130750500Y-139166287D01*
X130750500Y-138953713D01*
X130717246Y-138743757D01*
X130651557Y-138541588D01*
X130555051Y-138352184D01*
X130555049Y-138352181D01*
X130555048Y-138352179D01*
X130430109Y-138180213D01*
X130279786Y-138029890D01*
X130107820Y-137904951D01*
X130107115Y-137904591D01*
X130099054Y-137900485D01*
X130048259Y-137852512D01*
X130031463Y-137784692D01*
X130053999Y-137718556D01*
X130099054Y-137679515D01*
X130107816Y-137675051D01*
X130129789Y-137659086D01*
X130279786Y-137550109D01*
X130279788Y-137550106D01*
X130279792Y-137550104D01*
X130430104Y-137399792D01*
X130430106Y-137399788D01*
X130430109Y-137399786D01*
X130555048Y-137227820D01*
X130555047Y-137227820D01*
X130555051Y-137227816D01*
X130651557Y-137038412D01*
X130717246Y-136836243D01*
X130750500Y-136626287D01*
X130750500Y-136413713D01*
X130717246Y-136203757D01*
X130651557Y-136001588D01*
X130555051Y-135812184D01*
X130555049Y-135812181D01*
X130555048Y-135812179D01*
X130430109Y-135640213D01*
X130279786Y-135489890D01*
X130107820Y-135364951D01*
X130107115Y-135364591D01*
X130099054Y-135360485D01*
X130048259Y-135312512D01*
X130031463Y-135244692D01*
X130053999Y-135178556D01*
X130099054Y-135139515D01*
X130107816Y-135135051D01*
X130129789Y-135119086D01*
X130279786Y-135010109D01*
X130279788Y-135010106D01*
X130279792Y-135010104D01*
X130430104Y-134859792D01*
X130430106Y-134859788D01*
X130430109Y-134859786D01*
X130555048Y-134687820D01*
X130555047Y-134687820D01*
X130555051Y-134687816D01*
X130651557Y-134498412D01*
X130717246Y-134296243D01*
X130750500Y-134086287D01*
X130750500Y-133873713D01*
X130717246Y-133663757D01*
X130651557Y-133461588D01*
X130555051Y-133272184D01*
X130555049Y-133272181D01*
X130555048Y-133272179D01*
X130430109Y-133100213D01*
X130279786Y-132949890D01*
X130107820Y-132824951D01*
X130107115Y-132824591D01*
X130099054Y-132820485D01*
X130048259Y-132772512D01*
X130031463Y-132704692D01*
X130053999Y-132638556D01*
X130099054Y-132599515D01*
X130107816Y-132595051D01*
X130129789Y-132579086D01*
X130279786Y-132470109D01*
X130279788Y-132470106D01*
X130279792Y-132470104D01*
X130430104Y-132319792D01*
X130430106Y-132319788D01*
X130430109Y-132319786D01*
X130555048Y-132147820D01*
X130555047Y-132147820D01*
X130555051Y-132147816D01*
X130651557Y-131958412D01*
X130717246Y-131756243D01*
X130750500Y-131546287D01*
X130750500Y-131333713D01*
X130735382Y-131238268D01*
X130744336Y-131168979D01*
X130770171Y-131131195D01*
X136982952Y-124918416D01*
X137002730Y-124888815D01*
X137043079Y-124828429D01*
X137043081Y-124828424D01*
X137043087Y-124828416D01*
X137065084Y-124795495D01*
X137121658Y-124658913D01*
X137148448Y-124524235D01*
X137150500Y-124513920D01*
X137150500Y-84076079D01*
X137121659Y-83931092D01*
X137121658Y-83931091D01*
X137121658Y-83931087D01*
X137121656Y-83931082D01*
X137065087Y-83794511D01*
X137065080Y-83794498D01*
X136982952Y-83671585D01*
X136977745Y-83666378D01*
X136878416Y-83567049D01*
X136306832Y-82995465D01*
X134382075Y-81070706D01*
X134321369Y-81010000D01*
X147811128Y-81010000D01*
X147814983Y-81024390D01*
X147817680Y-81037081D01*
X147822010Y-81064420D01*
X147842095Y-81126236D01*
X147843938Y-81132456D01*
X147863733Y-81206325D01*
X147863735Y-81206329D01*
X147874994Y-81230476D01*
X147922302Y-81331927D01*
X147959866Y-81412483D01*
X147967989Y-81424085D01*
X147976894Y-81438905D01*
X147978135Y-81441342D01*
X147978139Y-81441348D01*
X148010523Y-81485921D01*
X148010524Y-81485922D01*
X148486446Y-81010000D01*
X147811128Y-81010000D01*
X134321369Y-81010000D01*
X133821368Y-80509999D01*
X147811126Y-80509999D01*
X147811127Y-80510000D01*
X148486446Y-80510000D01*
X148486446Y-80509999D01*
X148010524Y-80034077D01*
X148010523Y-80034077D01*
X147978136Y-80078656D01*
X147978135Y-80078657D01*
X147976894Y-80081094D01*
X147920400Y-80191972D01*
X147920398Y-80191973D01*
X147885242Y-80260974D01*
X147885241Y-80260976D01*
X147880538Y-80275449D01*
X147874993Y-80289526D01*
X147863733Y-80313673D01*
X147843944Y-80387524D01*
X147842101Y-80393745D01*
X147822012Y-80455572D01*
X147822009Y-80455585D01*
X147817680Y-80482918D01*
X147814982Y-80495612D01*
X147811126Y-80509999D01*
X133821368Y-80509999D01*
X133478421Y-80167052D01*
X133478417Y-80167049D01*
X133478416Y-80167048D01*
X133355494Y-80084916D01*
X133355492Y-80084915D01*
X133355490Y-80084914D01*
X133218912Y-80028342D01*
X133218906Y-80028340D01*
X133073919Y-79999500D01*
X133073917Y-79999500D01*
X132926082Y-79999500D01*
X132926081Y-79999500D01*
X132887790Y-80007117D01*
X132863597Y-80009500D01*
X132436663Y-80009500D01*
X132369624Y-79989815D01*
X132335088Y-79956623D01*
X132310045Y-79920858D01*
X132149140Y-79759953D01*
X132066078Y-79701793D01*
X132065180Y-79701164D01*
X131991610Y-79647713D01*
X131981448Y-79642535D01*
X131974346Y-79637562D01*
X131962736Y-79629433D01*
X131952826Y-79624812D01*
X131904723Y-79602380D01*
X131894066Y-79592996D01*
X131880866Y-79587773D01*
X131868368Y-79570369D01*
X131852285Y-79556208D01*
X131848393Y-79542552D01*
X131840112Y-79531021D01*
X131839007Y-79509621D01*
X131833134Y-79489014D01*
X131837241Y-79475423D01*
X131836510Y-79461244D01*
X131847149Y-79442644D01*
X131853350Y-79422133D01*
X131864830Y-79411737D01*
X131871204Y-79400597D01*
X131895623Y-79383856D01*
X131899872Y-79380010D01*
X131902252Y-79378770D01*
X131962734Y-79350568D01*
X131981002Y-79337775D01*
X131988207Y-79334025D01*
X131988416Y-79333983D01*
X131989180Y-79333524D01*
X131991610Y-79332287D01*
X132064358Y-79279432D01*
X132066047Y-79278227D01*
X132149139Y-79220047D01*
X132310047Y-79059139D01*
X132368821Y-78975199D01*
X132422287Y-78901610D01*
X132427465Y-78891446D01*
X132440568Y-78872734D01*
X132441946Y-78869780D01*
X132445360Y-78862457D01*
X132479067Y-78790172D01*
X132515220Y-78719219D01*
X132522266Y-78697532D01*
X132536739Y-78666496D01*
X132536742Y-78666488D01*
X132556534Y-78592617D01*
X132557377Y-78589471D01*
X132578477Y-78524534D01*
X132583825Y-78490766D01*
X132595635Y-78446692D01*
X132601215Y-78382892D01*
X132602270Y-78374306D01*
X132610500Y-78322350D01*
X132610500Y-78117649D01*
X132607969Y-78101673D01*
X132601593Y-78061417D01*
X132595635Y-77993308D01*
X132583825Y-77949233D01*
X132578477Y-77915466D01*
X132558378Y-77853609D01*
X132556535Y-77847386D01*
X132536742Y-77773513D01*
X132536740Y-77773510D01*
X132536739Y-77773504D01*
X132522266Y-77742467D01*
X132515220Y-77720781D01*
X132479067Y-77649827D01*
X132440568Y-77567266D01*
X132432436Y-77555652D01*
X132432436Y-77555651D01*
X132427462Y-77548548D01*
X132422287Y-77538390D01*
X132368821Y-77464800D01*
X132368215Y-77463935D01*
X132368205Y-77463920D01*
X132310045Y-77380858D01*
X132149141Y-77219954D01*
X132083155Y-77173751D01*
X132039530Y-77119175D01*
X132032336Y-77049677D01*
X132063858Y-76987322D01*
X132123612Y-76952028D01*
X132143226Y-76947022D01*
X132216735Y-76916574D01*
X132265551Y-76893219D01*
X132380733Y-76806994D01*
X132436994Y-76750733D01*
X132473157Y-76710475D01*
X132546574Y-76586735D01*
X132577022Y-76513226D01*
X132595024Y-76462198D01*
X132615500Y-76319782D01*
X132615500Y-75374500D01*
X132635185Y-75307461D01*
X132687989Y-75261706D01*
X132739500Y-75250500D01*
X147660500Y-75250500D01*
X147727539Y-75270185D01*
X147773294Y-75322989D01*
X147784500Y-75374500D01*
X147784500Y-76319784D01*
X147787395Y-76373814D01*
X147787396Y-76373818D01*
X147822976Y-76513221D01*
X147822980Y-76513233D01*
X147853419Y-76586719D01*
X147853431Y-76586747D01*
X147876779Y-76635548D01*
X147876782Y-76635553D01*
X147894213Y-76658837D01*
X147963006Y-76750733D01*
X147963010Y-76750737D01*
X147963015Y-76750743D01*
X148019252Y-76806980D01*
X148019261Y-76806988D01*
X148019267Y-76806994D01*
X148058610Y-76842335D01*
X148059524Y-76843156D01*
X148059532Y-76843162D01*
X148183263Y-76916573D01*
X148183262Y-76916573D01*
X148183279Y-76916580D01*
X148256774Y-76947022D01*
X148270961Y-76952027D01*
X148284660Y-76956860D01*
X148341332Y-76997726D01*
X148366913Y-77062745D01*
X148353281Y-77131272D01*
X148314531Y-77175370D01*
X148250858Y-77219955D01*
X148089954Y-77380859D01*
X148031781Y-77463934D01*
X148031782Y-77463935D01*
X148031132Y-77464863D01*
X147977713Y-77538390D01*
X147972535Y-77548550D01*
X147967560Y-77555656D01*
X147967558Y-77555656D01*
X147959433Y-77567262D01*
X147921838Y-77647882D01*
X147920920Y-77649849D01*
X147884780Y-77720781D01*
X147877735Y-77742458D01*
X147874532Y-77749329D01*
X147874529Y-77749338D01*
X147863261Y-77773503D01*
X147863261Y-77773504D01*
X147843459Y-77847404D01*
X147843458Y-77847403D01*
X147842614Y-77850551D01*
X147821523Y-77915466D01*
X147816175Y-77949224D01*
X147814492Y-77955507D01*
X147814492Y-77955511D01*
X147804366Y-77993304D01*
X147804364Y-77993313D01*
X147798783Y-78057106D01*
X147797728Y-78065697D01*
X147789500Y-78117643D01*
X147789500Y-78117648D01*
X147789500Y-78322352D01*
X147798406Y-78378582D01*
X147804365Y-78446692D01*
X147816171Y-78490756D01*
X147817188Y-78497175D01*
X147817190Y-78497181D01*
X147821521Y-78524525D01*
X147821522Y-78524530D01*
X147841617Y-78586378D01*
X147843460Y-78592600D01*
X147863260Y-78666494D01*
X147874529Y-78690662D01*
X147877733Y-78697532D01*
X147884780Y-78719219D01*
X147920930Y-78790169D01*
X147921844Y-78792128D01*
X147959432Y-78872734D01*
X147967562Y-78884346D01*
X147972535Y-78891448D01*
X147977713Y-78901610D01*
X148031164Y-78975180D01*
X148031793Y-78976078D01*
X148089953Y-79059140D01*
X148250858Y-79220045D01*
X148250861Y-79220047D01*
X148334800Y-79278821D01*
X148408390Y-79332287D01*
X148418547Y-79337462D01*
X148425648Y-79342434D01*
X148425652Y-79342436D01*
X148437266Y-79350568D01*
X148437270Y-79350570D01*
X148495864Y-79377893D01*
X148506528Y-79387282D01*
X148519741Y-79392514D01*
X148532229Y-79409912D01*
X148548304Y-79424065D01*
X148552199Y-79437731D01*
X148560485Y-79449274D01*
X148561585Y-79470661D01*
X148567456Y-79491258D01*
X148563344Y-79504859D01*
X148564075Y-79519052D01*
X148553436Y-79537640D01*
X148547241Y-79558139D01*
X148535753Y-79568538D01*
X148529370Y-79579693D01*
X148504925Y-79596446D01*
X148500698Y-79600274D01*
X148412032Y-79646411D01*
X148411832Y-79646450D01*
X148411094Y-79646894D01*
X148408657Y-79648135D01*
X148408656Y-79648136D01*
X148364077Y-79680523D01*
X148364077Y-79680524D01*
X148960591Y-80277037D01*
X148897007Y-80294075D01*
X148782993Y-80359901D01*
X148689901Y-80452993D01*
X148624075Y-80567007D01*
X148590000Y-80694174D01*
X148590000Y-80825826D01*
X148624075Y-80952993D01*
X148689901Y-81067007D01*
X148782993Y-81160099D01*
X148897007Y-81225925D01*
X148960589Y-81242962D01*
X148364076Y-81839474D01*
X148408652Y-81871860D01*
X148411076Y-81873095D01*
X148411834Y-81873811D01*
X148412810Y-81874409D01*
X148412684Y-81874613D01*
X148416598Y-81878309D01*
X148425923Y-81882015D01*
X148437517Y-81890134D01*
X148495863Y-81917340D01*
X148548303Y-81963511D01*
X148567456Y-82030705D01*
X148547241Y-82097586D01*
X148495868Y-82142104D01*
X148451921Y-82162598D01*
X148437269Y-82169431D01*
X148437260Y-82169435D01*
X148425651Y-82177563D01*
X148410847Y-82186460D01*
X148408397Y-82187708D01*
X148408394Y-82187710D01*
X148335696Y-82240526D01*
X148333939Y-82241779D01*
X148250859Y-82299954D01*
X148089954Y-82460859D01*
X148031781Y-82543934D01*
X148031782Y-82543935D01*
X148031132Y-82544863D01*
X147977713Y-82618390D01*
X147972535Y-82628550D01*
X147967560Y-82635656D01*
X147967558Y-82635656D01*
X147959433Y-82647262D01*
X147921838Y-82727882D01*
X147920920Y-82729849D01*
X147884780Y-82800781D01*
X147877735Y-82822458D01*
X147874532Y-82829329D01*
X147874529Y-82829338D01*
X147863261Y-82853503D01*
X147863261Y-82853504D01*
X147843459Y-82927404D01*
X147843458Y-82927403D01*
X147842614Y-82930551D01*
X147821523Y-82995466D01*
X147816175Y-83029224D01*
X147814492Y-83035507D01*
X147814492Y-83035511D01*
X147804366Y-83073304D01*
X147804364Y-83073313D01*
X147798783Y-83137106D01*
X147797728Y-83145697D01*
X147789500Y-83197643D01*
X147789500Y-83197648D01*
X147789500Y-83402352D01*
X147798406Y-83458582D01*
X147804365Y-83526692D01*
X147816171Y-83570756D01*
X147817188Y-83577175D01*
X147817190Y-83577181D01*
X147821521Y-83604525D01*
X147821522Y-83604530D01*
X147841617Y-83666378D01*
X147843460Y-83672600D01*
X147863260Y-83746494D01*
X147874529Y-83770662D01*
X147877733Y-83777532D01*
X147884780Y-83799219D01*
X147920930Y-83870169D01*
X147921844Y-83872128D01*
X147959432Y-83952734D01*
X147967562Y-83964346D01*
X147972535Y-83971448D01*
X147977713Y-83981610D01*
X148031164Y-84055180D01*
X148031793Y-84056078D01*
X148089953Y-84139140D01*
X148250858Y-84300045D01*
X148250861Y-84300047D01*
X148334800Y-84358821D01*
X148408390Y-84412287D01*
X148418547Y-84417462D01*
X148425648Y-84422434D01*
X148425652Y-84422436D01*
X148437266Y-84430568D01*
X148437270Y-84430570D01*
X148495272Y-84457617D01*
X148505927Y-84466999D01*
X148519131Y-84472224D01*
X148531629Y-84489629D01*
X148547712Y-84503789D01*
X148551604Y-84517444D01*
X148559886Y-84528977D01*
X148560990Y-84550375D01*
X148566864Y-84570982D01*
X148562755Y-84584573D01*
X148563488Y-84598754D01*
X148552848Y-84617352D01*
X148546649Y-84637864D01*
X148535167Y-84648259D01*
X148528794Y-84659401D01*
X148504369Y-84676145D01*
X148500126Y-84679988D01*
X148497711Y-84681244D01*
X148437266Y-84709432D01*
X148419002Y-84722219D01*
X148411792Y-84725973D01*
X148411591Y-84726012D01*
X148410847Y-84726460D01*
X148408397Y-84727708D01*
X148408394Y-84727710D01*
X148335696Y-84780526D01*
X148333939Y-84781779D01*
X148250859Y-84839954D01*
X148089954Y-85000859D01*
X148031781Y-85083934D01*
X148031782Y-85083935D01*
X148031132Y-85084863D01*
X147977713Y-85158390D01*
X147972535Y-85168550D01*
X147967560Y-85175656D01*
X147967558Y-85175656D01*
X147959433Y-85187262D01*
X147921838Y-85267882D01*
X147920920Y-85269849D01*
X147884780Y-85340781D01*
X147877735Y-85362458D01*
X147874532Y-85369329D01*
X147874529Y-85369338D01*
X147863261Y-85393503D01*
X147863261Y-85393504D01*
X147843459Y-85467404D01*
X147843458Y-85467403D01*
X147842614Y-85470551D01*
X147821523Y-85535466D01*
X147816175Y-85569224D01*
X147814492Y-85575507D01*
X147814492Y-85575510D01*
X147813632Y-85578719D01*
X147804366Y-85613304D01*
X147804364Y-85613313D01*
X147798783Y-85677106D01*
X147797728Y-85685697D01*
X147789500Y-85737643D01*
X147789500Y-85737648D01*
X147789500Y-85942352D01*
X147798406Y-85998582D01*
X147804365Y-86066692D01*
X147816171Y-86110756D01*
X147817188Y-86117175D01*
X147817190Y-86117181D01*
X147821521Y-86144525D01*
X147821522Y-86144530D01*
X147841617Y-86206378D01*
X147843460Y-86212600D01*
X147863260Y-86286494D01*
X147874529Y-86310662D01*
X147874958Y-86311581D01*
X147877733Y-86317532D01*
X147884780Y-86339219D01*
X147920930Y-86410169D01*
X147921844Y-86412128D01*
X147959432Y-86492734D01*
X147967562Y-86504346D01*
X147972535Y-86511448D01*
X147977713Y-86521610D01*
X148031164Y-86595180D01*
X148031793Y-86596078D01*
X148089953Y-86679140D01*
X148250857Y-86840044D01*
X148250860Y-86840046D01*
X148250861Y-86840047D01*
X148316843Y-86886248D01*
X148360469Y-86940824D01*
X148367663Y-87010322D01*
X148336141Y-87072677D01*
X148276391Y-87107970D01*
X148256780Y-87112975D01*
X148256766Y-87112980D01*
X148183280Y-87143419D01*
X148183252Y-87143431D01*
X148134451Y-87166779D01*
X148134446Y-87166782D01*
X148019268Y-87253005D01*
X148019256Y-87253015D01*
X147963019Y-87309252D01*
X147926843Y-87349524D01*
X147926837Y-87349532D01*
X147853426Y-87473263D01*
X147822978Y-87546774D01*
X147822970Y-87546795D01*
X147804976Y-87597800D01*
X147804976Y-87597802D01*
X147790211Y-87700500D01*
X147784500Y-87740219D01*
X147784500Y-89019784D01*
X147787395Y-89073814D01*
X147787396Y-89073818D01*
X147822976Y-89213221D01*
X147822980Y-89213233D01*
X147853419Y-89286719D01*
X147853431Y-89286747D01*
X147876779Y-89335548D01*
X147876781Y-89335551D01*
X147963006Y-89450733D01*
X147963010Y-89450737D01*
X147963015Y-89450743D01*
X148019252Y-89506980D01*
X148019261Y-89506988D01*
X148019267Y-89506994D01*
X148021790Y-89509260D01*
X148059524Y-89543156D01*
X148059532Y-89543162D01*
X148183263Y-89616573D01*
X148183262Y-89616573D01*
X148183279Y-89616580D01*
X148256774Y-89647022D01*
X148270961Y-89652027D01*
X148284660Y-89656860D01*
X148341332Y-89697726D01*
X148366913Y-89762745D01*
X148353281Y-89831272D01*
X148314531Y-89875370D01*
X148250858Y-89919955D01*
X148089954Y-90080859D01*
X148031781Y-90163934D01*
X148031782Y-90163935D01*
X148031132Y-90164863D01*
X147977713Y-90238390D01*
X147972535Y-90248550D01*
X147967560Y-90255656D01*
X147967558Y-90255656D01*
X147959433Y-90267262D01*
X147921838Y-90347882D01*
X147920920Y-90349849D01*
X147884780Y-90420781D01*
X147877735Y-90442458D01*
X147874532Y-90449329D01*
X147874529Y-90449338D01*
X147863261Y-90473503D01*
X147863261Y-90473504D01*
X147843459Y-90547404D01*
X147843458Y-90547403D01*
X147842614Y-90550551D01*
X147821523Y-90615466D01*
X147816175Y-90649224D01*
X147814492Y-90655507D01*
X147814492Y-90655511D01*
X147804366Y-90693304D01*
X147804364Y-90693313D01*
X147798783Y-90757106D01*
X147797728Y-90765697D01*
X147789500Y-90817643D01*
X147789500Y-90817648D01*
X147789500Y-91022352D01*
X147798406Y-91078582D01*
X147804365Y-91146692D01*
X147816171Y-91190756D01*
X147817188Y-91197175D01*
X147817190Y-91197181D01*
X147821521Y-91224525D01*
X147821522Y-91224530D01*
X147841617Y-91286378D01*
X147843460Y-91292600D01*
X147863260Y-91366494D01*
X147874529Y-91390662D01*
X147877733Y-91397532D01*
X147884780Y-91419219D01*
X147920930Y-91490169D01*
X147921844Y-91492128D01*
X147959432Y-91572734D01*
X147967562Y-91584346D01*
X147972535Y-91591448D01*
X147977713Y-91601610D01*
X148031164Y-91675180D01*
X148031793Y-91676078D01*
X148089953Y-91759140D01*
X148250858Y-91920045D01*
X148268194Y-91932184D01*
X148334800Y-91978821D01*
X148408390Y-92032287D01*
X148418547Y-92037462D01*
X148425648Y-92042434D01*
X148425652Y-92042436D01*
X148437266Y-92050568D01*
X148437270Y-92050570D01*
X148495272Y-92077617D01*
X148505927Y-92086999D01*
X148519131Y-92092224D01*
X148531629Y-92109629D01*
X148547712Y-92123789D01*
X148551604Y-92137444D01*
X148559886Y-92148977D01*
X148560990Y-92170375D01*
X148566864Y-92190982D01*
X148562755Y-92204573D01*
X148563488Y-92218754D01*
X148552848Y-92237352D01*
X148546649Y-92257864D01*
X148535167Y-92268259D01*
X148528794Y-92279401D01*
X148504369Y-92296145D01*
X148500126Y-92299988D01*
X148497711Y-92301244D01*
X148437266Y-92329432D01*
X148419002Y-92342219D01*
X148411792Y-92345973D01*
X148411591Y-92346012D01*
X148410847Y-92346460D01*
X148408397Y-92347708D01*
X148408394Y-92347710D01*
X148335696Y-92400526D01*
X148333939Y-92401779D01*
X148250859Y-92459954D01*
X148089954Y-92620859D01*
X148031781Y-92703934D01*
X148031782Y-92703935D01*
X148031132Y-92704863D01*
X147977713Y-92778390D01*
X147972535Y-92788550D01*
X147967560Y-92795656D01*
X147967558Y-92795656D01*
X147959433Y-92807262D01*
X147921838Y-92887882D01*
X147920920Y-92889849D01*
X147884780Y-92960781D01*
X147877735Y-92982458D01*
X147874532Y-92989329D01*
X147874529Y-92989338D01*
X147863261Y-93013503D01*
X147863261Y-93013504D01*
X147843459Y-93087404D01*
X147843458Y-93087403D01*
X147842614Y-93090551D01*
X147821523Y-93155466D01*
X147816175Y-93189224D01*
X147814492Y-93195507D01*
X147814492Y-93195511D01*
X147804366Y-93233304D01*
X147804364Y-93233313D01*
X147798783Y-93297106D01*
X147797728Y-93305697D01*
X147789500Y-93357643D01*
X147789500Y-93357648D01*
X147789500Y-93562352D01*
X147798406Y-93618582D01*
X147804365Y-93686692D01*
X147816171Y-93730756D01*
X147817188Y-93737175D01*
X147817190Y-93737181D01*
X147821521Y-93764525D01*
X147821522Y-93764530D01*
X147841617Y-93826378D01*
X147843460Y-93832600D01*
X147863260Y-93906494D01*
X147874529Y-93930662D01*
X147877733Y-93937532D01*
X147884780Y-93959219D01*
X147920930Y-94030169D01*
X147921844Y-94032128D01*
X147959432Y-94112734D01*
X147967562Y-94124346D01*
X147972535Y-94131448D01*
X147977713Y-94141610D01*
X148031164Y-94215180D01*
X148031793Y-94216078D01*
X148089953Y-94299140D01*
X148250858Y-94460045D01*
X148332400Y-94517141D01*
X148334800Y-94518821D01*
X148408390Y-94572287D01*
X148418547Y-94577462D01*
X148425648Y-94582434D01*
X148425652Y-94582436D01*
X148437266Y-94590568D01*
X148437270Y-94590570D01*
X148495272Y-94617617D01*
X148505927Y-94626999D01*
X148519131Y-94632224D01*
X148531629Y-94649629D01*
X148547712Y-94663789D01*
X148551604Y-94677444D01*
X148559886Y-94688977D01*
X148560990Y-94710375D01*
X148566864Y-94730982D01*
X148562755Y-94744573D01*
X148563488Y-94758754D01*
X148552848Y-94777352D01*
X148546649Y-94797864D01*
X148535167Y-94808259D01*
X148528794Y-94819401D01*
X148504369Y-94836145D01*
X148500126Y-94839988D01*
X148497711Y-94841244D01*
X148437266Y-94869432D01*
X148419002Y-94882219D01*
X148411792Y-94885973D01*
X148411591Y-94886012D01*
X148410847Y-94886460D01*
X148408397Y-94887708D01*
X148408394Y-94887710D01*
X148335696Y-94940526D01*
X148333939Y-94941779D01*
X148250859Y-94999954D01*
X148089954Y-95160859D01*
X148031781Y-95243934D01*
X148031782Y-95243935D01*
X148031132Y-95244863D01*
X147977713Y-95318390D01*
X147972535Y-95328550D01*
X147967560Y-95335656D01*
X147967558Y-95335656D01*
X147959433Y-95347262D01*
X147921838Y-95427882D01*
X147920920Y-95429849D01*
X147884780Y-95500781D01*
X147877735Y-95522458D01*
X147874532Y-95529329D01*
X147874529Y-95529338D01*
X147863261Y-95553503D01*
X147863261Y-95553504D01*
X147843459Y-95627404D01*
X147843458Y-95627403D01*
X147842614Y-95630551D01*
X147821523Y-95695466D01*
X147816175Y-95729224D01*
X147814492Y-95735507D01*
X147814492Y-95735511D01*
X147804366Y-95773304D01*
X147804364Y-95773313D01*
X147798783Y-95837106D01*
X147797728Y-95845697D01*
X147789500Y-95897643D01*
X147789500Y-95897648D01*
X147789500Y-96102352D01*
X147798406Y-96158582D01*
X147804365Y-96226692D01*
X147816171Y-96270756D01*
X147817188Y-96277175D01*
X147817190Y-96277181D01*
X147821521Y-96304525D01*
X147821522Y-96304530D01*
X147841617Y-96366378D01*
X147843460Y-96372600D01*
X147863260Y-96446494D01*
X147874529Y-96470662D01*
X147877733Y-96477532D01*
X147884780Y-96499219D01*
X147920930Y-96570169D01*
X147921844Y-96572128D01*
X147959432Y-96652734D01*
X147967562Y-96664346D01*
X147972535Y-96671448D01*
X147977713Y-96681610D01*
X148031164Y-96755180D01*
X148031793Y-96756078D01*
X148089953Y-96839140D01*
X148250858Y-97000045D01*
X148250861Y-97000047D01*
X148334800Y-97058821D01*
X148408390Y-97112287D01*
X148418547Y-97117462D01*
X148425648Y-97122434D01*
X148425652Y-97122436D01*
X148437266Y-97130568D01*
X148437270Y-97130570D01*
X148495272Y-97157617D01*
X148505927Y-97166999D01*
X148519131Y-97172224D01*
X148531629Y-97189629D01*
X148547712Y-97203789D01*
X148551604Y-97217444D01*
X148559886Y-97228977D01*
X148560990Y-97250375D01*
X148566864Y-97270982D01*
X148562755Y-97284573D01*
X148563488Y-97298754D01*
X148552848Y-97317352D01*
X148546649Y-97337864D01*
X148535167Y-97348259D01*
X148528794Y-97359401D01*
X148504369Y-97376145D01*
X148500126Y-97379988D01*
X148497711Y-97381244D01*
X148437266Y-97409432D01*
X148419002Y-97422219D01*
X148411792Y-97425973D01*
X148411591Y-97426012D01*
X148410847Y-97426460D01*
X148408397Y-97427708D01*
X148408394Y-97427710D01*
X148335696Y-97480526D01*
X148333939Y-97481779D01*
X148250859Y-97539954D01*
X148089954Y-97700859D01*
X148031781Y-97783934D01*
X148031782Y-97783935D01*
X148031132Y-97784863D01*
X147977713Y-97858390D01*
X147972535Y-97868550D01*
X147967560Y-97875656D01*
X147967558Y-97875656D01*
X147959433Y-97887262D01*
X147921838Y-97967882D01*
X147920920Y-97969849D01*
X147884780Y-98040781D01*
X147877735Y-98062458D01*
X147874532Y-98069329D01*
X147874529Y-98069338D01*
X147863261Y-98093503D01*
X147863261Y-98093504D01*
X147843459Y-98167404D01*
X147843458Y-98167403D01*
X147842614Y-98170551D01*
X147821523Y-98235466D01*
X147816175Y-98269224D01*
X147814492Y-98275507D01*
X147814492Y-98275511D01*
X147804366Y-98313304D01*
X147804364Y-98313313D01*
X147798783Y-98377106D01*
X147797728Y-98385697D01*
X147789500Y-98437643D01*
X147789500Y-98437648D01*
X147789500Y-98642352D01*
X147798406Y-98698582D01*
X147804365Y-98766692D01*
X147816171Y-98810756D01*
X147817188Y-98817175D01*
X147817190Y-98817181D01*
X147821521Y-98844525D01*
X147821522Y-98844530D01*
X147821523Y-98844534D01*
X147839347Y-98899391D01*
X147841617Y-98906378D01*
X147843460Y-98912600D01*
X147863260Y-98986494D01*
X147874529Y-99010662D01*
X147877733Y-99017532D01*
X147884780Y-99039219D01*
X147920930Y-99110169D01*
X147921844Y-99112128D01*
X147959432Y-99192734D01*
X147967562Y-99204346D01*
X147972535Y-99211448D01*
X147977713Y-99221610D01*
X148031164Y-99295180D01*
X148031793Y-99296078D01*
X148089953Y-99379140D01*
X148250857Y-99540044D01*
X148250860Y-99540046D01*
X148250861Y-99540047D01*
X148316843Y-99586248D01*
X148360469Y-99640824D01*
X148367663Y-99710322D01*
X148336141Y-99772677D01*
X148276391Y-99807970D01*
X148256780Y-99812975D01*
X148256766Y-99812980D01*
X148183280Y-99843419D01*
X148183252Y-99843431D01*
X148134451Y-99866779D01*
X148134446Y-99866782D01*
X148019268Y-99953005D01*
X148019256Y-99953015D01*
X147963019Y-100009252D01*
X147926843Y-100049524D01*
X147926837Y-100049532D01*
X147853426Y-100173263D01*
X147822978Y-100246774D01*
X147822970Y-100246795D01*
X147804976Y-100297800D01*
X147804976Y-100297802D01*
X147784501Y-100440215D01*
X147784500Y-100440219D01*
X147784500Y-101719784D01*
X147787395Y-101773814D01*
X147787396Y-101773818D01*
X147822976Y-101913221D01*
X147822980Y-101913233D01*
X147853419Y-101986719D01*
X147853431Y-101986747D01*
X147876779Y-102035548D01*
X147876781Y-102035551D01*
X147963006Y-102150733D01*
X147963010Y-102150737D01*
X147963015Y-102150743D01*
X148019252Y-102206980D01*
X148019261Y-102206988D01*
X148019267Y-102206994D01*
X148021790Y-102209260D01*
X148059524Y-102243156D01*
X148059532Y-102243162D01*
X148183263Y-102316573D01*
X148183262Y-102316573D01*
X148183279Y-102316580D01*
X148256774Y-102347022D01*
X148270961Y-102352027D01*
X148284660Y-102356860D01*
X148341332Y-102397726D01*
X148366913Y-102462745D01*
X148353281Y-102531272D01*
X148314531Y-102575370D01*
X148250858Y-102619955D01*
X148089954Y-102780859D01*
X148031781Y-102863934D01*
X148031782Y-102863935D01*
X148031132Y-102864863D01*
X147977713Y-102938390D01*
X147972535Y-102948550D01*
X147967560Y-102955656D01*
X147967558Y-102955656D01*
X147959433Y-102967262D01*
X147921838Y-103047882D01*
X147920920Y-103049849D01*
X147884780Y-103120781D01*
X147877735Y-103142458D01*
X147874532Y-103149329D01*
X147874529Y-103149338D01*
X147863261Y-103173503D01*
X147863261Y-103173504D01*
X147843459Y-103247404D01*
X147843458Y-103247403D01*
X147842614Y-103250551D01*
X147821523Y-103315466D01*
X147816175Y-103349224D01*
X147814492Y-103355507D01*
X147814492Y-103355511D01*
X147804366Y-103393304D01*
X147804364Y-103393313D01*
X147798783Y-103457106D01*
X147797728Y-103465697D01*
X147789500Y-103517643D01*
X147789500Y-103517648D01*
X147789500Y-103722352D01*
X147798406Y-103778582D01*
X147804365Y-103846692D01*
X147816171Y-103890756D01*
X147817188Y-103897175D01*
X147817190Y-103897181D01*
X147821521Y-103924525D01*
X147821522Y-103924530D01*
X147821523Y-103924534D01*
X147821609Y-103924799D01*
X147841617Y-103986378D01*
X147843460Y-103992600D01*
X147863260Y-104066494D01*
X147874529Y-104090662D01*
X147877733Y-104097532D01*
X147884780Y-104119219D01*
X147920930Y-104190169D01*
X147921844Y-104192128D01*
X147959432Y-104272734D01*
X147967562Y-104284346D01*
X147972535Y-104291448D01*
X147977713Y-104301610D01*
X148031164Y-104375180D01*
X148031793Y-104376078D01*
X148089953Y-104459140D01*
X148250858Y-104620045D01*
X148252420Y-104621139D01*
X148334800Y-104678821D01*
X148408390Y-104732287D01*
X148418547Y-104737462D01*
X148425648Y-104742434D01*
X148425652Y-104742436D01*
X148437266Y-104750568D01*
X148437270Y-104750570D01*
X148495272Y-104777617D01*
X148505927Y-104786999D01*
X148519131Y-104792224D01*
X148531629Y-104809629D01*
X148547712Y-104823789D01*
X148551604Y-104837444D01*
X148559886Y-104848977D01*
X148560990Y-104870375D01*
X148566864Y-104890982D01*
X148562755Y-104904573D01*
X148563488Y-104918754D01*
X148552848Y-104937352D01*
X148546649Y-104957864D01*
X148535167Y-104968259D01*
X148528794Y-104979401D01*
X148504369Y-104996145D01*
X148500126Y-104999988D01*
X148497711Y-105001244D01*
X148437266Y-105029432D01*
X148419002Y-105042219D01*
X148411792Y-105045973D01*
X148411591Y-105046012D01*
X148410847Y-105046460D01*
X148408397Y-105047708D01*
X148408394Y-105047710D01*
X148335696Y-105100526D01*
X148333939Y-105101779D01*
X148250859Y-105159954D01*
X148089954Y-105320859D01*
X148031781Y-105403934D01*
X148031782Y-105403935D01*
X148031132Y-105404863D01*
X147977713Y-105478390D01*
X147972535Y-105488550D01*
X147967560Y-105495656D01*
X147967558Y-105495656D01*
X147959433Y-105507262D01*
X147921838Y-105587882D01*
X147920920Y-105589849D01*
X147884780Y-105660781D01*
X147877735Y-105682458D01*
X147874532Y-105689329D01*
X147874529Y-105689338D01*
X147863261Y-105713503D01*
X147863261Y-105713504D01*
X147843459Y-105787404D01*
X147843458Y-105787403D01*
X147842614Y-105790551D01*
X147821523Y-105855466D01*
X147816175Y-105889224D01*
X147814492Y-105895507D01*
X147814492Y-105895511D01*
X147804366Y-105933304D01*
X147804364Y-105933313D01*
X147798783Y-105997106D01*
X147797728Y-106005697D01*
X147789500Y-106057643D01*
X147789500Y-106057648D01*
X147789500Y-106262352D01*
X147798406Y-106318582D01*
X147804365Y-106386692D01*
X147816171Y-106430756D01*
X147817188Y-106437175D01*
X147817190Y-106437181D01*
X147821521Y-106464525D01*
X147821522Y-106464530D01*
X147841617Y-106526378D01*
X147843460Y-106532600D01*
X147863260Y-106606494D01*
X147874529Y-106630662D01*
X147877733Y-106637532D01*
X147884780Y-106659219D01*
X147920930Y-106730169D01*
X147921844Y-106732128D01*
X147959432Y-106812734D01*
X147967562Y-106824346D01*
X147972535Y-106831448D01*
X147977713Y-106841610D01*
X148031164Y-106915180D01*
X148031793Y-106916078D01*
X148089953Y-106999140D01*
X148250858Y-107160045D01*
X148250861Y-107160047D01*
X148334800Y-107218821D01*
X148408390Y-107272287D01*
X148418547Y-107277462D01*
X148425648Y-107282434D01*
X148425652Y-107282436D01*
X148437266Y-107290568D01*
X148437270Y-107290570D01*
X148495272Y-107317617D01*
X148505927Y-107326999D01*
X148519131Y-107332224D01*
X148531629Y-107349629D01*
X148547712Y-107363789D01*
X148551604Y-107377444D01*
X148559886Y-107388977D01*
X148560990Y-107410375D01*
X148566864Y-107430982D01*
X148562755Y-107444573D01*
X148563488Y-107458754D01*
X148552848Y-107477352D01*
X148546649Y-107497864D01*
X148535167Y-107508259D01*
X148528794Y-107519401D01*
X148504369Y-107536145D01*
X148500126Y-107539988D01*
X148497711Y-107541244D01*
X148437266Y-107569432D01*
X148419002Y-107582219D01*
X148411792Y-107585973D01*
X148411591Y-107586012D01*
X148410847Y-107586460D01*
X148408397Y-107587708D01*
X148408394Y-107587710D01*
X148335696Y-107640526D01*
X148333939Y-107641779D01*
X148250859Y-107699954D01*
X148089954Y-107860859D01*
X148031781Y-107943934D01*
X148031782Y-107943935D01*
X148031132Y-107944863D01*
X147977713Y-108018390D01*
X147972535Y-108028550D01*
X147967560Y-108035656D01*
X147967558Y-108035656D01*
X147959433Y-108047262D01*
X147921838Y-108127882D01*
X147920920Y-108129849D01*
X147884780Y-108200781D01*
X147877735Y-108222458D01*
X147874532Y-108229329D01*
X147874529Y-108229338D01*
X147863261Y-108253503D01*
X147863261Y-108253504D01*
X147843459Y-108327404D01*
X147843458Y-108327403D01*
X147842614Y-108330551D01*
X147821523Y-108395466D01*
X147816175Y-108429224D01*
X147814492Y-108435507D01*
X147814492Y-108435511D01*
X147804366Y-108473304D01*
X147804364Y-108473313D01*
X147798783Y-108537106D01*
X147797728Y-108545697D01*
X147789500Y-108597643D01*
X147789500Y-108802352D01*
X147789499Y-108802352D01*
X147797728Y-108854304D01*
X147798783Y-108862890D01*
X147799130Y-108866855D01*
X147785365Y-108935356D01*
X147763283Y-108965347D01*
X144417047Y-112311584D01*
X144405594Y-112328726D01*
X144389852Y-112352287D01*
X144377638Y-112370567D01*
X144334914Y-112434507D01*
X144278343Y-112571082D01*
X144278340Y-112571092D01*
X144249500Y-112716079D01*
X144249500Y-112716082D01*
X144249500Y-129393918D01*
X144249500Y-129393920D01*
X144249499Y-129393920D01*
X144278340Y-129538907D01*
X144278343Y-129538917D01*
X144334914Y-129675492D01*
X144367812Y-129724727D01*
X144367813Y-129724730D01*
X144417046Y-129798414D01*
X144417052Y-129798421D01*
X150829824Y-136211191D01*
X150863309Y-136272514D01*
X150864616Y-136318270D01*
X150849500Y-136413707D01*
X150849500Y-136626286D01*
X150876638Y-136797632D01*
X150882754Y-136836243D01*
X150883460Y-136838417D01*
X150948444Y-137038414D01*
X151044951Y-137227820D01*
X151169890Y-137399786D01*
X151320213Y-137550109D01*
X151492182Y-137675050D01*
X151500946Y-137679516D01*
X151551742Y-137727491D01*
X151568536Y-137795312D01*
X151545998Y-137861447D01*
X151500946Y-137900484D01*
X151492182Y-137904949D01*
X151320213Y-138029890D01*
X151169890Y-138180213D01*
X151044951Y-138352179D01*
X150948444Y-138541585D01*
X150882753Y-138743760D01*
X150849500Y-138953713D01*
X150849500Y-139166286D01*
X150882753Y-139376239D01*
X150948444Y-139578414D01*
X151044951Y-139767820D01*
X151169890Y-139939786D01*
X151320213Y-140090109D01*
X151492182Y-140215050D01*
X151500946Y-140219516D01*
X151551742Y-140267491D01*
X151568536Y-140335312D01*
X151545998Y-140401447D01*
X151500946Y-140440484D01*
X151492182Y-140444949D01*
X151320213Y-140569890D01*
X151169890Y-140720213D01*
X151044951Y-140892179D01*
X150948444Y-141081585D01*
X150882753Y-141283760D01*
X150870742Y-141359596D01*
X150849500Y-141493713D01*
X150849500Y-141706287D01*
X150882754Y-141916243D01*
X150937398Y-142084420D01*
X150948444Y-142118414D01*
X151044951Y-142307820D01*
X151169890Y-142479786D01*
X151283818Y-142593714D01*
X151317303Y-142655037D01*
X151312319Y-142724729D01*
X151270447Y-142780662D01*
X151239471Y-142797577D01*
X151107912Y-142846646D01*
X151107906Y-142846649D01*
X150992812Y-142932809D01*
X150992809Y-142932812D01*
X150906649Y-143047906D01*
X150906645Y-143047913D01*
X150856403Y-143182620D01*
X150856401Y-143182627D01*
X150850000Y-143242155D01*
X150850000Y-143890000D01*
X151766988Y-143890000D01*
X151734075Y-143947007D01*
X151700000Y-144074174D01*
X151700000Y-144205826D01*
X151734075Y-144332993D01*
X151766988Y-144390000D01*
X150850000Y-144390000D01*
X150850000Y-145037844D01*
X150856401Y-145097372D01*
X150856403Y-145097379D01*
X150906645Y-145232086D01*
X150906649Y-145232093D01*
X150992809Y-145347187D01*
X150992812Y-145347190D01*
X151107906Y-145433350D01*
X151107913Y-145433354D01*
X151242620Y-145483596D01*
X151242627Y-145483598D01*
X151302155Y-145489999D01*
X151302172Y-145490000D01*
X151950000Y-145490000D01*
X151950000Y-144573012D01*
X152007007Y-144605925D01*
X152134174Y-144640000D01*
X152265826Y-144640000D01*
X152392993Y-144605925D01*
X152450000Y-144573012D01*
X152450000Y-145490000D01*
X153097828Y-145490000D01*
X153097844Y-145489999D01*
X153157372Y-145483598D01*
X153157379Y-145483596D01*
X153292086Y-145433354D01*
X153292093Y-145433350D01*
X153407187Y-145347190D01*
X153407190Y-145347187D01*
X153493350Y-145232093D01*
X153493354Y-145232086D01*
X153543596Y-145097379D01*
X153543598Y-145097372D01*
X153549999Y-145037844D01*
X153550000Y-145037827D01*
X153550000Y-144390000D01*
X152633012Y-144390000D01*
X152665925Y-144332993D01*
X152700000Y-144205826D01*
X152700000Y-144074174D01*
X152665925Y-143947007D01*
X152633012Y-143890000D01*
X153550000Y-143890000D01*
X153550000Y-143242172D01*
X153549999Y-143242155D01*
X153543598Y-143182627D01*
X153543596Y-143182620D01*
X153493354Y-143047913D01*
X153493350Y-143047906D01*
X153407190Y-142932812D01*
X153407187Y-142932809D01*
X153292093Y-142846649D01*
X153292088Y-142846646D01*
X153160528Y-142797577D01*
X153104595Y-142755705D01*
X153080178Y-142690241D01*
X153095030Y-142621968D01*
X153116175Y-142593720D01*
X153230104Y-142479792D01*
X153355051Y-142307816D01*
X153451557Y-142118412D01*
X153517246Y-141916243D01*
X153550500Y-141706287D01*
X153550500Y-141493713D01*
X153517246Y-141283757D01*
X153451557Y-141081588D01*
X153355051Y-140892184D01*
X153355049Y-140892181D01*
X153355048Y-140892179D01*
X153230109Y-140720213D01*
X153079786Y-140569890D01*
X152907820Y-140444951D01*
X152907115Y-140444591D01*
X152899054Y-140440485D01*
X152848259Y-140392512D01*
X152831463Y-140324692D01*
X152853999Y-140258556D01*
X152899054Y-140219515D01*
X152907816Y-140215051D01*
X152959299Y-140177647D01*
X153079786Y-140090109D01*
X153079788Y-140090106D01*
X153079792Y-140090104D01*
X153230104Y-139939792D01*
X153230106Y-139939788D01*
X153230109Y-139939786D01*
X153355048Y-139767820D01*
X153355047Y-139767820D01*
X153355051Y-139767816D01*
X153451557Y-139578412D01*
X153517246Y-139376243D01*
X153550500Y-139166287D01*
X153550500Y-138953713D01*
X153535382Y-138858268D01*
X153544336Y-138788979D01*
X153570171Y-138751195D01*
X155482952Y-136838415D01*
X155510205Y-136797627D01*
X155565084Y-136715495D01*
X155615443Y-136593918D01*
X155621659Y-136578912D01*
X155650500Y-136433917D01*
X155650500Y-136286082D01*
X155650500Y-125981230D01*
X155670185Y-125914191D01*
X155722989Y-125868436D01*
X155792147Y-125858492D01*
X155855703Y-125887517D01*
X155862181Y-125893549D01*
X157451584Y-127482952D01*
X157499622Y-127515049D01*
X157499624Y-127515051D01*
X157499625Y-127515051D01*
X157574505Y-127565084D01*
X157711087Y-127621658D01*
X157711091Y-127621658D01*
X157711092Y-127621659D01*
X157856079Y-127650500D01*
X157856082Y-127650500D01*
X167873920Y-127650500D01*
X168003660Y-127624692D01*
X168018913Y-127621658D01*
X168155495Y-127565084D01*
X168230375Y-127515051D01*
X168278416Y-127482952D01*
X169807346Y-125954019D01*
X169868667Y-125920536D01*
X169933342Y-125923771D01*
X169950140Y-125929228D01*
X169969361Y-125935474D01*
X170222070Y-125975500D01*
X170222071Y-125975500D01*
X170477929Y-125975500D01*
X170477930Y-125975500D01*
X170730639Y-125935474D01*
X170973975Y-125856410D01*
X171201947Y-125740252D01*
X171408942Y-125589862D01*
X171589862Y-125408942D01*
X171624681Y-125361016D01*
X171680011Y-125318351D01*
X171749624Y-125312372D01*
X171811420Y-125344977D01*
X171825317Y-125361015D01*
X171837658Y-125378000D01*
X171860138Y-125408942D01*
X172041059Y-125589863D01*
X172041064Y-125589867D01*
X172116320Y-125644543D01*
X172248053Y-125740252D01*
X172397080Y-125816185D01*
X172476024Y-125856410D01*
X172476027Y-125856411D01*
X172571763Y-125887517D01*
X172719361Y-125935474D01*
X172972070Y-125975500D01*
X172972071Y-125975500D01*
X173227929Y-125975500D01*
X173227930Y-125975500D01*
X173480639Y-125935474D01*
X173723975Y-125856410D01*
X173951947Y-125740252D01*
X174158942Y-125589862D01*
X174337319Y-125411485D01*
X174398642Y-125378000D01*
X174468334Y-125382984D01*
X174512681Y-125411485D01*
X174691059Y-125589863D01*
X174691064Y-125589867D01*
X174766320Y-125644543D01*
X174898053Y-125740252D01*
X175047080Y-125816185D01*
X175126024Y-125856410D01*
X175126027Y-125856411D01*
X175221763Y-125887517D01*
X175369361Y-125935474D01*
X175622070Y-125975500D01*
X175622071Y-125975500D01*
X175877929Y-125975500D01*
X175877930Y-125975500D01*
X176130639Y-125935474D01*
X176373975Y-125856410D01*
X176601947Y-125740252D01*
X176808942Y-125589862D01*
X176989862Y-125408942D01*
X177024681Y-125361016D01*
X177080011Y-125318351D01*
X177149624Y-125312372D01*
X177211420Y-125344977D01*
X177225317Y-125361015D01*
X177237658Y-125378000D01*
X177260138Y-125408942D01*
X177441059Y-125589863D01*
X177441064Y-125589867D01*
X177516320Y-125644543D01*
X177648053Y-125740252D01*
X177797080Y-125816185D01*
X177876024Y-125856410D01*
X177876027Y-125856411D01*
X177971763Y-125887517D01*
X178119361Y-125935474D01*
X178372070Y-125975500D01*
X178372071Y-125975500D01*
X178627929Y-125975500D01*
X178627930Y-125975500D01*
X178880639Y-125935474D01*
X179123975Y-125856410D01*
X179351947Y-125740252D01*
X179558942Y-125589862D01*
X179636985Y-125511819D01*
X179663912Y-125497115D01*
X179689731Y-125480523D01*
X179695931Y-125479631D01*
X179698308Y-125478334D01*
X179724666Y-125475500D01*
X179725500Y-125475500D01*
X179792539Y-125495185D01*
X179838294Y-125547989D01*
X179849500Y-125599500D01*
X179849500Y-128950664D01*
X179829815Y-129017703D01*
X179813181Y-129038345D01*
X162438345Y-146413181D01*
X162377022Y-146446666D01*
X162350664Y-146449500D01*
X126249336Y-146449500D01*
X126182297Y-146429815D01*
X126161655Y-146413181D01*
X124616819Y-144868345D01*
X124583334Y-144807022D01*
X124580500Y-144780664D01*
X124580500Y-141464058D01*
X124582027Y-141444660D01*
X124595500Y-141359596D01*
X124595500Y-141160403D01*
X124583016Y-141081585D01*
X124564339Y-140963661D01*
X124564338Y-140963657D01*
X124564338Y-140963656D01*
X124502786Y-140774219D01*
X124489514Y-140748172D01*
X124412353Y-140596734D01*
X124295269Y-140435582D01*
X124154418Y-140294731D01*
X123993266Y-140177647D01*
X123914379Y-140137452D01*
X123815780Y-140087213D01*
X123626342Y-140025661D01*
X123478782Y-140002290D01*
X123429597Y-139994500D01*
X123230403Y-139994500D01*
X123164822Y-140004887D01*
X123033659Y-140025661D01*
X123033656Y-140025661D01*
X122844219Y-140087213D01*
X122666733Y-140177647D01*
X122609109Y-140219514D01*
X122505582Y-140294731D01*
X122505580Y-140294733D01*
X122505579Y-140294733D01*
X122364733Y-140435579D01*
X122364733Y-140435580D01*
X122364731Y-140435582D01*
X122332772Y-140479570D01*
X122247647Y-140596733D01*
X122170485Y-140748172D01*
X122122510Y-140798968D01*
X122054689Y-140815763D01*
X121988554Y-140793225D01*
X121949515Y-140748172D01*
X121907877Y-140666453D01*
X121872353Y-140596734D01*
X121755269Y-140435582D01*
X121614418Y-140294731D01*
X121453266Y-140177647D01*
X121374379Y-140137452D01*
X121275780Y-140087213D01*
X121086342Y-140025661D01*
X120938782Y-140002290D01*
X120889597Y-139994500D01*
X120690403Y-139994500D01*
X120624822Y-140004887D01*
X120493659Y-140025661D01*
X120493656Y-140025661D01*
X120304219Y-140087213D01*
X120126733Y-140177647D01*
X120069109Y-140219514D01*
X119965582Y-140294731D01*
X119965580Y-140294733D01*
X119965579Y-140294733D01*
X119824733Y-140435579D01*
X119824733Y-140435580D01*
X119824731Y-140435582D01*
X119792772Y-140479570D01*
X119707647Y-140596733D01*
X119630485Y-140748172D01*
X119582510Y-140798968D01*
X119514689Y-140815763D01*
X119448554Y-140793225D01*
X119409515Y-140748172D01*
X119367877Y-140666453D01*
X119332353Y-140596734D01*
X119215269Y-140435582D01*
X119074418Y-140294731D01*
X118913266Y-140177647D01*
X118834379Y-140137452D01*
X118735780Y-140087213D01*
X118546342Y-140025661D01*
X118398782Y-140002290D01*
X118349597Y-139994500D01*
X118150403Y-139994500D01*
X118084822Y-140004887D01*
X117953659Y-140025661D01*
X117953656Y-140025661D01*
X117764219Y-140087213D01*
X117586733Y-140177647D01*
X117529109Y-140219514D01*
X117425582Y-140294731D01*
X117425580Y-140294733D01*
X117425579Y-140294733D01*
X117284733Y-140435579D01*
X117284733Y-140435580D01*
X117284731Y-140435582D01*
X117252772Y-140479570D01*
X117199817Y-140552456D01*
X117144487Y-140595121D01*
X117074873Y-140601100D01*
X117013078Y-140568494D01*
X116978721Y-140507655D01*
X116975499Y-140479570D01*
X116975499Y-140447129D01*
X116975498Y-140447123D01*
X116975497Y-140447116D01*
X116969091Y-140387517D01*
X116954517Y-140348443D01*
X116918797Y-140252671D01*
X116918793Y-140252664D01*
X116832547Y-140137455D01*
X116832544Y-140137452D01*
X116717335Y-140051206D01*
X116717328Y-140051202D01*
X116582482Y-140000908D01*
X116582483Y-140000908D01*
X116522883Y-139994501D01*
X116522881Y-139994500D01*
X116522873Y-139994500D01*
X116522864Y-139994500D01*
X114897129Y-139994500D01*
X114897123Y-139994501D01*
X114837516Y-140000908D01*
X114702671Y-140051202D01*
X114702664Y-140051206D01*
X114587455Y-140137452D01*
X114587452Y-140137455D01*
X114501206Y-140252664D01*
X114501202Y-140252671D01*
X114450908Y-140387517D01*
X114445741Y-140435580D01*
X114444501Y-140447123D01*
X114444500Y-140447135D01*
X114444500Y-142072870D01*
X114444501Y-142072876D01*
X114450908Y-142132483D01*
X114501202Y-142267328D01*
X114501206Y-142267335D01*
X114587452Y-142382544D01*
X114587455Y-142382547D01*
X114702664Y-142468793D01*
X114702671Y-142468797D01*
X114837517Y-142519091D01*
X114837516Y-142519091D01*
X114844444Y-142519835D01*
X114897127Y-142525500D01*
X116522872Y-142525499D01*
X116582483Y-142519091D01*
X116717331Y-142468796D01*
X116832546Y-142382546D01*
X116918796Y-142267331D01*
X116969091Y-142132483D01*
X116975500Y-142072873D01*
X116975499Y-142040430D01*
X116995182Y-141973394D01*
X117047984Y-141927638D01*
X117117143Y-141917693D01*
X117180699Y-141946716D01*
X117199817Y-141967545D01*
X117204067Y-141973394D01*
X117284731Y-142084418D01*
X117425582Y-142225269D01*
X117586734Y-142342353D01*
X117764217Y-142432785D01*
X117764219Y-142432786D01*
X117953657Y-142494338D01*
X117953658Y-142494338D01*
X117953661Y-142494339D01*
X118150403Y-142525500D01*
X118150404Y-142525500D01*
X118349596Y-142525500D01*
X118349597Y-142525500D01*
X118546339Y-142494339D01*
X118546342Y-142494338D01*
X118546343Y-142494338D01*
X118735780Y-142432786D01*
X118735780Y-142432785D01*
X118735783Y-142432785D01*
X118913266Y-142342353D01*
X119074418Y-142225269D01*
X119215269Y-142084418D01*
X119332353Y-141923266D01*
X119409515Y-141771827D01*
X119457490Y-141721031D01*
X119525311Y-141704236D01*
X119591446Y-141726773D01*
X119630485Y-141771827D01*
X119707647Y-141923266D01*
X119824731Y-142084418D01*
X119965582Y-142225269D01*
X120126734Y-142342353D01*
X120304217Y-142432785D01*
X120304219Y-142432786D01*
X120493657Y-142494338D01*
X120493658Y-142494338D01*
X120493661Y-142494339D01*
X120690403Y-142525500D01*
X120690404Y-142525500D01*
X120889596Y-142525500D01*
X120889597Y-142525500D01*
X121086339Y-142494339D01*
X121086342Y-142494338D01*
X121086343Y-142494338D01*
X121275780Y-142432786D01*
X121275780Y-142432785D01*
X121275783Y-142432785D01*
X121453266Y-142342353D01*
X121614418Y-142225269D01*
X121755269Y-142084418D01*
X121855183Y-141946897D01*
X121910512Y-141904234D01*
X121980125Y-141898255D01*
X122041920Y-141930861D01*
X122076278Y-141991700D01*
X122079500Y-142019785D01*
X122079500Y-145448422D01*
X122110290Y-145642826D01*
X122171117Y-145830030D01*
X122260476Y-146005405D01*
X122376172Y-146164646D01*
X124865354Y-148653828D01*
X125024595Y-148769524D01*
X125107454Y-148811742D01*
X125199969Y-148858882D01*
X125199971Y-148858882D01*
X125199974Y-148858884D01*
X125300318Y-148891487D01*
X125387173Y-148919709D01*
X125581578Y-148950500D01*
X125581583Y-148950500D01*
X163018422Y-148950500D01*
X163212826Y-148919709D01*
X163400026Y-148858884D01*
X163575405Y-148769524D01*
X163734646Y-148653828D01*
X182053829Y-130334645D01*
X182169524Y-130175405D01*
X182258884Y-130000025D01*
X182319709Y-129812826D01*
X182350500Y-129618421D01*
X182350500Y-125434588D01*
X182370185Y-125367549D01*
X182374164Y-125361728D01*
X182490252Y-125201947D01*
X182606410Y-124973975D01*
X182685474Y-124730639D01*
X182725500Y-124477930D01*
X182725500Y-124222070D01*
X182685474Y-123969361D01*
X182645942Y-123847693D01*
X182606411Y-123726027D01*
X182606410Y-123726024D01*
X182566185Y-123647080D01*
X182490252Y-123498053D01*
X182453268Y-123447149D01*
X182339867Y-123291064D01*
X182339863Y-123291059D01*
X182261819Y-123213015D01*
X182228334Y-123151692D01*
X182225500Y-123125334D01*
X182225500Y-122849223D01*
X183099500Y-122849223D01*
X183099500Y-123150776D01*
X183099501Y-123150793D01*
X183138861Y-123449766D01*
X183216913Y-123741060D01*
X183332314Y-124019661D01*
X183332318Y-124019671D01*
X183483099Y-124280831D01*
X183666679Y-124520078D01*
X183666685Y-124520085D01*
X183879914Y-124733314D01*
X183879921Y-124733320D01*
X184119168Y-124916900D01*
X184380328Y-125067681D01*
X184380329Y-125067681D01*
X184380332Y-125067683D01*
X184478738Y-125108444D01*
X184658939Y-125183086D01*
X184658940Y-125183086D01*
X184658942Y-125183087D01*
X184950232Y-125261138D01*
X185249217Y-125300500D01*
X185249224Y-125300500D01*
X185550776Y-125300500D01*
X185550783Y-125300500D01*
X185849768Y-125261138D01*
X186141058Y-125183087D01*
X186419668Y-125067683D01*
X186680832Y-124916900D01*
X186920080Y-124733319D01*
X187133319Y-124520080D01*
X187316900Y-124280832D01*
X187467683Y-124019668D01*
X187583087Y-123741058D01*
X187661138Y-123449768D01*
X187700500Y-123150783D01*
X187700500Y-122849217D01*
X187661138Y-122550232D01*
X187583087Y-122258942D01*
X187578691Y-122248330D01*
X187467685Y-121980338D01*
X187467681Y-121980328D01*
X187316900Y-121719168D01*
X187133320Y-121479921D01*
X187133314Y-121479914D01*
X186920085Y-121266685D01*
X186920078Y-121266679D01*
X186680831Y-121083099D01*
X186419671Y-120932318D01*
X186419661Y-120932314D01*
X186141060Y-120816913D01*
X185849766Y-120738861D01*
X185550793Y-120699501D01*
X185550788Y-120699500D01*
X185550783Y-120699500D01*
X185249217Y-120699500D01*
X185249211Y-120699500D01*
X185249206Y-120699501D01*
X184950233Y-120738861D01*
X184658939Y-120816913D01*
X184380338Y-120932314D01*
X184380328Y-120932318D01*
X184119168Y-121083099D01*
X183879921Y-121266679D01*
X183879914Y-121266685D01*
X183666685Y-121479914D01*
X183666679Y-121479921D01*
X183483099Y-121719168D01*
X183332318Y-121980328D01*
X183332314Y-121980338D01*
X183216913Y-122258939D01*
X183138861Y-122550233D01*
X183099501Y-122849206D01*
X183099500Y-122849223D01*
X182225500Y-122849223D01*
X182225500Y-97761421D01*
X182215908Y-97700859D01*
X182197786Y-97586445D01*
X182163783Y-97481793D01*
X182143043Y-97417960D01*
X182143042Y-97417957D01*
X182089696Y-97313261D01*
X182062614Y-97260110D01*
X182005562Y-97181584D01*
X181968499Y-97130570D01*
X181958487Y-97116789D01*
X170090921Y-85249223D01*
X183099500Y-85249223D01*
X183099500Y-85550776D01*
X183099501Y-85550793D01*
X183138861Y-85849766D01*
X183216913Y-86141060D01*
X183332314Y-86419661D01*
X183332318Y-86419671D01*
X183483099Y-86680831D01*
X183666679Y-86920078D01*
X183666685Y-86920085D01*
X183879914Y-87133314D01*
X183879921Y-87133320D01*
X184119168Y-87316900D01*
X184380328Y-87467681D01*
X184380329Y-87467681D01*
X184380332Y-87467683D01*
X184566072Y-87544619D01*
X184658939Y-87583086D01*
X184658940Y-87583086D01*
X184658942Y-87583087D01*
X184950232Y-87661138D01*
X185249217Y-87700500D01*
X185249224Y-87700500D01*
X185550776Y-87700500D01*
X185550783Y-87700500D01*
X185849768Y-87661138D01*
X186141058Y-87583087D01*
X186419668Y-87467683D01*
X186680832Y-87316900D01*
X186920080Y-87133319D01*
X187133319Y-86920080D01*
X187316900Y-86680832D01*
X187467683Y-86419668D01*
X187583087Y-86141058D01*
X187661138Y-85849768D01*
X187700500Y-85550783D01*
X187700500Y-85249217D01*
X187661138Y-84950232D01*
X187583087Y-84658942D01*
X187578691Y-84648330D01*
X187528327Y-84526739D01*
X187467683Y-84380332D01*
X187421330Y-84300047D01*
X187316900Y-84119168D01*
X187133320Y-83879921D01*
X187133314Y-83879914D01*
X186920085Y-83666685D01*
X186920078Y-83666679D01*
X186680831Y-83483099D01*
X186419671Y-83332318D01*
X186419661Y-83332314D01*
X186141060Y-83216913D01*
X185849766Y-83138861D01*
X185550793Y-83099501D01*
X185550788Y-83099500D01*
X185550783Y-83099500D01*
X185249217Y-83099500D01*
X185249211Y-83099500D01*
X185249206Y-83099501D01*
X184950233Y-83138861D01*
X184658939Y-83216913D01*
X184380338Y-83332314D01*
X184380328Y-83332318D01*
X184119168Y-83483099D01*
X183879921Y-83666679D01*
X183879914Y-83666685D01*
X183666685Y-83879914D01*
X183666679Y-83879921D01*
X183483099Y-84119168D01*
X183332318Y-84380328D01*
X183332314Y-84380338D01*
X183216913Y-84658939D01*
X183138861Y-84950233D01*
X183099501Y-85249206D01*
X183099500Y-85249223D01*
X170090921Y-85249223D01*
X154583219Y-69741521D01*
X154583215Y-69741518D01*
X154583214Y-69741517D01*
X154569542Y-69731584D01*
X154439890Y-69637386D01*
X154282042Y-69556957D01*
X154282036Y-69556955D01*
X154176642Y-69522711D01*
X154176629Y-69522707D01*
X154173171Y-69521584D01*
X154113556Y-69502214D01*
X154074433Y-69496017D01*
X154068531Y-69494476D01*
X154043607Y-69479499D01*
X154017332Y-69467044D01*
X154014016Y-69461718D01*
X154008641Y-69458489D01*
X153995772Y-69432418D01*
X153980401Y-69407732D01*
X153980490Y-69401459D01*
X153977715Y-69395837D01*
X153980983Y-69366947D01*
X153981399Y-69337870D01*
X153984864Y-69332642D01*
X153985570Y-69326410D01*
X154003942Y-69303869D01*
X154020009Y-69279637D01*
X154025750Y-69277113D01*
X154029713Y-69272252D01*
X154057356Y-69263221D01*
X154083973Y-69251523D01*
X154095425Y-69250785D01*
X154096129Y-69250556D01*
X154097168Y-69250673D01*
X154099865Y-69250500D01*
X158397770Y-69250500D01*
X158464809Y-69270185D01*
X158485451Y-69286819D01*
X159117023Y-69918390D01*
X159677048Y-70478415D01*
X159677049Y-70478416D01*
X159781584Y-70582951D01*
X159781585Y-70582952D01*
X159904498Y-70665080D01*
X159904511Y-70665087D01*
X160018089Y-70712132D01*
X160041087Y-70721658D01*
X160041091Y-70721658D01*
X160041092Y-70721659D01*
X160186079Y-70750500D01*
X160186082Y-70750500D01*
X169653597Y-70750500D01*
X169677790Y-70752883D01*
X169716081Y-70760500D01*
X169716082Y-70760500D01*
X169863917Y-70760500D01*
X174358861Y-70760500D01*
X174421981Y-70777767D01*
X174430607Y-70782869D01*
X174432631Y-70783457D01*
X174584791Y-70827664D01*
X174584794Y-70827664D01*
X174584796Y-70827665D01*
X174620819Y-70830500D01*
X175019180Y-70830499D01*
X175055204Y-70827665D01*
X175209393Y-70782869D01*
X175266882Y-70748869D01*
X175334602Y-70731688D01*
X175375910Y-70740415D01*
X175384838Y-70743973D01*
X175450607Y-70782869D01*
X175567996Y-70816973D01*
X175573558Y-70819190D01*
X175588119Y-70830604D01*
X175615329Y-70846697D01*
X177227022Y-72458390D01*
X178663898Y-73895265D01*
X178697383Y-73956588D01*
X178692399Y-74026280D01*
X178650527Y-74082213D01*
X178599623Y-74102243D01*
X178600068Y-74104124D01*
X178592520Y-74105907D01*
X178457671Y-74156202D01*
X178457664Y-74156206D01*
X178342455Y-74242452D01*
X178342452Y-74242455D01*
X178256206Y-74357664D01*
X178256202Y-74357671D01*
X178205908Y-74492517D01*
X178199649Y-74550739D01*
X178199501Y-74552123D01*
X178199500Y-74552135D01*
X178199500Y-76647870D01*
X178199501Y-76647876D01*
X178205908Y-76707483D01*
X178256202Y-76842328D01*
X178256206Y-76842335D01*
X178342452Y-76957544D01*
X178342455Y-76957547D01*
X178457664Y-77043793D01*
X178457671Y-77043797D01*
X178592517Y-77094091D01*
X178592516Y-77094091D01*
X178599444Y-77094835D01*
X178652127Y-77100500D01*
X180747872Y-77100499D01*
X180807483Y-77094091D01*
X180942331Y-77043796D01*
X181057546Y-76957546D01*
X181143796Y-76842331D01*
X181194091Y-76707483D01*
X181200500Y-76647873D01*
X181200499Y-75481902D01*
X183199500Y-75481902D01*
X183199500Y-75718097D01*
X183236446Y-75951368D01*
X183309433Y-76175996D01*
X183392896Y-76339799D01*
X183416657Y-76386433D01*
X183555483Y-76577510D01*
X183722490Y-76744517D01*
X183913567Y-76883343D01*
X184012991Y-76934002D01*
X184124003Y-76990566D01*
X184124005Y-76990566D01*
X184124008Y-76990568D01*
X184244412Y-77029689D01*
X184348631Y-77063553D01*
X184581903Y-77100500D01*
X184581908Y-77100500D01*
X184818097Y-77100500D01*
X185051368Y-77063553D01*
X185090211Y-77050932D01*
X185275992Y-76990568D01*
X185486433Y-76883343D01*
X185677510Y-76744517D01*
X185844517Y-76577510D01*
X185983343Y-76386433D01*
X186090568Y-76175992D01*
X186163553Y-75951368D01*
X186200500Y-75718097D01*
X186200500Y-75481902D01*
X186163553Y-75248631D01*
X186117730Y-75107603D01*
X186090568Y-75024008D01*
X186090566Y-75024005D01*
X186090566Y-75024003D01*
X185983342Y-74813566D01*
X185844517Y-74622490D01*
X185677510Y-74455483D01*
X185486433Y-74316657D01*
X185275996Y-74209433D01*
X185051368Y-74136446D01*
X184818097Y-74099500D01*
X184818092Y-74099500D01*
X184581908Y-74099500D01*
X184581903Y-74099500D01*
X184348631Y-74136446D01*
X184124003Y-74209433D01*
X183913566Y-74316657D01*
X183857119Y-74357669D01*
X183722490Y-74455483D01*
X183722488Y-74455485D01*
X183722487Y-74455485D01*
X183555485Y-74622487D01*
X183555485Y-74622488D01*
X183555483Y-74622490D01*
X183544006Y-74638287D01*
X183416657Y-74813566D01*
X183309433Y-75024003D01*
X183236446Y-75248631D01*
X183199500Y-75481902D01*
X181200499Y-75481902D01*
X181200499Y-74552128D01*
X181194091Y-74492517D01*
X181180278Y-74455483D01*
X181143797Y-74357671D01*
X181143793Y-74357664D01*
X181057547Y-74242455D01*
X181057544Y-74242452D01*
X180942335Y-74156206D01*
X180942328Y-74156202D01*
X180807482Y-74105908D01*
X180807483Y-74105908D01*
X180747883Y-74099501D01*
X180747881Y-74099500D01*
X180747873Y-74099500D01*
X180747865Y-74099500D01*
X180574500Y-74099500D01*
X180507461Y-74079815D01*
X180461706Y-74027011D01*
X180450500Y-73975500D01*
X180450500Y-73796079D01*
X180421659Y-73651092D01*
X180421658Y-73651091D01*
X180421658Y-73651087D01*
X180394904Y-73586496D01*
X180365087Y-73514511D01*
X180365080Y-73514498D01*
X180282952Y-73391585D01*
X180235391Y-73344024D01*
X180178416Y-73287049D01*
X178444078Y-71552711D01*
X176626697Y-69735329D01*
X176595302Y-69682243D01*
X176562869Y-69570607D01*
X176481135Y-69432402D01*
X176481133Y-69432400D01*
X176481130Y-69432396D01*
X176367603Y-69318869D01*
X176367595Y-69318863D01*
X176229393Y-69237131D01*
X176229388Y-69237129D01*
X176075208Y-69192335D01*
X176075202Y-69192334D01*
X176039181Y-69189500D01*
X175640830Y-69189500D01*
X175640808Y-69189501D01*
X175604794Y-69192335D01*
X175450611Y-69237129D01*
X175450604Y-69237132D01*
X175393119Y-69271128D01*
X175325395Y-69288309D01*
X175266881Y-69271128D01*
X175209395Y-69237132D01*
X175209388Y-69237129D01*
X175055208Y-69192335D01*
X175055202Y-69192334D01*
X175019181Y-69189500D01*
X174620830Y-69189500D01*
X174620808Y-69189501D01*
X174584794Y-69192335D01*
X174430611Y-69237129D01*
X174430606Y-69237131D01*
X174421982Y-69242232D01*
X174358861Y-69259500D01*
X169916403Y-69259500D01*
X169892210Y-69257117D01*
X169853919Y-69249500D01*
X169853918Y-69249500D01*
X160622229Y-69249500D01*
X160555190Y-69229815D01*
X160534548Y-69213181D01*
X159333550Y-68012181D01*
X159300065Y-67950858D01*
X159305049Y-67881166D01*
X159346921Y-67825233D01*
X159412385Y-67800816D01*
X159421231Y-67800500D01*
X189075500Y-67800500D01*
X189142539Y-67820185D01*
X189188294Y-67872989D01*
X189199500Y-67924500D01*
X189199500Y-149675500D01*
X189179815Y-149742539D01*
X189127011Y-149788294D01*
X189075500Y-149799500D01*
X108674500Y-149799500D01*
X108607461Y-149779815D01*
X108561706Y-149727011D01*
X108550500Y-149675500D01*
X108550500Y-67924500D01*
X108570185Y-67857461D01*
X108622989Y-67811706D01*
X108674500Y-67800500D01*
X127188769Y-67800500D01*
X127255808Y-67820185D01*
G37*
%TD.AperFunction*%
%TA.AperFunction,Conductor*%
G36*
X155294809Y-75270185D02*
G01*
X155315451Y-75286819D01*
X172313181Y-92284548D01*
X172346666Y-92345871D01*
X172349500Y-92372229D01*
X172349500Y-122832070D01*
X172329815Y-122899109D01*
X172281797Y-122942554D01*
X172248049Y-122959749D01*
X172041064Y-123110132D01*
X172041059Y-123110136D01*
X171860136Y-123291059D01*
X171825318Y-123338983D01*
X171769988Y-123381648D01*
X171700375Y-123387627D01*
X171638580Y-123355021D01*
X171624682Y-123338983D01*
X171589863Y-123291059D01*
X171408940Y-123110136D01*
X171408935Y-123110132D01*
X171201950Y-122959750D01*
X171201949Y-122959749D01*
X171201947Y-122959748D01*
X171082937Y-122899109D01*
X170973975Y-122843589D01*
X170973972Y-122843588D01*
X170730640Y-122764526D01*
X170604284Y-122744513D01*
X170477930Y-122724500D01*
X170222070Y-122724500D01*
X170143787Y-122736899D01*
X169969359Y-122764526D01*
X169726027Y-122843588D01*
X169726024Y-122843589D01*
X169498049Y-122959750D01*
X169291064Y-123110132D01*
X169291059Y-123110136D01*
X169137681Y-123263515D01*
X169076358Y-123297000D01*
X169006666Y-123292016D01*
X168962319Y-123263515D01*
X168808940Y-123110136D01*
X168808935Y-123110132D01*
X168601950Y-122959750D01*
X168601949Y-122959749D01*
X168601947Y-122959748D01*
X168482937Y-122899109D01*
X168373975Y-122843589D01*
X168373972Y-122843588D01*
X168130640Y-122764526D01*
X168004284Y-122744513D01*
X167877930Y-122724500D01*
X167622070Y-122724500D01*
X167577647Y-122731536D01*
X167369357Y-122764526D01*
X167333343Y-122776228D01*
X167263502Y-122778223D01*
X167207345Y-122745978D01*
X152578415Y-108117047D01*
X152578413Y-108117045D01*
X152529179Y-108084150D01*
X152496355Y-108062218D01*
X152455495Y-108034916D01*
X152455494Y-108034915D01*
X152455492Y-108034914D01*
X152455490Y-108034913D01*
X152318917Y-107978343D01*
X152318907Y-107978340D01*
X152173920Y-107949500D01*
X152173918Y-107949500D01*
X151816663Y-107949500D01*
X151749624Y-107929815D01*
X151715088Y-107896623D01*
X151690045Y-107860858D01*
X151529141Y-107699954D01*
X151342734Y-107569432D01*
X151342728Y-107569429D01*
X151284725Y-107542382D01*
X151232285Y-107496210D01*
X151213133Y-107429017D01*
X151233348Y-107362135D01*
X151284725Y-107317618D01*
X151342734Y-107290568D01*
X151529139Y-107160047D01*
X151690047Y-106999139D01*
X151820568Y-106812734D01*
X151916739Y-106606496D01*
X151975635Y-106386692D01*
X151990500Y-106216784D01*
X151990500Y-106103216D01*
X151975635Y-105933308D01*
X151922209Y-105733918D01*
X151916741Y-105713511D01*
X151916738Y-105713503D01*
X151820568Y-105507266D01*
X151690047Y-105320861D01*
X151690045Y-105320858D01*
X151529141Y-105159954D01*
X151342734Y-105029432D01*
X151342728Y-105029429D01*
X151284725Y-105002382D01*
X151232285Y-104956210D01*
X151213133Y-104889017D01*
X151233348Y-104822135D01*
X151284725Y-104777618D01*
X151342734Y-104750568D01*
X151529139Y-104620047D01*
X151690047Y-104459139D01*
X151820568Y-104272734D01*
X151916739Y-104066496D01*
X151975635Y-103846692D01*
X151990500Y-103676784D01*
X151990500Y-103563216D01*
X151975635Y-103393308D01*
X151924888Y-103203918D01*
X151916741Y-103173511D01*
X151916738Y-103173503D01*
X151820568Y-102967266D01*
X151690047Y-102780861D01*
X151690045Y-102780858D01*
X151529141Y-102619954D01*
X151342734Y-102489432D01*
X151342732Y-102489431D01*
X151291343Y-102465468D01*
X151238904Y-102419295D01*
X151219752Y-102352102D01*
X151239968Y-102285221D01*
X151285293Y-102243729D01*
X151349783Y-102209259D01*
X151480811Y-102121709D01*
X151557412Y-102058843D01*
X151668843Y-101947412D01*
X151731709Y-101870811D01*
X151819259Y-101739783D01*
X151865972Y-101652389D01*
X151926278Y-101506798D01*
X151955044Y-101411968D01*
X151985787Y-101257410D01*
X151995500Y-101158793D01*
X151995500Y-101001207D01*
X151985787Y-100902590D01*
X151955044Y-100748032D01*
X151926278Y-100653202D01*
X151865972Y-100507611D01*
X151831610Y-100443325D01*
X151819265Y-100420228D01*
X151819263Y-100420226D01*
X151819259Y-100420217D01*
X151796517Y-100386181D01*
X151731721Y-100289206D01*
X151731712Y-100289194D01*
X151731709Y-100289189D01*
X151668843Y-100212588D01*
X151557412Y-100101157D01*
X151480811Y-100038291D01*
X151480804Y-100038286D01*
X151480793Y-100038278D01*
X151349799Y-99950751D01*
X151349788Y-99950744D01*
X151349783Y-99950741D01*
X151285293Y-99916270D01*
X151235450Y-99867308D01*
X151219990Y-99799171D01*
X151243822Y-99733491D01*
X151291341Y-99694532D01*
X151342734Y-99670568D01*
X151529139Y-99540047D01*
X151690047Y-99379139D01*
X151820568Y-99192734D01*
X151916739Y-98986496D01*
X151975635Y-98766692D01*
X151990500Y-98596784D01*
X151990500Y-98483216D01*
X151975635Y-98313308D01*
X151928868Y-98138770D01*
X151916741Y-98093511D01*
X151916738Y-98093503D01*
X151820568Y-97887266D01*
X151690047Y-97700861D01*
X151690045Y-97700858D01*
X151529141Y-97539954D01*
X151342734Y-97409432D01*
X151342728Y-97409429D01*
X151284725Y-97382382D01*
X151232285Y-97336210D01*
X151213133Y-97269017D01*
X151233348Y-97202135D01*
X151284725Y-97157618D01*
X151342734Y-97130568D01*
X151529139Y-97000047D01*
X151690047Y-96839139D01*
X151820568Y-96652734D01*
X151916739Y-96446496D01*
X151975635Y-96226692D01*
X151990500Y-96056784D01*
X151990500Y-95943216D01*
X151975635Y-95773308D01*
X151930916Y-95606415D01*
X151916741Y-95553511D01*
X151916738Y-95553503D01*
X151820568Y-95347266D01*
X151690047Y-95160861D01*
X151690045Y-95160858D01*
X151529141Y-94999954D01*
X151342734Y-94869432D01*
X151342728Y-94869429D01*
X151284725Y-94842382D01*
X151232285Y-94796210D01*
X151213133Y-94729017D01*
X151233348Y-94662135D01*
X151284725Y-94617618D01*
X151342734Y-94590568D01*
X151529139Y-94460047D01*
X151690047Y-94299139D01*
X151820568Y-94112734D01*
X151916739Y-93906496D01*
X151975635Y-93686692D01*
X151990500Y-93516784D01*
X151990500Y-93403216D01*
X151975635Y-93233308D01*
X151923568Y-93038991D01*
X151916741Y-93013511D01*
X151916738Y-93013503D01*
X151820568Y-92807266D01*
X151717323Y-92659815D01*
X151690045Y-92620858D01*
X151529141Y-92459954D01*
X151342734Y-92329432D01*
X151342728Y-92329429D01*
X151284725Y-92302382D01*
X151232285Y-92256210D01*
X151213133Y-92189017D01*
X151233348Y-92122135D01*
X151284725Y-92077618D01*
X151342734Y-92050568D01*
X151529139Y-91920047D01*
X151690047Y-91759139D01*
X151820568Y-91572734D01*
X151916739Y-91366496D01*
X151975635Y-91146692D01*
X151990500Y-90976784D01*
X151990500Y-90863216D01*
X151975635Y-90693308D01*
X151930916Y-90526415D01*
X151916741Y-90473511D01*
X151916738Y-90473503D01*
X151820568Y-90267266D01*
X151690047Y-90080861D01*
X151690045Y-90080858D01*
X151529141Y-89919954D01*
X151342734Y-89789432D01*
X151342732Y-89789431D01*
X151291343Y-89765468D01*
X151238904Y-89719295D01*
X151219752Y-89652102D01*
X151239968Y-89585221D01*
X151285293Y-89543729D01*
X151349783Y-89509259D01*
X151480811Y-89421709D01*
X151557412Y-89358843D01*
X151668843Y-89247412D01*
X151731709Y-89170811D01*
X151819259Y-89039783D01*
X151865972Y-88952389D01*
X151926278Y-88806798D01*
X151955044Y-88711968D01*
X151985787Y-88557410D01*
X151995500Y-88458793D01*
X151995500Y-88301207D01*
X151985787Y-88202590D01*
X151955044Y-88048032D01*
X151926278Y-87953202D01*
X151865972Y-87807611D01*
X151819259Y-87720217D01*
X151806085Y-87700500D01*
X151731721Y-87589206D01*
X151731712Y-87589194D01*
X151731709Y-87589189D01*
X151668843Y-87512588D01*
X151557412Y-87401157D01*
X151480811Y-87338291D01*
X151480804Y-87338286D01*
X151480793Y-87338278D01*
X151349799Y-87250751D01*
X151349788Y-87250744D01*
X151349783Y-87250741D01*
X151285293Y-87216270D01*
X151235450Y-87167308D01*
X151219990Y-87099171D01*
X151243822Y-87033491D01*
X151291341Y-86994532D01*
X151342734Y-86970568D01*
X151529139Y-86840047D01*
X151690047Y-86679139D01*
X151820568Y-86492734D01*
X151916739Y-86286496D01*
X151975635Y-86066692D01*
X151990500Y-85896784D01*
X151990500Y-85783216D01*
X151975635Y-85613308D01*
X151929191Y-85439976D01*
X151916741Y-85393511D01*
X151916738Y-85393503D01*
X151849459Y-85249223D01*
X155499500Y-85249223D01*
X155499500Y-85550776D01*
X155499501Y-85550793D01*
X155538861Y-85849766D01*
X155616913Y-86141060D01*
X155732314Y-86419661D01*
X155732318Y-86419671D01*
X155883099Y-86680831D01*
X156066679Y-86920078D01*
X156066685Y-86920085D01*
X156279914Y-87133314D01*
X156279921Y-87133320D01*
X156519168Y-87316900D01*
X156780328Y-87467681D01*
X156780329Y-87467681D01*
X156780332Y-87467683D01*
X156966072Y-87544619D01*
X157058939Y-87583086D01*
X157058940Y-87583086D01*
X157058942Y-87583087D01*
X157350232Y-87661138D01*
X157649217Y-87700500D01*
X157649224Y-87700500D01*
X157950776Y-87700500D01*
X157950783Y-87700500D01*
X158249768Y-87661138D01*
X158541058Y-87583087D01*
X158819668Y-87467683D01*
X159080832Y-87316900D01*
X159320080Y-87133319D01*
X159533319Y-86920080D01*
X159716900Y-86680832D01*
X159867683Y-86419668D01*
X159983087Y-86141058D01*
X160061138Y-85849768D01*
X160100500Y-85550783D01*
X160100500Y-85249217D01*
X160061138Y-84950232D01*
X159983087Y-84658942D01*
X159978691Y-84648330D01*
X159928327Y-84526739D01*
X159867683Y-84380332D01*
X159821330Y-84300047D01*
X159716900Y-84119168D01*
X159533320Y-83879921D01*
X159533314Y-83879914D01*
X159320085Y-83666685D01*
X159320078Y-83666679D01*
X159080831Y-83483099D01*
X158819671Y-83332318D01*
X158819661Y-83332314D01*
X158541060Y-83216913D01*
X158249766Y-83138861D01*
X157950793Y-83099501D01*
X157950788Y-83099500D01*
X157950783Y-83099500D01*
X157649217Y-83099500D01*
X157649211Y-83099500D01*
X157649206Y-83099501D01*
X157350233Y-83138861D01*
X157058939Y-83216913D01*
X156780338Y-83332314D01*
X156780328Y-83332318D01*
X156519168Y-83483099D01*
X156279921Y-83666679D01*
X156279914Y-83666685D01*
X156066685Y-83879914D01*
X156066679Y-83879921D01*
X155883099Y-84119168D01*
X155732318Y-84380328D01*
X155732314Y-84380338D01*
X155616913Y-84658939D01*
X155538861Y-84950233D01*
X155499501Y-85249206D01*
X155499500Y-85249223D01*
X151849459Y-85249223D01*
X151820568Y-85187266D01*
X151690047Y-85000861D01*
X151690045Y-85000858D01*
X151529141Y-84839954D01*
X151342734Y-84709432D01*
X151342728Y-84709429D01*
X151284725Y-84682382D01*
X151232285Y-84636210D01*
X151213133Y-84569017D01*
X151233348Y-84502135D01*
X151284725Y-84457618D01*
X151342734Y-84430568D01*
X151529139Y-84300047D01*
X151690047Y-84139139D01*
X151820568Y-83952734D01*
X151916739Y-83746496D01*
X151975635Y-83526692D01*
X151990500Y-83356784D01*
X151990500Y-83243216D01*
X151975635Y-83073308D01*
X151930916Y-82906415D01*
X151916741Y-82853511D01*
X151916738Y-82853503D01*
X151820568Y-82647266D01*
X151690047Y-82460861D01*
X151690045Y-82460858D01*
X151529141Y-82299954D01*
X151342734Y-82169432D01*
X151342732Y-82169431D01*
X151284723Y-82142381D01*
X151284132Y-82142105D01*
X151231694Y-82095934D01*
X151212542Y-82028740D01*
X151232758Y-81961859D01*
X151284134Y-81917341D01*
X151342484Y-81890132D01*
X151528820Y-81759657D01*
X151689657Y-81598820D01*
X151820134Y-81412482D01*
X151916265Y-81206326D01*
X151916269Y-81206317D01*
X151968872Y-81010000D01*
X149523012Y-81010000D01*
X149555925Y-80952993D01*
X149590000Y-80825826D01*
X149590000Y-80694174D01*
X149555925Y-80567007D01*
X149523012Y-80510000D01*
X151968872Y-80510000D01*
X151968872Y-80509999D01*
X151916269Y-80313682D01*
X151916265Y-80313673D01*
X151820134Y-80107517D01*
X151689657Y-79921179D01*
X151528820Y-79760342D01*
X151342482Y-79629865D01*
X151284133Y-79602657D01*
X151231694Y-79556484D01*
X151212542Y-79489291D01*
X151232758Y-79422410D01*
X151284129Y-79377895D01*
X151342734Y-79350568D01*
X151529139Y-79220047D01*
X151690047Y-79059139D01*
X151820568Y-78872734D01*
X151916739Y-78666496D01*
X151975635Y-78446692D01*
X151990500Y-78276784D01*
X151990500Y-78163216D01*
X151975635Y-77993308D01*
X151930916Y-77826415D01*
X151916741Y-77773511D01*
X151916738Y-77773503D01*
X151820568Y-77567266D01*
X151690047Y-77380861D01*
X151690045Y-77380858D01*
X151529141Y-77219954D01*
X151342734Y-77089432D01*
X151342732Y-77089431D01*
X151291343Y-77065468D01*
X151238904Y-77019295D01*
X151219752Y-76952102D01*
X151239968Y-76885221D01*
X151285293Y-76843729D01*
X151349783Y-76809259D01*
X151480811Y-76721709D01*
X151557412Y-76658843D01*
X151668843Y-76547412D01*
X151731709Y-76470811D01*
X151819259Y-76339783D01*
X151865972Y-76252389D01*
X151926278Y-76106798D01*
X151955044Y-76011968D01*
X151985787Y-75857410D01*
X151995500Y-75758793D01*
X151995500Y-75601207D01*
X151985787Y-75502590D01*
X151965120Y-75398688D01*
X151971349Y-75329099D01*
X152014212Y-75273922D01*
X152080102Y-75250678D01*
X152086738Y-75250500D01*
X155227770Y-75250500D01*
X155294809Y-75270185D01*
G37*
%TD.AperFunction*%
%TD*%
M02*
