M48
; DRILL file {KiCad 9.0.7-9.0.7~ubuntu24.04.1} date 2026-03-13T00:15:20+0000
; FORMAT={-:-/ absolute / metric / decimal}
; #@! TF.CreationDate,2026-03-13T00:15:20+00:00
; #@! TF.GenerationSoftware,Kicad,Pcbnew,9.0.7-9.0.7~ubuntu24.04.1
; #@! TF.FileFunction,Plated,1,2,PTH
FMAT,2
METRIC
; #@! TA.AperFunction,Plated,PTH,ViaDrill
T1C0.200
; #@! TA.AperFunction,Plated,PTH,ComponentDrill
T2C0.762
; #@! TA.AperFunction,Plated,PTH,ComponentDrill
T3C0.889
; #@! TA.AperFunction,Plated,PTH,ComponentDrill
T4C1.000
; #@! TA.AperFunction,Plated,PTH,ComponentDrill
T5C1.020
; #@! TA.AperFunction,Plated,PTH,ComponentDrill
T6C1.143
; #@! TA.AperFunction,Plated,PTH,ComponentDrill
T7C1.200
; #@! TA.AperFunction,Plated,PTH,ComponentDrill
T8C1.778
%
G90
G05
T1
X117.655Y-87.161
X119.375Y-123.281
X120.905Y-87.161
X122.375Y-123.281
X147.27Y-63.76
X173.6Y-128.8
T2
X143.355Y-75.685
X143.355Y-78.185
X143.355Y-80.685
X143.355Y-83.185
X143.355Y-85.685
X143.355Y-88.185
T3
X105.355Y-93.411
X105.38Y-116.961
X107.455Y-93.411
X107.48Y-116.961
X118.43Y-93.436
X118.455Y-116.986
X120.53Y-93.436
X120.555Y-116.986
T4
X108.86Y-137.52
X111.4Y-137.52
X113.94Y-137.52
X116.48Y-137.52
X119.02Y-137.52
X121.56Y-137.52
X148.2Y-117.88
X148.2Y-120.42
X148.2Y-122.96
X148.2Y-125.5
X148.2Y-128.04
X148.2Y-130.58
X148.2Y-133.12
X148.2Y-135.66
X171.0Y-117.88
X171.0Y-120.42
X171.0Y-122.96
X171.0Y-125.5
X171.0Y-128.04
X171.0Y-130.58
X171.0Y-133.12
X171.0Y-135.66
X178.02Y-76.86
X178.02Y-79.4
X178.02Y-81.94
X178.02Y-84.48
X178.02Y-87.02
X178.02Y-89.56
T5
X102.28Y-62.1
X102.28Y-64.64
X102.28Y-67.18
X102.28Y-69.72
X143.5Y-62.1
X143.5Y-64.64
X143.5Y-67.18
X143.5Y-69.72
T6
X131.985Y-112.949
X134.485Y-110.449
X134.485Y-115.449
X136.985Y-112.949
T7
X104.438Y-75.285
X104.438Y-77.825
X152.93Y-69.24
X152.93Y-71.78
X152.93Y-74.32
X152.93Y-76.86
X152.93Y-79.4
X152.93Y-81.94
X152.93Y-84.48
X152.93Y-87.02
X152.93Y-89.56
X152.93Y-92.1
X152.93Y-94.64
X152.93Y-97.18
X152.93Y-99.72
X152.93Y-102.26
X152.93Y-104.8
X165.63Y-64.16
X168.17Y-61.62
X168.17Y-64.16
X168.17Y-66.7
X168.17Y-69.24
X168.17Y-71.78
X168.17Y-74.32
X168.17Y-76.86
X168.17Y-79.4
X168.17Y-81.94
X168.17Y-84.48
X168.17Y-87.02
X168.17Y-89.56
X168.17Y-92.1
X168.17Y-94.64
X168.17Y-97.18
X168.17Y-99.72
X168.17Y-102.26
X168.17Y-104.8
T8
X128.135Y-110.448
X128.135Y-115.449
X140.835Y-110.448
X140.835Y-115.449
M30
