%TF.GenerationSoftware,KiCad,Pcbnew,9.0.7-9.0.7~ubuntu24.04.1*%
%TF.CreationDate,2026-03-13T00:15:18+00:00*%
%TF.ProjectId,CORTEX_ALPHA,434f5254-4558-45f4-914c-5048412e6b69,rev?*%
%TF.SameCoordinates,Original*%
%TF.FileFunction,Legend,Top*%
%TF.FilePolarity,Positive*%
%FSLAX46Y46*%
G04 Gerber Fmt 4.6, Leading zero omitted, Abs format (unit mm)*
G04 Created by KiCad (PCBNEW 9.0.7-9.0.7~ubuntu24.04.1) date 2026-03-13 00:15:18*
%MOMM*%
%LPD*%
G01*
G04 APERTURE LIST*
%ADD10C,0.150000*%
%ADD11C,0.100000*%
%ADD12C,0.075000*%
%ADD13C,0.200000*%
%ADD14C,0.120000*%
%ADD15C,0.127000*%
%ADD16C,0.000000*%
%ADD17C,0.050000*%
%ADD18C,0.152400*%
%ADD19C,0.508000*%
G04 APERTURE END LIST*
D10*
X108112319Y-76888333D02*
X108826604Y-76888333D01*
X108826604Y-76888333D02*
X108969461Y-76935952D01*
X108969461Y-76935952D02*
X109064700Y-77031190D01*
X109064700Y-77031190D02*
X109112319Y-77174047D01*
X109112319Y-77174047D02*
X109112319Y-77269285D01*
X108207557Y-76459761D02*
X108159938Y-76412142D01*
X108159938Y-76412142D02*
X108112319Y-76316904D01*
X108112319Y-76316904D02*
X108112319Y-76078809D01*
X108112319Y-76078809D02*
X108159938Y-75983571D01*
X108159938Y-75983571D02*
X108207557Y-75935952D01*
X108207557Y-75935952D02*
X108302795Y-75888333D01*
X108302795Y-75888333D02*
X108398033Y-75888333D01*
X108398033Y-75888333D02*
X108540890Y-75935952D01*
X108540890Y-75935952D02*
X109112319Y-76507380D01*
X109112319Y-76507380D02*
X109112319Y-75888333D01*
X153442095Y-56769919D02*
X153442095Y-57579442D01*
X153442095Y-57579442D02*
X153489714Y-57674680D01*
X153489714Y-57674680D02*
X153537333Y-57722300D01*
X153537333Y-57722300D02*
X153632571Y-57769919D01*
X153632571Y-57769919D02*
X153823047Y-57769919D01*
X153823047Y-57769919D02*
X153918285Y-57722300D01*
X153918285Y-57722300D02*
X153965904Y-57674680D01*
X153965904Y-57674680D02*
X154013523Y-57579442D01*
X154013523Y-57579442D02*
X154013523Y-56769919D01*
X154918285Y-57103252D02*
X154918285Y-57769919D01*
X154680190Y-56722300D02*
X154442095Y-57436585D01*
X154442095Y-57436585D02*
X155061142Y-57436585D01*
D11*
X134992819Y-77006427D02*
X134945200Y-76958808D01*
X134945200Y-76958808D02*
X134897580Y-76815951D01*
X134897580Y-76815951D02*
X134897580Y-76720713D01*
X134897580Y-76720713D02*
X134945200Y-76577856D01*
X134945200Y-76577856D02*
X135040438Y-76482618D01*
X135040438Y-76482618D02*
X135135676Y-76434999D01*
X135135676Y-76434999D02*
X135326152Y-76387380D01*
X135326152Y-76387380D02*
X135469009Y-76387380D01*
X135469009Y-76387380D02*
X135659485Y-76434999D01*
X135659485Y-76434999D02*
X135754723Y-76482618D01*
X135754723Y-76482618D02*
X135849961Y-76577856D01*
X135849961Y-76577856D02*
X135897580Y-76720713D01*
X135897580Y-76720713D02*
X135897580Y-76815951D01*
X135897580Y-76815951D02*
X135849961Y-76958808D01*
X135849961Y-76958808D02*
X135802342Y-77006427D01*
X134897580Y-77863570D02*
X135421390Y-77863570D01*
X135421390Y-77863570D02*
X135516628Y-77815951D01*
X135516628Y-77815951D02*
X135564247Y-77720713D01*
X135564247Y-77720713D02*
X135564247Y-77530237D01*
X135564247Y-77530237D02*
X135516628Y-77434999D01*
X134945200Y-77863570D02*
X134897580Y-77768332D01*
X134897580Y-77768332D02*
X134897580Y-77530237D01*
X134897580Y-77530237D02*
X134945200Y-77434999D01*
X134945200Y-77434999D02*
X135040438Y-77387380D01*
X135040438Y-77387380D02*
X135135676Y-77387380D01*
X135135676Y-77387380D02*
X135230914Y-77434999D01*
X135230914Y-77434999D02*
X135278533Y-77530237D01*
X135278533Y-77530237D02*
X135278533Y-77768332D01*
X135278533Y-77768332D02*
X135326152Y-77863570D01*
X135564247Y-78339761D02*
X134897580Y-78339761D01*
X135469009Y-78339761D02*
X135516628Y-78387380D01*
X135516628Y-78387380D02*
X135564247Y-78482618D01*
X135564247Y-78482618D02*
X135564247Y-78625475D01*
X135564247Y-78625475D02*
X135516628Y-78720713D01*
X135516628Y-78720713D02*
X135421390Y-78768332D01*
X135421390Y-78768332D02*
X134897580Y-78768332D01*
X135421390Y-79577856D02*
X135373771Y-79720713D01*
X135373771Y-79720713D02*
X135326152Y-79768332D01*
X135326152Y-79768332D02*
X135230914Y-79815951D01*
X135230914Y-79815951D02*
X135088057Y-79815951D01*
X135088057Y-79815951D02*
X134992819Y-79768332D01*
X134992819Y-79768332D02*
X134945200Y-79720713D01*
X134945200Y-79720713D02*
X134897580Y-79625475D01*
X134897580Y-79625475D02*
X134897580Y-79244523D01*
X134897580Y-79244523D02*
X135897580Y-79244523D01*
X135897580Y-79244523D02*
X135897580Y-79577856D01*
X135897580Y-79577856D02*
X135849961Y-79673094D01*
X135849961Y-79673094D02*
X135802342Y-79720713D01*
X135802342Y-79720713D02*
X135707104Y-79768332D01*
X135707104Y-79768332D02*
X135611866Y-79768332D01*
X135611866Y-79768332D02*
X135516628Y-79720713D01*
X135516628Y-79720713D02*
X135469009Y-79673094D01*
X135469009Y-79673094D02*
X135421390Y-79577856D01*
X135421390Y-79577856D02*
X135421390Y-79244523D01*
X135564247Y-80673094D02*
X134897580Y-80673094D01*
X135564247Y-80244523D02*
X135040438Y-80244523D01*
X135040438Y-80244523D02*
X134945200Y-80292142D01*
X134945200Y-80292142D02*
X134897580Y-80387380D01*
X134897580Y-80387380D02*
X134897580Y-80530237D01*
X134897580Y-80530237D02*
X134945200Y-80625475D01*
X134945200Y-80625475D02*
X134992819Y-80673094D01*
X134945200Y-81101666D02*
X134897580Y-81196904D01*
X134897580Y-81196904D02*
X134897580Y-81387380D01*
X134897580Y-81387380D02*
X134945200Y-81482618D01*
X134945200Y-81482618D02*
X135040438Y-81530237D01*
X135040438Y-81530237D02*
X135088057Y-81530237D01*
X135088057Y-81530237D02*
X135183295Y-81482618D01*
X135183295Y-81482618D02*
X135230914Y-81387380D01*
X135230914Y-81387380D02*
X135230914Y-81244523D01*
X135230914Y-81244523D02*
X135278533Y-81149285D01*
X135278533Y-81149285D02*
X135373771Y-81101666D01*
X135373771Y-81101666D02*
X135421390Y-81101666D01*
X135421390Y-81101666D02*
X135516628Y-81149285D01*
X135516628Y-81149285D02*
X135564247Y-81244523D01*
X135564247Y-81244523D02*
X135564247Y-81387380D01*
X135564247Y-81387380D02*
X135516628Y-81482618D01*
X134802342Y-81720714D02*
X134802342Y-82482618D01*
X134897580Y-82720714D02*
X135897580Y-82720714D01*
X135897580Y-82720714D02*
X135183295Y-83054047D01*
X135183295Y-83054047D02*
X135897580Y-83387380D01*
X135897580Y-83387380D02*
X134897580Y-83387380D01*
X134897580Y-84006428D02*
X134945200Y-83911190D01*
X134945200Y-83911190D02*
X134992819Y-83863571D01*
X134992819Y-83863571D02*
X135088057Y-83815952D01*
X135088057Y-83815952D02*
X135373771Y-83815952D01*
X135373771Y-83815952D02*
X135469009Y-83863571D01*
X135469009Y-83863571D02*
X135516628Y-83911190D01*
X135516628Y-83911190D02*
X135564247Y-84006428D01*
X135564247Y-84006428D02*
X135564247Y-84149285D01*
X135564247Y-84149285D02*
X135516628Y-84244523D01*
X135516628Y-84244523D02*
X135469009Y-84292142D01*
X135469009Y-84292142D02*
X135373771Y-84339761D01*
X135373771Y-84339761D02*
X135088057Y-84339761D01*
X135088057Y-84339761D02*
X134992819Y-84292142D01*
X134992819Y-84292142D02*
X134945200Y-84244523D01*
X134945200Y-84244523D02*
X134897580Y-84149285D01*
X134897580Y-84149285D02*
X134897580Y-84006428D01*
X134897580Y-85196904D02*
X135897580Y-85196904D01*
X134945200Y-85196904D02*
X134897580Y-85101666D01*
X134897580Y-85101666D02*
X134897580Y-84911190D01*
X134897580Y-84911190D02*
X134945200Y-84815952D01*
X134945200Y-84815952D02*
X134992819Y-84768333D01*
X134992819Y-84768333D02*
X135088057Y-84720714D01*
X135088057Y-84720714D02*
X135373771Y-84720714D01*
X135373771Y-84720714D02*
X135469009Y-84768333D01*
X135469009Y-84768333D02*
X135516628Y-84815952D01*
X135516628Y-84815952D02*
X135564247Y-84911190D01*
X135564247Y-84911190D02*
X135564247Y-85101666D01*
X135564247Y-85101666D02*
X135516628Y-85196904D01*
X135564247Y-86101666D02*
X134897580Y-86101666D01*
X135564247Y-85673095D02*
X135040438Y-85673095D01*
X135040438Y-85673095D02*
X134945200Y-85720714D01*
X134945200Y-85720714D02*
X134897580Y-85815952D01*
X134897580Y-85815952D02*
X134897580Y-85958809D01*
X134897580Y-85958809D02*
X134945200Y-86054047D01*
X134945200Y-86054047D02*
X134992819Y-86101666D01*
X134897580Y-86720714D02*
X134945200Y-86625476D01*
X134945200Y-86625476D02*
X135040438Y-86577857D01*
X135040438Y-86577857D02*
X135897580Y-86577857D01*
X134945200Y-87482619D02*
X134897580Y-87387381D01*
X134897580Y-87387381D02*
X134897580Y-87196905D01*
X134897580Y-87196905D02*
X134945200Y-87101667D01*
X134945200Y-87101667D02*
X135040438Y-87054048D01*
X135040438Y-87054048D02*
X135421390Y-87054048D01*
X135421390Y-87054048D02*
X135516628Y-87101667D01*
X135516628Y-87101667D02*
X135564247Y-87196905D01*
X135564247Y-87196905D02*
X135564247Y-87387381D01*
X135564247Y-87387381D02*
X135516628Y-87482619D01*
X135516628Y-87482619D02*
X135421390Y-87530238D01*
X135421390Y-87530238D02*
X135326152Y-87530238D01*
X135326152Y-87530238D02*
X135230914Y-87054048D01*
X134897580Y-88482619D02*
X134897580Y-87911191D01*
X134897580Y-88196905D02*
X135897580Y-88196905D01*
X135897580Y-88196905D02*
X135754723Y-88101667D01*
X135754723Y-88101667D02*
X135659485Y-88006429D01*
X135659485Y-88006429D02*
X135611866Y-87911191D01*
X141479687Y-80157819D02*
X141527306Y-80110200D01*
X141527306Y-80110200D02*
X141670163Y-80062580D01*
X141670163Y-80062580D02*
X141765401Y-80062580D01*
X141765401Y-80062580D02*
X141908258Y-80110200D01*
X141908258Y-80110200D02*
X142003496Y-80205438D01*
X142003496Y-80205438D02*
X142051115Y-80300676D01*
X142051115Y-80300676D02*
X142098734Y-80491152D01*
X142098734Y-80491152D02*
X142098734Y-80634009D01*
X142098734Y-80634009D02*
X142051115Y-80824485D01*
X142051115Y-80824485D02*
X142003496Y-80919723D01*
X142003496Y-80919723D02*
X141908258Y-81014961D01*
X141908258Y-81014961D02*
X141765401Y-81062580D01*
X141765401Y-81062580D02*
X141670163Y-81062580D01*
X141670163Y-81062580D02*
X141527306Y-81014961D01*
X141527306Y-81014961D02*
X141479687Y-80967342D01*
X140479687Y-80062580D02*
X140813020Y-80538771D01*
X141051115Y-80062580D02*
X141051115Y-81062580D01*
X141051115Y-81062580D02*
X140670163Y-81062580D01*
X140670163Y-81062580D02*
X140574925Y-81014961D01*
X140574925Y-81014961D02*
X140527306Y-80967342D01*
X140527306Y-80967342D02*
X140479687Y-80872104D01*
X140479687Y-80872104D02*
X140479687Y-80729247D01*
X140479687Y-80729247D02*
X140527306Y-80634009D01*
X140527306Y-80634009D02*
X140574925Y-80586390D01*
X140574925Y-80586390D02*
X140670163Y-80538771D01*
X140670163Y-80538771D02*
X141051115Y-80538771D01*
X140146353Y-81062580D02*
X139479687Y-80062580D01*
X139479687Y-81062580D02*
X140146353Y-80062580D01*
X141479687Y-82657819D02*
X141527306Y-82610200D01*
X141527306Y-82610200D02*
X141670163Y-82562580D01*
X141670163Y-82562580D02*
X141765401Y-82562580D01*
X141765401Y-82562580D02*
X141908258Y-82610200D01*
X141908258Y-82610200D02*
X142003496Y-82705438D01*
X142003496Y-82705438D02*
X142051115Y-82800676D01*
X142051115Y-82800676D02*
X142098734Y-82991152D01*
X142098734Y-82991152D02*
X142098734Y-83134009D01*
X142098734Y-83134009D02*
X142051115Y-83324485D01*
X142051115Y-83324485D02*
X142003496Y-83419723D01*
X142003496Y-83419723D02*
X141908258Y-83514961D01*
X141908258Y-83514961D02*
X141765401Y-83562580D01*
X141765401Y-83562580D02*
X141670163Y-83562580D01*
X141670163Y-83562580D02*
X141527306Y-83514961D01*
X141527306Y-83514961D02*
X141479687Y-83467342D01*
X141193972Y-83562580D02*
X140622544Y-83562580D01*
X140908258Y-82562580D02*
X140908258Y-83562580D01*
X140384448Y-83562580D02*
X139717782Y-82562580D01*
X139717782Y-83562580D02*
X140384448Y-82562580D01*
D12*
X125220114Y-73963571D02*
X125520114Y-73963571D01*
X125520114Y-73963571D02*
X125520114Y-74035000D01*
X125520114Y-74035000D02*
X125505828Y-74077857D01*
X125505828Y-74077857D02*
X125477257Y-74106428D01*
X125477257Y-74106428D02*
X125448685Y-74120714D01*
X125448685Y-74120714D02*
X125391542Y-74135000D01*
X125391542Y-74135000D02*
X125348685Y-74135000D01*
X125348685Y-74135000D02*
X125291542Y-74120714D01*
X125291542Y-74120714D02*
X125262971Y-74106428D01*
X125262971Y-74106428D02*
X125234400Y-74077857D01*
X125234400Y-74077857D02*
X125220114Y-74035000D01*
X125220114Y-74035000D02*
X125220114Y-73963571D01*
X125234400Y-74377857D02*
X125220114Y-74349285D01*
X125220114Y-74349285D02*
X125220114Y-74292143D01*
X125220114Y-74292143D02*
X125234400Y-74263571D01*
X125234400Y-74263571D02*
X125262971Y-74249285D01*
X125262971Y-74249285D02*
X125377257Y-74249285D01*
X125377257Y-74249285D02*
X125405828Y-74263571D01*
X125405828Y-74263571D02*
X125420114Y-74292143D01*
X125420114Y-74292143D02*
X125420114Y-74349285D01*
X125420114Y-74349285D02*
X125405828Y-74377857D01*
X125405828Y-74377857D02*
X125377257Y-74392143D01*
X125377257Y-74392143D02*
X125348685Y-74392143D01*
X125348685Y-74392143D02*
X125320114Y-74249285D01*
X125234400Y-74506428D02*
X125220114Y-74535000D01*
X125220114Y-74535000D02*
X125220114Y-74592143D01*
X125220114Y-74592143D02*
X125234400Y-74620714D01*
X125234400Y-74620714D02*
X125262971Y-74635000D01*
X125262971Y-74635000D02*
X125277257Y-74635000D01*
X125277257Y-74635000D02*
X125305828Y-74620714D01*
X125305828Y-74620714D02*
X125320114Y-74592143D01*
X125320114Y-74592143D02*
X125320114Y-74549286D01*
X125320114Y-74549286D02*
X125334400Y-74520714D01*
X125334400Y-74520714D02*
X125362971Y-74506428D01*
X125362971Y-74506428D02*
X125377257Y-74506428D01*
X125377257Y-74506428D02*
X125405828Y-74520714D01*
X125405828Y-74520714D02*
X125420114Y-74549286D01*
X125420114Y-74549286D02*
X125420114Y-74592143D01*
X125420114Y-74592143D02*
X125405828Y-74620714D01*
X125220114Y-74763571D02*
X125420114Y-74763571D01*
X125520114Y-74763571D02*
X125505828Y-74749285D01*
X125505828Y-74749285D02*
X125491542Y-74763571D01*
X125491542Y-74763571D02*
X125505828Y-74777857D01*
X125505828Y-74777857D02*
X125520114Y-74763571D01*
X125520114Y-74763571D02*
X125491542Y-74763571D01*
X125420114Y-75035000D02*
X125177257Y-75035000D01*
X125177257Y-75035000D02*
X125148685Y-75020714D01*
X125148685Y-75020714D02*
X125134400Y-75006428D01*
X125134400Y-75006428D02*
X125120114Y-74977857D01*
X125120114Y-74977857D02*
X125120114Y-74935000D01*
X125120114Y-74935000D02*
X125134400Y-74906428D01*
X125234400Y-75035000D02*
X125220114Y-75006428D01*
X125220114Y-75006428D02*
X125220114Y-74949285D01*
X125220114Y-74949285D02*
X125234400Y-74920714D01*
X125234400Y-74920714D02*
X125248685Y-74906428D01*
X125248685Y-74906428D02*
X125277257Y-74892142D01*
X125277257Y-74892142D02*
X125362971Y-74892142D01*
X125362971Y-74892142D02*
X125391542Y-74906428D01*
X125391542Y-74906428D02*
X125405828Y-74920714D01*
X125405828Y-74920714D02*
X125420114Y-74949285D01*
X125420114Y-74949285D02*
X125420114Y-75006428D01*
X125420114Y-75006428D02*
X125405828Y-75035000D01*
X125420114Y-75177857D02*
X125220114Y-75177857D01*
X125391542Y-75177857D02*
X125405828Y-75192143D01*
X125405828Y-75192143D02*
X125420114Y-75220714D01*
X125420114Y-75220714D02*
X125420114Y-75263571D01*
X125420114Y-75263571D02*
X125405828Y-75292143D01*
X125405828Y-75292143D02*
X125377257Y-75306429D01*
X125377257Y-75306429D02*
X125220114Y-75306429D01*
X125220114Y-75677857D02*
X125520114Y-75677857D01*
X125405828Y-75677857D02*
X125420114Y-75706429D01*
X125420114Y-75706429D02*
X125420114Y-75763571D01*
X125420114Y-75763571D02*
X125405828Y-75792143D01*
X125405828Y-75792143D02*
X125391542Y-75806429D01*
X125391542Y-75806429D02*
X125362971Y-75820714D01*
X125362971Y-75820714D02*
X125277257Y-75820714D01*
X125277257Y-75820714D02*
X125248685Y-75806429D01*
X125248685Y-75806429D02*
X125234400Y-75792143D01*
X125234400Y-75792143D02*
X125220114Y-75763571D01*
X125220114Y-75763571D02*
X125220114Y-75706429D01*
X125220114Y-75706429D02*
X125234400Y-75677857D01*
X125420114Y-75920715D02*
X125220114Y-75992143D01*
X125420114Y-76063572D02*
X125220114Y-75992143D01*
X125220114Y-75992143D02*
X125148685Y-75963572D01*
X125148685Y-75963572D02*
X125134400Y-75949286D01*
X125134400Y-75949286D02*
X125120114Y-75920715D01*
X125220114Y-76406428D02*
X125520114Y-76406428D01*
X125520114Y-76406428D02*
X125305828Y-76506428D01*
X125305828Y-76506428D02*
X125520114Y-76606428D01*
X125520114Y-76606428D02*
X125220114Y-76606428D01*
X125220114Y-76749285D02*
X125520114Y-76749285D01*
X125520114Y-76749285D02*
X125520114Y-76820714D01*
X125520114Y-76820714D02*
X125505828Y-76863571D01*
X125505828Y-76863571D02*
X125477257Y-76892142D01*
X125477257Y-76892142D02*
X125448685Y-76906428D01*
X125448685Y-76906428D02*
X125391542Y-76920714D01*
X125391542Y-76920714D02*
X125348685Y-76920714D01*
X125348685Y-76920714D02*
X125291542Y-76906428D01*
X125291542Y-76906428D02*
X125262971Y-76892142D01*
X125262971Y-76892142D02*
X125234400Y-76863571D01*
X125234400Y-76863571D02*
X125220114Y-76820714D01*
X125220114Y-76820714D02*
X125220114Y-76749285D01*
D11*
X141527306Y-86014961D02*
X141622544Y-86062580D01*
X141622544Y-86062580D02*
X141765401Y-86062580D01*
X141765401Y-86062580D02*
X141908258Y-86014961D01*
X141908258Y-86014961D02*
X142003496Y-85919723D01*
X142003496Y-85919723D02*
X142051115Y-85824485D01*
X142051115Y-85824485D02*
X142098734Y-85634009D01*
X142098734Y-85634009D02*
X142098734Y-85491152D01*
X142098734Y-85491152D02*
X142051115Y-85300676D01*
X142051115Y-85300676D02*
X142003496Y-85205438D01*
X142003496Y-85205438D02*
X141908258Y-85110200D01*
X141908258Y-85110200D02*
X141765401Y-85062580D01*
X141765401Y-85062580D02*
X141670163Y-85062580D01*
X141670163Y-85062580D02*
X141527306Y-85110200D01*
X141527306Y-85110200D02*
X141479687Y-85157819D01*
X141479687Y-85157819D02*
X141479687Y-85491152D01*
X141479687Y-85491152D02*
X141670163Y-85491152D01*
X141051115Y-85062580D02*
X141051115Y-86062580D01*
X141051115Y-86062580D02*
X140479687Y-85062580D01*
X140479687Y-85062580D02*
X140479687Y-86062580D01*
X140003496Y-85062580D02*
X140003496Y-86062580D01*
X140003496Y-86062580D02*
X139765401Y-86062580D01*
X139765401Y-86062580D02*
X139622544Y-86014961D01*
X139622544Y-86014961D02*
X139527306Y-85919723D01*
X139527306Y-85919723D02*
X139479687Y-85824485D01*
X139479687Y-85824485D02*
X139432068Y-85634009D01*
X139432068Y-85634009D02*
X139432068Y-85491152D01*
X139432068Y-85491152D02*
X139479687Y-85300676D01*
X139479687Y-85300676D02*
X139527306Y-85205438D01*
X139527306Y-85205438D02*
X139622544Y-85110200D01*
X139622544Y-85110200D02*
X139765401Y-85062580D01*
X139765401Y-85062580D02*
X140003496Y-85062580D01*
X142193972Y-88562580D02*
X141860639Y-87562580D01*
X141860639Y-87562580D02*
X141527306Y-88562580D01*
X140622544Y-87657819D02*
X140670163Y-87610200D01*
X140670163Y-87610200D02*
X140813020Y-87562580D01*
X140813020Y-87562580D02*
X140908258Y-87562580D01*
X140908258Y-87562580D02*
X141051115Y-87610200D01*
X141051115Y-87610200D02*
X141146353Y-87705438D01*
X141146353Y-87705438D02*
X141193972Y-87800676D01*
X141193972Y-87800676D02*
X141241591Y-87991152D01*
X141241591Y-87991152D02*
X141241591Y-88134009D01*
X141241591Y-88134009D02*
X141193972Y-88324485D01*
X141193972Y-88324485D02*
X141146353Y-88419723D01*
X141146353Y-88419723D02*
X141051115Y-88514961D01*
X141051115Y-88514961D02*
X140908258Y-88562580D01*
X140908258Y-88562580D02*
X140813020Y-88562580D01*
X140813020Y-88562580D02*
X140670163Y-88514961D01*
X140670163Y-88514961D02*
X140622544Y-88467342D01*
X139622544Y-87657819D02*
X139670163Y-87610200D01*
X139670163Y-87610200D02*
X139813020Y-87562580D01*
X139813020Y-87562580D02*
X139908258Y-87562580D01*
X139908258Y-87562580D02*
X140051115Y-87610200D01*
X140051115Y-87610200D02*
X140146353Y-87705438D01*
X140146353Y-87705438D02*
X140193972Y-87800676D01*
X140193972Y-87800676D02*
X140241591Y-87991152D01*
X140241591Y-87991152D02*
X140241591Y-88134009D01*
X140241591Y-88134009D02*
X140193972Y-88324485D01*
X140193972Y-88324485D02*
X140146353Y-88419723D01*
X140146353Y-88419723D02*
X140051115Y-88514961D01*
X140051115Y-88514961D02*
X139908258Y-88562580D01*
X139908258Y-88562580D02*
X139813020Y-88562580D01*
X139813020Y-88562580D02*
X139670163Y-88514961D01*
X139670163Y-88514961D02*
X139622544Y-88467342D01*
X141479687Y-75157819D02*
X141527306Y-75110200D01*
X141527306Y-75110200D02*
X141670163Y-75062580D01*
X141670163Y-75062580D02*
X141765401Y-75062580D01*
X141765401Y-75062580D02*
X141908258Y-75110200D01*
X141908258Y-75110200D02*
X142003496Y-75205438D01*
X142003496Y-75205438D02*
X142051115Y-75300676D01*
X142051115Y-75300676D02*
X142098734Y-75491152D01*
X142098734Y-75491152D02*
X142098734Y-75634009D01*
X142098734Y-75634009D02*
X142051115Y-75824485D01*
X142051115Y-75824485D02*
X142003496Y-75919723D01*
X142003496Y-75919723D02*
X141908258Y-76014961D01*
X141908258Y-76014961D02*
X141765401Y-76062580D01*
X141765401Y-76062580D02*
X141670163Y-76062580D01*
X141670163Y-76062580D02*
X141527306Y-76014961D01*
X141527306Y-76014961D02*
X141479687Y-75967342D01*
X141098734Y-75348295D02*
X140622544Y-75348295D01*
X141193972Y-75062580D02*
X140860639Y-76062580D01*
X140860639Y-76062580D02*
X140527306Y-75062580D01*
X140193972Y-75062580D02*
X140193972Y-76062580D01*
X140193972Y-76062580D02*
X139622544Y-75062580D01*
X139622544Y-75062580D02*
X139622544Y-76062580D01*
X138670163Y-75062580D02*
X139146353Y-75062580D01*
X139146353Y-75062580D02*
X139146353Y-76062580D01*
X141479687Y-77657819D02*
X141527306Y-77610200D01*
X141527306Y-77610200D02*
X141670163Y-77562580D01*
X141670163Y-77562580D02*
X141765401Y-77562580D01*
X141765401Y-77562580D02*
X141908258Y-77610200D01*
X141908258Y-77610200D02*
X142003496Y-77705438D01*
X142003496Y-77705438D02*
X142051115Y-77800676D01*
X142051115Y-77800676D02*
X142098734Y-77991152D01*
X142098734Y-77991152D02*
X142098734Y-78134009D01*
X142098734Y-78134009D02*
X142051115Y-78324485D01*
X142051115Y-78324485D02*
X142003496Y-78419723D01*
X142003496Y-78419723D02*
X141908258Y-78514961D01*
X141908258Y-78514961D02*
X141765401Y-78562580D01*
X141765401Y-78562580D02*
X141670163Y-78562580D01*
X141670163Y-78562580D02*
X141527306Y-78514961D01*
X141527306Y-78514961D02*
X141479687Y-78467342D01*
X141098734Y-77848295D02*
X140622544Y-77848295D01*
X141193972Y-77562580D02*
X140860639Y-78562580D01*
X140860639Y-78562580D02*
X140527306Y-77562580D01*
X140193972Y-77562580D02*
X140193972Y-78562580D01*
X140193972Y-78562580D02*
X139622544Y-77562580D01*
X139622544Y-77562580D02*
X139622544Y-78562580D01*
X139146353Y-77562580D02*
X139146353Y-78562580D01*
X139146353Y-78086390D02*
X138574925Y-78086390D01*
X138574925Y-77562580D02*
X138574925Y-78562580D01*
X158738095Y-124037419D02*
X158738095Y-124846942D01*
X158738095Y-124846942D02*
X158785714Y-124942180D01*
X158785714Y-124942180D02*
X158833333Y-124989800D01*
X158833333Y-124989800D02*
X158928571Y-125037419D01*
X158928571Y-125037419D02*
X159119047Y-125037419D01*
X159119047Y-125037419D02*
X159214285Y-124989800D01*
X159214285Y-124989800D02*
X159261904Y-124942180D01*
X159261904Y-124942180D02*
X159309523Y-124846942D01*
X159309523Y-124846942D02*
X159309523Y-124037419D01*
X159738095Y-124132657D02*
X159785714Y-124085038D01*
X159785714Y-124085038D02*
X159880952Y-124037419D01*
X159880952Y-124037419D02*
X160119047Y-124037419D01*
X160119047Y-124037419D02*
X160214285Y-124085038D01*
X160214285Y-124085038D02*
X160261904Y-124132657D01*
X160261904Y-124132657D02*
X160309523Y-124227895D01*
X160309523Y-124227895D02*
X160309523Y-124323133D01*
X160309523Y-124323133D02*
X160261904Y-124465990D01*
X160261904Y-124465990D02*
X159690476Y-125037419D01*
X159690476Y-125037419D02*
X160309523Y-125037419D01*
D10*
X134151566Y-112403425D02*
X134151566Y-113117710D01*
X134151566Y-113117710D02*
X134103947Y-113260567D01*
X134103947Y-113260567D02*
X134008709Y-113355806D01*
X134008709Y-113355806D02*
X133865852Y-113403425D01*
X133865852Y-113403425D02*
X133770614Y-113403425D01*
X134532519Y-112403425D02*
X135151566Y-112403425D01*
X135151566Y-112403425D02*
X134818233Y-112784377D01*
X134818233Y-112784377D02*
X134961090Y-112784377D01*
X134961090Y-112784377D02*
X135056328Y-112831996D01*
X135056328Y-112831996D02*
X135103947Y-112879615D01*
X135103947Y-112879615D02*
X135151566Y-112974853D01*
X135151566Y-112974853D02*
X135151566Y-113212948D01*
X135151566Y-113212948D02*
X135103947Y-113308186D01*
X135103947Y-113308186D02*
X135056328Y-113355806D01*
X135056328Y-113355806D02*
X134961090Y-113403425D01*
X134961090Y-113403425D02*
X134675376Y-113403425D01*
X134675376Y-113403425D02*
X134580138Y-113355806D01*
X134580138Y-113355806D02*
X134532519Y-113308186D01*
X116259580Y-89302666D02*
X116307200Y-89350285D01*
X116307200Y-89350285D02*
X116354819Y-89493142D01*
X116354819Y-89493142D02*
X116354819Y-89588380D01*
X116354819Y-89588380D02*
X116307200Y-89731237D01*
X116307200Y-89731237D02*
X116211961Y-89826475D01*
X116211961Y-89826475D02*
X116116723Y-89874094D01*
X116116723Y-89874094D02*
X115926247Y-89921713D01*
X115926247Y-89921713D02*
X115783390Y-89921713D01*
X115783390Y-89921713D02*
X115592914Y-89874094D01*
X115592914Y-89874094D02*
X115497676Y-89826475D01*
X115497676Y-89826475D02*
X115402438Y-89731237D01*
X115402438Y-89731237D02*
X115354819Y-89588380D01*
X115354819Y-89588380D02*
X115354819Y-89493142D01*
X115354819Y-89493142D02*
X115402438Y-89350285D01*
X115402438Y-89350285D02*
X115450057Y-89302666D01*
X115450057Y-88921713D02*
X115402438Y-88874094D01*
X115402438Y-88874094D02*
X115354819Y-88778856D01*
X115354819Y-88778856D02*
X115354819Y-88540761D01*
X115354819Y-88540761D02*
X115402438Y-88445523D01*
X115402438Y-88445523D02*
X115450057Y-88397904D01*
X115450057Y-88397904D02*
X115545295Y-88350285D01*
X115545295Y-88350285D02*
X115640533Y-88350285D01*
X115640533Y-88350285D02*
X115783390Y-88397904D01*
X115783390Y-88397904D02*
X116354819Y-88969332D01*
X116354819Y-88969332D02*
X116354819Y-88350285D01*
D11*
X111537419Y-105922904D02*
X112346942Y-105922904D01*
X112346942Y-105922904D02*
X112442180Y-105875285D01*
X112442180Y-105875285D02*
X112489800Y-105827666D01*
X112489800Y-105827666D02*
X112537419Y-105732428D01*
X112537419Y-105732428D02*
X112537419Y-105541952D01*
X112537419Y-105541952D02*
X112489800Y-105446714D01*
X112489800Y-105446714D02*
X112442180Y-105399095D01*
X112442180Y-105399095D02*
X112346942Y-105351476D01*
X112346942Y-105351476D02*
X111537419Y-105351476D01*
X111537419Y-104399095D02*
X111537419Y-104875285D01*
X111537419Y-104875285D02*
X112013609Y-104922904D01*
X112013609Y-104922904D02*
X111965990Y-104875285D01*
X111965990Y-104875285D02*
X111918371Y-104780047D01*
X111918371Y-104780047D02*
X111918371Y-104541952D01*
X111918371Y-104541952D02*
X111965990Y-104446714D01*
X111965990Y-104446714D02*
X112013609Y-104399095D01*
X112013609Y-104399095D02*
X112108847Y-104351476D01*
X112108847Y-104351476D02*
X112346942Y-104351476D01*
X112346942Y-104351476D02*
X112442180Y-104399095D01*
X112442180Y-104399095D02*
X112489800Y-104446714D01*
X112489800Y-104446714D02*
X112537419Y-104541952D01*
X112537419Y-104541952D02*
X112537419Y-104780047D01*
X112537419Y-104780047D02*
X112489800Y-104875285D01*
X112489800Y-104875285D02*
X112442180Y-104922904D01*
D13*
X112397219Y-94475850D02*
X112397219Y-94285374D01*
X112397219Y-94285374D02*
X112444838Y-94190136D01*
X112444838Y-94190136D02*
X112540076Y-94094898D01*
X112540076Y-94094898D02*
X112730552Y-94047279D01*
X112730552Y-94047279D02*
X113063885Y-94047279D01*
X113063885Y-94047279D02*
X113254361Y-94094898D01*
X113254361Y-94094898D02*
X113349600Y-94190136D01*
X113349600Y-94190136D02*
X113397219Y-94285374D01*
X113397219Y-94285374D02*
X113397219Y-94475850D01*
X113397219Y-94475850D02*
X113349600Y-94571088D01*
X113349600Y-94571088D02*
X113254361Y-94666326D01*
X113254361Y-94666326D02*
X113063885Y-94713945D01*
X113063885Y-94713945D02*
X112730552Y-94713945D01*
X112730552Y-94713945D02*
X112540076Y-94666326D01*
X112540076Y-94666326D02*
X112444838Y-94571088D01*
X112444838Y-94571088D02*
X112397219Y-94475850D01*
X112397219Y-93618707D02*
X113206742Y-93618707D01*
X113206742Y-93618707D02*
X113301980Y-93571088D01*
X113301980Y-93571088D02*
X113349600Y-93523469D01*
X113349600Y-93523469D02*
X113397219Y-93428231D01*
X113397219Y-93428231D02*
X113397219Y-93237755D01*
X113397219Y-93237755D02*
X113349600Y-93142517D01*
X113349600Y-93142517D02*
X113301980Y-93094898D01*
X113301980Y-93094898D02*
X113206742Y-93047279D01*
X113206742Y-93047279D02*
X112397219Y-93047279D01*
X112397219Y-92713945D02*
X112397219Y-92142517D01*
X113397219Y-92428231D02*
X112397219Y-92428231D01*
X109241266Y-93716326D02*
X109241266Y-92954422D01*
X116166266Y-117366326D02*
X116166266Y-116604422D01*
X116547219Y-116985374D02*
X115785314Y-116985374D01*
X109266266Y-117266326D02*
X109266266Y-116504422D01*
X113247219Y-117416326D02*
X112247219Y-117416326D01*
X113247219Y-116940136D02*
X112247219Y-116940136D01*
X112247219Y-116940136D02*
X113247219Y-116368708D01*
X113247219Y-116368708D02*
X112247219Y-116368708D01*
X116341266Y-93816326D02*
X116341266Y-93054422D01*
X116722219Y-93435374D02*
X115960314Y-93435374D01*
D10*
X119534580Y-89302666D02*
X119582200Y-89350285D01*
X119582200Y-89350285D02*
X119629819Y-89493142D01*
X119629819Y-89493142D02*
X119629819Y-89588380D01*
X119629819Y-89588380D02*
X119582200Y-89731237D01*
X119582200Y-89731237D02*
X119486961Y-89826475D01*
X119486961Y-89826475D02*
X119391723Y-89874094D01*
X119391723Y-89874094D02*
X119201247Y-89921713D01*
X119201247Y-89921713D02*
X119058390Y-89921713D01*
X119058390Y-89921713D02*
X118867914Y-89874094D01*
X118867914Y-89874094D02*
X118772676Y-89826475D01*
X118772676Y-89826475D02*
X118677438Y-89731237D01*
X118677438Y-89731237D02*
X118629819Y-89588380D01*
X118629819Y-89588380D02*
X118629819Y-89493142D01*
X118629819Y-89493142D02*
X118677438Y-89350285D01*
X118677438Y-89350285D02*
X118725057Y-89302666D01*
X119629819Y-88350285D02*
X119629819Y-88921713D01*
X119629819Y-88635999D02*
X118629819Y-88635999D01*
X118629819Y-88635999D02*
X118772676Y-88731237D01*
X118772676Y-88731237D02*
X118867914Y-88826475D01*
X118867914Y-88826475D02*
X118915533Y-88921713D01*
D14*
%TO.C,J2*%
X100917500Y-73645000D02*
X107657500Y-73645000D01*
X100917500Y-74985000D02*
X100917500Y-73645000D01*
X100917500Y-79465000D02*
X100917500Y-75585000D01*
X101837500Y-73645000D02*
X101837500Y-79465000D01*
X102837500Y-73645000D02*
X102837500Y-79465000D01*
X105937500Y-73645000D02*
X105937500Y-79465000D01*
X107657500Y-73645000D02*
X107657500Y-79465000D01*
X107657500Y-79465000D02*
X100917500Y-79465000D01*
X100917500Y-75285000D02*
X100307500Y-75725000D01*
X100307500Y-74845000D01*
X100917500Y-75285000D01*
G36*
X100917500Y-75285000D02*
G01*
X100307500Y-75725000D01*
X100307500Y-74845000D01*
X100917500Y-75285000D01*
G37*
%TO.C,R2*%
X173577500Y-126145276D02*
X173577500Y-126654724D01*
X174622500Y-126145276D02*
X174622500Y-126654724D01*
%TO.C,C4*%
X118590000Y-121184983D02*
X118590000Y-121477517D01*
X119610000Y-121184983D02*
X119610000Y-121477517D01*
D15*
%TO.C,U4*%
X151279000Y-60350000D02*
X151279000Y-110642000D01*
X151279000Y-110642000D02*
X169821000Y-110642000D01*
X169821000Y-60350000D02*
X151279000Y-60350000D01*
X169821000Y-110642000D02*
X169821000Y-60350000D01*
%TO.C,CanBus_Module1*%
D11*
X144855000Y-73435000D02*
X124855000Y-73435000D01*
X124855000Y-90435000D01*
X144855000Y-90435000D01*
X144855000Y-73435000D01*
D16*
%TO.C,G\u002A\u002A\u002A*%
G36*
X178251640Y-121344541D02*
G01*
X178251640Y-121484932D01*
X178139326Y-121484932D01*
X178027013Y-121484932D01*
X178027013Y-121344541D01*
X178027013Y-121204149D01*
X178139326Y-121204149D01*
X178251640Y-121204149D01*
X178251640Y-121344541D01*
G37*
G36*
X178251640Y-128055239D02*
G01*
X178251640Y-128195631D01*
X178139326Y-128195631D01*
X178027013Y-128195631D01*
X178027013Y-128055239D01*
X178027013Y-127914848D01*
X178139326Y-127914848D01*
X178251640Y-127914848D01*
X178251640Y-128055239D01*
G37*
G36*
X179683631Y-121344541D02*
G01*
X179683631Y-121484932D01*
X179065910Y-121484932D01*
X178448186Y-121484932D01*
X178448186Y-121344541D01*
X178448186Y-121204149D01*
X179065910Y-121204149D01*
X179683631Y-121204149D01*
X179683631Y-121344541D01*
G37*
G36*
X179683631Y-128055239D02*
G01*
X179683631Y-128195631D01*
X179065910Y-128195631D01*
X178448186Y-128195631D01*
X178448186Y-128055239D01*
X178448186Y-127914848D01*
X179065910Y-127914848D01*
X179683631Y-127914848D01*
X179683631Y-128055239D01*
G37*
G36*
X175724600Y-116136031D02*
G01*
X175724600Y-116599321D01*
X176566947Y-116599321D01*
X177409295Y-116599321D01*
X177409295Y-116781830D01*
X177409295Y-116964338D01*
X176566947Y-116964338D01*
X175724600Y-116964338D01*
X175724600Y-117413591D01*
X175724600Y-117862842D01*
X175570169Y-117862842D01*
X175415739Y-117862842D01*
X175415739Y-116767792D01*
X175415739Y-115672740D01*
X175570169Y-115672740D01*
X175724600Y-115672740D01*
X175724600Y-116136031D01*
G37*
G36*
X178335874Y-139469039D02*
G01*
X178335874Y-140072722D01*
X178518382Y-140072722D01*
X178700890Y-140072722D01*
X178700890Y-139483079D01*
X178700890Y-138893436D01*
X178855321Y-138893436D01*
X179009751Y-138893436D01*
X179009751Y-139483079D01*
X179009751Y-140072722D01*
X179346690Y-140072722D01*
X179683631Y-140072722D01*
X179683631Y-140269271D01*
X179683631Y-140465816D01*
X178841283Y-140465816D01*
X177998936Y-140465816D01*
X177998936Y-139665587D01*
X177998936Y-138865358D01*
X178167406Y-138865358D01*
X178335874Y-138865358D01*
X178335874Y-139469039D01*
G37*
G36*
X179079947Y-126475619D02*
G01*
X179683631Y-126777072D01*
X179683631Y-126932109D01*
X179683631Y-127087147D01*
X179079947Y-127388600D01*
X178476266Y-127690052D01*
X178476266Y-127534893D01*
X178476266Y-127379732D01*
X178925517Y-127165592D01*
X179070326Y-127095542D01*
X179195726Y-127032925D01*
X179293611Y-126981948D01*
X179355876Y-126946821D01*
X179374770Y-126932343D01*
X179350742Y-126914575D01*
X179284042Y-126876999D01*
X179182743Y-126823866D01*
X179054919Y-126759417D01*
X178925517Y-126696047D01*
X178476266Y-126478864D01*
X178476266Y-126326514D01*
X178476266Y-126174167D01*
X179079947Y-126475619D01*
G37*
G36*
X179683631Y-137826463D02*
G01*
X179683631Y-138640732D01*
X178841283Y-138640732D01*
X177998936Y-138640732D01*
X177998936Y-137840503D01*
X177998936Y-137040273D01*
X178153366Y-137040273D01*
X178307796Y-137040273D01*
X178307796Y-137643954D01*
X178307796Y-138247637D01*
X178476266Y-138247637D01*
X178644734Y-138247637D01*
X178644734Y-137657994D01*
X178644734Y-137068351D01*
X178799165Y-137068351D01*
X178953595Y-137068351D01*
X178953595Y-137657994D01*
X178953595Y-138247637D01*
X179164182Y-138247637D01*
X179374770Y-138247637D01*
X179374770Y-137629916D01*
X179374770Y-137012195D01*
X179529200Y-137012195D01*
X179683631Y-137012195D01*
X179683631Y-137826463D01*
G37*
G36*
X178701509Y-104475008D02*
G01*
X178718970Y-104646855D01*
X178767283Y-104792477D01*
X178842246Y-104901321D01*
X178885464Y-104936752D01*
X178931426Y-104959325D01*
X178996175Y-104975545D01*
X179090157Y-104986887D01*
X179223818Y-104994817D01*
X179323030Y-104998416D01*
X179683631Y-105009652D01*
X179683631Y-105146724D01*
X179683631Y-105283795D01*
X179065910Y-105283795D01*
X178448186Y-105283795D01*
X178448186Y-105145184D01*
X178450327Y-105062430D01*
X178462771Y-105020282D01*
X178494541Y-105003206D01*
X178533852Y-104997772D01*
X178619517Y-104988973D01*
X178549086Y-104893883D01*
X178492641Y-104787874D01*
X178449446Y-104651065D01*
X178425843Y-104508388D01*
X178425293Y-104407101D01*
X178434324Y-104351304D01*
X178457893Y-104322955D01*
X178511881Y-104310827D01*
X178567521Y-104306537D01*
X178700890Y-104297980D01*
X178701509Y-104475008D01*
G37*
G36*
X178701509Y-123512047D02*
G01*
X178718970Y-123683894D01*
X178767283Y-123829516D01*
X178842246Y-123938360D01*
X178885464Y-123973791D01*
X178931426Y-123996365D01*
X178996175Y-124012585D01*
X179090157Y-124023926D01*
X179223818Y-124031856D01*
X179323030Y-124035456D01*
X179683631Y-124046691D01*
X179683631Y-124183763D01*
X179683631Y-124320834D01*
X179065910Y-124320834D01*
X178448186Y-124320834D01*
X178448186Y-124182223D01*
X178450327Y-124099469D01*
X178462771Y-124057322D01*
X178494541Y-124040245D01*
X178533852Y-124034811D01*
X178619517Y-124026012D01*
X178549086Y-123930923D01*
X178492641Y-123824913D01*
X178449446Y-123688105D01*
X178425843Y-123545427D01*
X178425293Y-123444140D01*
X178434324Y-123388343D01*
X178457893Y-123359994D01*
X178511881Y-123347866D01*
X178567521Y-123343576D01*
X178700890Y-123335019D01*
X178701509Y-123512047D01*
G37*
G36*
X176205966Y-134786573D02*
G01*
X176211339Y-134992278D01*
X176252613Y-135170504D01*
X176327025Y-135314987D01*
X176431818Y-135419466D01*
X176501558Y-135457670D01*
X176571602Y-135475562D01*
X176684742Y-135487669D01*
X176845546Y-135494330D01*
X177015297Y-135495971D01*
X177437372Y-135495971D01*
X177437372Y-135678479D01*
X177437372Y-135860987D01*
X176679261Y-135860987D01*
X175921148Y-135860987D01*
X175921148Y-135678479D01*
X175921148Y-135495971D01*
X176024316Y-135495971D01*
X176127485Y-135495971D01*
X176067805Y-135432444D01*
X175992644Y-135322547D01*
X175930957Y-135176515D01*
X175887846Y-135013745D01*
X175868416Y-134853633D01*
X175877772Y-134715569D01*
X175878390Y-134712695D01*
X175892243Y-134663356D01*
X175916107Y-134637368D01*
X175965290Y-134627246D01*
X176055098Y-134625508D01*
X176056751Y-134625506D01*
X176215970Y-134625469D01*
X176205966Y-134786573D01*
G37*
G36*
X176173853Y-133628768D02*
G01*
X176173853Y-133867432D01*
X176636495Y-133867432D01*
X177099139Y-133867432D01*
X177145722Y-133796339D01*
X177173380Y-133734661D01*
X177182195Y-133652813D01*
X177177109Y-133557672D01*
X177161915Y-133390103D01*
X177296133Y-133390103D01*
X177377677Y-133392693D01*
X177419957Y-133406964D01*
X177439832Y-133442661D01*
X177447902Y-133477847D01*
X177460369Y-133592720D01*
X177461224Y-133732886D01*
X177451087Y-133868826D01*
X177438190Y-133943944D01*
X177386199Y-134077488D01*
X177303450Y-134165342D01*
X177220031Y-134202822D01*
X177156404Y-134212754D01*
X177048771Y-134221265D01*
X176909268Y-134227735D01*
X176750040Y-134231541D01*
X176644163Y-134232293D01*
X176173853Y-134232450D01*
X176173853Y-134386881D01*
X176173853Y-134541311D01*
X176047500Y-134541311D01*
X175921148Y-134541311D01*
X175921148Y-134386881D01*
X175921148Y-134232450D01*
X175710561Y-134232450D01*
X175499975Y-134232450D01*
X175499975Y-134049941D01*
X175499975Y-133867432D01*
X175710561Y-133867432D01*
X175921148Y-133867432D01*
X175921148Y-133628768D01*
X175921148Y-133390103D01*
X176047500Y-133390103D01*
X176173853Y-133390103D01*
X176173853Y-133628768D01*
G37*
G36*
X178764808Y-134963392D02*
G01*
X178939524Y-134966945D01*
X179074739Y-134974389D01*
X179178773Y-134986966D01*
X179259948Y-135005924D01*
X179326578Y-135032507D01*
X179386986Y-135067955D01*
X179424316Y-135094454D01*
X179527443Y-135202903D01*
X179609628Y-135353699D01*
X179668233Y-135536099D01*
X179700627Y-135739366D01*
X179704177Y-135952756D01*
X179681084Y-136141769D01*
X179623439Y-136331851D01*
X179532408Y-136496060D01*
X179415123Y-136622774D01*
X179362584Y-136660282D01*
X179224906Y-136745450D01*
X178583842Y-136754770D01*
X177942780Y-136764087D01*
X177942780Y-136565242D01*
X177942780Y-136366396D01*
X178544308Y-136366396D01*
X179145834Y-136366396D01*
X179230349Y-136295281D01*
X179309648Y-136196069D01*
X179361062Y-136064549D01*
X179385009Y-135914157D01*
X179381919Y-135758332D01*
X179352213Y-135610511D01*
X179296314Y-135484134D01*
X179214644Y-135392638D01*
X179201615Y-135383656D01*
X179166943Y-135368711D01*
X179110444Y-135357037D01*
X179025182Y-135348098D01*
X178904221Y-135341361D01*
X178740630Y-135336287D01*
X178539442Y-135332523D01*
X177942780Y-135323505D01*
X177942780Y-135142995D01*
X177942780Y-134962483D01*
X178542272Y-134962483D01*
X178764808Y-134963392D01*
G37*
G36*
X178672813Y-103486788D02*
G01*
X178672813Y-103683335D01*
X179050880Y-103683335D01*
X179218228Y-103682092D01*
X179337240Y-103675383D01*
X179415732Y-103658722D01*
X179461518Y-103627635D01*
X179482408Y-103577645D01*
X179486220Y-103504272D01*
X179482856Y-103435753D01*
X179474623Y-103304280D01*
X179575465Y-103295784D01*
X179645673Y-103295870D01*
X179680288Y-103318057D01*
X179693624Y-103351940D01*
X179706313Y-103445803D01*
X179706888Y-103568663D01*
X179696011Y-103694834D01*
X179683004Y-103766894D01*
X179662588Y-103836025D01*
X179633197Y-103886907D01*
X179586752Y-103922300D01*
X179515171Y-103944959D01*
X179410378Y-103957638D01*
X179264295Y-103963098D01*
X179104915Y-103964117D01*
X178672813Y-103964117D01*
X178672813Y-104090469D01*
X178670715Y-104168106D01*
X178656497Y-104204870D01*
X178618272Y-104216044D01*
X178574538Y-104216821D01*
X178514155Y-104214125D01*
X178485562Y-104195843D01*
X178476871Y-104146698D01*
X178476266Y-104090469D01*
X178476266Y-103964117D01*
X178307796Y-103964117D01*
X178139326Y-103964117D01*
X178139326Y-103823727D01*
X178139326Y-103683335D01*
X178307796Y-103683335D01*
X178476266Y-103683335D01*
X178476266Y-103486788D01*
X178476266Y-103290240D01*
X178574538Y-103290240D01*
X178672813Y-103290240D01*
X178672813Y-103486788D01*
G37*
G36*
X179683631Y-128670386D02*
G01*
X179683631Y-128808200D01*
X179263048Y-128817795D01*
X179100998Y-128821812D01*
X178985160Y-128826413D01*
X178905604Y-128833316D01*
X178852396Y-128844240D01*
X178815604Y-128860906D01*
X178785294Y-128885035D01*
X178766036Y-128903865D01*
X178721124Y-128958284D01*
X178695711Y-129021023D01*
X178682934Y-129112271D01*
X178680072Y-129156569D01*
X178678793Y-129269782D01*
X178692945Y-129352769D01*
X178727321Y-129430446D01*
X178735636Y-129445110D01*
X178782229Y-129511479D01*
X178839624Y-129559685D01*
X178917039Y-129592490D01*
X179023693Y-129612654D01*
X179168807Y-129622941D01*
X179339671Y-129626035D01*
X179683631Y-129627619D01*
X179683631Y-129768011D01*
X179683631Y-129908402D01*
X179065910Y-129908402D01*
X178448186Y-129908402D01*
X178448186Y-129768011D01*
X178450027Y-129684902D01*
X178461343Y-129643459D01*
X178490825Y-129629197D01*
X178532422Y-129627619D01*
X178598956Y-129617771D01*
X178613020Y-129589097D01*
X178574256Y-129543149D01*
X178543330Y-129497775D01*
X178508476Y-129418076D01*
X178486578Y-129352211D01*
X178455439Y-129176103D01*
X178457993Y-128994593D01*
X178492736Y-128827544D01*
X178533409Y-128733363D01*
X178578238Y-128665344D01*
X178631381Y-128614339D01*
X178701166Y-128578007D01*
X178795918Y-128554011D01*
X178923965Y-128540018D01*
X179093632Y-128533691D01*
X179248985Y-128532569D01*
X179683631Y-128532569D01*
X179683631Y-128670386D01*
G37*
G36*
X178656200Y-132929569D02*
G01*
X178805582Y-132982422D01*
X178917953Y-133077288D01*
X178966007Y-133151439D01*
X178987061Y-133198075D01*
X179002747Y-133250667D01*
X179014083Y-133318636D01*
X179022085Y-133411401D01*
X179027769Y-133538385D01*
X179032159Y-133709010D01*
X179033489Y-133776177D01*
X179043186Y-134288606D01*
X179363407Y-134288606D01*
X179683631Y-134288606D01*
X179683631Y-134485153D01*
X179683631Y-134681702D01*
X178839582Y-134681702D01*
X178518382Y-134681702D01*
X177995536Y-134681702D01*
X178004256Y-133939619D01*
X178005276Y-133859641D01*
X178307796Y-133859641D01*
X178307796Y-134288606D01*
X178518382Y-134288606D01*
X178728969Y-134288606D01*
X178728969Y-133897339D01*
X178726867Y-133747866D01*
X178721103Y-133612608D01*
X178712503Y-133504510D01*
X178701889Y-133436511D01*
X178699134Y-133427599D01*
X178661633Y-133355261D01*
X178608522Y-133318550D01*
X178521953Y-133306651D01*
X178498916Y-133306298D01*
X178433257Y-133310650D01*
X178384486Y-133329076D01*
X178350140Y-133368700D01*
X178327761Y-133436647D01*
X178314884Y-133540043D01*
X178309054Y-133686009D01*
X178307796Y-133859641D01*
X178005276Y-133859641D01*
X178007119Y-133715145D01*
X178010181Y-133539834D01*
X178014011Y-133406690D01*
X178019177Y-133308723D01*
X178026245Y-133238939D01*
X178035787Y-133190343D01*
X178048370Y-133155945D01*
X178064561Y-133128750D01*
X178070865Y-133120065D01*
X178161032Y-133019301D01*
X178259044Y-132957812D01*
X178382849Y-132926557D01*
X178470143Y-132918890D01*
X178656200Y-132929569D01*
G37*
G36*
X178629006Y-107257697D02*
G01*
X178767222Y-107293682D01*
X178882486Y-107364549D01*
X178933037Y-107417867D01*
X178971718Y-107482922D01*
X178999981Y-107567404D01*
X179019270Y-107679003D01*
X179031028Y-107825416D01*
X179036700Y-108014325D01*
X179037830Y-108191275D01*
X179037830Y-108653183D01*
X179360730Y-108653183D01*
X179683631Y-108653183D01*
X179683631Y-108793573D01*
X179683631Y-108933965D01*
X178881620Y-108933965D01*
X178562310Y-108933965D01*
X178079611Y-108933965D01*
X178088410Y-108239028D01*
X178089426Y-108169887D01*
X178307796Y-108169887D01*
X178307796Y-108174576D01*
X178307796Y-108653183D01*
X178562310Y-108653183D01*
X178816824Y-108653183D01*
X178807995Y-108159273D01*
X178804537Y-107981542D01*
X178800682Y-107851364D01*
X178795254Y-107760139D01*
X178787067Y-107699270D01*
X178774948Y-107660157D01*
X178757713Y-107634203D01*
X178734185Y-107612807D01*
X178732878Y-107611748D01*
X178635764Y-107565408D01*
X178524493Y-107559613D01*
X178420947Y-107593428D01*
X178376715Y-107627050D01*
X178351626Y-107653933D01*
X178333510Y-107682681D01*
X178321229Y-107722309D01*
X178313654Y-107781831D01*
X178309645Y-107870259D01*
X178308071Y-107996606D01*
X178307796Y-108169887D01*
X178089426Y-108169887D01*
X178091660Y-108017861D01*
X178095490Y-107845561D01*
X178100439Y-107714840D01*
X178107053Y-107618412D01*
X178115871Y-107548985D01*
X178127437Y-107499274D01*
X178142290Y-107461988D01*
X178146821Y-107453313D01*
X178229422Y-107356776D01*
X178346434Y-107290895D01*
X178484186Y-107257318D01*
X178629006Y-107257697D01*
G37*
G36*
X179159572Y-101674431D02*
G01*
X179330798Y-101722494D01*
X179478108Y-101813511D01*
X179592484Y-101942621D01*
X179640442Y-102033683D01*
X179669973Y-102138763D01*
X179690106Y-102277889D01*
X179699353Y-102429512D01*
X179696224Y-102572078D01*
X179684013Y-102664192D01*
X179621016Y-102847956D01*
X179519238Y-102991994D01*
X179379962Y-103094842D01*
X179266046Y-103140055D01*
X179066925Y-103173527D01*
X179032773Y-103169959D01*
X178885441Y-103154569D01*
X178724890Y-103084523D01*
X178588569Y-102964725D01*
X178495364Y-102826950D01*
X178461111Y-102727536D01*
X178439359Y-102591838D01*
X178430293Y-102437472D01*
X178431288Y-102396859D01*
X178643299Y-102396859D01*
X178656117Y-102546011D01*
X178704360Y-102683743D01*
X178787958Y-102796366D01*
X178821888Y-102824658D01*
X178912855Y-102864157D01*
X179032773Y-102881394D01*
X179158942Y-102876149D01*
X179268660Y-102848210D01*
X179305011Y-102829244D01*
X179391713Y-102741248D01*
X179450775Y-102617504D01*
X179479337Y-102472658D01*
X179474540Y-102321354D01*
X179433525Y-102178233D01*
X179432515Y-102175993D01*
X179360899Y-102068017D01*
X179285721Y-102009261D01*
X179175337Y-101972460D01*
X179047160Y-101961007D01*
X178923268Y-101974497D01*
X178825741Y-102012526D01*
X178818039Y-102017844D01*
X178724196Y-102119081D01*
X178665970Y-102249985D01*
X178643299Y-102396859D01*
X178431288Y-102396859D01*
X178434102Y-102282065D01*
X178450973Y-102143233D01*
X178481090Y-102038604D01*
X178486882Y-102026720D01*
X178592422Y-101868431D01*
X178718853Y-101759221D01*
X178873722Y-101693619D01*
X178973445Y-101674184D01*
X179159572Y-101674431D01*
G37*
G36*
X179159572Y-105577305D02*
G01*
X179330798Y-105625369D01*
X179478108Y-105716386D01*
X179592484Y-105845495D01*
X179640442Y-105936557D01*
X179669973Y-106041638D01*
X179690106Y-106180764D01*
X179699353Y-106332387D01*
X179696224Y-106474952D01*
X179684013Y-106567067D01*
X179621016Y-106750831D01*
X179519238Y-106894868D01*
X179379962Y-106997716D01*
X179266046Y-107042929D01*
X179066925Y-107076401D01*
X179032773Y-107072833D01*
X178885441Y-107057443D01*
X178724890Y-106987396D01*
X178588569Y-106867599D01*
X178495364Y-106729824D01*
X178461111Y-106630410D01*
X178439359Y-106494712D01*
X178430293Y-106340347D01*
X178431288Y-106299733D01*
X178643299Y-106299733D01*
X178656117Y-106448885D01*
X178704360Y-106586617D01*
X178787958Y-106699240D01*
X178821888Y-106727532D01*
X178912855Y-106767031D01*
X179032773Y-106784265D01*
X179158942Y-106779022D01*
X179268660Y-106751084D01*
X179305011Y-106732118D01*
X179391713Y-106644123D01*
X179450775Y-106520378D01*
X179479337Y-106375532D01*
X179474540Y-106224225D01*
X179433525Y-106081107D01*
X179432515Y-106078867D01*
X179360899Y-105970892D01*
X179285721Y-105912136D01*
X179175337Y-105875334D01*
X179047160Y-105863881D01*
X178923268Y-105877371D01*
X178825741Y-105915400D01*
X178818039Y-105920718D01*
X178724196Y-106021956D01*
X178665970Y-106152858D01*
X178643299Y-106299733D01*
X178431288Y-106299733D01*
X178434102Y-106184939D01*
X178450973Y-106046107D01*
X178481090Y-105941475D01*
X178486882Y-105929595D01*
X178592422Y-105771305D01*
X178718853Y-105662095D01*
X178873722Y-105596493D01*
X178973445Y-105577058D01*
X179159572Y-105577305D01*
G37*
G36*
X179159572Y-110013667D02*
G01*
X179330798Y-110061728D01*
X179478108Y-110152746D01*
X179592484Y-110281856D01*
X179640442Y-110372919D01*
X179669973Y-110477998D01*
X179690106Y-110617126D01*
X179699353Y-110768747D01*
X179696224Y-110911314D01*
X179684013Y-111003428D01*
X179621016Y-111187192D01*
X179519238Y-111331229D01*
X179379962Y-111434078D01*
X179266046Y-111479291D01*
X179066925Y-111512761D01*
X179032773Y-111509193D01*
X178885441Y-111493804D01*
X178724890Y-111423756D01*
X178588569Y-111303960D01*
X178495364Y-111166184D01*
X178461111Y-111066772D01*
X178439359Y-110931072D01*
X178430293Y-110776707D01*
X178431288Y-110736092D01*
X178643299Y-110736092D01*
X178656117Y-110885244D01*
X178704360Y-111022979D01*
X178787958Y-111135601D01*
X178821888Y-111163894D01*
X178912855Y-111203393D01*
X179032773Y-111220627D01*
X179158942Y-111215383D01*
X179268660Y-111187446D01*
X179305011Y-111168480D01*
X179391713Y-111080482D01*
X179450775Y-110956739D01*
X179479337Y-110811893D01*
X179474540Y-110660587D01*
X179433525Y-110517469D01*
X179432515Y-110515228D01*
X179360899Y-110407251D01*
X179285721Y-110348497D01*
X179175337Y-110311694D01*
X179047160Y-110300240D01*
X178923268Y-110313730D01*
X178825741Y-110351759D01*
X178818039Y-110357079D01*
X178724196Y-110458315D01*
X178665970Y-110589218D01*
X178643299Y-110736092D01*
X178431288Y-110736092D01*
X178434102Y-110621299D01*
X178450973Y-110482468D01*
X178481090Y-110377837D01*
X178486882Y-110365955D01*
X178592422Y-110207666D01*
X178718853Y-110098457D01*
X178873722Y-110032852D01*
X178973445Y-110013419D01*
X179159572Y-110013667D01*
G37*
G36*
X178651754Y-130249948D02*
G01*
X178849651Y-130253268D01*
X178999968Y-130256802D01*
X179111286Y-130261548D01*
X179192177Y-130268508D01*
X179251218Y-130278681D01*
X179296981Y-130293068D01*
X179338041Y-130312672D01*
X179376182Y-130334492D01*
X179499757Y-130438396D01*
X179596654Y-130584311D01*
X179664456Y-130763609D01*
X179700748Y-130967657D01*
X179703115Y-131187824D01*
X179673391Y-131396548D01*
X179608454Y-131597294D01*
X179511017Y-131754113D01*
X179382084Y-131865411D01*
X179375070Y-131869612D01*
X179331476Y-131894299D01*
X179290335Y-131912963D01*
X179243080Y-131926595D01*
X179181144Y-131936191D01*
X179095963Y-131942745D01*
X178978964Y-131947248D01*
X178821584Y-131950697D01*
X178651754Y-131953507D01*
X178055092Y-131962939D01*
X178055092Y-131822203D01*
X178055092Y-131681471D01*
X178628717Y-131672381D01*
X178824129Y-131668894D01*
X178971578Y-131664915D01*
X179079253Y-131659601D01*
X179155346Y-131652111D01*
X179208046Y-131641605D01*
X179245551Y-131627241D01*
X179276046Y-131608178D01*
X179279610Y-131605543D01*
X179376408Y-131506783D01*
X179438575Y-131377614D01*
X179468912Y-131210741D01*
X179473042Y-131101728D01*
X179458820Y-130911322D01*
X179414286Y-130762580D01*
X179336644Y-130648210D01*
X179279610Y-130597910D01*
X179249405Y-130578228D01*
X179213171Y-130563346D01*
X179162717Y-130552424D01*
X179089853Y-130544617D01*
X178986386Y-130539088D01*
X178844124Y-130534993D01*
X178654878Y-130531491D01*
X178628717Y-130531073D01*
X178055092Y-130521985D01*
X178055092Y-130381250D01*
X178055092Y-130240515D01*
X178651754Y-130249948D01*
G37*
G36*
X176272000Y-138377261D02*
G01*
X176415095Y-138461418D01*
X176525516Y-138591028D01*
X176538869Y-138613740D01*
X176561060Y-138655136D01*
X176578132Y-138695340D01*
X176590889Y-138742304D01*
X176600128Y-138803978D01*
X176606656Y-138888317D01*
X176611269Y-139003272D01*
X176614771Y-139156793D01*
X176617962Y-139356834D01*
X176618672Y-139405863D01*
X176628281Y-140072722D01*
X177018788Y-140072722D01*
X177409295Y-140072722D01*
X177409295Y-140255231D01*
X177409295Y-140437739D01*
X176410641Y-140437739D01*
X176019422Y-140437739D01*
X175411985Y-140437739D01*
X175420883Y-139602411D01*
X175421750Y-139524294D01*
X175696521Y-139524294D01*
X175696521Y-140072722D01*
X176019422Y-140072722D01*
X176342321Y-140072722D01*
X176342321Y-139529386D01*
X176340637Y-139329906D01*
X176335839Y-139158201D01*
X176328312Y-139022082D01*
X176318441Y-138929364D01*
X176311199Y-138896772D01*
X176253163Y-138809380D01*
X176157821Y-138750611D01*
X176038415Y-138724611D01*
X175908177Y-138735521D01*
X175851421Y-138752866D01*
X175802857Y-138778425D01*
X175765356Y-138818105D01*
X175737571Y-138878620D01*
X175718153Y-138966687D01*
X175705751Y-139089023D01*
X175699020Y-139252343D01*
X175696607Y-139463364D01*
X175696521Y-139524294D01*
X175421750Y-139524294D01*
X175423532Y-139363813D01*
X175426195Y-139174409D01*
X175429441Y-139027238D01*
X175433833Y-138915339D01*
X175439935Y-138831750D01*
X175448308Y-138769515D01*
X175459522Y-138721670D01*
X175474135Y-138681257D01*
X175492718Y-138641313D01*
X175499975Y-138626732D01*
X175594270Y-138488243D01*
X175717443Y-138396845D01*
X175875048Y-138348549D01*
X175890194Y-138346307D01*
X176096831Y-138338810D01*
X176272000Y-138377261D01*
G37*
G36*
X179683631Y-111938336D02*
G01*
X179681900Y-112021426D01*
X179670614Y-112062857D01*
X179640623Y-112077127D01*
X179595043Y-112078726D01*
X179536703Y-112081435D01*
X179526033Y-112095963D01*
X179551382Y-112128369D01*
X179632498Y-112254612D01*
X179685874Y-112414009D01*
X179708806Y-112589449D01*
X179698587Y-112763818D01*
X179669810Y-112877333D01*
X179601338Y-113021921D01*
X179506563Y-113129300D01*
X179400359Y-113201193D01*
X179318910Y-113240197D01*
X179235670Y-113261584D01*
X179128654Y-113269921D01*
X179069197Y-113270592D01*
X179065910Y-113270628D01*
X178875302Y-113252739D01*
X178722355Y-113197277D01*
X178600476Y-113101251D01*
X178547990Y-113035453D01*
X178470315Y-112877460D01*
X178432144Y-112695753D01*
X178433395Y-112550240D01*
X178651917Y-112550240D01*
X178654165Y-112592157D01*
X178684444Y-112753976D01*
X178746726Y-112870707D01*
X178844429Y-112945595D01*
X178980968Y-112981891D01*
X179069197Y-112986590D01*
X179227016Y-112964528D01*
X179349145Y-112899593D01*
X179433820Y-112793661D01*
X179479278Y-112648610D01*
X179486994Y-112542017D01*
X179476382Y-112433453D01*
X179449549Y-112332070D01*
X179437901Y-112305350D01*
X179350836Y-112187399D01*
X179231726Y-112114796D01*
X179103097Y-112087290D01*
X178950674Y-112098257D01*
X178824353Y-112155648D01*
X178729126Y-112253850D01*
X178669983Y-112387251D01*
X178651917Y-112550240D01*
X178433395Y-112550240D01*
X178433768Y-112506812D01*
X178475473Y-112327116D01*
X178533463Y-112207956D01*
X178615421Y-112078726D01*
X178321216Y-112078726D01*
X178027013Y-112078726D01*
X178027013Y-111938336D01*
X178027013Y-111797944D01*
X178855321Y-111797944D01*
X179683631Y-111797944D01*
X179683631Y-111938336D01*
G37*
G36*
X179683631Y-116178149D02*
G01*
X179681900Y-116261238D01*
X179670614Y-116302672D01*
X179640623Y-116316940D01*
X179595043Y-116318539D01*
X179536703Y-116321247D01*
X179526033Y-116335775D01*
X179551382Y-116368183D01*
X179632498Y-116494426D01*
X179685874Y-116653822D01*
X179708806Y-116829261D01*
X179698587Y-117003630D01*
X179669810Y-117117146D01*
X179601338Y-117261735D01*
X179506563Y-117369114D01*
X179400359Y-117441006D01*
X179318910Y-117480010D01*
X179235670Y-117501398D01*
X179128654Y-117509733D01*
X179069197Y-117510404D01*
X179065910Y-117510442D01*
X178875302Y-117492553D01*
X178722355Y-117437091D01*
X178600476Y-117341065D01*
X178547990Y-117275265D01*
X178470315Y-117117275D01*
X178432144Y-116935566D01*
X178433395Y-116790053D01*
X178651917Y-116790053D01*
X178654165Y-116831971D01*
X178684444Y-116993789D01*
X178746726Y-117110520D01*
X178844429Y-117185408D01*
X178980968Y-117221703D01*
X179069197Y-117226402D01*
X179227016Y-117204340D01*
X179349145Y-117139405D01*
X179433820Y-117033473D01*
X179479278Y-116888423D01*
X179486994Y-116781830D01*
X179476382Y-116673265D01*
X179449549Y-116571885D01*
X179437901Y-116545162D01*
X179350836Y-116427213D01*
X179231726Y-116354608D01*
X179103097Y-116327104D01*
X178950674Y-116338071D01*
X178824353Y-116395460D01*
X178729126Y-116493662D01*
X178669983Y-116627065D01*
X178651917Y-116790053D01*
X178433395Y-116790053D01*
X178433768Y-116746624D01*
X178475473Y-116566928D01*
X178533463Y-116447770D01*
X178615421Y-116318539D01*
X178321216Y-116318539D01*
X178027013Y-116318539D01*
X178027013Y-116178149D01*
X178027013Y-116037756D01*
X178855321Y-116037756D01*
X179683631Y-116037756D01*
X179683631Y-116178149D01*
G37*
G36*
X179683631Y-119575614D02*
G01*
X179681900Y-119658706D01*
X179670614Y-119700137D01*
X179640623Y-119714406D01*
X179595043Y-119716006D01*
X179536703Y-119718715D01*
X179526033Y-119733240D01*
X179551382Y-119765648D01*
X179632498Y-119891891D01*
X179685874Y-120051288D01*
X179708806Y-120226729D01*
X179698587Y-120401096D01*
X179669810Y-120514612D01*
X179601338Y-120659202D01*
X179506563Y-120766580D01*
X179400359Y-120838473D01*
X179318910Y-120877477D01*
X179235670Y-120898865D01*
X179128654Y-120907199D01*
X179069197Y-120907870D01*
X179065910Y-120907907D01*
X178875302Y-120890018D01*
X178722355Y-120834556D01*
X178600476Y-120738532D01*
X178547990Y-120672731D01*
X178470315Y-120514741D01*
X178432144Y-120333033D01*
X178433395Y-120187519D01*
X178651917Y-120187519D01*
X178654165Y-120229437D01*
X178684444Y-120391256D01*
X178746726Y-120507986D01*
X178844429Y-120582874D01*
X178980968Y-120619168D01*
X179069197Y-120623868D01*
X179227016Y-120601805D01*
X179349145Y-120536870D01*
X179433820Y-120430939D01*
X179479278Y-120285889D01*
X179486994Y-120179298D01*
X179476382Y-120070733D01*
X179449549Y-119969350D01*
X179437901Y-119942627D01*
X179350836Y-119824678D01*
X179231726Y-119752073D01*
X179103097Y-119724569D01*
X178950674Y-119735536D01*
X178824353Y-119792926D01*
X178729126Y-119891131D01*
X178669983Y-120024531D01*
X178651917Y-120187519D01*
X178433395Y-120187519D01*
X178433768Y-120144090D01*
X178475473Y-119964393D01*
X178533463Y-119845237D01*
X178615421Y-119716006D01*
X178321216Y-119716006D01*
X178027013Y-119716006D01*
X178027013Y-119575614D01*
X178027013Y-119435224D01*
X178855321Y-119435224D01*
X179683631Y-119435224D01*
X179683631Y-119575614D01*
G37*
G36*
X176807969Y-131331379D02*
G01*
X176972831Y-131363784D01*
X177051471Y-131394130D01*
X177204646Y-131498763D01*
X177327570Y-131645084D01*
X177417828Y-131826005D01*
X177473002Y-132034437D01*
X177490677Y-132263301D01*
X177468438Y-132505503D01*
X177454485Y-132575834D01*
X177387143Y-132790043D01*
X177289432Y-132957505D01*
X177158935Y-133080182D01*
X176993224Y-133160036D01*
X176789881Y-133199032D01*
X176746166Y-133200920D01*
X176679261Y-133203810D01*
X176468694Y-133188256D01*
X176297108Y-133136878D01*
X176156966Y-133045325D01*
X176040738Y-132909243D01*
X175975675Y-132797268D01*
X175919558Y-132644946D01*
X175884449Y-132459085D01*
X175874779Y-132295249D01*
X176160001Y-132295249D01*
X176168767Y-132431807D01*
X176190069Y-132544932D01*
X176208930Y-132593548D01*
X176305182Y-132719652D01*
X176432840Y-132807300D01*
X176553042Y-132844064D01*
X176746166Y-132851818D01*
X176909822Y-132814067D01*
X177041253Y-132732404D01*
X177137708Y-132608415D01*
X177188431Y-132477559D01*
X177201196Y-132381716D01*
X177201389Y-132257950D01*
X177190703Y-132127542D01*
X177170826Y-132011769D01*
X177145370Y-131935485D01*
X177053080Y-131813821D01*
X176926720Y-131727246D01*
X176805478Y-131689883D01*
X176613368Y-131682786D01*
X176448312Y-131721868D01*
X176313739Y-131805687D01*
X176213083Y-131932802D01*
X176208930Y-131940399D01*
X176180085Y-132030002D01*
X176163775Y-132154798D01*
X176160001Y-132295249D01*
X175874779Y-132295249D01*
X175872645Y-132259096D01*
X175886454Y-132064388D01*
X175887749Y-132055829D01*
X175942391Y-131826552D01*
X176028981Y-131641854D01*
X176149275Y-131498966D01*
X176305025Y-131395117D01*
X176307049Y-131394130D01*
X176453444Y-131346552D01*
X176627627Y-131325635D01*
X176807969Y-131331379D01*
G37*
G36*
X176807969Y-136188912D02*
G01*
X176972831Y-136221318D01*
X177051471Y-136251663D01*
X177204646Y-136356297D01*
X177327570Y-136502617D01*
X177417828Y-136683538D01*
X177473002Y-136891972D01*
X177490677Y-137120836D01*
X177468438Y-137363037D01*
X177454485Y-137433367D01*
X177387143Y-137647577D01*
X177289432Y-137815040D01*
X177158935Y-137937715D01*
X176993224Y-138017570D01*
X176789881Y-138056567D01*
X176746166Y-138058454D01*
X176679261Y-138061344D01*
X176468694Y-138045791D01*
X176297108Y-137994412D01*
X176156966Y-137902860D01*
X176040738Y-137766778D01*
X175975675Y-137654802D01*
X175919558Y-137502479D01*
X175884449Y-137316620D01*
X175874779Y-137152782D01*
X176160001Y-137152782D01*
X176168767Y-137289340D01*
X176190069Y-137402466D01*
X176208930Y-137451081D01*
X176305182Y-137577186D01*
X176432840Y-137664835D01*
X176553042Y-137701598D01*
X176746166Y-137709351D01*
X176909822Y-137671601D01*
X177041253Y-137589937D01*
X177137708Y-137465948D01*
X177188431Y-137335094D01*
X177201196Y-137239249D01*
X177201389Y-137115485D01*
X177190703Y-136985077D01*
X177170826Y-136869303D01*
X177145370Y-136793019D01*
X177053080Y-136671354D01*
X176926720Y-136584781D01*
X176805478Y-136547416D01*
X176613368Y-136540321D01*
X176448312Y-136579403D01*
X176313739Y-136663221D01*
X176213083Y-136790335D01*
X176208930Y-136797933D01*
X176180085Y-136887535D01*
X176163775Y-137012331D01*
X176160001Y-137152782D01*
X175874779Y-137152782D01*
X175872645Y-137116629D01*
X175886454Y-136921921D01*
X175887749Y-136913363D01*
X175942391Y-136684086D01*
X176028981Y-136499390D01*
X176149275Y-136356499D01*
X176305025Y-136252650D01*
X176307049Y-136251663D01*
X176453444Y-136204086D01*
X176627627Y-136183168D01*
X176807969Y-136188912D01*
G37*
G36*
X176820188Y-125630060D02*
G01*
X177020449Y-125680000D01*
X177152625Y-125744853D01*
X177279269Y-125854496D01*
X177377445Y-126002787D01*
X177445428Y-126178993D01*
X177481489Y-126372378D01*
X177483898Y-126572211D01*
X177450927Y-126767753D01*
X177380849Y-126948272D01*
X177353957Y-126995285D01*
X177271223Y-127128657D01*
X177621039Y-127128657D01*
X177970857Y-127128657D01*
X177970857Y-127353283D01*
X177970857Y-127577910D01*
X176946003Y-127577910D01*
X176692685Y-127577910D01*
X175921148Y-127577910D01*
X175921148Y-127353283D01*
X175921148Y-127128657D01*
X176033274Y-127128657D01*
X176145403Y-127128657D01*
X176048468Y-127001663D01*
X175985373Y-126907018D01*
X175943667Y-126809802D01*
X175919777Y-126695422D01*
X175913038Y-126593325D01*
X176230625Y-126593325D01*
X176249136Y-126783141D01*
X176305501Y-126932625D01*
X176398814Y-127040736D01*
X176528177Y-127106427D01*
X176692685Y-127128657D01*
X176693299Y-127128657D01*
X176857503Y-127108237D01*
X176984937Y-127046123D01*
X177077826Y-126941037D01*
X177103133Y-126892672D01*
X177143183Y-126753736D01*
X177155714Y-126590318D01*
X177140822Y-126426834D01*
X177100766Y-126292382D01*
X177021670Y-126183009D01*
X176903552Y-126105719D01*
X176757148Y-126066555D01*
X176693299Y-126062917D01*
X176529479Y-126085315D01*
X176400107Y-126151598D01*
X176306376Y-126260393D01*
X176249483Y-126410329D01*
X176230625Y-126593325D01*
X175913038Y-126593325D01*
X175910131Y-126549281D01*
X175909754Y-126434777D01*
X175914335Y-126306687D01*
X175928289Y-126210060D01*
X175957176Y-126120336D01*
X176004009Y-126018101D01*
X176069459Y-125900161D01*
X176135933Y-125818281D01*
X176218446Y-125754137D01*
X176222475Y-125751565D01*
X176407218Y-125665944D01*
X176611117Y-125625410D01*
X176820188Y-125630060D01*
G37*
G36*
X176976075Y-121296454D02*
G01*
X177065272Y-121334427D01*
X177094093Y-121348268D01*
X177226143Y-121441679D01*
X177336041Y-121578947D01*
X177415691Y-121749556D01*
X177424516Y-121777328D01*
X177450662Y-121899628D01*
X177469620Y-122056403D01*
X177480232Y-122226698D01*
X177481333Y-122389557D01*
X177471770Y-122524022D01*
X177467366Y-122551906D01*
X177404092Y-122775471D01*
X177304550Y-122956465D01*
X177168294Y-123095558D01*
X177063595Y-123161878D01*
X176979165Y-123201186D01*
X176899939Y-123224289D01*
X176805307Y-123235280D01*
X176679261Y-123238244D01*
X176554463Y-123236383D01*
X176465417Y-123227052D01*
X176391809Y-123205932D01*
X176313324Y-123168703D01*
X176288331Y-123155146D01*
X176139128Y-123049828D01*
X176026266Y-122915625D01*
X175947529Y-122747627D01*
X175900702Y-122540924D01*
X175883576Y-122290602D01*
X175883409Y-122257083D01*
X175900751Y-121983793D01*
X175952173Y-121755089D01*
X176037704Y-121570900D01*
X176157380Y-121431156D01*
X176298637Y-121341343D01*
X176384376Y-121304581D01*
X176438215Y-121293665D01*
X176467499Y-121315763D01*
X176479563Y-121378046D01*
X176481751Y-121487678D01*
X176481630Y-121520030D01*
X176480283Y-121634116D01*
X176474574Y-121706117D01*
X176460042Y-121750098D01*
X176432231Y-121780132D01*
X176390377Y-121807978D01*
X176300089Y-121882264D01*
X176242169Y-121977323D01*
X176212845Y-122103247D01*
X176208345Y-122270132D01*
X176209270Y-122292829D01*
X176222267Y-122440976D01*
X176249919Y-122549137D01*
X176299270Y-122632964D01*
X176377364Y-122708110D01*
X176406068Y-122730272D01*
X176514479Y-122780910D01*
X176650253Y-122800905D01*
X176793196Y-122789468D01*
X176914522Y-122750100D01*
X177024389Y-122675969D01*
X177099069Y-122573317D01*
X177141955Y-122435000D01*
X177156446Y-122253876D01*
X177156485Y-122241201D01*
X177143480Y-122070944D01*
X177102140Y-121942718D01*
X177028697Y-121848051D01*
X176959634Y-121799171D01*
X176918668Y-121773444D01*
X176893915Y-121744545D01*
X176881281Y-121698804D01*
X176876665Y-121622548D01*
X176875985Y-121520030D01*
X176878224Y-121395436D01*
X176890411Y-121320770D01*
X176920407Y-121289839D01*
X176976075Y-121296454D01*
G37*
G36*
X179150143Y-114858470D02*
G01*
X179150311Y-115061417D01*
X179151902Y-115214342D01*
X179156546Y-115323380D01*
X179165868Y-115394666D01*
X179181502Y-115434333D01*
X179205071Y-115448517D01*
X179238209Y-115443352D01*
X179282543Y-115424973D01*
X179298612Y-115417643D01*
X179381725Y-115349877D01*
X179442213Y-115236087D01*
X179476698Y-115083004D01*
X179479428Y-115056964D01*
X179476538Y-114874658D01*
X179431692Y-114728736D01*
X179359915Y-114633080D01*
X179314110Y-114575997D01*
X179293869Y-114504189D01*
X179290534Y-114432403D01*
X179296591Y-114343513D01*
X179319932Y-114302668D01*
X179368323Y-114306593D01*
X179449519Y-114352016D01*
X179461870Y-114360123D01*
X179570301Y-114465560D01*
X179646101Y-114616248D01*
X179688991Y-114811533D01*
X179696892Y-114902422D01*
X179699691Y-115027251D01*
X179695519Y-115146930D01*
X179685286Y-115237071D01*
X179684205Y-115242402D01*
X179620959Y-115426968D01*
X179519140Y-115571390D01*
X179379973Y-115674382D01*
X179222106Y-115730955D01*
X179032760Y-115748570D01*
X178894631Y-115724356D01*
X178856380Y-115717652D01*
X178701139Y-115642218D01*
X178575213Y-115526279D01*
X178486773Y-115373846D01*
X178484927Y-115369113D01*
X178449266Y-115227947D01*
X178435843Y-115077946D01*
X178648707Y-115077946D01*
X178684478Y-115221381D01*
X178758441Y-115342046D01*
X178771820Y-115356188D01*
X178833065Y-115411243D01*
X178881546Y-115444071D01*
X178894631Y-115448114D01*
X178907967Y-115423779D01*
X178917461Y-115349483D01*
X178923255Y-115223287D01*
X178925482Y-115043252D01*
X178925517Y-115012901D01*
X178923790Y-114824988D01*
X178918517Y-114691188D01*
X178909563Y-114609567D01*
X178896786Y-114578184D01*
X178894631Y-114577690D01*
X178857786Y-114596125D01*
X178800082Y-114642780D01*
X178770798Y-114670635D01*
X178691845Y-114786609D01*
X178651154Y-114927699D01*
X178648707Y-115077946D01*
X178435843Y-115077946D01*
X178434024Y-115057624D01*
X178439173Y-114881305D01*
X178464701Y-114722138D01*
X178485493Y-114655202D01*
X178570014Y-114510415D01*
X178695472Y-114393158D01*
X178850333Y-114310948D01*
X179023062Y-114271302D01*
X179078343Y-114268828D01*
X179150143Y-114268828D01*
X179150143Y-114858470D01*
G37*
G36*
X179150143Y-125191260D02*
G01*
X179150311Y-125394206D01*
X179151902Y-125547131D01*
X179156546Y-125656167D01*
X179165868Y-125727454D01*
X179181502Y-125767121D01*
X179205071Y-125781305D01*
X179238209Y-125776139D01*
X179282543Y-125757761D01*
X179298612Y-125750432D01*
X179381725Y-125682663D01*
X179442213Y-125568876D01*
X179476698Y-125415793D01*
X179479428Y-125389750D01*
X179476538Y-125207445D01*
X179431692Y-125061522D01*
X179359915Y-124965867D01*
X179314110Y-124908785D01*
X179293869Y-124836976D01*
X179290534Y-124765191D01*
X179296591Y-124676300D01*
X179319932Y-124635455D01*
X179368323Y-124639381D01*
X179449519Y-124684804D01*
X179461870Y-124692912D01*
X179570301Y-124798346D01*
X179646101Y-124949034D01*
X179688991Y-125144319D01*
X179696892Y-125235209D01*
X179699691Y-125360039D01*
X179695519Y-125479719D01*
X179685286Y-125569860D01*
X179684205Y-125575190D01*
X179620959Y-125759755D01*
X179519140Y-125904180D01*
X179379973Y-126007169D01*
X179222106Y-126063743D01*
X179032760Y-126081357D01*
X178894631Y-126057144D01*
X178856380Y-126050440D01*
X178701139Y-125975006D01*
X178575213Y-125859067D01*
X178486773Y-125706633D01*
X178484927Y-125701902D01*
X178449266Y-125560734D01*
X178435842Y-125410732D01*
X178648707Y-125410732D01*
X178684478Y-125554169D01*
X178758441Y-125674832D01*
X178771820Y-125688976D01*
X178833065Y-125744030D01*
X178881546Y-125776860D01*
X178894631Y-125780903D01*
X178907967Y-125756567D01*
X178917461Y-125682270D01*
X178923255Y-125556073D01*
X178925482Y-125376040D01*
X178925517Y-125345690D01*
X178923790Y-125157774D01*
X178918517Y-125023976D01*
X178909563Y-124942354D01*
X178896786Y-124910973D01*
X178894631Y-124910478D01*
X178857786Y-124928913D01*
X178800082Y-124975566D01*
X178770798Y-125003424D01*
X178691845Y-125119398D01*
X178651154Y-125260488D01*
X178648707Y-125410732D01*
X178435842Y-125410732D01*
X178434024Y-125390413D01*
X178439173Y-125214093D01*
X178464701Y-125054926D01*
X178485493Y-124987990D01*
X178570014Y-124843203D01*
X178695472Y-124725945D01*
X178850333Y-124643735D01*
X179023062Y-124604090D01*
X179078343Y-124601617D01*
X179150143Y-124601617D01*
X179150143Y-125191260D01*
G37*
G36*
X176791574Y-114703085D02*
G01*
X176791574Y-115454202D01*
X176868787Y-115435852D01*
X177000937Y-115377393D01*
X177101921Y-115273363D01*
X177170392Y-115125780D01*
X177204993Y-114936664D01*
X177205258Y-114933370D01*
X177202385Y-114737867D01*
X177161700Y-114573470D01*
X177084882Y-114446420D01*
X177070078Y-114430702D01*
X177024881Y-114379582D01*
X177000181Y-114328121D01*
X176989947Y-114256801D01*
X176988122Y-114165390D01*
X176990026Y-114066731D01*
X176997608Y-114013699D01*
X177013655Y-113995837D01*
X177032535Y-113999082D01*
X177085389Y-114014213D01*
X177101754Y-114016125D01*
X177146115Y-114036603D01*
X177210008Y-114089050D01*
X177279980Y-114159991D01*
X177342575Y-114235949D01*
X177380314Y-114295139D01*
X177442251Y-114463185D01*
X177478501Y-114664477D01*
X177487584Y-114881594D01*
X177468018Y-115097111D01*
X177454485Y-115167331D01*
X177387170Y-115381444D01*
X177289441Y-115548855D01*
X177158794Y-115671607D01*
X176992712Y-115751734D01*
X176788689Y-115791279D01*
X176679261Y-115796419D01*
X176480148Y-115783855D01*
X176479008Y-115783541D01*
X176318461Y-115739253D01*
X176182589Y-115657942D01*
X176076598Y-115554008D01*
X175987344Y-115427534D01*
X175927152Y-115285345D01*
X175892588Y-115115549D01*
X175880223Y-114906245D01*
X175880069Y-114872510D01*
X175880607Y-114830878D01*
X176160251Y-114830878D01*
X176162739Y-114985102D01*
X176184944Y-115124652D01*
X176212394Y-115201986D01*
X176266276Y-115279638D01*
X176341476Y-115351458D01*
X176420299Y-115402981D01*
X176479008Y-115420035D01*
X176491211Y-115399969D01*
X176500280Y-115337428D01*
X176506425Y-115228907D01*
X176509854Y-115070896D01*
X176510790Y-114886550D01*
X176509909Y-114690972D01*
X176507018Y-114545845D01*
X176501741Y-114445486D01*
X176493707Y-114384215D01*
X176482539Y-114356349D01*
X176475693Y-114353170D01*
X176403381Y-114375669D01*
X176321998Y-114433198D01*
X176249124Y-114511355D01*
X176214179Y-114567355D01*
X176177417Y-114684217D01*
X176160251Y-114830878D01*
X175880607Y-114830878D01*
X175881822Y-114736953D01*
X175889119Y-114638776D01*
X175905475Y-114559243D01*
X175934409Y-114479617D01*
X175967605Y-114406172D01*
X176070153Y-114236690D01*
X176200373Y-114111172D01*
X176364091Y-114025739D01*
X176567134Y-113976513D01*
X176623274Y-113969559D01*
X176791574Y-113951969D01*
X176791574Y-114703085D01*
G37*
G36*
X177437372Y-108917928D02*
G01*
X177437372Y-109102433D01*
X176930570Y-109102433D01*
X176721675Y-109103859D01*
X176561306Y-109109428D01*
X176441877Y-109121083D01*
X176355801Y-109140766D01*
X176295491Y-109170421D01*
X176253359Y-109211987D01*
X176221823Y-109267406D01*
X176213757Y-109285905D01*
X176175019Y-109439292D01*
X176179929Y-109595021D01*
X176225104Y-109739385D01*
X176307164Y-109858674D01*
X176367532Y-109909123D01*
X176405329Y-109932291D01*
X176445027Y-109949052D01*
X176496052Y-109960436D01*
X176567834Y-109967477D01*
X176669801Y-109971205D01*
X176811383Y-109972652D01*
X176950155Y-109972859D01*
X177437372Y-109972859D01*
X177437372Y-110155367D01*
X177437372Y-110337875D01*
X176924946Y-110337980D01*
X176739529Y-110338584D01*
X176601286Y-110340842D01*
X176501239Y-110345562D01*
X176430414Y-110353553D01*
X176379828Y-110365618D01*
X176340509Y-110382565D01*
X176324159Y-110391964D01*
X176239978Y-110473583D01*
X176189984Y-110585861D01*
X176172675Y-110716088D01*
X176186552Y-110851558D01*
X176230122Y-110979566D01*
X176301882Y-111087407D01*
X176400337Y-111162369D01*
X176415789Y-111169362D01*
X176477982Y-111186106D01*
X176575874Y-111197863D01*
X176715603Y-111205058D01*
X176903310Y-111208124D01*
X176973181Y-111208301D01*
X177437372Y-111208301D01*
X177437372Y-111390809D01*
X177437372Y-111573320D01*
X176679261Y-111573320D01*
X175921148Y-111573320D01*
X175921148Y-111390809D01*
X175921148Y-111208301D01*
X176021918Y-111208301D01*
X176122688Y-111208301D01*
X176050238Y-111122199D01*
X175964872Y-110980758D01*
X175913759Y-110809832D01*
X175896642Y-110623814D01*
X175913268Y-110437091D01*
X175963379Y-110264056D01*
X176046722Y-110119099D01*
X176068452Y-110093539D01*
X176124954Y-110031710D01*
X176053543Y-109946842D01*
X175985609Y-109847258D01*
X175940742Y-109731632D01*
X175915700Y-109587483D01*
X175907242Y-109402322D01*
X175907184Y-109383216D01*
X175908727Y-109253160D01*
X175915647Y-109162306D01*
X175931254Y-109093732D01*
X175958861Y-109030524D01*
X175985416Y-108983257D01*
X176029320Y-108912815D01*
X176073152Y-108858270D01*
X176124593Y-108817456D01*
X176191330Y-108788213D01*
X176281048Y-108768371D01*
X176401429Y-108755773D01*
X176560163Y-108748249D01*
X176764930Y-108743641D01*
X176840710Y-108742440D01*
X177437372Y-108733422D01*
X177437372Y-108917928D01*
G37*
G36*
X179441242Y-121782710D02*
G01*
X179540529Y-121838249D01*
X179614754Y-121939147D01*
X179640883Y-121996835D01*
X179671166Y-122108910D01*
X179691380Y-122257624D01*
X179700705Y-122424221D01*
X179698326Y-122589956D01*
X179683421Y-122736076D01*
X179675009Y-122779490D01*
X179630899Y-122930537D01*
X179573492Y-123035553D01*
X179494287Y-123104459D01*
X179384787Y-123147180D01*
X179353710Y-123154496D01*
X179262455Y-123174089D01*
X179262455Y-123030771D01*
X179265915Y-122943224D01*
X179280679Y-122894806D01*
X179313323Y-122868693D01*
X179328267Y-122862433D01*
X179397406Y-122807375D01*
X179444141Y-122702789D01*
X179468760Y-122547803D01*
X179473042Y-122424288D01*
X179468904Y-122289635D01*
X179454954Y-122196691D01*
X179428892Y-122131515D01*
X179423259Y-122122446D01*
X179360699Y-122064146D01*
X179287102Y-122046844D01*
X179220623Y-122073571D01*
X179208082Y-122086466D01*
X179192656Y-122128335D01*
X179174206Y-122214198D01*
X179154900Y-122332138D01*
X179136899Y-122470232D01*
X179134472Y-122491713D01*
X179117223Y-122635059D01*
X179099264Y-122763276D01*
X179082602Y-122863268D01*
X179069238Y-122921943D01*
X179068027Y-122925387D01*
X179004080Y-123020670D01*
X178904867Y-123084837D01*
X178784740Y-123113069D01*
X178658059Y-123100548D01*
X178604352Y-123081074D01*
X178529310Y-123018121D01*
X178470264Y-122911751D01*
X178428318Y-122772693D01*
X178404575Y-122611673D01*
X178400137Y-122439422D01*
X178416107Y-122266668D01*
X178453591Y-122104139D01*
X178493370Y-122001886D01*
X178563064Y-121907657D01*
X178659853Y-121843297D01*
X178755653Y-121821870D01*
X178790765Y-121829245D01*
X178807867Y-121860799D01*
X178813057Y-121930683D01*
X178813205Y-121955605D01*
X178808603Y-122041532D01*
X178790236Y-122089362D01*
X178751258Y-122116730D01*
X178750526Y-122117053D01*
X178683678Y-122168463D01*
X178641084Y-122256458D01*
X178620389Y-122387499D01*
X178617485Y-122481710D01*
X178625919Y-122635843D01*
X178652720Y-122741446D01*
X178700122Y-122803777D01*
X178764705Y-122827532D01*
X178805624Y-122827696D01*
X178836734Y-122812408D01*
X178860521Y-122774246D01*
X178879482Y-122705788D01*
X178896100Y-122599607D01*
X178912870Y-122448280D01*
X178921432Y-122360268D01*
X178945417Y-122158365D01*
X178976604Y-122006169D01*
X179019117Y-121897316D01*
X179077087Y-121825439D01*
X179154642Y-121784177D01*
X179255910Y-121767161D01*
X179307035Y-121765714D01*
X179441242Y-121782710D01*
G37*
G36*
X179650071Y-117940058D02*
G01*
X179640701Y-118023167D01*
X179621605Y-118065240D01*
X179585386Y-118081347D01*
X179580331Y-118082140D01*
X179519148Y-118090852D01*
X179585176Y-118188150D01*
X179661100Y-118345237D01*
X179700580Y-118529365D01*
X179701822Y-118723390D01*
X179663027Y-118910156D01*
X179661342Y-118915126D01*
X179591197Y-119050027D01*
X179491947Y-119138204D01*
X179368430Y-119177264D01*
X179307902Y-119171991D01*
X179225478Y-119164811D01*
X179183167Y-119151957D01*
X179113050Y-119116988D01*
X179058656Y-119062041D01*
X179016876Y-118979429D01*
X178984604Y-118861469D01*
X178958734Y-118700476D01*
X178942644Y-118556781D01*
X178927413Y-118415218D01*
X178912079Y-118292912D01*
X178898233Y-118201207D01*
X178887447Y-118151450D01*
X178885548Y-118147099D01*
X178840499Y-118119974D01*
X178774273Y-118119619D01*
X178714264Y-118144618D01*
X178701763Y-118156615D01*
X178675598Y-118217719D01*
X178658318Y-118315805D01*
X178651119Y-118432232D01*
X178655198Y-118548350D01*
X178670645Y-118641535D01*
X178702753Y-118722013D01*
X178744239Y-118779759D01*
X178758002Y-118789934D01*
X178791273Y-118831111D01*
X178811459Y-118900137D01*
X178817870Y-118978813D01*
X178809816Y-119048937D01*
X178786605Y-119092310D01*
X178769693Y-119098284D01*
X178685953Y-119076749D01*
X178598421Y-119022881D01*
X178531712Y-118952780D01*
X178522062Y-118936360D01*
X178469067Y-118789600D01*
X178437503Y-118609181D01*
X178427920Y-118413570D01*
X178440872Y-118221234D01*
X178466669Y-118099129D01*
X179078187Y-118099129D01*
X179079513Y-118118792D01*
X179088658Y-118161016D01*
X179102320Y-118246194D01*
X179118571Y-118361497D01*
X179133727Y-118479678D01*
X179152908Y-118624219D01*
X179170551Y-118723568D01*
X179189588Y-118788511D01*
X179212955Y-118829829D01*
X179234979Y-118851714D01*
X179307902Y-118894739D01*
X179372461Y-118889540D01*
X179444338Y-118834712D01*
X179446242Y-118832819D01*
X179487309Y-118781604D01*
X179508021Y-118720768D01*
X179514450Y-118629712D01*
X179514544Y-118601172D01*
X179502114Y-118464742D01*
X179469996Y-118344168D01*
X179462352Y-118326132D01*
X179391261Y-118206217D01*
X179304774Y-118132969D01*
X179191451Y-118097038D01*
X179179834Y-118095356D01*
X179106935Y-118089293D01*
X179078187Y-118099129D01*
X178466669Y-118099129D01*
X178476912Y-118050646D01*
X178494138Y-118001839D01*
X178524747Y-117937501D01*
X178563373Y-117888930D01*
X178617778Y-117853959D01*
X178695719Y-117830423D01*
X178804965Y-117816151D01*
X178953270Y-117808976D01*
X179148396Y-117806734D01*
X179192898Y-117806686D01*
X179658628Y-117806686D01*
X179650071Y-117940058D01*
G37*
G36*
X176791574Y-119810280D02*
G01*
X176792039Y-120012488D01*
X176793357Y-120195067D01*
X176795401Y-120350868D01*
X176798048Y-120472741D01*
X176801171Y-120553534D01*
X176804650Y-120586100D01*
X176805044Y-120586430D01*
X176837088Y-120576916D01*
X176901574Y-120553016D01*
X176930858Y-120541480D01*
X177036479Y-120479563D01*
X177110384Y-120387183D01*
X177156521Y-120256999D01*
X177178844Y-120081665D01*
X177178910Y-120080508D01*
X177179313Y-119900452D01*
X177155117Y-119762693D01*
X177103698Y-119657852D01*
X177042403Y-119592384D01*
X177001386Y-119554480D01*
X176976879Y-119515925D01*
X176964649Y-119461516D01*
X176960459Y-119376043D01*
X176960043Y-119296646D01*
X176963447Y-119180215D01*
X176972933Y-119101985D01*
X176987412Y-119070463D01*
X176989023Y-119070205D01*
X177092027Y-119095544D01*
X177198587Y-119164393D01*
X177297787Y-119265996D01*
X177378715Y-119389604D01*
X177423234Y-119498004D01*
X177445182Y-119600555D01*
X177463416Y-119739941D01*
X177476614Y-119896884D01*
X177483453Y-120052115D01*
X177482607Y-120186361D01*
X177475848Y-120263531D01*
X177422981Y-120492889D01*
X177341038Y-120677523D01*
X177226990Y-120822458D01*
X177077811Y-120932720D01*
X177070191Y-120936968D01*
X176986835Y-120979353D01*
X176913910Y-121004449D01*
X176831105Y-121016577D01*
X176718103Y-121020049D01*
X176679261Y-121020064D01*
X176550278Y-121016945D01*
X176466965Y-121006963D01*
X176456599Y-121005721D01*
X176377508Y-120982241D01*
X176292921Y-120942684D01*
X176140664Y-120837442D01*
X176024670Y-120697159D01*
X175943581Y-120518855D01*
X175896036Y-120299550D01*
X175884341Y-120101052D01*
X176176813Y-120101052D01*
X176195234Y-120251558D01*
X176202768Y-120282281D01*
X176244298Y-120369259D01*
X176311792Y-120454670D01*
X176329942Y-120471807D01*
X176389842Y-120522745D01*
X176434803Y-120552572D01*
X176466965Y-120556166D01*
X176488471Y-120528394D01*
X176501464Y-120464128D01*
X176508086Y-120358241D01*
X176510481Y-120205601D01*
X176510790Y-120038905D01*
X176510186Y-119852885D01*
X176508002Y-119716001D01*
X176503683Y-119621244D01*
X176496675Y-119561605D01*
X176486419Y-119530072D01*
X176472366Y-119519637D01*
X176469649Y-119519458D01*
X176410334Y-119541719D01*
X176339031Y-119598503D01*
X176270237Y-119674817D01*
X176218450Y-119755664D01*
X176202768Y-119795531D01*
X176179324Y-119938321D01*
X176176813Y-120101052D01*
X175884341Y-120101052D01*
X175880679Y-120038905D01*
X175898077Y-119770995D01*
X175950700Y-119546472D01*
X176039186Y-119364478D01*
X176164169Y-119224162D01*
X176326288Y-119124664D01*
X176526182Y-119065131D01*
X176616085Y-119052397D01*
X176791574Y-119034129D01*
X176791574Y-119810280D01*
G37*
G36*
X176913659Y-127899134D02*
G01*
X177071466Y-127939270D01*
X177178200Y-127997624D01*
X177279309Y-128094712D01*
X177358119Y-128225778D01*
X177416207Y-128395636D01*
X177455152Y-128609097D01*
X177476538Y-128870972D01*
X177478215Y-128911624D01*
X177480988Y-129063378D01*
X177478841Y-129213138D01*
X177472307Y-129341599D01*
X177464282Y-129416031D01*
X177416725Y-129642837D01*
X177350775Y-129820851D01*
X177261851Y-129955709D01*
X177145370Y-130053045D01*
X176996750Y-130118500D01*
X176868787Y-130148786D01*
X176763495Y-130167355D01*
X176763495Y-129931139D01*
X176763495Y-129694921D01*
X176898450Y-129637903D01*
X176989822Y-129589017D01*
X177056322Y-129525084D01*
X177102011Y-129436919D01*
X177130948Y-129315329D01*
X177147195Y-129151123D01*
X177151268Y-129065703D01*
X177152091Y-128855453D01*
X177135894Y-128692097D01*
X177101266Y-128568588D01*
X177046793Y-128477871D01*
X177029563Y-128459146D01*
X176947828Y-128408709D01*
X176851068Y-128392172D01*
X176761255Y-128410989D01*
X176721032Y-128438652D01*
X176691035Y-128473351D01*
X176667187Y-128515720D01*
X176647599Y-128574256D01*
X176630388Y-128657459D01*
X176613669Y-128773827D01*
X176595560Y-128931859D01*
X176581410Y-129068201D01*
X176556420Y-129302121D01*
X176532992Y-129487592D01*
X176509093Y-129632201D01*
X176482691Y-129743545D01*
X176451755Y-129829208D01*
X176414249Y-129896784D01*
X176368144Y-129953864D01*
X176335626Y-129986118D01*
X176238929Y-130045239D01*
X176109730Y-130082728D01*
X175968783Y-130094780D01*
X175836913Y-130077611D01*
X175703081Y-130014042D01*
X175584069Y-129906935D01*
X175492183Y-129768848D01*
X175460843Y-129693829D01*
X175408210Y-129489773D01*
X175378628Y-129263829D01*
X175371195Y-129027803D01*
X175385015Y-128793506D01*
X175419184Y-128572751D01*
X175472808Y-128377344D01*
X175544981Y-128219095D01*
X175576817Y-128171515D01*
X175666390Y-128085784D01*
X175783833Y-128016719D01*
X175905501Y-127976780D01*
X175956246Y-127971620D01*
X176033460Y-127971004D01*
X176033460Y-128203861D01*
X176033460Y-128436721D01*
X175944494Y-128463586D01*
X175846956Y-128515506D01*
X175775020Y-128606722D01*
X175727218Y-128740816D01*
X175702079Y-128921372D01*
X175697192Y-129066241D01*
X175704391Y-129245778D01*
X175728948Y-129381197D01*
X175773350Y-129482531D01*
X175813060Y-129533842D01*
X175897861Y-129590296D01*
X175988596Y-129597799D01*
X176071147Y-129559852D01*
X176131391Y-129479957D01*
X176141783Y-129452348D01*
X176153588Y-129394988D01*
X176168572Y-129292741D01*
X176185347Y-129156690D01*
X176202534Y-128997920D01*
X176216187Y-128856116D01*
X176239861Y-128624504D01*
X176265456Y-128441328D01*
X176295201Y-128298868D01*
X176331324Y-128189404D01*
X176376060Y-128105215D01*
X176431635Y-128038582D01*
X176459648Y-128013212D01*
X176591519Y-127936457D01*
X176748265Y-127898312D01*
X176913659Y-127899134D01*
G37*
G36*
X177431536Y-112148922D02*
G01*
X177425723Y-112242272D01*
X177414678Y-112293437D01*
X177390598Y-112316326D01*
X177345674Y-112324847D01*
X177332080Y-112326191D01*
X177261995Y-112340237D01*
X177245385Y-112367509D01*
X177280041Y-112413931D01*
X177294385Y-112427355D01*
X177363323Y-112520002D01*
X177419276Y-112653332D01*
X177459606Y-112812839D01*
X177481676Y-112984012D01*
X177482846Y-113152340D01*
X177460478Y-113303314D01*
X177456416Y-113318419D01*
X177395646Y-113479832D01*
X177315466Y-113592031D01*
X177209275Y-113660475D01*
X177070474Y-113690622D01*
X177003394Y-113693182D01*
X176975943Y-113689941D01*
X176845446Y-113674538D01*
X176724939Y-113616608D01*
X176636351Y-113516254D01*
X176612233Y-113471311D01*
X176590942Y-113402772D01*
X176568217Y-113288177D01*
X176545738Y-113137536D01*
X176525197Y-112960855D01*
X176523528Y-112944291D01*
X176503796Y-112755687D01*
X176486103Y-112615522D01*
X176468420Y-112516231D01*
X176448705Y-112450243D01*
X176424923Y-112409991D01*
X176395038Y-112387905D01*
X176372147Y-112379953D01*
X176691942Y-112379953D01*
X176693045Y-112387177D01*
X176702448Y-112424066D01*
X176716124Y-112505521D01*
X176732379Y-112620271D01*
X176749525Y-112757041D01*
X176753057Y-112787292D01*
X176771567Y-112932064D01*
X176791520Y-113061811D01*
X176810693Y-113163573D01*
X176826862Y-113224400D01*
X176828933Y-113229281D01*
X176889982Y-113301060D01*
X176975943Y-113335357D01*
X177069610Y-113331830D01*
X177153774Y-113290140D01*
X177198663Y-113236597D01*
X177225489Y-113149828D01*
X177235171Y-113027602D01*
X177228699Y-112887605D01*
X177207068Y-112747528D01*
X177171270Y-112625056D01*
X177163263Y-112605942D01*
X177079921Y-112476393D01*
X176966957Y-112394240D01*
X176825844Y-112360478D01*
X176796936Y-112359614D01*
X176723156Y-112365090D01*
X176691942Y-112379953D01*
X176372147Y-112379953D01*
X176371635Y-112379775D01*
X176292156Y-112383525D01*
X176227829Y-112435775D01*
X176180997Y-112530352D01*
X176154013Y-112661074D01*
X176149225Y-112821768D01*
X176159046Y-112938695D01*
X176177793Y-113043875D01*
X176209020Y-113116827D01*
X176263651Y-113181457D01*
X176274941Y-113192289D01*
X176328637Y-113247876D01*
X176357251Y-113298984D01*
X176368568Y-113366892D01*
X176370401Y-113453209D01*
X176370401Y-113624100D01*
X176293185Y-113606175D01*
X176146650Y-113549201D01*
X176037194Y-113452188D01*
X175980775Y-113361650D01*
X175923621Y-113209495D01*
X175887651Y-113033594D01*
X175871943Y-112844560D01*
X175875584Y-112652997D01*
X175897651Y-112469514D01*
X175937225Y-112304719D01*
X175993389Y-112169216D01*
X176065222Y-112073617D01*
X176094302Y-112051288D01*
X176146451Y-112031312D01*
X176234821Y-112016863D01*
X176366282Y-112007149D01*
X176524830Y-112001856D01*
X176696263Y-111998057D01*
X176879454Y-111993896D01*
X177050346Y-111989919D01*
X177164793Y-111987177D01*
X177439739Y-111980452D01*
X177431536Y-112148922D01*
G37*
G36*
X177431440Y-123730888D02*
G01*
X177425569Y-123839586D01*
X177415984Y-123904192D01*
X177399158Y-123936765D01*
X177371548Y-123949367D01*
X177367176Y-123950138D01*
X177286243Y-123966601D01*
X177254704Y-123987083D01*
X177265962Y-124019879D01*
X177289490Y-124047803D01*
X177377790Y-124180153D01*
X177442247Y-124350700D01*
X177480100Y-124545591D01*
X177488593Y-124750973D01*
X177467402Y-124940898D01*
X177411667Y-125112429D01*
X177321784Y-125244794D01*
X177202409Y-125334100D01*
X177058202Y-125376454D01*
X177042948Y-125376424D01*
X176946401Y-125376239D01*
X176831955Y-125354473D01*
X176740040Y-125313188D01*
X176667430Y-125246464D01*
X176610896Y-125148389D01*
X176567210Y-125013048D01*
X176533148Y-124834521D01*
X176505479Y-124606894D01*
X176500860Y-124559499D01*
X176485179Y-124403214D01*
X176469560Y-124264015D01*
X176455340Y-124152700D01*
X176443859Y-124080072D01*
X176438859Y-124059599D01*
X176404496Y-124022654D01*
X176334279Y-124017297D01*
X176332358Y-124017480D01*
X176263705Y-124036063D01*
X176217187Y-124080963D01*
X176190004Y-124159635D01*
X176179349Y-124279532D01*
X176181178Y-124419109D01*
X176193857Y-124583092D01*
X176218632Y-124698647D01*
X176257944Y-124772660D01*
X176314234Y-124812018D01*
X176321195Y-124814409D01*
X176346338Y-124830785D01*
X176361307Y-124868024D01*
X176368521Y-124937844D01*
X176370401Y-125051962D01*
X176370401Y-125052761D01*
X176369726Y-125163576D01*
X176365157Y-125229745D01*
X176352874Y-125262782D01*
X176329058Y-125274196D01*
X176296500Y-125275494D01*
X176189618Y-125249981D01*
X176086720Y-125181217D01*
X176003521Y-125080874D01*
X175983050Y-125042781D01*
X175929718Y-124887184D01*
X175893662Y-124693677D01*
X175875496Y-124477972D01*
X175875831Y-124255782D01*
X175895279Y-124042827D01*
X175901434Y-124013287D01*
X176709499Y-124013287D01*
X176715660Y-124042959D01*
X176725372Y-124097895D01*
X176738781Y-124193946D01*
X176753928Y-124316352D01*
X176765529Y-124419109D01*
X176788654Y-124603271D01*
X176814097Y-124738460D01*
X176844415Y-124831859D01*
X176882160Y-124890651D01*
X176929888Y-124922022D01*
X176946224Y-124927080D01*
X177042948Y-124927755D01*
X177129198Y-124888401D01*
X177183708Y-124819452D01*
X177204560Y-124724203D01*
X177209763Y-124596482D01*
X177200002Y-124457541D01*
X177175965Y-124328633D01*
X177166910Y-124297671D01*
X177099285Y-124150821D01*
X177005365Y-124052237D01*
X176881969Y-123999010D01*
X176831749Y-123990616D01*
X176752382Y-123983313D01*
X176715903Y-123988944D01*
X176709499Y-124013287D01*
X175901434Y-124013287D01*
X175934455Y-123854819D01*
X175936487Y-123847889D01*
X176000564Y-123710913D01*
X176096672Y-123610210D01*
X176216308Y-123554184D01*
X176237855Y-123549795D01*
X176293606Y-123544733D01*
X176395128Y-123539645D01*
X176532038Y-123534889D01*
X176693953Y-123530819D01*
X176870490Y-123527793D01*
X176883915Y-123527620D01*
X177439548Y-123520605D01*
X177431440Y-123730888D01*
G37*
G36*
X117016932Y-132356540D02*
G01*
X117016932Y-132524594D01*
X116705658Y-132524594D01*
X116394384Y-132524594D01*
X116381556Y-133736974D01*
X116368728Y-134949356D01*
X116248690Y-134958616D01*
X116131980Y-134956280D01*
X116068634Y-134942610D01*
X116048968Y-134910900D01*
X116033740Y-134828532D01*
X116022522Y-134686830D01*
X116014888Y-134477128D01*
X116010414Y-134190750D01*
X116008674Y-133819026D01*
X116008614Y-133720970D01*
X116008614Y-132524594D01*
X115696516Y-132524594D01*
X115384418Y-132524594D01*
X115384418Y-132356540D01*
X115384418Y-132188488D01*
X116200674Y-132188488D01*
X117016932Y-132188488D01*
X117016932Y-132356540D01*
G37*
G36*
X106885740Y-132356540D02*
G01*
X106877710Y-132469448D01*
X106836982Y-132515758D01*
X106741696Y-132524594D01*
X106597650Y-132524594D01*
X106597650Y-133556918D01*
X106597650Y-134589244D01*
X106741696Y-134589244D01*
X106838474Y-134598612D01*
X106878168Y-134646130D01*
X106885740Y-134757296D01*
X106885740Y-134925350D01*
X106561638Y-134926004D01*
X106380470Y-134929332D01*
X106227206Y-134937368D01*
X106141506Y-134947344D01*
X106032996Y-134953056D01*
X105985458Y-134942688D01*
X105944868Y-134882080D01*
X105925672Y-134767864D01*
X105925438Y-134753294D01*
X105933980Y-134642152D01*
X105976810Y-134597274D01*
X106069484Y-134589244D01*
X106213530Y-134589244D01*
X106213530Y-133556918D01*
X106213530Y-132524594D01*
X106069484Y-132524594D01*
X105972706Y-132515224D01*
X105933010Y-132467706D01*
X105925438Y-132356540D01*
X105925438Y-132188488D01*
X106405590Y-132188488D01*
X106885740Y-132188488D01*
X106885740Y-132356540D01*
G37*
G36*
X115192358Y-132356540D02*
G01*
X115184328Y-132469448D01*
X115143598Y-132515758D01*
X115048312Y-132524594D01*
X114904266Y-132524594D01*
X114904266Y-133556918D01*
X114904266Y-134589244D01*
X115048312Y-134589244D01*
X115145090Y-134598612D01*
X115184784Y-134646130D01*
X115192358Y-134757296D01*
X115176702Y-134876950D01*
X115136038Y-134931264D01*
X115132338Y-134931926D01*
X115023706Y-134938486D01*
X114861378Y-134942502D01*
X114677030Y-134943900D01*
X114502334Y-134942608D01*
X114368966Y-134938550D01*
X114316082Y-134933832D01*
X114253850Y-134889232D01*
X114232316Y-134774654D01*
X114232054Y-134753776D01*
X114240532Y-134642420D01*
X114283102Y-134597368D01*
X114376100Y-134589244D01*
X114520146Y-134589244D01*
X114520146Y-133556918D01*
X114520146Y-132524594D01*
X114376100Y-132524594D01*
X114279322Y-132515224D01*
X114239628Y-132467706D01*
X114232054Y-132356540D01*
X114232054Y-132188488D01*
X114712206Y-132188488D01*
X115192358Y-132188488D01*
X115192358Y-132356540D01*
G37*
G36*
X110259162Y-120530720D02*
G01*
X110606912Y-120544820D01*
X110621258Y-123305690D01*
X110623392Y-123821890D01*
X110624384Y-124317180D01*
X110624288Y-124781808D01*
X110623154Y-125206026D01*
X110621030Y-125580078D01*
X110617970Y-125894216D01*
X110614020Y-126138688D01*
X110609236Y-126303744D01*
X110605396Y-126367006D01*
X110534002Y-126667016D01*
X110392938Y-126926850D01*
X110196292Y-127136756D01*
X109958164Y-127286982D01*
X109692646Y-127367774D01*
X109413834Y-127369380D01*
X109226380Y-127321216D01*
X108936536Y-127166510D01*
X108711390Y-126945428D01*
X108607196Y-126776088D01*
X108494248Y-126546710D01*
X108494248Y-123545766D01*
X108494248Y-120544820D01*
X108842358Y-120530712D01*
X109021786Y-120525146D01*
X109125862Y-120530368D01*
X109175128Y-120552034D01*
X109190124Y-120595796D01*
X109191184Y-120626742D01*
X109191288Y-120693468D01*
X109191344Y-120847554D01*
X109191350Y-121080332D01*
X109191308Y-121383130D01*
X109191224Y-121747282D01*
X109191096Y-122164114D01*
X109190930Y-122624960D01*
X109190724Y-123121150D01*
X109190480Y-123644012D01*
X109190476Y-123652706D01*
X109189054Y-126568534D01*
X109300976Y-126596624D01*
X109415876Y-126610462D01*
X109576374Y-126612854D01*
X109649792Y-126609720D01*
X109886686Y-126594726D01*
X109899048Y-123555672D01*
X109911412Y-120516620D01*
X110259162Y-120530720D01*
G37*
G36*
X112263434Y-133209558D02*
G01*
X112264246Y-133555310D01*
X112267390Y-133819122D01*
X112273926Y-134015074D01*
X112284918Y-134157252D01*
X112301430Y-134259734D01*
X112324522Y-134336602D01*
X112353096Y-134397932D01*
X112486862Y-134558478D01*
X112663152Y-134648694D01*
X112859122Y-134668596D01*
X113051928Y-134618204D01*
X113218728Y-134497534D01*
X113293490Y-134397182D01*
X113326596Y-134333058D01*
X113351828Y-134259474D01*
X113370554Y-134162286D01*
X113384146Y-134027342D01*
X113393972Y-133840498D01*
X113401404Y-133587606D01*
X113407810Y-133254518D01*
X113408570Y-133208808D01*
X113425350Y-132188488D01*
X113617844Y-132188488D01*
X113810338Y-132188488D01*
X113792328Y-133256824D01*
X113785844Y-133607676D01*
X113778800Y-133876974D01*
X113769760Y-134079192D01*
X113757282Y-134228800D01*
X113739932Y-134340272D01*
X113716268Y-134428080D01*
X113684854Y-134506698D01*
X113663674Y-134551422D01*
X113527460Y-134759956D01*
X113348900Y-134899604D01*
X113112058Y-134979794D01*
X112895070Y-135006096D01*
X112675674Y-135008902D01*
X112509384Y-134982328D01*
X112383472Y-134934116D01*
X112239272Y-134856828D01*
X112125116Y-134769542D01*
X112037582Y-134660606D01*
X111973256Y-134518366D01*
X111928720Y-134331170D01*
X111900556Y-134087360D01*
X111885348Y-133775286D01*
X111879678Y-133383290D01*
X111879314Y-133214776D01*
X111879314Y-132188488D01*
X112071374Y-132188488D01*
X112263434Y-132188488D01*
X112263434Y-133209558D01*
G37*
G36*
X104934122Y-132126452D02*
G01*
X104990820Y-132140942D01*
X105198210Y-132241504D01*
X105391704Y-132409586D01*
X105545084Y-132617470D01*
X105626446Y-132812860D01*
X105675152Y-133004744D01*
X105469394Y-133004744D01*
X105335920Y-132997060D01*
X105267836Y-132964080D01*
X105235074Y-132890916D01*
X105234438Y-132888408D01*
X105161410Y-132731642D01*
X105038484Y-132584712D01*
X104896350Y-132480202D01*
X104824766Y-132453378D01*
X104621308Y-132454132D01*
X104437316Y-132543606D01*
X104284802Y-132714784D01*
X104239762Y-132795366D01*
X104187296Y-132913988D01*
X104153510Y-133030784D01*
X104134480Y-133171780D01*
X104126280Y-133363008D01*
X104124872Y-133556918D01*
X104139200Y-133909518D01*
X104185070Y-134182040D01*
X104266812Y-134386506D01*
X104388750Y-134534932D01*
X104505876Y-134614930D01*
X104698680Y-134669952D01*
X104892336Y-134642294D01*
X105067162Y-134543088D01*
X105203486Y-134383466D01*
X105281316Y-134176244D01*
X105309668Y-134070082D01*
X105362502Y-134023972D01*
X105472778Y-134013168D01*
X105498646Y-134013062D01*
X105619702Y-134019506D01*
X105672434Y-134051872D01*
X105684334Y-134129714D01*
X105684308Y-134145104D01*
X105651734Y-134318292D01*
X105569848Y-134514826D01*
X105458878Y-134691828D01*
X105390948Y-134767008D01*
X105152462Y-134924340D01*
X104876528Y-135005390D01*
X104588414Y-135006604D01*
X104313388Y-134924418D01*
X104304460Y-134920062D01*
X104081816Y-134758116D01*
X103904178Y-134522248D01*
X103776038Y-134225600D01*
X103701892Y-133881320D01*
X103686234Y-133502550D01*
X103716220Y-133199678D01*
X103807852Y-132828848D01*
X103950614Y-132529328D01*
X104139562Y-132305224D01*
X104369758Y-132160640D01*
X104636258Y-132099682D01*
X104934122Y-132126452D01*
G37*
G36*
X110723984Y-132122318D02*
G01*
X110968308Y-132218242D01*
X111180734Y-132384334D01*
X111344046Y-132618772D01*
X111356426Y-132644630D01*
X111428154Y-132820016D01*
X111444098Y-132928996D01*
X111400750Y-132985722D01*
X111294594Y-133004346D01*
X111267068Y-133004744D01*
X111151666Y-132995950D01*
X111078538Y-132953602D01*
X111014824Y-132853760D01*
X110989484Y-132802496D01*
X110852496Y-132599972D01*
X110687344Y-132481674D01*
X110508038Y-132445562D01*
X110328588Y-132489586D01*
X110163004Y-132611704D01*
X110025294Y-132809872D01*
X109966052Y-132951890D01*
X109941534Y-133072508D01*
X109922694Y-133257366D01*
X109912322Y-133474724D01*
X109911162Y-133576086D01*
X109915494Y-133813772D01*
X109931408Y-133987168D01*
X109964142Y-134127806D01*
X110018926Y-134267216D01*
X110029868Y-134291042D01*
X110167120Y-134502474D01*
X110332588Y-134629444D01*
X110511852Y-134673546D01*
X110690496Y-134636368D01*
X110854102Y-134519496D01*
X110988254Y-134324522D01*
X111046016Y-134179048D01*
X111095640Y-134031292D01*
X111140106Y-133953158D01*
X111202438Y-133922468D01*
X111305664Y-133917038D01*
X111318038Y-133917032D01*
X111507466Y-133917032D01*
X111476050Y-134113498D01*
X111387282Y-134417160D01*
X111234450Y-134667166D01*
X111030466Y-134855736D01*
X110788244Y-134975098D01*
X110520692Y-135017474D01*
X110240726Y-134975086D01*
X110121188Y-134929520D01*
X109888098Y-134771700D01*
X109705904Y-134534834D01*
X109576478Y-134222456D01*
X109501690Y-133838098D01*
X109492742Y-133744054D01*
X109492414Y-133409902D01*
X109538410Y-133074860D01*
X109624308Y-132768054D01*
X109743692Y-132518608D01*
X109772024Y-132476776D01*
X109971784Y-132273790D01*
X110208508Y-132148268D01*
X110464980Y-132098384D01*
X110723984Y-132122318D01*
G37*
G36*
X116932940Y-120555348D02*
G01*
X117182966Y-120698828D01*
X117390468Y-120915966D01*
X117459950Y-121026620D01*
X117590870Y-121265046D01*
X117591992Y-123912400D01*
X117593114Y-126559752D01*
X117458948Y-126816572D01*
X117278870Y-127064012D01*
X117041254Y-127243050D01*
X116762134Y-127347006D01*
X116457544Y-127369200D01*
X116227444Y-127329692D01*
X116028450Y-127234408D01*
X115832380Y-127073558D01*
X115665612Y-126874704D01*
X115554522Y-126665404D01*
X115536850Y-126608146D01*
X115522416Y-126512050D01*
X115510256Y-126345112D01*
X115500292Y-126103520D01*
X115492440Y-125783468D01*
X115486624Y-125381146D01*
X115482760Y-124892744D01*
X115480774Y-124314452D01*
X115480448Y-123917338D01*
X115480452Y-123897876D01*
X115480586Y-123326812D01*
X115481612Y-122824242D01*
X115484436Y-122401554D01*
X115489974Y-122050676D01*
X115499136Y-121763532D01*
X115512834Y-121532048D01*
X115531984Y-121348150D01*
X115550910Y-121241040D01*
X116200674Y-121241040D01*
X116200674Y-123897876D01*
X116201238Y-124394184D01*
X116202856Y-124861474D01*
X116205424Y-125290964D01*
X116208840Y-125673874D01*
X116212998Y-126001424D01*
X116217794Y-126264830D01*
X116223120Y-126455312D01*
X116228878Y-126564088D01*
X116232684Y-126586722D01*
X116294088Y-126603384D01*
X116422254Y-126614962D01*
X116568790Y-126618732D01*
X116872886Y-126618732D01*
X116872886Y-123929886D01*
X116872886Y-121241040D01*
X116536780Y-121241040D01*
X116200674Y-121241040D01*
X115550910Y-121241040D01*
X115557496Y-121203764D01*
X115590286Y-121090818D01*
X115631264Y-121001238D01*
X115681342Y-120926948D01*
X115741436Y-120859874D01*
X115812456Y-120791944D01*
X115836270Y-120769970D01*
X116092052Y-120592836D01*
X116371048Y-120499754D01*
X116656822Y-120488124D01*
X116932940Y-120555348D01*
G37*
G36*
X108301606Y-132194902D02*
G01*
X108544994Y-132217528D01*
X108724990Y-132261446D01*
X108857594Y-132331734D01*
X108958800Y-132433466D01*
X109014346Y-132517190D01*
X109087254Y-132717404D01*
X109105110Y-132950778D01*
X109071946Y-133186364D01*
X108991792Y-133393212D01*
X108882494Y-133529488D01*
X108838114Y-133581412D01*
X108863032Y-133632464D01*
X108912086Y-133675164D01*
X108962238Y-133730148D01*
X108999778Y-133813822D01*
X109030054Y-133945742D01*
X109058410Y-134145468D01*
X109071476Y-134258266D01*
X109097972Y-134474410D01*
X109125202Y-134660126D01*
X109149366Y-134791178D01*
X109162228Y-134836984D01*
X109156696Y-134910334D01*
X109079436Y-134953980D01*
X108952420Y-134959206D01*
X108885280Y-134946800D01*
X108822792Y-134923748D01*
X108778088Y-134880230D01*
X108745872Y-134799640D01*
X108720850Y-134665366D01*
X108697730Y-134460798D01*
X108684244Y-134316070D01*
X108657922Y-134088434D01*
X108616090Y-133939126D01*
X108540742Y-133850472D01*
X108413868Y-133804804D01*
X108217460Y-133784446D01*
X108138406Y-133780456D01*
X107750014Y-133762818D01*
X107750014Y-134338946D01*
X107748106Y-134589226D01*
X107741064Y-134759292D01*
X107726912Y-134864910D01*
X107703668Y-134921846D01*
X107674064Y-134944220D01*
X107510078Y-134965258D01*
X107425912Y-134941564D01*
X107407434Y-134911658D01*
X107392856Y-134833014D01*
X107381822Y-134697370D01*
X107373972Y-134496466D01*
X107368950Y-134222040D01*
X107366400Y-133865830D01*
X107365892Y-133552916D01*
X107365892Y-133436880D01*
X107750014Y-133436880D01*
X108002092Y-133436612D01*
X108189826Y-133426382D01*
X108371294Y-133400856D01*
X108433664Y-133386496D01*
X108563502Y-133331334D01*
X108652896Y-133259432D01*
X108661736Y-133245876D01*
X108705524Y-133088986D01*
X108703774Y-132902270D01*
X108659890Y-132732190D01*
X108618988Y-132662524D01*
X108560516Y-132604652D01*
X108483526Y-132568360D01*
X108363452Y-132546974D01*
X108175736Y-132533820D01*
X108138838Y-132532082D01*
X107750014Y-132514424D01*
X107750014Y-132975652D01*
X107750014Y-133436880D01*
X107365892Y-133436880D01*
X107365892Y-132975652D01*
X107365892Y-132188488D01*
X107978834Y-132188488D01*
X108301606Y-132194902D01*
G37*
G36*
X107211920Y-120891634D02*
G01*
X107226002Y-121238448D01*
X106524558Y-121251748D01*
X105823114Y-121265046D01*
X105814258Y-122393402D01*
X105805400Y-123521758D01*
X106309560Y-123545766D01*
X106813718Y-123569772D01*
X106827826Y-123917882D01*
X106841932Y-124265992D01*
X106335670Y-124265992D01*
X106127896Y-124269176D01*
X105960908Y-124277788D01*
X105854640Y-124290416D01*
X105826734Y-124302004D01*
X105821300Y-124419074D01*
X105816512Y-124604600D01*
X105812462Y-124841342D01*
X105809242Y-125112066D01*
X105806942Y-125399536D01*
X105805654Y-125686512D01*
X105805468Y-125955760D01*
X105806476Y-126190044D01*
X105808770Y-126372124D01*
X105812440Y-126484766D01*
X105815038Y-126510698D01*
X105828132Y-126552866D01*
X105854884Y-126582332D01*
X105910420Y-126601368D01*
X106009860Y-126612252D01*
X106168322Y-126617262D01*
X106400932Y-126618668D01*
X106532936Y-126618732D01*
X107226054Y-126618732D01*
X107211946Y-126966842D01*
X107197840Y-127314952D01*
X106453604Y-127328000D01*
X106166398Y-127332076D01*
X105956566Y-127331414D01*
X105805494Y-127324154D01*
X105694570Y-127308432D01*
X105605178Y-127282382D01*
X105518708Y-127244142D01*
X105494400Y-127231970D01*
X105414920Y-127192808D01*
X105346808Y-127157186D01*
X105289188Y-127117820D01*
X105241190Y-127067426D01*
X105201944Y-126998720D01*
X105170574Y-126904420D01*
X105146210Y-126777238D01*
X105127980Y-126609894D01*
X105115010Y-126395102D01*
X105106428Y-126125578D01*
X105101364Y-125794040D01*
X105098944Y-125393200D01*
X105098296Y-124915778D01*
X105098548Y-124354490D01*
X105098786Y-123928158D01*
X105099130Y-123328688D01*
X105099858Y-122817718D01*
X105101194Y-122387720D01*
X105103358Y-122031158D01*
X105106576Y-121740508D01*
X105111070Y-121508236D01*
X105117064Y-121326812D01*
X105124778Y-121188708D01*
X105134438Y-121086392D01*
X105146266Y-121012332D01*
X105160484Y-120959002D01*
X105177318Y-120918868D01*
X105188516Y-120898416D01*
X105291184Y-120761480D01*
X105412662Y-120645870D01*
X105468722Y-120608892D01*
X105533022Y-120582192D01*
X105621304Y-120564114D01*
X105749308Y-120553000D01*
X105932774Y-120547198D01*
X106187440Y-120545046D01*
X106372964Y-120544820D01*
X107197840Y-120544820D01*
X107211920Y-120891634D01*
G37*
G36*
X118389552Y-132166140D02*
G01*
X118622710Y-132304132D01*
X118797778Y-132508624D01*
X118904452Y-132773130D01*
X118915246Y-132824688D01*
X118948224Y-133004744D01*
X118749620Y-133004744D01*
X118620882Y-132997544D01*
X118556980Y-132963896D01*
X118527084Y-132885732D01*
X118524360Y-132872702D01*
X118439558Y-132671598D01*
X118287924Y-132528050D01*
X118086616Y-132453062D01*
X117871546Y-132454202D01*
X117687450Y-132526900D01*
X117556746Y-132661832D01*
X117498430Y-132837882D01*
X117497084Y-132870330D01*
X117517432Y-133030058D01*
X117589548Y-133142372D01*
X117730038Y-133225216D01*
X117869652Y-133272864D01*
X118212458Y-133375404D01*
X118473884Y-133461532D01*
X118665450Y-133539154D01*
X118798674Y-133616174D01*
X118885080Y-133700498D01*
X118936186Y-133800028D01*
X118963514Y-133922670D01*
X118975066Y-134031320D01*
X118967354Y-134328788D01*
X118887106Y-134570252D01*
X118730540Y-134766748D01*
X118719850Y-134776284D01*
X118484256Y-134923602D01*
X118204890Y-135004958D01*
X117911230Y-135016496D01*
X117632750Y-134954356D01*
X117569106Y-134926928D01*
X117429620Y-134853742D01*
X117316502Y-134784078D01*
X117293996Y-134767354D01*
X117208022Y-134661610D01*
X117122106Y-134500292D01*
X117053434Y-134322324D01*
X117019188Y-134166622D01*
X117017986Y-134142204D01*
X117025374Y-134054360D01*
X117068080Y-134020090D01*
X117174078Y-134020454D01*
X117195284Y-134022168D01*
X117316482Y-134042484D01*
X117376050Y-134095034D01*
X117405930Y-134196256D01*
X117493654Y-134399906D01*
X117655786Y-134556072D01*
X117846084Y-134640730D01*
X118095872Y-134667412D01*
X118319818Y-134602812D01*
X118458536Y-134508884D01*
X118553896Y-134409416D01*
X118594610Y-134297622D01*
X118601430Y-134177954D01*
X118592886Y-134058480D01*
X118557842Y-133967068D01*
X118482182Y-133893296D01*
X118351786Y-133826746D01*
X118152540Y-133756998D01*
X117948460Y-133696042D01*
X117652634Y-133601978D01*
X117437722Y-133511136D01*
X117289320Y-133415094D01*
X117193020Y-133305434D01*
X117155416Y-133232392D01*
X117093948Y-132971992D01*
X117118542Y-132718362D01*
X117219736Y-132488146D01*
X117388072Y-132297990D01*
X117614088Y-132164538D01*
X117790154Y-132115624D01*
X118108600Y-132101140D01*
X118389552Y-132166140D01*
G37*
G36*
X103007486Y-129980680D02*
G01*
X103186902Y-129985346D01*
X103307826Y-129996790D01*
X103389026Y-130018010D01*
X103449268Y-130052008D01*
X103505924Y-130100488D01*
X103636158Y-130221186D01*
X111899040Y-130219858D01*
X112783502Y-130219720D01*
X113642588Y-130219594D01*
X114471330Y-130219478D01*
X115264762Y-130219376D01*
X116017916Y-130219288D01*
X116725826Y-130219210D01*
X117383526Y-130219148D01*
X117986046Y-130219100D01*
X118528422Y-130219066D01*
X119005686Y-130219046D01*
X119412872Y-130219042D01*
X119745010Y-130219052D01*
X119997138Y-130219080D01*
X120164284Y-130219122D01*
X120241484Y-130219184D01*
X120245948Y-130219198D01*
X120317438Y-130246730D01*
X120322258Y-130306034D01*
X120265192Y-130364716D01*
X120221942Y-130381930D01*
X120163054Y-130385050D01*
X120013120Y-130388070D01*
X119777116Y-130390974D01*
X119460028Y-130393742D01*
X119066836Y-130396358D01*
X118602522Y-130398808D01*
X118072066Y-130401072D01*
X117480452Y-130403134D01*
X116832660Y-130404976D01*
X116133670Y-130406584D01*
X115388466Y-130407938D01*
X114602028Y-130409022D01*
X113779340Y-130409818D01*
X112925380Y-130410312D01*
X112045134Y-130410484D01*
X111836562Y-130410476D01*
X110791920Y-130410402D01*
X109839050Y-130410386D01*
X108973694Y-130410482D01*
X108191598Y-130410736D01*
X107488500Y-130411196D01*
X106860146Y-130411914D01*
X106302278Y-130412938D01*
X105810636Y-130414318D01*
X105380966Y-130416104D01*
X105009006Y-130418342D01*
X104690504Y-130421082D01*
X104421198Y-130424376D01*
X104196834Y-130428270D01*
X104013152Y-130432816D01*
X103865894Y-130438060D01*
X103750806Y-130444054D01*
X103663626Y-130450846D01*
X103600100Y-130458486D01*
X103555970Y-130467022D01*
X103526976Y-130476504D01*
X103508864Y-130486980D01*
X103497374Y-130498500D01*
X103491212Y-130506896D01*
X103456904Y-130545916D01*
X103407130Y-130572784D01*
X103325320Y-130589686D01*
X103194908Y-130598802D01*
X102999326Y-130602318D01*
X102765722Y-130602528D01*
X102517830Y-130598538D01*
X102299724Y-130588630D01*
X102131858Y-130574196D01*
X102034684Y-130556624D01*
X102024210Y-130552128D01*
X101961664Y-130467188D01*
X101935600Y-130332618D01*
X101945362Y-130187244D01*
X101990292Y-130069886D01*
X102033056Y-130029496D01*
X102114652Y-130010726D01*
X102270744Y-129995202D01*
X102479808Y-129984412D01*
X102720328Y-129979850D01*
X102750810Y-129979792D01*
X103007486Y-129980680D01*
G37*
G36*
X103007034Y-128996210D02*
G01*
X103200894Y-128999892D01*
X103331288Y-129008774D01*
X103414492Y-129025102D01*
X103466788Y-129051122D01*
X103504456Y-129089080D01*
X103515526Y-129103380D01*
X103596914Y-129211278D01*
X111951440Y-129223418D01*
X113010606Y-129225024D01*
X113977812Y-129226658D01*
X114857136Y-129228358D01*
X115652646Y-129230166D01*
X116368420Y-129232122D01*
X117008526Y-129234270D01*
X117577040Y-129236648D01*
X118078036Y-129239298D01*
X118515582Y-129242262D01*
X118893756Y-129245580D01*
X119216628Y-129249294D01*
X119488272Y-129253442D01*
X119712762Y-129258070D01*
X119894168Y-129263214D01*
X120036564Y-129268918D01*
X120144026Y-129275222D01*
X120220622Y-129282168D01*
X120270428Y-129289798D01*
X120297516Y-129298150D01*
X120305960Y-129307266D01*
X120305968Y-129307580D01*
X120298072Y-129316712D01*
X120271672Y-129325080D01*
X120222700Y-129332724D01*
X120147086Y-129339686D01*
X120040766Y-129346008D01*
X119899668Y-129351728D01*
X119719726Y-129356888D01*
X119496870Y-129361530D01*
X119227032Y-129365694D01*
X118906146Y-129369422D01*
X118530144Y-129372752D01*
X118094954Y-129375728D01*
X117596512Y-129378390D01*
X117030748Y-129380778D01*
X116393592Y-129382932D01*
X115680980Y-129384896D01*
X114888840Y-129386708D01*
X114013106Y-129388412D01*
X113049710Y-129390044D01*
X111994584Y-129391650D01*
X111931754Y-129391742D01*
X110880694Y-129393278D01*
X109921432Y-129394738D01*
X109049736Y-129396174D01*
X108261376Y-129397644D01*
X107552118Y-129399200D01*
X106917730Y-129400896D01*
X106353980Y-129402786D01*
X105856638Y-129404924D01*
X105421472Y-129407366D01*
X105044248Y-129410164D01*
X104720736Y-129413374D01*
X104446702Y-129417050D01*
X104217916Y-129421244D01*
X104030146Y-129426012D01*
X103879160Y-129431408D01*
X103760726Y-129437486D01*
X103670612Y-129444300D01*
X103604586Y-129451904D01*
X103558416Y-129460352D01*
X103527870Y-129469700D01*
X103508716Y-129479998D01*
X103496724Y-129491306D01*
X103490374Y-129499776D01*
X103456734Y-129537708D01*
X103407226Y-129564110D01*
X103325696Y-129581046D01*
X103195994Y-129590576D01*
X103001972Y-129594764D01*
X102739314Y-129595670D01*
X102419704Y-129591890D01*
X102191668Y-129580328D01*
X102051038Y-129560666D01*
X101997802Y-129538052D01*
X101957264Y-129446004D01*
X101942446Y-129305634D01*
X101954354Y-129161416D01*
X101987182Y-129067504D01*
X102022212Y-129038450D01*
X102093918Y-129018090D01*
X102216430Y-129005060D01*
X102403882Y-128998000D01*
X102670404Y-128995540D01*
X102733424Y-128995482D01*
X103007034Y-128996210D01*
G37*
G36*
X103010526Y-130989100D02*
G01*
X103201868Y-130993450D01*
X103329488Y-131003218D01*
X103409540Y-131020468D01*
X103458170Y-131047264D01*
X103490374Y-131084004D01*
X103499886Y-131096042D01*
X103513618Y-131107036D01*
X103535806Y-131117038D01*
X103570682Y-131126104D01*
X103622476Y-131134290D01*
X103695422Y-131141646D01*
X103793750Y-131148230D01*
X103921692Y-131154092D01*
X104083482Y-131159290D01*
X104283352Y-131163878D01*
X104525532Y-131167908D01*
X104814256Y-131171434D01*
X105153756Y-131174512D01*
X105548262Y-131177196D01*
X106002008Y-131179540D01*
X106519226Y-131181598D01*
X107104146Y-131183422D01*
X107761004Y-131185070D01*
X108494028Y-131186592D01*
X109307452Y-131188046D01*
X110205508Y-131189486D01*
X111192428Y-131190962D01*
X111931098Y-131192038D01*
X112983814Y-131193600D01*
X113944686Y-131195126D01*
X114817902Y-131196668D01*
X115607644Y-131198270D01*
X116318098Y-131199982D01*
X116953454Y-131201852D01*
X117517896Y-131203928D01*
X118015608Y-131206256D01*
X118450780Y-131208888D01*
X118827594Y-131211868D01*
X119150238Y-131215246D01*
X119422898Y-131219068D01*
X119649760Y-131223384D01*
X119835010Y-131228242D01*
X119982832Y-131233690D01*
X120097416Y-131239776D01*
X120182944Y-131246546D01*
X120243604Y-131254050D01*
X120283582Y-131262334D01*
X120307064Y-131271448D01*
X120318234Y-131281440D01*
X120320836Y-131288204D01*
X120319464Y-131298764D01*
X120308318Y-131308402D01*
X120283230Y-131317160D01*
X120240030Y-131325082D01*
X120174548Y-131332206D01*
X120082614Y-131338578D01*
X119960060Y-131344240D01*
X119802714Y-131349230D01*
X119606408Y-131353592D01*
X119366972Y-131357368D01*
X119080236Y-131360600D01*
X118742032Y-131363330D01*
X118348190Y-131365600D01*
X117894538Y-131367452D01*
X117376908Y-131368926D01*
X116791130Y-131370066D01*
X116133036Y-131370914D01*
X115398456Y-131371510D01*
X114583218Y-131371898D01*
X113683156Y-131372120D01*
X112694096Y-131372214D01*
X111960714Y-131372230D01*
X103584410Y-131372230D01*
X103512774Y-131480264D01*
X103478040Y-131524128D01*
X103430776Y-131554774D01*
X103354056Y-131575102D01*
X103230952Y-131588020D01*
X103044538Y-131596428D01*
X102798694Y-131602766D01*
X102525376Y-131606936D01*
X102330778Y-131604146D01*
X102197742Y-131592966D01*
X102109120Y-131571960D01*
X102048218Y-131540024D01*
X101973498Y-131437328D01*
X101938628Y-131290956D01*
X101947966Y-131143690D01*
X101997802Y-131045728D01*
X102069294Y-131019118D01*
X102224746Y-131000880D01*
X102468326Y-130990690D01*
X102739314Y-130988110D01*
X103010526Y-130989100D01*
G37*
G36*
X103010526Y-128012162D02*
G01*
X103201868Y-128016512D01*
X103329488Y-128026280D01*
X103409540Y-128043532D01*
X103458170Y-128070326D01*
X103490374Y-128107066D01*
X103499886Y-128119104D01*
X103513618Y-128130098D01*
X103535806Y-128140100D01*
X103570682Y-128149168D01*
X103622476Y-128157352D01*
X103695422Y-128164708D01*
X103793750Y-128171292D01*
X103921692Y-128177156D01*
X104083482Y-128182354D01*
X104283352Y-128186940D01*
X104525532Y-128190970D01*
X104814256Y-128194498D01*
X105153756Y-128197576D01*
X105548262Y-128200260D01*
X106002008Y-128202602D01*
X106519226Y-128204660D01*
X107104146Y-128206484D01*
X107761004Y-128208132D01*
X108494028Y-128209656D01*
X109307452Y-128211110D01*
X110205508Y-128212548D01*
X111192428Y-128214024D01*
X111931098Y-128215100D01*
X112983814Y-128216662D01*
X113944686Y-128218190D01*
X114817902Y-128219730D01*
X115607644Y-128221332D01*
X116318098Y-128223046D01*
X116953454Y-128224914D01*
X117517896Y-128226990D01*
X118015608Y-128229320D01*
X118450780Y-128231950D01*
X118827594Y-128234930D01*
X119150238Y-128238308D01*
X119422898Y-128242130D01*
X119649760Y-128246448D01*
X119835010Y-128251306D01*
X119982832Y-128256752D01*
X120097416Y-128262838D01*
X120182944Y-128269608D01*
X120243604Y-128277112D01*
X120283582Y-128285396D01*
X120307064Y-128294512D01*
X120318234Y-128304504D01*
X120320836Y-128311266D01*
X120319464Y-128321826D01*
X120308318Y-128331464D01*
X120283230Y-128340222D01*
X120240030Y-128348144D01*
X120174548Y-128355270D01*
X120082614Y-128361642D01*
X119960060Y-128367302D01*
X119802714Y-128372292D01*
X119606408Y-128376654D01*
X119366972Y-128380430D01*
X119080236Y-128383662D01*
X118742032Y-128386392D01*
X118348190Y-128388662D01*
X117894538Y-128390514D01*
X117376908Y-128391988D01*
X116791130Y-128393128D01*
X116133036Y-128393976D01*
X115398456Y-128394572D01*
X114583218Y-128394960D01*
X113683156Y-128395182D01*
X112694096Y-128395278D01*
X111960714Y-128395292D01*
X103584410Y-128395292D01*
X103512774Y-128503326D01*
X103478292Y-128547126D01*
X103431752Y-128577558D01*
X103356222Y-128597422D01*
X103234774Y-128609518D01*
X103050478Y-128616646D01*
X102798694Y-128621414D01*
X102554958Y-128623042D01*
X102342350Y-128620392D01*
X102181158Y-128614006D01*
X102091668Y-128604432D01*
X102084228Y-128602210D01*
X101998112Y-128544716D01*
X101976930Y-128520134D01*
X101947238Y-128420374D01*
X101942894Y-128280692D01*
X101961776Y-128146998D01*
X101997802Y-128068790D01*
X102069294Y-128042182D01*
X102224746Y-128023942D01*
X102468326Y-128013752D01*
X102739314Y-128011172D01*
X103010526Y-128012162D01*
G37*
G36*
X112682174Y-120528124D02*
G01*
X112757138Y-120529492D01*
X113078144Y-120537408D01*
X113319524Y-120550312D01*
X113497680Y-120573096D01*
X113629012Y-120610652D01*
X113729924Y-120667872D01*
X113816818Y-120749646D01*
X113906096Y-120860870D01*
X113916990Y-120875410D01*
X113946392Y-120919070D01*
X113969324Y-120969712D01*
X113986584Y-121039050D01*
X113998974Y-121138802D01*
X114007298Y-121280680D01*
X114012358Y-121476400D01*
X114014954Y-121737680D01*
X114015890Y-122076232D01*
X114015986Y-122321748D01*
X114015986Y-123635490D01*
X113882952Y-123774348D01*
X113800206Y-123865334D01*
X113778758Y-123919680D01*
X113813380Y-123970006D01*
X113846672Y-124000766D01*
X113901060Y-124061216D01*
X113944406Y-124140516D01*
X113977910Y-124249330D01*
X114002764Y-124398318D01*
X114020166Y-124598142D01*
X114031314Y-124859462D01*
X114037404Y-125192944D01*
X114039634Y-125609244D01*
X114039726Y-125720834D01*
X114040776Y-126126386D01*
X114044094Y-126446746D01*
X114050218Y-126692734D01*
X114059678Y-126875172D01*
X114073016Y-127004880D01*
X114090762Y-127092680D01*
X114110102Y-127143196D01*
X114150190Y-127245408D01*
X114151346Y-127307444D01*
X114150114Y-127308864D01*
X114090226Y-127323970D01*
X113961948Y-127334772D01*
X113792896Y-127338960D01*
X113790728Y-127338960D01*
X113615388Y-127336460D01*
X113510848Y-127323244D01*
X113451904Y-127290736D01*
X113413348Y-127230360D01*
X113402606Y-127206918D01*
X113381588Y-127114592D01*
X113363262Y-126936616D01*
X113347502Y-126670610D01*
X113334176Y-126314200D01*
X113323156Y-125865006D01*
X113319768Y-125682438D01*
X113295760Y-124290000D01*
X112959654Y-124290000D01*
X112623548Y-124290000D01*
X112613214Y-125706446D01*
X112610528Y-126070658D01*
X112607988Y-126407544D01*
X112605698Y-126704038D01*
X112603758Y-126947068D01*
X112602274Y-127123566D01*
X112601346Y-127220466D01*
X112601212Y-127230926D01*
X112593488Y-127287820D01*
X112558478Y-127320210D01*
X112475100Y-127334944D01*
X112322274Y-127338866D01*
X112268572Y-127338960D01*
X112081734Y-127333740D01*
X111971092Y-127315352D01*
X111917244Y-127279704D01*
X111908458Y-127263010D01*
X111902132Y-127199338D01*
X111896644Y-127049872D01*
X111891974Y-126824166D01*
X111888106Y-126531772D01*
X111885022Y-126182240D01*
X111882706Y-125785122D01*
X111881136Y-125349972D01*
X111880298Y-124886338D01*
X111880172Y-124403774D01*
X111880740Y-123911832D01*
X111881984Y-123420062D01*
X111883890Y-122938018D01*
X111886434Y-122475250D01*
X111887372Y-122346870D01*
X112600968Y-122346870D01*
X112601274Y-122629780D01*
X112603626Y-122898534D01*
X112608034Y-123135154D01*
X112614508Y-123321670D01*
X112623056Y-123440104D01*
X112628686Y-123469816D01*
X112667708Y-123512230D01*
X112756960Y-123536002D01*
X112915842Y-123545218D01*
X112988798Y-123545766D01*
X113319768Y-123545766D01*
X113319768Y-122393402D01*
X113319768Y-121241040D01*
X112989262Y-121241040D01*
X112813332Y-121243826D01*
X112710448Y-121256782D01*
X112657682Y-121286798D01*
X112632106Y-121340764D01*
X112629804Y-121349074D01*
X112620020Y-121433150D01*
X112612234Y-121592944D01*
X112606458Y-121810478D01*
X112602698Y-122067778D01*
X112600968Y-122346870D01*
X111887372Y-122346870D01*
X111889604Y-122041310D01*
X111893378Y-121645748D01*
X111897740Y-121298118D01*
X111902672Y-121007972D01*
X111908156Y-120784860D01*
X111914174Y-120638336D01*
X111920708Y-120577948D01*
X111920948Y-120577508D01*
X111957864Y-120553292D01*
X112040556Y-120536928D01*
X112180914Y-120527734D01*
X112390824Y-120525026D01*
X112682174Y-120528124D01*
G37*
D14*
%TO.C,C3*%
X121590000Y-121184983D02*
X121590000Y-121477517D01*
X122610000Y-121184983D02*
X122610000Y-121477517D01*
%TO.C,U2*%
D17*
X146100000Y-112600000D02*
X173100000Y-112600000D01*
X173100000Y-140900000D01*
X146100000Y-140900000D01*
X146100000Y-112600000D01*
D14*
%TO.C,R1*%
X145387500Y-64234724D02*
X145387500Y-63725276D01*
X146432500Y-64234724D02*
X146432500Y-63725276D01*
D15*
%TO.C,U3*%
X100880000Y-58910000D02*
X144880000Y-58910000D01*
X100880000Y-72910000D02*
X100880000Y-58910000D01*
X144880000Y-58910000D02*
X144880000Y-72910000D01*
X144880000Y-72910000D02*
X100880000Y-72910000D01*
D13*
X100348000Y-61970000D02*
G75*
G02*
X100148000Y-61970000I-100000J0D01*
G01*
X100148000Y-61970000D02*
G75*
G02*
X100348000Y-61970000I100000J0D01*
G01*
D18*
%TO.C,J3*%
X123956600Y-105621605D02*
X123956600Y-140978396D01*
X123956600Y-140978396D02*
X145013200Y-140978396D01*
X145013200Y-105621605D02*
X123956600Y-105621605D01*
X145013200Y-140978396D02*
X145013200Y-105621605D01*
D19*
X122559600Y-115448606D02*
G75*
G02*
X121797600Y-115448606I-381000J0D01*
G01*
X121797600Y-115448606D02*
G75*
G02*
X122559600Y-115448606I381000J0D01*
G01*
D14*
%TO.C,C2*%
X116820000Y-89282267D02*
X116820000Y-88989733D01*
X117840000Y-89282267D02*
X117840000Y-88989733D01*
%TO.C,U5*%
D13*
X102980000Y-118906295D02*
X122980000Y-118906295D01*
X122980000Y-91601295D01*
X102980000Y-91601295D01*
X102980000Y-118906295D01*
D11*
X104455000Y-94411000D02*
X108455000Y-94411000D01*
X108455000Y-92411000D01*
X104455000Y-92411000D01*
X104455000Y-94411000D01*
X104480000Y-117961000D02*
X108480000Y-117961000D01*
X108480000Y-115961000D01*
X104480000Y-115961000D01*
X104480000Y-117961000D01*
X117430000Y-94436000D02*
X121430000Y-94436000D01*
X121430000Y-92436000D01*
X117430000Y-92436000D01*
X117430000Y-94436000D01*
X117455000Y-117986000D02*
X121455000Y-117986000D01*
X121455000Y-115986000D01*
X117455000Y-115986000D01*
X117455000Y-117986000D01*
D14*
%TO.C,C1*%
X120095000Y-89282267D02*
X120095000Y-88989733D01*
X121115000Y-89282267D02*
X121115000Y-88989733D01*
D16*
%TO.C,G\u002A\u002A\u002A*%
G36*
X136648512Y-96290915D02*
G01*
X136797635Y-96356067D01*
X136914994Y-96466527D01*
X136946099Y-96517173D01*
X136954592Y-96538677D01*
X136961511Y-96570207D01*
X136966720Y-96615818D01*
X136970067Y-96679578D01*
X136971411Y-96765538D01*
X136970607Y-96877762D01*
X136967509Y-97020311D01*
X136961975Y-97197245D01*
X136953855Y-97412621D01*
X136943010Y-97670499D01*
X136929291Y-97974946D01*
X136912554Y-98330011D01*
X136892658Y-98739758D01*
X136869453Y-99208254D01*
X136842799Y-99739548D01*
X136812547Y-100337708D01*
X136803659Y-100512891D01*
X136777074Y-101037127D01*
X136751539Y-101541729D01*
X136727291Y-102021955D01*
X136704571Y-102473065D01*
X136683613Y-102890318D01*
X136664653Y-103268969D01*
X136647930Y-103604283D01*
X136633680Y-103891515D01*
X136622139Y-104125921D01*
X136613546Y-104302766D01*
X136608135Y-104417303D01*
X136606144Y-104464795D01*
X136606139Y-104465342D01*
X136583104Y-104513363D01*
X136505678Y-104528430D01*
X136500755Y-104528455D01*
X136443060Y-104524849D01*
X136409551Y-104502983D01*
X136390971Y-104446300D01*
X136378068Y-104338233D01*
X136374812Y-104303054D01*
X136369495Y-104226780D01*
X136361329Y-104085075D01*
X136350593Y-103884055D01*
X136337569Y-103629847D01*
X136322542Y-103328569D01*
X136305790Y-102986343D01*
X136287598Y-102609287D01*
X136268244Y-102203526D01*
X136248014Y-101775182D01*
X136227182Y-101330369D01*
X136206039Y-100875215D01*
X136184863Y-100415839D01*
X136163932Y-99958359D01*
X136143534Y-99508903D01*
X136123948Y-99073585D01*
X136105452Y-98658529D01*
X136088334Y-98269859D01*
X136072871Y-97913691D01*
X136059348Y-97596147D01*
X136048044Y-97323351D01*
X136039243Y-97101423D01*
X136033223Y-96936479D01*
X136030270Y-96834647D01*
X136030019Y-96810688D01*
X136037868Y-96674312D01*
X136056668Y-96556515D01*
X136077838Y-96492954D01*
X136182286Y-96372088D01*
X136323663Y-96298447D01*
X136484798Y-96271549D01*
X136648512Y-96290915D01*
G37*
G36*
X137139037Y-91955755D02*
G01*
X137611898Y-92019931D01*
X137706035Y-92035637D01*
X138295671Y-92170547D01*
X138883583Y-92370779D01*
X139456715Y-92630426D01*
X140002008Y-92943578D01*
X140502040Y-93300848D01*
X140703405Y-93470515D01*
X140916199Y-93666152D01*
X141130221Y-93876872D01*
X141335274Y-94091781D01*
X141521163Y-94299995D01*
X141677690Y-94490621D01*
X141794656Y-94652776D01*
X141840843Y-94730421D01*
X141882008Y-94798170D01*
X141906602Y-94827151D01*
X141936682Y-94867840D01*
X141991655Y-94957983D01*
X142063419Y-95082890D01*
X142143872Y-95227874D01*
X142224917Y-95378248D01*
X142298451Y-95519322D01*
X142356376Y-95636408D01*
X142373994Y-95674663D01*
X142545338Y-96107407D01*
X142694792Y-96578434D01*
X142813170Y-97055703D01*
X142883578Y-97450091D01*
X142902919Y-97651789D01*
X142913440Y-97905928D01*
X142915699Y-98195525D01*
X142910259Y-98503593D01*
X142897677Y-98813151D01*
X142878511Y-99107215D01*
X142853320Y-99368796D01*
X142822667Y-99580910D01*
X142811616Y-99636379D01*
X142630189Y-100305841D01*
X142386397Y-100940867D01*
X142081655Y-101539139D01*
X141717367Y-102098343D01*
X141294946Y-102616167D01*
X140815803Y-103090294D01*
X140591184Y-103281380D01*
X140425191Y-103412782D01*
X140250362Y-103545401D01*
X140089058Y-103662567D01*
X139978090Y-103738335D01*
X139572987Y-103973561D01*
X139117357Y-104189451D01*
X138631968Y-104377585D01*
X138137583Y-104529550D01*
X137860309Y-104596628D01*
X137712835Y-104623529D01*
X137521386Y-104651231D01*
X137303291Y-104677985D01*
X137075890Y-104702052D01*
X136856511Y-104721683D01*
X136662490Y-104735135D01*
X136511161Y-104740665D01*
X136443787Y-104739177D01*
X136377985Y-104734452D01*
X136259787Y-104725847D01*
X136108724Y-104714785D01*
X136011014Y-104707604D01*
X135358009Y-104624300D01*
X134724867Y-104474046D01*
X134115625Y-104260263D01*
X133534316Y-103986374D01*
X132984974Y-103655793D01*
X132471631Y-103271947D01*
X131998324Y-102838254D01*
X131569089Y-102358134D01*
X131187956Y-101835011D01*
X130858963Y-101272300D01*
X130586140Y-100673427D01*
X130373524Y-100041811D01*
X130334052Y-99894188D01*
X130282511Y-99679182D01*
X130241159Y-99473641D01*
X130206625Y-99256646D01*
X130175532Y-99007260D01*
X130147830Y-98739113D01*
X130131611Y-98317880D01*
X130331547Y-98317880D01*
X130361799Y-98985756D01*
X130455302Y-99622619D01*
X130613971Y-100235412D01*
X130839729Y-100831089D01*
X131134495Y-101416603D01*
X131235403Y-101589212D01*
X131539963Y-102035692D01*
X131904868Y-102470953D01*
X132318334Y-102884244D01*
X132768574Y-103264822D01*
X133243807Y-103601935D01*
X133732251Y-103884839D01*
X133777659Y-103907879D01*
X134167803Y-104082625D01*
X134598190Y-104239235D01*
X135045908Y-104371111D01*
X135488057Y-104471647D01*
X135901724Y-104534239D01*
X135974951Y-104541275D01*
X136219262Y-104552843D01*
X136511527Y-104551759D01*
X136828931Y-104539313D01*
X137148663Y-104516785D01*
X137447901Y-104485460D01*
X137703837Y-104446628D01*
X137724069Y-104442788D01*
X138363723Y-104282783D01*
X138978440Y-104057044D01*
X139563651Y-103769039D01*
X140114794Y-103422223D01*
X140627303Y-103020063D01*
X141096613Y-102566014D01*
X141518160Y-102063540D01*
X141887381Y-101516102D01*
X142106005Y-101120374D01*
X142261922Y-100778094D01*
X142408960Y-100390721D01*
X142538023Y-99985294D01*
X142640013Y-99588849D01*
X142670319Y-99443385D01*
X142699989Y-99276871D01*
X142721442Y-99120582D01*
X142735855Y-98957515D01*
X142744400Y-98770670D01*
X142748250Y-98543054D01*
X142748714Y-98307359D01*
X142747093Y-98043067D01*
X142742565Y-97833743D01*
X142733735Y-97662242D01*
X142719213Y-97511416D01*
X142697600Y-97364127D01*
X142667507Y-97203226D01*
X142653280Y-97133608D01*
X142487295Y-96489413D01*
X142262835Y-95881093D01*
X141976418Y-95301363D01*
X141624546Y-94742935D01*
X141306295Y-94322250D01*
X140905088Y-93882475D01*
X140450858Y-93481295D01*
X139952544Y-93123259D01*
X139419085Y-92812928D01*
X138859421Y-92554855D01*
X138282491Y-92353592D01*
X137697235Y-92213698D01*
X137112589Y-92139727D01*
X137011797Y-92133936D01*
X136813952Y-92125826D01*
X136677639Y-92123679D01*
X136592443Y-92128104D01*
X136547975Y-92139709D01*
X136533824Y-92159112D01*
X136533669Y-92162005D01*
X136539744Y-92210933D01*
X136556903Y-92319911D01*
X136583315Y-92478016D01*
X136617135Y-92674339D01*
X136656528Y-92897963D01*
X136675818Y-93005901D01*
X136724859Y-93279869D01*
X136776615Y-93570327D01*
X136827264Y-93855746D01*
X136872992Y-94114600D01*
X136909973Y-94325363D01*
X136911935Y-94336603D01*
X137005627Y-94873890D01*
X137373863Y-95561162D01*
X137482835Y-95764887D01*
X137580245Y-95947656D01*
X137660939Y-96099735D01*
X137719755Y-96211392D01*
X137751535Y-96272891D01*
X137755431Y-96281042D01*
X137737007Y-96276715D01*
X137676018Y-96234885D01*
X137585191Y-96164365D01*
X137575111Y-96156195D01*
X137296026Y-95965015D01*
X137007218Y-95840911D01*
X136696047Y-95778888D01*
X136602530Y-95771935D01*
X136254740Y-95784035D01*
X135941702Y-95858015D01*
X135658247Y-95995671D01*
X135410830Y-96187845D01*
X135323044Y-96266931D01*
X135260187Y-96317791D01*
X135235638Y-96329608D01*
X135235630Y-96329395D01*
X135251966Y-96292511D01*
X135297729Y-96201507D01*
X135368059Y-96065728D01*
X135458105Y-95894507D01*
X135562998Y-95697186D01*
X135618153Y-95594159D01*
X136000679Y-94881247D01*
X136089115Y-94376346D01*
X136164043Y-93949775D01*
X136233439Y-93557083D01*
X136296398Y-93203304D01*
X136352003Y-92893467D01*
X136399348Y-92632611D01*
X136437523Y-92425763D01*
X136465615Y-92277962D01*
X136482719Y-92194237D01*
X136486223Y-92180011D01*
X136490822Y-92151672D01*
X136477486Y-92133287D01*
X136435009Y-92123602D01*
X136352172Y-92121359D01*
X136217769Y-92125304D01*
X136060247Y-92132322D01*
X135489961Y-92192986D01*
X134912681Y-92319459D01*
X134338555Y-92507491D01*
X133777734Y-92752834D01*
X133240364Y-93051235D01*
X132736603Y-93398447D01*
X132424300Y-93655061D01*
X131953631Y-94117455D01*
X131535153Y-94626173D01*
X131173118Y-95174799D01*
X130871777Y-95756917D01*
X130643356Y-96341851D01*
X130525699Y-96725250D01*
X130439486Y-97077967D01*
X130381006Y-97423539D01*
X130346542Y-97785503D01*
X130332385Y-98187387D01*
X130331547Y-98317880D01*
X130131611Y-98317880D01*
X130129539Y-98264069D01*
X130160139Y-97754562D01*
X130236545Y-97226138D01*
X130355659Y-96694331D01*
X130514391Y-96174683D01*
X130709651Y-95682736D01*
X130789783Y-95512373D01*
X131116068Y-94929029D01*
X131498217Y-94386818D01*
X131931527Y-93889307D01*
X132411287Y-93440059D01*
X132932793Y-93042642D01*
X133491335Y-92700618D01*
X134082209Y-92417557D01*
X134700703Y-92197019D01*
X135342113Y-92042573D01*
X135379889Y-92035725D01*
X135846078Y-91965227D01*
X136279252Y-91928402D01*
X136702528Y-91925245D01*
X137139037Y-91955755D01*
G37*
%TD*%
M02*
