%TF.GenerationSoftware,KiCad,Pcbnew,9.0.7-9.0.7~ubuntu24.04.1*%
%TF.CreationDate,2026-03-13T00:15:18+00:00*%
%TF.ProjectId,CORTEX_ALPHA,434f5254-4558-45f4-914c-5048412e6b69,rev?*%
%TF.SameCoordinates,Original*%
%TF.FileFunction,Copper,L2,Bot*%
%TF.FilePolarity,Positive*%
%FSLAX46Y46*%
G04 Gerber Fmt 4.6, Leading zero omitted, Abs format (unit mm)*
G04 Created by KiCad (PCBNEW 9.0.7-9.0.7~ubuntu24.04.1) date 2026-03-13 00:15:18*
%MOMM*%
%LPD*%
G01*
G04 APERTURE LIST*
G04 Aperture macros list*
%AMRoundRect*
0 Rectangle with rounded corners*
0 $1 Rounding radius*
0 $2 $3 $4 $5 $6 $7 $8 $9 X,Y pos of 4 corners*
0 Add a 4 corners polygon primitive as box body*
4,1,4,$2,$3,$4,$5,$6,$7,$8,$9,$2,$3,0*
0 Add four circle primitives for the rounded corners*
1,1,$1+$1,$2,$3*
1,1,$1+$1,$4,$5*
1,1,$1+$1,$6,$7*
1,1,$1+$1,$8,$9*
0 Add four rect primitives between the rounded corners*
20,1,$1+$1,$2,$3,$4,$5,0*
20,1,$1+$1,$4,$5,$6,$7,0*
20,1,$1+$1,$6,$7,$8,$9,0*
20,1,$1+$1,$8,$9,$2,$3,0*%
G04 Aperture macros list end*
%TA.AperFunction,ComponentPad*%
%ADD10RoundRect,0.250000X-0.750000X0.750000X-0.750000X-0.750000X0.750000X-0.750000X0.750000X0.750000X0*%
%TD*%
%TA.AperFunction,ComponentPad*%
%ADD11C,2.000000*%
%TD*%
%TA.AperFunction,ComponentPad*%
%ADD12C,1.800000*%
%TD*%
%TA.AperFunction,ComponentPad*%
%ADD13C,1.524000*%
%TD*%
%TA.AperFunction,ComponentPad*%
%ADD14R,1.700000X1.700000*%
%TD*%
%TA.AperFunction,ComponentPad*%
%ADD15C,1.700000*%
%TD*%
%TA.AperFunction,ComponentPad*%
%ADD16R,1.530000X1.530000*%
%TD*%
%TA.AperFunction,ComponentPad*%
%ADD17C,1.530000*%
%TD*%
%TA.AperFunction,ComponentPad*%
%ADD18C,1.651000*%
%TD*%
%TA.AperFunction,ComponentPad*%
%ADD19C,2.286000*%
%TD*%
%TA.AperFunction,ComponentPad*%
%ADD20C,1.500000*%
%TD*%
%TA.AperFunction,ComponentPad*%
%ADD21R,1.500000X1.500000*%
%TD*%
%TA.AperFunction,ViaPad*%
%ADD22C,0.500000*%
%TD*%
%TA.AperFunction,Conductor*%
%ADD23C,0.250000*%
%TD*%
%TA.AperFunction,Conductor*%
%ADD24C,1.750000*%
%TD*%
%TA.AperFunction,Conductor*%
%ADD25C,0.750000*%
%TD*%
%TA.AperFunction,Conductor*%
%ADD26C,1.000000*%
%TD*%
%TA.AperFunction,Conductor*%
%ADD27C,0.500000*%
%TD*%
G04 APERTURE END LIST*
D10*
%TO.P,J2,1,Pin_1*%
%TO.N,Net-(CanBus_Module1-CANL)*%
X104437500Y-75285000D03*
D11*
%TO.P,J2,2,Pin_2*%
%TO.N,Net-(CanBus_Module1-CANH)*%
X104437500Y-77825000D03*
%TD*%
D12*
%TO.P,U4,CN2_1,VCC*%
%TO.N,unconnected-(U4-VCC-PadCN2_1)*%
X165630000Y-64160000D03*
%TO.P,U4,CN2_2,SWCLK*%
%TO.N,unconnected-(U4-SWCLK-PadCN2_2)*%
X168170000Y-61620000D03*
%TO.P,U4,CN2_3,GND_SWD*%
%TO.N,GND*%
X168170000Y-64160000D03*
%TO.P,U4,CN2_4,SWDIO*%
%TO.N,unconnected-(U4-SWDIO-PadCN2_4)*%
X168170000Y-66700000D03*
%TO.P,U4,CN3_1,VIN*%
%TO.N,unconnected-(U4-VIN-PadCN3_1)*%
X168170000Y-69240000D03*
%TO.P,U4,CN3_2,GND_CN3*%
%TO.N,GND*%
X168170000Y-71780000D03*
%TO.P,U4,CN3_3,~{RST}_CN3*%
%TO.N,unconnected-(U4-~{RST}_CN3-PadCN3_3)*%
X168170000Y-74320000D03*
%TO.P,U4,CN3_4,5V*%
%TO.N,+5V*%
X168170000Y-76860000D03*
%TO.P,U4,CN3_5,PA2(A7)*%
%TO.N,unconnected-(U4-PA2(A7)-PadCN3_5)*%
X168170000Y-79400000D03*
%TO.P,U4,CN3_6,PA7(A6)*%
%TO.N,unconnected-(U4-PA7(A6)-PadCN3_6)*%
X168170000Y-81940000D03*
%TO.P,U4,CN3_7,PA6/PA15(A5)*%
%TO.N,unconnected-(U4-PA6{slash}PA15(A5)-PadCN3_7)*%
X168170000Y-84480000D03*
%TO.P,U4,CN3_8,PA5/PB7(A4)*%
%TO.N,unconnected-(U4-PA5{slash}PB7(A4)-PadCN3_8)*%
X168170000Y-87020000D03*
%TO.P,U4,CN3_9,PA4(A3)*%
%TO.N,unconnected-(U4-PA4(A3)-PadCN3_9)*%
X168170000Y-89560000D03*
%TO.P,U4,CN3_10,PA3(A2)*%
%TO.N,/ANT_DIO1*%
X168170000Y-92100000D03*
%TO.P,U4,CN3_11,PA1(A1)*%
%TO.N,/ANT_RX_EN*%
X168170000Y-94640000D03*
%TO.P,U4,CN3_12,PA0(A0)*%
%TO.N,/ANT_TX_EN*%
X168170000Y-97180000D03*
%TO.P,U4,CN3_13,AREF*%
%TO.N,unconnected-(U4-AREF-PadCN3_13)*%
X168170000Y-99720000D03*
%TO.P,U4,CN3_14,3V3*%
%TO.N,+3.3V*%
X168170000Y-102260000D03*
%TO.P,U4,CN3_15,PB3/PB8(D13)*%
%TO.N,/CLK*%
X168170000Y-104800000D03*
%TO.P,U4,CN4_1,PA9(D1)*%
%TO.N,/RS_TX*%
X152930000Y-69240000D03*
%TO.P,U4,CN4_2,PA10(D0)*%
%TO.N,/RS_RX*%
X152930000Y-71780000D03*
%TO.P,U4,CN4_3,~{RST}_CN4*%
%TO.N,unconnected-(U4-~{RST}_CN4-PadCN4_3)*%
X152930000Y-74320000D03*
%TO.P,U4,CN4_4,GND_CN4*%
%TO.N,GND*%
X152930000Y-76860000D03*
%TO.P,U4,CN4_5,PA12(D2)*%
%TO.N,/CAN_TX*%
X152930000Y-79400000D03*
%TO.P,U4,CN4_6,PB0(D3)*%
%TO.N,/ANT_BUSY*%
X152930000Y-81940000D03*
%TO.P,U4,CN4_7,PB7(D4)*%
%TO.N,/ANT_NRESET*%
X152930000Y-84480000D03*
%TO.P,U4,CN4_8,PA15(D5)*%
%TO.N,unconnected-(U4-PA15(D5)-PadCN4_8)*%
X152930000Y-87020000D03*
%TO.P,U4,CN4_9,PB6(D6)*%
%TO.N,unconnected-(U4-PB6(D6)-PadCN4_9)*%
X152930000Y-89560000D03*
%TO.P,U4,CN4_10,PF0(D7)*%
%TO.N,/RS_ENABLE*%
X152930000Y-92100000D03*
%TO.P,U4,CN4_11,PF1(D8)*%
%TO.N,unconnected-(U4-PF1(D8)-PadCN4_11)*%
X152930000Y-94640000D03*
%TO.P,U4,CN4_12,PA8(D9)*%
%TO.N,/CS*%
X152930000Y-97180000D03*
%TO.P,U4,CN4_13,PA11(D10)*%
%TO.N,/CAN_RX*%
X152930000Y-99720000D03*
%TO.P,U4,CN4_14,PB5(D11)*%
%TO.N,/MOSI*%
X152930000Y-102260000D03*
%TO.P,U4,CN4_15,PB4(D12)*%
%TO.N,/MISO*%
X152930000Y-104800000D03*
%TD*%
D13*
%TO.P,CanBus_Module1,1,CANL*%
%TO.N,Net-(CanBus_Module1-CANL)*%
X143355000Y-75685000D03*
%TO.P,CanBus_Module1,2,CANH*%
%TO.N,Net-(CanBus_Module1-CANH)*%
X143355000Y-78185000D03*
%TO.P,CanBus_Module1,3,CRX*%
%TO.N,/CAN_RX*%
X143355000Y-80685000D03*
%TO.P,CanBus_Module1,4,CTX*%
%TO.N,/CAN_TX*%
X143355000Y-83185000D03*
%TO.P,CanBus_Module1,5,GND*%
%TO.N,GND*%
X143355000Y-85685000D03*
%TO.P,CanBus_Module1,6,VCC*%
%TO.N,+5V*%
X143355000Y-88185000D03*
%TD*%
D14*
%TO.P,U2,1,3.3V*%
%TO.N,+3.3V*%
X148200000Y-117880000D03*
D15*
%TO.P,U2,2,GND*%
%TO.N,GND*%
X148200000Y-120420000D03*
%TO.P,U2,3,MISO_TX*%
%TO.N,/MISO*%
X148200000Y-122960000D03*
%TO.P,U2,4,MOSI_RX*%
%TO.N,/MOSI*%
X148200000Y-125500000D03*
%TO.P,U2,5,SCK_RTS*%
%TO.N,/CLK*%
X148200000Y-128040000D03*
%TO.P,U2,6,NSS_CTS*%
%TO.N,/CS*%
X148200000Y-130580000D03*
%TO.P,U2,7,GND*%
%TO.N,GND*%
X148200000Y-133120000D03*
%TO.P,U2,8,RX_EN*%
%TO.N,/ANT_RX_EN*%
X148200000Y-135660000D03*
%TO.P,U2,9,TX_EN*%
%TO.N,/ANT_TX_EN*%
X171000000Y-135660000D03*
%TO.P,U2,10,GND*%
%TO.N,GND*%
X171000000Y-133120000D03*
%TO.P,U2,11,NRESET*%
%TO.N,/ANT_NRESET*%
X171000000Y-130580000D03*
%TO.P,U2,12,BUSY*%
%TO.N,/ANT_BUSY*%
X171000000Y-128040000D03*
%TO.P,U2,13,DI01*%
%TO.N,/ANT_DIO1*%
X171000000Y-125500000D03*
%TO.P,U2,14,DI02*%
%TO.N,unconnected-(U2-DI02-Pad14)*%
X171000000Y-122960000D03*
%TO.P,U2,15,DI03*%
%TO.N,unconnected-(U2-DI03-Pad15)*%
X171000000Y-120420000D03*
D14*
%TO.P,U2,16,GND*%
%TO.N,GND*%
X171000000Y-117880000D03*
%TD*%
D16*
%TO.P,U3,1,GND*%
%TO.N,GND*%
X102280000Y-62100000D03*
D17*
%TO.P,U3,2,A*%
%TO.N,/RS_A*%
X102280000Y-64640000D03*
%TO.P,U3,3,B*%
%TO.N,/RS_B*%
X102280000Y-67180000D03*
%TO.P,U3,4,VCC*%
%TO.N,+5V*%
X102280000Y-69720000D03*
%TO.P,U3,5,RO*%
%TO.N,/RS_RX*%
X143500000Y-69720000D03*
%TO.P,U3,6,RE*%
%TO.N,/RS_ENABLE*%
X143500000Y-67180000D03*
%TO.P,U3,7,DE*%
X143500000Y-64640000D03*
%TO.P,U3,8,DI*%
%TO.N,/RS_TX*%
X143500000Y-62100000D03*
%TD*%
D18*
%TO.P,J3,1,1*%
%TO.N,/+12.8V*%
X134484900Y-115448606D03*
%TO.P,J3,2,2*%
%TO.N,GND*%
X136984900Y-112948606D03*
%TO.P,J3,3,3*%
%TO.N,/RS_A*%
X134484900Y-110448606D03*
%TO.P,J3,4,4*%
%TO.N,/RS_B*%
X131984900Y-112948606D03*
D19*
%TO.P,J3,MNT1*%
%TO.N,N/C*%
X128134900Y-110448484D03*
%TO.P,J3,MNT2*%
X128134900Y-115448606D03*
%TO.P,J3,MNT3*%
X140834900Y-115448606D03*
%TO.P,J3,MNT4*%
X140834900Y-110448484D03*
%TD*%
D20*
%TO.P,U5,1,IN+*%
%TO.N,/+12.8V*%
X118455000Y-116986000D03*
D21*
X120555000Y-116986000D03*
D20*
%TO.P,U5,2,IN-*%
%TO.N,GND*%
X105380000Y-116961000D03*
D21*
X107480000Y-116961000D03*
D20*
%TO.P,U5,3,OUT+*%
%TO.N,+5V*%
X118430000Y-93436000D03*
D21*
X120530000Y-93436000D03*
D20*
%TO.P,U5,4,OUT-*%
%TO.N,GND*%
X105355000Y-93411000D03*
D21*
X107455000Y-93411000D03*
%TD*%
D14*
%TO.P,J4,1,Pin_1*%
%TO.N,+5V*%
X178020000Y-76860000D03*
D15*
%TO.P,J4,2,Pin_2*%
%TO.N,GND*%
X178020000Y-79400000D03*
%TO.P,J4,3,Pin_3*%
%TO.N,/NAV RX UART*%
X178020000Y-81940000D03*
%TO.P,J4,4,Pin_4*%
%TO.N,/NAV TX UART*%
X178020000Y-84480000D03*
%TO.P,J4,5,Pin_5*%
%TO.N,/NAV RTS UART*%
X178020000Y-87020000D03*
%TO.P,J4,6,Pin_6*%
%TO.N,/NAV CTS UART*%
X178020000Y-89560000D03*
%TD*%
D14*
%TO.P,J1,1,Pin_1*%
%TO.N,+3.3V*%
X121560000Y-137520000D03*
D15*
%TO.P,J1,2,Pin_2*%
%TO.N,/CS*%
X119020000Y-137520000D03*
%TO.P,J1,3,Pin_3*%
%TO.N,/MOSI*%
X116480000Y-137520000D03*
%TO.P,J1,4,Pin_4*%
%TO.N,/CLK*%
X113940000Y-137520000D03*
%TO.P,J1,5,Pin_5*%
%TO.N,/MISO*%
X111400000Y-137520000D03*
%TO.P,J1,6,Pin_6*%
%TO.N,GND*%
X108860000Y-137520000D03*
%TD*%
D22*
%TO.N,GND*%
X147270000Y-63760000D03*
X120905000Y-87161000D03*
X119375000Y-123281250D03*
X117655000Y-87161000D03*
X122375000Y-123281250D03*
X173600000Y-128800000D03*
%TD*%
D23*
%TO.N,/RS_A*%
X108340000Y-64640000D02*
X102280000Y-64640000D01*
X134484900Y-90784900D02*
X108340000Y-64640000D01*
X134484900Y-110448606D02*
X134484900Y-90784900D01*
%TO.N,/RS_B*%
X131984900Y-91784900D02*
X107380000Y-67180000D01*
X131984900Y-112948606D02*
X131984900Y-91784900D01*
X107380000Y-67180000D02*
X102280000Y-67180000D01*
D24*
%TO.N,+5V*%
X110600000Y-87600000D02*
X110600000Y-74600000D01*
D25*
X141210000Y-60270000D02*
X140260000Y-61220000D01*
X168170000Y-76860000D02*
X151580000Y-60270000D01*
X140260000Y-61220000D02*
X140260000Y-85090000D01*
X140260000Y-85090000D02*
X143355000Y-88185000D01*
D24*
X118430000Y-93436000D02*
X116436000Y-93436000D01*
X116436000Y-93436000D02*
X110600000Y-87600000D01*
D25*
X151580000Y-60270000D02*
X141210000Y-60270000D01*
D24*
X105720000Y-69720000D02*
X102280000Y-69720000D01*
X110600000Y-74600000D02*
X105720000Y-69720000D01*
D26*
%TO.N,/ANT_DIO1*%
X162730000Y-96430000D02*
X167060000Y-92100000D01*
X162730000Y-117230000D02*
X162730000Y-96430000D01*
X167060000Y-92100000D02*
X168170000Y-92100000D01*
X171000000Y-125500000D02*
X162730000Y-117230000D01*
%TO.N,/ANT_NRESET*%
X159440000Y-90990000D02*
X152930000Y-84480000D01*
X171000000Y-130580000D02*
X159440000Y-119020000D01*
X159440000Y-119020000D02*
X159440000Y-90990000D01*
%TO.N,/ANT_BUSY*%
X160990000Y-118030000D02*
X160990000Y-90000000D01*
X160990000Y-90000000D02*
X152930000Y-81940000D01*
X171000000Y-128040000D02*
X160990000Y-118030000D01*
%TO.N,/ANT_TX_EN*%
X169330000Y-97180000D02*
X175700000Y-103550000D01*
X168170000Y-97180000D02*
X169330000Y-97180000D01*
X175700000Y-130960000D02*
X171000000Y-135660000D01*
X175700000Y-103550000D02*
X175700000Y-130960000D01*
D27*
%TO.N,/CAN_TX*%
X149145000Y-83185000D02*
X152930000Y-79400000D01*
X143355000Y-83185000D02*
X149145000Y-83185000D01*
D26*
%TO.N,/RS_TX*%
X143500000Y-62100000D02*
X148480000Y-62100000D01*
X148480000Y-62100000D02*
X152930000Y-66550000D01*
X152930000Y-66550000D02*
X152930000Y-69240000D01*
%TO.N,/RS_RX*%
X145560000Y-71780000D02*
X152930000Y-71780000D01*
X143500000Y-69720000D02*
X145560000Y-71780000D01*
D27*
%TO.N,/CLK*%
X148200000Y-128040000D02*
X123420000Y-128040000D01*
X123420000Y-128040000D02*
X113940000Y-137520000D01*
D26*
%TO.N,/CS*%
X148200000Y-130580000D02*
X147870000Y-130250000D01*
X157870000Y-100490000D02*
X154560000Y-97180000D01*
X157870000Y-120910000D02*
X157870000Y-100490000D01*
X148200000Y-130580000D02*
X157870000Y-120910000D01*
X154560000Y-97180000D02*
X152930000Y-97180000D01*
D23*
%TO.N,unconnected-(U4-PA7(A6)-PadCN3_6)*%
X167495000Y-81890000D02*
X167495000Y-81665000D01*
%TD*%
%TA.AperFunction,Conductor*%
%TO.N,GND*%
G36*
X166864623Y-93812810D02*
G01*
X166920556Y-93854682D01*
X166944973Y-93920146D01*
X166931774Y-93985287D01*
X166872104Y-94102393D01*
X166872103Y-94102396D01*
X166803985Y-94312047D01*
X166769500Y-94529778D01*
X166769500Y-94750221D01*
X166803985Y-94967952D01*
X166872103Y-95177603D01*
X166872104Y-95177606D01*
X166972187Y-95374025D01*
X167101752Y-95552358D01*
X167101756Y-95552363D01*
X167257636Y-95708243D01*
X167257641Y-95708247D01*
X167397254Y-95809682D01*
X167439920Y-95865012D01*
X167445899Y-95934625D01*
X167413293Y-95996420D01*
X167397254Y-96010318D01*
X167257641Y-96111752D01*
X167257636Y-96111756D01*
X167101756Y-96267636D01*
X167101752Y-96267641D01*
X166972187Y-96445974D01*
X166872104Y-96642393D01*
X166872103Y-96642396D01*
X166803985Y-96852047D01*
X166769500Y-97069778D01*
X166769500Y-97290221D01*
X166803985Y-97507952D01*
X166872103Y-97717603D01*
X166872104Y-97717606D01*
X166972187Y-97914025D01*
X167101752Y-98092358D01*
X167101756Y-98092363D01*
X167257636Y-98248243D01*
X167257641Y-98248247D01*
X167397254Y-98349682D01*
X167439920Y-98405012D01*
X167445899Y-98474625D01*
X167413293Y-98536420D01*
X167397254Y-98550318D01*
X167257641Y-98651752D01*
X167257636Y-98651756D01*
X167101756Y-98807636D01*
X167101752Y-98807641D01*
X166972187Y-98985974D01*
X166872104Y-99182393D01*
X166872103Y-99182396D01*
X166803985Y-99392047D01*
X166769500Y-99609778D01*
X166769500Y-99830221D01*
X166803985Y-100047952D01*
X166872103Y-100257603D01*
X166872104Y-100257606D01*
X166972187Y-100454025D01*
X167101752Y-100632358D01*
X167101756Y-100632363D01*
X167257636Y-100788243D01*
X167257641Y-100788247D01*
X167397254Y-100889682D01*
X167439920Y-100945012D01*
X167445899Y-101014625D01*
X167413293Y-101076420D01*
X167397254Y-101090318D01*
X167257641Y-101191752D01*
X167257636Y-101191756D01*
X167101756Y-101347636D01*
X167101752Y-101347641D01*
X166972187Y-101525974D01*
X166872104Y-101722393D01*
X166872103Y-101722396D01*
X166803985Y-101932047D01*
X166769500Y-102149778D01*
X166769500Y-102370221D01*
X166803985Y-102587952D01*
X166872103Y-102797603D01*
X166872104Y-102797606D01*
X166972187Y-102994025D01*
X167101752Y-103172358D01*
X167101756Y-103172363D01*
X167257636Y-103328243D01*
X167257641Y-103328247D01*
X167397254Y-103429682D01*
X167439920Y-103485012D01*
X167445899Y-103554625D01*
X167413293Y-103616420D01*
X167397254Y-103630318D01*
X167257641Y-103731752D01*
X167257636Y-103731756D01*
X167101756Y-103887636D01*
X167101752Y-103887641D01*
X166972187Y-104065974D01*
X166872104Y-104262393D01*
X166872103Y-104262396D01*
X166803985Y-104472047D01*
X166769500Y-104689778D01*
X166769500Y-104910221D01*
X166803985Y-105127952D01*
X166872103Y-105337603D01*
X166872104Y-105337606D01*
X166972187Y-105534025D01*
X167101752Y-105712358D01*
X167101756Y-105712363D01*
X167257636Y-105868243D01*
X167257641Y-105868247D01*
X167413192Y-105981260D01*
X167435978Y-105997815D01*
X167564375Y-106063237D01*
X167632393Y-106097895D01*
X167632396Y-106097896D01*
X167737221Y-106131955D01*
X167842049Y-106166015D01*
X168059778Y-106200500D01*
X168059779Y-106200500D01*
X168280221Y-106200500D01*
X168280222Y-106200500D01*
X168497951Y-106166015D01*
X168707606Y-106097895D01*
X168904022Y-105997815D01*
X169082365Y-105868242D01*
X169238242Y-105712365D01*
X169367815Y-105534022D01*
X169467895Y-105337606D01*
X169536015Y-105127951D01*
X169570500Y-104910222D01*
X169570500Y-104689778D01*
X169536015Y-104472049D01*
X169467895Y-104262394D01*
X169467895Y-104262393D01*
X169433237Y-104194375D01*
X169367815Y-104065978D01*
X169312196Y-103989424D01*
X169238247Y-103887641D01*
X169238243Y-103887636D01*
X169082363Y-103731756D01*
X169082358Y-103731752D01*
X168942745Y-103630318D01*
X168900079Y-103574989D01*
X168894100Y-103505375D01*
X168926705Y-103443580D01*
X168942745Y-103429682D01*
X169082358Y-103328247D01*
X169082356Y-103328247D01*
X169082365Y-103328242D01*
X169238242Y-103172365D01*
X169367815Y-102994022D01*
X169467895Y-102797606D01*
X169536015Y-102587951D01*
X169570500Y-102370222D01*
X169570500Y-102149778D01*
X169536015Y-101932049D01*
X169467895Y-101722394D01*
X169467895Y-101722393D01*
X169433237Y-101654375D01*
X169367815Y-101525978D01*
X169351260Y-101503192D01*
X169238247Y-101347641D01*
X169238243Y-101347636D01*
X169082363Y-101191756D01*
X169082358Y-101191752D01*
X168942745Y-101090318D01*
X168900079Y-101034989D01*
X168894100Y-100965375D01*
X168926705Y-100903580D01*
X168942745Y-100889682D01*
X169082358Y-100788247D01*
X169082356Y-100788247D01*
X169082365Y-100788242D01*
X169238242Y-100632365D01*
X169367815Y-100454022D01*
X169467895Y-100257606D01*
X169536015Y-100047951D01*
X169570500Y-99830222D01*
X169570500Y-99609778D01*
X169536015Y-99392049D01*
X169467895Y-99182394D01*
X169467895Y-99182393D01*
X169433237Y-99114375D01*
X169367815Y-98985978D01*
X169366360Y-98983975D01*
X169355389Y-98968874D01*
X169331909Y-98903068D01*
X169347735Y-98835014D01*
X169397841Y-98786319D01*
X169466319Y-98772444D01*
X169531428Y-98797793D01*
X169543388Y-98808308D01*
X174663181Y-103928101D01*
X174696666Y-103989424D01*
X174699500Y-104015782D01*
X174699500Y-130494216D01*
X174679815Y-130561255D01*
X174663181Y-130581897D01*
X172490359Y-132754718D01*
X172429036Y-132788203D01*
X172359344Y-132783219D01*
X172303411Y-132741347D01*
X172284747Y-132705354D01*
X172251096Y-132601784D01*
X172154624Y-132412449D01*
X172115270Y-132358282D01*
X172115269Y-132358282D01*
X171482962Y-132990590D01*
X171465925Y-132927007D01*
X171400099Y-132812993D01*
X171307007Y-132719901D01*
X171192993Y-132654075D01*
X171129409Y-132637037D01*
X171761716Y-132004728D01*
X171707547Y-131965373D01*
X171707547Y-131965372D01*
X171698500Y-131960763D01*
X171647706Y-131912788D01*
X171630912Y-131844966D01*
X171653451Y-131778832D01*
X171698508Y-131739793D01*
X171707816Y-131735051D01*
X171787007Y-131677515D01*
X171879786Y-131610109D01*
X171879788Y-131610106D01*
X171879792Y-131610104D01*
X172030104Y-131459792D01*
X172030106Y-131459788D01*
X172030109Y-131459786D01*
X172155048Y-131287820D01*
X172155047Y-131287820D01*
X172155051Y-131287816D01*
X172251557Y-131098412D01*
X172317246Y-130896243D01*
X172350500Y-130686287D01*
X172350500Y-130473713D01*
X172317246Y-130263757D01*
X172251557Y-130061588D01*
X172155051Y-129872184D01*
X172155049Y-129872181D01*
X172155048Y-129872179D01*
X172030109Y-129700213D01*
X171879786Y-129549890D01*
X171707820Y-129424951D01*
X171707115Y-129424591D01*
X171699054Y-129420485D01*
X171648259Y-129372512D01*
X171631463Y-129304692D01*
X171653999Y-129238556D01*
X171699054Y-129199515D01*
X171707816Y-129195051D01*
X171774293Y-129146753D01*
X171879786Y-129070109D01*
X171879788Y-129070106D01*
X171879792Y-129070104D01*
X172030104Y-128919792D01*
X172030106Y-128919788D01*
X172030109Y-128919786D01*
X172155048Y-128747820D01*
X172155047Y-128747820D01*
X172155051Y-128747816D01*
X172251557Y-128558412D01*
X172317246Y-128356243D01*
X172350500Y-128146287D01*
X172350500Y-127933713D01*
X172317246Y-127723757D01*
X172251557Y-127521588D01*
X172155051Y-127332184D01*
X172155049Y-127332181D01*
X172155048Y-127332179D01*
X172030109Y-127160213D01*
X171879786Y-127009890D01*
X171707820Y-126884951D01*
X171707115Y-126884591D01*
X171699054Y-126880485D01*
X171648259Y-126832512D01*
X171631463Y-126764692D01*
X171653999Y-126698556D01*
X171699054Y-126659515D01*
X171707816Y-126655051D01*
X171847589Y-126553501D01*
X171879786Y-126530109D01*
X171879788Y-126530106D01*
X171879792Y-126530104D01*
X172030104Y-126379792D01*
X172030106Y-126379788D01*
X172030109Y-126379786D01*
X172155048Y-126207820D01*
X172155047Y-126207820D01*
X172155051Y-126207816D01*
X172251557Y-126018412D01*
X172317246Y-125816243D01*
X172350500Y-125606287D01*
X172350500Y-125393713D01*
X172317246Y-125183757D01*
X172251557Y-124981588D01*
X172155051Y-124792184D01*
X172155049Y-124792181D01*
X172155048Y-124792179D01*
X172030109Y-124620213D01*
X171879786Y-124469890D01*
X171707820Y-124344951D01*
X171707115Y-124344591D01*
X171699054Y-124340485D01*
X171648259Y-124292512D01*
X171631463Y-124224692D01*
X171653999Y-124158556D01*
X171699054Y-124119515D01*
X171707816Y-124115051D01*
X171729789Y-124099086D01*
X171879786Y-123990109D01*
X171879788Y-123990106D01*
X171879792Y-123990104D01*
X172030104Y-123839792D01*
X172030106Y-123839788D01*
X172030109Y-123839786D01*
X172155048Y-123667820D01*
X172155047Y-123667820D01*
X172155051Y-123667816D01*
X172251557Y-123478412D01*
X172317246Y-123276243D01*
X172350500Y-123066287D01*
X172350500Y-122853713D01*
X172317246Y-122643757D01*
X172251557Y-122441588D01*
X172155051Y-122252184D01*
X172155049Y-122252181D01*
X172155048Y-122252179D01*
X172030109Y-122080213D01*
X171879786Y-121929890D01*
X171707820Y-121804951D01*
X171707115Y-121804591D01*
X171699054Y-121800485D01*
X171648259Y-121752512D01*
X171631463Y-121684692D01*
X171653999Y-121618556D01*
X171699054Y-121579515D01*
X171707816Y-121575051D01*
X171762572Y-121535269D01*
X171879786Y-121450109D01*
X171879788Y-121450106D01*
X171879792Y-121450104D01*
X172030104Y-121299792D01*
X172030106Y-121299788D01*
X172030109Y-121299786D01*
X172155048Y-121127820D01*
X172155050Y-121127817D01*
X172155051Y-121127816D01*
X172251557Y-120938412D01*
X172317246Y-120736243D01*
X172350500Y-120526287D01*
X172350500Y-120313713D01*
X172317246Y-120103757D01*
X172251557Y-119901588D01*
X172155051Y-119712184D01*
X172155049Y-119712181D01*
X172155048Y-119712179D01*
X172030109Y-119540213D01*
X171916181Y-119426285D01*
X171882696Y-119364962D01*
X171887680Y-119295270D01*
X171929552Y-119239337D01*
X171960529Y-119222422D01*
X172092086Y-119173354D01*
X172092093Y-119173350D01*
X172207187Y-119087190D01*
X172207190Y-119087187D01*
X172293350Y-118972093D01*
X172293354Y-118972086D01*
X172343596Y-118837379D01*
X172343598Y-118837372D01*
X172349999Y-118777844D01*
X172350000Y-118777827D01*
X172350000Y-118130000D01*
X171433012Y-118130000D01*
X171465925Y-118072993D01*
X171500000Y-117945826D01*
X171500000Y-117814174D01*
X171465925Y-117687007D01*
X171433012Y-117630000D01*
X172350000Y-117630000D01*
X172350000Y-116982172D01*
X172349999Y-116982155D01*
X172343598Y-116922627D01*
X172343596Y-116922620D01*
X172293354Y-116787913D01*
X172293350Y-116787906D01*
X172207190Y-116672812D01*
X172207187Y-116672809D01*
X172092093Y-116586649D01*
X172092086Y-116586645D01*
X171957379Y-116536403D01*
X171957372Y-116536401D01*
X171897844Y-116530000D01*
X171250000Y-116530000D01*
X171250000Y-117446988D01*
X171192993Y-117414075D01*
X171065826Y-117380000D01*
X170934174Y-117380000D01*
X170807007Y-117414075D01*
X170750000Y-117446988D01*
X170750000Y-116530000D01*
X170102155Y-116530000D01*
X170042627Y-116536401D01*
X170042620Y-116536403D01*
X169907913Y-116586645D01*
X169907906Y-116586649D01*
X169792812Y-116672809D01*
X169792809Y-116672812D01*
X169706649Y-116787906D01*
X169706645Y-116787913D01*
X169656403Y-116922620D01*
X169656401Y-116922627D01*
X169650000Y-116982155D01*
X169650000Y-117630000D01*
X170566988Y-117630000D01*
X170534075Y-117687007D01*
X170500000Y-117814174D01*
X170500000Y-117945826D01*
X170534075Y-118072993D01*
X170566988Y-118130000D01*
X169650000Y-118130000D01*
X169650000Y-118777844D01*
X169656401Y-118837372D01*
X169656403Y-118837379D01*
X169706645Y-118972086D01*
X169706649Y-118972093D01*
X169792809Y-119087187D01*
X169792812Y-119087190D01*
X169907906Y-119173350D01*
X169907913Y-119173354D01*
X170039470Y-119222422D01*
X170095404Y-119264293D01*
X170119821Y-119329758D01*
X170104969Y-119398031D01*
X170083819Y-119426285D01*
X169969889Y-119540215D01*
X169844951Y-119712179D01*
X169748444Y-119901585D01*
X169682753Y-120103760D01*
X169649500Y-120313713D01*
X169649500Y-120526286D01*
X169682753Y-120736239D01*
X169748444Y-120938414D01*
X169844951Y-121127820D01*
X169969890Y-121299786D01*
X170120213Y-121450109D01*
X170292182Y-121575050D01*
X170300946Y-121579516D01*
X170351742Y-121627491D01*
X170368536Y-121695312D01*
X170345998Y-121761447D01*
X170300946Y-121800484D01*
X170292182Y-121804949D01*
X170120213Y-121929890D01*
X169969890Y-122080213D01*
X169844951Y-122252179D01*
X169748444Y-122441583D01*
X169714855Y-122544961D01*
X169675417Y-122602636D01*
X169611058Y-122629834D01*
X169542212Y-122617919D01*
X169509243Y-122594323D01*
X163766819Y-116851899D01*
X163733334Y-116790576D01*
X163730500Y-116764218D01*
X163730500Y-96895782D01*
X163750185Y-96828743D01*
X163766819Y-96808101D01*
X165200898Y-95374022D01*
X166733610Y-93841309D01*
X166794931Y-93807826D01*
X166864623Y-93812810D01*
G37*
%TD.AperFunction*%
%TA.AperFunction,Conductor*%
G36*
X151233033Y-61165185D02*
G01*
X151253675Y-61181819D01*
X166733181Y-76661325D01*
X166766666Y-76722648D01*
X166769500Y-76749006D01*
X166769500Y-76970221D01*
X166803985Y-77187952D01*
X166872103Y-77397603D01*
X166872104Y-77397606D01*
X166936153Y-77523306D01*
X166972049Y-77593756D01*
X166972187Y-77594025D01*
X167101752Y-77772358D01*
X167101756Y-77772363D01*
X167257636Y-77928243D01*
X167257641Y-77928247D01*
X167397254Y-78029682D01*
X167439920Y-78085012D01*
X167445899Y-78154625D01*
X167413293Y-78216420D01*
X167397254Y-78230318D01*
X167257641Y-78331752D01*
X167257636Y-78331756D01*
X167101756Y-78487636D01*
X167101752Y-78487641D01*
X166972187Y-78665974D01*
X166872104Y-78862393D01*
X166872103Y-78862396D01*
X166803985Y-79072047D01*
X166769500Y-79289778D01*
X166769500Y-79510221D01*
X166803985Y-79727952D01*
X166872103Y-79937603D01*
X166872104Y-79937606D01*
X166972187Y-80134025D01*
X167101752Y-80312358D01*
X167101756Y-80312363D01*
X167257636Y-80468243D01*
X167257641Y-80468247D01*
X167397254Y-80569682D01*
X167439920Y-80625012D01*
X167445899Y-80694625D01*
X167413293Y-80756420D01*
X167397254Y-80770318D01*
X167257641Y-80871752D01*
X167257636Y-80871756D01*
X167101756Y-81027636D01*
X167101752Y-81027641D01*
X166972187Y-81205974D01*
X166872104Y-81402393D01*
X166872103Y-81402396D01*
X166803985Y-81612047D01*
X166769500Y-81829778D01*
X166769500Y-82050221D01*
X166803985Y-82267952D01*
X166872103Y-82477603D01*
X166872104Y-82477606D01*
X166940122Y-82611096D01*
X166958834Y-82647820D01*
X166972187Y-82674025D01*
X167101752Y-82852358D01*
X167101756Y-82852363D01*
X167257636Y-83008243D01*
X167257641Y-83008247D01*
X167397254Y-83109682D01*
X167439920Y-83165012D01*
X167445899Y-83234625D01*
X167413293Y-83296420D01*
X167397254Y-83310318D01*
X167257641Y-83411752D01*
X167257636Y-83411756D01*
X167101756Y-83567636D01*
X167101752Y-83567641D01*
X166972187Y-83745974D01*
X166872104Y-83942393D01*
X166872103Y-83942396D01*
X166803985Y-84152047D01*
X166774737Y-84336712D01*
X166769500Y-84369778D01*
X166769500Y-84590222D01*
X166776233Y-84632730D01*
X166803985Y-84807952D01*
X166872103Y-85017603D01*
X166872104Y-85017606D01*
X166940122Y-85151096D01*
X166958834Y-85187820D01*
X166972187Y-85214025D01*
X167101752Y-85392358D01*
X167101756Y-85392363D01*
X167257636Y-85548243D01*
X167257641Y-85548247D01*
X167397254Y-85649682D01*
X167439920Y-85705012D01*
X167445899Y-85774625D01*
X167413293Y-85836420D01*
X167397254Y-85850318D01*
X167257641Y-85951752D01*
X167257636Y-85951756D01*
X167101756Y-86107636D01*
X167101752Y-86107641D01*
X166972187Y-86285974D01*
X166872104Y-86482393D01*
X166872103Y-86482396D01*
X166803985Y-86692047D01*
X166769500Y-86909778D01*
X166769500Y-87130221D01*
X166803985Y-87347952D01*
X166872103Y-87557603D01*
X166872104Y-87557606D01*
X166940122Y-87691096D01*
X166958834Y-87727820D01*
X166972187Y-87754025D01*
X167101752Y-87932358D01*
X167101756Y-87932363D01*
X167257636Y-88088243D01*
X167257641Y-88088247D01*
X167397254Y-88189682D01*
X167439920Y-88245012D01*
X167445899Y-88314625D01*
X167413293Y-88376420D01*
X167397254Y-88390318D01*
X167257641Y-88491752D01*
X167257636Y-88491756D01*
X167101756Y-88647636D01*
X167101752Y-88647641D01*
X166972187Y-88825974D01*
X166872104Y-89022393D01*
X166872103Y-89022396D01*
X166803985Y-89232047D01*
X166769500Y-89449778D01*
X166769500Y-89670221D01*
X166803985Y-89887952D01*
X166872103Y-90097603D01*
X166872104Y-90097606D01*
X166940122Y-90231096D01*
X166958834Y-90267820D01*
X166972187Y-90294025D01*
X167101752Y-90472358D01*
X167101756Y-90472363D01*
X167257636Y-90628243D01*
X167257641Y-90628247D01*
X167397254Y-90729682D01*
X167413120Y-90750258D01*
X167431889Y-90768231D01*
X167434111Y-90777479D01*
X167439920Y-90785012D01*
X167442143Y-90810898D01*
X167448216Y-90836166D01*
X167445085Y-90845149D01*
X167445899Y-90854625D01*
X167433776Y-90877600D01*
X167425222Y-90902144D01*
X167415837Y-90911597D01*
X167413293Y-90916420D01*
X167400811Y-90927635D01*
X167399035Y-90929025D01*
X167257635Y-91031758D01*
X167220893Y-91068499D01*
X167214973Y-91073135D01*
X167189214Y-91083383D01*
X167164889Y-91096666D01*
X167152473Y-91098000D01*
X167150053Y-91098964D01*
X167147729Y-91098510D01*
X167138531Y-91099500D01*
X166961455Y-91099500D01*
X166869300Y-91117831D01*
X166869296Y-91117832D01*
X166864812Y-91118724D01*
X166768164Y-91137949D01*
X166717903Y-91158768D01*
X166710870Y-91161680D01*
X166710863Y-91161683D01*
X166586092Y-91213364D01*
X166586079Y-91213371D01*
X166483619Y-91281834D01*
X166422216Y-91322861D01*
X166422213Y-91322864D01*
X162202181Y-95542897D01*
X162140858Y-95576382D01*
X162071166Y-95571398D01*
X162015233Y-95529526D01*
X161990816Y-95464062D01*
X161990500Y-95455216D01*
X161990500Y-89901456D01*
X161952052Y-89708170D01*
X161952051Y-89708169D01*
X161952051Y-89708165D01*
X161934704Y-89666286D01*
X161876635Y-89526092D01*
X161876628Y-89526079D01*
X161767140Y-89362219D01*
X161759926Y-89355005D01*
X161627782Y-89222861D01*
X161627781Y-89222860D01*
X154366819Y-81961898D01*
X154333334Y-81900575D01*
X154330500Y-81874217D01*
X154330500Y-81829778D01*
X154301706Y-81647981D01*
X154296015Y-81612049D01*
X154261955Y-81507221D01*
X154227896Y-81402396D01*
X154227895Y-81402393D01*
X154193237Y-81334375D01*
X154127815Y-81205978D01*
X154101406Y-81169629D01*
X153998247Y-81027641D01*
X153998243Y-81027636D01*
X153842363Y-80871756D01*
X153842358Y-80871752D01*
X153702745Y-80770318D01*
X153660079Y-80714989D01*
X153654100Y-80645375D01*
X153686705Y-80583580D01*
X153702745Y-80569682D01*
X153842358Y-80468247D01*
X153842356Y-80468247D01*
X153842365Y-80468242D01*
X153998242Y-80312365D01*
X154127815Y-80134022D01*
X154227895Y-79937606D01*
X154296015Y-79727951D01*
X154330500Y-79510222D01*
X154330500Y-79289778D01*
X154296015Y-79072049D01*
X154240114Y-78900000D01*
X154227896Y-78862396D01*
X154227895Y-78862393D01*
X154193237Y-78794375D01*
X154127815Y-78665978D01*
X154088186Y-78611433D01*
X153998247Y-78487641D01*
X153998243Y-78487636D01*
X153842363Y-78331756D01*
X153842358Y-78331752D01*
X153702319Y-78230008D01*
X153659653Y-78174678D01*
X153653674Y-78105065D01*
X153686279Y-78043270D01*
X153702319Y-78029372D01*
X153727513Y-78011066D01*
X153727514Y-78011066D01*
X153141059Y-77424612D01*
X153161591Y-77419111D01*
X153298408Y-77340119D01*
X153410119Y-77228408D01*
X153489111Y-77091591D01*
X153494612Y-77071059D01*
X154081066Y-77657514D01*
X154081066Y-77657513D01*
X154127386Y-77593760D01*
X154227432Y-77397410D01*
X154295526Y-77187835D01*
X154330000Y-76970181D01*
X154330000Y-76749818D01*
X154295526Y-76532164D01*
X154227432Y-76322589D01*
X154127388Y-76126243D01*
X154081066Y-76062485D01*
X154081065Y-76062485D01*
X153494612Y-76648939D01*
X153489111Y-76628409D01*
X153410119Y-76491592D01*
X153298408Y-76379881D01*
X153161591Y-76300889D01*
X153141057Y-76295387D01*
X153727513Y-75708932D01*
X153702319Y-75690628D01*
X153659653Y-75635298D01*
X153653674Y-75565685D01*
X153686279Y-75503889D01*
X153702313Y-75489994D01*
X153842365Y-75388242D01*
X153998242Y-75232365D01*
X154127815Y-75054022D01*
X154227895Y-74857606D01*
X154296015Y-74647951D01*
X154330500Y-74430222D01*
X154330500Y-74209778D01*
X154296015Y-73992049D01*
X154243014Y-73828927D01*
X154227896Y-73782396D01*
X154227895Y-73782393D01*
X154187910Y-73703920D01*
X154127815Y-73585978D01*
X154089535Y-73533290D01*
X153998247Y-73407641D01*
X153998243Y-73407636D01*
X153842363Y-73251756D01*
X153842358Y-73251752D01*
X153702745Y-73150318D01*
X153660079Y-73094989D01*
X153654100Y-73025375D01*
X153686705Y-72963580D01*
X153702745Y-72949682D01*
X153842358Y-72848247D01*
X153842356Y-72848247D01*
X153842365Y-72848242D01*
X153998242Y-72692365D01*
X154127815Y-72514022D01*
X154227895Y-72317606D01*
X154296015Y-72107951D01*
X154330500Y-71890222D01*
X154330500Y-71669778D01*
X154296015Y-71452049D01*
X154261955Y-71347221D01*
X154227896Y-71242396D01*
X154227895Y-71242393D01*
X154182974Y-71154232D01*
X154127815Y-71045978D01*
X154090579Y-70994727D01*
X153998247Y-70867641D01*
X153998243Y-70867636D01*
X153842363Y-70711756D01*
X153842358Y-70711752D01*
X153702745Y-70610318D01*
X153660079Y-70554989D01*
X153654100Y-70485375D01*
X153686705Y-70423580D01*
X153702745Y-70409682D01*
X153842358Y-70308247D01*
X153842356Y-70308247D01*
X153842365Y-70308242D01*
X153998242Y-70152365D01*
X154127815Y-69974022D01*
X154227895Y-69777606D01*
X154296015Y-69567951D01*
X154330500Y-69350222D01*
X154330500Y-69129778D01*
X154296015Y-68912049D01*
X154227895Y-68702394D01*
X154227895Y-68702393D01*
X154193237Y-68634375D01*
X154127815Y-68505978D01*
X154094205Y-68459718D01*
X153998247Y-68327641D01*
X153998243Y-68327636D01*
X153966819Y-68296212D01*
X153933334Y-68234889D01*
X153930500Y-68208531D01*
X153930500Y-66451456D01*
X153892052Y-66258170D01*
X153892051Y-66258169D01*
X153892051Y-66258165D01*
X153874060Y-66214731D01*
X153816635Y-66076092D01*
X153816628Y-66076079D01*
X153707140Y-65912219D01*
X153642411Y-65847490D01*
X153567782Y-65772861D01*
X153567781Y-65772860D01*
X149257140Y-61462220D01*
X149257139Y-61462218D01*
X149152102Y-61357181D01*
X149118618Y-61295858D01*
X149123602Y-61226166D01*
X149149988Y-61190919D01*
X149165474Y-61170232D01*
X149213154Y-61152448D01*
X149230938Y-61145816D01*
X149239784Y-61145500D01*
X151165994Y-61145500D01*
X151233033Y-61165185D01*
G37*
%TD.AperFunction*%
%TA.AperFunction,Conductor*%
G36*
X142452916Y-61165185D02*
G01*
X142498671Y-61217989D01*
X142508615Y-61287147D01*
X142486195Y-61342385D01*
X142417649Y-61436730D01*
X142327213Y-61614219D01*
X142265661Y-61803656D01*
X142265661Y-61803659D01*
X142234500Y-62000403D01*
X142234500Y-62199596D01*
X142265661Y-62396340D01*
X142265661Y-62396343D01*
X142327213Y-62585780D01*
X142327215Y-62585783D01*
X142417647Y-62763266D01*
X142534731Y-62924418D01*
X142675582Y-63065269D01*
X142836734Y-63182353D01*
X142891964Y-63210494D01*
X142988172Y-63259515D01*
X143038968Y-63307490D01*
X143055763Y-63375311D01*
X143033225Y-63441446D01*
X142988172Y-63480485D01*
X142836733Y-63557647D01*
X142747619Y-63622393D01*
X142675582Y-63674731D01*
X142675580Y-63674733D01*
X142675579Y-63674733D01*
X142534733Y-63815579D01*
X142534733Y-63815580D01*
X142534731Y-63815582D01*
X142484447Y-63884790D01*
X142417647Y-63976733D01*
X142327213Y-64154219D01*
X142265661Y-64343656D01*
X142265661Y-64343659D01*
X142234500Y-64540403D01*
X142234500Y-64739596D01*
X142265661Y-64936340D01*
X142265661Y-64936343D01*
X142327213Y-65125780D01*
X142402764Y-65274057D01*
X142417647Y-65303266D01*
X142534731Y-65464418D01*
X142675582Y-65605269D01*
X142836734Y-65722353D01*
X142906453Y-65757877D01*
X142988172Y-65799515D01*
X143038968Y-65847490D01*
X143055763Y-65915311D01*
X143033225Y-65981446D01*
X142988172Y-66020485D01*
X142836733Y-66097647D01*
X142785424Y-66134926D01*
X142675582Y-66214731D01*
X142675580Y-66214733D01*
X142675579Y-66214733D01*
X142534733Y-66355579D01*
X142534733Y-66355580D01*
X142534731Y-66355582D01*
X142484447Y-66424790D01*
X142417647Y-66516733D01*
X142327213Y-66694219D01*
X142265661Y-66883656D01*
X142265661Y-66883659D01*
X142234500Y-67080403D01*
X142234500Y-67279596D01*
X142265661Y-67476340D01*
X142265661Y-67476343D01*
X142327213Y-67665780D01*
X142402764Y-67814057D01*
X142417647Y-67843266D01*
X142534731Y-68004418D01*
X142675582Y-68145269D01*
X142836734Y-68262353D01*
X142903186Y-68296212D01*
X142988172Y-68339515D01*
X143038968Y-68387490D01*
X143055763Y-68455311D01*
X143033225Y-68521446D01*
X142988172Y-68560485D01*
X142836733Y-68637647D01*
X142747619Y-68702393D01*
X142675582Y-68754731D01*
X142675580Y-68754733D01*
X142675579Y-68754733D01*
X142534733Y-68895579D01*
X142534733Y-68895580D01*
X142534731Y-68895582D01*
X142522767Y-68912049D01*
X142417647Y-69056733D01*
X142327213Y-69234219D01*
X142265661Y-69423656D01*
X142265661Y-69423659D01*
X142234500Y-69620403D01*
X142234500Y-69819596D01*
X142265661Y-70016340D01*
X142265661Y-70016343D01*
X142327213Y-70205780D01*
X142348730Y-70248009D01*
X142417647Y-70383266D01*
X142534731Y-70544418D01*
X142675582Y-70685269D01*
X142793534Y-70770966D01*
X142800039Y-70776032D01*
X142820181Y-70792823D01*
X142820185Y-70792825D01*
X142820191Y-70792830D01*
X143152637Y-70997625D01*
X143152679Y-70997650D01*
X143152708Y-70997668D01*
X143163779Y-71004295D01*
X143164283Y-71004588D01*
X143174979Y-71010633D01*
X143267823Y-71061630D01*
X143303981Y-71081491D01*
X143304586Y-71081826D01*
X143434682Y-71154232D01*
X143441851Y-71158545D01*
X143544649Y-71225214D01*
X143554568Y-71232366D01*
X143675642Y-71329080D01*
X143683307Y-71335733D01*
X143862892Y-71505046D01*
X143862905Y-71505058D01*
X143885536Y-71524501D01*
X143898298Y-71535465D01*
X143898299Y-71535465D01*
X143902745Y-71539285D01*
X143902715Y-71539319D01*
X143913437Y-71548357D01*
X144779735Y-72414655D01*
X144779764Y-72414686D01*
X144922214Y-72557136D01*
X144922218Y-72557139D01*
X145086079Y-72666628D01*
X145086092Y-72666635D01*
X145214833Y-72719961D01*
X145257744Y-72737735D01*
X145268164Y-72742051D01*
X145364812Y-72761275D01*
X145413135Y-72770887D01*
X145461458Y-72780500D01*
X145461459Y-72780500D01*
X145461460Y-72780500D01*
X145658540Y-72780500D01*
X151898531Y-72780500D01*
X151921027Y-72787105D01*
X151944370Y-72789284D01*
X151957200Y-72797727D01*
X151965570Y-72800185D01*
X151974973Y-72806865D01*
X151980893Y-72811500D01*
X152017635Y-72848242D01*
X152159035Y-72950974D01*
X152160811Y-72952365D01*
X152179897Y-72979046D01*
X152199920Y-73005012D01*
X152200117Y-73007312D01*
X152201462Y-73009192D01*
X152203093Y-73041955D01*
X152205899Y-73074625D01*
X152204821Y-73076667D01*
X152204936Y-73078975D01*
X152188597Y-73107415D01*
X152173293Y-73136420D01*
X152170587Y-73138764D01*
X152170131Y-73139559D01*
X152168985Y-73140152D01*
X152157254Y-73150318D01*
X152017641Y-73251752D01*
X152017636Y-73251756D01*
X151861756Y-73407636D01*
X151861752Y-73407641D01*
X151732187Y-73585974D01*
X151632104Y-73782393D01*
X151632103Y-73782396D01*
X151563985Y-73992047D01*
X151551323Y-74071991D01*
X151529500Y-74209778D01*
X151529500Y-74430222D01*
X151542926Y-74514993D01*
X151563985Y-74647952D01*
X151632103Y-74857603D01*
X151632104Y-74857606D01*
X151700122Y-74991096D01*
X151724324Y-75038595D01*
X151732187Y-75054025D01*
X151861752Y-75232358D01*
X151861756Y-75232363D01*
X152017640Y-75388247D01*
X152157679Y-75489990D01*
X152200345Y-75545319D01*
X152206324Y-75614933D01*
X152173719Y-75676728D01*
X152157679Y-75690626D01*
X152132485Y-75708930D01*
X152132485Y-75708932D01*
X152718940Y-76295387D01*
X152698409Y-76300889D01*
X152561592Y-76379881D01*
X152449881Y-76491592D01*
X152370889Y-76628409D01*
X152365387Y-76648940D01*
X151778932Y-76062485D01*
X151778931Y-76062485D01*
X151732616Y-76126233D01*
X151632567Y-76322589D01*
X151564473Y-76532164D01*
X151530000Y-76749818D01*
X151530000Y-76970181D01*
X151564473Y-77187835D01*
X151632567Y-77397410D01*
X151732611Y-77593756D01*
X151778932Y-77657513D01*
X152365387Y-77071058D01*
X152370889Y-77091591D01*
X152449881Y-77228408D01*
X152561592Y-77340119D01*
X152698409Y-77419111D01*
X152718939Y-77424612D01*
X152132485Y-78011065D01*
X152132485Y-78011066D01*
X152157680Y-78029371D01*
X152200346Y-78084701D01*
X152206325Y-78154314D01*
X152173720Y-78216110D01*
X152157681Y-78230008D01*
X152017636Y-78331756D01*
X151861756Y-78487636D01*
X151861752Y-78487641D01*
X151732187Y-78665974D01*
X151632104Y-78862393D01*
X151632103Y-78862396D01*
X151563985Y-79072047D01*
X151529500Y-79289778D01*
X151529500Y-79510227D01*
X151550914Y-79645430D01*
X151541959Y-79714724D01*
X151516122Y-79752509D01*
X148870451Y-82398181D01*
X148809128Y-82431666D01*
X148782770Y-82434500D01*
X144910070Y-82434500D01*
X144902313Y-82434257D01*
X144895186Y-82433810D01*
X144870701Y-82429413D01*
X144767599Y-82425813D01*
X144765848Y-82425704D01*
X144765532Y-82425589D01*
X144759353Y-82425125D01*
X144694550Y-82417627D01*
X144683346Y-82415808D01*
X144641111Y-82406949D01*
X144629327Y-82403866D01*
X144614676Y-82399253D01*
X144597959Y-82392622D01*
X144515270Y-82352659D01*
X144501948Y-82345175D01*
X144409933Y-82285741D01*
X144409391Y-82285389D01*
X144295868Y-82211221D01*
X144295866Y-82211220D01*
X144295845Y-82211206D01*
X144279861Y-82201184D01*
X144279101Y-82200727D01*
X144279092Y-82200722D01*
X144279074Y-82200711D01*
X144261980Y-82190882D01*
X144128664Y-82117658D01*
X144101616Y-82103843D01*
X144100380Y-82103258D01*
X144100367Y-82103252D01*
X144100360Y-82103249D01*
X144087807Y-82097761D01*
X144072552Y-82091092D01*
X143970851Y-82050222D01*
X143936384Y-82036371D01*
X143881522Y-81993109D01*
X143858757Y-81927052D01*
X143875319Y-81859174D01*
X143925949Y-81811025D01*
X143926198Y-81810896D01*
X144016694Y-81764787D01*
X144177464Y-81647981D01*
X144317981Y-81507464D01*
X144434787Y-81346694D01*
X144525005Y-81169632D01*
X144586413Y-80980636D01*
X144617500Y-80784361D01*
X144617500Y-80585639D01*
X144586413Y-80389364D01*
X144525005Y-80200368D01*
X144525005Y-80200367D01*
X144434786Y-80023305D01*
X144372520Y-79937603D01*
X144317981Y-79862536D01*
X144177464Y-79722019D01*
X144016694Y-79605213D01*
X143899470Y-79545484D01*
X143848675Y-79497510D01*
X143831880Y-79429689D01*
X143854417Y-79363555D01*
X143899469Y-79324515D01*
X144016694Y-79264787D01*
X144177464Y-79147981D01*
X144317981Y-79007464D01*
X144434787Y-78846694D01*
X144525005Y-78669632D01*
X144586413Y-78480636D01*
X144617500Y-78284361D01*
X144617500Y-78085639D01*
X144586413Y-77889364D01*
X144543689Y-77757872D01*
X144525006Y-77700370D01*
X144525005Y-77700367D01*
X144461646Y-77576020D01*
X144434787Y-77523306D01*
X144317981Y-77362536D01*
X144177464Y-77222019D01*
X144016694Y-77105213D01*
X143899470Y-77045484D01*
X143848675Y-76997510D01*
X143831880Y-76929689D01*
X143854417Y-76863555D01*
X143899469Y-76824515D01*
X144016694Y-76764787D01*
X144177464Y-76647981D01*
X144317981Y-76507464D01*
X144434787Y-76346694D01*
X144525005Y-76169632D01*
X144586413Y-75980636D01*
X144617500Y-75784361D01*
X144617500Y-75585639D01*
X144586413Y-75389364D01*
X144555709Y-75294866D01*
X144525006Y-75200370D01*
X144525005Y-75200367D01*
X144450439Y-75054025D01*
X144434787Y-75023306D01*
X144317981Y-74862536D01*
X144177464Y-74722019D01*
X144016694Y-74605213D01*
X143839632Y-74514994D01*
X143839629Y-74514993D01*
X143650637Y-74453587D01*
X143552498Y-74438043D01*
X143454361Y-74422500D01*
X143255639Y-74422500D01*
X143190214Y-74432862D01*
X143059362Y-74453587D01*
X142870370Y-74514993D01*
X142870367Y-74514994D01*
X142693305Y-74605213D01*
X142532533Y-74722021D01*
X142392021Y-74862533D01*
X142275213Y-75023305D01*
X142184994Y-75200367D01*
X142184993Y-75200370D01*
X142123587Y-75389362D01*
X142092500Y-75585639D01*
X142092500Y-75784360D01*
X142123587Y-75980637D01*
X142184993Y-76169629D01*
X142184994Y-76169632D01*
X142231040Y-76260000D01*
X142275213Y-76346694D01*
X142392019Y-76507464D01*
X142532536Y-76647981D01*
X142693306Y-76764787D01*
X142775539Y-76806687D01*
X142810528Y-76824515D01*
X142861324Y-76872490D01*
X142878119Y-76940311D01*
X142855581Y-77006446D01*
X142810528Y-77045485D01*
X142693305Y-77105213D01*
X142532533Y-77222021D01*
X142392021Y-77362533D01*
X142275213Y-77523305D01*
X142184994Y-77700367D01*
X142184993Y-77700370D01*
X142123587Y-77889362D01*
X142092500Y-78085639D01*
X142092500Y-78284360D01*
X142123587Y-78480637D01*
X142184993Y-78669629D01*
X142184994Y-78669632D01*
X142252701Y-78802512D01*
X142275213Y-78846694D01*
X142392019Y-79007464D01*
X142532536Y-79147981D01*
X142693306Y-79264787D01*
X142750155Y-79293753D01*
X142810528Y-79324515D01*
X142861324Y-79372490D01*
X142878119Y-79440311D01*
X142855581Y-79506446D01*
X142810528Y-79545485D01*
X142693305Y-79605213D01*
X142532533Y-79722021D01*
X142392021Y-79862533D01*
X142275213Y-80023305D01*
X142184994Y-80200367D01*
X142184993Y-80200370D01*
X142123587Y-80389362D01*
X142092500Y-80585639D01*
X142092500Y-80784360D01*
X142123587Y-80980637D01*
X142184993Y-81169629D01*
X142184994Y-81169632D01*
X142275213Y-81346694D01*
X142392019Y-81507464D01*
X142532536Y-81647981D01*
X142693306Y-81764787D01*
X142783670Y-81810830D01*
X142810528Y-81824515D01*
X142861324Y-81872490D01*
X142878119Y-81940311D01*
X142855581Y-82006446D01*
X142810528Y-82045485D01*
X142693305Y-82105213D01*
X142532533Y-82222021D01*
X142392021Y-82362533D01*
X142275213Y-82523305D01*
X142184994Y-82700367D01*
X142184993Y-82700370D01*
X142123587Y-82889362D01*
X142092500Y-83085639D01*
X142092500Y-83284360D01*
X142123587Y-83480637D01*
X142184993Y-83669629D01*
X142184994Y-83669632D01*
X142237248Y-83772184D01*
X142275213Y-83846694D01*
X142392019Y-84007464D01*
X142532536Y-84147981D01*
X142693306Y-84264787D01*
X142811080Y-84324796D01*
X142861875Y-84372769D01*
X142878670Y-84440590D01*
X142856133Y-84506725D01*
X142811080Y-84545764D01*
X142693566Y-84605641D01*
X142656283Y-84632729D01*
X142656282Y-84632730D01*
X143327554Y-85304000D01*
X143304840Y-85304000D01*
X143207939Y-85329964D01*
X143121060Y-85380124D01*
X143050124Y-85451060D01*
X142999964Y-85537939D01*
X142974000Y-85634840D01*
X142974000Y-85657553D01*
X142302730Y-84986282D01*
X142302729Y-84986283D01*
X142275643Y-85023564D01*
X142185457Y-85200562D01*
X142124075Y-85389476D01*
X142124075Y-85389479D01*
X142117510Y-85430929D01*
X142087581Y-85494064D01*
X142028269Y-85530995D01*
X141958406Y-85529997D01*
X141907356Y-85499212D01*
X141171819Y-84763675D01*
X141138334Y-84702352D01*
X141135500Y-84675994D01*
X141135500Y-61634006D01*
X141155185Y-61566967D01*
X141171819Y-61546325D01*
X141536325Y-61181819D01*
X141597648Y-61148334D01*
X141624006Y-61145500D01*
X142385877Y-61145500D01*
X142452916Y-61165185D01*
G37*
%TD.AperFunction*%
%TA.AperFunction,Conductor*%
G36*
X148081257Y-63120185D02*
G01*
X148101899Y-63136819D01*
X151893181Y-66928101D01*
X151926666Y-66989424D01*
X151929500Y-67015782D01*
X151929500Y-68208531D01*
X151909815Y-68275570D01*
X151893181Y-68296212D01*
X151861756Y-68327636D01*
X151861752Y-68327641D01*
X151732187Y-68505974D01*
X151632104Y-68702393D01*
X151632103Y-68702396D01*
X151563985Y-68912047D01*
X151529500Y-69129778D01*
X151529500Y-69350221D01*
X151563985Y-69567952D01*
X151632103Y-69777603D01*
X151632104Y-69777606D01*
X151700122Y-69911096D01*
X151713705Y-69937754D01*
X151732187Y-69974025D01*
X151861752Y-70152358D01*
X151861756Y-70152363D01*
X152017636Y-70308243D01*
X152017641Y-70308247D01*
X152157254Y-70409682D01*
X152173120Y-70430258D01*
X152191889Y-70448231D01*
X152194111Y-70457479D01*
X152199920Y-70465012D01*
X152202143Y-70490898D01*
X152208216Y-70516166D01*
X152205085Y-70525149D01*
X152205899Y-70534625D01*
X152193774Y-70557602D01*
X152185222Y-70582144D01*
X152175837Y-70591597D01*
X152173293Y-70596420D01*
X152160811Y-70607635D01*
X152159035Y-70609025D01*
X152017635Y-70711758D01*
X151980893Y-70748499D01*
X151974973Y-70753135D01*
X151949214Y-70763383D01*
X151924889Y-70776666D01*
X151912473Y-70778000D01*
X151910053Y-70778964D01*
X151907729Y-70778510D01*
X151898531Y-70779500D01*
X146025782Y-70779500D01*
X145958743Y-70759815D01*
X145938101Y-70743181D01*
X145307681Y-70112761D01*
X145294506Y-70097219D01*
X145282227Y-70080052D01*
X145282226Y-70080051D01*
X145148404Y-69940289D01*
X145143684Y-69935071D01*
X145093573Y-69876408D01*
X145061470Y-69838825D01*
X145053748Y-69828789D01*
X144942812Y-69668260D01*
X144936596Y-69658286D01*
X144860541Y-69522281D01*
X144860481Y-69522174D01*
X144805516Y-69423656D01*
X144747195Y-69319121D01*
X144740832Y-69308049D01*
X144740525Y-69307530D01*
X144740508Y-69307501D01*
X144733631Y-69296216D01*
X144570628Y-69036460D01*
X144567674Y-69031811D01*
X144567448Y-69031460D01*
X144530556Y-68981205D01*
X144526300Y-68976501D01*
X144526392Y-68976416D01*
X144513996Y-68962647D01*
X144465273Y-68895588D01*
X144465269Y-68895582D01*
X144324418Y-68754731D01*
X144163266Y-68637647D01*
X144011827Y-68560485D01*
X143961031Y-68512510D01*
X143944236Y-68444689D01*
X143966773Y-68378554D01*
X144011827Y-68339515D01*
X144035143Y-68327635D01*
X144163266Y-68262353D01*
X144324418Y-68145269D01*
X144465269Y-68004418D01*
X144582353Y-67843266D01*
X144672785Y-67665783D01*
X144734339Y-67476339D01*
X144765500Y-67279597D01*
X144765500Y-67080403D01*
X144734339Y-66883661D01*
X144734338Y-66883657D01*
X144734338Y-66883656D01*
X144672786Y-66694219D01*
X144637868Y-66625688D01*
X144582353Y-66516734D01*
X144465269Y-66355582D01*
X144324418Y-66214731D01*
X144163266Y-66097647D01*
X144011827Y-66020485D01*
X143961031Y-65972510D01*
X143944236Y-65904689D01*
X143966773Y-65838554D01*
X144011827Y-65799515D01*
X144064140Y-65772860D01*
X144163266Y-65722353D01*
X144324418Y-65605269D01*
X144465269Y-65464418D01*
X144582353Y-65303266D01*
X144672785Y-65125783D01*
X144691354Y-65068634D01*
X144734338Y-64936343D01*
X144734338Y-64936342D01*
X144734339Y-64936339D01*
X144765500Y-64739597D01*
X144765500Y-64540403D01*
X144734339Y-64343661D01*
X144734338Y-64343657D01*
X144734338Y-64343656D01*
X144672786Y-64154219D01*
X144637867Y-64085687D01*
X144582353Y-63976734D01*
X144465269Y-63815582D01*
X144324418Y-63674731D01*
X144163266Y-63557647D01*
X144049031Y-63499441D01*
X143998236Y-63451467D01*
X143981441Y-63383646D01*
X144003978Y-63317512D01*
X144058693Y-63274060D01*
X144076663Y-63268316D01*
X144157817Y-63249033D01*
X144157815Y-63249033D01*
X144157876Y-63249019D01*
X144170349Y-63245888D01*
X144170912Y-63245739D01*
X144182786Y-63242441D01*
X144324392Y-63201245D01*
X144467979Y-63160339D01*
X144476069Y-63158327D01*
X144595920Y-63132774D01*
X144607973Y-63130820D01*
X144761997Y-63113591D01*
X144772112Y-63112877D01*
X145018821Y-63105615D01*
X145018845Y-63105613D01*
X145018848Y-63105613D01*
X145071225Y-63101644D01*
X145071228Y-63101690D01*
X145085190Y-63100500D01*
X148014218Y-63100500D01*
X148081257Y-63120185D01*
G37*
%TD.AperFunction*%
%TA.AperFunction,Conductor*%
G36*
X180570967Y-58820185D02*
G01*
X180616722Y-58872989D01*
X180627928Y-58924500D01*
X180627932Y-61472309D01*
X180627932Y-61472467D01*
X180627926Y-61477171D01*
X180627873Y-61477350D01*
X180627873Y-61727249D01*
X180664566Y-62123202D01*
X180664568Y-62123219D01*
X180737635Y-62514079D01*
X180737638Y-62514090D01*
X180846459Y-62896547D01*
X180846461Y-62896552D01*
X180846463Y-62896558D01*
X180871888Y-62962187D01*
X180886151Y-62999003D01*
X180894524Y-63043946D01*
X180878850Y-76053761D01*
X180870477Y-76098404D01*
X180846503Y-76160289D01*
X180846499Y-76160300D01*
X180740730Y-76532049D01*
X180737679Y-76542773D01*
X180702143Y-76732879D01*
X180664612Y-76933655D01*
X180664611Y-76933662D01*
X180627925Y-77329606D01*
X180627927Y-77488838D01*
X180627927Y-77488840D01*
X180627932Y-122472309D01*
X180627932Y-122472467D01*
X180627926Y-122477171D01*
X180627873Y-122477350D01*
X180627873Y-122727249D01*
X180664566Y-123123202D01*
X180664568Y-123123219D01*
X180737634Y-123514073D01*
X180737638Y-123514090D01*
X180816560Y-123791463D01*
X180821294Y-123825547D01*
X180805073Y-137288750D01*
X180800340Y-137322534D01*
X180737681Y-137542764D01*
X180737680Y-137542765D01*
X180664612Y-137933655D01*
X180664611Y-137933662D01*
X180627925Y-138329606D01*
X180627925Y-138526514D01*
X180627919Y-138527700D01*
X180603536Y-141076686D01*
X180583211Y-141143534D01*
X180529972Y-141188782D01*
X180479542Y-141199500D01*
X100296073Y-141199500D01*
X100229034Y-141179815D01*
X100183279Y-141127011D01*
X100172073Y-141075500D01*
X100172073Y-138523006D01*
X100172126Y-138522821D01*
X100172126Y-138471571D01*
X100172127Y-138471571D01*
X100172126Y-138272746D01*
X100135433Y-137876791D01*
X100072992Y-137542773D01*
X100062364Y-137485920D01*
X100062361Y-137485909D01*
X100050100Y-137442816D01*
X100041831Y-137413753D01*
X107510000Y-137413753D01*
X107510000Y-137626246D01*
X107543242Y-137836127D01*
X107543242Y-137836130D01*
X107608904Y-138038217D01*
X107705375Y-138227550D01*
X107744728Y-138281716D01*
X108377037Y-137649408D01*
X108394075Y-137712993D01*
X108459901Y-137827007D01*
X108552993Y-137920099D01*
X108667007Y-137985925D01*
X108730590Y-138002962D01*
X108098282Y-138635269D01*
X108098282Y-138635270D01*
X108152449Y-138674624D01*
X108341782Y-138771095D01*
X108543870Y-138836757D01*
X108753754Y-138870000D01*
X108966246Y-138870000D01*
X109176127Y-138836757D01*
X109176130Y-138836757D01*
X109378217Y-138771095D01*
X109567554Y-138674622D01*
X109621716Y-138635270D01*
X109621717Y-138635270D01*
X108989408Y-138002962D01*
X109052993Y-137985925D01*
X109167007Y-137920099D01*
X109260099Y-137827007D01*
X109325925Y-137712993D01*
X109342962Y-137649408D01*
X109975270Y-138281717D01*
X109975270Y-138281716D01*
X110014622Y-138227555D01*
X110019232Y-138218507D01*
X110067205Y-138167709D01*
X110135025Y-138150912D01*
X110201161Y-138173447D01*
X110240204Y-138218504D01*
X110244949Y-138227817D01*
X110369890Y-138399786D01*
X110520213Y-138550109D01*
X110692179Y-138675048D01*
X110692181Y-138675049D01*
X110692184Y-138675051D01*
X110881588Y-138771557D01*
X111083757Y-138837246D01*
X111293713Y-138870500D01*
X111293714Y-138870500D01*
X111506286Y-138870500D01*
X111506287Y-138870500D01*
X111716243Y-138837246D01*
X111918412Y-138771557D01*
X112107816Y-138675051D01*
X112194138Y-138612335D01*
X112279786Y-138550109D01*
X112279788Y-138550106D01*
X112279792Y-138550104D01*
X112430104Y-138399792D01*
X112430106Y-138399788D01*
X112430109Y-138399786D01*
X112555048Y-138227820D01*
X112555050Y-138227817D01*
X112555051Y-138227816D01*
X112559514Y-138219054D01*
X112607488Y-138168259D01*
X112675308Y-138151463D01*
X112741444Y-138173999D01*
X112780486Y-138219056D01*
X112784951Y-138227820D01*
X112909890Y-138399786D01*
X113060213Y-138550109D01*
X113232179Y-138675048D01*
X113232181Y-138675049D01*
X113232184Y-138675051D01*
X113421588Y-138771557D01*
X113623757Y-138837246D01*
X113833713Y-138870500D01*
X113833714Y-138870500D01*
X114046286Y-138870500D01*
X114046287Y-138870500D01*
X114256243Y-138837246D01*
X114458412Y-138771557D01*
X114647816Y-138675051D01*
X114734138Y-138612335D01*
X114819786Y-138550109D01*
X114819788Y-138550106D01*
X114819792Y-138550104D01*
X114970104Y-138399792D01*
X114970106Y-138399788D01*
X114970109Y-138399786D01*
X115095048Y-138227820D01*
X115095050Y-138227817D01*
X115095051Y-138227816D01*
X115099514Y-138219054D01*
X115147488Y-138168259D01*
X115215308Y-138151463D01*
X115281444Y-138173999D01*
X115320486Y-138219056D01*
X115324951Y-138227820D01*
X115449890Y-138399786D01*
X115600213Y-138550109D01*
X115772179Y-138675048D01*
X115772181Y-138675049D01*
X115772184Y-138675051D01*
X115961588Y-138771557D01*
X116163757Y-138837246D01*
X116373713Y-138870500D01*
X116373714Y-138870500D01*
X116586286Y-138870500D01*
X116586287Y-138870500D01*
X116796243Y-138837246D01*
X116998412Y-138771557D01*
X117187816Y-138675051D01*
X117274138Y-138612335D01*
X117359786Y-138550109D01*
X117359788Y-138550106D01*
X117359792Y-138550104D01*
X117510104Y-138399792D01*
X117510106Y-138399788D01*
X117510109Y-138399786D01*
X117635048Y-138227820D01*
X117635050Y-138227817D01*
X117635051Y-138227816D01*
X117639514Y-138219054D01*
X117687488Y-138168259D01*
X117755308Y-138151463D01*
X117821444Y-138173999D01*
X117860486Y-138219056D01*
X117864951Y-138227820D01*
X117989890Y-138399786D01*
X118140213Y-138550109D01*
X118312179Y-138675048D01*
X118312181Y-138675049D01*
X118312184Y-138675051D01*
X118501588Y-138771557D01*
X118703757Y-138837246D01*
X118913713Y-138870500D01*
X118913714Y-138870500D01*
X119126286Y-138870500D01*
X119126287Y-138870500D01*
X119336243Y-138837246D01*
X119538412Y-138771557D01*
X119727816Y-138675051D01*
X119862196Y-138577419D01*
X119899784Y-138550110D01*
X119899784Y-138550109D01*
X119899792Y-138550104D01*
X120013329Y-138436566D01*
X120074648Y-138403084D01*
X120144340Y-138408068D01*
X120200274Y-138449939D01*
X120217189Y-138480917D01*
X120266202Y-138612328D01*
X120266206Y-138612335D01*
X120352452Y-138727544D01*
X120352455Y-138727547D01*
X120467664Y-138813793D01*
X120467671Y-138813797D01*
X120602517Y-138864091D01*
X120602516Y-138864091D01*
X120609444Y-138864835D01*
X120662127Y-138870500D01*
X122457872Y-138870499D01*
X122517483Y-138864091D01*
X122652331Y-138813796D01*
X122767546Y-138727546D01*
X122853796Y-138612331D01*
X122904091Y-138477483D01*
X122910500Y-138417873D01*
X122910499Y-136622128D01*
X122904091Y-136562517D01*
X122902810Y-136559083D01*
X122853797Y-136427671D01*
X122853793Y-136427664D01*
X122767547Y-136312455D01*
X122767544Y-136312452D01*
X122652335Y-136226206D01*
X122652328Y-136226202D01*
X122517482Y-136175908D01*
X122517483Y-136175908D01*
X122457883Y-136169501D01*
X122457881Y-136169500D01*
X122457873Y-136169500D01*
X122457864Y-136169500D01*
X120662129Y-136169500D01*
X120662123Y-136169501D01*
X120602516Y-136175908D01*
X120467671Y-136226202D01*
X120467664Y-136226206D01*
X120352455Y-136312452D01*
X120352452Y-136312455D01*
X120266206Y-136427664D01*
X120266203Y-136427669D01*
X120217189Y-136559083D01*
X120175317Y-136615016D01*
X120109853Y-136639433D01*
X120041580Y-136624581D01*
X120013326Y-136603430D01*
X119899786Y-136489890D01*
X119727820Y-136364951D01*
X119538414Y-136268444D01*
X119538413Y-136268443D01*
X119538412Y-136268443D01*
X119336243Y-136202754D01*
X119336241Y-136202753D01*
X119336240Y-136202753D01*
X119174957Y-136177208D01*
X119126287Y-136169500D01*
X118913713Y-136169500D01*
X118865042Y-136177208D01*
X118703760Y-136202753D01*
X118501585Y-136268444D01*
X118312179Y-136364951D01*
X118140213Y-136489890D01*
X117989890Y-136640213D01*
X117864949Y-136812182D01*
X117860484Y-136820946D01*
X117812509Y-136871742D01*
X117744688Y-136888536D01*
X117678553Y-136865998D01*
X117639516Y-136820946D01*
X117635050Y-136812182D01*
X117510109Y-136640213D01*
X117359786Y-136489890D01*
X117187820Y-136364951D01*
X116998414Y-136268444D01*
X116998413Y-136268443D01*
X116998412Y-136268443D01*
X116796243Y-136202754D01*
X116796241Y-136202753D01*
X116796239Y-136202753D01*
X116624285Y-136175518D01*
X116561150Y-136145589D01*
X116524219Y-136086277D01*
X116525217Y-136016415D01*
X116556000Y-135965366D01*
X123694548Y-128826819D01*
X123755871Y-128793334D01*
X123782229Y-128790500D01*
X147012779Y-128790500D01*
X147079818Y-128810185D01*
X147113097Y-128841615D01*
X147169892Y-128919788D01*
X147169896Y-128919792D01*
X147320208Y-129070104D01*
X147425709Y-129146754D01*
X147468374Y-129202083D01*
X147474353Y-129271696D01*
X147441748Y-129333492D01*
X147400278Y-129361632D01*
X147396091Y-129363366D01*
X147396079Y-129363372D01*
X147232219Y-129472860D01*
X147232215Y-129472863D01*
X147092863Y-129612215D01*
X147092860Y-129612219D01*
X146983372Y-129776079D01*
X146983367Y-129776089D01*
X146907949Y-129958163D01*
X146907947Y-129958171D01*
X146869500Y-130151455D01*
X146869500Y-130337681D01*
X146867973Y-130357079D01*
X146849500Y-130473713D01*
X146849500Y-130686286D01*
X146882753Y-130896239D01*
X146948444Y-131098414D01*
X147044951Y-131287820D01*
X147169890Y-131459786D01*
X147320213Y-131610109D01*
X147492179Y-131735048D01*
X147492181Y-131735049D01*
X147492184Y-131735051D01*
X147501493Y-131739794D01*
X147552290Y-131787766D01*
X147569087Y-131855587D01*
X147546552Y-131921722D01*
X147501505Y-131960760D01*
X147492446Y-131965376D01*
X147492440Y-131965380D01*
X147438282Y-132004727D01*
X147438282Y-132004728D01*
X148070591Y-132637037D01*
X148007007Y-132654075D01*
X147892993Y-132719901D01*
X147799901Y-132812993D01*
X147734075Y-132927007D01*
X147717037Y-132990591D01*
X147084728Y-132358282D01*
X147084727Y-132358282D01*
X147045380Y-132412439D01*
X146948904Y-132601782D01*
X146883242Y-132803869D01*
X146883242Y-132803872D01*
X146850000Y-133013753D01*
X146850000Y-133226246D01*
X146883242Y-133436127D01*
X146883242Y-133436130D01*
X146948904Y-133638217D01*
X147045375Y-133827550D01*
X147084728Y-133881716D01*
X147717037Y-133249408D01*
X147734075Y-133312993D01*
X147799901Y-133427007D01*
X147892993Y-133520099D01*
X148007007Y-133585925D01*
X148070590Y-133602962D01*
X147438282Y-134235269D01*
X147438282Y-134235270D01*
X147492452Y-134274626D01*
X147492451Y-134274626D01*
X147501495Y-134279234D01*
X147552292Y-134327208D01*
X147569087Y-134395029D01*
X147546550Y-134461164D01*
X147501499Y-134500202D01*
X147492182Y-134504949D01*
X147320213Y-134629890D01*
X147169890Y-134780213D01*
X147044951Y-134952179D01*
X146948444Y-135141585D01*
X146882753Y-135343760D01*
X146849500Y-135553713D01*
X146849500Y-135766286D01*
X146872654Y-135912478D01*
X146882754Y-135976243D01*
X146947629Y-136175908D01*
X146948444Y-136178414D01*
X147044951Y-136367820D01*
X147169890Y-136539786D01*
X147320213Y-136690109D01*
X147492179Y-136815048D01*
X147492181Y-136815049D01*
X147492184Y-136815051D01*
X147681588Y-136911557D01*
X147883757Y-136977246D01*
X148093713Y-137010500D01*
X148093714Y-137010500D01*
X148306286Y-137010500D01*
X148306287Y-137010500D01*
X148516243Y-136977246D01*
X148718412Y-136911557D01*
X148907816Y-136815051D01*
X148949881Y-136784489D01*
X149079786Y-136690109D01*
X149079788Y-136690106D01*
X149079792Y-136690104D01*
X149230104Y-136539792D01*
X149230106Y-136539788D01*
X149230109Y-136539786D01*
X149355048Y-136367820D01*
X149355047Y-136367820D01*
X149355051Y-136367816D01*
X149451557Y-136178412D01*
X149517246Y-135976243D01*
X149550500Y-135766287D01*
X149550500Y-135553713D01*
X149517246Y-135343757D01*
X149451557Y-135141588D01*
X149355051Y-134952184D01*
X149355049Y-134952181D01*
X149355048Y-134952179D01*
X149230109Y-134780213D01*
X149079786Y-134629890D01*
X148907817Y-134504949D01*
X148898504Y-134500204D01*
X148847707Y-134452230D01*
X148830912Y-134384409D01*
X148853449Y-134318274D01*
X148898507Y-134279232D01*
X148907555Y-134274622D01*
X148961716Y-134235270D01*
X148961717Y-134235270D01*
X148329408Y-133602962D01*
X148392993Y-133585925D01*
X148507007Y-133520099D01*
X148600099Y-133427007D01*
X148665925Y-133312993D01*
X148682962Y-133249408D01*
X149315270Y-133881717D01*
X149315270Y-133881716D01*
X149354622Y-133827554D01*
X149451095Y-133638217D01*
X149516757Y-133436130D01*
X149516757Y-133436127D01*
X149550000Y-133226246D01*
X149550000Y-133013753D01*
X149516757Y-132803872D01*
X149516757Y-132803869D01*
X149451095Y-132601782D01*
X149354624Y-132412449D01*
X149315270Y-132358282D01*
X149315269Y-132358282D01*
X148682962Y-132990590D01*
X148665925Y-132927007D01*
X148600099Y-132812993D01*
X148507007Y-132719901D01*
X148392993Y-132654075D01*
X148329409Y-132637037D01*
X148961716Y-132004728D01*
X148907547Y-131965373D01*
X148907547Y-131965372D01*
X148898500Y-131960763D01*
X148847706Y-131912788D01*
X148830912Y-131844966D01*
X148853451Y-131778832D01*
X148898508Y-131739793D01*
X148907816Y-131735051D01*
X148987007Y-131677515D01*
X149079786Y-131610109D01*
X149079788Y-131610106D01*
X149079792Y-131610104D01*
X149230104Y-131459792D01*
X149230106Y-131459788D01*
X149230109Y-131459786D01*
X149355048Y-131287820D01*
X149355047Y-131287820D01*
X149355051Y-131287816D01*
X149451557Y-131098412D01*
X149517246Y-130896243D01*
X149550500Y-130686287D01*
X149550500Y-130686285D01*
X149551262Y-130681475D01*
X149552321Y-130681642D01*
X149575361Y-130621172D01*
X149586416Y-130608503D01*
X158507778Y-121687141D01*
X158507782Y-121687139D01*
X158647139Y-121547782D01*
X158756632Y-121383914D01*
X158832051Y-121201835D01*
X158846775Y-121127816D01*
X158870500Y-121008540D01*
X158870500Y-120811460D01*
X158870500Y-120164782D01*
X158890185Y-120097743D01*
X158942989Y-120051988D01*
X159012147Y-120042044D01*
X159075703Y-120071069D01*
X159082181Y-120077101D01*
X169613576Y-130608496D01*
X169647061Y-130669819D01*
X169649350Y-130685344D01*
X169682753Y-130896239D01*
X169748444Y-131098414D01*
X169844951Y-131287820D01*
X169969890Y-131459786D01*
X170120213Y-131610109D01*
X170292179Y-131735048D01*
X170292181Y-131735049D01*
X170292184Y-131735051D01*
X170301493Y-131739794D01*
X170352290Y-131787766D01*
X170369087Y-131855587D01*
X170346552Y-131921722D01*
X170301505Y-131960760D01*
X170292446Y-131965376D01*
X170292440Y-131965380D01*
X170238282Y-132004727D01*
X170238282Y-132004728D01*
X170870591Y-132637037D01*
X170807007Y-132654075D01*
X170692993Y-132719901D01*
X170599901Y-132812993D01*
X170534075Y-132927007D01*
X170517037Y-132990591D01*
X169884728Y-132358282D01*
X169884727Y-132358282D01*
X169845380Y-132412439D01*
X169748904Y-132601782D01*
X169683242Y-132803869D01*
X169683242Y-132803872D01*
X169650000Y-133013753D01*
X169650000Y-133226246D01*
X169683242Y-133436127D01*
X169683242Y-133436130D01*
X169748904Y-133638217D01*
X169845375Y-133827550D01*
X169884728Y-133881716D01*
X170517037Y-133249408D01*
X170534075Y-133312993D01*
X170599901Y-133427007D01*
X170692993Y-133520099D01*
X170807007Y-133585925D01*
X170870590Y-133602962D01*
X170238282Y-134235269D01*
X170238282Y-134235270D01*
X170292452Y-134274626D01*
X170292451Y-134274626D01*
X170301495Y-134279234D01*
X170352292Y-134327208D01*
X170369087Y-134395029D01*
X170346550Y-134461164D01*
X170301499Y-134500202D01*
X170292182Y-134504949D01*
X170120213Y-134629890D01*
X169969890Y-134780213D01*
X169844951Y-134952179D01*
X169748444Y-135141585D01*
X169682753Y-135343760D01*
X169649500Y-135553713D01*
X169649500Y-135766286D01*
X169672654Y-135912478D01*
X169682754Y-135976243D01*
X169747629Y-136175908D01*
X169748444Y-136178414D01*
X169844951Y-136367820D01*
X169969890Y-136539786D01*
X170120213Y-136690109D01*
X170292179Y-136815048D01*
X170292181Y-136815049D01*
X170292184Y-136815051D01*
X170481588Y-136911557D01*
X170683757Y-136977246D01*
X170893713Y-137010500D01*
X170893714Y-137010500D01*
X171106286Y-137010500D01*
X171106287Y-137010500D01*
X171316243Y-136977246D01*
X171518412Y-136911557D01*
X171707816Y-136815051D01*
X171749881Y-136784489D01*
X171879786Y-136690109D01*
X171879788Y-136690106D01*
X171879792Y-136690104D01*
X172030104Y-136539792D01*
X172030106Y-136539788D01*
X172030109Y-136539786D01*
X172155048Y-136367820D01*
X172155047Y-136367820D01*
X172155051Y-136367816D01*
X172251557Y-136178412D01*
X172317246Y-135976243D01*
X172350500Y-135766287D01*
X172350500Y-135766285D01*
X172351262Y-135761475D01*
X172352321Y-135761642D01*
X172375361Y-135701172D01*
X172386416Y-135688503D01*
X176477140Y-131597781D01*
X176514377Y-131542051D01*
X176586632Y-131433914D01*
X176662051Y-131251835D01*
X176700500Y-131058541D01*
X176700500Y-103451459D01*
X176700500Y-103451456D01*
X176662052Y-103258170D01*
X176662051Y-103258169D01*
X176662051Y-103258165D01*
X176626509Y-103172358D01*
X176586635Y-103076092D01*
X176586628Y-103076079D01*
X176477140Y-102912219D01*
X176477139Y-102912218D01*
X176337782Y-102772861D01*
X176337781Y-102772860D01*
X170114208Y-96549288D01*
X170114206Y-96549285D01*
X170114206Y-96549286D01*
X170107139Y-96542219D01*
X170107139Y-96542218D01*
X169967782Y-96402861D01*
X169967781Y-96402860D01*
X169967780Y-96402859D01*
X169803920Y-96293371D01*
X169803907Y-96293364D01*
X169679135Y-96241683D01*
X169679133Y-96241682D01*
X169672097Y-96238768D01*
X169621836Y-96217949D01*
X169525188Y-96198724D01*
X169520699Y-96197831D01*
X169428544Y-96179500D01*
X169428541Y-96179500D01*
X169201469Y-96179500D01*
X169178972Y-96172894D01*
X169155630Y-96170716D01*
X169142799Y-96162272D01*
X169134430Y-96159815D01*
X169125027Y-96153135D01*
X169119107Y-96148500D01*
X169082365Y-96111758D01*
X168940951Y-96009015D01*
X168939188Y-96007635D01*
X168920106Y-95980960D01*
X168900079Y-95954989D01*
X168899881Y-95952687D01*
X168898537Y-95950808D01*
X168896905Y-95918045D01*
X168894100Y-95885375D01*
X168895177Y-95883332D01*
X168895063Y-95881025D01*
X168911395Y-95852595D01*
X168926705Y-95823580D01*
X168929412Y-95821234D01*
X168929868Y-95820441D01*
X168931012Y-95819848D01*
X168942745Y-95809682D01*
X169082358Y-95708247D01*
X169082356Y-95708247D01*
X169082365Y-95708242D01*
X169238242Y-95552365D01*
X169367815Y-95374022D01*
X169467895Y-95177606D01*
X169536015Y-94967951D01*
X169570500Y-94750222D01*
X169570500Y-94529778D01*
X169536015Y-94312049D01*
X169467895Y-94102394D01*
X169467895Y-94102393D01*
X169408225Y-93985287D01*
X169367815Y-93905978D01*
X169331141Y-93855500D01*
X169238247Y-93727641D01*
X169238243Y-93727636D01*
X169082363Y-93571756D01*
X169082358Y-93571752D01*
X168942745Y-93470318D01*
X168900079Y-93414989D01*
X168894100Y-93345375D01*
X168926705Y-93283580D01*
X168942745Y-93269682D01*
X169082358Y-93168247D01*
X169082356Y-93168247D01*
X169082365Y-93168242D01*
X169238242Y-93012365D01*
X169367815Y-92834022D01*
X169467895Y-92637606D01*
X169536015Y-92427951D01*
X169570500Y-92210222D01*
X169570500Y-91989778D01*
X169536015Y-91772049D01*
X169501955Y-91667221D01*
X169467896Y-91562396D01*
X169467895Y-91562393D01*
X169413573Y-91455782D01*
X169367815Y-91365978D01*
X169336488Y-91322860D01*
X169238247Y-91187641D01*
X169238243Y-91187636D01*
X169082363Y-91031756D01*
X169082358Y-91031752D01*
X168942745Y-90930318D01*
X168900079Y-90874989D01*
X168894100Y-90805375D01*
X168926705Y-90743580D01*
X168942745Y-90729682D01*
X169082358Y-90628247D01*
X169082356Y-90628247D01*
X169082365Y-90628242D01*
X169238242Y-90472365D01*
X169367815Y-90294022D01*
X169467895Y-90097606D01*
X169536015Y-89887951D01*
X169570500Y-89670222D01*
X169570500Y-89449778D01*
X169536015Y-89232049D01*
X169501955Y-89127221D01*
X169467896Y-89022396D01*
X169467895Y-89022393D01*
X169390495Y-88870490D01*
X169367815Y-88825978D01*
X169263093Y-88681839D01*
X169238247Y-88647641D01*
X169238243Y-88647636D01*
X169082363Y-88491756D01*
X169082358Y-88491752D01*
X168942745Y-88390318D01*
X168900079Y-88334989D01*
X168894100Y-88265375D01*
X168926705Y-88203580D01*
X168942745Y-88189682D01*
X169082358Y-88088247D01*
X169082356Y-88088247D01*
X169082365Y-88088242D01*
X169238242Y-87932365D01*
X169367815Y-87754022D01*
X169467895Y-87557606D01*
X169536015Y-87347951D01*
X169570500Y-87130222D01*
X169570500Y-86909778D01*
X169536015Y-86692049D01*
X169501955Y-86587221D01*
X169467896Y-86482396D01*
X169467895Y-86482393D01*
X169417615Y-86383715D01*
X169367815Y-86285978D01*
X169283144Y-86169437D01*
X169238247Y-86107641D01*
X169238243Y-86107636D01*
X169082363Y-85951756D01*
X169082358Y-85951752D01*
X168942745Y-85850318D01*
X168900079Y-85794989D01*
X168894100Y-85725375D01*
X168926705Y-85663580D01*
X168942745Y-85649682D01*
X169082358Y-85548247D01*
X169082356Y-85548247D01*
X169082365Y-85548242D01*
X169238242Y-85392365D01*
X169367815Y-85214022D01*
X169467895Y-85017606D01*
X169536015Y-84807951D01*
X169570500Y-84590222D01*
X169570500Y-84369778D01*
X169536015Y-84152049D01*
X169477367Y-83971547D01*
X169467896Y-83942396D01*
X169467895Y-83942393D01*
X169404098Y-83817187D01*
X169367815Y-83745978D01*
X169312345Y-83669629D01*
X169238247Y-83567641D01*
X169238243Y-83567636D01*
X169082363Y-83411756D01*
X169082358Y-83411752D01*
X168942745Y-83310318D01*
X168900079Y-83254989D01*
X168894100Y-83185375D01*
X168926705Y-83123580D01*
X168942745Y-83109682D01*
X169082358Y-83008247D01*
X169082356Y-83008247D01*
X169082365Y-83008242D01*
X169238242Y-82852365D01*
X169367815Y-82674022D01*
X169467895Y-82477606D01*
X169536015Y-82267951D01*
X169570500Y-82050222D01*
X169570500Y-81829778D01*
X169536015Y-81612049D01*
X169501955Y-81507221D01*
X169467896Y-81402396D01*
X169467895Y-81402393D01*
X169433237Y-81334375D01*
X169367815Y-81205978D01*
X169341406Y-81169629D01*
X169238247Y-81027641D01*
X169238243Y-81027636D01*
X169082363Y-80871756D01*
X169082358Y-80871752D01*
X168942745Y-80770318D01*
X168900079Y-80714989D01*
X168894100Y-80645375D01*
X168926705Y-80583580D01*
X168942745Y-80569682D01*
X169082358Y-80468247D01*
X169082356Y-80468247D01*
X169082365Y-80468242D01*
X169238242Y-80312365D01*
X169367815Y-80134022D01*
X169467895Y-79937606D01*
X169536015Y-79727951D01*
X169570500Y-79510222D01*
X169570500Y-79289778D01*
X169536015Y-79072049D01*
X169480114Y-78900000D01*
X169467896Y-78862396D01*
X169467895Y-78862393D01*
X169433237Y-78794375D01*
X169367815Y-78665978D01*
X169328186Y-78611433D01*
X169238247Y-78487641D01*
X169238243Y-78487636D01*
X169082363Y-78331756D01*
X169082358Y-78331752D01*
X168942745Y-78230318D01*
X168900079Y-78174989D01*
X168894100Y-78105375D01*
X168926705Y-78043580D01*
X168942745Y-78029682D01*
X169082358Y-77928247D01*
X169082356Y-77928247D01*
X169082365Y-77928242D01*
X169238242Y-77772365D01*
X169367815Y-77594022D01*
X169467895Y-77397606D01*
X169536015Y-77187951D01*
X169570500Y-76970222D01*
X169570500Y-76749778D01*
X169536015Y-76532049D01*
X169492350Y-76397660D01*
X169467896Y-76322396D01*
X169467895Y-76322393D01*
X169367815Y-76125978D01*
X169299312Y-76031691D01*
X169299311Y-76031688D01*
X169248778Y-75962135D01*
X176669500Y-75962135D01*
X176669500Y-77757870D01*
X176669501Y-77757876D01*
X176675908Y-77817483D01*
X176726202Y-77952328D01*
X176726206Y-77952335D01*
X176812452Y-78067544D01*
X176812455Y-78067547D01*
X176927664Y-78153793D01*
X176927671Y-78153797D01*
X176972618Y-78170561D01*
X177062517Y-78204091D01*
X177122127Y-78210500D01*
X177132685Y-78210499D01*
X177199723Y-78230179D01*
X177220372Y-78246818D01*
X177890591Y-78917037D01*
X177827007Y-78934075D01*
X177712993Y-78999901D01*
X177619901Y-79092993D01*
X177554075Y-79207007D01*
X177537037Y-79270591D01*
X176904728Y-78638282D01*
X176904727Y-78638282D01*
X176865380Y-78692439D01*
X176768904Y-78881782D01*
X176703242Y-79083869D01*
X176703242Y-79083872D01*
X176670000Y-79293753D01*
X176670000Y-79506246D01*
X176703242Y-79716127D01*
X176703242Y-79716130D01*
X176768904Y-79918217D01*
X176865375Y-80107550D01*
X176904728Y-80161716D01*
X177537037Y-79529408D01*
X177554075Y-79592993D01*
X177619901Y-79707007D01*
X177712993Y-79800099D01*
X177827007Y-79865925D01*
X177890590Y-79882962D01*
X177258282Y-80515269D01*
X177258282Y-80515270D01*
X177312452Y-80554626D01*
X177312451Y-80554626D01*
X177321495Y-80559234D01*
X177372292Y-80607208D01*
X177389087Y-80675029D01*
X177366550Y-80741164D01*
X177321499Y-80780202D01*
X177312182Y-80784949D01*
X177140213Y-80909890D01*
X176989890Y-81060213D01*
X176864951Y-81232179D01*
X176768444Y-81421585D01*
X176702753Y-81623760D01*
X176698917Y-81647981D01*
X176669500Y-81833713D01*
X176669500Y-82046287D01*
X176678522Y-82103249D01*
X176697333Y-82222021D01*
X176702754Y-82256243D01*
X176760673Y-82434500D01*
X176768444Y-82458414D01*
X176864951Y-82647820D01*
X176989890Y-82819786D01*
X177140213Y-82970109D01*
X177312182Y-83095050D01*
X177320946Y-83099516D01*
X177371742Y-83147491D01*
X177388536Y-83215312D01*
X177365998Y-83281447D01*
X177320946Y-83320484D01*
X177312182Y-83324949D01*
X177140213Y-83449890D01*
X176989890Y-83600213D01*
X176864951Y-83772179D01*
X176768444Y-83961585D01*
X176702753Y-84163760D01*
X176693611Y-84221483D01*
X176669500Y-84373713D01*
X176669500Y-84586287D01*
X176676856Y-84632729D01*
X176702753Y-84796239D01*
X176768444Y-84998414D01*
X176864951Y-85187820D01*
X176989890Y-85359786D01*
X177140213Y-85510109D01*
X177312182Y-85635050D01*
X177320946Y-85639516D01*
X177371742Y-85687491D01*
X177388536Y-85755312D01*
X177365998Y-85821447D01*
X177320946Y-85860484D01*
X177312182Y-85864949D01*
X177140213Y-85989890D01*
X176989890Y-86140213D01*
X176864951Y-86312179D01*
X176768444Y-86501585D01*
X176702753Y-86703760D01*
X176669500Y-86913713D01*
X176669500Y-87126286D01*
X176692710Y-87272832D01*
X176702754Y-87336243D01*
X176763534Y-87523305D01*
X176768444Y-87538414D01*
X176864951Y-87727820D01*
X176989890Y-87899786D01*
X177140213Y-88050109D01*
X177312182Y-88175050D01*
X177320946Y-88179516D01*
X177371742Y-88227491D01*
X177388536Y-88295312D01*
X177365998Y-88361447D01*
X177320946Y-88400484D01*
X177312182Y-88404949D01*
X177140213Y-88529890D01*
X176989890Y-88680213D01*
X176864951Y-88852179D01*
X176768444Y-89041585D01*
X176702753Y-89243760D01*
X176699423Y-89264786D01*
X176669500Y-89453713D01*
X176669500Y-89666287D01*
X176702754Y-89876243D01*
X176710947Y-89901459D01*
X176768444Y-90078414D01*
X176864951Y-90267820D01*
X176989890Y-90439786D01*
X177140213Y-90590109D01*
X177312179Y-90715048D01*
X177312181Y-90715049D01*
X177312184Y-90715051D01*
X177501588Y-90811557D01*
X177703757Y-90877246D01*
X177913713Y-90910500D01*
X177913714Y-90910500D01*
X178126286Y-90910500D01*
X178126287Y-90910500D01*
X178336243Y-90877246D01*
X178538412Y-90811557D01*
X178727816Y-90715051D01*
X178749789Y-90699086D01*
X178899786Y-90590109D01*
X178899788Y-90590106D01*
X178899792Y-90590104D01*
X179050104Y-90439792D01*
X179050106Y-90439788D01*
X179050109Y-90439786D01*
X179175048Y-90267820D01*
X179175047Y-90267820D01*
X179175051Y-90267816D01*
X179271557Y-90078412D01*
X179337246Y-89876243D01*
X179370500Y-89666287D01*
X179370500Y-89453713D01*
X179337246Y-89243757D01*
X179271557Y-89041588D01*
X179175051Y-88852184D01*
X179175049Y-88852181D01*
X179175048Y-88852179D01*
X179050109Y-88680213D01*
X178899786Y-88529890D01*
X178727820Y-88404951D01*
X178727115Y-88404591D01*
X178719054Y-88400485D01*
X178668259Y-88352512D01*
X178651463Y-88284692D01*
X178673999Y-88218556D01*
X178719054Y-88179515D01*
X178727816Y-88175051D01*
X178792564Y-88128009D01*
X178899786Y-88050109D01*
X178899788Y-88050106D01*
X178899792Y-88050104D01*
X179050104Y-87899792D01*
X179050106Y-87899788D01*
X179050109Y-87899786D01*
X179159086Y-87749789D01*
X179175051Y-87727816D01*
X179271557Y-87538412D01*
X179337246Y-87336243D01*
X179370500Y-87126287D01*
X179370500Y-86913713D01*
X179337246Y-86703757D01*
X179271557Y-86501588D01*
X179175051Y-86312184D01*
X179175049Y-86312181D01*
X179175048Y-86312179D01*
X179050109Y-86140213D01*
X178899786Y-85989890D01*
X178727820Y-85864951D01*
X178727115Y-85864591D01*
X178719054Y-85860485D01*
X178668259Y-85812512D01*
X178651463Y-85744692D01*
X178673999Y-85678556D01*
X178719054Y-85639515D01*
X178727816Y-85635051D01*
X178795773Y-85585678D01*
X178899786Y-85510109D01*
X178899788Y-85510106D01*
X178899792Y-85510104D01*
X179050104Y-85359792D01*
X179050106Y-85359788D01*
X179050109Y-85359786D01*
X179175048Y-85187820D01*
X179175047Y-85187820D01*
X179175051Y-85187816D01*
X179271557Y-84998412D01*
X179337246Y-84796243D01*
X179370500Y-84586287D01*
X179370500Y-84373713D01*
X179337246Y-84163757D01*
X179271557Y-83961588D01*
X179175051Y-83772184D01*
X179175049Y-83772181D01*
X179175048Y-83772179D01*
X179050109Y-83600213D01*
X178899786Y-83449890D01*
X178727820Y-83324951D01*
X178727115Y-83324591D01*
X178719054Y-83320485D01*
X178668259Y-83272512D01*
X178651463Y-83204692D01*
X178673999Y-83138556D01*
X178719054Y-83099515D01*
X178727816Y-83095051D01*
X178749789Y-83079086D01*
X178899786Y-82970109D01*
X178899788Y-82970106D01*
X178899792Y-82970104D01*
X179050104Y-82819792D01*
X179050106Y-82819788D01*
X179050109Y-82819786D01*
X179175048Y-82647820D01*
X179175047Y-82647820D01*
X179175051Y-82647816D01*
X179271557Y-82458412D01*
X179337246Y-82256243D01*
X179370500Y-82046287D01*
X179370500Y-81833713D01*
X179337246Y-81623757D01*
X179271557Y-81421588D01*
X179175051Y-81232184D01*
X179175049Y-81232181D01*
X179175048Y-81232179D01*
X179050109Y-81060213D01*
X178899786Y-80909890D01*
X178727817Y-80784949D01*
X178718504Y-80780204D01*
X178667707Y-80732230D01*
X178650912Y-80664409D01*
X178673449Y-80598274D01*
X178718507Y-80559232D01*
X178727555Y-80554622D01*
X178781716Y-80515270D01*
X178781717Y-80515270D01*
X178149408Y-79882962D01*
X178212993Y-79865925D01*
X178327007Y-79800099D01*
X178420099Y-79707007D01*
X178485925Y-79592993D01*
X178502962Y-79529408D01*
X179135270Y-80161717D01*
X179135270Y-80161716D01*
X179174622Y-80107554D01*
X179271095Y-79918217D01*
X179336757Y-79716130D01*
X179336757Y-79716127D01*
X179370000Y-79506246D01*
X179370000Y-79293753D01*
X179336757Y-79083872D01*
X179336757Y-79083869D01*
X179271095Y-78881782D01*
X179174624Y-78692449D01*
X179135270Y-78638282D01*
X179135269Y-78638282D01*
X178502962Y-79270590D01*
X178485925Y-79207007D01*
X178420099Y-79092993D01*
X178327007Y-78999901D01*
X178212993Y-78934075D01*
X178149409Y-78917037D01*
X178819627Y-78246818D01*
X178880950Y-78213333D01*
X178907307Y-78210499D01*
X178917872Y-78210499D01*
X178977483Y-78204091D01*
X179112331Y-78153796D01*
X179227546Y-78067546D01*
X179313796Y-77952331D01*
X179364091Y-77817483D01*
X179370500Y-77757873D01*
X179370499Y-75962128D01*
X179364091Y-75902517D01*
X179322778Y-75791752D01*
X179313797Y-75767671D01*
X179313793Y-75767664D01*
X179227547Y-75652455D01*
X179227544Y-75652452D01*
X179112335Y-75566206D01*
X179112328Y-75566202D01*
X178977482Y-75515908D01*
X178977483Y-75515908D01*
X178917883Y-75509501D01*
X178917881Y-75509500D01*
X178917873Y-75509500D01*
X178917864Y-75509500D01*
X177122129Y-75509500D01*
X177122123Y-75509501D01*
X177062516Y-75515908D01*
X176927671Y-75566202D01*
X176927664Y-75566206D01*
X176812455Y-75652452D01*
X176812452Y-75652455D01*
X176726206Y-75767664D01*
X176726202Y-75767671D01*
X176675908Y-75902517D01*
X176671058Y-75947635D01*
X176669501Y-75962123D01*
X176669500Y-75962135D01*
X169248778Y-75962135D01*
X169238247Y-75947641D01*
X169238243Y-75947636D01*
X169082363Y-75791756D01*
X169082358Y-75791752D01*
X168942745Y-75690318D01*
X168900079Y-75634989D01*
X168894100Y-75565375D01*
X168926705Y-75503580D01*
X168942745Y-75489682D01*
X169082358Y-75388247D01*
X169082356Y-75388247D01*
X169082365Y-75388242D01*
X169238242Y-75232365D01*
X169367815Y-75054022D01*
X169467895Y-74857606D01*
X169536015Y-74647951D01*
X169570500Y-74430222D01*
X169570500Y-74209778D01*
X169536015Y-73992049D01*
X169483014Y-73828927D01*
X169467896Y-73782396D01*
X169467895Y-73782393D01*
X169427910Y-73703920D01*
X169367815Y-73585978D01*
X169329535Y-73533290D01*
X169238247Y-73407641D01*
X169238243Y-73407636D01*
X169082363Y-73251756D01*
X169082358Y-73251752D01*
X168942319Y-73150008D01*
X168899653Y-73094678D01*
X168893674Y-73025065D01*
X168926279Y-72963270D01*
X168942319Y-72949372D01*
X168967513Y-72931066D01*
X168967514Y-72931066D01*
X168381059Y-72344612D01*
X168401591Y-72339111D01*
X168538408Y-72260119D01*
X168650119Y-72148408D01*
X168729111Y-72011591D01*
X168734612Y-71991059D01*
X169321066Y-72577514D01*
X169321066Y-72577513D01*
X169367386Y-72513760D01*
X169467432Y-72317410D01*
X169535526Y-72107835D01*
X169570000Y-71890181D01*
X169570000Y-71669818D01*
X169535526Y-71452164D01*
X169467432Y-71242589D01*
X169367388Y-71046243D01*
X169321066Y-70982485D01*
X169321065Y-70982485D01*
X168734612Y-71568939D01*
X168729111Y-71548409D01*
X168650119Y-71411592D01*
X168538408Y-71299881D01*
X168401591Y-71220889D01*
X168381057Y-71215387D01*
X168967513Y-70628932D01*
X168942319Y-70610628D01*
X168899653Y-70555298D01*
X168893674Y-70485685D01*
X168926279Y-70423889D01*
X168942313Y-70409994D01*
X169082365Y-70308242D01*
X169238242Y-70152365D01*
X169367815Y-69974022D01*
X169467895Y-69777606D01*
X169536015Y-69567951D01*
X169570500Y-69350222D01*
X169570500Y-69129778D01*
X169536015Y-68912049D01*
X169467895Y-68702394D01*
X169467895Y-68702393D01*
X169433237Y-68634375D01*
X169367815Y-68505978D01*
X169334205Y-68459718D01*
X169238247Y-68327641D01*
X169238243Y-68327636D01*
X169082363Y-68171756D01*
X169082358Y-68171752D01*
X168942745Y-68070318D01*
X168900079Y-68014989D01*
X168894100Y-67945375D01*
X168926705Y-67883580D01*
X168942745Y-67869682D01*
X169082358Y-67768247D01*
X169082356Y-67768247D01*
X169082365Y-67768242D01*
X169238242Y-67612365D01*
X169367815Y-67434022D01*
X169467895Y-67237606D01*
X169536015Y-67027951D01*
X169570500Y-66810222D01*
X169570500Y-66589778D01*
X169536015Y-66372049D01*
X169467895Y-66162394D01*
X169467895Y-66162393D01*
X169423915Y-66076079D01*
X169367815Y-65965978D01*
X169347194Y-65937595D01*
X169238247Y-65787641D01*
X169238243Y-65787636D01*
X169082363Y-65631756D01*
X169082358Y-65631752D01*
X168942319Y-65530008D01*
X168899653Y-65474678D01*
X168893674Y-65405065D01*
X168926279Y-65343270D01*
X168942319Y-65329372D01*
X168967513Y-65311066D01*
X168967514Y-65311066D01*
X168381059Y-64724612D01*
X168401591Y-64719111D01*
X168538408Y-64640119D01*
X168650119Y-64528408D01*
X168729111Y-64391591D01*
X168734612Y-64371060D01*
X169321066Y-64957514D01*
X169321066Y-64957513D01*
X169367386Y-64893760D01*
X169467432Y-64697410D01*
X169535526Y-64487835D01*
X169570000Y-64270181D01*
X169570000Y-64049818D01*
X169535526Y-63832164D01*
X169467432Y-63622589D01*
X169367388Y-63426243D01*
X169321066Y-63362485D01*
X169321065Y-63362485D01*
X168734612Y-63948939D01*
X168729111Y-63928409D01*
X168650119Y-63791592D01*
X168538408Y-63679881D01*
X168401591Y-63600889D01*
X168381057Y-63595387D01*
X168967513Y-63008932D01*
X168942319Y-62990628D01*
X168899653Y-62935298D01*
X168893674Y-62865685D01*
X168926279Y-62803889D01*
X168942313Y-62789994D01*
X169082365Y-62688242D01*
X169238242Y-62532365D01*
X169367815Y-62354022D01*
X169467895Y-62157606D01*
X169536015Y-61947951D01*
X169570500Y-61730222D01*
X169570500Y-61509778D01*
X169536015Y-61292049D01*
X169467895Y-61082394D01*
X169467895Y-61082393D01*
X169414607Y-60977812D01*
X169367815Y-60885978D01*
X169309191Y-60805288D01*
X169238247Y-60707641D01*
X169238243Y-60707636D01*
X169082363Y-60551756D01*
X169082358Y-60551752D01*
X168904025Y-60422187D01*
X168904024Y-60422186D01*
X168904022Y-60422185D01*
X168841096Y-60390122D01*
X168707606Y-60322104D01*
X168707603Y-60322103D01*
X168497952Y-60253985D01*
X168389086Y-60236742D01*
X168280222Y-60219500D01*
X168059778Y-60219500D01*
X167987201Y-60230995D01*
X167842047Y-60253985D01*
X167632396Y-60322103D01*
X167632393Y-60322104D01*
X167435974Y-60422187D01*
X167257641Y-60551752D01*
X167257636Y-60551756D01*
X167101756Y-60707636D01*
X167101752Y-60707641D01*
X166972187Y-60885974D01*
X166872104Y-61082393D01*
X166872103Y-61082396D01*
X166803985Y-61292047D01*
X166775316Y-61473056D01*
X166769500Y-61509778D01*
X166769500Y-61730222D01*
X166781131Y-61803656D01*
X166803985Y-61947952D01*
X166872103Y-62157603D01*
X166872104Y-62157606D01*
X166972187Y-62354025D01*
X167101752Y-62532358D01*
X167101756Y-62532363D01*
X167257640Y-62688247D01*
X167397679Y-62789990D01*
X167440345Y-62845319D01*
X167446324Y-62914933D01*
X167413719Y-62976728D01*
X167397679Y-62990626D01*
X167372485Y-63008930D01*
X167372485Y-63008932D01*
X167958940Y-63595387D01*
X167938409Y-63600889D01*
X167801592Y-63679881D01*
X167689881Y-63791592D01*
X167610889Y-63928409D01*
X167605387Y-63948940D01*
X167018932Y-63362485D01*
X167018930Y-63362485D01*
X167000626Y-63387679D01*
X166945296Y-63430345D01*
X166875683Y-63436324D01*
X166813888Y-63403718D01*
X166799990Y-63387679D01*
X166698247Y-63247640D01*
X166542363Y-63091756D01*
X166542358Y-63091752D01*
X166364025Y-62962187D01*
X166364024Y-62962186D01*
X166364022Y-62962185D01*
X166267186Y-62912844D01*
X166167606Y-62862104D01*
X166167603Y-62862103D01*
X165957952Y-62793985D01*
X165849086Y-62776742D01*
X165740222Y-62759500D01*
X165519778Y-62759500D01*
X165447201Y-62770995D01*
X165302047Y-62793985D01*
X165092396Y-62862103D01*
X165092393Y-62862104D01*
X164895974Y-62962187D01*
X164717641Y-63091752D01*
X164717636Y-63091756D01*
X164561756Y-63247636D01*
X164561752Y-63247641D01*
X164432187Y-63425974D01*
X164332104Y-63622393D01*
X164332103Y-63622396D01*
X164263985Y-63832047D01*
X164229500Y-64049778D01*
X164229500Y-64270221D01*
X164263985Y-64487952D01*
X164332103Y-64697603D01*
X164332104Y-64697606D01*
X164400122Y-64831096D01*
X164426912Y-64883674D01*
X164432187Y-64894025D01*
X164561752Y-65072358D01*
X164561756Y-65072363D01*
X164717636Y-65228243D01*
X164717641Y-65228247D01*
X164856652Y-65329243D01*
X164895978Y-65357815D01*
X165024375Y-65423237D01*
X165092393Y-65457895D01*
X165092396Y-65457896D01*
X165197221Y-65491955D01*
X165302049Y-65526015D01*
X165519778Y-65560500D01*
X165519779Y-65560500D01*
X165740221Y-65560500D01*
X165740222Y-65560500D01*
X165957951Y-65526015D01*
X166167606Y-65457895D01*
X166364022Y-65357815D01*
X166542365Y-65228242D01*
X166698242Y-65072365D01*
X166799991Y-64932317D01*
X166855320Y-64889653D01*
X166924933Y-64883674D01*
X166986729Y-64916279D01*
X167000628Y-64932319D01*
X167018932Y-64957513D01*
X167605387Y-64371058D01*
X167610889Y-64391591D01*
X167689881Y-64528408D01*
X167801592Y-64640119D01*
X167938409Y-64719111D01*
X167958939Y-64724612D01*
X167372485Y-65311065D01*
X167372485Y-65311066D01*
X167397680Y-65329371D01*
X167440346Y-65384701D01*
X167446325Y-65454314D01*
X167413720Y-65516110D01*
X167397681Y-65530008D01*
X167257636Y-65631756D01*
X167101756Y-65787636D01*
X167101752Y-65787641D01*
X166972187Y-65965974D01*
X166872104Y-66162393D01*
X166872103Y-66162396D01*
X166803985Y-66372047D01*
X166769500Y-66589778D01*
X166769500Y-66810221D01*
X166803985Y-67027952D01*
X166872103Y-67237603D01*
X166872104Y-67237606D01*
X166972187Y-67434025D01*
X167101752Y-67612358D01*
X167101756Y-67612363D01*
X167257636Y-67768243D01*
X167257641Y-67768247D01*
X167397254Y-67869682D01*
X167439920Y-67925012D01*
X167445899Y-67994625D01*
X167413293Y-68056420D01*
X167397254Y-68070318D01*
X167257641Y-68171752D01*
X167257636Y-68171756D01*
X167101756Y-68327636D01*
X167101752Y-68327641D01*
X166972187Y-68505974D01*
X166872104Y-68702393D01*
X166872103Y-68702396D01*
X166803985Y-68912047D01*
X166769500Y-69129778D01*
X166769500Y-69350221D01*
X166803985Y-69567952D01*
X166872103Y-69777603D01*
X166872104Y-69777606D01*
X166940122Y-69911096D01*
X166953705Y-69937754D01*
X166972187Y-69974025D01*
X167101752Y-70152358D01*
X167101756Y-70152363D01*
X167257640Y-70308247D01*
X167397679Y-70409990D01*
X167440345Y-70465319D01*
X167446324Y-70534933D01*
X167413719Y-70596728D01*
X167397679Y-70610626D01*
X167372485Y-70628930D01*
X167372485Y-70628932D01*
X167958940Y-71215387D01*
X167938409Y-71220889D01*
X167801592Y-71299881D01*
X167689881Y-71411592D01*
X167610889Y-71548409D01*
X167605387Y-71568940D01*
X167018932Y-70982485D01*
X167018931Y-70982485D01*
X166972616Y-71046233D01*
X166872567Y-71242589D01*
X166804473Y-71452164D01*
X166770000Y-71669818D01*
X166770000Y-71890181D01*
X166804473Y-72107835D01*
X166872567Y-72317410D01*
X166972611Y-72513756D01*
X167018932Y-72577513D01*
X167605387Y-71991058D01*
X167610889Y-72011591D01*
X167689881Y-72148408D01*
X167801592Y-72260119D01*
X167938409Y-72339111D01*
X167958939Y-72344612D01*
X167372485Y-72931065D01*
X167372485Y-72931066D01*
X167397680Y-72949371D01*
X167440346Y-73004701D01*
X167446325Y-73074314D01*
X167413720Y-73136110D01*
X167397681Y-73150008D01*
X167257636Y-73251756D01*
X167101756Y-73407636D01*
X167101752Y-73407641D01*
X166972187Y-73585974D01*
X166872104Y-73782393D01*
X166872103Y-73782396D01*
X166802479Y-73996683D01*
X166800788Y-73996133D01*
X166769776Y-74050096D01*
X166707737Y-74082235D01*
X166638171Y-74075732D01*
X166596348Y-74048204D01*
X164300771Y-71752627D01*
X159220732Y-66672587D01*
X152138102Y-59589957D01*
X152138098Y-59589954D01*
X151994711Y-59494145D01*
X151994698Y-59494138D01*
X151835378Y-59428146D01*
X151835366Y-59428143D01*
X151666232Y-59394500D01*
X151666229Y-59394500D01*
X141296229Y-59394500D01*
X141123771Y-59394500D01*
X141123768Y-59394500D01*
X140954633Y-59428143D01*
X140954621Y-59428146D01*
X140795301Y-59494138D01*
X140795288Y-59494145D01*
X140651901Y-59589954D01*
X140651897Y-59589957D01*
X139919753Y-60322103D01*
X139701901Y-60539955D01*
X139640927Y-60600929D01*
X139579953Y-60661902D01*
X139484145Y-60805288D01*
X139484138Y-60805301D01*
X139418146Y-60964621D01*
X139418143Y-60964633D01*
X139384500Y-61133766D01*
X139384500Y-85176233D01*
X139418143Y-85345366D01*
X139418146Y-85345378D01*
X139484138Y-85504698D01*
X139484145Y-85504711D01*
X139579954Y-85648098D01*
X139579957Y-85648102D01*
X141637807Y-87705951D01*
X141642353Y-87710746D01*
X141647288Y-87716237D01*
X141662561Y-87737940D01*
X141752877Y-87833725D01*
X141753888Y-87834850D01*
X141753995Y-87835073D01*
X141757577Y-87839148D01*
X141814783Y-87908968D01*
X141820832Y-87916993D01*
X141856553Y-87968611D01*
X141862251Y-87977655D01*
X141881125Y-88010686D01*
X141887561Y-88023653D01*
X141946763Y-88162779D01*
X141949345Y-88169359D01*
X141962634Y-88206304D01*
X141965159Y-88213168D01*
X141965285Y-88213503D01*
X141968527Y-88221895D01*
X142066841Y-88469804D01*
X142066850Y-88469825D01*
X142076258Y-88491990D01*
X142076720Y-88493010D01*
X142087358Y-88515065D01*
X142155323Y-88647636D01*
X142163659Y-88663896D01*
X142173320Y-88681839D01*
X142173774Y-88682643D01*
X142181992Y-88696563D01*
X142183700Y-88699456D01*
X142284833Y-88863431D01*
X142288996Y-88870062D01*
X142289044Y-88870137D01*
X142289265Y-88870483D01*
X142327016Y-88922077D01*
X142327019Y-88922079D01*
X142331302Y-88926820D01*
X142331177Y-88926932D01*
X142343247Y-88940336D01*
X142392019Y-89007464D01*
X142532536Y-89147981D01*
X142693306Y-89264787D01*
X142780149Y-89309035D01*
X142870367Y-89355005D01*
X142870370Y-89355006D01*
X142964866Y-89385709D01*
X143059364Y-89416413D01*
X143255639Y-89447500D01*
X143255640Y-89447500D01*
X143454360Y-89447500D01*
X143454361Y-89447500D01*
X143650636Y-89416413D01*
X143839632Y-89355005D01*
X144016694Y-89264787D01*
X144177464Y-89147981D01*
X144317981Y-89007464D01*
X144434787Y-88846694D01*
X144525005Y-88669632D01*
X144586413Y-88480636D01*
X144617500Y-88284361D01*
X144617500Y-88085639D01*
X144586413Y-87889364D01*
X144533925Y-87727820D01*
X144525006Y-87700370D01*
X144525005Y-87700367D01*
X144434786Y-87523305D01*
X144317981Y-87362536D01*
X144177464Y-87222019D01*
X144061789Y-87137976D01*
X144036967Y-87116921D01*
X143908934Y-87036530D01*
X143902344Y-87032534D01*
X143900218Y-87031123D01*
X143879293Y-87006244D01*
X143857370Y-86982237D01*
X143856930Y-86979656D01*
X143855244Y-86977652D01*
X143851090Y-86945403D01*
X143845628Y-86913361D01*
X143846653Y-86910951D01*
X143846319Y-86908355D01*
X143860259Y-86878980D01*
X143872988Y-86849071D01*
X143875357Y-86847166D01*
X143876275Y-86845233D01*
X143882856Y-86841138D01*
X143912490Y-86817320D01*
X144016422Y-86764364D01*
X144053715Y-86737268D01*
X143382446Y-86066000D01*
X143405160Y-86066000D01*
X143502061Y-86040036D01*
X143588940Y-85989876D01*
X143659876Y-85918940D01*
X143710036Y-85832061D01*
X143736000Y-85735160D01*
X143736000Y-85712447D01*
X144407268Y-86383715D01*
X144434362Y-86346425D01*
X144524542Y-86169437D01*
X144585924Y-85980523D01*
X144585924Y-85980520D01*
X144617000Y-85784321D01*
X144617000Y-85585678D01*
X144585924Y-85389479D01*
X144585924Y-85389476D01*
X144524542Y-85200562D01*
X144434358Y-85023567D01*
X144407268Y-84986283D01*
X143736000Y-85657551D01*
X143736000Y-85634840D01*
X143710036Y-85537939D01*
X143659876Y-85451060D01*
X143588940Y-85380124D01*
X143502061Y-85329964D01*
X143405160Y-85304000D01*
X143382447Y-85304000D01*
X144053716Y-84632731D01*
X144053715Y-84632730D01*
X144016432Y-84605641D01*
X143927762Y-84560461D01*
X143876966Y-84512486D01*
X143860171Y-84444665D01*
X143882709Y-84378530D01*
X143936572Y-84335428D01*
X143960829Y-84325373D01*
X144156291Y-84237545D01*
X144187447Y-84222239D01*
X144188861Y-84221483D01*
X144218975Y-84204024D01*
X144402662Y-84088898D01*
X144407545Y-84085798D01*
X144507908Y-84021282D01*
X144521312Y-84013797D01*
X144596041Y-83977956D01*
X144612228Y-83971549D01*
X144628879Y-83966279D01*
X144640801Y-83963149D01*
X144683816Y-83954120D01*
X144695040Y-83952298D01*
X144759582Y-83944851D01*
X144769479Y-83944109D01*
X144870655Y-83940587D01*
X144915851Y-83936979D01*
X144915855Y-83936977D01*
X144921654Y-83936515D01*
X144921666Y-83936666D01*
X144935071Y-83935500D01*
X149218920Y-83935500D01*
X149316462Y-83916096D01*
X149363913Y-83906658D01*
X149500495Y-83850084D01*
X149549729Y-83817186D01*
X149623416Y-83767952D01*
X151331664Y-82059702D01*
X151392985Y-82026219D01*
X151462676Y-82031203D01*
X151518610Y-82073075D01*
X151541816Y-82127987D01*
X151563984Y-82267952D01*
X151632103Y-82477603D01*
X151632104Y-82477606D01*
X151700122Y-82611096D01*
X151718834Y-82647820D01*
X151732187Y-82674025D01*
X151861752Y-82852358D01*
X151861756Y-82852363D01*
X152017636Y-83008243D01*
X152017641Y-83008247D01*
X152157254Y-83109682D01*
X152199920Y-83165012D01*
X152205899Y-83234625D01*
X152173293Y-83296420D01*
X152157254Y-83310318D01*
X152017641Y-83411752D01*
X152017636Y-83411756D01*
X151861756Y-83567636D01*
X151861752Y-83567641D01*
X151732187Y-83745974D01*
X151632104Y-83942393D01*
X151632103Y-83942396D01*
X151563985Y-84152047D01*
X151534737Y-84336712D01*
X151529500Y-84369778D01*
X151529500Y-84590222D01*
X151536233Y-84632730D01*
X151563985Y-84807952D01*
X151632103Y-85017603D01*
X151632104Y-85017606D01*
X151700122Y-85151096D01*
X151718834Y-85187820D01*
X151732187Y-85214025D01*
X151861752Y-85392358D01*
X151861756Y-85392363D01*
X152017636Y-85548243D01*
X152017641Y-85548247D01*
X152157254Y-85649682D01*
X152199920Y-85705012D01*
X152205899Y-85774625D01*
X152173293Y-85836420D01*
X152157254Y-85850318D01*
X152017641Y-85951752D01*
X152017636Y-85951756D01*
X151861756Y-86107636D01*
X151861752Y-86107641D01*
X151732187Y-86285974D01*
X151632104Y-86482393D01*
X151632103Y-86482396D01*
X151563985Y-86692047D01*
X151529500Y-86909778D01*
X151529500Y-87130221D01*
X151563985Y-87347952D01*
X151632103Y-87557603D01*
X151632104Y-87557606D01*
X151700122Y-87691096D01*
X151718834Y-87727820D01*
X151732187Y-87754025D01*
X151861752Y-87932358D01*
X151861756Y-87932363D01*
X152017636Y-88088243D01*
X152017641Y-88088247D01*
X152157254Y-88189682D01*
X152199920Y-88245012D01*
X152205899Y-88314625D01*
X152173293Y-88376420D01*
X152157254Y-88390318D01*
X152017641Y-88491752D01*
X152017636Y-88491756D01*
X151861756Y-88647636D01*
X151861752Y-88647641D01*
X151732187Y-88825974D01*
X151632104Y-89022393D01*
X151632103Y-89022396D01*
X151563985Y-89232047D01*
X151529500Y-89449778D01*
X151529500Y-89670221D01*
X151563985Y-89887952D01*
X151632103Y-90097603D01*
X151632104Y-90097606D01*
X151700122Y-90231096D01*
X151718834Y-90267820D01*
X151732187Y-90294025D01*
X151861752Y-90472358D01*
X151861756Y-90472363D01*
X152017636Y-90628243D01*
X152017641Y-90628247D01*
X152157254Y-90729682D01*
X152199920Y-90785012D01*
X152205899Y-90854625D01*
X152173293Y-90916420D01*
X152157254Y-90930318D01*
X152017641Y-91031752D01*
X152017636Y-91031756D01*
X151861756Y-91187636D01*
X151861752Y-91187641D01*
X151732187Y-91365974D01*
X151632104Y-91562393D01*
X151632103Y-91562396D01*
X151563985Y-91772047D01*
X151563985Y-91772049D01*
X151529500Y-91989778D01*
X151529500Y-92210222D01*
X151534566Y-92242206D01*
X151563985Y-92427952D01*
X151632103Y-92637603D01*
X151632104Y-92637606D01*
X151732187Y-92834025D01*
X151861752Y-93012358D01*
X151861756Y-93012363D01*
X152017636Y-93168243D01*
X152017641Y-93168247D01*
X152157254Y-93269682D01*
X152199920Y-93325012D01*
X152205899Y-93394625D01*
X152173293Y-93456420D01*
X152157254Y-93470318D01*
X152017641Y-93571752D01*
X152017636Y-93571756D01*
X151861756Y-93727636D01*
X151861752Y-93727641D01*
X151732187Y-93905974D01*
X151632104Y-94102393D01*
X151632103Y-94102396D01*
X151563985Y-94312047D01*
X151529500Y-94529778D01*
X151529500Y-94750221D01*
X151563985Y-94967952D01*
X151632103Y-95177603D01*
X151632104Y-95177606D01*
X151732187Y-95374025D01*
X151861752Y-95552358D01*
X151861756Y-95552363D01*
X152017636Y-95708243D01*
X152017641Y-95708247D01*
X152157254Y-95809682D01*
X152199920Y-95865012D01*
X152205899Y-95934625D01*
X152173293Y-95996420D01*
X152157254Y-96010318D01*
X152017641Y-96111752D01*
X152017636Y-96111756D01*
X151861756Y-96267636D01*
X151861752Y-96267641D01*
X151732187Y-96445974D01*
X151632104Y-96642393D01*
X151632103Y-96642396D01*
X151563985Y-96852047D01*
X151529500Y-97069778D01*
X151529500Y-97290221D01*
X151563985Y-97507952D01*
X151632103Y-97717603D01*
X151632104Y-97717606D01*
X151732187Y-97914025D01*
X151861752Y-98092358D01*
X151861756Y-98092363D01*
X152017636Y-98248243D01*
X152017641Y-98248247D01*
X152157254Y-98349682D01*
X152199920Y-98405012D01*
X152205899Y-98474625D01*
X152173293Y-98536420D01*
X152157254Y-98550318D01*
X152017641Y-98651752D01*
X152017636Y-98651756D01*
X151861756Y-98807636D01*
X151861752Y-98807641D01*
X151732187Y-98985974D01*
X151632104Y-99182393D01*
X151632103Y-99182396D01*
X151563985Y-99392047D01*
X151529500Y-99609778D01*
X151529500Y-99830221D01*
X151563985Y-100047952D01*
X151632103Y-100257603D01*
X151632104Y-100257606D01*
X151732187Y-100454025D01*
X151861752Y-100632358D01*
X151861756Y-100632363D01*
X152017636Y-100788243D01*
X152017641Y-100788247D01*
X152157254Y-100889682D01*
X152199920Y-100945012D01*
X152205899Y-101014625D01*
X152173293Y-101076420D01*
X152157254Y-101090318D01*
X152017641Y-101191752D01*
X152017636Y-101191756D01*
X151861756Y-101347636D01*
X151861752Y-101347641D01*
X151732187Y-101525974D01*
X151632104Y-101722393D01*
X151632103Y-101722396D01*
X151563985Y-101932047D01*
X151529500Y-102149778D01*
X151529500Y-102370221D01*
X151563985Y-102587952D01*
X151632103Y-102797603D01*
X151632104Y-102797606D01*
X151732187Y-102994025D01*
X151861752Y-103172358D01*
X151861756Y-103172363D01*
X152017636Y-103328243D01*
X152017641Y-103328247D01*
X152157254Y-103429682D01*
X152199920Y-103485012D01*
X152205899Y-103554625D01*
X152173293Y-103616420D01*
X152157254Y-103630318D01*
X152017641Y-103731752D01*
X152017636Y-103731756D01*
X151861756Y-103887636D01*
X151861752Y-103887641D01*
X151732187Y-104065974D01*
X151632104Y-104262393D01*
X151632103Y-104262396D01*
X151563985Y-104472047D01*
X151529500Y-104689778D01*
X151529500Y-104910221D01*
X151563985Y-105127952D01*
X151632103Y-105337603D01*
X151632104Y-105337606D01*
X151732187Y-105534025D01*
X151861752Y-105712358D01*
X151861756Y-105712363D01*
X152017636Y-105868243D01*
X152017641Y-105868247D01*
X152173192Y-105981260D01*
X152195978Y-105997815D01*
X152324375Y-106063237D01*
X152392393Y-106097895D01*
X152392396Y-106097896D01*
X152497221Y-106131955D01*
X152602049Y-106166015D01*
X152819778Y-106200500D01*
X152819779Y-106200500D01*
X153040221Y-106200500D01*
X153040222Y-106200500D01*
X153257951Y-106166015D01*
X153467606Y-106097895D01*
X153664022Y-105997815D01*
X153842365Y-105868242D01*
X153998242Y-105712365D01*
X154127815Y-105534022D01*
X154227895Y-105337606D01*
X154296015Y-105127951D01*
X154330500Y-104910222D01*
X154330500Y-104689778D01*
X154296015Y-104472049D01*
X154227895Y-104262394D01*
X154227895Y-104262393D01*
X154193237Y-104194375D01*
X154127815Y-104065978D01*
X154072196Y-103989424D01*
X153998247Y-103887641D01*
X153998243Y-103887636D01*
X153842363Y-103731756D01*
X153842358Y-103731752D01*
X153702745Y-103630318D01*
X153660079Y-103574989D01*
X153654100Y-103505375D01*
X153686705Y-103443580D01*
X153702745Y-103429682D01*
X153842358Y-103328247D01*
X153842356Y-103328247D01*
X153842365Y-103328242D01*
X153998242Y-103172365D01*
X154127815Y-102994022D01*
X154227895Y-102797606D01*
X154296015Y-102587951D01*
X154330500Y-102370222D01*
X154330500Y-102149778D01*
X154296015Y-101932049D01*
X154227895Y-101722394D01*
X154227895Y-101722393D01*
X154193237Y-101654375D01*
X154127815Y-101525978D01*
X154111260Y-101503192D01*
X153998247Y-101347641D01*
X153998243Y-101347636D01*
X153842363Y-101191756D01*
X153842358Y-101191752D01*
X153702745Y-101090318D01*
X153660079Y-101034989D01*
X153654100Y-100965375D01*
X153686705Y-100903580D01*
X153702745Y-100889682D01*
X153842358Y-100788247D01*
X153842356Y-100788247D01*
X153842365Y-100788242D01*
X153998242Y-100632365D01*
X154127815Y-100454022D01*
X154227895Y-100257606D01*
X154296015Y-100047951D01*
X154330500Y-99830222D01*
X154330500Y-99609778D01*
X154296015Y-99392049D01*
X154227895Y-99182394D01*
X154227895Y-99182393D01*
X154193237Y-99114375D01*
X154127815Y-98985978D01*
X154018134Y-98835014D01*
X153998247Y-98807641D01*
X153998243Y-98807636D01*
X153842363Y-98651756D01*
X153842358Y-98651752D01*
X153702745Y-98550318D01*
X153686877Y-98529740D01*
X153668110Y-98511769D01*
X153665887Y-98502521D01*
X153660079Y-98494989D01*
X153657855Y-98469101D01*
X153651783Y-98443834D01*
X153654913Y-98434850D01*
X153654100Y-98425375D01*
X153666224Y-98402395D01*
X153674777Y-98377856D01*
X153684159Y-98368404D01*
X153686705Y-98363580D01*
X153699188Y-98352365D01*
X153700951Y-98350984D01*
X153842365Y-98248242D01*
X153879107Y-98211499D01*
X153885027Y-98206865D01*
X153910785Y-98196616D01*
X153935111Y-98183334D01*
X153947526Y-98181999D01*
X153949947Y-98181036D01*
X153952270Y-98181489D01*
X153961469Y-98180500D01*
X154094218Y-98180500D01*
X154161257Y-98200185D01*
X154181899Y-98216819D01*
X156833181Y-100868101D01*
X156866666Y-100929424D01*
X156869500Y-100955782D01*
X156869500Y-120444217D01*
X156849815Y-120511256D01*
X156833181Y-120531898D01*
X149690756Y-127674322D01*
X149629433Y-127707807D01*
X149559741Y-127702823D01*
X149503808Y-127660951D01*
X149485144Y-127624959D01*
X149451557Y-127521588D01*
X149355051Y-127332184D01*
X149355049Y-127332181D01*
X149355048Y-127332179D01*
X149230109Y-127160213D01*
X149079786Y-127009890D01*
X148907820Y-126884951D01*
X148907115Y-126884591D01*
X148899054Y-126880485D01*
X148848259Y-126832512D01*
X148831463Y-126764692D01*
X148853999Y-126698556D01*
X148899054Y-126659515D01*
X148907816Y-126655051D01*
X149047589Y-126553501D01*
X149079786Y-126530109D01*
X149079788Y-126530106D01*
X149079792Y-126530104D01*
X149230104Y-126379792D01*
X149230106Y-126379788D01*
X149230109Y-126379786D01*
X149355048Y-126207820D01*
X149355047Y-126207820D01*
X149355051Y-126207816D01*
X149451557Y-126018412D01*
X149517246Y-125816243D01*
X149550500Y-125606287D01*
X149550500Y-125393713D01*
X149517246Y-125183757D01*
X149451557Y-124981588D01*
X149355051Y-124792184D01*
X149355049Y-124792181D01*
X149355048Y-124792179D01*
X149230109Y-124620213D01*
X149079786Y-124469890D01*
X148907820Y-124344951D01*
X148907115Y-124344591D01*
X148899054Y-124340485D01*
X148848259Y-124292512D01*
X148831463Y-124224692D01*
X148853999Y-124158556D01*
X148899054Y-124119515D01*
X148907816Y-124115051D01*
X148929789Y-124099086D01*
X149079786Y-123990109D01*
X149079788Y-123990106D01*
X149079792Y-123990104D01*
X149230104Y-123839792D01*
X149230106Y-123839788D01*
X149230109Y-123839786D01*
X149355048Y-123667820D01*
X149355047Y-123667820D01*
X149355051Y-123667816D01*
X149451557Y-123478412D01*
X149517246Y-123276243D01*
X149550500Y-123066287D01*
X149550500Y-122853713D01*
X149517246Y-122643757D01*
X149451557Y-122441588D01*
X149355051Y-122252184D01*
X149355049Y-122252181D01*
X149355048Y-122252179D01*
X149230109Y-122080213D01*
X149079786Y-121929890D01*
X148907817Y-121804949D01*
X148898504Y-121800204D01*
X148847707Y-121752230D01*
X148830912Y-121684409D01*
X148853449Y-121618274D01*
X148898507Y-121579232D01*
X148907555Y-121574622D01*
X148961716Y-121535270D01*
X148961717Y-121535270D01*
X148329408Y-120902962D01*
X148392993Y-120885925D01*
X148507007Y-120820099D01*
X148600099Y-120727007D01*
X148665925Y-120612993D01*
X148682962Y-120549408D01*
X149315270Y-121181717D01*
X149315270Y-121181716D01*
X149354622Y-121127554D01*
X149451095Y-120938217D01*
X149516757Y-120736130D01*
X149516757Y-120736127D01*
X149550000Y-120526246D01*
X149550000Y-120313753D01*
X149516757Y-120103872D01*
X149516757Y-120103869D01*
X149451095Y-119901782D01*
X149354624Y-119712449D01*
X149315270Y-119658282D01*
X149315269Y-119658282D01*
X148682962Y-120290590D01*
X148665925Y-120227007D01*
X148600099Y-120112993D01*
X148507007Y-120019901D01*
X148392993Y-119954075D01*
X148329409Y-119937037D01*
X148999627Y-119266818D01*
X149060950Y-119233333D01*
X149087307Y-119230499D01*
X149097872Y-119230499D01*
X149157483Y-119224091D01*
X149292331Y-119173796D01*
X149407546Y-119087546D01*
X149493796Y-118972331D01*
X149544091Y-118837483D01*
X149550500Y-118777873D01*
X149550499Y-116982128D01*
X149544091Y-116922517D01*
X149531061Y-116887583D01*
X149493797Y-116787671D01*
X149493793Y-116787664D01*
X149407547Y-116672455D01*
X149407544Y-116672452D01*
X149292335Y-116586206D01*
X149292328Y-116586202D01*
X149157482Y-116535908D01*
X149157483Y-116535908D01*
X149097883Y-116529501D01*
X149097881Y-116529500D01*
X149097873Y-116529500D01*
X149097864Y-116529500D01*
X147302129Y-116529500D01*
X147302123Y-116529501D01*
X147242516Y-116535908D01*
X147107671Y-116586202D01*
X147107664Y-116586206D01*
X146992455Y-116672452D01*
X146992452Y-116672455D01*
X146906206Y-116787664D01*
X146906202Y-116787671D01*
X146855908Y-116922517D01*
X146850621Y-116971697D01*
X146849501Y-116982123D01*
X146849500Y-116982135D01*
X146849500Y-118777870D01*
X146849501Y-118777876D01*
X146855908Y-118837483D01*
X146906202Y-118972328D01*
X146906206Y-118972335D01*
X146992452Y-119087544D01*
X146992455Y-119087547D01*
X147107664Y-119173793D01*
X147107671Y-119173797D01*
X147152618Y-119190561D01*
X147242517Y-119224091D01*
X147302127Y-119230500D01*
X147312685Y-119230499D01*
X147379723Y-119250179D01*
X147400372Y-119266818D01*
X148070591Y-119937037D01*
X148007007Y-119954075D01*
X147892993Y-120019901D01*
X147799901Y-120112993D01*
X147734075Y-120227007D01*
X147717037Y-120290591D01*
X147084728Y-119658282D01*
X147084727Y-119658282D01*
X147045380Y-119712439D01*
X146948904Y-119901782D01*
X146883242Y-120103869D01*
X146883242Y-120103872D01*
X146850000Y-120313753D01*
X146850000Y-120526246D01*
X146883242Y-120736127D01*
X146883242Y-120736130D01*
X146948904Y-120938217D01*
X147045375Y-121127550D01*
X147084728Y-121181716D01*
X147717037Y-120549408D01*
X147734075Y-120612993D01*
X147799901Y-120727007D01*
X147892993Y-120820099D01*
X148007007Y-120885925D01*
X148070590Y-120902962D01*
X147438282Y-121535269D01*
X147438282Y-121535270D01*
X147492452Y-121574626D01*
X147492451Y-121574626D01*
X147501495Y-121579234D01*
X147552292Y-121627208D01*
X147569087Y-121695029D01*
X147546550Y-121761164D01*
X147501499Y-121800202D01*
X147492182Y-121804949D01*
X147320213Y-121929890D01*
X147169890Y-122080213D01*
X147044951Y-122252179D01*
X146948444Y-122441585D01*
X146882753Y-122643760D01*
X146849500Y-122853713D01*
X146849500Y-123066286D01*
X146878623Y-123250166D01*
X146882754Y-123276243D01*
X146941560Y-123457229D01*
X146948444Y-123478414D01*
X147044951Y-123667820D01*
X147169890Y-123839786D01*
X147320213Y-123990109D01*
X147492182Y-124115050D01*
X147500946Y-124119516D01*
X147551742Y-124167491D01*
X147568536Y-124235312D01*
X147545998Y-124301447D01*
X147500946Y-124340484D01*
X147492182Y-124344949D01*
X147320213Y-124469890D01*
X147169890Y-124620213D01*
X147044951Y-124792179D01*
X146948444Y-124981585D01*
X146882753Y-125183760D01*
X146849500Y-125393713D01*
X146849500Y-125606286D01*
X146882753Y-125816239D01*
X146948444Y-126018414D01*
X147044951Y-126207820D01*
X147169890Y-126379786D01*
X147320213Y-126530109D01*
X147492182Y-126655050D01*
X147500946Y-126659516D01*
X147551742Y-126707491D01*
X147568536Y-126775312D01*
X147545998Y-126841447D01*
X147500946Y-126880484D01*
X147492182Y-126884949D01*
X147320213Y-127009890D01*
X147169892Y-127160211D01*
X147113097Y-127238385D01*
X147057767Y-127281051D01*
X147012779Y-127289500D01*
X123346076Y-127289500D01*
X123317242Y-127295234D01*
X123317243Y-127295235D01*
X123201092Y-127318339D01*
X123201086Y-127318341D01*
X123167668Y-127332184D01*
X123064506Y-127374914D01*
X122982372Y-127429795D01*
X122941585Y-127457047D01*
X122941581Y-127457050D01*
X114248806Y-136149824D01*
X114187483Y-136183309D01*
X114141726Y-136184616D01*
X114046291Y-136169500D01*
X114046287Y-136169500D01*
X113833713Y-136169500D01*
X113785042Y-136177208D01*
X113623760Y-136202753D01*
X113421585Y-136268444D01*
X113232179Y-136364951D01*
X113060213Y-136489890D01*
X112909890Y-136640213D01*
X112784949Y-136812182D01*
X112780484Y-136820946D01*
X112732509Y-136871742D01*
X112664688Y-136888536D01*
X112598553Y-136865998D01*
X112559516Y-136820946D01*
X112555050Y-136812182D01*
X112430109Y-136640213D01*
X112279786Y-136489890D01*
X112107820Y-136364951D01*
X111918414Y-136268444D01*
X111918413Y-136268443D01*
X111918412Y-136268443D01*
X111716243Y-136202754D01*
X111716241Y-136202753D01*
X111716240Y-136202753D01*
X111554957Y-136177208D01*
X111506287Y-136169500D01*
X111293713Y-136169500D01*
X111245042Y-136177208D01*
X111083760Y-136202753D01*
X110881585Y-136268444D01*
X110692179Y-136364951D01*
X110520213Y-136489890D01*
X110369890Y-136640213D01*
X110244949Y-136812182D01*
X110240202Y-136821499D01*
X110192227Y-136872293D01*
X110124405Y-136889087D01*
X110058271Y-136866548D01*
X110019234Y-136821495D01*
X110014626Y-136812452D01*
X109975270Y-136758282D01*
X109975269Y-136758282D01*
X109342962Y-137390590D01*
X109325925Y-137327007D01*
X109260099Y-137212993D01*
X109167007Y-137119901D01*
X109052993Y-137054075D01*
X108989409Y-137037037D01*
X109621716Y-136404728D01*
X109567550Y-136365375D01*
X109378217Y-136268904D01*
X109176129Y-136203242D01*
X108966246Y-136170000D01*
X108753754Y-136170000D01*
X108543872Y-136203242D01*
X108543869Y-136203242D01*
X108341782Y-136268904D01*
X108152439Y-136365380D01*
X108098282Y-136404727D01*
X108098282Y-136404728D01*
X108730591Y-137037037D01*
X108667007Y-137054075D01*
X108552993Y-137119901D01*
X108459901Y-137212993D01*
X108394075Y-137327007D01*
X108377037Y-137390591D01*
X107744728Y-136758282D01*
X107744727Y-136758282D01*
X107705380Y-136812439D01*
X107608904Y-137001782D01*
X107543242Y-137203869D01*
X107543242Y-137203872D01*
X107510000Y-137413753D01*
X100041831Y-137413753D01*
X100006263Y-137288750D01*
X99953537Y-137103442D01*
X99921211Y-137020000D01*
X99908374Y-136986863D01*
X99900000Y-136942069D01*
X99900000Y-124000979D01*
X99908373Y-123956185D01*
X99953501Y-123839697D01*
X100062321Y-123457227D01*
X100135387Y-123066349D01*
X100172075Y-122670396D01*
X100172073Y-122471571D01*
X100172073Y-122423976D01*
X100172072Y-122423975D01*
X100172071Y-116862617D01*
X104130000Y-116862617D01*
X104130000Y-117059382D01*
X104160778Y-117253705D01*
X104221581Y-117440835D01*
X104310905Y-117616145D01*
X104336319Y-117651125D01*
X104336320Y-117651125D01*
X104942352Y-117045093D01*
X104965792Y-117132571D01*
X105024311Y-117233930D01*
X105107070Y-117316689D01*
X105208429Y-117375208D01*
X105295904Y-117398647D01*
X104689873Y-118004677D01*
X104689873Y-118004678D01*
X104724858Y-118030096D01*
X104900164Y-118119418D01*
X105087294Y-118180221D01*
X105281618Y-118211000D01*
X105478382Y-118211000D01*
X105672705Y-118180221D01*
X105859838Y-118119417D01*
X106005042Y-118045433D01*
X106005044Y-118045432D01*
X106035142Y-118030096D01*
X106116359Y-117971087D01*
X107042352Y-117045095D01*
X107065792Y-117132571D01*
X107124311Y-117233930D01*
X107207070Y-117316689D01*
X107308429Y-117375208D01*
X107395904Y-117398647D01*
X106598829Y-118195720D01*
X106598829Y-118195722D01*
X106622622Y-118204597D01*
X106622623Y-118204598D01*
X106682155Y-118210999D01*
X106682172Y-118211000D01*
X108277828Y-118211000D01*
X108277844Y-118210999D01*
X108337372Y-118204598D01*
X108361169Y-118195721D01*
X107564095Y-117398647D01*
X107651571Y-117375208D01*
X107752930Y-117316689D01*
X107835689Y-117233930D01*
X107894208Y-117132571D01*
X107917647Y-117045095D01*
X108714721Y-117842169D01*
X108723598Y-117818372D01*
X108729999Y-117758844D01*
X108730000Y-117758827D01*
X108730000Y-116887577D01*
X117204500Y-116887577D01*
X117204500Y-117084422D01*
X117235290Y-117278826D01*
X117296117Y-117466029D01*
X117372605Y-117616145D01*
X117385476Y-117641405D01*
X117501172Y-117800646D01*
X117640354Y-117939828D01*
X117799595Y-118055524D01*
X117874214Y-118093544D01*
X117974970Y-118144882D01*
X117974972Y-118144882D01*
X117974975Y-118144884D01*
X118075317Y-118177487D01*
X118162173Y-118205709D01*
X118356578Y-118236500D01*
X118356583Y-118236500D01*
X118553422Y-118236500D01*
X118747826Y-118205709D01*
X118751248Y-118204597D01*
X118935025Y-118144884D01*
X119110405Y-118055524D01*
X119211384Y-117982157D01*
X119277190Y-117958677D01*
X119345244Y-117974502D01*
X119383536Y-118008163D01*
X119447455Y-118093547D01*
X119562664Y-118179793D01*
X119562671Y-118179797D01*
X119697517Y-118230091D01*
X119697516Y-118230091D01*
X119704444Y-118230835D01*
X119757127Y-118236500D01*
X121352872Y-118236499D01*
X121412483Y-118230091D01*
X121547331Y-118179796D01*
X121662546Y-118093546D01*
X121748796Y-117978331D01*
X121799091Y-117843483D01*
X121805500Y-117783873D01*
X121805499Y-116188128D01*
X121799091Y-116128517D01*
X121780806Y-116079493D01*
X121748797Y-115993671D01*
X121748793Y-115993664D01*
X121662547Y-115878455D01*
X121662544Y-115878452D01*
X121547335Y-115792206D01*
X121547328Y-115792202D01*
X121412482Y-115741908D01*
X121412483Y-115741908D01*
X121352883Y-115735501D01*
X121352881Y-115735500D01*
X121352873Y-115735500D01*
X121352864Y-115735500D01*
X119757129Y-115735500D01*
X119757123Y-115735501D01*
X119697516Y-115741908D01*
X119562671Y-115792202D01*
X119562664Y-115792206D01*
X119447455Y-115878452D01*
X119383536Y-115963836D01*
X119327602Y-116005706D01*
X119257910Y-116010690D01*
X119211384Y-115989842D01*
X119110405Y-115916476D01*
X118935029Y-115827117D01*
X118747826Y-115766290D01*
X118553422Y-115735500D01*
X118553417Y-115735500D01*
X118356583Y-115735500D01*
X118356578Y-115735500D01*
X118162173Y-115766290D01*
X117974970Y-115827117D01*
X117799594Y-115916476D01*
X117734410Y-115963836D01*
X117640354Y-116032172D01*
X117640352Y-116032174D01*
X117640351Y-116032174D01*
X117501174Y-116171351D01*
X117501174Y-116171352D01*
X117501172Y-116171354D01*
X117451485Y-116239741D01*
X117385476Y-116330594D01*
X117296117Y-116505970D01*
X117235290Y-116693173D01*
X117204500Y-116887577D01*
X108730000Y-116887577D01*
X108730000Y-116163172D01*
X108729999Y-116163155D01*
X108723598Y-116103623D01*
X108723597Y-116103622D01*
X108714722Y-116079829D01*
X108714720Y-116079829D01*
X107917646Y-116876903D01*
X107894208Y-116789429D01*
X107835689Y-116688070D01*
X107752930Y-116605311D01*
X107651571Y-116546792D01*
X107564095Y-116523353D01*
X108361170Y-115726277D01*
X108361170Y-115726276D01*
X108337375Y-115717401D01*
X108277844Y-115711000D01*
X106682155Y-115711000D01*
X106622627Y-115717401D01*
X106622623Y-115717402D01*
X106598829Y-115726277D01*
X107395904Y-116523352D01*
X107308429Y-116546792D01*
X107207070Y-116605311D01*
X107124311Y-116688070D01*
X107065792Y-116789429D01*
X107042352Y-116876904D01*
X106116361Y-115950913D01*
X106035143Y-115891904D01*
X106005040Y-115876566D01*
X105859835Y-115802581D01*
X105672705Y-115741778D01*
X105478382Y-115711000D01*
X105281618Y-115711000D01*
X105087294Y-115741778D01*
X104900161Y-115802582D01*
X104724863Y-115891899D01*
X104724859Y-115891902D01*
X104689873Y-115917320D01*
X104689872Y-115917320D01*
X105295905Y-116523352D01*
X105208429Y-116546792D01*
X105107070Y-116605311D01*
X105024311Y-116688070D01*
X104965792Y-116789429D01*
X104942352Y-116876905D01*
X104336320Y-116270872D01*
X104336320Y-116270873D01*
X104310902Y-116305859D01*
X104310899Y-116305863D01*
X104221582Y-116481161D01*
X104160778Y-116668294D01*
X104130000Y-116862617D01*
X100172071Y-116862617D01*
X100172071Y-115319254D01*
X126491400Y-115319254D01*
X126491400Y-115577957D01*
X126525334Y-115792206D01*
X126531868Y-115833460D01*
X126572209Y-115957617D01*
X126611810Y-116079493D01*
X126667160Y-116188123D01*
X126729253Y-116309988D01*
X126881308Y-116519274D01*
X127064232Y-116702198D01*
X127273518Y-116854253D01*
X127504015Y-116971697D01*
X127750046Y-117051638D01*
X127845861Y-117066813D01*
X128005549Y-117092106D01*
X128005554Y-117092106D01*
X128264251Y-117092106D01*
X128406194Y-117069623D01*
X128519754Y-117051638D01*
X128765785Y-116971697D01*
X128996282Y-116854253D01*
X129205568Y-116702198D01*
X129388492Y-116519274D01*
X129540547Y-116309988D01*
X129657991Y-116079491D01*
X129737932Y-115833460D01*
X129757328Y-115711000D01*
X129778400Y-115577957D01*
X129778400Y-115344248D01*
X133158900Y-115344248D01*
X133158900Y-115552963D01*
X133191550Y-115759112D01*
X133256049Y-115957617D01*
X133350803Y-116143581D01*
X133473484Y-116312437D01*
X133621069Y-116460022D01*
X133789925Y-116582703D01*
X133834296Y-116605311D01*
X133975888Y-116677456D01*
X133975890Y-116677456D01*
X133975893Y-116677458D01*
X134052026Y-116702195D01*
X134174393Y-116741955D01*
X134274845Y-116757865D01*
X134380542Y-116774606D01*
X134380543Y-116774606D01*
X134589257Y-116774606D01*
X134589258Y-116774606D01*
X134795406Y-116741955D01*
X134993907Y-116677458D01*
X135179875Y-116582703D01*
X135348731Y-116460022D01*
X135496316Y-116312437D01*
X135618997Y-116143581D01*
X135713752Y-115957613D01*
X135778249Y-115759112D01*
X135810900Y-115552964D01*
X135810900Y-115344248D01*
X135806941Y-115319254D01*
X139191400Y-115319254D01*
X139191400Y-115577957D01*
X139225334Y-115792206D01*
X139231868Y-115833460D01*
X139272209Y-115957617D01*
X139311810Y-116079493D01*
X139367160Y-116188123D01*
X139429253Y-116309988D01*
X139581308Y-116519274D01*
X139764232Y-116702198D01*
X139973518Y-116854253D01*
X140204015Y-116971697D01*
X140450046Y-117051638D01*
X140545861Y-117066813D01*
X140705549Y-117092106D01*
X140705554Y-117092106D01*
X140964251Y-117092106D01*
X141106194Y-117069623D01*
X141219754Y-117051638D01*
X141465785Y-116971697D01*
X141696282Y-116854253D01*
X141905568Y-116702198D01*
X142088492Y-116519274D01*
X142240547Y-116309988D01*
X142357991Y-116079491D01*
X142437932Y-115833460D01*
X142457328Y-115711000D01*
X142478400Y-115577957D01*
X142478400Y-115319254D01*
X142437932Y-115063755D01*
X142437932Y-115063752D01*
X142357991Y-114817721D01*
X142240547Y-114587224D01*
X142088492Y-114377938D01*
X141905568Y-114195014D01*
X141696282Y-114042959D01*
X141465785Y-113925515D01*
X141219754Y-113845574D01*
X141219752Y-113845573D01*
X141219750Y-113845573D01*
X140964251Y-113805106D01*
X140964246Y-113805106D01*
X140705554Y-113805106D01*
X140705549Y-113805106D01*
X140450049Y-113845573D01*
X140204012Y-113925516D01*
X139973517Y-114042959D01*
X139764229Y-114195016D01*
X139581310Y-114377935D01*
X139429253Y-114587223D01*
X139311810Y-114817718D01*
X139231867Y-115063755D01*
X139191400Y-115319254D01*
X135806941Y-115319254D01*
X135778249Y-115138100D01*
X135713752Y-114939599D01*
X135713750Y-114939596D01*
X135713750Y-114939594D01*
X135618996Y-114753630D01*
X135496316Y-114584775D01*
X135348731Y-114437190D01*
X135179875Y-114314509D01*
X135101561Y-114274606D01*
X134993911Y-114219755D01*
X134795406Y-114155256D01*
X134617443Y-114127070D01*
X134589258Y-114122606D01*
X134380542Y-114122606D01*
X134355746Y-114126533D01*
X134174393Y-114155256D01*
X133975888Y-114219755D01*
X133789924Y-114314509D01*
X133621066Y-114437192D01*
X133473486Y-114584772D01*
X133350803Y-114753630D01*
X133256049Y-114939594D01*
X133191550Y-115138099D01*
X133158900Y-115344248D01*
X129778400Y-115344248D01*
X129778400Y-115319254D01*
X129737932Y-115063755D01*
X129737932Y-115063752D01*
X129657991Y-114817721D01*
X129540547Y-114587224D01*
X129388492Y-114377938D01*
X129205568Y-114195014D01*
X128996282Y-114042959D01*
X128765785Y-113925515D01*
X128519754Y-113845574D01*
X128519752Y-113845573D01*
X128519750Y-113845573D01*
X128264251Y-113805106D01*
X128264246Y-113805106D01*
X128005554Y-113805106D01*
X128005549Y-113805106D01*
X127750049Y-113845573D01*
X127504012Y-113925516D01*
X127273517Y-114042959D01*
X127064229Y-114195016D01*
X126881310Y-114377935D01*
X126729253Y-114587223D01*
X126611810Y-114817718D01*
X126531867Y-115063755D01*
X126491400Y-115319254D01*
X100172071Y-115319254D01*
X100172070Y-110319132D01*
X126491400Y-110319132D01*
X126491400Y-110577835D01*
X126531867Y-110833334D01*
X126531868Y-110833338D01*
X126611809Y-111079369D01*
X126729253Y-111309866D01*
X126881308Y-111519152D01*
X127064232Y-111702076D01*
X127273518Y-111854131D01*
X127504015Y-111971575D01*
X127750046Y-112051516D01*
X127845861Y-112066691D01*
X128005549Y-112091984D01*
X128005554Y-112091984D01*
X128264251Y-112091984D01*
X128406194Y-112069501D01*
X128519754Y-112051516D01*
X128765785Y-111971575D01*
X128996282Y-111854131D01*
X129205568Y-111702076D01*
X129388492Y-111519152D01*
X129540547Y-111309866D01*
X129657991Y-111079369D01*
X129737932Y-110833338D01*
X129755917Y-110719778D01*
X129778400Y-110577835D01*
X129778400Y-110319132D01*
X129737932Y-110063633D01*
X129737932Y-110063630D01*
X129657991Y-109817599D01*
X129540547Y-109587102D01*
X129388492Y-109377816D01*
X129205568Y-109194892D01*
X128996282Y-109042837D01*
X128765785Y-108925393D01*
X128519754Y-108845452D01*
X128519752Y-108845451D01*
X128519750Y-108845451D01*
X128264251Y-108804984D01*
X128264246Y-108804984D01*
X128005554Y-108804984D01*
X128005549Y-108804984D01*
X127750049Y-108845451D01*
X127504012Y-108925394D01*
X127273517Y-109042837D01*
X127064229Y-109194894D01*
X126881310Y-109377813D01*
X126729253Y-109587101D01*
X126611810Y-109817596D01*
X126531867Y-110063633D01*
X126491400Y-110319132D01*
X100172070Y-110319132D01*
X100172068Y-93312617D01*
X104105000Y-93312617D01*
X104105000Y-93509382D01*
X104135778Y-93703705D01*
X104196581Y-93890835D01*
X104285905Y-94066145D01*
X104311319Y-94101125D01*
X104311320Y-94101125D01*
X104917352Y-93495093D01*
X104940792Y-93582571D01*
X104999311Y-93683930D01*
X105082070Y-93766689D01*
X105183429Y-93825208D01*
X105270904Y-93848647D01*
X104664873Y-94454677D01*
X104664873Y-94454678D01*
X104699858Y-94480096D01*
X104875164Y-94569418D01*
X105062294Y-94630221D01*
X105256618Y-94661000D01*
X105453382Y-94661000D01*
X105647705Y-94630221D01*
X105834838Y-94569417D01*
X105980042Y-94495433D01*
X105980044Y-94495432D01*
X106010142Y-94480096D01*
X106091359Y-94421087D01*
X107017352Y-93495095D01*
X107040792Y-93582571D01*
X107099311Y-93683930D01*
X107182070Y-93766689D01*
X107283429Y-93825208D01*
X107370904Y-93848647D01*
X106573829Y-94645720D01*
X106573829Y-94645722D01*
X106597622Y-94654597D01*
X106597623Y-94654598D01*
X106657155Y-94660999D01*
X106657172Y-94661000D01*
X108252828Y-94661000D01*
X108252844Y-94660999D01*
X108312372Y-94654598D01*
X108336169Y-94645721D01*
X107539095Y-93848647D01*
X107626571Y-93825208D01*
X107727930Y-93766689D01*
X107810689Y-93683930D01*
X107869208Y-93582571D01*
X107892647Y-93495095D01*
X108689721Y-94292169D01*
X108698598Y-94268372D01*
X108704999Y-94208844D01*
X108705000Y-94208827D01*
X108705000Y-92613172D01*
X108704999Y-92613155D01*
X108698598Y-92553623D01*
X108698597Y-92553622D01*
X108689722Y-92529829D01*
X108689720Y-92529829D01*
X107892646Y-93326903D01*
X107869208Y-93239429D01*
X107810689Y-93138070D01*
X107727930Y-93055311D01*
X107626571Y-92996792D01*
X107539095Y-92973353D01*
X108336170Y-92176277D01*
X108336170Y-92176276D01*
X108312375Y-92167401D01*
X108252844Y-92161000D01*
X106657155Y-92161000D01*
X106597627Y-92167401D01*
X106597623Y-92167402D01*
X106573829Y-92176277D01*
X107370904Y-92973352D01*
X107283429Y-92996792D01*
X107182070Y-93055311D01*
X107099311Y-93138070D01*
X107040792Y-93239429D01*
X107017352Y-93326904D01*
X106091361Y-92400913D01*
X106010143Y-92341904D01*
X105980040Y-92326566D01*
X105834835Y-92252581D01*
X105647705Y-92191778D01*
X105453382Y-92161000D01*
X105256618Y-92161000D01*
X105062294Y-92191778D01*
X104875161Y-92252582D01*
X104699863Y-92341899D01*
X104699859Y-92341902D01*
X104664873Y-92367320D01*
X104664872Y-92367320D01*
X105270905Y-92973352D01*
X105183429Y-92996792D01*
X105082070Y-93055311D01*
X104999311Y-93138070D01*
X104940792Y-93239429D01*
X104917352Y-93326905D01*
X104311320Y-92720872D01*
X104311320Y-92720873D01*
X104285902Y-92755859D01*
X104285899Y-92755863D01*
X104196582Y-92931161D01*
X104135778Y-93118294D01*
X104105000Y-93312617D01*
X100172068Y-93312617D01*
X100172067Y-88699456D01*
X100172066Y-77529209D01*
X100172066Y-77529070D01*
X100172073Y-77522847D01*
X100172126Y-77522663D01*
X100172126Y-77471571D01*
X100172127Y-77471571D01*
X100172126Y-77272746D01*
X100135433Y-76876791D01*
X100131360Y-76855005D01*
X100062364Y-76485920D01*
X100062361Y-76485909D01*
X99953537Y-76103442D01*
X99925739Y-76031688D01*
X99908374Y-75986863D01*
X99900000Y-75942069D01*
X99900000Y-74484983D01*
X102937000Y-74484983D01*
X102937000Y-76085001D01*
X102937001Y-76085018D01*
X102947500Y-76187796D01*
X102947501Y-76187799D01*
X103002685Y-76354331D01*
X103002687Y-76354336D01*
X103037569Y-76410888D01*
X103094788Y-76503656D01*
X103218844Y-76627712D01*
X103260602Y-76653468D01*
X103267156Y-76657511D01*
X103313881Y-76709459D01*
X103325104Y-76778421D01*
X103297260Y-76842504D01*
X103296115Y-76843759D01*
X103296147Y-76843786D01*
X103292985Y-76847487D01*
X103292983Y-76847490D01*
X103242907Y-76916413D01*
X103154157Y-77038566D01*
X103046933Y-77249003D01*
X102973946Y-77473631D01*
X102937000Y-77706902D01*
X102937000Y-77943097D01*
X102973946Y-78176368D01*
X103046933Y-78400996D01*
X103154157Y-78611433D01*
X103292983Y-78802510D01*
X103459990Y-78969517D01*
X103651067Y-79108343D01*
X103728855Y-79147978D01*
X103861503Y-79215566D01*
X103861505Y-79215566D01*
X103861508Y-79215568D01*
X103981912Y-79254689D01*
X104086131Y-79288553D01*
X104319403Y-79325500D01*
X104319408Y-79325500D01*
X104555597Y-79325500D01*
X104788868Y-79288553D01*
X105013492Y-79215568D01*
X105223933Y-79108343D01*
X105415010Y-78969517D01*
X105582017Y-78802510D01*
X105720843Y-78611433D01*
X105828068Y-78400992D01*
X105901053Y-78176368D01*
X105915423Y-78085639D01*
X105938000Y-77943097D01*
X105938000Y-77706902D01*
X105901053Y-77473631D01*
X105828066Y-77249003D01*
X105747860Y-77091591D01*
X105720843Y-77038567D01*
X105582017Y-76847490D01*
X105582008Y-76847481D01*
X105578853Y-76843786D01*
X105580634Y-76842264D01*
X105551773Y-76789408D01*
X105556757Y-76719716D01*
X105598629Y-76663783D01*
X105607834Y-76657516D01*
X105656156Y-76627712D01*
X105780212Y-76503656D01*
X105872314Y-76354334D01*
X105927499Y-76187797D01*
X105938000Y-76085009D01*
X105937999Y-74484992D01*
X105927499Y-74382203D01*
X105872314Y-74215666D01*
X105780212Y-74066344D01*
X105656156Y-73942288D01*
X105506834Y-73850186D01*
X105340297Y-73795001D01*
X105340295Y-73795000D01*
X105237510Y-73784500D01*
X103637498Y-73784500D01*
X103637481Y-73784501D01*
X103534703Y-73795000D01*
X103534700Y-73795001D01*
X103368168Y-73850185D01*
X103368163Y-73850187D01*
X103218842Y-73942289D01*
X103094789Y-74066342D01*
X103002687Y-74215663D01*
X103002685Y-74215668D01*
X102986089Y-74265752D01*
X102947501Y-74382203D01*
X102947501Y-74382204D01*
X102947500Y-74382204D01*
X102937000Y-74484983D01*
X99900000Y-74484983D01*
X99900000Y-69611746D01*
X100904500Y-69611746D01*
X100904500Y-69828254D01*
X100921418Y-69935071D01*
X100938370Y-70042098D01*
X101005272Y-70248006D01*
X101005273Y-70248009D01*
X101074191Y-70383266D01*
X101103567Y-70440919D01*
X101230828Y-70616078D01*
X101383922Y-70769172D01*
X101559081Y-70896433D01*
X101653697Y-70944642D01*
X101751990Y-70994726D01*
X101751993Y-70994727D01*
X101800871Y-71010608D01*
X101957903Y-71061630D01*
X102171746Y-71095500D01*
X105098887Y-71095500D01*
X105165926Y-71115185D01*
X105186568Y-71131819D01*
X109188181Y-75133431D01*
X109221666Y-75194754D01*
X109224500Y-75221112D01*
X109224500Y-87708254D01*
X109227599Y-87727820D01*
X109245640Y-87841724D01*
X109258370Y-87922098D01*
X109325272Y-88128006D01*
X109325273Y-88128009D01*
X109375963Y-88227491D01*
X109417210Y-88308443D01*
X109423569Y-88320922D01*
X109550821Y-88496071D01*
X109550825Y-88496076D01*
X109550826Y-88496077D01*
X109550827Y-88496078D01*
X115386828Y-94332078D01*
X115539922Y-94485172D01*
X115715081Y-94612433D01*
X115749152Y-94629793D01*
X115907990Y-94710726D01*
X115907993Y-94710727D01*
X116010947Y-94744178D01*
X116113903Y-94777630D01*
X116327746Y-94811500D01*
X116327747Y-94811500D01*
X118538253Y-94811500D01*
X118538254Y-94811500D01*
X118752097Y-94777630D01*
X118958009Y-94710726D01*
X119150919Y-94612433D01*
X119262411Y-94531428D01*
X119328214Y-94507950D01*
X119396268Y-94523775D01*
X119415333Y-94538260D01*
X119415355Y-94538232D01*
X119537664Y-94629793D01*
X119537671Y-94629797D01*
X119672517Y-94680091D01*
X119672516Y-94680091D01*
X119679444Y-94680835D01*
X119732127Y-94686500D01*
X121327872Y-94686499D01*
X121387483Y-94680091D01*
X121522331Y-94629796D01*
X121637546Y-94543546D01*
X121723796Y-94428331D01*
X121774091Y-94293483D01*
X121780500Y-94233873D01*
X121780499Y-92638128D01*
X121774091Y-92578517D01*
X121723796Y-92443669D01*
X121723795Y-92443668D01*
X121723793Y-92443664D01*
X121637547Y-92328455D01*
X121637544Y-92328452D01*
X121522335Y-92242206D01*
X121522328Y-92242202D01*
X121387482Y-92191908D01*
X121387483Y-92191908D01*
X121327883Y-92185501D01*
X121327881Y-92185500D01*
X121327873Y-92185500D01*
X121327864Y-92185500D01*
X119732129Y-92185500D01*
X119732123Y-92185501D01*
X119672516Y-92191908D01*
X119537671Y-92242202D01*
X119537664Y-92242206D01*
X119415355Y-92333768D01*
X119414466Y-92332581D01*
X119361642Y-92361420D01*
X119291950Y-92356429D01*
X119262408Y-92340569D01*
X119245730Y-92328452D01*
X119150919Y-92259567D01*
X119137208Y-92252581D01*
X118958009Y-92161273D01*
X118958006Y-92161272D01*
X118752098Y-92094370D01*
X118591882Y-92068994D01*
X118538254Y-92060500D01*
X118538253Y-92060500D01*
X117057112Y-92060500D01*
X116990073Y-92040815D01*
X116969431Y-92024181D01*
X112011819Y-87066568D01*
X111978334Y-87005245D01*
X111975500Y-86978887D01*
X111975500Y-74491746D01*
X111974429Y-74484983D01*
X111941630Y-74277903D01*
X111887247Y-74110528D01*
X111874727Y-74071993D01*
X111874726Y-74071990D01*
X111808639Y-73942288D01*
X111776433Y-73879081D01*
X111649172Y-73703922D01*
X111496078Y-73550828D01*
X106616078Y-68670827D01*
X106616077Y-68670826D01*
X106616076Y-68670825D01*
X106616071Y-68670821D01*
X106440922Y-68543569D01*
X106440921Y-68543568D01*
X106440919Y-68543567D01*
X106327273Y-68485661D01*
X106248009Y-68445273D01*
X106248006Y-68445272D01*
X106042098Y-68378370D01*
X105935175Y-68361435D01*
X105828254Y-68344500D01*
X105828253Y-68344500D01*
X103217720Y-68344500D01*
X103150681Y-68324815D01*
X103104926Y-68272011D01*
X103094982Y-68202853D01*
X103124007Y-68139297D01*
X103144293Y-68120578D01*
X103260290Y-68035338D01*
X103260334Y-68035305D01*
X103269069Y-68028740D01*
X103269484Y-68028421D01*
X103269499Y-68028408D01*
X103269541Y-68028377D01*
X103275580Y-68023621D01*
X103278676Y-68021184D01*
X103338978Y-67972568D01*
X103340788Y-67971138D01*
X103463662Y-67876002D01*
X103473309Y-67869243D01*
X103491683Y-67857627D01*
X103503736Y-67850915D01*
X103514447Y-67845712D01*
X103529067Y-67839732D01*
X103543419Y-67834906D01*
X103557876Y-67831002D01*
X103593601Y-67823638D01*
X103605763Y-67821756D01*
X103675148Y-67814534D01*
X103684361Y-67813923D01*
X103748536Y-67812065D01*
X103798554Y-67810618D01*
X103798563Y-67810617D01*
X103798571Y-67810617D01*
X103826522Y-67808509D01*
X103851111Y-67806655D01*
X103851113Y-67806692D01*
X103865122Y-67805500D01*
X107069548Y-67805500D01*
X107136587Y-67825185D01*
X107157229Y-67841819D01*
X131323081Y-92007671D01*
X131356566Y-92068994D01*
X131359400Y-92095352D01*
X131359400Y-111703122D01*
X131339715Y-111770161D01*
X131293875Y-111811635D01*
X131294077Y-111811964D01*
X131292328Y-111813035D01*
X131291699Y-111813605D01*
X131289925Y-111814508D01*
X131121066Y-111937192D01*
X130973486Y-112084772D01*
X130850803Y-112253630D01*
X130756049Y-112439594D01*
X130691550Y-112638099D01*
X130658900Y-112844248D01*
X130658900Y-113052963D01*
X130691550Y-113259112D01*
X130756049Y-113457617D01*
X130850667Y-113643315D01*
X130850803Y-113643581D01*
X130973484Y-113812437D01*
X131121069Y-113960022D01*
X131289925Y-114082703D01*
X131377788Y-114127471D01*
X131475888Y-114177456D01*
X131475890Y-114177456D01*
X131475893Y-114177458D01*
X131529925Y-114195014D01*
X131674393Y-114241955D01*
X131777468Y-114258280D01*
X131880542Y-114274606D01*
X131880543Y-114274606D01*
X132089257Y-114274606D01*
X132089258Y-114274606D01*
X132295406Y-114241955D01*
X132493907Y-114177458D01*
X132679875Y-114082703D01*
X132848731Y-113960022D01*
X132996316Y-113812437D01*
X133118997Y-113643581D01*
X133213752Y-113457613D01*
X133278249Y-113259112D01*
X133310900Y-113052964D01*
X133310900Y-112844281D01*
X135659400Y-112844281D01*
X135659400Y-113052930D01*
X135692037Y-113258995D01*
X135756512Y-113457426D01*
X135851230Y-113643320D01*
X135887168Y-113692782D01*
X136443557Y-113136394D01*
X136452347Y-113169197D01*
X136527587Y-113299515D01*
X136633991Y-113405919D01*
X136764309Y-113481159D01*
X136797111Y-113489948D01*
X136240722Y-114046336D01*
X136240722Y-114046337D01*
X136290185Y-114082275D01*
X136476079Y-114176993D01*
X136674510Y-114241468D01*
X136880576Y-114274106D01*
X137089224Y-114274106D01*
X137295289Y-114241468D01*
X137493720Y-114176993D01*
X137679609Y-114082278D01*
X137729076Y-114046336D01*
X137172688Y-113489948D01*
X137205491Y-113481159D01*
X137335809Y-113405919D01*
X137442213Y-113299515D01*
X137517453Y-113169197D01*
X137526242Y-113136394D01*
X138082630Y-113692782D01*
X138118572Y-113643315D01*
X138213287Y-113457426D01*
X138277762Y-113258995D01*
X138310400Y-113052930D01*
X138310400Y-112844281D01*
X138277762Y-112638216D01*
X138213287Y-112439785D01*
X138118569Y-112253891D01*
X138082630Y-112204428D01*
X137526242Y-112760816D01*
X137517453Y-112728015D01*
X137442213Y-112597697D01*
X137335809Y-112491293D01*
X137205491Y-112416053D01*
X137172688Y-112407263D01*
X137729076Y-111850874D01*
X137729076Y-111850873D01*
X137679614Y-111814936D01*
X137493720Y-111720218D01*
X137295289Y-111655743D01*
X137089224Y-111623106D01*
X136880576Y-111623106D01*
X136674510Y-111655743D01*
X136476079Y-111720218D01*
X136290185Y-111814936D01*
X136240722Y-111850874D01*
X136240721Y-111850874D01*
X136797111Y-112407263D01*
X136764309Y-112416053D01*
X136633991Y-112491293D01*
X136527587Y-112597697D01*
X136452347Y-112728015D01*
X136443557Y-112760816D01*
X135887168Y-112204427D01*
X135887168Y-112204428D01*
X135851230Y-112253891D01*
X135756512Y-112439785D01*
X135692037Y-112638216D01*
X135659400Y-112844281D01*
X133310900Y-112844281D01*
X133310900Y-112844248D01*
X133292490Y-112728015D01*
X133278249Y-112638099D01*
X133213750Y-112439594D01*
X133118996Y-112253630D01*
X133083248Y-112204427D01*
X132996316Y-112084775D01*
X132848731Y-111937190D01*
X132679875Y-111814509D01*
X132679876Y-111814509D01*
X132679874Y-111814508D01*
X132678101Y-111813605D01*
X132677546Y-111813081D01*
X132675723Y-111811964D01*
X132675957Y-111811580D01*
X132627307Y-111765628D01*
X132610400Y-111703122D01*
X132610400Y-91723293D01*
X132610399Y-91723289D01*
X132586364Y-91602455D01*
X132586363Y-91602448D01*
X132539211Y-91488614D01*
X132539210Y-91488613D01*
X132539207Y-91488607D01*
X132470758Y-91386167D01*
X132470755Y-91386163D01*
X132380537Y-91295945D01*
X132380506Y-91295916D01*
X107873645Y-66789055D01*
X107865860Y-66781270D01*
X107865858Y-66781267D01*
X107778733Y-66694142D01*
X107710485Y-66648540D01*
X107704396Y-66644471D01*
X107704391Y-66644467D01*
X107676290Y-66625690D01*
X107676286Y-66625688D01*
X107589590Y-66589778D01*
X107562452Y-66578537D01*
X107502029Y-66566518D01*
X107497717Y-66565660D01*
X107497716Y-66565660D01*
X107441610Y-66554500D01*
X107441607Y-66554500D01*
X107441606Y-66554500D01*
X103839646Y-66554500D01*
X103832694Y-66554305D01*
X103825383Y-66553894D01*
X103799790Y-66549393D01*
X103676374Y-66545527D01*
X103674822Y-66545440D01*
X103674508Y-66545328D01*
X103667729Y-66544837D01*
X103595072Y-66536554D01*
X103582522Y-66534466D01*
X103556514Y-66528755D01*
X103523494Y-66516370D01*
X103473041Y-66488707D01*
X103457053Y-66478264D01*
X103338454Y-66387036D01*
X103337003Y-66385903D01*
X103200598Y-66277717D01*
X103191171Y-66270420D01*
X103190740Y-66270094D01*
X103188974Y-66268796D01*
X103180150Y-66262308D01*
X103113649Y-66214731D01*
X103009004Y-66139864D01*
X103001911Y-66134879D01*
X103001703Y-66134736D01*
X103001655Y-66134705D01*
X102965188Y-66112667D01*
X102965182Y-66112663D01*
X102957766Y-66108182D01*
X102943266Y-66097647D01*
X102790883Y-66020004D01*
X102789916Y-66019490D01*
X102765679Y-65995790D01*
X102741031Y-65972510D01*
X102740761Y-65971423D01*
X102739961Y-65970640D01*
X102732384Y-65937595D01*
X102724236Y-65904689D01*
X102724597Y-65903628D01*
X102724347Y-65902537D01*
X102735834Y-65870651D01*
X102746773Y-65838554D01*
X102747683Y-65837764D01*
X102748030Y-65836804D01*
X102754617Y-65831756D01*
X102791827Y-65799515D01*
X102815131Y-65787641D01*
X102943266Y-65722353D01*
X102979378Y-65696115D01*
X102993791Y-65687086D01*
X103014193Y-65676180D01*
X103150494Y-65576020D01*
X103260290Y-65495338D01*
X103260334Y-65495305D01*
X103269069Y-65488740D01*
X103269484Y-65488421D01*
X103269499Y-65488408D01*
X103269541Y-65488377D01*
X103275580Y-65483621D01*
X103278676Y-65481184D01*
X103338978Y-65432568D01*
X103340788Y-65431138D01*
X103463662Y-65336002D01*
X103473309Y-65329243D01*
X103491683Y-65317627D01*
X103503736Y-65310915D01*
X103514447Y-65305712D01*
X103529067Y-65299732D01*
X103543419Y-65294906D01*
X103557876Y-65291002D01*
X103593601Y-65283638D01*
X103605763Y-65281756D01*
X103675148Y-65274534D01*
X103684361Y-65273923D01*
X103748536Y-65272065D01*
X103798554Y-65270618D01*
X103798563Y-65270617D01*
X103798571Y-65270617D01*
X103826522Y-65268509D01*
X103851111Y-65266655D01*
X103851113Y-65266692D01*
X103865122Y-65265500D01*
X108029548Y-65265500D01*
X108096587Y-65285185D01*
X108117229Y-65301819D01*
X133823081Y-91007671D01*
X133856566Y-91068994D01*
X133859400Y-91095352D01*
X133859400Y-109203122D01*
X133839715Y-109270161D01*
X133793875Y-109311635D01*
X133794077Y-109311964D01*
X133792328Y-109313035D01*
X133791699Y-109313605D01*
X133789925Y-109314508D01*
X133621066Y-109437192D01*
X133473486Y-109584772D01*
X133350803Y-109753630D01*
X133256049Y-109939594D01*
X133191550Y-110138099D01*
X133158900Y-110344248D01*
X133158900Y-110552963D01*
X133191550Y-110759112D01*
X133256049Y-110957617D01*
X133350803Y-111143581D01*
X133473484Y-111312437D01*
X133621069Y-111460022D01*
X133789925Y-111582703D01*
X133869221Y-111623106D01*
X133975888Y-111677456D01*
X133975890Y-111677456D01*
X133975893Y-111677458D01*
X134054879Y-111703122D01*
X134174393Y-111741955D01*
X134277468Y-111758280D01*
X134380542Y-111774606D01*
X134380543Y-111774606D01*
X134589257Y-111774606D01*
X134589258Y-111774606D01*
X134795406Y-111741955D01*
X134993907Y-111677458D01*
X135179875Y-111582703D01*
X135348731Y-111460022D01*
X135496316Y-111312437D01*
X135618997Y-111143581D01*
X135713752Y-110957613D01*
X135778249Y-110759112D01*
X135810900Y-110552964D01*
X135810900Y-110344248D01*
X135806922Y-110319132D01*
X139191400Y-110319132D01*
X139191400Y-110577835D01*
X139231867Y-110833334D01*
X139231868Y-110833338D01*
X139311809Y-111079369D01*
X139429253Y-111309866D01*
X139581308Y-111519152D01*
X139764232Y-111702076D01*
X139973518Y-111854131D01*
X140204015Y-111971575D01*
X140450046Y-112051516D01*
X140545861Y-112066691D01*
X140705549Y-112091984D01*
X140705554Y-112091984D01*
X140964251Y-112091984D01*
X141106194Y-112069501D01*
X141219754Y-112051516D01*
X141465785Y-111971575D01*
X141696282Y-111854131D01*
X141905568Y-111702076D01*
X142088492Y-111519152D01*
X142240547Y-111309866D01*
X142357991Y-111079369D01*
X142437932Y-110833338D01*
X142455917Y-110719778D01*
X142478400Y-110577835D01*
X142478400Y-110319132D01*
X142437932Y-110063633D01*
X142437932Y-110063630D01*
X142357991Y-109817599D01*
X142240547Y-109587102D01*
X142088492Y-109377816D01*
X141905568Y-109194892D01*
X141696282Y-109042837D01*
X141465785Y-108925393D01*
X141219754Y-108845452D01*
X141219752Y-108845451D01*
X141219750Y-108845451D01*
X140964251Y-108804984D01*
X140964246Y-108804984D01*
X140705554Y-108804984D01*
X140705549Y-108804984D01*
X140450049Y-108845451D01*
X140204012Y-108925394D01*
X139973517Y-109042837D01*
X139764229Y-109194894D01*
X139581310Y-109377813D01*
X139429253Y-109587101D01*
X139311810Y-109817596D01*
X139231867Y-110063633D01*
X139191400Y-110319132D01*
X135806922Y-110319132D01*
X135806151Y-110314266D01*
X135778249Y-110138099D01*
X135713750Y-109939594D01*
X135618996Y-109753630D01*
X135496316Y-109584775D01*
X135348731Y-109437190D01*
X135179875Y-109314509D01*
X135179876Y-109314509D01*
X135179874Y-109314508D01*
X135178101Y-109313605D01*
X135177546Y-109313081D01*
X135175723Y-109311964D01*
X135175957Y-109311580D01*
X135127307Y-109265628D01*
X135110400Y-109203122D01*
X135110400Y-90723296D01*
X135110400Y-90723294D01*
X135108761Y-90715056D01*
X135108761Y-90715050D01*
X135108760Y-90715051D01*
X135092520Y-90633402D01*
X135092520Y-90633401D01*
X135086364Y-90602453D01*
X135086363Y-90602452D01*
X135086363Y-90602448D01*
X135039211Y-90488614D01*
X135039210Y-90488613D01*
X135039207Y-90488607D01*
X134970758Y-90386167D01*
X134970755Y-90386163D01*
X134880537Y-90295945D01*
X134880506Y-90295916D01*
X108833150Y-64248560D01*
X108825860Y-64241270D01*
X108825858Y-64241267D01*
X108738733Y-64154142D01*
X108687509Y-64119915D01*
X108636286Y-64085688D01*
X108549590Y-64049778D01*
X108522452Y-64038537D01*
X108462029Y-64026518D01*
X108457717Y-64025660D01*
X108457716Y-64025660D01*
X108401610Y-64014500D01*
X108401607Y-64014500D01*
X108401606Y-64014500D01*
X103839646Y-64014500D01*
X103832694Y-64014305D01*
X103825383Y-64013894D01*
X103799790Y-64009393D01*
X103676374Y-64005527D01*
X103674822Y-64005440D01*
X103674508Y-64005328D01*
X103667729Y-64004837D01*
X103595072Y-63996554D01*
X103582522Y-63994466D01*
X103556514Y-63988755D01*
X103523494Y-63976370D01*
X103473041Y-63948707D01*
X103457053Y-63938264D01*
X103338454Y-63847036D01*
X103337003Y-63845903D01*
X103200598Y-63737717D01*
X103191171Y-63730420D01*
X103190740Y-63730094D01*
X103188974Y-63728796D01*
X103180150Y-63722308D01*
X103171590Y-63716184D01*
X103009004Y-63599864D01*
X103001911Y-63594879D01*
X103001703Y-63594736D01*
X103000094Y-63593696D01*
X103000488Y-63593085D01*
X102955166Y-63543627D01*
X102943304Y-63474772D01*
X102970551Y-63410434D01*
X103028256Y-63371040D01*
X103066485Y-63365000D01*
X103092828Y-63365000D01*
X103092844Y-63364999D01*
X103152372Y-63358598D01*
X103152379Y-63358596D01*
X103287086Y-63308354D01*
X103287093Y-63308350D01*
X103402187Y-63222190D01*
X103402190Y-63222187D01*
X103488350Y-63107093D01*
X103488354Y-63107086D01*
X103538596Y-62972379D01*
X103538598Y-62972372D01*
X103544999Y-62912844D01*
X103545000Y-62912827D01*
X103545000Y-62350000D01*
X102724560Y-62350000D01*
X102755245Y-62296853D01*
X102790000Y-62167143D01*
X102790000Y-62032857D01*
X102755245Y-61903147D01*
X102724560Y-61850000D01*
X103545000Y-61850000D01*
X103545000Y-61287172D01*
X103544999Y-61287155D01*
X103538598Y-61227627D01*
X103538596Y-61227620D01*
X103488354Y-61092913D01*
X103488350Y-61092906D01*
X103402190Y-60977812D01*
X103402187Y-60977809D01*
X103287093Y-60891649D01*
X103287086Y-60891645D01*
X103152379Y-60841403D01*
X103152372Y-60841401D01*
X103092844Y-60835000D01*
X102530000Y-60835000D01*
X102530000Y-61655439D01*
X102476853Y-61624755D01*
X102347143Y-61590000D01*
X102212857Y-61590000D01*
X102083147Y-61624755D01*
X102030000Y-61655439D01*
X102030000Y-60835000D01*
X101467155Y-60835000D01*
X101407627Y-60841401D01*
X101407620Y-60841403D01*
X101272913Y-60891645D01*
X101272906Y-60891649D01*
X101157812Y-60977809D01*
X101157809Y-60977812D01*
X101071649Y-61092906D01*
X101071645Y-61092913D01*
X101021403Y-61227620D01*
X101021401Y-61227627D01*
X101015000Y-61287155D01*
X101015000Y-61850000D01*
X101835440Y-61850000D01*
X101804755Y-61903147D01*
X101770000Y-62032857D01*
X101770000Y-62167143D01*
X101804755Y-62296853D01*
X101835440Y-62350000D01*
X101015000Y-62350000D01*
X101015000Y-62912844D01*
X101021401Y-62972372D01*
X101021403Y-62972379D01*
X101071645Y-63107086D01*
X101071649Y-63107093D01*
X101157809Y-63222187D01*
X101157812Y-63222190D01*
X101272906Y-63308350D01*
X101272913Y-63308354D01*
X101407620Y-63358596D01*
X101407627Y-63358598D01*
X101467155Y-63364999D01*
X101467172Y-63365000D01*
X101500257Y-63365000D01*
X101567296Y-63384685D01*
X101613051Y-63437489D01*
X101622995Y-63506647D01*
X101593970Y-63570203D01*
X101573144Y-63589316D01*
X101455582Y-63674731D01*
X101455580Y-63674733D01*
X101455579Y-63674733D01*
X101314733Y-63815579D01*
X101314733Y-63815580D01*
X101314731Y-63815582D01*
X101264447Y-63884790D01*
X101197647Y-63976733D01*
X101107213Y-64154219D01*
X101045661Y-64343656D01*
X101045661Y-64343659D01*
X101014500Y-64540403D01*
X101014500Y-64739596D01*
X101045661Y-64936340D01*
X101045661Y-64936343D01*
X101107213Y-65125780D01*
X101182764Y-65274057D01*
X101197647Y-65303266D01*
X101314731Y-65464418D01*
X101455582Y-65605269D01*
X101616734Y-65722353D01*
X101686453Y-65757877D01*
X101768172Y-65799515D01*
X101818968Y-65847490D01*
X101835763Y-65915311D01*
X101813225Y-65981446D01*
X101768172Y-66020485D01*
X101616733Y-66097647D01*
X101565424Y-66134926D01*
X101455582Y-66214731D01*
X101455580Y-66214733D01*
X101455579Y-66214733D01*
X101314733Y-66355579D01*
X101314733Y-66355580D01*
X101314731Y-66355582D01*
X101264447Y-66424790D01*
X101197647Y-66516733D01*
X101107213Y-66694219D01*
X101045661Y-66883656D01*
X101045661Y-66883659D01*
X101014500Y-67080403D01*
X101014500Y-67279596D01*
X101045661Y-67476340D01*
X101045661Y-67476343D01*
X101107213Y-67665780D01*
X101182764Y-67814057D01*
X101197647Y-67843266D01*
X101314731Y-68004418D01*
X101455582Y-68145269D01*
X101616734Y-68262353D01*
X101635689Y-68272011D01*
X101647025Y-68277787D01*
X101697821Y-68325762D01*
X101714616Y-68393583D01*
X101692078Y-68459718D01*
X101647025Y-68498757D01*
X101559080Y-68543567D01*
X101535795Y-68560485D01*
X101383922Y-68670828D01*
X101383920Y-68670830D01*
X101383919Y-68670830D01*
X101230830Y-68823919D01*
X101230830Y-68823920D01*
X101230828Y-68823922D01*
X101178766Y-68895579D01*
X101103567Y-68999080D01*
X101005273Y-69191990D01*
X101005272Y-69191993D01*
X100938370Y-69397901D01*
X100934290Y-69423661D01*
X100904500Y-69611746D01*
X99900000Y-69611746D01*
X99900000Y-63000979D01*
X99908373Y-62956185D01*
X99953501Y-62839697D01*
X100062321Y-62457227D01*
X100135387Y-62066349D01*
X100172075Y-61670396D01*
X100172073Y-61473613D01*
X100172079Y-61472428D01*
X100173768Y-61295858D01*
X100196464Y-58923313D01*
X100216789Y-58856466D01*
X100270028Y-58811218D01*
X100320458Y-58800500D01*
X180503928Y-58800500D01*
X180570967Y-58820185D01*
G37*
%TD.AperFunction*%
%TD*%
%TA.AperFunction,Conductor*%
%TO.N,/RS_A*%
G36*
X102714527Y-64010742D02*
G01*
X102714824Y-64010947D01*
X102886023Y-64133428D01*
X102886485Y-64133777D01*
X103026513Y-64244836D01*
X103187385Y-64368582D01*
X103187387Y-64368583D01*
X103329130Y-64446299D01*
X103329131Y-64446299D01*
X103329136Y-64446302D01*
X103411032Y-64474353D01*
X103505675Y-64495137D01*
X103636191Y-64510017D01*
X103783967Y-64514645D01*
X103792129Y-64518329D01*
X103795301Y-64526339D01*
X103795301Y-64753634D01*
X103791874Y-64761907D01*
X103783940Y-64765329D01*
X103646209Y-64769317D01*
X103522273Y-64782216D01*
X103522257Y-64782218D01*
X103418465Y-64803611D01*
X103329800Y-64833424D01*
X103251275Y-64871568D01*
X103177878Y-64917967D01*
X103026518Y-65035158D01*
X102961415Y-65087642D01*
X102961000Y-65087961D01*
X102714859Y-65268836D01*
X102706163Y-65270974D01*
X102698503Y-65266336D01*
X102698210Y-65265919D01*
X102543657Y-65035158D01*
X102283359Y-64646509D01*
X102281603Y-64637730D01*
X102283358Y-64633491D01*
X102698296Y-64013950D01*
X102705746Y-64008985D01*
X102714527Y-64010742D01*
G37*
%TD.AperFunction*%
%TD*%
%TA.AperFunction,Conductor*%
%TO.N,/RS_B*%
G36*
X102714527Y-66550742D02*
G01*
X102714824Y-66550947D01*
X102886023Y-66673428D01*
X102886485Y-66673777D01*
X103026513Y-66784836D01*
X103187385Y-66908582D01*
X103187387Y-66908583D01*
X103329130Y-66986299D01*
X103329131Y-66986299D01*
X103329136Y-66986302D01*
X103411032Y-67014353D01*
X103505675Y-67035137D01*
X103636191Y-67050017D01*
X103783967Y-67054645D01*
X103792129Y-67058329D01*
X103795301Y-67066339D01*
X103795301Y-67293634D01*
X103791874Y-67301907D01*
X103783940Y-67305329D01*
X103646209Y-67309317D01*
X103522273Y-67322216D01*
X103522257Y-67322218D01*
X103418465Y-67343611D01*
X103329800Y-67373424D01*
X103251275Y-67411568D01*
X103177878Y-67457967D01*
X103026518Y-67575158D01*
X102961415Y-67627642D01*
X102961000Y-67627961D01*
X102714859Y-67808836D01*
X102706163Y-67810974D01*
X102698503Y-67806336D01*
X102698210Y-67805919D01*
X102543657Y-67575158D01*
X102283359Y-67186509D01*
X102281603Y-67177730D01*
X102283358Y-67173491D01*
X102698296Y-66553950D01*
X102705746Y-66548985D01*
X102714527Y-66550742D01*
G37*
%TD.AperFunction*%
%TD*%
%TA.AperFunction,Conductor*%
%TO.N,+5V*%
G36*
X142561138Y-86860005D02*
G01*
X142650760Y-86940898D01*
X142746606Y-87027408D01*
X142910610Y-87140241D01*
X143013946Y-87191079D01*
X143058865Y-87213178D01*
X143058869Y-87213180D01*
X143205398Y-87268366D01*
X143231620Y-87277865D01*
X143286248Y-87297656D01*
X143286873Y-87297904D01*
X143516798Y-87397362D01*
X143517747Y-87397825D01*
X143639520Y-87464279D01*
X143640130Y-87464636D01*
X143768163Y-87545027D01*
X143773347Y-87552329D01*
X143771850Y-87561158D01*
X143771678Y-87561424D01*
X143357006Y-88183757D01*
X143353757Y-88187006D01*
X142731504Y-88601625D01*
X142722719Y-88603360D01*
X142715279Y-88598376D01*
X142715058Y-88598030D01*
X142613945Y-88434088D01*
X142613491Y-88433284D01*
X142537191Y-88284453D01*
X142536739Y-88283455D01*
X142438425Y-88035546D01*
X142438299Y-88035211D01*
X142418942Y-87981396D01*
X142418935Y-87981376D01*
X142338286Y-87791850D01*
X142287681Y-87703287D01*
X142221980Y-87608348D01*
X142176082Y-87552329D01*
X142134703Y-87501825D01*
X142134697Y-87501819D01*
X142134690Y-87501810D01*
X142030349Y-87391151D01*
X142027168Y-87382782D01*
X142030589Y-87374854D01*
X142545027Y-86860416D01*
X142553299Y-86856990D01*
X142561138Y-86860005D01*
G37*
%TD.AperFunction*%
%TD*%
%TA.AperFunction,Conductor*%
%TO.N,/CAN_TX*%
G36*
X143515616Y-82440749D02*
G01*
X143716837Y-82493036D01*
X143718255Y-82493503D01*
X143884056Y-82560133D01*
X143885317Y-82560730D01*
X144018604Y-82633938D01*
X144019364Y-82634395D01*
X144134262Y-82709461D01*
X144260316Y-82790883D01*
X144260320Y-82790885D01*
X144419203Y-82867671D01*
X144507030Y-82895326D01*
X144607792Y-82916462D01*
X144607796Y-82916462D01*
X144607799Y-82916463D01*
X144640656Y-82920264D01*
X144726382Y-82930183D01*
X144853067Y-82934605D01*
X144861215Y-82938318D01*
X144864358Y-82946298D01*
X144864358Y-83423700D01*
X144860931Y-83431973D01*
X144853065Y-83435393D01*
X144726696Y-83439793D01*
X144616788Y-83452474D01*
X144608332Y-83453450D01*
X144608331Y-83453450D01*
X144608324Y-83453451D01*
X144608322Y-83453451D01*
X144506256Y-83474876D01*
X144506250Y-83474878D01*
X144417415Y-83502995D01*
X144417408Y-83502998D01*
X144267454Y-83574921D01*
X144134320Y-83660500D01*
X144134208Y-83660572D01*
X144035791Y-83722255D01*
X143950521Y-83775698D01*
X143949107Y-83776454D01*
X143753645Y-83864282D01*
X143752363Y-83864770D01*
X143638069Y-83900750D01*
X143637232Y-83900980D01*
X143515432Y-83929592D01*
X143506594Y-83928148D01*
X143501366Y-83920878D01*
X143501284Y-83920499D01*
X143354459Y-83187292D01*
X143354459Y-83182707D01*
X143501228Y-82449779D01*
X143506211Y-82442342D01*
X143514996Y-82440607D01*
X143515616Y-82440749D01*
G37*
%TD.AperFunction*%
%TD*%
%TA.AperFunction,Conductor*%
%TO.N,/RS_TX*%
G36*
X143660936Y-61352374D02*
G01*
X143959849Y-61420782D01*
X143960420Y-61420928D01*
X144184612Y-61484547D01*
X144363412Y-61535095D01*
X144616433Y-61581318D01*
X144616444Y-61581318D01*
X144616445Y-61581319D01*
X144633442Y-61582655D01*
X144792536Y-61595165D01*
X144792549Y-61595165D01*
X144792560Y-61595166D01*
X144889011Y-61597258D01*
X145003856Y-61599751D01*
X145012052Y-61603356D01*
X145015301Y-61611448D01*
X145015301Y-62588639D01*
X145011874Y-62596912D01*
X145003945Y-62600334D01*
X144731461Y-62608356D01*
X144731429Y-62608358D01*
X144520925Y-62631905D01*
X144520903Y-62631908D01*
X144349903Y-62668365D01*
X144349895Y-62668367D01*
X144246055Y-62697949D01*
X144184610Y-62715454D01*
X144184582Y-62715462D01*
X144184579Y-62715463D01*
X144041582Y-62757063D01*
X144041019Y-62757212D01*
X143661040Y-62847498D01*
X143652198Y-62846077D01*
X143646952Y-62838820D01*
X143646863Y-62838412D01*
X143630590Y-62757147D01*
X143499459Y-62102292D01*
X143499459Y-62097707D01*
X143646883Y-61361488D01*
X143651867Y-61354049D01*
X143660652Y-61352314D01*
X143660936Y-61352374D01*
G37*
%TD.AperFunction*%
%TD*%
%TA.AperFunction,Conductor*%
%TO.N,/RS_RX*%
G36*
X144142292Y-69304905D02*
G01*
X144142465Y-69305174D01*
X144305444Y-69564890D01*
X144305751Y-69565409D01*
X144419279Y-69768895D01*
X144419280Y-69768895D01*
X144419283Y-69768900D01*
X144509971Y-69931075D01*
X144656200Y-70142672D01*
X144770933Y-70276987D01*
X144917115Y-70429657D01*
X144920361Y-70438002D01*
X144916937Y-70446021D01*
X144225959Y-71136999D01*
X144217686Y-71140426D01*
X144209660Y-71137239D01*
X144011307Y-70950232D01*
X143845780Y-70818009D01*
X143699095Y-70722877D01*
X143699072Y-70722863D01*
X143613164Y-70675050D01*
X143548900Y-70639283D01*
X143466353Y-70593942D01*
X143418343Y-70567571D01*
X143417839Y-70567278D01*
X143085312Y-70362433D01*
X143080066Y-70355176D01*
X143081487Y-70346334D01*
X143081689Y-70346018D01*
X143497996Y-69721238D01*
X143501238Y-69717996D01*
X144126068Y-69301655D01*
X144134852Y-69299921D01*
X144142292Y-69304905D01*
G37*
%TD.AperFunction*%
%TD*%
M02*
