%TF.GenerationSoftware,KiCad,Pcbnew,9.0.7-9.0.7~ubuntu24.04.1*%
%TF.CreationDate,2026-03-13T00:15:18+00:00*%
%TF.ProjectId,CORTEX_ALPHA,434f5254-4558-45f4-914c-5048412e6b69,rev?*%
%TF.SameCoordinates,Original*%
%TF.FileFunction,Copper,L1,Top*%
%TF.FilePolarity,Positive*%
%FSLAX46Y46*%
G04 Gerber Fmt 4.6, Leading zero omitted, Abs format (unit mm)*
G04 Created by KiCad (PCBNEW 9.0.7-9.0.7~ubuntu24.04.1) date 2026-03-13 00:15:18*
%MOMM*%
%LPD*%
G01*
G04 APERTURE LIST*
G04 Aperture macros list*
%AMRoundRect*
0 Rectangle with rounded corners*
0 $1 Rounding radius*
0 $2 $3 $4 $5 $6 $7 $8 $9 X,Y pos of 4 corners*
0 Add a 4 corners polygon primitive as box body*
4,1,4,$2,$3,$4,$5,$6,$7,$8,$9,$2,$3,0*
0 Add four circle primitives for the rounded corners*
1,1,$1+$1,$2,$3*
1,1,$1+$1,$4,$5*
1,1,$1+$1,$6,$7*
1,1,$1+$1,$8,$9*
0 Add four rect primitives between the rounded corners*
20,1,$1+$1,$2,$3,$4,$5,0*
20,1,$1+$1,$4,$5,$6,$7,0*
20,1,$1+$1,$6,$7,$8,$9,0*
20,1,$1+$1,$8,$9,$2,$3,0*%
G04 Aperture macros list end*
%TA.AperFunction,ComponentPad*%
%ADD10RoundRect,0.250000X-0.750000X0.750000X-0.750000X-0.750000X0.750000X-0.750000X0.750000X0.750000X0*%
%TD*%
%TA.AperFunction,ComponentPad*%
%ADD11C,2.000000*%
%TD*%
%TA.AperFunction,SMDPad,CuDef*%
%ADD12RoundRect,0.237500X-0.237500X0.250000X-0.237500X-0.250000X0.237500X-0.250000X0.237500X0.250000X0*%
%TD*%
%TA.AperFunction,SMDPad,CuDef*%
%ADD13RoundRect,0.237500X-0.237500X0.300000X-0.237500X-0.300000X0.237500X-0.300000X0.237500X0.300000X0*%
%TD*%
%TA.AperFunction,ComponentPad*%
%ADD14C,1.800000*%
%TD*%
%TA.AperFunction,ComponentPad*%
%ADD15C,1.524000*%
%TD*%
%TA.AperFunction,ComponentPad*%
%ADD16R,1.700000X1.700000*%
%TD*%
%TA.AperFunction,ComponentPad*%
%ADD17C,1.700000*%
%TD*%
%TA.AperFunction,SMDPad,CuDef*%
%ADD18RoundRect,0.237500X0.237500X-0.250000X0.237500X0.250000X-0.237500X0.250000X-0.237500X-0.250000X0*%
%TD*%
%TA.AperFunction,ComponentPad*%
%ADD19R,1.530000X1.530000*%
%TD*%
%TA.AperFunction,ComponentPad*%
%ADD20C,1.530000*%
%TD*%
%TA.AperFunction,ComponentPad*%
%ADD21C,1.651000*%
%TD*%
%TA.AperFunction,ComponentPad*%
%ADD22C,2.286000*%
%TD*%
%TA.AperFunction,SMDPad,CuDef*%
%ADD23RoundRect,0.237500X0.237500X-0.300000X0.237500X0.300000X-0.237500X0.300000X-0.237500X-0.300000X0*%
%TD*%
%TA.AperFunction,ComponentPad*%
%ADD24C,1.500000*%
%TD*%
%TA.AperFunction,ComponentPad*%
%ADD25R,1.500000X1.500000*%
%TD*%
%TA.AperFunction,ViaPad*%
%ADD26C,0.500000*%
%TD*%
%TA.AperFunction,Conductor*%
%ADD27C,0.500000*%
%TD*%
%TA.AperFunction,Conductor*%
%ADD28C,0.250000*%
%TD*%
%TA.AperFunction,Conductor*%
%ADD29C,2.000000*%
%TD*%
%TA.AperFunction,Conductor*%
%ADD30C,1.500000*%
%TD*%
%TA.AperFunction,Conductor*%
%ADD31C,1.250000*%
%TD*%
%TA.AperFunction,Conductor*%
%ADD32C,1.750000*%
%TD*%
%TA.AperFunction,Conductor*%
%ADD33C,1.000000*%
%TD*%
G04 APERTURE END LIST*
D10*
%TO.P,J2,1,Pin_1*%
%TO.N,Net-(CanBus_Module1-CANL)*%
X104437500Y-75285000D03*
D11*
%TO.P,J2,2,Pin_2*%
%TO.N,Net-(CanBus_Module1-CANH)*%
X104437500Y-77825000D03*
%TD*%
D12*
%TO.P,R2,1*%
%TO.N,/ANT_DIO1*%
X174100000Y-125487500D03*
%TO.P,R2,2*%
%TO.N,GND*%
X174100000Y-127312500D03*
%TD*%
D13*
%TO.P,C4,1*%
%TO.N,/+12.8V*%
X119100000Y-120468750D03*
%TO.P,C4,2*%
%TO.N,GND*%
X119100000Y-122193750D03*
%TD*%
D14*
%TO.P,U4,CN2_1,VCC*%
%TO.N,unconnected-(U4-VCC-PadCN2_1)*%
X165630000Y-64160000D03*
%TO.P,U4,CN2_2,SWCLK*%
%TO.N,unconnected-(U4-SWCLK-PadCN2_2)*%
X168170000Y-61620000D03*
%TO.P,U4,CN2_3,GND_SWD*%
%TO.N,GND*%
X168170000Y-64160000D03*
%TO.P,U4,CN2_4,SWDIO*%
%TO.N,unconnected-(U4-SWDIO-PadCN2_4)*%
X168170000Y-66700000D03*
%TO.P,U4,CN3_1,VIN*%
%TO.N,unconnected-(U4-VIN-PadCN3_1)*%
X168170000Y-69240000D03*
%TO.P,U4,CN3_2,GND_CN3*%
%TO.N,GND*%
X168170000Y-71780000D03*
%TO.P,U4,CN3_3,~{RST}_CN3*%
%TO.N,unconnected-(U4-~{RST}_CN3-PadCN3_3)*%
X168170000Y-74320000D03*
%TO.P,U4,CN3_4,5V*%
%TO.N,+5V*%
X168170000Y-76860000D03*
%TO.P,U4,CN3_5,PA2(A7)*%
%TO.N,unconnected-(U4-PA2(A7)-PadCN3_5)*%
X168170000Y-79400000D03*
%TO.P,U4,CN3_6,PA7(A6)*%
%TO.N,unconnected-(U4-PA7(A6)-PadCN3_6)*%
X168170000Y-81940000D03*
%TO.P,U4,CN3_7,PA6/PA15(A5)*%
%TO.N,unconnected-(U4-PA6{slash}PA15(A5)-PadCN3_7)*%
X168170000Y-84480000D03*
%TO.P,U4,CN3_8,PA5/PB7(A4)*%
%TO.N,unconnected-(U4-PA5{slash}PB7(A4)-PadCN3_8)*%
X168170000Y-87020000D03*
%TO.P,U4,CN3_9,PA4(A3)*%
%TO.N,unconnected-(U4-PA4(A3)-PadCN3_9)*%
X168170000Y-89560000D03*
%TO.P,U4,CN3_10,PA3(A2)*%
%TO.N,/ANT_DIO1*%
X168170000Y-92100000D03*
%TO.P,U4,CN3_11,PA1(A1)*%
%TO.N,/ANT_RX_EN*%
X168170000Y-94640000D03*
%TO.P,U4,CN3_12,PA0(A0)*%
%TO.N,/ANT_TX_EN*%
X168170000Y-97180000D03*
%TO.P,U4,CN3_13,AREF*%
%TO.N,unconnected-(U4-AREF-PadCN3_13)*%
X168170000Y-99720000D03*
%TO.P,U4,CN3_14,3V3*%
%TO.N,+3.3V*%
X168170000Y-102260000D03*
%TO.P,U4,CN3_15,PB3/PB8(D13)*%
%TO.N,/CLK*%
X168170000Y-104800000D03*
%TO.P,U4,CN4_1,PA9(D1)*%
%TO.N,/RS_TX*%
X152930000Y-69240000D03*
%TO.P,U4,CN4_2,PA10(D0)*%
%TO.N,/RS_RX*%
X152930000Y-71780000D03*
%TO.P,U4,CN4_3,~{RST}_CN4*%
%TO.N,unconnected-(U4-~{RST}_CN4-PadCN4_3)*%
X152930000Y-74320000D03*
%TO.P,U4,CN4_4,GND_CN4*%
%TO.N,GND*%
X152930000Y-76860000D03*
%TO.P,U4,CN4_5,PA12(D2)*%
%TO.N,/CAN_TX*%
X152930000Y-79400000D03*
%TO.P,U4,CN4_6,PB0(D3)*%
%TO.N,/ANT_BUSY*%
X152930000Y-81940000D03*
%TO.P,U4,CN4_7,PB7(D4)*%
%TO.N,/ANT_NRESET*%
X152930000Y-84480000D03*
%TO.P,U4,CN4_8,PA15(D5)*%
%TO.N,unconnected-(U4-PA15(D5)-PadCN4_8)*%
X152930000Y-87020000D03*
%TO.P,U4,CN4_9,PB6(D6)*%
%TO.N,unconnected-(U4-PB6(D6)-PadCN4_9)*%
X152930000Y-89560000D03*
%TO.P,U4,CN4_10,PF0(D7)*%
%TO.N,/RS_ENABLE*%
X152930000Y-92100000D03*
%TO.P,U4,CN4_11,PF1(D8)*%
%TO.N,unconnected-(U4-PF1(D8)-PadCN4_11)*%
X152930000Y-94640000D03*
%TO.P,U4,CN4_12,PA8(D9)*%
%TO.N,/CS*%
X152930000Y-97180000D03*
%TO.P,U4,CN4_13,PA11(D10)*%
%TO.N,/CAN_RX*%
X152930000Y-99720000D03*
%TO.P,U4,CN4_14,PB5(D11)*%
%TO.N,/MOSI*%
X152930000Y-102260000D03*
%TO.P,U4,CN4_15,PB4(D12)*%
%TO.N,/MISO*%
X152930000Y-104800000D03*
%TD*%
D15*
%TO.P,CanBus_Module1,1,CANL*%
%TO.N,Net-(CanBus_Module1-CANL)*%
X143355000Y-75685000D03*
%TO.P,CanBus_Module1,2,CANH*%
%TO.N,Net-(CanBus_Module1-CANH)*%
X143355000Y-78185000D03*
%TO.P,CanBus_Module1,3,CRX*%
%TO.N,/CAN_RX*%
X143355000Y-80685000D03*
%TO.P,CanBus_Module1,4,CTX*%
%TO.N,/CAN_TX*%
X143355000Y-83185000D03*
%TO.P,CanBus_Module1,5,GND*%
%TO.N,GND*%
X143355000Y-85685000D03*
%TO.P,CanBus_Module1,6,VCC*%
%TO.N,+5V*%
X143355000Y-88185000D03*
%TD*%
D13*
%TO.P,C3,1*%
%TO.N,/+12.8V*%
X122100000Y-120468750D03*
%TO.P,C3,2*%
%TO.N,GND*%
X122100000Y-122193750D03*
%TD*%
D16*
%TO.P,U2,1,3.3V*%
%TO.N,+3.3V*%
X148200000Y-117880000D03*
D17*
%TO.P,U2,2,GND*%
%TO.N,GND*%
X148200000Y-120420000D03*
%TO.P,U2,3,MISO_TX*%
%TO.N,/MISO*%
X148200000Y-122960000D03*
%TO.P,U2,4,MOSI_RX*%
%TO.N,/MOSI*%
X148200000Y-125500000D03*
%TO.P,U2,5,SCK_RTS*%
%TO.N,/CLK*%
X148200000Y-128040000D03*
%TO.P,U2,6,NSS_CTS*%
%TO.N,/CS*%
X148200000Y-130580000D03*
%TO.P,U2,7,GND*%
%TO.N,GND*%
X148200000Y-133120000D03*
%TO.P,U2,8,RX_EN*%
%TO.N,/ANT_RX_EN*%
X148200000Y-135660000D03*
%TO.P,U2,9,TX_EN*%
%TO.N,/ANT_TX_EN*%
X171000000Y-135660000D03*
%TO.P,U2,10,GND*%
%TO.N,GND*%
X171000000Y-133120000D03*
%TO.P,U2,11,NRESET*%
%TO.N,/ANT_NRESET*%
X171000000Y-130580000D03*
%TO.P,U2,12,BUSY*%
%TO.N,/ANT_BUSY*%
X171000000Y-128040000D03*
%TO.P,U2,13,DI01*%
%TO.N,/ANT_DIO1*%
X171000000Y-125500000D03*
%TO.P,U2,14,DI02*%
%TO.N,unconnected-(U2-DI02-Pad14)*%
X171000000Y-122960000D03*
%TO.P,U2,15,DI03*%
%TO.N,unconnected-(U2-DI03-Pad15)*%
X171000000Y-120420000D03*
D16*
%TO.P,U2,16,GND*%
%TO.N,GND*%
X171000000Y-117880000D03*
%TD*%
D18*
%TO.P,R1,1*%
%TO.N,/RS_ENABLE*%
X145910000Y-64892500D03*
%TO.P,R1,2*%
%TO.N,GND*%
X145910000Y-63067500D03*
%TD*%
D19*
%TO.P,U3,1,GND*%
%TO.N,GND*%
X102280000Y-62100000D03*
D20*
%TO.P,U3,2,A*%
%TO.N,/RS_A*%
X102280000Y-64640000D03*
%TO.P,U3,3,B*%
%TO.N,/RS_B*%
X102280000Y-67180000D03*
%TO.P,U3,4,VCC*%
%TO.N,+5V*%
X102280000Y-69720000D03*
%TO.P,U3,5,RO*%
%TO.N,/RS_RX*%
X143500000Y-69720000D03*
%TO.P,U3,6,RE*%
%TO.N,/RS_ENABLE*%
X143500000Y-67180000D03*
%TO.P,U3,7,DE*%
X143500000Y-64640000D03*
%TO.P,U3,8,DI*%
%TO.N,/RS_TX*%
X143500000Y-62100000D03*
%TD*%
D21*
%TO.P,J3,1,1*%
%TO.N,/+12.8V*%
X134484900Y-115448606D03*
%TO.P,J3,2,2*%
%TO.N,GND*%
X136984900Y-112948606D03*
%TO.P,J3,3,3*%
%TO.N,/RS_A*%
X134484900Y-110448606D03*
%TO.P,J3,4,4*%
%TO.N,/RS_B*%
X131984900Y-112948606D03*
D22*
%TO.P,J3,MNT1*%
%TO.N,N/C*%
X128134900Y-110448484D03*
%TO.P,J3,MNT2*%
X128134900Y-115448606D03*
%TO.P,J3,MNT3*%
X140834900Y-115448606D03*
%TO.P,J3,MNT4*%
X140834900Y-110448484D03*
%TD*%
D23*
%TO.P,C2,1*%
%TO.N,+5V*%
X117330000Y-89998500D03*
%TO.P,C2,2*%
%TO.N,GND*%
X117330000Y-88273500D03*
%TD*%
D24*
%TO.P,U5,1,IN+*%
%TO.N,/+12.8V*%
X118455000Y-116986000D03*
D25*
X120555000Y-116986000D03*
D24*
%TO.P,U5,2,IN-*%
%TO.N,GND*%
X105380000Y-116961000D03*
D25*
X107480000Y-116961000D03*
D24*
%TO.P,U5,3,OUT+*%
%TO.N,+5V*%
X118430000Y-93436000D03*
D25*
X120530000Y-93436000D03*
D24*
%TO.P,U5,4,OUT-*%
%TO.N,GND*%
X105355000Y-93411000D03*
D25*
X107455000Y-93411000D03*
%TD*%
D23*
%TO.P,C1,1*%
%TO.N,+5V*%
X120605000Y-89998500D03*
%TO.P,C1,2*%
%TO.N,GND*%
X120605000Y-88273500D03*
%TD*%
D16*
%TO.P,J4,1,Pin_1*%
%TO.N,+5V*%
X178020000Y-76860000D03*
D17*
%TO.P,J4,2,Pin_2*%
%TO.N,GND*%
X178020000Y-79400000D03*
%TO.P,J4,3,Pin_3*%
%TO.N,/NAV RX UART*%
X178020000Y-81940000D03*
%TO.P,J4,4,Pin_4*%
%TO.N,/NAV TX UART*%
X178020000Y-84480000D03*
%TO.P,J4,5,Pin_5*%
%TO.N,/NAV RTS UART*%
X178020000Y-87020000D03*
%TO.P,J4,6,Pin_6*%
%TO.N,/NAV CTS UART*%
X178020000Y-89560000D03*
%TD*%
D16*
%TO.P,J1,1,Pin_1*%
%TO.N,+3.3V*%
X121560000Y-137520000D03*
D17*
%TO.P,J1,2,Pin_2*%
%TO.N,/CS*%
X119020000Y-137520000D03*
%TO.P,J1,3,Pin_3*%
%TO.N,/MOSI*%
X116480000Y-137520000D03*
%TO.P,J1,4,Pin_4*%
%TO.N,/CLK*%
X113940000Y-137520000D03*
%TO.P,J1,5,Pin_5*%
%TO.N,/MISO*%
X111400000Y-137520000D03*
%TO.P,J1,6,Pin_6*%
%TO.N,GND*%
X108860000Y-137520000D03*
%TD*%
D26*
%TO.N,GND*%
X147270000Y-63760000D03*
X120905000Y-87161000D03*
X119375000Y-123281250D03*
X117655000Y-87161000D03*
X122375000Y-123281250D03*
X173600000Y-128800000D03*
%TD*%
D27*
%TO.N,GND*%
X150460000Y-74390000D02*
X152930000Y-76860000D01*
D28*
X122100000Y-123006250D02*
X122375000Y-123281250D01*
X120605000Y-88273500D02*
X120605000Y-87461000D01*
D27*
X147270000Y-63760000D02*
X150460000Y-66950000D01*
D28*
X120605000Y-87461000D02*
X120905000Y-87161000D01*
X122100000Y-122193750D02*
X122100000Y-123006250D01*
D27*
X174100000Y-128700000D02*
X174100000Y-127312500D01*
X145910000Y-63067500D02*
X146577500Y-63067500D01*
D28*
X119100000Y-122193750D02*
X119100000Y-123006250D01*
X152255000Y-77120000D02*
X152255000Y-76585000D01*
D27*
X150460000Y-66950000D02*
X150460000Y-74390000D01*
X146577500Y-63067500D02*
X147270000Y-63760000D01*
X173600000Y-128800000D02*
X174000000Y-128800000D01*
X174000000Y-128800000D02*
X174100000Y-128700000D01*
D29*
X105380000Y-116961000D02*
X107480000Y-116961000D01*
D28*
X117330000Y-87486000D02*
X117655000Y-87161000D01*
X117330000Y-88273500D02*
X117330000Y-87486000D01*
X119100000Y-123006250D02*
X119375000Y-123281250D01*
D29*
X105355000Y-93411000D02*
X107455000Y-93411000D01*
D28*
%TO.N,+5V*%
X120530000Y-90073500D02*
X120605000Y-89998500D01*
D30*
X121436000Y-93436000D02*
X126687000Y-88185000D01*
D31*
X168170000Y-76860000D02*
X178020000Y-76860000D01*
D28*
X117330000Y-89998500D02*
X120605000Y-89998500D01*
X120530000Y-93436000D02*
X120530000Y-90073500D01*
D30*
X126687000Y-88185000D02*
X143355000Y-88185000D01*
D32*
X118430000Y-93436000D02*
X120530000Y-93436000D01*
D30*
X120530000Y-93436000D02*
X121436000Y-93436000D01*
D28*
%TO.N,/RS_ENABLE*%
X143500000Y-64640000D02*
X144410000Y-64640000D01*
D27*
X144950000Y-67180000D02*
X149210000Y-71440000D01*
D28*
X143500000Y-64640000D02*
X144240000Y-64640000D01*
X144240000Y-64640000D02*
X144492500Y-64892500D01*
D27*
X143500000Y-67180000D02*
X144950000Y-67180000D01*
X149210000Y-71440000D02*
X149210000Y-88380000D01*
D28*
X144492500Y-64892500D02*
X145910000Y-64892500D01*
D27*
X149210000Y-88380000D02*
X152930000Y-92100000D01*
D29*
X143500000Y-64640000D02*
X143500000Y-67180000D01*
D28*
%TO.N,/+12.8V*%
X120555000Y-118923750D02*
X122100000Y-120468750D01*
X122100000Y-120468750D02*
X119100000Y-120468750D01*
D32*
X121969000Y-118400000D02*
X131533506Y-118400000D01*
D29*
X118455000Y-116986000D02*
X120555000Y-116986000D01*
D32*
X120555000Y-116986000D02*
X121969000Y-118400000D01*
X134484900Y-115448606D02*
X131533506Y-118400000D01*
D28*
X120555000Y-116986000D02*
X120555000Y-118923750D01*
D27*
%TO.N,/ANT_DIO1*%
X174087500Y-125500000D02*
X174100000Y-125487500D01*
X171000000Y-125500000D02*
X174087500Y-125500000D01*
D33*
%TO.N,/ANT_RX_EN*%
X168170000Y-94640000D02*
X172160000Y-98630000D01*
X148200000Y-135660000D02*
X172160000Y-111700000D01*
X172160000Y-111700000D02*
X172160000Y-98630000D01*
D28*
%TO.N,/ANT_BUSY*%
X152255000Y-81665000D02*
X152235000Y-81665000D01*
D27*
%TO.N,/CAN_RX*%
X143355000Y-80685000D02*
X146595000Y-80685000D01*
X147870000Y-81960000D02*
X147870000Y-94660000D01*
X146595000Y-80685000D02*
X147870000Y-81960000D01*
X147870000Y-94660000D02*
X152930000Y-99720000D01*
D28*
%TO.N,Net-(CanBus_Module1-CANL)*%
X142955000Y-75285000D02*
X143355000Y-75685000D01*
X104437500Y-75285000D02*
X142955000Y-75285000D01*
%TO.N,Net-(CanBus_Module1-CANH)*%
X104797500Y-78185000D02*
X104437500Y-77825000D01*
X143355000Y-78185000D02*
X104797500Y-78185000D01*
D27*
%TO.N,/MISO*%
X148489842Y-122960000D02*
X152930000Y-118519842D01*
X111400000Y-137520000D02*
X125960000Y-122960000D01*
X152930000Y-118519842D02*
X152930000Y-104800000D01*
X148200000Y-122960000D02*
X148489842Y-122960000D01*
X125960000Y-122960000D02*
X148200000Y-122960000D01*
%TO.N,/CLK*%
X168170000Y-108080000D02*
X168170000Y-104800000D01*
X148200000Y-128040000D02*
X148210000Y-128040000D01*
X148210000Y-128040000D02*
X168170000Y-108080000D01*
%TO.N,/MOSI*%
X128300000Y-125500000D02*
X116480000Y-137320000D01*
X152930000Y-102260000D02*
X155230000Y-104560000D01*
X148200000Y-125500000D02*
X128300000Y-125500000D01*
X116480000Y-137320000D02*
X116480000Y-137520000D01*
X155230000Y-118470000D02*
X148200000Y-125500000D01*
X155230000Y-104560000D02*
X155230000Y-118470000D01*
%TO.N,/CS*%
X126260000Y-130580000D02*
X148200000Y-130580000D01*
X120309000Y-136531000D02*
X120309000Y-136269000D01*
X120571000Y-136269000D02*
X126260000Y-130580000D01*
X119320000Y-137520000D02*
X120309000Y-136531000D01*
X119020000Y-137520000D02*
X119320000Y-137520000D01*
X120309000Y-136269000D02*
X120571000Y-136269000D01*
%TD*%
%TA.AperFunction,Conductor*%
%TO.N,+3.3V*%
G36*
X169667466Y-97561760D02*
G01*
X169700437Y-97585357D01*
X171123181Y-99008101D01*
X171156666Y-99069424D01*
X171159500Y-99095782D01*
X171159500Y-111234217D01*
X171139815Y-111301256D01*
X171123181Y-111321898D01*
X149690756Y-132754322D01*
X149629433Y-132787807D01*
X149559741Y-132782823D01*
X149503808Y-132740951D01*
X149485144Y-132704959D01*
X149451557Y-132601588D01*
X149355051Y-132412184D01*
X149355049Y-132412181D01*
X149355048Y-132412179D01*
X149230109Y-132240213D01*
X149079786Y-132089890D01*
X148907820Y-131964951D01*
X148907115Y-131964591D01*
X148899054Y-131960485D01*
X148848259Y-131912512D01*
X148831463Y-131844692D01*
X148853999Y-131778556D01*
X148899054Y-131739515D01*
X148907816Y-131735051D01*
X148929789Y-131719086D01*
X149079786Y-131610109D01*
X149079788Y-131610106D01*
X149079792Y-131610104D01*
X149230104Y-131459792D01*
X149230106Y-131459788D01*
X149230109Y-131459786D01*
X149355048Y-131287820D01*
X149355047Y-131287820D01*
X149355051Y-131287816D01*
X149451557Y-131098412D01*
X149517246Y-130896243D01*
X149550500Y-130686287D01*
X149550500Y-130473713D01*
X149517246Y-130263757D01*
X149451557Y-130061588D01*
X149355051Y-129872184D01*
X149355049Y-129872181D01*
X149355048Y-129872179D01*
X149230109Y-129700213D01*
X149079786Y-129549890D01*
X148907820Y-129424951D01*
X148907115Y-129424591D01*
X148899054Y-129420485D01*
X148848259Y-129372512D01*
X148831463Y-129304692D01*
X148853999Y-129238556D01*
X148899054Y-129199515D01*
X148907816Y-129195051D01*
X148962270Y-129155488D01*
X149079786Y-129070109D01*
X149079788Y-129070106D01*
X149079792Y-129070104D01*
X149230104Y-128919792D01*
X149230106Y-128919788D01*
X149230109Y-128919786D01*
X149355048Y-128747820D01*
X149355047Y-128747820D01*
X149355051Y-128747816D01*
X149451557Y-128558412D01*
X149517246Y-128356243D01*
X149550500Y-128146287D01*
X149550500Y-127933713D01*
X149536750Y-127846903D01*
X149545704Y-127777610D01*
X149571539Y-127739827D01*
X168752952Y-108558416D01*
X168802186Y-108484729D01*
X168835084Y-108435495D01*
X168858518Y-108378920D01*
X168891659Y-108298912D01*
X168920500Y-108153917D01*
X168920500Y-108006082D01*
X168920500Y-106049024D01*
X168940185Y-105981985D01*
X168971616Y-105948705D01*
X169082361Y-105868245D01*
X169082361Y-105868244D01*
X169082365Y-105868242D01*
X169238242Y-105712365D01*
X169367815Y-105534022D01*
X169467895Y-105337606D01*
X169536015Y-105127951D01*
X169570500Y-104910222D01*
X169570500Y-104689778D01*
X169536015Y-104472049D01*
X169467895Y-104262394D01*
X169467895Y-104262393D01*
X169433237Y-104194375D01*
X169367815Y-104065978D01*
X169351260Y-104043192D01*
X169238247Y-103887641D01*
X169238243Y-103887636D01*
X169082363Y-103731756D01*
X169082358Y-103731752D01*
X168942319Y-103630008D01*
X168899653Y-103574678D01*
X168893674Y-103505065D01*
X168926279Y-103443270D01*
X168942319Y-103429372D01*
X168967513Y-103411066D01*
X168967514Y-103411066D01*
X168381059Y-102824612D01*
X168401591Y-102819111D01*
X168538408Y-102740119D01*
X168650119Y-102628408D01*
X168729111Y-102491591D01*
X168734612Y-102471059D01*
X169321066Y-103057514D01*
X169321066Y-103057513D01*
X169367386Y-102993760D01*
X169467432Y-102797410D01*
X169535526Y-102587835D01*
X169570000Y-102370181D01*
X169570000Y-102149818D01*
X169535526Y-101932164D01*
X169467432Y-101722589D01*
X169367388Y-101526243D01*
X169321066Y-101462485D01*
X169321065Y-101462485D01*
X168734612Y-102048939D01*
X168729111Y-102028409D01*
X168650119Y-101891592D01*
X168538408Y-101779881D01*
X168401591Y-101700889D01*
X168381057Y-101695387D01*
X168967513Y-101108932D01*
X168942319Y-101090628D01*
X168899653Y-101035298D01*
X168893674Y-100965685D01*
X168926279Y-100903889D01*
X168942313Y-100889994D01*
X169082365Y-100788242D01*
X169238242Y-100632365D01*
X169367815Y-100454022D01*
X169467895Y-100257606D01*
X169536015Y-100047951D01*
X169570500Y-99830222D01*
X169570500Y-99609778D01*
X169536015Y-99392049D01*
X169467895Y-99182394D01*
X169467895Y-99182393D01*
X169433237Y-99114375D01*
X169367815Y-98985978D01*
X169351260Y-98963192D01*
X169238247Y-98807641D01*
X169238243Y-98807636D01*
X169082363Y-98651756D01*
X169082358Y-98651752D01*
X168942745Y-98550318D01*
X168900079Y-98494989D01*
X168894100Y-98425375D01*
X168926705Y-98363580D01*
X168942745Y-98349682D01*
X169082358Y-98248247D01*
X169082356Y-98248247D01*
X169082365Y-98248242D01*
X169238242Y-98092365D01*
X169367815Y-97914022D01*
X169467895Y-97717606D01*
X169494826Y-97634718D01*
X169534261Y-97577046D01*
X169598619Y-97549847D01*
X169667466Y-97561760D01*
G37*
%TD.AperFunction*%
%TA.AperFunction,Conductor*%
G36*
X180570967Y-58820185D02*
G01*
X180616722Y-58872989D01*
X180627928Y-58924500D01*
X180627932Y-61472309D01*
X180627932Y-61472467D01*
X180627926Y-61477171D01*
X180627873Y-61477350D01*
X180627873Y-61727249D01*
X180664566Y-62123202D01*
X180664568Y-62123219D01*
X180737635Y-62514079D01*
X180737638Y-62514090D01*
X180846461Y-62896554D01*
X180864909Y-62944171D01*
X180882786Y-62990318D01*
X180891626Y-63013134D01*
X180900000Y-63057929D01*
X180900000Y-75999019D01*
X180891627Y-76043812D01*
X180846500Y-76160297D01*
X180846499Y-76160300D01*
X180737680Y-76542769D01*
X180737679Y-76542770D01*
X180664612Y-76933655D01*
X180664611Y-76933662D01*
X180627925Y-77329606D01*
X180627927Y-77488838D01*
X180627927Y-77488840D01*
X180627932Y-122472309D01*
X180627932Y-122472467D01*
X180627926Y-122477171D01*
X180627873Y-122477350D01*
X180627873Y-122727249D01*
X180664566Y-123123202D01*
X180664568Y-123123219D01*
X180737635Y-123514079D01*
X180737638Y-123514090D01*
X180846461Y-123896554D01*
X180846463Y-123896558D01*
X180887664Y-124002909D01*
X180891626Y-124013134D01*
X180900000Y-124057929D01*
X180900000Y-136999019D01*
X180891627Y-137043812D01*
X180846500Y-137160297D01*
X180846499Y-137160300D01*
X180737680Y-137542769D01*
X180737679Y-137542770D01*
X180664612Y-137933655D01*
X180664611Y-137933662D01*
X180627925Y-138329606D01*
X180627925Y-138526514D01*
X180627919Y-138527700D01*
X180603536Y-141076686D01*
X180583211Y-141143534D01*
X180529972Y-141188782D01*
X180479542Y-141199500D01*
X100296073Y-141199500D01*
X100229034Y-141179815D01*
X100183279Y-141127011D01*
X100172073Y-141075500D01*
X100172073Y-138522986D01*
X100172126Y-138522802D01*
X100172126Y-138471571D01*
X100172127Y-138471571D01*
X100172126Y-138272746D01*
X100135433Y-137876791D01*
X100122328Y-137806687D01*
X100062364Y-137485920D01*
X100062361Y-137485909D01*
X99953537Y-137103442D01*
X99921211Y-137020000D01*
X99908374Y-136986863D01*
X99900000Y-136942069D01*
X99900000Y-124000979D01*
X99908373Y-123956185D01*
X99953501Y-123839697D01*
X100062321Y-123457227D01*
X100135387Y-123066349D01*
X100172075Y-122670396D01*
X100172073Y-122471571D01*
X100172073Y-122423976D01*
X100172072Y-122423975D01*
X100172071Y-116842902D01*
X103879500Y-116842902D01*
X103879500Y-117079097D01*
X103916446Y-117312368D01*
X103989433Y-117536996D01*
X104065868Y-117687007D01*
X104096657Y-117747433D01*
X104235483Y-117938510D01*
X104402490Y-118105517D01*
X104593567Y-118244343D01*
X104663742Y-118280099D01*
X104804003Y-118351566D01*
X104804005Y-118351566D01*
X104804008Y-118351568D01*
X104924412Y-118390689D01*
X105028631Y-118424553D01*
X105261903Y-118461500D01*
X105261908Y-118461500D01*
X107598097Y-118461500D01*
X107831368Y-118424553D01*
X107918989Y-118396083D01*
X108055992Y-118351568D01*
X108266433Y-118244343D01*
X108292109Y-118225687D01*
X108330341Y-118208145D01*
X108330214Y-118207802D01*
X108334892Y-118206056D01*
X108336488Y-118205325D01*
X108337470Y-118205092D01*
X108337483Y-118205091D01*
X108472331Y-118154796D01*
X108587546Y-118068546D01*
X108673796Y-117953331D01*
X108724091Y-117818483D01*
X108724092Y-117818472D01*
X108724324Y-117817493D01*
X108725053Y-117815902D01*
X108726802Y-117811215D01*
X108727145Y-117811343D01*
X108744686Y-117773111D01*
X108763343Y-117747433D01*
X108870568Y-117536992D01*
X108943553Y-117312368D01*
X108976540Y-117104097D01*
X108980500Y-117079097D01*
X108980500Y-116867902D01*
X116954500Y-116867902D01*
X116954500Y-117104097D01*
X116991446Y-117337368D01*
X117064433Y-117561996D01*
X117128130Y-117687007D01*
X117171657Y-117772433D01*
X117310483Y-117963510D01*
X117477490Y-118130517D01*
X117668567Y-118269343D01*
X117767991Y-118320002D01*
X117879003Y-118376566D01*
X117879005Y-118376566D01*
X117879008Y-118376568D01*
X117939069Y-118396083D01*
X118103631Y-118449553D01*
X118336903Y-118486500D01*
X118336908Y-118486500D01*
X119805500Y-118486500D01*
X119872539Y-118506185D01*
X119918294Y-118558989D01*
X119929500Y-118610500D01*
X119929500Y-118985361D01*
X119953535Y-119106194D01*
X119953540Y-119106211D01*
X120000685Y-119220031D01*
X120000688Y-119220036D01*
X120030699Y-119264949D01*
X120069142Y-119322483D01*
X120156267Y-119409608D01*
X120156270Y-119409610D01*
X120163751Y-119417091D01*
X120378229Y-119631569D01*
X120411714Y-119692892D01*
X120406730Y-119762584D01*
X120364858Y-119818517D01*
X120299394Y-119842934D01*
X120290548Y-119843250D01*
X120073032Y-119843250D01*
X120005993Y-119823565D01*
X119967494Y-119784347D01*
X119920342Y-119707903D01*
X119920339Y-119707899D01*
X119798351Y-119585911D01*
X119798350Y-119585910D01*
X119651516Y-119495342D01*
X119487753Y-119441076D01*
X119487751Y-119441075D01*
X119386678Y-119430750D01*
X118813330Y-119430750D01*
X118813312Y-119430751D01*
X118712247Y-119441075D01*
X118548484Y-119495342D01*
X118548481Y-119495343D01*
X118401648Y-119585911D01*
X118279661Y-119707898D01*
X118189093Y-119854731D01*
X118189092Y-119854734D01*
X118134826Y-120018497D01*
X118134826Y-120018498D01*
X118134825Y-120018498D01*
X118124500Y-120119565D01*
X118124500Y-120817919D01*
X118124501Y-120817937D01*
X118134825Y-120919002D01*
X118189092Y-121082765D01*
X118189093Y-121082768D01*
X118279661Y-121229601D01*
X118293629Y-121243569D01*
X118327114Y-121304892D01*
X118322130Y-121374584D01*
X118293629Y-121418931D01*
X118279661Y-121432898D01*
X118189093Y-121579731D01*
X118189091Y-121579736D01*
X118173267Y-121627491D01*
X118134826Y-121743497D01*
X118134826Y-121743498D01*
X118134825Y-121743498D01*
X118124500Y-121844565D01*
X118124500Y-122542919D01*
X118124501Y-122542937D01*
X118134825Y-122644002D01*
X118162411Y-122727249D01*
X118189092Y-122807766D01*
X118279660Y-122954600D01*
X118401650Y-123076590D01*
X118440687Y-123100668D01*
X118487410Y-123152615D01*
X118487912Y-123153676D01*
X118494277Y-123167286D01*
X118498537Y-123188701D01*
X118545688Y-123302536D01*
X118579915Y-123353759D01*
X118585145Y-123361586D01*
X118585146Y-123361588D01*
X118614141Y-123404983D01*
X118618007Y-123409693D01*
X118616706Y-123410760D01*
X118646328Y-123465008D01*
X118646779Y-123467173D01*
X118653340Y-123500159D01*
X118653342Y-123500165D01*
X118709912Y-123636738D01*
X118709919Y-123636751D01*
X118792048Y-123759665D01*
X118792051Y-123759669D01*
X118896580Y-123864198D01*
X118896584Y-123864201D01*
X119019498Y-123946330D01*
X119019511Y-123946337D01*
X119125175Y-123990104D01*
X119156087Y-124002908D01*
X119156091Y-124002908D01*
X119156092Y-124002909D01*
X119301079Y-124031750D01*
X119301082Y-124031750D01*
X119448920Y-124031750D01*
X119546462Y-124012346D01*
X119593913Y-124002908D01*
X119730495Y-123946334D01*
X119853416Y-123864201D01*
X119957951Y-123759666D01*
X120040084Y-123636745D01*
X120096658Y-123500163D01*
X120125500Y-123355168D01*
X120125500Y-123207332D01*
X120125500Y-123207329D01*
X120096659Y-123062342D01*
X120096658Y-123062341D01*
X120096658Y-123062337D01*
X120096656Y-123062332D01*
X120040086Y-122925759D01*
X120040084Y-122925756D01*
X120040084Y-122925755D01*
X120028106Y-122907829D01*
X120007228Y-122841154D01*
X120013501Y-122799940D01*
X120065174Y-122644003D01*
X120075500Y-122542927D01*
X120075499Y-121844574D01*
X120070995Y-121800486D01*
X120065174Y-121743497D01*
X120049207Y-121695312D01*
X120010908Y-121579734D01*
X119920340Y-121432900D01*
X119906371Y-121418931D01*
X119872886Y-121357608D01*
X119877870Y-121287916D01*
X119892417Y-121260213D01*
X119898662Y-121251277D01*
X119920340Y-121229600D01*
X119969354Y-121150135D01*
X119971397Y-121147213D01*
X119996004Y-121127509D01*
X120019442Y-121106428D01*
X120023476Y-121105511D01*
X120025936Y-121103542D01*
X120037413Y-121102344D01*
X120073032Y-121094250D01*
X121126968Y-121094250D01*
X121194007Y-121113935D01*
X121232506Y-121153153D01*
X121279657Y-121229596D01*
X121279660Y-121229600D01*
X121293629Y-121243569D01*
X121327114Y-121304892D01*
X121322130Y-121374584D01*
X121293629Y-121418931D01*
X121279661Y-121432898D01*
X121189093Y-121579731D01*
X121189091Y-121579736D01*
X121173267Y-121627491D01*
X121134826Y-121743497D01*
X121134826Y-121743498D01*
X121134825Y-121743498D01*
X121124500Y-121844565D01*
X121124500Y-122542919D01*
X121124501Y-122542937D01*
X121134825Y-122644002D01*
X121162411Y-122727249D01*
X121189092Y-122807766D01*
X121279660Y-122954600D01*
X121401650Y-123076590D01*
X121440687Y-123100668D01*
X121487410Y-123152615D01*
X121487912Y-123153676D01*
X121494277Y-123167286D01*
X121498537Y-123188701D01*
X121545688Y-123302536D01*
X121579915Y-123353759D01*
X121585145Y-123361586D01*
X121585146Y-123361588D01*
X121614141Y-123404983D01*
X121618007Y-123409693D01*
X121616706Y-123410760D01*
X121646328Y-123465008D01*
X121646779Y-123467173D01*
X121653340Y-123500159D01*
X121653342Y-123500165D01*
X121709912Y-123636738D01*
X121709919Y-123636751D01*
X121792048Y-123759665D01*
X121792051Y-123759669D01*
X121896580Y-123864198D01*
X121896584Y-123864201D01*
X122019498Y-123946330D01*
X122019511Y-123946337D01*
X122125175Y-123990104D01*
X122156087Y-124002908D01*
X122156091Y-124002908D01*
X122156092Y-124002909D01*
X122301079Y-124031750D01*
X122301082Y-124031750D01*
X122448920Y-124031750D01*
X122546462Y-124012346D01*
X122593913Y-124002908D01*
X122730495Y-123946334D01*
X122853416Y-123864201D01*
X122957951Y-123759666D01*
X123040084Y-123636745D01*
X123096658Y-123500163D01*
X123125500Y-123355168D01*
X123125500Y-123207332D01*
X123125500Y-123207329D01*
X123096659Y-123062342D01*
X123096658Y-123062341D01*
X123096658Y-123062337D01*
X123096656Y-123062332D01*
X123040086Y-122925759D01*
X123040084Y-122925756D01*
X123040084Y-122925755D01*
X123028106Y-122907829D01*
X123007228Y-122841154D01*
X123013501Y-122799940D01*
X123065174Y-122644003D01*
X123075500Y-122542927D01*
X123075499Y-121844574D01*
X123070995Y-121800486D01*
X123065174Y-121743497D01*
X123049207Y-121695312D01*
X123010908Y-121579734D01*
X122920340Y-121432900D01*
X122906371Y-121418931D01*
X122872886Y-121357608D01*
X122877870Y-121287916D01*
X122906371Y-121243569D01*
X122920340Y-121229600D01*
X123010908Y-121082766D01*
X123065174Y-120919003D01*
X123075500Y-120817927D01*
X123075499Y-120119574D01*
X123065174Y-120018497D01*
X123038667Y-119938504D01*
X123036265Y-119868676D01*
X123071997Y-119808634D01*
X123134517Y-119777441D01*
X123156373Y-119775500D01*
X131641759Y-119775500D01*
X131641760Y-119775500D01*
X131855603Y-119741630D01*
X132061515Y-119674726D01*
X132254425Y-119576433D01*
X132291839Y-119549250D01*
X132429584Y-119449173D01*
X135534072Y-116344685D01*
X135661332Y-116169525D01*
X135759626Y-115976615D01*
X135826530Y-115770703D01*
X135857058Y-115577957D01*
X135860399Y-115556865D01*
X135860399Y-115340351D01*
X135859359Y-115333785D01*
X135859359Y-115333782D01*
X135857058Y-115319254D01*
X139191400Y-115319254D01*
X139191400Y-115577957D01*
X139225334Y-115792206D01*
X139231868Y-115833460D01*
X139288739Y-116008490D01*
X139311810Y-116079493D01*
X139357683Y-116169524D01*
X139429253Y-116309988D01*
X139581308Y-116519274D01*
X139764232Y-116702198D01*
X139973518Y-116854253D01*
X140204015Y-116971697D01*
X140450046Y-117051638D01*
X140545861Y-117066813D01*
X140705549Y-117092106D01*
X140705554Y-117092106D01*
X140964251Y-117092106D01*
X141106194Y-117069623D01*
X141219754Y-117051638D01*
X141465785Y-116971697D01*
X141696282Y-116854253D01*
X141905568Y-116702198D01*
X142088492Y-116519274D01*
X142240547Y-116309988D01*
X142357991Y-116079491D01*
X142437932Y-115833460D01*
X142462608Y-115677659D01*
X142478400Y-115577957D01*
X142478400Y-115319254D01*
X142451421Y-115148921D01*
X142437932Y-115063752D01*
X142357991Y-114817721D01*
X142240547Y-114587224D01*
X142088492Y-114377938D01*
X141905568Y-114195014D01*
X141696282Y-114042959D01*
X141465785Y-113925515D01*
X141219754Y-113845574D01*
X141219752Y-113845573D01*
X141219750Y-113845573D01*
X140964251Y-113805106D01*
X140964246Y-113805106D01*
X140705554Y-113805106D01*
X140705549Y-113805106D01*
X140450049Y-113845573D01*
X140204012Y-113925516D01*
X139973517Y-114042959D01*
X139764229Y-114195016D01*
X139581310Y-114377935D01*
X139429253Y-114587223D01*
X139311810Y-114817718D01*
X139231867Y-115063755D01*
X139191400Y-115319254D01*
X135857058Y-115319254D01*
X135844379Y-115239206D01*
X135826530Y-115126509D01*
X135759626Y-114920598D01*
X135661332Y-114727688D01*
X135534072Y-114552528D01*
X135380978Y-114399434D01*
X135351387Y-114377935D01*
X135205817Y-114272173D01*
X135117901Y-114227377D01*
X135012908Y-114173880D01*
X135012904Y-114173878D01*
X135012899Y-114173876D01*
X134806998Y-114106976D01*
X134593159Y-114073107D01*
X134593154Y-114073107D01*
X134376646Y-114073107D01*
X134376641Y-114073107D01*
X134162801Y-114106976D01*
X133956897Y-114173877D01*
X133763981Y-114272173D01*
X133588820Y-114399434D01*
X131000074Y-116988181D01*
X130938751Y-117021666D01*
X130912393Y-117024500D01*
X129143590Y-117024500D01*
X129076551Y-117004815D01*
X129030796Y-116952011D01*
X129020852Y-116882853D01*
X129049877Y-116819297D01*
X129070705Y-116800182D01*
X129112766Y-116769622D01*
X129205568Y-116702198D01*
X129388492Y-116519274D01*
X129540547Y-116309988D01*
X129657991Y-116079491D01*
X129737932Y-115833460D01*
X129762608Y-115677659D01*
X129778400Y-115577957D01*
X129778400Y-115319254D01*
X129751421Y-115148921D01*
X129737932Y-115063752D01*
X129657991Y-114817721D01*
X129540547Y-114587224D01*
X129388492Y-114377938D01*
X129205568Y-114195014D01*
X128996282Y-114042959D01*
X128765785Y-113925515D01*
X128519754Y-113845574D01*
X128519752Y-113845573D01*
X128519750Y-113845573D01*
X128264251Y-113805106D01*
X128264246Y-113805106D01*
X128005554Y-113805106D01*
X128005549Y-113805106D01*
X127750049Y-113845573D01*
X127504012Y-113925516D01*
X127273517Y-114042959D01*
X127064229Y-114195016D01*
X126881310Y-114377935D01*
X126729253Y-114587223D01*
X126611810Y-114817718D01*
X126531867Y-115063755D01*
X126491400Y-115319254D01*
X126491400Y-115577957D01*
X126525334Y-115792206D01*
X126531868Y-115833460D01*
X126588739Y-116008490D01*
X126611810Y-116079493D01*
X126657683Y-116169524D01*
X126729253Y-116309988D01*
X126881308Y-116519274D01*
X127064232Y-116702198D01*
X127064235Y-116702200D01*
X127199095Y-116800182D01*
X127241761Y-116855512D01*
X127247740Y-116925125D01*
X127215134Y-116986920D01*
X127154295Y-117021278D01*
X127126210Y-117024500D01*
X122590113Y-117024500D01*
X122523074Y-117004815D01*
X122502432Y-116988181D01*
X121976875Y-116462624D01*
X121946624Y-116413257D01*
X121945569Y-116410011D01*
X121945568Y-116410007D01*
X121894605Y-116309988D01*
X121838343Y-116199567D01*
X121820179Y-116174567D01*
X121819686Y-116173888D01*
X121802145Y-116135658D01*
X121801802Y-116135786D01*
X121800056Y-116131106D01*
X121799326Y-116129514D01*
X121799091Y-116128525D01*
X121799091Y-116128517D01*
X121748796Y-115993669D01*
X121748795Y-115993668D01*
X121748793Y-115993664D01*
X121662547Y-115878455D01*
X121662544Y-115878452D01*
X121547335Y-115792206D01*
X121547326Y-115792201D01*
X121412479Y-115741907D01*
X121411466Y-115741668D01*
X121409856Y-115740929D01*
X121405217Y-115739199D01*
X121405344Y-115738858D01*
X121367112Y-115721313D01*
X121341436Y-115702659D01*
X121341435Y-115702658D01*
X121341433Y-115702657D01*
X121275715Y-115669172D01*
X121130996Y-115595433D01*
X120906368Y-115522446D01*
X120673097Y-115485500D01*
X120673092Y-115485500D01*
X118336908Y-115485500D01*
X118336903Y-115485500D01*
X118103631Y-115522446D01*
X117879003Y-115595433D01*
X117668566Y-115702657D01*
X117559550Y-115781862D01*
X117477490Y-115841483D01*
X117477488Y-115841485D01*
X117477487Y-115841485D01*
X117310485Y-116008487D01*
X117310485Y-116008488D01*
X117310483Y-116008490D01*
X117258898Y-116079491D01*
X117171657Y-116199566D01*
X117064433Y-116410003D01*
X116991446Y-116634631D01*
X116954500Y-116867902D01*
X108980500Y-116867902D01*
X108980500Y-116842902D01*
X108943553Y-116609631D01*
X108888947Y-116441573D01*
X108870568Y-116385008D01*
X108870566Y-116385005D01*
X108870566Y-116385003D01*
X108817872Y-116281587D01*
X108763343Y-116174567D01*
X108744686Y-116148888D01*
X108727145Y-116110658D01*
X108726802Y-116110786D01*
X108725056Y-116106106D01*
X108724326Y-116104514D01*
X108724091Y-116103525D01*
X108724091Y-116103517D01*
X108683121Y-115993671D01*
X108673797Y-115968671D01*
X108673793Y-115968664D01*
X108587547Y-115853455D01*
X108587544Y-115853452D01*
X108472335Y-115767206D01*
X108472326Y-115767201D01*
X108337479Y-115716907D01*
X108336466Y-115716668D01*
X108334856Y-115715929D01*
X108330217Y-115714199D01*
X108330344Y-115713858D01*
X108292112Y-115696313D01*
X108266436Y-115677659D01*
X108266435Y-115677658D01*
X108266433Y-115677657D01*
X108200715Y-115644172D01*
X108055996Y-115570433D01*
X107831368Y-115497446D01*
X107598097Y-115460500D01*
X107598092Y-115460500D01*
X105261908Y-115460500D01*
X105261903Y-115460500D01*
X105028631Y-115497446D01*
X104804003Y-115570433D01*
X104593566Y-115677657D01*
X104509331Y-115738858D01*
X104402490Y-115816483D01*
X104402488Y-115816485D01*
X104402487Y-115816485D01*
X104235485Y-115983487D01*
X104235485Y-115983488D01*
X104235483Y-115983490D01*
X104175862Y-116065550D01*
X104096657Y-116174566D01*
X103989433Y-116385003D01*
X103916446Y-116609631D01*
X103879500Y-116842902D01*
X100172071Y-116842902D01*
X100172070Y-112844248D01*
X130658900Y-112844248D01*
X130658900Y-113052963D01*
X130691550Y-113259112D01*
X130756049Y-113457617D01*
X130850803Y-113643581D01*
X130973484Y-113812437D01*
X131121069Y-113960022D01*
X131289925Y-114082703D01*
X131337564Y-114106976D01*
X131475888Y-114177456D01*
X131475890Y-114177456D01*
X131475893Y-114177458D01*
X131529925Y-114195014D01*
X131674393Y-114241955D01*
X131777468Y-114258280D01*
X131880542Y-114274606D01*
X131880543Y-114274606D01*
X132089257Y-114274606D01*
X132089258Y-114274606D01*
X132295406Y-114241955D01*
X132493907Y-114177458D01*
X132679875Y-114082703D01*
X132848731Y-113960022D01*
X132996316Y-113812437D01*
X133118997Y-113643581D01*
X133213752Y-113457613D01*
X133278249Y-113259112D01*
X133310900Y-113052964D01*
X133310900Y-112844248D01*
X135658900Y-112844248D01*
X135658900Y-113052963D01*
X135691550Y-113259112D01*
X135756049Y-113457617D01*
X135850803Y-113643581D01*
X135973484Y-113812437D01*
X136121069Y-113960022D01*
X136289925Y-114082703D01*
X136337564Y-114106976D01*
X136475888Y-114177456D01*
X136475890Y-114177456D01*
X136475893Y-114177458D01*
X136529925Y-114195014D01*
X136674393Y-114241955D01*
X136777468Y-114258280D01*
X136880542Y-114274606D01*
X136880543Y-114274606D01*
X137089257Y-114274606D01*
X137089258Y-114274606D01*
X137295406Y-114241955D01*
X137493907Y-114177458D01*
X137679875Y-114082703D01*
X137848731Y-113960022D01*
X137996316Y-113812437D01*
X138118997Y-113643581D01*
X138213752Y-113457613D01*
X138278249Y-113259112D01*
X138310900Y-113052964D01*
X138310900Y-112844248D01*
X138278249Y-112638100D01*
X138213752Y-112439599D01*
X138213750Y-112439596D01*
X138213750Y-112439594D01*
X138118996Y-112253630D01*
X137996316Y-112084775D01*
X137848731Y-111937190D01*
X137679875Y-111814509D01*
X137601561Y-111774606D01*
X137493911Y-111719755D01*
X137295406Y-111655256D01*
X137117443Y-111627070D01*
X137089258Y-111622606D01*
X136880542Y-111622606D01*
X136855746Y-111626533D01*
X136674393Y-111655256D01*
X136475888Y-111719755D01*
X136289924Y-111814509D01*
X136121066Y-111937192D01*
X135973486Y-112084772D01*
X135850803Y-112253630D01*
X135756049Y-112439594D01*
X135691550Y-112638099D01*
X135658900Y-112844248D01*
X133310900Y-112844248D01*
X133278249Y-112638100D01*
X133213752Y-112439599D01*
X133213750Y-112439596D01*
X133213750Y-112439594D01*
X133118996Y-112253630D01*
X132996316Y-112084775D01*
X132848731Y-111937190D01*
X132679875Y-111814509D01*
X132601561Y-111774606D01*
X132493911Y-111719755D01*
X132295406Y-111655256D01*
X132117443Y-111627070D01*
X132089258Y-111622606D01*
X131880542Y-111622606D01*
X131855746Y-111626533D01*
X131674393Y-111655256D01*
X131475888Y-111719755D01*
X131289924Y-111814509D01*
X131121066Y-111937192D01*
X130973486Y-112084772D01*
X130850803Y-112253630D01*
X130756049Y-112439594D01*
X130691550Y-112638099D01*
X130658900Y-112844248D01*
X100172070Y-112844248D01*
X100172070Y-110319132D01*
X126491400Y-110319132D01*
X126491400Y-110577835D01*
X126531867Y-110833334D01*
X126531868Y-110833338D01*
X126611809Y-111079369D01*
X126729253Y-111309866D01*
X126881308Y-111519152D01*
X127064232Y-111702076D01*
X127273518Y-111854131D01*
X127504015Y-111971575D01*
X127750046Y-112051516D01*
X127845861Y-112066691D01*
X128005549Y-112091984D01*
X128005554Y-112091984D01*
X128264251Y-112091984D01*
X128406194Y-112069501D01*
X128519754Y-112051516D01*
X128765785Y-111971575D01*
X128996282Y-111854131D01*
X129205568Y-111702076D01*
X129388492Y-111519152D01*
X129540547Y-111309866D01*
X129657991Y-111079369D01*
X129737932Y-110833338D01*
X129755917Y-110719778D01*
X129778400Y-110577835D01*
X129778400Y-110344248D01*
X133158900Y-110344248D01*
X133158900Y-110552963D01*
X133191550Y-110759112D01*
X133256049Y-110957617D01*
X133350803Y-111143581D01*
X133473484Y-111312437D01*
X133621069Y-111460022D01*
X133789925Y-111582703D01*
X133877788Y-111627471D01*
X133975888Y-111677456D01*
X133975890Y-111677456D01*
X133975893Y-111677458D01*
X134082294Y-111712030D01*
X134174393Y-111741955D01*
X134277468Y-111758280D01*
X134380542Y-111774606D01*
X134380543Y-111774606D01*
X134589257Y-111774606D01*
X134589258Y-111774606D01*
X134795406Y-111741955D01*
X134993907Y-111677458D01*
X135179875Y-111582703D01*
X135348731Y-111460022D01*
X135496316Y-111312437D01*
X135618997Y-111143581D01*
X135713752Y-110957613D01*
X135778249Y-110759112D01*
X135810900Y-110552964D01*
X135810900Y-110344248D01*
X135806922Y-110319132D01*
X139191400Y-110319132D01*
X139191400Y-110577835D01*
X139231867Y-110833334D01*
X139231868Y-110833338D01*
X139311809Y-111079369D01*
X139429253Y-111309866D01*
X139581308Y-111519152D01*
X139764232Y-111702076D01*
X139973518Y-111854131D01*
X140204015Y-111971575D01*
X140450046Y-112051516D01*
X140545861Y-112066691D01*
X140705549Y-112091984D01*
X140705554Y-112091984D01*
X140964251Y-112091984D01*
X141106194Y-112069501D01*
X141219754Y-112051516D01*
X141465785Y-111971575D01*
X141696282Y-111854131D01*
X141905568Y-111702076D01*
X142088492Y-111519152D01*
X142240547Y-111309866D01*
X142357991Y-111079369D01*
X142437932Y-110833338D01*
X142455917Y-110719778D01*
X142478400Y-110577835D01*
X142478400Y-110319132D01*
X142437932Y-110063633D01*
X142437932Y-110063630D01*
X142357991Y-109817599D01*
X142240547Y-109587102D01*
X142088492Y-109377816D01*
X141905568Y-109194892D01*
X141696282Y-109042837D01*
X141465785Y-108925393D01*
X141219754Y-108845452D01*
X141219752Y-108845451D01*
X141219750Y-108845451D01*
X140964251Y-108804984D01*
X140964246Y-108804984D01*
X140705554Y-108804984D01*
X140705549Y-108804984D01*
X140450049Y-108845451D01*
X140204012Y-108925394D01*
X139973517Y-109042837D01*
X139764229Y-109194894D01*
X139581310Y-109377813D01*
X139429253Y-109587101D01*
X139311810Y-109817596D01*
X139231867Y-110063633D01*
X139191400Y-110319132D01*
X135806922Y-110319132D01*
X135806151Y-110314266D01*
X135778249Y-110138099D01*
X135713750Y-109939594D01*
X135618996Y-109753630D01*
X135496316Y-109584775D01*
X135348731Y-109437190D01*
X135179875Y-109314509D01*
X134993911Y-109219755D01*
X134795406Y-109155256D01*
X134617443Y-109127070D01*
X134589258Y-109122606D01*
X134380542Y-109122606D01*
X134355746Y-109126533D01*
X134174393Y-109155256D01*
X133975888Y-109219755D01*
X133789924Y-109314509D01*
X133621066Y-109437192D01*
X133473486Y-109584772D01*
X133350803Y-109753630D01*
X133256049Y-109939594D01*
X133191550Y-110138099D01*
X133158900Y-110344248D01*
X129778400Y-110344248D01*
X129778400Y-110319132D01*
X129737932Y-110063633D01*
X129737932Y-110063630D01*
X129657991Y-109817599D01*
X129540547Y-109587102D01*
X129388492Y-109377816D01*
X129205568Y-109194892D01*
X128996282Y-109042837D01*
X128765785Y-108925393D01*
X128519754Y-108845452D01*
X128519752Y-108845451D01*
X128519750Y-108845451D01*
X128264251Y-108804984D01*
X128264246Y-108804984D01*
X128005554Y-108804984D01*
X128005549Y-108804984D01*
X127750049Y-108845451D01*
X127504012Y-108925394D01*
X127273517Y-109042837D01*
X127064229Y-109194894D01*
X126881310Y-109377813D01*
X126729253Y-109587101D01*
X126611810Y-109817596D01*
X126531867Y-110063633D01*
X126491400Y-110319132D01*
X100172070Y-110319132D01*
X100172068Y-93292902D01*
X103854500Y-93292902D01*
X103854500Y-93529097D01*
X103891446Y-93762368D01*
X103964433Y-93986996D01*
X104023232Y-94102394D01*
X104071657Y-94197433D01*
X104210483Y-94388510D01*
X104377490Y-94555517D01*
X104568567Y-94694343D01*
X104646241Y-94733920D01*
X104779003Y-94801566D01*
X104779005Y-94801566D01*
X104779008Y-94801568D01*
X104899412Y-94840689D01*
X105003631Y-94874553D01*
X105236903Y-94911500D01*
X105236908Y-94911500D01*
X107573097Y-94911500D01*
X107806368Y-94874553D01*
X108030992Y-94801568D01*
X108241433Y-94694343D01*
X108267109Y-94675687D01*
X108305341Y-94658145D01*
X108305214Y-94657802D01*
X108309892Y-94656056D01*
X108311488Y-94655325D01*
X108312470Y-94655092D01*
X108312483Y-94655091D01*
X108447331Y-94604796D01*
X108562546Y-94518546D01*
X108648796Y-94403331D01*
X108699091Y-94268483D01*
X108699092Y-94268472D01*
X108699324Y-94267493D01*
X108700053Y-94265902D01*
X108701802Y-94261215D01*
X108702145Y-94261343D01*
X108719686Y-94223111D01*
X108738343Y-94197433D01*
X108845568Y-93986992D01*
X108918553Y-93762368D01*
X108924054Y-93727635D01*
X108955500Y-93529097D01*
X108955500Y-93292902D01*
X108918553Y-93059631D01*
X108845566Y-92835003D01*
X108784462Y-92715080D01*
X108738343Y-92624567D01*
X108719686Y-92598888D01*
X108702145Y-92560658D01*
X108701802Y-92560786D01*
X108700056Y-92556106D01*
X108699326Y-92554514D01*
X108699091Y-92553525D01*
X108699091Y-92553517D01*
X108654323Y-92433487D01*
X108648797Y-92418671D01*
X108648793Y-92418664D01*
X108562547Y-92303455D01*
X108562544Y-92303452D01*
X108447335Y-92217206D01*
X108447326Y-92217201D01*
X108312479Y-92166907D01*
X108311466Y-92166668D01*
X108309856Y-92165929D01*
X108305217Y-92164199D01*
X108305344Y-92163858D01*
X108267112Y-92146313D01*
X108241436Y-92127659D01*
X108241435Y-92127658D01*
X108241433Y-92127657D01*
X108175715Y-92094172D01*
X108030996Y-92020433D01*
X107806368Y-91947446D01*
X107573097Y-91910500D01*
X107573092Y-91910500D01*
X105236908Y-91910500D01*
X105236903Y-91910500D01*
X105003631Y-91947446D01*
X104779003Y-92020433D01*
X104568566Y-92127657D01*
X104518271Y-92164199D01*
X104377490Y-92266483D01*
X104377488Y-92266485D01*
X104377487Y-92266485D01*
X104210485Y-92433487D01*
X104210485Y-92433488D01*
X104210483Y-92433490D01*
X104150862Y-92515550D01*
X104071657Y-92624566D01*
X103964433Y-92835003D01*
X103891446Y-93059631D01*
X103854500Y-93292902D01*
X100172068Y-93292902D01*
X100172066Y-77529068D01*
X100172073Y-77522847D01*
X100172126Y-77522663D01*
X100172126Y-77471571D01*
X100172127Y-77471571D01*
X100172126Y-77272746D01*
X100135433Y-76876791D01*
X100131360Y-76855005D01*
X100062364Y-76485920D01*
X100062361Y-76485909D01*
X99953537Y-76103442D01*
X99926828Y-76034500D01*
X99908374Y-75986863D01*
X99900000Y-75942069D01*
X99900000Y-74484983D01*
X102937000Y-74484983D01*
X102937000Y-76085001D01*
X102937001Y-76085018D01*
X102947500Y-76187796D01*
X102947501Y-76187799D01*
X103002685Y-76354331D01*
X103002687Y-76354336D01*
X103037569Y-76410888D01*
X103094788Y-76503656D01*
X103218844Y-76627712D01*
X103260602Y-76653468D01*
X103267156Y-76657511D01*
X103313881Y-76709459D01*
X103325104Y-76778421D01*
X103297260Y-76842504D01*
X103296115Y-76843759D01*
X103296147Y-76843786D01*
X103292985Y-76847487D01*
X103292983Y-76847490D01*
X103242907Y-76916413D01*
X103154157Y-77038566D01*
X103046933Y-77249003D01*
X102973946Y-77473631D01*
X102937000Y-77706902D01*
X102937000Y-77943097D01*
X102973946Y-78176368D01*
X103046933Y-78400996D01*
X103107678Y-78520213D01*
X103154157Y-78611433D01*
X103292983Y-78802510D01*
X103459990Y-78969517D01*
X103651067Y-79108343D01*
X103728855Y-79147978D01*
X103861503Y-79215566D01*
X103861505Y-79215566D01*
X103861508Y-79215568D01*
X103980571Y-79254254D01*
X104086131Y-79288553D01*
X104319403Y-79325500D01*
X104319408Y-79325500D01*
X104555597Y-79325500D01*
X104788868Y-79288553D01*
X105013492Y-79215568D01*
X105223933Y-79108343D01*
X105415010Y-78969517D01*
X105537708Y-78846819D01*
X105599031Y-78813334D01*
X105625389Y-78810500D01*
X141801279Y-78810500D01*
X141808239Y-78810695D01*
X141815544Y-78811105D01*
X141841131Y-78815607D01*
X141964368Y-78819471D01*
X141965852Y-78819555D01*
X141966167Y-78819667D01*
X141972947Y-78820159D01*
X142045271Y-78828420D01*
X142057820Y-78830512D01*
X142083223Y-78836105D01*
X142116273Y-78848529D01*
X142166663Y-78876219D01*
X142182543Y-78886601D01*
X142299986Y-78976928D01*
X142301404Y-78978035D01*
X142437218Y-79085664D01*
X142447741Y-79093780D01*
X142447752Y-79093788D01*
X142448231Y-79094148D01*
X142457579Y-79100998D01*
X142627792Y-79222737D01*
X142631772Y-79225542D01*
X142633374Y-79226672D01*
X142633669Y-79226877D01*
X142678809Y-79254254D01*
X142693306Y-79264787D01*
X142811689Y-79325106D01*
X142812895Y-79325754D01*
X142836858Y-79349383D01*
X142861324Y-79372490D01*
X142861657Y-79373836D01*
X142862646Y-79374811D01*
X142870033Y-79407658D01*
X142878119Y-79440311D01*
X142877671Y-79441624D01*
X142877976Y-79442978D01*
X142866434Y-79474598D01*
X142855581Y-79506446D01*
X142854452Y-79507423D01*
X142854019Y-79508612D01*
X142846419Y-79514384D01*
X142810528Y-79545485D01*
X142693305Y-79605213D01*
X142532533Y-79722021D01*
X142392021Y-79862533D01*
X142275213Y-80023305D01*
X142184994Y-80200367D01*
X142184993Y-80200370D01*
X142123587Y-80389362D01*
X142111094Y-80468242D01*
X142092500Y-80585639D01*
X142092500Y-80784361D01*
X142106341Y-80871752D01*
X142123587Y-80980637D01*
X142184993Y-81169629D01*
X142184994Y-81169632D01*
X142252218Y-81301564D01*
X142275213Y-81346694D01*
X142392019Y-81507464D01*
X142532536Y-81647981D01*
X142693306Y-81764787D01*
X142784537Y-81811272D01*
X142810528Y-81824515D01*
X142861324Y-81872490D01*
X142878119Y-81940311D01*
X142855581Y-82006446D01*
X142810528Y-82045485D01*
X142693305Y-82105213D01*
X142532533Y-82222021D01*
X142392021Y-82362533D01*
X142275213Y-82523305D01*
X142184994Y-82700367D01*
X142184993Y-82700370D01*
X142123587Y-82889362D01*
X142092500Y-83085639D01*
X142092500Y-83284360D01*
X142123587Y-83480637D01*
X142184993Y-83669629D01*
X142184994Y-83669632D01*
X142237248Y-83772184D01*
X142275213Y-83846694D01*
X142392019Y-84007464D01*
X142532536Y-84147981D01*
X142693306Y-84264787D01*
X142784537Y-84311272D01*
X142810528Y-84324515D01*
X142861324Y-84372490D01*
X142878119Y-84440311D01*
X142855581Y-84506446D01*
X142810528Y-84545485D01*
X142693305Y-84605213D01*
X142532533Y-84722021D01*
X142392021Y-84862533D01*
X142275213Y-85023305D01*
X142184994Y-85200367D01*
X142184993Y-85200370D01*
X142123587Y-85389362D01*
X142092500Y-85585639D01*
X142092500Y-85784360D01*
X142123587Y-85980637D01*
X142184993Y-86169629D01*
X142184994Y-86169632D01*
X142257629Y-86312184D01*
X142275213Y-86346694D01*
X142392019Y-86507464D01*
X142532536Y-86647981D01*
X142618149Y-86710182D01*
X142660814Y-86765512D01*
X142666793Y-86835125D01*
X142634187Y-86896920D01*
X142573348Y-86931278D01*
X142545263Y-86934500D01*
X126588578Y-86934500D01*
X126394176Y-86965290D01*
X126394171Y-86965291D01*
X126353369Y-86978548D01*
X126353370Y-86978549D01*
X126206970Y-87026117D01*
X126031591Y-87115478D01*
X126016714Y-87126286D01*
X126016715Y-87126287D01*
X125872351Y-87231174D01*
X121367181Y-91736344D01*
X121305858Y-91769829D01*
X121236166Y-91764845D01*
X121180233Y-91722973D01*
X121155816Y-91657509D01*
X121155500Y-91648663D01*
X121155500Y-91041741D01*
X121175185Y-90974702D01*
X121214402Y-90936202D01*
X121303350Y-90881340D01*
X121425340Y-90759350D01*
X121515908Y-90612516D01*
X121570174Y-90448753D01*
X121580500Y-90347677D01*
X121580499Y-89649324D01*
X121570174Y-89548247D01*
X121515908Y-89384484D01*
X121425340Y-89237650D01*
X121411371Y-89223681D01*
X121377886Y-89162358D01*
X121382870Y-89092666D01*
X121411371Y-89048319D01*
X121418105Y-89041585D01*
X121425340Y-89034350D01*
X121515908Y-88887516D01*
X121570174Y-88723753D01*
X121580500Y-88622677D01*
X121580499Y-87924324D01*
X121577992Y-87899786D01*
X121570174Y-87823247D01*
X121538552Y-87727820D01*
X121521251Y-87675610D01*
X121518850Y-87605785D01*
X121535853Y-87567724D01*
X121570084Y-87516495D01*
X121626658Y-87379913D01*
X121641908Y-87303248D01*
X121655500Y-87234920D01*
X121655500Y-87087079D01*
X121626659Y-86942092D01*
X121626658Y-86942091D01*
X121626658Y-86942087D01*
X121626656Y-86942082D01*
X121570087Y-86805511D01*
X121570080Y-86805498D01*
X121487951Y-86682584D01*
X121487948Y-86682580D01*
X121383419Y-86578051D01*
X121383415Y-86578048D01*
X121260501Y-86495919D01*
X121260488Y-86495912D01*
X121123917Y-86439343D01*
X121123907Y-86439340D01*
X120978920Y-86410500D01*
X120978918Y-86410500D01*
X120831082Y-86410500D01*
X120831080Y-86410500D01*
X120686092Y-86439340D01*
X120686082Y-86439343D01*
X120549511Y-86495912D01*
X120549498Y-86495919D01*
X120426584Y-86578048D01*
X120426580Y-86578051D01*
X120322051Y-86682580D01*
X120322048Y-86682584D01*
X120239919Y-86805498D01*
X120239912Y-86805511D01*
X120183342Y-86942084D01*
X120183340Y-86942090D01*
X120176779Y-86975077D01*
X120144393Y-87036988D01*
X120142845Y-87038564D01*
X120119141Y-87062268D01*
X120089512Y-87106611D01*
X120089511Y-87106610D01*
X120050689Y-87164712D01*
X120050687Y-87164716D01*
X120023160Y-87231173D01*
X120003537Y-87278545D01*
X120003536Y-87278548D01*
X120002206Y-87285238D01*
X119969819Y-87347148D01*
X119945687Y-87366581D01*
X119906650Y-87390659D01*
X119784659Y-87512651D01*
X119694093Y-87659481D01*
X119694091Y-87659486D01*
X119680459Y-87700625D01*
X119639826Y-87823247D01*
X119639826Y-87823248D01*
X119639825Y-87823248D01*
X119629500Y-87924315D01*
X119629500Y-88622669D01*
X119629501Y-88622687D01*
X119639825Y-88723752D01*
X119673699Y-88825974D01*
X119694092Y-88887516D01*
X119777285Y-89022394D01*
X119784661Y-89034351D01*
X119798629Y-89048319D01*
X119832114Y-89109642D01*
X119827130Y-89179334D01*
X119812583Y-89207037D01*
X119806337Y-89215972D01*
X119784660Y-89237650D01*
X119735645Y-89317114D01*
X119733603Y-89320037D01*
X119708995Y-89339740D01*
X119685558Y-89360822D01*
X119681523Y-89361738D01*
X119679064Y-89363708D01*
X119667586Y-89364905D01*
X119631968Y-89373000D01*
X118303032Y-89373000D01*
X118235993Y-89353315D01*
X118197494Y-89314097D01*
X118150342Y-89237653D01*
X118150339Y-89237649D01*
X118136371Y-89223681D01*
X118102886Y-89162358D01*
X118107870Y-89092666D01*
X118136371Y-89048319D01*
X118143105Y-89041585D01*
X118150340Y-89034350D01*
X118240908Y-88887516D01*
X118295174Y-88723753D01*
X118305500Y-88622677D01*
X118305499Y-87924324D01*
X118302992Y-87899786D01*
X118295174Y-87823247D01*
X118295173Y-87823244D01*
X118254541Y-87700625D01*
X118252139Y-87630797D01*
X118269142Y-87592734D01*
X118320084Y-87516495D01*
X118376658Y-87379913D01*
X118391908Y-87303248D01*
X118405500Y-87234920D01*
X118405500Y-87087079D01*
X118376659Y-86942092D01*
X118376658Y-86942091D01*
X118376658Y-86942087D01*
X118376656Y-86942082D01*
X118320087Y-86805511D01*
X118320080Y-86805498D01*
X118237951Y-86682584D01*
X118237948Y-86682580D01*
X118133419Y-86578051D01*
X118133415Y-86578048D01*
X118010501Y-86495919D01*
X118010488Y-86495912D01*
X117873917Y-86439343D01*
X117873907Y-86439340D01*
X117728920Y-86410500D01*
X117728918Y-86410500D01*
X117581082Y-86410500D01*
X117581080Y-86410500D01*
X117436092Y-86439340D01*
X117436082Y-86439343D01*
X117299511Y-86495912D01*
X117299498Y-86495919D01*
X117176584Y-86578048D01*
X117176580Y-86578051D01*
X117072051Y-86682580D01*
X117072048Y-86682584D01*
X116989919Y-86805498D01*
X116989912Y-86805511D01*
X116933342Y-86942084D01*
X116933341Y-86942089D01*
X116926779Y-86975076D01*
X116894392Y-87036986D01*
X116892845Y-87038562D01*
X116844142Y-87087266D01*
X116844140Y-87087269D01*
X116775690Y-87189708D01*
X116775688Y-87189713D01*
X116756722Y-87235502D01*
X116738893Y-87278545D01*
X116738892Y-87278550D01*
X116728661Y-87303248D01*
X116684818Y-87357650D01*
X116679200Y-87361329D01*
X116631651Y-87390658D01*
X116509659Y-87512651D01*
X116419093Y-87659481D01*
X116419091Y-87659486D01*
X116405459Y-87700625D01*
X116364826Y-87823247D01*
X116364826Y-87823248D01*
X116364825Y-87823248D01*
X116354500Y-87924315D01*
X116354500Y-88622669D01*
X116354501Y-88622687D01*
X116364825Y-88723752D01*
X116398699Y-88825974D01*
X116419092Y-88887516D01*
X116502285Y-89022394D01*
X116509661Y-89034351D01*
X116523629Y-89048319D01*
X116557114Y-89109642D01*
X116552130Y-89179334D01*
X116523629Y-89223681D01*
X116509661Y-89237648D01*
X116419093Y-89384481D01*
X116419092Y-89384484D01*
X116364826Y-89548247D01*
X116364826Y-89548248D01*
X116364825Y-89548248D01*
X116354500Y-89649315D01*
X116354500Y-90347669D01*
X116354501Y-90347687D01*
X116364825Y-90448752D01*
X116372650Y-90472365D01*
X116419092Y-90612516D01*
X116509660Y-90759350D01*
X116631650Y-90881340D01*
X116778484Y-90971908D01*
X116942247Y-91026174D01*
X117043323Y-91036500D01*
X117616676Y-91036499D01*
X117616684Y-91036498D01*
X117616687Y-91036498D01*
X117672030Y-91030844D01*
X117717753Y-91026174D01*
X117881516Y-90971908D01*
X118028350Y-90881340D01*
X118150340Y-90759350D01*
X118166968Y-90732390D01*
X118197494Y-90682903D01*
X118249442Y-90636178D01*
X118303032Y-90624000D01*
X119631968Y-90624000D01*
X119633881Y-90624562D01*
X119635811Y-90624060D01*
X119667263Y-90634363D01*
X119699007Y-90643685D01*
X119700910Y-90645387D01*
X119702208Y-90645812D01*
X119706892Y-90650734D01*
X119728152Y-90669740D01*
X119733260Y-90676018D01*
X119784660Y-90759350D01*
X119872675Y-90847365D01*
X119876684Y-90852292D01*
X119887846Y-90878885D01*
X119901666Y-90904194D01*
X119902766Y-90914431D01*
X119903726Y-90916717D01*
X119903283Y-90919237D01*
X119904500Y-90930552D01*
X119904500Y-91856331D01*
X119903271Y-91873747D01*
X119894457Y-91935881D01*
X119888048Y-91961313D01*
X119881405Y-91979350D01*
X119839770Y-92035456D01*
X119774408Y-92060146D01*
X119765045Y-92060500D01*
X118321746Y-92060500D01*
X118250465Y-92071790D01*
X118107901Y-92094370D01*
X117901993Y-92161272D01*
X117901990Y-92161273D01*
X117709080Y-92259567D01*
X117609145Y-92332174D01*
X117533922Y-92386828D01*
X117533920Y-92386830D01*
X117533919Y-92386830D01*
X117380830Y-92539919D01*
X117380830Y-92539920D01*
X117380828Y-92539922D01*
X117337987Y-92598888D01*
X117253567Y-92715080D01*
X117155273Y-92907990D01*
X117155272Y-92907993D01*
X117088370Y-93113901D01*
X117054500Y-93327746D01*
X117054500Y-93544253D01*
X117088370Y-93758098D01*
X117155272Y-93964006D01*
X117155273Y-93964009D01*
X117225784Y-94102393D01*
X117253567Y-94156919D01*
X117380828Y-94332078D01*
X117533922Y-94485172D01*
X117709081Y-94612433D01*
X117792796Y-94655088D01*
X117901990Y-94710726D01*
X117901993Y-94710727D01*
X118004947Y-94744178D01*
X118107903Y-94777630D01*
X118321746Y-94811500D01*
X118321747Y-94811500D01*
X120638253Y-94811500D01*
X120638254Y-94811500D01*
X120852097Y-94777630D01*
X121058009Y-94710726D01*
X121065611Y-94706852D01*
X121079032Y-94700015D01*
X121135326Y-94686500D01*
X121534422Y-94686500D01*
X121728826Y-94655709D01*
X121730737Y-94655088D01*
X121916026Y-94594884D01*
X122091405Y-94505524D01*
X122250646Y-94389828D01*
X127168655Y-89471819D01*
X127229978Y-89438334D01*
X127256336Y-89435500D01*
X143170117Y-89435500D01*
X143189515Y-89437027D01*
X143255639Y-89447500D01*
X143255640Y-89447500D01*
X143454360Y-89447500D01*
X143454361Y-89447500D01*
X143650636Y-89416413D01*
X143839632Y-89355005D01*
X144016694Y-89264787D01*
X144177464Y-89147981D01*
X144317981Y-89007464D01*
X144434787Y-88846694D01*
X144525005Y-88669632D01*
X144586413Y-88480636D01*
X144617500Y-88284361D01*
X144617500Y-88085639D01*
X144586413Y-87889364D01*
X144533925Y-87727820D01*
X144525006Y-87700370D01*
X144525005Y-87700367D01*
X144434786Y-87523305D01*
X144317981Y-87362536D01*
X144177464Y-87222019D01*
X144016694Y-87105213D01*
X143899470Y-87045484D01*
X143848675Y-86997510D01*
X143831880Y-86929689D01*
X143854417Y-86863555D01*
X143899469Y-86824515D01*
X144016694Y-86764787D01*
X144177464Y-86647981D01*
X144317981Y-86507464D01*
X144434787Y-86346694D01*
X144525005Y-86169632D01*
X144586413Y-85980636D01*
X144617500Y-85784361D01*
X144617500Y-85585639D01*
X144586413Y-85389364D01*
X144555709Y-85294866D01*
X144525006Y-85200370D01*
X144525005Y-85200367D01*
X144434786Y-85023305D01*
X144317981Y-84862536D01*
X144177464Y-84722019D01*
X144016694Y-84605213D01*
X143899470Y-84545484D01*
X143848675Y-84497510D01*
X143831880Y-84429689D01*
X143854417Y-84363555D01*
X143899469Y-84324515D01*
X144016694Y-84264787D01*
X144177464Y-84147981D01*
X144317981Y-84007464D01*
X144434787Y-83846694D01*
X144525005Y-83669632D01*
X144586413Y-83480636D01*
X144617500Y-83284361D01*
X144617500Y-83085639D01*
X144586413Y-82889364D01*
X144525005Y-82700368D01*
X144525005Y-82700367D01*
X144434786Y-82523305D01*
X144401584Y-82477606D01*
X144317981Y-82362536D01*
X144177464Y-82222019D01*
X144097079Y-82163616D01*
X144016692Y-82105211D01*
X143928369Y-82060208D01*
X143877574Y-82012234D01*
X143860779Y-81944413D01*
X143883317Y-81878278D01*
X143937178Y-81835177D01*
X143960829Y-81825373D01*
X144156291Y-81737545D01*
X144187447Y-81722239D01*
X144188861Y-81721483D01*
X144218975Y-81704024D01*
X144402662Y-81588898D01*
X144407545Y-81585798D01*
X144507908Y-81521282D01*
X144521312Y-81513797D01*
X144596041Y-81477956D01*
X144612228Y-81471549D01*
X144628879Y-81466279D01*
X144640801Y-81463149D01*
X144683816Y-81454120D01*
X144695040Y-81452298D01*
X144759582Y-81444851D01*
X144769479Y-81444109D01*
X144870655Y-81440587D01*
X144915851Y-81436979D01*
X144915855Y-81436977D01*
X144921654Y-81436515D01*
X144921666Y-81436666D01*
X144935071Y-81435500D01*
X146232770Y-81435500D01*
X146299809Y-81455185D01*
X146320451Y-81471819D01*
X147083181Y-82234548D01*
X147116666Y-82295871D01*
X147119500Y-82322229D01*
X147119500Y-94733918D01*
X147119500Y-94733920D01*
X147119499Y-94733920D01*
X147148340Y-94878907D01*
X147148343Y-94878917D01*
X147204912Y-95015488D01*
X147204920Y-95015503D01*
X147236285Y-95062442D01*
X147236286Y-95062445D01*
X147236287Y-95062445D01*
X147287051Y-95138420D01*
X147287052Y-95138421D01*
X151516122Y-99367489D01*
X151549607Y-99428812D01*
X151550914Y-99474568D01*
X151529500Y-99609772D01*
X151529500Y-99830221D01*
X151563985Y-100047952D01*
X151632103Y-100257603D01*
X151632104Y-100257606D01*
X151732187Y-100454025D01*
X151861752Y-100632358D01*
X151861756Y-100632363D01*
X152017636Y-100788243D01*
X152017641Y-100788247D01*
X152157254Y-100889682D01*
X152199920Y-100945012D01*
X152205899Y-101014625D01*
X152173293Y-101076420D01*
X152157254Y-101090318D01*
X152017641Y-101191752D01*
X152017636Y-101191756D01*
X151861756Y-101347636D01*
X151861752Y-101347641D01*
X151732187Y-101525974D01*
X151632104Y-101722393D01*
X151632103Y-101722396D01*
X151563985Y-101932047D01*
X151529500Y-102149778D01*
X151529500Y-102370221D01*
X151563985Y-102587952D01*
X151632103Y-102797603D01*
X151632104Y-102797606D01*
X151700122Y-102931096D01*
X151732049Y-102993756D01*
X151732187Y-102994025D01*
X151861752Y-103172358D01*
X151861756Y-103172363D01*
X152017636Y-103328243D01*
X152017641Y-103328247D01*
X152157254Y-103429682D01*
X152199920Y-103485012D01*
X152205899Y-103554625D01*
X152173293Y-103616420D01*
X152157254Y-103630318D01*
X152017641Y-103731752D01*
X152017636Y-103731756D01*
X151861756Y-103887636D01*
X151861752Y-103887641D01*
X151732187Y-104065974D01*
X151632104Y-104262393D01*
X151632103Y-104262396D01*
X151563985Y-104472047D01*
X151529500Y-104689778D01*
X151529500Y-104910221D01*
X151563985Y-105127952D01*
X151632103Y-105337603D01*
X151632104Y-105337606D01*
X151732187Y-105534025D01*
X151861752Y-105712358D01*
X151861756Y-105712363D01*
X152017638Y-105868245D01*
X152128384Y-105948705D01*
X152171051Y-106004035D01*
X152179500Y-106049024D01*
X152179500Y-118157611D01*
X152159815Y-118224650D01*
X152143181Y-118245292D01*
X149761543Y-120626929D01*
X149700220Y-120660414D01*
X149630528Y-120655430D01*
X149574595Y-120613558D01*
X149550178Y-120548094D01*
X149550246Y-120529498D01*
X149550498Y-120526296D01*
X149550500Y-120526287D01*
X149550500Y-120313713D01*
X149517246Y-120103757D01*
X149451557Y-119901588D01*
X149355051Y-119712184D01*
X149355049Y-119712181D01*
X149355048Y-119712179D01*
X149230109Y-119540213D01*
X149116181Y-119426285D01*
X149082696Y-119364962D01*
X149087680Y-119295270D01*
X149129552Y-119239337D01*
X149160529Y-119222422D01*
X149292086Y-119173354D01*
X149292093Y-119173350D01*
X149407187Y-119087190D01*
X149407190Y-119087187D01*
X149493350Y-118972093D01*
X149493354Y-118972086D01*
X149543596Y-118837379D01*
X149543598Y-118837372D01*
X149549999Y-118777844D01*
X149550000Y-118777827D01*
X149550000Y-118130000D01*
X148633012Y-118130000D01*
X148665925Y-118072993D01*
X148700000Y-117945826D01*
X148700000Y-117814174D01*
X148665925Y-117687007D01*
X148633012Y-117630000D01*
X149550000Y-117630000D01*
X149550000Y-116982172D01*
X149549999Y-116982155D01*
X149543598Y-116922627D01*
X149543596Y-116922620D01*
X149493354Y-116787913D01*
X149493350Y-116787906D01*
X149407190Y-116672812D01*
X149407187Y-116672809D01*
X149292093Y-116586649D01*
X149292086Y-116586645D01*
X149157379Y-116536403D01*
X149157372Y-116536401D01*
X149097844Y-116530000D01*
X148450000Y-116530000D01*
X148450000Y-117446988D01*
X148392993Y-117414075D01*
X148265826Y-117380000D01*
X148134174Y-117380000D01*
X148007007Y-117414075D01*
X147950000Y-117446988D01*
X147950000Y-116530000D01*
X147302155Y-116530000D01*
X147242627Y-116536401D01*
X147242620Y-116536403D01*
X147107913Y-116586645D01*
X147107906Y-116586649D01*
X146992812Y-116672809D01*
X146992809Y-116672812D01*
X146906649Y-116787906D01*
X146906645Y-116787913D01*
X146856403Y-116922620D01*
X146856401Y-116922627D01*
X146850000Y-116982155D01*
X146850000Y-117630000D01*
X147766988Y-117630000D01*
X147734075Y-117687007D01*
X147700000Y-117814174D01*
X147700000Y-117945826D01*
X147734075Y-118072993D01*
X147766988Y-118130000D01*
X146850000Y-118130000D01*
X146850000Y-118777844D01*
X146856401Y-118837372D01*
X146856403Y-118837379D01*
X146906645Y-118972086D01*
X146906649Y-118972093D01*
X146992809Y-119087187D01*
X146992812Y-119087190D01*
X147107906Y-119173350D01*
X147107913Y-119173354D01*
X147239470Y-119222422D01*
X147295404Y-119264293D01*
X147319821Y-119329758D01*
X147304969Y-119398031D01*
X147283819Y-119426285D01*
X147169889Y-119540215D01*
X147044951Y-119712179D01*
X146948444Y-119901585D01*
X146882753Y-120103760D01*
X146849500Y-120313713D01*
X146849500Y-120526287D01*
X146882754Y-120736243D01*
X146947723Y-120936197D01*
X146948444Y-120938414D01*
X147044951Y-121127820D01*
X147169890Y-121299786D01*
X147320213Y-121450109D01*
X147492182Y-121575050D01*
X147500946Y-121579516D01*
X147551742Y-121627491D01*
X147568536Y-121695312D01*
X147545998Y-121761447D01*
X147500946Y-121800484D01*
X147492182Y-121804949D01*
X147320213Y-121929890D01*
X147169892Y-122080211D01*
X147113097Y-122158385D01*
X147057767Y-122201051D01*
X147012779Y-122209500D01*
X125886080Y-122209500D01*
X125741092Y-122238340D01*
X125741082Y-122238343D01*
X125604511Y-122294912D01*
X125604498Y-122294919D01*
X125481584Y-122377048D01*
X125481580Y-122377051D01*
X111708806Y-136149824D01*
X111647483Y-136183309D01*
X111601726Y-136184616D01*
X111506291Y-136169500D01*
X111506287Y-136169500D01*
X111293713Y-136169500D01*
X111245042Y-136177208D01*
X111083760Y-136202753D01*
X110881585Y-136268444D01*
X110692179Y-136364951D01*
X110520213Y-136489890D01*
X110369890Y-136640213D01*
X110244949Y-136812182D01*
X110240484Y-136820946D01*
X110192509Y-136871742D01*
X110124688Y-136888536D01*
X110058553Y-136865998D01*
X110019516Y-136820946D01*
X110015050Y-136812182D01*
X109890109Y-136640213D01*
X109739786Y-136489890D01*
X109567820Y-136364951D01*
X109378414Y-136268444D01*
X109378413Y-136268443D01*
X109378412Y-136268443D01*
X109176243Y-136202754D01*
X109176241Y-136202753D01*
X109176240Y-136202753D01*
X109014957Y-136177208D01*
X108966287Y-136169500D01*
X108753713Y-136169500D01*
X108705042Y-136177208D01*
X108543760Y-136202753D01*
X108341585Y-136268444D01*
X108152179Y-136364951D01*
X107980213Y-136489890D01*
X107829890Y-136640213D01*
X107704951Y-136812179D01*
X107608444Y-137001585D01*
X107542753Y-137203760D01*
X107541291Y-137212993D01*
X107509500Y-137413713D01*
X107509500Y-137626287D01*
X107519534Y-137689644D01*
X107538072Y-137806687D01*
X107542754Y-137836243D01*
X107574405Y-137933655D01*
X107608444Y-138038414D01*
X107704951Y-138227820D01*
X107829890Y-138399786D01*
X107980213Y-138550109D01*
X108152179Y-138675048D01*
X108152181Y-138675049D01*
X108152184Y-138675051D01*
X108341588Y-138771557D01*
X108543757Y-138837246D01*
X108753713Y-138870500D01*
X108753714Y-138870500D01*
X108966286Y-138870500D01*
X108966287Y-138870500D01*
X109176243Y-138837246D01*
X109378412Y-138771557D01*
X109567816Y-138675051D01*
X109654478Y-138612088D01*
X109739786Y-138550109D01*
X109739788Y-138550106D01*
X109739792Y-138550104D01*
X109890104Y-138399792D01*
X109890106Y-138399788D01*
X109890109Y-138399786D01*
X110015048Y-138227820D01*
X110015047Y-138227820D01*
X110015051Y-138227816D01*
X110019514Y-138219054D01*
X110067488Y-138168259D01*
X110135308Y-138151463D01*
X110201444Y-138173999D01*
X110240486Y-138219056D01*
X110244951Y-138227820D01*
X110369890Y-138399786D01*
X110520213Y-138550109D01*
X110692179Y-138675048D01*
X110692181Y-138675049D01*
X110692184Y-138675051D01*
X110881588Y-138771557D01*
X111083757Y-138837246D01*
X111293713Y-138870500D01*
X111293714Y-138870500D01*
X111506286Y-138870500D01*
X111506287Y-138870500D01*
X111716243Y-138837246D01*
X111918412Y-138771557D01*
X112107816Y-138675051D01*
X112194478Y-138612088D01*
X112279786Y-138550109D01*
X112279788Y-138550106D01*
X112279792Y-138550104D01*
X112430104Y-138399792D01*
X112430106Y-138399788D01*
X112430109Y-138399786D01*
X112555048Y-138227820D01*
X112555047Y-138227820D01*
X112555051Y-138227816D01*
X112559514Y-138219054D01*
X112607488Y-138168259D01*
X112675308Y-138151463D01*
X112741444Y-138173999D01*
X112780486Y-138219056D01*
X112784951Y-138227820D01*
X112909890Y-138399786D01*
X113060213Y-138550109D01*
X113232179Y-138675048D01*
X113232181Y-138675049D01*
X113232184Y-138675051D01*
X113421588Y-138771557D01*
X113623757Y-138837246D01*
X113833713Y-138870500D01*
X113833714Y-138870500D01*
X114046286Y-138870500D01*
X114046287Y-138870500D01*
X114256243Y-138837246D01*
X114458412Y-138771557D01*
X114647816Y-138675051D01*
X114734478Y-138612088D01*
X114819786Y-138550109D01*
X114819788Y-138550106D01*
X114819792Y-138550104D01*
X114970104Y-138399792D01*
X114970106Y-138399788D01*
X114970109Y-138399786D01*
X115095048Y-138227820D01*
X115095047Y-138227820D01*
X115095051Y-138227816D01*
X115099514Y-138219054D01*
X115147488Y-138168259D01*
X115215308Y-138151463D01*
X115281444Y-138173999D01*
X115320486Y-138219056D01*
X115324951Y-138227820D01*
X115449890Y-138399786D01*
X115600213Y-138550109D01*
X115772179Y-138675048D01*
X115772181Y-138675049D01*
X115772184Y-138675051D01*
X115961588Y-138771557D01*
X116163757Y-138837246D01*
X116373713Y-138870500D01*
X116373714Y-138870500D01*
X116586286Y-138870500D01*
X116586287Y-138870500D01*
X116796243Y-138837246D01*
X116998412Y-138771557D01*
X117187816Y-138675051D01*
X117274478Y-138612088D01*
X117359786Y-138550109D01*
X117359788Y-138550106D01*
X117359792Y-138550104D01*
X117510104Y-138399792D01*
X117510106Y-138399788D01*
X117510109Y-138399786D01*
X117635048Y-138227820D01*
X117635047Y-138227820D01*
X117635051Y-138227816D01*
X117639514Y-138219054D01*
X117687488Y-138168259D01*
X117755308Y-138151463D01*
X117821444Y-138173999D01*
X117860486Y-138219056D01*
X117864951Y-138227820D01*
X117989890Y-138399786D01*
X118140213Y-138550109D01*
X118312179Y-138675048D01*
X118312181Y-138675049D01*
X118312184Y-138675051D01*
X118501588Y-138771557D01*
X118703757Y-138837246D01*
X118913713Y-138870500D01*
X118913714Y-138870500D01*
X119126286Y-138870500D01*
X119126287Y-138870500D01*
X119336243Y-138837246D01*
X119538412Y-138771557D01*
X119727816Y-138675051D01*
X119814478Y-138612088D01*
X119899784Y-138550110D01*
X119899784Y-138550109D01*
X119899792Y-138550104D01*
X120013717Y-138436178D01*
X120075036Y-138402696D01*
X120144728Y-138407680D01*
X120200662Y-138449551D01*
X120217577Y-138480528D01*
X120266646Y-138612088D01*
X120266649Y-138612093D01*
X120352809Y-138727187D01*
X120352812Y-138727190D01*
X120467906Y-138813350D01*
X120467913Y-138813354D01*
X120602620Y-138863596D01*
X120602627Y-138863598D01*
X120662155Y-138869999D01*
X120662172Y-138870000D01*
X121310000Y-138870000D01*
X121310000Y-137953012D01*
X121367007Y-137985925D01*
X121494174Y-138020000D01*
X121625826Y-138020000D01*
X121752993Y-137985925D01*
X121810000Y-137953012D01*
X121810000Y-138870000D01*
X122457828Y-138870000D01*
X122457844Y-138869999D01*
X122517372Y-138863598D01*
X122517379Y-138863596D01*
X122652086Y-138813354D01*
X122652093Y-138813350D01*
X122767187Y-138727190D01*
X122767190Y-138727187D01*
X122853350Y-138612093D01*
X122853354Y-138612086D01*
X122903596Y-138477379D01*
X122903598Y-138477372D01*
X122909999Y-138417844D01*
X122910000Y-138417827D01*
X122910000Y-137770000D01*
X121993012Y-137770000D01*
X122025925Y-137712993D01*
X122060000Y-137585826D01*
X122060000Y-137454174D01*
X122025925Y-137327007D01*
X121993012Y-137270000D01*
X122910000Y-137270000D01*
X122910000Y-136622172D01*
X122909999Y-136622155D01*
X122903598Y-136562627D01*
X122903596Y-136562620D01*
X122853354Y-136427913D01*
X122853350Y-136427906D01*
X122767190Y-136312812D01*
X122767187Y-136312809D01*
X122652093Y-136226649D01*
X122652086Y-136226645D01*
X122517379Y-136176403D01*
X122517372Y-136176401D01*
X122457844Y-136170000D01*
X122030730Y-136170000D01*
X121963691Y-136150315D01*
X121917936Y-136097511D01*
X121907992Y-136028353D01*
X121937017Y-135964797D01*
X121943049Y-135958319D01*
X126534549Y-131366819D01*
X126595872Y-131333334D01*
X126622230Y-131330500D01*
X147012779Y-131330500D01*
X147079818Y-131350185D01*
X147113097Y-131381615D01*
X147169892Y-131459788D01*
X147320213Y-131610109D01*
X147492182Y-131735050D01*
X147500946Y-131739516D01*
X147551742Y-131787491D01*
X147568536Y-131855312D01*
X147545998Y-131921447D01*
X147500946Y-131960484D01*
X147492182Y-131964949D01*
X147320213Y-132089890D01*
X147169890Y-132240213D01*
X147044951Y-132412179D01*
X146948444Y-132601585D01*
X146882753Y-132803760D01*
X146849500Y-133013713D01*
X146849500Y-133226286D01*
X146882753Y-133436239D01*
X146948444Y-133638414D01*
X147044951Y-133827820D01*
X147169890Y-133999786D01*
X147320213Y-134150109D01*
X147492182Y-134275050D01*
X147500946Y-134279516D01*
X147551742Y-134327491D01*
X147568536Y-134395312D01*
X147545998Y-134461447D01*
X147500946Y-134500484D01*
X147492182Y-134504949D01*
X147320213Y-134629890D01*
X147169890Y-134780213D01*
X147044951Y-134952179D01*
X146948444Y-135141585D01*
X146882753Y-135343760D01*
X146849500Y-135553713D01*
X146849500Y-135766286D01*
X146872654Y-135912478D01*
X146882754Y-135976243D01*
X146947790Y-136176403D01*
X146948444Y-136178414D01*
X147044951Y-136367820D01*
X147169890Y-136539786D01*
X147320213Y-136690109D01*
X147492179Y-136815048D01*
X147492181Y-136815049D01*
X147492184Y-136815051D01*
X147681588Y-136911557D01*
X147883757Y-136977246D01*
X148093713Y-137010500D01*
X148093714Y-137010500D01*
X148306286Y-137010500D01*
X148306287Y-137010500D01*
X148516243Y-136977246D01*
X148718412Y-136911557D01*
X148907816Y-136815051D01*
X149021239Y-136732645D01*
X149079786Y-136690109D01*
X149079788Y-136690106D01*
X149079792Y-136690104D01*
X149230104Y-136539792D01*
X149230106Y-136539788D01*
X149230109Y-136539786D01*
X149355048Y-136367820D01*
X149355047Y-136367820D01*
X149355051Y-136367816D01*
X149451557Y-136178412D01*
X149517246Y-135976243D01*
X149550500Y-135766287D01*
X149550500Y-135766285D01*
X149551262Y-135761475D01*
X149552321Y-135761642D01*
X149575361Y-135701172D01*
X149586416Y-135688503D01*
X168292784Y-116982135D01*
X169649500Y-116982135D01*
X169649500Y-118777870D01*
X169649501Y-118777876D01*
X169655908Y-118837483D01*
X169706202Y-118972328D01*
X169706206Y-118972335D01*
X169792452Y-119087544D01*
X169792455Y-119087547D01*
X169907664Y-119173793D01*
X169907671Y-119173797D01*
X170039082Y-119222810D01*
X170095016Y-119264681D01*
X170119433Y-119330145D01*
X170104582Y-119398418D01*
X170083431Y-119426673D01*
X169969889Y-119540215D01*
X169844951Y-119712179D01*
X169748444Y-119901585D01*
X169682753Y-120103760D01*
X169649500Y-120313713D01*
X169649500Y-120526287D01*
X169682754Y-120736243D01*
X169747723Y-120936197D01*
X169748444Y-120938414D01*
X169844951Y-121127820D01*
X169969890Y-121299786D01*
X170120213Y-121450109D01*
X170292182Y-121575050D01*
X170300946Y-121579516D01*
X170351742Y-121627491D01*
X170368536Y-121695312D01*
X170345998Y-121761447D01*
X170300946Y-121800484D01*
X170292182Y-121804949D01*
X170120213Y-121929890D01*
X169969890Y-122080213D01*
X169844951Y-122252179D01*
X169748444Y-122441585D01*
X169682753Y-122643760D01*
X169649500Y-122853713D01*
X169649500Y-123066286D01*
X169678623Y-123250166D01*
X169682754Y-123276243D01*
X169744791Y-123467173D01*
X169748444Y-123478414D01*
X169844951Y-123667820D01*
X169969890Y-123839786D01*
X170120213Y-123990109D01*
X170292182Y-124115050D01*
X170300946Y-124119516D01*
X170351742Y-124167491D01*
X170368536Y-124235312D01*
X170345998Y-124301447D01*
X170300946Y-124340484D01*
X170292182Y-124344949D01*
X170120213Y-124469890D01*
X169969890Y-124620213D01*
X169844951Y-124792179D01*
X169748444Y-124981585D01*
X169682753Y-125183760D01*
X169649500Y-125393713D01*
X169649500Y-125606286D01*
X169677589Y-125783636D01*
X169682754Y-125816243D01*
X169705988Y-125887751D01*
X169748444Y-126018414D01*
X169844951Y-126207820D01*
X169969890Y-126379786D01*
X170120213Y-126530109D01*
X170292182Y-126655050D01*
X170300946Y-126659516D01*
X170351742Y-126707491D01*
X170368536Y-126775312D01*
X170345998Y-126841447D01*
X170300946Y-126880484D01*
X170292182Y-126884949D01*
X170120213Y-127009890D01*
X169969890Y-127160213D01*
X169844951Y-127332179D01*
X169748444Y-127521585D01*
X169682753Y-127723760D01*
X169649500Y-127933713D01*
X169649500Y-128146286D01*
X169677264Y-128321584D01*
X169682754Y-128356243D01*
X169711432Y-128444505D01*
X169748444Y-128558414D01*
X169844951Y-128747820D01*
X169969890Y-128919786D01*
X170120213Y-129070109D01*
X170292182Y-129195050D01*
X170300946Y-129199516D01*
X170351742Y-129247491D01*
X170368536Y-129315312D01*
X170345998Y-129381447D01*
X170300946Y-129420484D01*
X170292182Y-129424949D01*
X170120213Y-129549890D01*
X169969890Y-129700213D01*
X169844951Y-129872179D01*
X169748444Y-130061585D01*
X169682753Y-130263760D01*
X169649500Y-130473713D01*
X169649500Y-130686286D01*
X169682753Y-130896239D01*
X169748444Y-131098414D01*
X169844951Y-131287820D01*
X169969890Y-131459786D01*
X170120213Y-131610109D01*
X170292182Y-131735050D01*
X170300946Y-131739516D01*
X170351742Y-131787491D01*
X170368536Y-131855312D01*
X170345998Y-131921447D01*
X170300946Y-131960484D01*
X170292182Y-131964949D01*
X170120213Y-132089890D01*
X169969890Y-132240213D01*
X169844951Y-132412179D01*
X169748444Y-132601585D01*
X169682753Y-132803760D01*
X169649500Y-133013713D01*
X169649500Y-133226286D01*
X169682753Y-133436239D01*
X169748444Y-133638414D01*
X169844951Y-133827820D01*
X169969890Y-133999786D01*
X170120213Y-134150109D01*
X170292182Y-134275050D01*
X170300946Y-134279516D01*
X170351742Y-134327491D01*
X170368536Y-134395312D01*
X170345998Y-134461447D01*
X170300946Y-134500484D01*
X170292182Y-134504949D01*
X170120213Y-134629890D01*
X169969890Y-134780213D01*
X169844951Y-134952179D01*
X169748444Y-135141585D01*
X169682753Y-135343760D01*
X169649500Y-135553713D01*
X169649500Y-135766286D01*
X169672654Y-135912478D01*
X169682754Y-135976243D01*
X169747790Y-136176403D01*
X169748444Y-136178414D01*
X169844951Y-136367820D01*
X169969890Y-136539786D01*
X170120213Y-136690109D01*
X170292179Y-136815048D01*
X170292181Y-136815049D01*
X170292184Y-136815051D01*
X170481588Y-136911557D01*
X170683757Y-136977246D01*
X170893713Y-137010500D01*
X170893714Y-137010500D01*
X171106286Y-137010500D01*
X171106287Y-137010500D01*
X171316243Y-136977246D01*
X171518412Y-136911557D01*
X171707816Y-136815051D01*
X171821239Y-136732645D01*
X171879786Y-136690109D01*
X171879788Y-136690106D01*
X171879792Y-136690104D01*
X172030104Y-136539792D01*
X172030106Y-136539788D01*
X172030109Y-136539786D01*
X172155048Y-136367820D01*
X172155047Y-136367820D01*
X172155051Y-136367816D01*
X172251557Y-136178412D01*
X172317246Y-135976243D01*
X172350500Y-135766287D01*
X172350500Y-135553713D01*
X172317246Y-135343757D01*
X172251557Y-135141588D01*
X172155051Y-134952184D01*
X172155049Y-134952181D01*
X172155048Y-134952179D01*
X172030109Y-134780213D01*
X171879786Y-134629890D01*
X171707820Y-134504951D01*
X171707115Y-134504591D01*
X171699054Y-134500485D01*
X171648259Y-134452512D01*
X171631463Y-134384692D01*
X171653999Y-134318556D01*
X171699054Y-134279515D01*
X171707816Y-134275051D01*
X171772680Y-134227925D01*
X171879786Y-134150109D01*
X171879788Y-134150106D01*
X171879792Y-134150104D01*
X172030104Y-133999792D01*
X172030106Y-133999788D01*
X172030109Y-133999786D01*
X172155048Y-133827820D01*
X172155047Y-133827820D01*
X172155051Y-133827816D01*
X172251557Y-133638412D01*
X172317246Y-133436243D01*
X172350500Y-133226287D01*
X172350500Y-133013713D01*
X172317246Y-132803757D01*
X172251557Y-132601588D01*
X172155051Y-132412184D01*
X172155049Y-132412181D01*
X172155048Y-132412179D01*
X172030109Y-132240213D01*
X171879786Y-132089890D01*
X171707820Y-131964951D01*
X171707115Y-131964591D01*
X171699054Y-131960485D01*
X171648259Y-131912512D01*
X171631463Y-131844692D01*
X171653999Y-131778556D01*
X171699054Y-131739515D01*
X171707816Y-131735051D01*
X171729789Y-131719086D01*
X171879786Y-131610109D01*
X171879788Y-131610106D01*
X171879792Y-131610104D01*
X172030104Y-131459792D01*
X172030106Y-131459788D01*
X172030109Y-131459786D01*
X172155048Y-131287820D01*
X172155047Y-131287820D01*
X172155051Y-131287816D01*
X172251557Y-131098412D01*
X172317246Y-130896243D01*
X172350500Y-130686287D01*
X172350500Y-130473713D01*
X172317246Y-130263757D01*
X172251557Y-130061588D01*
X172155051Y-129872184D01*
X172155049Y-129872181D01*
X172155048Y-129872179D01*
X172030109Y-129700213D01*
X171879786Y-129549890D01*
X171707820Y-129424951D01*
X171707115Y-129424591D01*
X171699054Y-129420485D01*
X171648259Y-129372512D01*
X171631463Y-129304692D01*
X171653999Y-129238556D01*
X171699054Y-129199515D01*
X171707816Y-129195051D01*
X171762270Y-129155488D01*
X171879786Y-129070109D01*
X171879788Y-129070106D01*
X171879792Y-129070104D01*
X172030104Y-128919792D01*
X172030106Y-128919788D01*
X172030109Y-128919786D01*
X172155048Y-128747820D01*
X172155047Y-128747820D01*
X172155051Y-128747816D01*
X172251557Y-128558412D01*
X172317246Y-128356243D01*
X172350500Y-128146287D01*
X172350500Y-127933713D01*
X172317246Y-127723757D01*
X172251557Y-127521588D01*
X172155051Y-127332184D01*
X172155049Y-127332181D01*
X172155048Y-127332179D01*
X172030109Y-127160213D01*
X171879786Y-127009890D01*
X171707820Y-126884951D01*
X171707115Y-126884591D01*
X171699054Y-126880485D01*
X171648259Y-126832512D01*
X171631463Y-126764692D01*
X171653999Y-126698556D01*
X171699054Y-126659515D01*
X171707816Y-126655051D01*
X171781317Y-126601650D01*
X171879786Y-126530109D01*
X171879788Y-126530106D01*
X171879792Y-126530104D01*
X172030104Y-126379792D01*
X172073298Y-126320340D01*
X172086903Y-126301615D01*
X172142233Y-126258949D01*
X172187221Y-126250500D01*
X173280448Y-126250500D01*
X173309888Y-126259144D01*
X173339875Y-126265668D01*
X173344890Y-126269422D01*
X173347487Y-126270185D01*
X173368129Y-126286819D01*
X173393629Y-126312319D01*
X173427114Y-126373642D01*
X173422130Y-126443334D01*
X173393629Y-126487681D01*
X173279661Y-126601648D01*
X173189093Y-126748481D01*
X173189091Y-126748486D01*
X173180202Y-126775312D01*
X173134826Y-126912247D01*
X173134826Y-126912248D01*
X173134825Y-126912248D01*
X173124500Y-127013315D01*
X173124500Y-127611669D01*
X173124501Y-127611687D01*
X173134825Y-127712752D01*
X173158601Y-127784501D01*
X173189092Y-127876516D01*
X173255359Y-127983952D01*
X173273799Y-128051344D01*
X173252876Y-128118007D01*
X173218711Y-128152150D01*
X173121584Y-128217048D01*
X173121580Y-128217051D01*
X173017051Y-128321580D01*
X173017048Y-128321584D01*
X172934919Y-128444498D01*
X172934912Y-128444511D01*
X172878343Y-128581082D01*
X172878340Y-128581092D01*
X172849500Y-128726079D01*
X172849500Y-128726082D01*
X172849500Y-128873918D01*
X172849500Y-128873920D01*
X172849499Y-128873920D01*
X172878340Y-129018907D01*
X172878343Y-129018917D01*
X172934912Y-129155488D01*
X172934919Y-129155501D01*
X173017048Y-129278415D01*
X173017051Y-129278419D01*
X173121580Y-129382948D01*
X173121584Y-129382951D01*
X173244498Y-129465080D01*
X173244511Y-129465087D01*
X173381082Y-129521656D01*
X173381087Y-129521658D01*
X173381091Y-129521658D01*
X173381092Y-129521659D01*
X173526079Y-129550500D01*
X173526082Y-129550500D01*
X174073920Y-129550500D01*
X174171462Y-129531096D01*
X174218913Y-129521658D01*
X174355495Y-129465084D01*
X174404729Y-129432186D01*
X174415558Y-129424951D01*
X174429071Y-129415921D01*
X174478416Y-129382952D01*
X174682951Y-129178416D01*
X174765084Y-129055495D01*
X174821658Y-128918913D01*
X174850500Y-128773918D01*
X174850500Y-128626083D01*
X174850500Y-128144552D01*
X174870185Y-128077513D01*
X174886819Y-128056871D01*
X174892346Y-128051344D01*
X174920340Y-128023350D01*
X175010908Y-127876516D01*
X175065174Y-127712753D01*
X175075500Y-127611677D01*
X175075499Y-127013324D01*
X175065174Y-126912247D01*
X175010908Y-126748484D01*
X174920340Y-126601650D01*
X174806371Y-126487681D01*
X174772886Y-126426358D01*
X174777870Y-126356666D01*
X174806371Y-126312319D01*
X174862253Y-126256437D01*
X174920340Y-126198350D01*
X175010908Y-126051516D01*
X175065174Y-125887753D01*
X175075500Y-125786677D01*
X175075499Y-125188324D01*
X175075032Y-125183757D01*
X175065174Y-125087247D01*
X175010908Y-124923484D01*
X174920340Y-124776650D01*
X174798350Y-124654660D01*
X174651516Y-124564092D01*
X174487753Y-124509826D01*
X174487751Y-124509825D01*
X174386678Y-124499500D01*
X173813330Y-124499500D01*
X173813312Y-124499501D01*
X173712247Y-124509825D01*
X173548484Y-124564092D01*
X173548481Y-124564093D01*
X173401648Y-124654661D01*
X173343129Y-124713181D01*
X173281806Y-124746666D01*
X173255448Y-124749500D01*
X172187221Y-124749500D01*
X172120182Y-124729815D01*
X172086903Y-124698385D01*
X172030107Y-124620211D01*
X171879786Y-124469890D01*
X171707820Y-124344951D01*
X171707115Y-124344591D01*
X171699054Y-124340485D01*
X171648259Y-124292512D01*
X171631463Y-124224692D01*
X171653999Y-124158556D01*
X171699054Y-124119515D01*
X171707816Y-124115051D01*
X171729789Y-124099086D01*
X171879786Y-123990109D01*
X171879788Y-123990106D01*
X171879792Y-123990104D01*
X172030104Y-123839792D01*
X172030106Y-123839788D01*
X172030109Y-123839786D01*
X172155048Y-123667820D01*
X172155047Y-123667820D01*
X172155051Y-123667816D01*
X172251557Y-123478412D01*
X172317246Y-123276243D01*
X172350500Y-123066287D01*
X172350500Y-122853713D01*
X172317246Y-122643757D01*
X172251557Y-122441588D01*
X172155051Y-122252184D01*
X172155049Y-122252181D01*
X172155048Y-122252179D01*
X172030109Y-122080213D01*
X171879786Y-121929890D01*
X171707820Y-121804951D01*
X171707115Y-121804591D01*
X171699054Y-121800485D01*
X171648259Y-121752512D01*
X171631463Y-121684692D01*
X171653999Y-121618556D01*
X171699054Y-121579515D01*
X171707816Y-121575051D01*
X171729789Y-121559086D01*
X171879786Y-121450109D01*
X171879788Y-121450106D01*
X171879792Y-121450104D01*
X172030104Y-121299792D01*
X172030106Y-121299788D01*
X172030109Y-121299786D01*
X172155048Y-121127820D01*
X172155047Y-121127820D01*
X172155051Y-121127816D01*
X172251557Y-120938412D01*
X172317246Y-120736243D01*
X172350500Y-120526287D01*
X172350500Y-120313713D01*
X172317246Y-120103757D01*
X172251557Y-119901588D01*
X172155051Y-119712184D01*
X172155049Y-119712181D01*
X172155048Y-119712179D01*
X172030109Y-119540213D01*
X171916569Y-119426673D01*
X171883084Y-119365350D01*
X171888068Y-119295658D01*
X171929940Y-119239725D01*
X171960915Y-119222810D01*
X172092331Y-119173796D01*
X172207546Y-119087546D01*
X172293796Y-118972331D01*
X172344091Y-118837483D01*
X172350500Y-118777873D01*
X172350499Y-116982128D01*
X172344091Y-116922517D01*
X172329297Y-116882853D01*
X172293797Y-116787671D01*
X172293793Y-116787664D01*
X172207547Y-116672455D01*
X172207544Y-116672452D01*
X172092335Y-116586206D01*
X172092328Y-116586202D01*
X171957482Y-116535908D01*
X171957483Y-116535908D01*
X171897883Y-116529501D01*
X171897881Y-116529500D01*
X171897873Y-116529500D01*
X171897864Y-116529500D01*
X170102129Y-116529500D01*
X170102123Y-116529501D01*
X170042516Y-116535908D01*
X169907671Y-116586202D01*
X169907664Y-116586206D01*
X169792455Y-116672452D01*
X169792452Y-116672455D01*
X169706206Y-116787664D01*
X169706202Y-116787671D01*
X169655908Y-116922517D01*
X169650621Y-116971697D01*
X169649501Y-116982123D01*
X169649500Y-116982135D01*
X168292784Y-116982135D01*
X172797778Y-112477141D01*
X172797782Y-112477139D01*
X172937139Y-112337782D01*
X173046632Y-112173914D01*
X173122051Y-111991835D01*
X173134632Y-111928582D01*
X173160500Y-111798543D01*
X173160500Y-98531456D01*
X173122052Y-98338170D01*
X173122051Y-98338169D01*
X173122051Y-98338165D01*
X173084806Y-98248247D01*
X173046635Y-98156092D01*
X173046628Y-98156079D01*
X172937139Y-97992218D01*
X172937136Y-97992214D01*
X172794686Y-97849764D01*
X172794655Y-97849735D01*
X169606819Y-94661899D01*
X169573334Y-94600576D01*
X169570500Y-94574218D01*
X169570500Y-94529778D01*
X169568721Y-94518544D01*
X169536015Y-94312049D01*
X169467895Y-94102394D01*
X169467895Y-94102393D01*
X169409094Y-93986992D01*
X169367815Y-93905978D01*
X169260374Y-93758097D01*
X169238247Y-93727641D01*
X169238243Y-93727636D01*
X169082363Y-93571756D01*
X169082358Y-93571752D01*
X168942745Y-93470318D01*
X168900079Y-93414989D01*
X168894100Y-93345375D01*
X168926705Y-93283580D01*
X168942745Y-93269682D01*
X169082358Y-93168247D01*
X169082356Y-93168247D01*
X169082365Y-93168242D01*
X169238242Y-93012365D01*
X169367815Y-92834022D01*
X169467895Y-92637606D01*
X169536015Y-92427951D01*
X169570500Y-92210222D01*
X169570500Y-91989778D01*
X169536015Y-91772049D01*
X169467895Y-91562394D01*
X169467895Y-91562393D01*
X169433237Y-91494375D01*
X169367815Y-91365978D01*
X169351260Y-91343192D01*
X169238247Y-91187641D01*
X169238243Y-91187636D01*
X169082363Y-91031756D01*
X169082358Y-91031752D01*
X168942745Y-90930318D01*
X168900079Y-90874989D01*
X168894100Y-90805375D01*
X168926705Y-90743580D01*
X168942745Y-90729682D01*
X169082358Y-90628247D01*
X169082356Y-90628247D01*
X169082365Y-90628242D01*
X169238242Y-90472365D01*
X169367815Y-90294022D01*
X169467895Y-90097606D01*
X169536015Y-89887951D01*
X169570500Y-89670222D01*
X169570500Y-89449778D01*
X169536015Y-89232049D01*
X169496243Y-89109642D01*
X169467896Y-89022396D01*
X169467895Y-89022393D01*
X169433237Y-88954375D01*
X169367815Y-88825978D01*
X169293544Y-88723752D01*
X169238247Y-88647641D01*
X169238243Y-88647636D01*
X169082363Y-88491756D01*
X169082358Y-88491752D01*
X168942745Y-88390318D01*
X168900079Y-88334989D01*
X168894100Y-88265375D01*
X168926705Y-88203580D01*
X168942745Y-88189682D01*
X169082358Y-88088247D01*
X169082356Y-88088247D01*
X169082365Y-88088242D01*
X169238242Y-87932365D01*
X169367815Y-87754022D01*
X169467895Y-87557606D01*
X169536015Y-87347951D01*
X169570500Y-87130222D01*
X169570500Y-86909778D01*
X169536015Y-86692049D01*
X169498974Y-86578048D01*
X169467896Y-86482396D01*
X169467895Y-86482393D01*
X169431263Y-86410500D01*
X169367815Y-86285978D01*
X169351260Y-86263192D01*
X169238247Y-86107641D01*
X169238243Y-86107636D01*
X169082363Y-85951756D01*
X169082358Y-85951752D01*
X168942745Y-85850318D01*
X168900079Y-85794989D01*
X168894100Y-85725375D01*
X168926705Y-85663580D01*
X168942745Y-85649682D01*
X169082358Y-85548247D01*
X169082356Y-85548247D01*
X169082365Y-85548242D01*
X169238242Y-85392365D01*
X169367815Y-85214022D01*
X169467895Y-85017606D01*
X169536015Y-84807951D01*
X169570500Y-84590222D01*
X169570500Y-84369778D01*
X169536015Y-84152049D01*
X169489037Y-84007464D01*
X169467896Y-83942396D01*
X169467895Y-83942393D01*
X169419133Y-83846694D01*
X169367815Y-83745978D01*
X169312345Y-83669629D01*
X169238247Y-83567641D01*
X169238243Y-83567636D01*
X169082363Y-83411756D01*
X169082358Y-83411752D01*
X168942745Y-83310318D01*
X168900079Y-83254989D01*
X168894100Y-83185375D01*
X168926705Y-83123580D01*
X168942745Y-83109682D01*
X169082358Y-83008247D01*
X169082356Y-83008247D01*
X169082365Y-83008242D01*
X169238242Y-82852365D01*
X169367815Y-82674022D01*
X169467895Y-82477606D01*
X169536015Y-82267951D01*
X169570500Y-82050222D01*
X169570500Y-81829778D01*
X169536015Y-81612049D01*
X169501955Y-81507221D01*
X169467896Y-81402396D01*
X169467895Y-81402393D01*
X169416519Y-81301564D01*
X169367815Y-81205978D01*
X169341406Y-81169629D01*
X169238247Y-81027641D01*
X169238243Y-81027636D01*
X169082363Y-80871756D01*
X169082358Y-80871752D01*
X168942745Y-80770318D01*
X168900079Y-80714989D01*
X168894100Y-80645375D01*
X168926705Y-80583580D01*
X168942745Y-80569682D01*
X169082358Y-80468247D01*
X169082356Y-80468247D01*
X169082365Y-80468242D01*
X169238242Y-80312365D01*
X169367815Y-80134022D01*
X169467895Y-79937606D01*
X169536015Y-79727951D01*
X169570500Y-79510222D01*
X169570500Y-79289778D01*
X169536015Y-79072049D01*
X169475760Y-78886601D01*
X169467896Y-78862396D01*
X169467895Y-78862393D01*
X169433237Y-78794375D01*
X169367815Y-78665978D01*
X169261913Y-78520215D01*
X169238247Y-78487641D01*
X169238243Y-78487636D01*
X169082363Y-78331756D01*
X169082358Y-78331752D01*
X168942744Y-78230317D01*
X168925565Y-78208040D01*
X168905957Y-78187861D01*
X168904514Y-78180740D01*
X168900078Y-78174987D01*
X168897670Y-78146958D01*
X168892084Y-78119382D01*
X168894720Y-78112610D01*
X168894099Y-78105374D01*
X168907226Y-78080494D01*
X168917436Y-78054274D01*
X168924875Y-78047045D01*
X168926704Y-78043579D01*
X168942739Y-78029685D01*
X168962849Y-78015074D01*
X168970965Y-78009179D01*
X169036772Y-77985702D01*
X169043846Y-77985500D01*
X176688965Y-77985500D01*
X176756004Y-78005185D01*
X176788232Y-78035190D01*
X176812449Y-78067541D01*
X176812452Y-78067544D01*
X176812454Y-78067546D01*
X176812457Y-78067548D01*
X176927664Y-78153793D01*
X176927671Y-78153797D01*
X177059082Y-78202810D01*
X177115016Y-78244681D01*
X177139433Y-78310145D01*
X177124582Y-78378418D01*
X177103431Y-78406673D01*
X176989889Y-78520215D01*
X176864951Y-78692179D01*
X176768444Y-78881585D01*
X176702753Y-79083760D01*
X176680121Y-79226657D01*
X176669500Y-79293713D01*
X176669500Y-79506287D01*
X176674265Y-79536372D01*
X176701958Y-79711221D01*
X176702754Y-79716243D01*
X176764718Y-79906949D01*
X176768444Y-79918414D01*
X176864951Y-80107820D01*
X176989890Y-80279786D01*
X177140213Y-80430109D01*
X177312182Y-80555050D01*
X177320946Y-80559516D01*
X177371742Y-80607491D01*
X177388536Y-80675312D01*
X177365998Y-80741447D01*
X177320946Y-80780484D01*
X177312182Y-80784949D01*
X177140213Y-80909890D01*
X176989890Y-81060213D01*
X176864951Y-81232179D01*
X176768444Y-81421585D01*
X176768443Y-81421587D01*
X176768443Y-81421588D01*
X176761125Y-81444109D01*
X176702753Y-81623760D01*
X176669500Y-81833713D01*
X176669500Y-82046286D01*
X176697333Y-82222021D01*
X176702754Y-82256243D01*
X176724194Y-82322229D01*
X176768444Y-82458414D01*
X176864951Y-82647820D01*
X176989890Y-82819786D01*
X177140213Y-82970109D01*
X177312182Y-83095050D01*
X177320946Y-83099516D01*
X177371742Y-83147491D01*
X177388536Y-83215312D01*
X177365998Y-83281447D01*
X177320946Y-83320484D01*
X177312182Y-83324949D01*
X177140213Y-83449890D01*
X176989890Y-83600213D01*
X176864951Y-83772179D01*
X176768444Y-83961585D01*
X176702753Y-84163760D01*
X176669500Y-84373713D01*
X176669500Y-84586286D01*
X176702753Y-84796239D01*
X176768444Y-84998414D01*
X176864951Y-85187820D01*
X176989890Y-85359786D01*
X177140213Y-85510109D01*
X177312182Y-85635050D01*
X177320946Y-85639516D01*
X177371742Y-85687491D01*
X177388536Y-85755312D01*
X177365998Y-85821447D01*
X177320946Y-85860484D01*
X177312182Y-85864949D01*
X177140213Y-85989890D01*
X176989890Y-86140213D01*
X176864951Y-86312179D01*
X176768444Y-86501585D01*
X176702753Y-86703760D01*
X176669500Y-86913713D01*
X176669500Y-87126286D01*
X176697575Y-87303549D01*
X176702754Y-87336243D01*
X176763534Y-87523305D01*
X176768444Y-87538414D01*
X176864951Y-87727820D01*
X176989890Y-87899786D01*
X177140213Y-88050109D01*
X177312182Y-88175050D01*
X177320946Y-88179516D01*
X177371742Y-88227491D01*
X177388536Y-88295312D01*
X177365998Y-88361447D01*
X177320946Y-88400484D01*
X177312182Y-88404949D01*
X177140213Y-88529890D01*
X176989890Y-88680213D01*
X176864951Y-88852179D01*
X176768444Y-89041585D01*
X176702753Y-89243760D01*
X176669500Y-89453713D01*
X176669500Y-89666286D01*
X176702753Y-89876239D01*
X176768444Y-90078414D01*
X176864951Y-90267820D01*
X176989890Y-90439786D01*
X177140213Y-90590109D01*
X177312179Y-90715048D01*
X177312181Y-90715049D01*
X177312184Y-90715051D01*
X177501588Y-90811557D01*
X177703757Y-90877246D01*
X177913713Y-90910500D01*
X177913714Y-90910500D01*
X178126286Y-90910500D01*
X178126287Y-90910500D01*
X178336243Y-90877246D01*
X178538412Y-90811557D01*
X178727816Y-90715051D01*
X178790182Y-90669740D01*
X178899786Y-90590109D01*
X178899788Y-90590106D01*
X178899792Y-90590104D01*
X179050104Y-90439792D01*
X179050106Y-90439788D01*
X179050109Y-90439786D01*
X179175048Y-90267820D01*
X179175047Y-90267820D01*
X179175051Y-90267816D01*
X179271557Y-90078412D01*
X179337246Y-89876243D01*
X179370500Y-89666287D01*
X179370500Y-89453713D01*
X179337246Y-89243757D01*
X179271557Y-89041588D01*
X179175051Y-88852184D01*
X179175049Y-88852181D01*
X179175048Y-88852179D01*
X179050109Y-88680213D01*
X178899786Y-88529890D01*
X178727820Y-88404951D01*
X178727115Y-88404591D01*
X178719054Y-88400485D01*
X178668259Y-88352512D01*
X178651463Y-88284692D01*
X178673999Y-88218556D01*
X178719054Y-88179515D01*
X178727816Y-88175051D01*
X178823613Y-88105451D01*
X178899786Y-88050109D01*
X178899788Y-88050106D01*
X178899792Y-88050104D01*
X179050104Y-87899792D01*
X179050106Y-87899788D01*
X179050109Y-87899786D01*
X179175048Y-87727820D01*
X179175047Y-87727820D01*
X179175051Y-87727816D01*
X179271557Y-87538412D01*
X179337246Y-87336243D01*
X179370500Y-87126287D01*
X179370500Y-86913713D01*
X179337246Y-86703757D01*
X179271557Y-86501588D01*
X179175051Y-86312184D01*
X179175049Y-86312181D01*
X179175048Y-86312179D01*
X179050109Y-86140213D01*
X178899786Y-85989890D01*
X178727820Y-85864951D01*
X178727115Y-85864591D01*
X178719054Y-85860485D01*
X178668259Y-85812512D01*
X178651463Y-85744692D01*
X178673999Y-85678556D01*
X178719054Y-85639515D01*
X178727816Y-85635051D01*
X178749789Y-85619086D01*
X178899786Y-85510109D01*
X178899788Y-85510106D01*
X178899792Y-85510104D01*
X179050104Y-85359792D01*
X179050106Y-85359788D01*
X179050109Y-85359786D01*
X179165930Y-85200370D01*
X179175051Y-85187816D01*
X179271557Y-84998412D01*
X179337246Y-84796243D01*
X179370500Y-84586287D01*
X179370500Y-84373713D01*
X179337246Y-84163757D01*
X179271557Y-83961588D01*
X179175051Y-83772184D01*
X179175049Y-83772181D01*
X179175048Y-83772179D01*
X179050109Y-83600213D01*
X178899786Y-83449890D01*
X178727820Y-83324951D01*
X178727115Y-83324591D01*
X178719054Y-83320485D01*
X178668259Y-83272512D01*
X178651463Y-83204692D01*
X178673999Y-83138556D01*
X178719054Y-83099515D01*
X178727816Y-83095051D01*
X178749789Y-83079086D01*
X178899786Y-82970109D01*
X178899788Y-82970106D01*
X178899792Y-82970104D01*
X179050104Y-82819792D01*
X179050106Y-82819788D01*
X179050109Y-82819786D01*
X179175048Y-82647820D01*
X179175047Y-82647820D01*
X179175051Y-82647816D01*
X179271557Y-82458412D01*
X179337246Y-82256243D01*
X179370500Y-82046287D01*
X179370500Y-81833713D01*
X179337246Y-81623757D01*
X179271557Y-81421588D01*
X179175051Y-81232184D01*
X179175049Y-81232181D01*
X179175048Y-81232179D01*
X179050109Y-81060213D01*
X178899786Y-80909890D01*
X178727820Y-80784951D01*
X178726660Y-80784360D01*
X178719054Y-80780485D01*
X178668259Y-80732512D01*
X178651463Y-80664692D01*
X178673999Y-80598556D01*
X178719054Y-80559515D01*
X178727816Y-80555051D01*
X178749789Y-80539086D01*
X178899786Y-80430109D01*
X178899788Y-80430106D01*
X178899792Y-80430104D01*
X179050104Y-80279792D01*
X179050106Y-80279788D01*
X179050109Y-80279786D01*
X179175048Y-80107820D01*
X179175047Y-80107820D01*
X179175051Y-80107816D01*
X179271557Y-79918412D01*
X179337246Y-79716243D01*
X179370500Y-79506287D01*
X179370500Y-79293713D01*
X179337246Y-79083757D01*
X179271557Y-78881588D01*
X179175051Y-78692184D01*
X179175049Y-78692181D01*
X179175048Y-78692179D01*
X179050109Y-78520213D01*
X178936569Y-78406673D01*
X178903084Y-78345350D01*
X178908068Y-78275658D01*
X178949940Y-78219725D01*
X178980915Y-78202810D01*
X179112331Y-78153796D01*
X179227546Y-78067546D01*
X179313796Y-77952331D01*
X179364091Y-77817483D01*
X179370500Y-77757873D01*
X179370499Y-75962128D01*
X179364091Y-75902517D01*
X179322778Y-75791752D01*
X179313797Y-75767671D01*
X179313793Y-75767664D01*
X179227547Y-75652455D01*
X179227544Y-75652452D01*
X179112335Y-75566206D01*
X179112328Y-75566202D01*
X178977482Y-75515908D01*
X178977483Y-75515908D01*
X178917883Y-75509501D01*
X178917881Y-75509500D01*
X178917873Y-75509500D01*
X178917864Y-75509500D01*
X177122129Y-75509500D01*
X177122123Y-75509501D01*
X177062516Y-75515908D01*
X176927671Y-75566202D01*
X176927664Y-75566206D01*
X176812457Y-75652451D01*
X176812449Y-75652458D01*
X176788232Y-75684810D01*
X176732299Y-75726682D01*
X176688965Y-75734500D01*
X169043846Y-75734500D01*
X169023428Y-75728504D01*
X169002178Y-75727290D01*
X168980702Y-75715958D01*
X168976807Y-75714815D01*
X168970963Y-75710820D01*
X168969959Y-75710090D01*
X168942744Y-75690318D01*
X168900079Y-75634990D01*
X168894098Y-75565377D01*
X168926703Y-75503581D01*
X168942736Y-75489687D01*
X169082365Y-75388242D01*
X169238242Y-75232365D01*
X169367815Y-75054022D01*
X169467895Y-74857606D01*
X169536015Y-74647951D01*
X169570500Y-74430222D01*
X169570500Y-74209778D01*
X169536015Y-73992049D01*
X169483014Y-73828927D01*
X169467896Y-73782396D01*
X169467895Y-73782393D01*
X169431281Y-73710536D01*
X169367815Y-73585978D01*
X169329535Y-73533290D01*
X169238247Y-73407641D01*
X169238243Y-73407636D01*
X169082363Y-73251756D01*
X169082358Y-73251752D01*
X168942745Y-73150318D01*
X168900079Y-73094989D01*
X168894100Y-73025375D01*
X168926705Y-72963580D01*
X168942745Y-72949682D01*
X169082358Y-72848247D01*
X169082356Y-72848247D01*
X169082365Y-72848242D01*
X169238242Y-72692365D01*
X169367815Y-72514022D01*
X169467895Y-72317606D01*
X169536015Y-72107951D01*
X169570500Y-71890222D01*
X169570500Y-71669778D01*
X169536015Y-71452049D01*
X169467895Y-71242394D01*
X169467895Y-71242393D01*
X169433237Y-71174375D01*
X169367815Y-71045978D01*
X169351260Y-71023192D01*
X169238247Y-70867641D01*
X169238243Y-70867636D01*
X169082363Y-70711756D01*
X169082358Y-70711752D01*
X168942745Y-70610318D01*
X168900079Y-70554989D01*
X168894100Y-70485375D01*
X168926705Y-70423580D01*
X168942745Y-70409682D01*
X169082358Y-70308247D01*
X169082356Y-70308247D01*
X169082365Y-70308242D01*
X169238242Y-70152365D01*
X169367815Y-69974022D01*
X169467895Y-69777606D01*
X169536015Y-69567951D01*
X169570500Y-69350222D01*
X169570500Y-69129778D01*
X169536015Y-68912049D01*
X169484900Y-68754731D01*
X169467896Y-68702396D01*
X169467895Y-68702393D01*
X169413690Y-68596012D01*
X169367815Y-68505978D01*
X169336838Y-68463342D01*
X169238247Y-68327641D01*
X169238243Y-68327636D01*
X169082363Y-68171756D01*
X169082358Y-68171752D01*
X168942745Y-68070318D01*
X168900079Y-68014989D01*
X168894100Y-67945375D01*
X168926705Y-67883580D01*
X168942745Y-67869682D01*
X169082358Y-67768247D01*
X169082356Y-67768247D01*
X169082365Y-67768242D01*
X169238242Y-67612365D01*
X169367815Y-67434022D01*
X169467895Y-67237606D01*
X169536015Y-67027951D01*
X169570500Y-66810222D01*
X169570500Y-66589778D01*
X169536015Y-66372049D01*
X169467895Y-66162394D01*
X169467895Y-66162393D01*
X169433237Y-66094375D01*
X169367815Y-65965978D01*
X169351260Y-65943192D01*
X169238247Y-65787641D01*
X169238243Y-65787636D01*
X169082363Y-65631756D01*
X169082358Y-65631752D01*
X168942745Y-65530318D01*
X168900079Y-65474989D01*
X168894100Y-65405375D01*
X168926705Y-65343580D01*
X168942745Y-65329682D01*
X169082358Y-65228247D01*
X169082356Y-65228247D01*
X169082365Y-65228242D01*
X169238242Y-65072365D01*
X169367815Y-64894022D01*
X169467895Y-64697606D01*
X169536015Y-64487951D01*
X169570500Y-64270222D01*
X169570500Y-64049778D01*
X169536015Y-63832049D01*
X169467895Y-63622394D01*
X169467895Y-63622393D01*
X169403231Y-63495485D01*
X169367815Y-63425978D01*
X169324725Y-63366669D01*
X169238247Y-63247641D01*
X169238243Y-63247636D01*
X169082363Y-63091756D01*
X169082358Y-63091752D01*
X168942745Y-62990318D01*
X168900079Y-62934989D01*
X168894100Y-62865375D01*
X168926705Y-62803580D01*
X168942745Y-62789682D01*
X169082358Y-62688247D01*
X169082356Y-62688247D01*
X169082365Y-62688242D01*
X169238242Y-62532365D01*
X169367815Y-62354022D01*
X169467895Y-62157606D01*
X169536015Y-61947951D01*
X169570500Y-61730222D01*
X169570500Y-61509778D01*
X169536015Y-61292049D01*
X169471234Y-61092671D01*
X169467896Y-61082396D01*
X169467895Y-61082393D01*
X169414424Y-60977452D01*
X169367815Y-60885978D01*
X169330414Y-60834500D01*
X169238247Y-60707641D01*
X169238243Y-60707636D01*
X169082363Y-60551756D01*
X169082358Y-60551752D01*
X168904025Y-60422187D01*
X168904024Y-60422186D01*
X168904022Y-60422185D01*
X168841096Y-60390122D01*
X168707606Y-60322104D01*
X168707603Y-60322103D01*
X168497952Y-60253985D01*
X168389086Y-60236742D01*
X168280222Y-60219500D01*
X168059778Y-60219500D01*
X167987201Y-60230995D01*
X167842047Y-60253985D01*
X167632396Y-60322103D01*
X167632393Y-60322104D01*
X167435974Y-60422187D01*
X167257641Y-60551752D01*
X167257636Y-60551756D01*
X167101756Y-60707636D01*
X167101752Y-60707641D01*
X166972187Y-60885974D01*
X166872104Y-61082393D01*
X166872103Y-61082396D01*
X166803985Y-61292047D01*
X166769500Y-61509778D01*
X166769500Y-61730221D01*
X166803985Y-61947952D01*
X166872103Y-62157603D01*
X166872104Y-62157606D01*
X166972187Y-62354025D01*
X167101752Y-62532358D01*
X167101756Y-62532363D01*
X167257636Y-62688243D01*
X167257641Y-62688247D01*
X167397254Y-62789682D01*
X167439920Y-62845012D01*
X167445899Y-62914625D01*
X167413293Y-62976420D01*
X167397254Y-62990318D01*
X167257641Y-63091752D01*
X167257636Y-63091756D01*
X167101756Y-63247636D01*
X167101752Y-63247641D01*
X167000318Y-63387254D01*
X166944988Y-63429920D01*
X166875375Y-63435899D01*
X166813580Y-63403293D01*
X166799682Y-63387254D01*
X166698247Y-63247641D01*
X166698243Y-63247636D01*
X166542363Y-63091756D01*
X166542358Y-63091752D01*
X166364025Y-62962187D01*
X166364024Y-62962186D01*
X166364022Y-62962185D01*
X166289901Y-62924418D01*
X166167606Y-62862104D01*
X166167603Y-62862103D01*
X165957952Y-62793985D01*
X165795928Y-62768323D01*
X165740222Y-62759500D01*
X165519778Y-62759500D01*
X165464072Y-62768323D01*
X165302047Y-62793985D01*
X165092396Y-62862103D01*
X165092393Y-62862104D01*
X164895974Y-62962187D01*
X164717641Y-63091752D01*
X164717636Y-63091756D01*
X164561756Y-63247636D01*
X164561752Y-63247641D01*
X164432187Y-63425974D01*
X164332104Y-63622393D01*
X164332103Y-63622396D01*
X164263985Y-63832047D01*
X164229500Y-64049778D01*
X164229500Y-64270221D01*
X164263985Y-64487952D01*
X164332103Y-64697603D01*
X164332104Y-64697606D01*
X164400122Y-64831096D01*
X164427129Y-64884100D01*
X164432187Y-64894025D01*
X164561752Y-65072358D01*
X164561756Y-65072363D01*
X164717636Y-65228243D01*
X164717641Y-65228247D01*
X164857256Y-65329682D01*
X164895978Y-65357815D01*
X165024375Y-65423237D01*
X165092393Y-65457895D01*
X165092396Y-65457896D01*
X165197221Y-65491955D01*
X165302049Y-65526015D01*
X165519778Y-65560500D01*
X165519779Y-65560500D01*
X165740221Y-65560500D01*
X165740222Y-65560500D01*
X165957951Y-65526015D01*
X166167606Y-65457895D01*
X166364022Y-65357815D01*
X166542365Y-65228242D01*
X166698242Y-65072365D01*
X166742260Y-65011779D01*
X166799682Y-64932745D01*
X166855011Y-64890079D01*
X166924625Y-64884100D01*
X166986420Y-64916705D01*
X167000318Y-64932745D01*
X167101752Y-65072358D01*
X167101756Y-65072363D01*
X167257636Y-65228243D01*
X167257641Y-65228247D01*
X167397254Y-65329682D01*
X167439920Y-65385012D01*
X167445899Y-65454625D01*
X167413293Y-65516420D01*
X167397254Y-65530318D01*
X167257641Y-65631752D01*
X167257636Y-65631756D01*
X167101756Y-65787636D01*
X167101752Y-65787641D01*
X166972187Y-65965974D01*
X166872104Y-66162393D01*
X166872103Y-66162396D01*
X166803985Y-66372047D01*
X166769500Y-66589778D01*
X166769500Y-66810221D01*
X166803985Y-67027952D01*
X166872103Y-67237603D01*
X166872104Y-67237606D01*
X166972187Y-67434025D01*
X167101752Y-67612358D01*
X167101756Y-67612363D01*
X167257636Y-67768243D01*
X167257641Y-67768247D01*
X167397254Y-67869682D01*
X167439920Y-67925012D01*
X167445899Y-67994625D01*
X167413293Y-68056420D01*
X167397254Y-68070318D01*
X167257641Y-68171752D01*
X167257636Y-68171756D01*
X167101756Y-68327636D01*
X167101752Y-68327641D01*
X166972187Y-68505974D01*
X166872104Y-68702393D01*
X166872103Y-68702396D01*
X166803985Y-68912047D01*
X166769500Y-69129778D01*
X166769500Y-69350221D01*
X166803985Y-69567952D01*
X166872103Y-69777603D01*
X166872104Y-69777606D01*
X166972187Y-69974025D01*
X167101752Y-70152358D01*
X167101756Y-70152363D01*
X167257636Y-70308243D01*
X167257641Y-70308247D01*
X167397254Y-70409682D01*
X167439920Y-70465012D01*
X167445899Y-70534625D01*
X167413293Y-70596420D01*
X167397254Y-70610318D01*
X167257641Y-70711752D01*
X167257636Y-70711756D01*
X167101756Y-70867636D01*
X167101752Y-70867641D01*
X166972187Y-71045974D01*
X166872104Y-71242393D01*
X166872103Y-71242396D01*
X166803985Y-71452047D01*
X166769500Y-71669778D01*
X166769500Y-71890221D01*
X166803985Y-72107952D01*
X166872103Y-72317603D01*
X166872104Y-72317606D01*
X166972187Y-72514025D01*
X167101752Y-72692358D01*
X167101756Y-72692363D01*
X167257636Y-72848243D01*
X167257641Y-72848247D01*
X167397254Y-72949682D01*
X167439920Y-73005012D01*
X167445899Y-73074625D01*
X167413293Y-73136420D01*
X167397254Y-73150318D01*
X167257641Y-73251752D01*
X167257636Y-73251756D01*
X167101756Y-73407636D01*
X167101752Y-73407641D01*
X166972187Y-73585974D01*
X166872104Y-73782393D01*
X166872103Y-73782396D01*
X166803985Y-73992047D01*
X166792218Y-74066342D01*
X166769500Y-74209778D01*
X166769500Y-74430222D01*
X166778173Y-74484981D01*
X166803985Y-74647952D01*
X166872103Y-74857603D01*
X166872104Y-74857606D01*
X166920134Y-74951867D01*
X166964324Y-75038595D01*
X166972187Y-75054025D01*
X167101752Y-75232358D01*
X167101756Y-75232363D01*
X167257636Y-75388243D01*
X167257641Y-75388247D01*
X167397254Y-75489682D01*
X167439920Y-75545012D01*
X167445899Y-75614625D01*
X167413293Y-75676420D01*
X167397254Y-75690318D01*
X167257641Y-75791752D01*
X167257636Y-75791756D01*
X167101756Y-75947636D01*
X167101752Y-75947641D01*
X166972187Y-76125974D01*
X166872104Y-76322393D01*
X166872103Y-76322396D01*
X166803985Y-76532047D01*
X166769500Y-76749778D01*
X166769500Y-76970221D01*
X166803985Y-77187952D01*
X166872103Y-77397603D01*
X166872104Y-77397606D01*
X166936153Y-77523306D01*
X166963012Y-77576020D01*
X166972187Y-77594025D01*
X167101752Y-77772358D01*
X167101756Y-77772363D01*
X167257636Y-77928243D01*
X167257641Y-77928247D01*
X167397254Y-78029682D01*
X167439920Y-78085012D01*
X167445899Y-78154625D01*
X167413293Y-78216420D01*
X167397254Y-78230318D01*
X167257641Y-78331752D01*
X167257636Y-78331756D01*
X167101756Y-78487636D01*
X167101752Y-78487641D01*
X166972187Y-78665974D01*
X166872104Y-78862393D01*
X166872103Y-78862396D01*
X166803985Y-79072047D01*
X166769500Y-79289778D01*
X166769500Y-79510221D01*
X166803985Y-79727952D01*
X166872103Y-79937603D01*
X166872104Y-79937606D01*
X166923148Y-80037782D01*
X166958834Y-80107820D01*
X166972187Y-80134025D01*
X167101752Y-80312358D01*
X167101756Y-80312363D01*
X167257636Y-80468243D01*
X167257641Y-80468247D01*
X167397254Y-80569682D01*
X167439920Y-80625012D01*
X167445899Y-80694625D01*
X167413293Y-80756420D01*
X167397254Y-80770318D01*
X167257641Y-80871752D01*
X167257636Y-80871756D01*
X167101756Y-81027636D01*
X167101752Y-81027641D01*
X166972187Y-81205974D01*
X166872104Y-81402393D01*
X166872103Y-81402396D01*
X166803985Y-81612047D01*
X166786532Y-81722240D01*
X166769500Y-81829778D01*
X166769500Y-82050222D01*
X166778210Y-82105213D01*
X166803985Y-82267952D01*
X166872103Y-82477603D01*
X166872104Y-82477606D01*
X166940122Y-82611096D01*
X166958834Y-82647820D01*
X166972187Y-82674025D01*
X167101752Y-82852358D01*
X167101756Y-82852363D01*
X167257636Y-83008243D01*
X167257641Y-83008247D01*
X167397254Y-83109682D01*
X167439920Y-83165012D01*
X167445899Y-83234625D01*
X167413293Y-83296420D01*
X167397254Y-83310318D01*
X167257641Y-83411752D01*
X167257636Y-83411756D01*
X167101756Y-83567636D01*
X167101752Y-83567641D01*
X166972187Y-83745974D01*
X166872104Y-83942393D01*
X166872103Y-83942396D01*
X166803985Y-84152047D01*
X166769500Y-84369778D01*
X166769500Y-84590221D01*
X166803985Y-84807952D01*
X166872103Y-85017603D01*
X166872104Y-85017606D01*
X166940122Y-85151096D01*
X166965227Y-85200367D01*
X166972187Y-85214025D01*
X167101752Y-85392358D01*
X167101756Y-85392363D01*
X167257636Y-85548243D01*
X167257641Y-85548247D01*
X167397254Y-85649682D01*
X167439920Y-85705012D01*
X167445899Y-85774625D01*
X167413293Y-85836420D01*
X167397254Y-85850318D01*
X167257641Y-85951752D01*
X167257636Y-85951756D01*
X167101756Y-86107636D01*
X167101752Y-86107641D01*
X166972187Y-86285974D01*
X166872104Y-86482393D01*
X166872103Y-86482396D01*
X166803985Y-86692047D01*
X166769500Y-86909778D01*
X166769500Y-87130222D01*
X166778923Y-87189714D01*
X166803985Y-87347952D01*
X166872103Y-87557603D01*
X166872104Y-87557606D01*
X166916758Y-87645242D01*
X166958834Y-87727820D01*
X166972187Y-87754025D01*
X167101752Y-87932358D01*
X167101756Y-87932363D01*
X167257636Y-88088243D01*
X167257641Y-88088247D01*
X167397254Y-88189682D01*
X167439920Y-88245012D01*
X167445899Y-88314625D01*
X167413293Y-88376420D01*
X167397254Y-88390318D01*
X167257641Y-88491752D01*
X167257636Y-88491756D01*
X167101756Y-88647636D01*
X167101752Y-88647641D01*
X166972187Y-88825974D01*
X166872104Y-89022393D01*
X166872103Y-89022396D01*
X166803985Y-89232047D01*
X166769500Y-89449778D01*
X166769500Y-89670221D01*
X166803985Y-89887952D01*
X166872103Y-90097603D01*
X166872104Y-90097606D01*
X166940122Y-90231096D01*
X166958834Y-90267820D01*
X166972187Y-90294025D01*
X167101752Y-90472358D01*
X167101756Y-90472363D01*
X167257636Y-90628243D01*
X167257641Y-90628247D01*
X167397254Y-90729682D01*
X167439920Y-90785012D01*
X167445899Y-90854625D01*
X167413293Y-90916420D01*
X167397254Y-90930318D01*
X167257641Y-91031752D01*
X167257636Y-91031756D01*
X167101756Y-91187636D01*
X167101752Y-91187641D01*
X166972187Y-91365974D01*
X166872104Y-91562393D01*
X166872103Y-91562396D01*
X166803985Y-91772047D01*
X166787668Y-91875069D01*
X166769500Y-91989778D01*
X166769500Y-92210222D01*
X166770606Y-92217204D01*
X166803985Y-92427952D01*
X166872103Y-92637603D01*
X166872104Y-92637606D01*
X166972187Y-92834025D01*
X167101752Y-93012358D01*
X167101756Y-93012363D01*
X167257636Y-93168243D01*
X167257641Y-93168247D01*
X167397254Y-93269682D01*
X167439920Y-93325012D01*
X167445899Y-93394625D01*
X167413293Y-93456420D01*
X167397254Y-93470318D01*
X167257641Y-93571752D01*
X167257636Y-93571756D01*
X167101756Y-93727636D01*
X167101752Y-93727641D01*
X166972187Y-93905974D01*
X166872104Y-94102393D01*
X166872103Y-94102396D01*
X166803985Y-94312047D01*
X166776565Y-94485169D01*
X166769500Y-94529778D01*
X166769500Y-94750222D01*
X166779206Y-94811500D01*
X166803985Y-94967952D01*
X166872103Y-95177603D01*
X166872104Y-95177606D01*
X166972187Y-95374025D01*
X167101752Y-95552358D01*
X167101756Y-95552363D01*
X167257636Y-95708243D01*
X167257641Y-95708247D01*
X167397254Y-95809682D01*
X167439920Y-95865012D01*
X167445899Y-95934625D01*
X167413293Y-95996420D01*
X167397254Y-96010318D01*
X167257641Y-96111752D01*
X167257636Y-96111756D01*
X167101756Y-96267636D01*
X167101752Y-96267641D01*
X166972187Y-96445974D01*
X166872104Y-96642393D01*
X166872103Y-96642396D01*
X166803985Y-96852047D01*
X166769500Y-97069778D01*
X166769500Y-97290221D01*
X166803985Y-97507952D01*
X166872103Y-97717603D01*
X166872104Y-97717606D01*
X166972187Y-97914025D01*
X167101752Y-98092358D01*
X167101756Y-98092363D01*
X167257636Y-98248243D01*
X167257641Y-98248247D01*
X167397254Y-98349682D01*
X167439920Y-98405012D01*
X167445899Y-98474625D01*
X167413293Y-98536420D01*
X167397254Y-98550318D01*
X167257641Y-98651752D01*
X167257636Y-98651756D01*
X167101756Y-98807636D01*
X167101752Y-98807641D01*
X166972187Y-98985974D01*
X166872104Y-99182393D01*
X166872103Y-99182396D01*
X166803985Y-99392047D01*
X166769500Y-99609778D01*
X166769500Y-99830221D01*
X166803985Y-100047952D01*
X166872103Y-100257603D01*
X166872104Y-100257606D01*
X166972187Y-100454025D01*
X167101752Y-100632358D01*
X167101756Y-100632363D01*
X167257640Y-100788247D01*
X167397679Y-100889990D01*
X167440345Y-100945319D01*
X167446324Y-101014933D01*
X167413719Y-101076728D01*
X167397679Y-101090626D01*
X167372485Y-101108930D01*
X167372485Y-101108932D01*
X167958940Y-101695387D01*
X167938409Y-101700889D01*
X167801592Y-101779881D01*
X167689881Y-101891592D01*
X167610889Y-102028409D01*
X167605387Y-102048940D01*
X167018932Y-101462485D01*
X167018931Y-101462485D01*
X166972616Y-101526233D01*
X166872567Y-101722589D01*
X166804473Y-101932164D01*
X166770000Y-102149818D01*
X166770000Y-102370181D01*
X166804473Y-102587835D01*
X166872567Y-102797410D01*
X166972611Y-102993756D01*
X167018932Y-103057513D01*
X167605387Y-102471058D01*
X167610889Y-102491591D01*
X167689881Y-102628408D01*
X167801592Y-102740119D01*
X167938409Y-102819111D01*
X167958939Y-102824612D01*
X167372485Y-103411065D01*
X167372485Y-103411066D01*
X167397680Y-103429371D01*
X167440346Y-103484701D01*
X167446325Y-103554314D01*
X167413720Y-103616110D01*
X167397681Y-103630008D01*
X167257636Y-103731756D01*
X167101756Y-103887636D01*
X167101752Y-103887641D01*
X166972187Y-104065974D01*
X166872104Y-104262393D01*
X166872103Y-104262396D01*
X166803985Y-104472047D01*
X166769500Y-104689778D01*
X166769500Y-104910221D01*
X166803985Y-105127952D01*
X166872103Y-105337603D01*
X166872104Y-105337606D01*
X166972187Y-105534025D01*
X167101752Y-105712358D01*
X167101756Y-105712363D01*
X167257638Y-105868245D01*
X167368384Y-105948705D01*
X167411051Y-106004035D01*
X167419500Y-106049024D01*
X167419500Y-107717769D01*
X167399815Y-107784808D01*
X167383181Y-107805450D01*
X149756002Y-125432628D01*
X149744954Y-125438660D01*
X149736845Y-125448294D01*
X149714866Y-125455089D01*
X149694679Y-125466113D01*
X149682120Y-125465214D01*
X149670093Y-125468934D01*
X149647932Y-125462769D01*
X149624987Y-125461129D01*
X149614908Y-125453583D01*
X149602779Y-125450210D01*
X149587467Y-125433041D01*
X149569054Y-125419257D01*
X149563541Y-125406214D01*
X149556274Y-125398065D01*
X149545849Y-125364351D01*
X149535382Y-125298268D01*
X149544336Y-125228979D01*
X149570171Y-125191195D01*
X155812951Y-118948416D01*
X155895084Y-118825495D01*
X155951658Y-118688913D01*
X155980500Y-118543918D01*
X155980500Y-118396083D01*
X155980500Y-104486082D01*
X155980500Y-104486079D01*
X155951659Y-104341092D01*
X155951658Y-104341091D01*
X155951658Y-104341087D01*
X155951656Y-104341082D01*
X155895087Y-104204511D01*
X155895080Y-104204498D01*
X155812952Y-104081585D01*
X155797341Y-104065974D01*
X155708416Y-103977049D01*
X154343876Y-102612508D01*
X154310391Y-102551185D01*
X154309084Y-102505434D01*
X154330500Y-102370222D01*
X154330500Y-102149778D01*
X154296015Y-101932049D01*
X154261955Y-101827221D01*
X154227896Y-101722396D01*
X154227895Y-101722393D01*
X154193237Y-101654375D01*
X154127815Y-101525978D01*
X154081685Y-101462485D01*
X153998247Y-101347641D01*
X153998243Y-101347636D01*
X153842363Y-101191756D01*
X153842358Y-101191752D01*
X153702745Y-101090318D01*
X153660079Y-101034989D01*
X153654100Y-100965375D01*
X153686705Y-100903580D01*
X153702745Y-100889682D01*
X153842358Y-100788247D01*
X153842356Y-100788247D01*
X153842365Y-100788242D01*
X153998242Y-100632365D01*
X154127815Y-100454022D01*
X154227895Y-100257606D01*
X154296015Y-100047951D01*
X154330500Y-99830222D01*
X154330500Y-99609778D01*
X154296015Y-99392049D01*
X154227895Y-99182394D01*
X154227895Y-99182393D01*
X154193237Y-99114375D01*
X154127815Y-98985978D01*
X154111260Y-98963192D01*
X153998247Y-98807641D01*
X153998243Y-98807636D01*
X153842363Y-98651756D01*
X153842358Y-98651752D01*
X153702745Y-98550318D01*
X153660079Y-98494989D01*
X153654100Y-98425375D01*
X153686705Y-98363580D01*
X153702745Y-98349682D01*
X153842358Y-98248247D01*
X153842356Y-98248247D01*
X153842365Y-98248242D01*
X153998242Y-98092365D01*
X154127815Y-97914022D01*
X154227895Y-97717606D01*
X154296015Y-97507951D01*
X154330500Y-97290222D01*
X154330500Y-97069778D01*
X154296015Y-96852049D01*
X154227895Y-96642394D01*
X154227895Y-96642393D01*
X154193237Y-96574375D01*
X154127815Y-96445978D01*
X154111260Y-96423192D01*
X153998247Y-96267641D01*
X153998243Y-96267636D01*
X153842363Y-96111756D01*
X153842358Y-96111752D01*
X153702745Y-96010318D01*
X153660079Y-95954989D01*
X153654100Y-95885375D01*
X153686705Y-95823580D01*
X153702745Y-95809682D01*
X153842358Y-95708247D01*
X153842356Y-95708247D01*
X153842365Y-95708242D01*
X153998242Y-95552365D01*
X154127815Y-95374022D01*
X154227895Y-95177606D01*
X154296015Y-94967951D01*
X154330500Y-94750222D01*
X154330500Y-94529778D01*
X154296015Y-94312049D01*
X154227895Y-94102394D01*
X154227895Y-94102393D01*
X154169094Y-93986992D01*
X154127815Y-93905978D01*
X154020374Y-93758097D01*
X153998247Y-93727641D01*
X153998243Y-93727636D01*
X153842363Y-93571756D01*
X153842358Y-93571752D01*
X153702745Y-93470318D01*
X153660079Y-93414989D01*
X153654100Y-93345375D01*
X153686705Y-93283580D01*
X153702745Y-93269682D01*
X153842358Y-93168247D01*
X153842356Y-93168247D01*
X153842365Y-93168242D01*
X153998242Y-93012365D01*
X154127815Y-92834022D01*
X154227895Y-92637606D01*
X154296015Y-92427951D01*
X154330500Y-92210222D01*
X154330500Y-91989778D01*
X154296015Y-91772049D01*
X154227895Y-91562394D01*
X154227895Y-91562393D01*
X154193237Y-91494375D01*
X154127815Y-91365978D01*
X154111260Y-91343192D01*
X153998247Y-91187641D01*
X153998243Y-91187636D01*
X153842363Y-91031756D01*
X153842358Y-91031752D01*
X153702745Y-90930318D01*
X153660079Y-90874989D01*
X153654100Y-90805375D01*
X153686705Y-90743580D01*
X153702745Y-90729682D01*
X153842358Y-90628247D01*
X153842356Y-90628247D01*
X153842365Y-90628242D01*
X153998242Y-90472365D01*
X154127815Y-90294022D01*
X154227895Y-90097606D01*
X154296015Y-89887951D01*
X154330500Y-89670222D01*
X154330500Y-89449778D01*
X154296015Y-89232049D01*
X154256243Y-89109642D01*
X154227896Y-89022396D01*
X154227895Y-89022393D01*
X154193237Y-88954375D01*
X154127815Y-88825978D01*
X154053544Y-88723752D01*
X153998247Y-88647641D01*
X153998243Y-88647636D01*
X153842363Y-88491756D01*
X153842358Y-88491752D01*
X153702745Y-88390318D01*
X153660079Y-88334989D01*
X153654100Y-88265375D01*
X153686705Y-88203580D01*
X153702745Y-88189682D01*
X153842358Y-88088247D01*
X153842356Y-88088247D01*
X153842365Y-88088242D01*
X153998242Y-87932365D01*
X154127815Y-87754022D01*
X154227895Y-87557606D01*
X154296015Y-87347951D01*
X154330500Y-87130222D01*
X154330500Y-86909778D01*
X154296015Y-86692049D01*
X154258974Y-86578048D01*
X154227896Y-86482396D01*
X154227895Y-86482393D01*
X154191263Y-86410500D01*
X154127815Y-86285978D01*
X154111260Y-86263192D01*
X153998247Y-86107641D01*
X153998243Y-86107636D01*
X153842363Y-85951756D01*
X153842358Y-85951752D01*
X153702745Y-85850318D01*
X153660079Y-85794989D01*
X153654100Y-85725375D01*
X153686705Y-85663580D01*
X153702745Y-85649682D01*
X153842358Y-85548247D01*
X153842356Y-85548247D01*
X153842365Y-85548242D01*
X153998242Y-85392365D01*
X154127815Y-85214022D01*
X154227895Y-85017606D01*
X154296015Y-84807951D01*
X154330500Y-84590222D01*
X154330500Y-84369778D01*
X154296015Y-84152049D01*
X154249037Y-84007464D01*
X154227896Y-83942396D01*
X154227895Y-83942393D01*
X154179133Y-83846694D01*
X154127815Y-83745978D01*
X154072345Y-83669629D01*
X153998247Y-83567641D01*
X153998243Y-83567636D01*
X153842363Y-83411756D01*
X153842358Y-83411752D01*
X153702745Y-83310318D01*
X153660079Y-83254989D01*
X153654100Y-83185375D01*
X153686705Y-83123580D01*
X153702745Y-83109682D01*
X153842358Y-83008247D01*
X153842356Y-83008247D01*
X153842365Y-83008242D01*
X153998242Y-82852365D01*
X154127815Y-82674022D01*
X154227895Y-82477606D01*
X154296015Y-82267951D01*
X154330500Y-82050222D01*
X154330500Y-81829778D01*
X154296015Y-81612049D01*
X154261955Y-81507221D01*
X154227896Y-81402396D01*
X154227895Y-81402393D01*
X154176519Y-81301564D01*
X154127815Y-81205978D01*
X154101406Y-81169629D01*
X153998247Y-81027641D01*
X153998243Y-81027636D01*
X153842363Y-80871756D01*
X153842358Y-80871752D01*
X153702745Y-80770318D01*
X153660079Y-80714989D01*
X153654100Y-80645375D01*
X153686705Y-80583580D01*
X153702745Y-80569682D01*
X153842358Y-80468247D01*
X153842356Y-80468247D01*
X153842365Y-80468242D01*
X153998242Y-80312365D01*
X154127815Y-80134022D01*
X154227895Y-79937606D01*
X154296015Y-79727951D01*
X154330500Y-79510222D01*
X154330500Y-79289778D01*
X154296015Y-79072049D01*
X154235760Y-78886601D01*
X154227896Y-78862396D01*
X154227895Y-78862393D01*
X154193237Y-78794375D01*
X154127815Y-78665978D01*
X154021913Y-78520215D01*
X153998247Y-78487641D01*
X153998243Y-78487636D01*
X153842363Y-78331756D01*
X153842358Y-78331752D01*
X153702745Y-78230318D01*
X153660079Y-78174989D01*
X153654100Y-78105375D01*
X153686705Y-78043580D01*
X153702745Y-78029682D01*
X153842358Y-77928247D01*
X153842356Y-77928247D01*
X153842365Y-77928242D01*
X153998242Y-77772365D01*
X154127815Y-77594022D01*
X154227895Y-77397606D01*
X154296015Y-77187951D01*
X154330500Y-76970222D01*
X154330500Y-76749778D01*
X154296015Y-76532049D01*
X154252350Y-76397660D01*
X154227896Y-76322396D01*
X154227895Y-76322393D01*
X154193237Y-76254375D01*
X154127815Y-76125978D01*
X154098055Y-76085016D01*
X153998247Y-75947641D01*
X153998243Y-75947636D01*
X153842363Y-75791756D01*
X153842358Y-75791752D01*
X153702745Y-75690318D01*
X153660079Y-75634989D01*
X153654100Y-75565375D01*
X153686705Y-75503580D01*
X153702745Y-75489682D01*
X153842358Y-75388247D01*
X153842356Y-75388247D01*
X153842365Y-75388242D01*
X153998242Y-75232365D01*
X154127815Y-75054022D01*
X154227895Y-74857606D01*
X154296015Y-74647951D01*
X154330500Y-74430222D01*
X154330500Y-74209778D01*
X154296015Y-73992049D01*
X154243014Y-73828927D01*
X154227896Y-73782396D01*
X154227895Y-73782393D01*
X154191281Y-73710536D01*
X154127815Y-73585978D01*
X154089535Y-73533290D01*
X153998247Y-73407641D01*
X153998243Y-73407636D01*
X153842363Y-73251756D01*
X153842358Y-73251752D01*
X153702745Y-73150318D01*
X153660079Y-73094989D01*
X153654100Y-73025375D01*
X153686705Y-72963580D01*
X153702745Y-72949682D01*
X153842358Y-72848247D01*
X153842356Y-72848247D01*
X153842365Y-72848242D01*
X153998242Y-72692365D01*
X154127815Y-72514022D01*
X154227895Y-72317606D01*
X154296015Y-72107951D01*
X154330500Y-71890222D01*
X154330500Y-71669778D01*
X154296015Y-71452049D01*
X154227895Y-71242394D01*
X154227895Y-71242393D01*
X154193237Y-71174375D01*
X154127815Y-71045978D01*
X154111260Y-71023192D01*
X153998247Y-70867641D01*
X153998243Y-70867636D01*
X153842363Y-70711756D01*
X153842358Y-70711752D01*
X153702745Y-70610318D01*
X153660079Y-70554989D01*
X153654100Y-70485375D01*
X153686705Y-70423580D01*
X153702745Y-70409682D01*
X153842358Y-70308247D01*
X153842356Y-70308247D01*
X153842365Y-70308242D01*
X153998242Y-70152365D01*
X154127815Y-69974022D01*
X154227895Y-69777606D01*
X154296015Y-69567951D01*
X154330500Y-69350222D01*
X154330500Y-69129778D01*
X154296015Y-68912049D01*
X154244900Y-68754731D01*
X154227896Y-68702396D01*
X154227895Y-68702393D01*
X154173690Y-68596012D01*
X154127815Y-68505978D01*
X154096838Y-68463342D01*
X153998247Y-68327641D01*
X153998243Y-68327636D01*
X153842363Y-68171756D01*
X153842358Y-68171752D01*
X153664025Y-68042187D01*
X153664024Y-68042186D01*
X153664022Y-68042185D01*
X153589901Y-68004418D01*
X153467606Y-67942104D01*
X153467603Y-67942103D01*
X153257952Y-67873985D01*
X153149086Y-67856742D01*
X153040222Y-67839500D01*
X152819778Y-67839500D01*
X152747201Y-67850995D01*
X152602047Y-67873985D01*
X152392396Y-67942103D01*
X152392393Y-67942104D01*
X152195974Y-68042187D01*
X152017641Y-68171752D01*
X152017636Y-68171756D01*
X151861756Y-68327636D01*
X151861752Y-68327641D01*
X151732187Y-68505974D01*
X151632104Y-68702393D01*
X151632103Y-68702396D01*
X151563985Y-68912047D01*
X151529500Y-69129778D01*
X151529500Y-69350221D01*
X151563985Y-69567952D01*
X151632103Y-69777603D01*
X151632104Y-69777606D01*
X151732187Y-69974025D01*
X151861752Y-70152358D01*
X151861756Y-70152363D01*
X152017636Y-70308243D01*
X152017641Y-70308247D01*
X152157254Y-70409682D01*
X152199920Y-70465012D01*
X152205899Y-70534625D01*
X152173293Y-70596420D01*
X152157254Y-70610318D01*
X152017641Y-70711752D01*
X152017636Y-70711756D01*
X151861756Y-70867636D01*
X151861752Y-70867641D01*
X151732187Y-71045974D01*
X151632104Y-71242393D01*
X151632103Y-71242396D01*
X151563985Y-71452047D01*
X151529500Y-71669778D01*
X151529500Y-71890221D01*
X151563985Y-72107952D01*
X151632103Y-72317603D01*
X151632104Y-72317606D01*
X151732187Y-72514025D01*
X151861752Y-72692358D01*
X151861756Y-72692363D01*
X152017636Y-72848243D01*
X152017641Y-72848247D01*
X152157254Y-72949682D01*
X152199920Y-73005012D01*
X152205899Y-73074625D01*
X152173293Y-73136420D01*
X152157254Y-73150318D01*
X152017641Y-73251752D01*
X152017636Y-73251756D01*
X151861756Y-73407636D01*
X151861752Y-73407641D01*
X151732187Y-73585974D01*
X151632104Y-73782393D01*
X151632103Y-73782396D01*
X151563985Y-73992047D01*
X151541817Y-74132012D01*
X151536424Y-74143388D01*
X151535526Y-74155948D01*
X151521741Y-74174362D01*
X151511888Y-74195147D01*
X151501198Y-74201802D01*
X151493654Y-74211881D01*
X151472103Y-74219918D01*
X151452576Y-74232078D01*
X151439986Y-74231898D01*
X151428190Y-74236298D01*
X151405713Y-74231408D01*
X151382714Y-74231080D01*
X151370587Y-74223767D01*
X151359917Y-74221446D01*
X151331663Y-74200295D01*
X151246819Y-74115451D01*
X151213334Y-74054128D01*
X151210500Y-74027770D01*
X151210500Y-66876079D01*
X151181659Y-66731092D01*
X151181658Y-66731091D01*
X151181658Y-66731087D01*
X151158565Y-66675335D01*
X151125087Y-66594511D01*
X151125080Y-66594498D01*
X151042952Y-66471585D01*
X151042951Y-66471584D01*
X150938416Y-66367049D01*
X147748416Y-63177048D01*
X147411065Y-62839697D01*
X147055921Y-62484552D01*
X147055914Y-62484546D01*
X146982229Y-62435312D01*
X146982229Y-62435313D01*
X146932991Y-62402413D01*
X146796415Y-62345842D01*
X146796407Y-62345840D01*
X146737332Y-62334089D01*
X146675421Y-62301704D01*
X146673843Y-62300153D01*
X146608351Y-62234661D01*
X146608350Y-62234660D01*
X146461516Y-62144092D01*
X146297753Y-62089826D01*
X146297751Y-62089825D01*
X146196678Y-62079500D01*
X145623330Y-62079500D01*
X145623312Y-62079501D01*
X145522247Y-62089825D01*
X145358484Y-62144092D01*
X145358481Y-62144093D01*
X145211648Y-62234661D01*
X145089661Y-62356648D01*
X144999093Y-62503481D01*
X144999092Y-62503484D01*
X144944826Y-62667247D01*
X144944826Y-62667248D01*
X144944825Y-62667248D01*
X144934500Y-62768315D01*
X144934500Y-63366669D01*
X144934501Y-63366687D01*
X144944825Y-63467752D01*
X144974614Y-63557647D01*
X144996069Y-63622394D01*
X144999092Y-63631515D01*
X144999093Y-63631518D01*
X145089661Y-63778351D01*
X145203629Y-63892319D01*
X145207966Y-63900263D01*
X145215216Y-63905690D01*
X145224451Y-63930452D01*
X145237114Y-63953642D01*
X145236468Y-63962672D01*
X145239632Y-63971155D01*
X145234015Y-63996975D01*
X145232130Y-64023334D01*
X145226311Y-64032388D01*
X145224780Y-64039427D01*
X145203631Y-64067678D01*
X145126932Y-64144378D01*
X145111325Y-64159985D01*
X145050001Y-64193469D01*
X144980310Y-64188485D01*
X144924376Y-64146613D01*
X144905714Y-64110623D01*
X144890568Y-64064008D01*
X144783343Y-63853567D01*
X144644517Y-63662490D01*
X144477510Y-63495483D01*
X144286433Y-63356657D01*
X144253316Y-63339783D01*
X144202520Y-63291808D01*
X144185725Y-63223987D01*
X144208263Y-63157852D01*
X144236718Y-63128986D01*
X144324418Y-63065269D01*
X144465269Y-62924418D01*
X144582353Y-62763266D01*
X144672785Y-62585783D01*
X144690144Y-62532358D01*
X144734338Y-62396343D01*
X144734338Y-62396342D01*
X144734339Y-62396339D01*
X144765500Y-62199597D01*
X144765500Y-62000403D01*
X144734339Y-61803661D01*
X144734338Y-61803657D01*
X144734338Y-61803656D01*
X144672786Y-61614219D01*
X144629074Y-61528429D01*
X144582353Y-61436734D01*
X144465269Y-61275582D01*
X144324418Y-61134731D01*
X144163266Y-61017647D01*
X144084379Y-60977452D01*
X143985780Y-60927213D01*
X143796342Y-60865661D01*
X143648782Y-60842290D01*
X143599597Y-60834500D01*
X143400403Y-60834500D01*
X143334822Y-60844887D01*
X143203659Y-60865661D01*
X143203656Y-60865661D01*
X143014219Y-60927213D01*
X142836733Y-61017647D01*
X142747619Y-61082393D01*
X142675582Y-61134731D01*
X142675580Y-61134733D01*
X142675579Y-61134733D01*
X142534733Y-61275579D01*
X142534733Y-61275580D01*
X142534731Y-61275582D01*
X142522767Y-61292049D01*
X142417647Y-61436733D01*
X142327213Y-61614219D01*
X142265661Y-61803656D01*
X142265661Y-61803659D01*
X142251821Y-61891042D01*
X142234500Y-62000403D01*
X142234500Y-62199597D01*
X142240054Y-62234661D01*
X142265661Y-62396340D01*
X142265661Y-62396343D01*
X142327213Y-62585780D01*
X142327215Y-62585783D01*
X142417647Y-62763266D01*
X142534731Y-62924418D01*
X142675582Y-63065269D01*
X142763273Y-63128980D01*
X142805938Y-63184310D01*
X142811917Y-63253924D01*
X142779311Y-63315719D01*
X142746685Y-63339781D01*
X142713569Y-63356655D01*
X142671454Y-63387254D01*
X142522490Y-63495483D01*
X142522488Y-63495485D01*
X142522487Y-63495485D01*
X142355485Y-63662487D01*
X142355485Y-63662488D01*
X142355483Y-63662490D01*
X142346588Y-63674733D01*
X142216657Y-63853566D01*
X142109433Y-64064003D01*
X142036446Y-64288631D01*
X141999500Y-64521902D01*
X141999500Y-67298097D01*
X142036446Y-67531368D01*
X142109433Y-67755996D01*
X142169552Y-67873985D01*
X142216657Y-67966433D01*
X142355483Y-68157510D01*
X142522490Y-68324517D01*
X142713567Y-68463343D01*
X142742451Y-68478060D01*
X142746682Y-68480216D01*
X142797478Y-68528191D01*
X142814273Y-68596012D01*
X142791735Y-68662147D01*
X142763273Y-68691018D01*
X142675588Y-68754726D01*
X142675579Y-68754733D01*
X142534733Y-68895579D01*
X142534733Y-68895580D01*
X142534731Y-68895582D01*
X142522767Y-68912049D01*
X142417647Y-69056733D01*
X142327213Y-69234219D01*
X142265661Y-69423656D01*
X142265661Y-69423659D01*
X142234500Y-69620403D01*
X142234500Y-69819596D01*
X142265661Y-70016340D01*
X142265661Y-70016343D01*
X142327213Y-70205780D01*
X142327215Y-70205783D01*
X142417647Y-70383266D01*
X142534731Y-70544418D01*
X142675582Y-70685269D01*
X142836734Y-70802353D01*
X142964869Y-70867641D01*
X143014219Y-70892786D01*
X143203657Y-70954338D01*
X143203658Y-70954338D01*
X143203661Y-70954339D01*
X143400403Y-70985500D01*
X143400404Y-70985500D01*
X143599596Y-70985500D01*
X143599597Y-70985500D01*
X143796339Y-70954339D01*
X143796342Y-70954338D01*
X143796343Y-70954338D01*
X143985780Y-70892786D01*
X143985780Y-70892785D01*
X143985783Y-70892785D01*
X144163266Y-70802353D01*
X144324418Y-70685269D01*
X144465269Y-70544418D01*
X144582353Y-70383266D01*
X144672785Y-70205783D01*
X144734339Y-70016339D01*
X144765500Y-69819597D01*
X144765500Y-69620403D01*
X144734339Y-69423661D01*
X144734338Y-69423657D01*
X144734338Y-69423656D01*
X144672786Y-69234219D01*
X144672785Y-69234217D01*
X144582353Y-69056734D01*
X144465269Y-68895582D01*
X144324418Y-68754731D01*
X144236725Y-68691018D01*
X144194061Y-68635689D01*
X144188082Y-68566075D01*
X144220688Y-68504280D01*
X144253318Y-68480216D01*
X144286431Y-68463344D01*
X144286430Y-68463344D01*
X144286433Y-68463343D01*
X144477510Y-68324517D01*
X144644517Y-68157510D01*
X144645536Y-68156107D01*
X144652439Y-68146607D01*
X144707767Y-68103939D01*
X144777380Y-68097958D01*
X144839177Y-68130562D01*
X144840440Y-68131808D01*
X148423181Y-71714549D01*
X148456666Y-71775872D01*
X148459500Y-71802230D01*
X148459500Y-81188770D01*
X148439815Y-81255809D01*
X148387011Y-81301564D01*
X148317853Y-81311508D01*
X148254297Y-81282483D01*
X148247819Y-81276451D01*
X147073421Y-80102052D01*
X147073420Y-80102051D01*
X146977233Y-80037782D01*
X146955567Y-80023305D01*
X146950495Y-80019916D01*
X146950493Y-80019915D01*
X146950490Y-80019913D01*
X146813917Y-79963343D01*
X146813907Y-79963340D01*
X146668920Y-79934500D01*
X146668918Y-79934500D01*
X144910070Y-79934500D01*
X144902313Y-79934257D01*
X144895186Y-79933810D01*
X144870701Y-79929413D01*
X144767599Y-79925813D01*
X144765848Y-79925704D01*
X144765532Y-79925589D01*
X144759353Y-79925125D01*
X144694550Y-79917627D01*
X144683346Y-79915808D01*
X144641111Y-79906949D01*
X144629327Y-79903866D01*
X144614676Y-79899253D01*
X144597959Y-79892622D01*
X144515270Y-79852659D01*
X144501948Y-79845175D01*
X144409933Y-79785741D01*
X144409391Y-79785389D01*
X144295868Y-79711221D01*
X144295866Y-79711220D01*
X144295845Y-79711206D01*
X144279861Y-79701184D01*
X144279101Y-79700727D01*
X144279092Y-79700722D01*
X144279074Y-79700711D01*
X144261980Y-79690882D01*
X144128664Y-79617658D01*
X144101616Y-79603843D01*
X144100380Y-79603258D01*
X144100367Y-79603252D01*
X144100360Y-79603249D01*
X144087807Y-79597761D01*
X144072552Y-79591092D01*
X144030300Y-79574112D01*
X143936384Y-79536371D01*
X143881522Y-79493109D01*
X143858757Y-79427052D01*
X143875319Y-79359174D01*
X143925949Y-79311025D01*
X143926198Y-79310896D01*
X144016694Y-79264787D01*
X144177464Y-79147981D01*
X144317981Y-79007464D01*
X144434787Y-78846694D01*
X144525005Y-78669632D01*
X144586413Y-78480636D01*
X144617500Y-78284361D01*
X144617500Y-78085639D01*
X144586413Y-77889364D01*
X144543689Y-77757873D01*
X144525006Y-77700370D01*
X144525005Y-77700367D01*
X144450620Y-77554380D01*
X144434787Y-77523306D01*
X144317981Y-77362536D01*
X144177464Y-77222019D01*
X144016694Y-77105213D01*
X143899470Y-77045484D01*
X143848675Y-76997510D01*
X143831880Y-76929689D01*
X143854417Y-76863555D01*
X143899469Y-76824515D01*
X144016694Y-76764787D01*
X144177464Y-76647981D01*
X144317981Y-76507464D01*
X144434787Y-76346694D01*
X144525005Y-76169632D01*
X144586413Y-75980636D01*
X144617500Y-75784361D01*
X144617500Y-75585639D01*
X144586413Y-75389364D01*
X144541531Y-75251229D01*
X144525006Y-75200370D01*
X144525005Y-75200367D01*
X144450439Y-75054025D01*
X144434787Y-75023306D01*
X144317981Y-74862536D01*
X144177464Y-74722019D01*
X144016694Y-74605213D01*
X143980971Y-74587011D01*
X143839632Y-74514994D01*
X143839629Y-74514993D01*
X143650637Y-74453587D01*
X143552498Y-74438043D01*
X143454361Y-74422500D01*
X143255639Y-74422500D01*
X143255635Y-74422500D01*
X143112684Y-74445141D01*
X143104404Y-74446169D01*
X143078051Y-74448541D01*
X142706043Y-74536644D01*
X142696007Y-74539130D01*
X142695515Y-74539257D01*
X142684502Y-74542238D01*
X142588189Y-74569482D01*
X142587359Y-74569714D01*
X142454460Y-74606182D01*
X142446572Y-74608071D01*
X142337296Y-74630484D01*
X142325567Y-74632310D01*
X142184790Y-74647364D01*
X142175061Y-74648019D01*
X141947035Y-74654377D01*
X141918151Y-74656534D01*
X141900032Y-74657887D01*
X141900029Y-74657887D01*
X141894174Y-74658325D01*
X141894172Y-74658304D01*
X141880076Y-74659500D01*
X106061999Y-74659500D01*
X105994960Y-74639815D01*
X105949205Y-74587011D01*
X105937999Y-74535500D01*
X105937999Y-74484998D01*
X105937998Y-74484981D01*
X105927499Y-74382203D01*
X105927498Y-74382200D01*
X105872314Y-74215666D01*
X105780212Y-74066344D01*
X105656156Y-73942288D01*
X105506834Y-73850186D01*
X105340297Y-73795001D01*
X105340295Y-73795000D01*
X105237510Y-73784500D01*
X103637498Y-73784500D01*
X103637481Y-73784501D01*
X103534703Y-73795000D01*
X103534700Y-73795001D01*
X103368168Y-73850185D01*
X103368163Y-73850187D01*
X103218842Y-73942289D01*
X103094789Y-74066342D01*
X103002687Y-74215663D01*
X103002685Y-74215668D01*
X102995849Y-74236298D01*
X102947501Y-74382203D01*
X102947501Y-74382204D01*
X102947500Y-74382204D01*
X102937000Y-74484983D01*
X99900000Y-74484983D01*
X99900000Y-63000979D01*
X99908373Y-62956185D01*
X99953501Y-62839697D01*
X100062321Y-62457227D01*
X100135387Y-62066349D01*
X100172075Y-61670396D01*
X100172073Y-61473613D01*
X100172079Y-61472428D01*
X100173852Y-61287135D01*
X101014500Y-61287135D01*
X101014500Y-62912870D01*
X101014501Y-62912876D01*
X101020908Y-62972483D01*
X101071202Y-63107328D01*
X101071206Y-63107335D01*
X101157452Y-63222544D01*
X101157455Y-63222547D01*
X101272664Y-63308793D01*
X101272671Y-63308797D01*
X101407517Y-63359091D01*
X101407516Y-63359091D01*
X101414444Y-63359835D01*
X101467127Y-63365500D01*
X101499568Y-63365499D01*
X101566605Y-63385182D01*
X101612361Y-63437984D01*
X101622306Y-63507143D01*
X101593283Y-63570699D01*
X101572455Y-63589816D01*
X101455582Y-63674730D01*
X101314733Y-63815579D01*
X101314733Y-63815580D01*
X101314731Y-63815582D01*
X101264447Y-63884790D01*
X101197647Y-63976733D01*
X101107213Y-64154219D01*
X101045661Y-64343656D01*
X101045661Y-64343659D01*
X101014500Y-64540403D01*
X101014500Y-64739596D01*
X101045661Y-64936340D01*
X101045661Y-64936343D01*
X101107213Y-65125780D01*
X101150184Y-65210115D01*
X101197647Y-65303266D01*
X101314731Y-65464418D01*
X101455582Y-65605269D01*
X101616734Y-65722353D01*
X101664151Y-65746513D01*
X101768172Y-65799515D01*
X101818968Y-65847490D01*
X101835763Y-65915311D01*
X101813225Y-65981446D01*
X101768172Y-66020485D01*
X101616733Y-66097647D01*
X101527619Y-66162393D01*
X101455582Y-66214731D01*
X101455580Y-66214733D01*
X101455579Y-66214733D01*
X101314733Y-66355579D01*
X101314733Y-66355580D01*
X101314731Y-66355582D01*
X101283058Y-66399176D01*
X101197647Y-66516733D01*
X101107213Y-66694219D01*
X101045661Y-66883656D01*
X101045661Y-66883659D01*
X101045661Y-66883661D01*
X101014500Y-67080403D01*
X101014500Y-67279597D01*
X101030080Y-67377968D01*
X101045661Y-67476340D01*
X101045661Y-67476343D01*
X101107213Y-67665780D01*
X101153181Y-67755996D01*
X101197647Y-67843266D01*
X101314731Y-68004418D01*
X101455582Y-68145269D01*
X101616734Y-68262353D01*
X101686453Y-68297877D01*
X101768172Y-68339515D01*
X101818968Y-68387490D01*
X101835763Y-68455311D01*
X101813225Y-68521446D01*
X101768172Y-68560485D01*
X101616733Y-68637647D01*
X101543275Y-68691018D01*
X101455582Y-68754731D01*
X101455580Y-68754733D01*
X101455579Y-68754733D01*
X101314733Y-68895579D01*
X101314733Y-68895580D01*
X101314731Y-68895582D01*
X101302767Y-68912049D01*
X101197647Y-69056733D01*
X101107213Y-69234219D01*
X101045661Y-69423656D01*
X101045661Y-69423659D01*
X101014500Y-69620403D01*
X101014500Y-69819596D01*
X101045661Y-70016340D01*
X101045661Y-70016343D01*
X101107213Y-70205780D01*
X101107215Y-70205783D01*
X101197647Y-70383266D01*
X101314731Y-70544418D01*
X101455582Y-70685269D01*
X101616734Y-70802353D01*
X101744869Y-70867641D01*
X101794219Y-70892786D01*
X101983657Y-70954338D01*
X101983658Y-70954338D01*
X101983661Y-70954339D01*
X102180403Y-70985500D01*
X102180404Y-70985500D01*
X102379596Y-70985500D01*
X102379597Y-70985500D01*
X102576339Y-70954339D01*
X102576342Y-70954338D01*
X102576343Y-70954338D01*
X102765780Y-70892786D01*
X102765780Y-70892785D01*
X102765783Y-70892785D01*
X102943266Y-70802353D01*
X103104418Y-70685269D01*
X103245269Y-70544418D01*
X103362353Y-70383266D01*
X103452785Y-70205783D01*
X103514339Y-70016339D01*
X103545500Y-69819597D01*
X103545500Y-69620403D01*
X103514339Y-69423661D01*
X103514338Y-69423657D01*
X103514338Y-69423656D01*
X103452786Y-69234219D01*
X103452785Y-69234217D01*
X103362353Y-69056734D01*
X103245269Y-68895582D01*
X103104418Y-68754731D01*
X102943266Y-68637647D01*
X102791827Y-68560485D01*
X102741031Y-68512510D01*
X102724236Y-68444689D01*
X102746773Y-68378554D01*
X102791827Y-68339515D01*
X102821268Y-68324514D01*
X102943266Y-68262353D01*
X103104418Y-68145269D01*
X103245269Y-68004418D01*
X103362353Y-67843266D01*
X103452785Y-67665783D01*
X103514339Y-67476339D01*
X103545500Y-67279597D01*
X103545500Y-67080403D01*
X103514339Y-66883661D01*
X103514338Y-66883657D01*
X103514338Y-66883656D01*
X103452786Y-66694219D01*
X103401979Y-66594505D01*
X103362353Y-66516734D01*
X103245269Y-66355582D01*
X103104418Y-66214731D01*
X102943266Y-66097647D01*
X102791827Y-66020485D01*
X102741031Y-65972510D01*
X102724236Y-65904689D01*
X102746773Y-65838554D01*
X102791827Y-65799515D01*
X102815143Y-65787635D01*
X102943266Y-65722353D01*
X103104418Y-65605269D01*
X103245269Y-65464418D01*
X103362353Y-65303266D01*
X103452785Y-65125783D01*
X103471354Y-65068634D01*
X103514338Y-64936343D01*
X103514338Y-64936342D01*
X103514339Y-64936339D01*
X103545500Y-64739597D01*
X103545500Y-64540403D01*
X103514339Y-64343661D01*
X103514338Y-64343657D01*
X103514338Y-64343656D01*
X103452786Y-64154219D01*
X103406821Y-64064008D01*
X103362353Y-63976734D01*
X103245269Y-63815582D01*
X103104418Y-63674731D01*
X102987543Y-63589816D01*
X102944878Y-63534487D01*
X102938899Y-63464874D01*
X102971505Y-63403079D01*
X103032343Y-63368722D01*
X103060428Y-63365499D01*
X103092872Y-63365499D01*
X103152483Y-63359091D01*
X103287331Y-63308796D01*
X103402546Y-63222546D01*
X103488796Y-63107331D01*
X103539091Y-62972483D01*
X103545500Y-62912873D01*
X103545499Y-61287128D01*
X103539091Y-61227517D01*
X103488796Y-61092669D01*
X103488795Y-61092668D01*
X103488793Y-61092664D01*
X103402547Y-60977455D01*
X103402544Y-60977452D01*
X103287335Y-60891206D01*
X103287328Y-60891202D01*
X103152482Y-60840908D01*
X103152483Y-60840908D01*
X103092883Y-60834501D01*
X103092881Y-60834500D01*
X103092873Y-60834500D01*
X103092864Y-60834500D01*
X101467129Y-60834500D01*
X101467123Y-60834501D01*
X101407516Y-60840908D01*
X101272671Y-60891202D01*
X101272664Y-60891206D01*
X101157455Y-60977452D01*
X101157452Y-60977455D01*
X101071206Y-61092664D01*
X101071202Y-61092671D01*
X101020908Y-61227517D01*
X101014501Y-61287116D01*
X101014501Y-61287123D01*
X101014500Y-61287135D01*
X100173852Y-61287135D01*
X100173895Y-61282620D01*
X100196464Y-58923314D01*
X100216789Y-58856466D01*
X100270028Y-58811218D01*
X100320458Y-58800500D01*
X180503928Y-58800500D01*
X180570967Y-58820185D01*
G37*
%TD.AperFunction*%
%TD*%
%TA.AperFunction,Conductor*%
%TO.N,+5V*%
G36*
X120652621Y-91939427D02*
G01*
X120655997Y-91946605D01*
X120662768Y-92018612D01*
X120662768Y-92018614D01*
X120683420Y-92105776D01*
X120683421Y-92105779D01*
X120716342Y-92198912D01*
X120716349Y-92198926D01*
X120807482Y-92373627D01*
X120807483Y-92373629D01*
X120915972Y-92511126D01*
X120917661Y-92513266D01*
X121035324Y-92610471D01*
X121155990Y-92667161D01*
X121257138Y-92682527D01*
X121264802Y-92687156D01*
X121266947Y-92695850D01*
X121263659Y-92702361D01*
X120538279Y-93428709D01*
X120530008Y-93432141D01*
X120521732Y-93428720D01*
X120521721Y-93428709D01*
X119799017Y-92705042D01*
X119795596Y-92696766D01*
X119799028Y-92688495D01*
X119805608Y-92685197D01*
X119873936Y-92675254D01*
X119939169Y-92654730D01*
X120009357Y-92619921D01*
X120074778Y-92574623D01*
X120144411Y-92511126D01*
X120206791Y-92438519D01*
X120267515Y-92349709D01*
X120317960Y-92256681D01*
X120385544Y-92073175D01*
X120403574Y-91946057D01*
X120408129Y-91938347D01*
X120415158Y-91936000D01*
X120644348Y-91936000D01*
X120652621Y-91939427D01*
G37*
%TD.AperFunction*%
%TD*%
%TA.AperFunction,Conductor*%
%TO.N,/RS_ENABLE*%
G36*
X144141817Y-64225222D02*
G01*
X144142271Y-64225961D01*
X144179548Y-64291961D01*
X144180109Y-64293092D01*
X144209754Y-64362015D01*
X144253028Y-64450934D01*
X144253029Y-64450935D01*
X144305403Y-64496070D01*
X144350072Y-64510134D01*
X144399249Y-64514127D01*
X144407215Y-64518211D01*
X144410000Y-64525788D01*
X144410000Y-64754718D01*
X144406573Y-64762991D01*
X144399804Y-64766321D01*
X144325587Y-64775943D01*
X144325585Y-64775944D01*
X144271974Y-64806935D01*
X144237313Y-64855205D01*
X144209746Y-64918001D01*
X144197887Y-64946945D01*
X144197424Y-64947940D01*
X144142110Y-65053491D01*
X144135235Y-65059228D01*
X144126316Y-65058423D01*
X144125258Y-65057795D01*
X143513588Y-64649732D01*
X143508608Y-64642291D01*
X143510349Y-64633507D01*
X143513589Y-64630267D01*
X143670199Y-64525788D01*
X144125592Y-64221981D01*
X144134375Y-64220241D01*
X144141817Y-64225222D01*
G37*
%TD.AperFunction*%
%TD*%
%TA.AperFunction,Conductor*%
%TO.N,/RS_ENABLE*%
G36*
X143934275Y-64011119D02*
G01*
X143934906Y-64011574D01*
X144063348Y-64110843D01*
X144064552Y-64111914D01*
X144169894Y-64219483D01*
X144170777Y-64220494D01*
X144253049Y-64326459D01*
X144253513Y-64327101D01*
X144321887Y-64428695D01*
X144377541Y-64511768D01*
X144471083Y-64624323D01*
X144574307Y-64699525D01*
X144637856Y-64727452D01*
X144712181Y-64748483D01*
X144712186Y-64748483D01*
X144712187Y-64748484D01*
X144743226Y-64753196D01*
X144805317Y-64762623D01*
X144805331Y-64762623D01*
X144805335Y-64762624D01*
X144825152Y-64763505D01*
X144903800Y-64767002D01*
X144911911Y-64770792D01*
X144914979Y-64778690D01*
X144914979Y-65006437D01*
X144911552Y-65014710D01*
X144903934Y-65018119D01*
X144674277Y-65030991D01*
X144493602Y-65067462D01*
X144349736Y-65120908D01*
X144219456Y-65185335D01*
X144131351Y-65230113D01*
X144130563Y-65230477D01*
X143918960Y-65318949D01*
X143917843Y-65319351D01*
X143795814Y-65356359D01*
X143795055Y-65356562D01*
X143660986Y-65387583D01*
X143652154Y-65386109D01*
X143646950Y-65378821D01*
X143646877Y-65378481D01*
X143642447Y-65356359D01*
X143499954Y-64644766D01*
X143501688Y-64635985D01*
X143918044Y-64014328D01*
X143925494Y-64009362D01*
X143934275Y-64011119D01*
G37*
%TD.AperFunction*%
%TD*%
%TA.AperFunction,Conductor*%
%TO.N,/RS_ENABLE*%
G36*
X144101593Y-66505863D02*
G01*
X144269626Y-66531782D01*
X144270317Y-66531911D01*
X144494217Y-66581321D01*
X144496057Y-66581890D01*
X144678121Y-66655108D01*
X144679636Y-66655849D01*
X144776516Y-66712275D01*
X144777385Y-66712835D01*
X144880050Y-66785806D01*
X144880794Y-66786381D01*
X145017113Y-66900791D01*
X145017666Y-66901287D01*
X145164282Y-67041130D01*
X145167904Y-67049319D01*
X145164673Y-67057671D01*
X145164480Y-67057869D01*
X144827004Y-67395345D01*
X144818731Y-67398772D01*
X144811182Y-67396011D01*
X144735150Y-67331795D01*
X144658259Y-67292807D01*
X144658252Y-67292805D01*
X144586947Y-67282148D01*
X144586938Y-67282149D01*
X144519444Y-67295995D01*
X144519440Y-67295996D01*
X144453985Y-67330519D01*
X144453984Y-67330520D01*
X144388813Y-67381884D01*
X144252222Y-67519838D01*
X144252223Y-67519839D01*
X144085047Y-67688868D01*
X144084004Y-67689803D01*
X143934956Y-67808175D01*
X143926347Y-67810637D01*
X143918518Y-67806289D01*
X143917953Y-67805516D01*
X143501991Y-67183329D01*
X143500242Y-67174547D01*
X143647018Y-66440825D01*
X143652001Y-66433386D01*
X143660433Y-66431583D01*
X144101593Y-66505863D01*
G37*
%TD.AperFunction*%
%TD*%
%TA.AperFunction,Conductor*%
%TO.N,/+12.8V*%
G36*
X120563268Y-116993279D02*
G01*
X120563279Y-116993290D01*
X121285982Y-117716957D01*
X121289403Y-117725233D01*
X121285971Y-117733504D01*
X121279388Y-117736803D01*
X121211064Y-117746746D01*
X121145836Y-117767268D01*
X121145828Y-117767271D01*
X121075644Y-117802078D01*
X121075637Y-117802082D01*
X121010222Y-117847376D01*
X121010217Y-117847381D01*
X120940588Y-117910874D01*
X120878207Y-117983483D01*
X120817481Y-118072297D01*
X120817480Y-118072298D01*
X120767042Y-118165313D01*
X120699456Y-118348824D01*
X120681426Y-118475943D01*
X120676871Y-118483653D01*
X120669842Y-118486000D01*
X120440652Y-118486000D01*
X120432379Y-118482573D01*
X120429003Y-118475395D01*
X120427667Y-118461197D01*
X120422232Y-118403389D01*
X120401580Y-118316226D01*
X120401578Y-118316220D01*
X120368657Y-118223087D01*
X120368653Y-118223079D01*
X120368652Y-118223076D01*
X120277517Y-118048372D01*
X120277516Y-118048370D01*
X120167343Y-117908739D01*
X120167342Y-117908738D01*
X120167339Y-117908734D01*
X120049676Y-117811529D01*
X120049675Y-117811528D01*
X119929008Y-117754838D01*
X119827862Y-117739473D01*
X119820197Y-117734843D01*
X119818052Y-117726149D01*
X119821340Y-117719638D01*
X119824018Y-117716957D01*
X120546721Y-116993289D01*
X120554992Y-116989858D01*
X120563268Y-116993279D01*
G37*
%TD.AperFunction*%
%TD*%
%TA.AperFunction,Conductor*%
%TO.N,/CAN_RX*%
G36*
X143515616Y-79940749D02*
G01*
X143716837Y-79993036D01*
X143718255Y-79993503D01*
X143884056Y-80060133D01*
X143885317Y-80060730D01*
X144018604Y-80133938D01*
X144019364Y-80134395D01*
X144134262Y-80209461D01*
X144260316Y-80290883D01*
X144260320Y-80290885D01*
X144419203Y-80367671D01*
X144507030Y-80395326D01*
X144607792Y-80416462D01*
X144607796Y-80416462D01*
X144607799Y-80416463D01*
X144640656Y-80420264D01*
X144726382Y-80430183D01*
X144853067Y-80434605D01*
X144861215Y-80438318D01*
X144864358Y-80446298D01*
X144864358Y-80923700D01*
X144860931Y-80931973D01*
X144853065Y-80935393D01*
X144726696Y-80939793D01*
X144616788Y-80952474D01*
X144608332Y-80953450D01*
X144608331Y-80953450D01*
X144608324Y-80953451D01*
X144608322Y-80953451D01*
X144506256Y-80974876D01*
X144506250Y-80974878D01*
X144417415Y-81002995D01*
X144417408Y-81002998D01*
X144267454Y-81074921D01*
X144134320Y-81160500D01*
X144134208Y-81160572D01*
X144035791Y-81222255D01*
X143950521Y-81275698D01*
X143949107Y-81276454D01*
X143753645Y-81364282D01*
X143752363Y-81364770D01*
X143638069Y-81400750D01*
X143637232Y-81400980D01*
X143515432Y-81429592D01*
X143506594Y-81428148D01*
X143501366Y-81420878D01*
X143501284Y-81420499D01*
X143354459Y-80687292D01*
X143354459Y-80682707D01*
X143501228Y-79949779D01*
X143506211Y-79942342D01*
X143514996Y-79940607D01*
X143515616Y-79940749D01*
G37*
%TD.AperFunction*%
%TD*%
%TA.AperFunction,Conductor*%
%TO.N,Net-(CanBus_Module1-CANL)*%
G36*
X143203391Y-74941862D02*
G01*
X143208632Y-74949123D01*
X143208719Y-74949522D01*
X143355045Y-75680231D01*
X143353310Y-75689016D01*
X143353294Y-75689039D01*
X142938786Y-76307931D01*
X142931335Y-76312898D01*
X142922554Y-76311141D01*
X142921698Y-76310509D01*
X142779089Y-76194920D01*
X142777541Y-76193408D01*
X142667872Y-76064359D01*
X142666828Y-76062923D01*
X142586427Y-75932540D01*
X142585930Y-75931649D01*
X142522189Y-75804706D01*
X142448592Y-75661769D01*
X142448591Y-75661767D01*
X142368931Y-75553144D01*
X142368925Y-75553137D01*
X142272981Y-75478193D01*
X142272978Y-75478191D01*
X142272974Y-75478188D01*
X142272968Y-75478185D01*
X142212557Y-75450136D01*
X142212553Y-75450134D01*
X142141746Y-75429029D01*
X142053350Y-75414878D01*
X141960900Y-75410525D01*
X141952797Y-75406713D01*
X141949750Y-75398838D01*
X141949750Y-75171377D01*
X141953177Y-75163104D01*
X141961121Y-75159682D01*
X142213897Y-75152634D01*
X142409310Y-75131738D01*
X142409312Y-75131737D01*
X142409317Y-75131737D01*
X142509462Y-75111196D01*
X142568349Y-75099118D01*
X142723375Y-75056577D01*
X142822078Y-75028657D01*
X142822519Y-75028543D01*
X143194551Y-74940434D01*
X143203391Y-74941862D01*
G37*
%TD.AperFunction*%
%TD*%
%TA.AperFunction,Conductor*%
%TO.N,Net-(CanBus_Module1-CANH)*%
G36*
X142938162Y-77561156D02*
G01*
X142938455Y-77561573D01*
X143351639Y-78178489D01*
X143353396Y-78187270D01*
X143351639Y-78191511D01*
X142938368Y-78808556D01*
X142930917Y-78813523D01*
X142922136Y-78811766D01*
X142921841Y-78811561D01*
X142751642Y-78689831D01*
X142751181Y-78689485D01*
X142658611Y-78616125D01*
X142611820Y-78579044D01*
X142611793Y-78579023D01*
X142452436Y-78456461D01*
X142452437Y-78456461D01*
X142452430Y-78456457D01*
X142310916Y-78378693D01*
X142301163Y-78375343D01*
X142229232Y-78350643D01*
X142134866Y-78329870D01*
X142134845Y-78329866D01*
X142004571Y-78314984D01*
X142004557Y-78314983D01*
X141856975Y-78310355D01*
X141848814Y-78306671D01*
X141845642Y-78298661D01*
X141845642Y-78071366D01*
X141849069Y-78063093D01*
X141857002Y-78059671D01*
X141994204Y-78055704D01*
X142117707Y-78042868D01*
X142221138Y-78021572D01*
X142309487Y-77991895D01*
X142387740Y-77953916D01*
X142460888Y-77907714D01*
X142611819Y-77790957D01*
X142675564Y-77739604D01*
X142675935Y-77739318D01*
X142921807Y-77558655D01*
X142930502Y-77556518D01*
X142938162Y-77561156D01*
G37*
%TD.AperFunction*%
%TD*%
M02*
