M48
; DRILL file {KiCad 9.0.7-9.0.7~ubuntu24.04.1} date 2026-03-04T01:17:46+0000
; FORMAT={-:-/ absolute / metric / decimal}
; #@! TF.CreationDate,2026-03-04T01:17:46+00:00
; #@! TF.GenerationSoftware,Kicad,Pcbnew,9.0.7-9.0.7~ubuntu24.04.1
; #@! TF.FileFunction,Plated,1,2,PTH
FMAT,2
METRIC
; #@! TA.AperFunction,Plated,PTH,ViaDrill
T1C0.300
; #@! TA.AperFunction,Plated,PTH,ComponentDrill
T2C1.000
; #@! TA.AperFunction,Plated,PTH,ComponentDrill
T3C1.020
; #@! TA.AperFunction,Plated,PTH,ComponentDrill
T4C1.200
; #@! TA.AperFunction,Plated,PTH,ComponentDrill
T5C1.500
%
G90
G05
T1
X111.0Y-102.0
X119.75Y-78.25
X119.75Y-85.5
X119.75Y-92.75
T2
X129.4Y-126.36
X129.4Y-128.9
X129.4Y-131.44
X129.4Y-133.98
X129.4Y-136.52
X129.4Y-139.06
X129.4Y-141.6
X129.4Y-144.14
X131.31Y-70.6
X131.31Y-73.14
X131.31Y-75.68
X131.31Y-78.22
X131.31Y-80.76
X131.31Y-83.3
X131.31Y-85.84
X131.31Y-88.38
X131.31Y-90.92
X131.31Y-93.46
X131.31Y-96.0
X131.31Y-98.54
X131.31Y-101.08
X131.31Y-103.62
X131.31Y-106.16
X131.31Y-108.7
X131.31Y-111.24
X131.31Y-113.78
X131.31Y-116.32
X131.31Y-118.86
X149.09Y-70.6
X149.09Y-73.14
X149.09Y-75.68
X149.09Y-78.22
X149.09Y-80.76
X149.09Y-83.3
X149.09Y-85.84
X149.09Y-88.38
X149.09Y-90.92
X149.09Y-93.46
X149.09Y-96.0
X149.09Y-98.54
X149.09Y-101.08
X149.09Y-103.62
X149.09Y-106.16
X149.09Y-108.7
X149.09Y-111.24
X149.09Y-113.78
X149.09Y-116.32
X149.09Y-118.86
X152.2Y-126.36
X152.2Y-128.9
X152.2Y-131.44
X152.2Y-133.98
X152.2Y-136.52
X152.2Y-139.06
X152.2Y-141.6
X152.2Y-144.14
X179.7Y-75.6
X184.7Y-75.6
T3
X115.71Y-100.04
X115.71Y-141.26
X118.25Y-100.04
X118.25Y-141.26
X120.79Y-100.04
X120.79Y-141.26
X123.33Y-100.04
X123.33Y-141.26
T4
X113.0Y-70.21
X113.0Y-72.75
X113.0Y-77.793
X113.0Y-80.333
X113.0Y-85.377
X113.0Y-87.917
X113.0Y-92.96
X113.0Y-95.5
T5
X162.45Y-124.35
X165.1Y-124.35
X167.75Y-124.35
X170.35Y-124.35
X173.1Y-124.35
X175.75Y-124.35
X178.5Y-124.35
X181.1Y-124.35
M30
