%TF.GenerationSoftware,KiCad,Pcbnew,9.0.7-9.0.7~ubuntu24.04.1*%
%TF.CreationDate,2026-03-04T01:19:00+00:00*%
%TF.ProjectId,ignition,69676e69-7469-46f6-9e2e-6b696361645f,rev?*%
%TF.SameCoordinates,Original*%
%TF.FileFunction,Copper,L1,Top*%
%TF.FilePolarity,Positive*%
%FSLAX46Y46*%
G04 Gerber Fmt 4.6, Leading zero omitted, Abs format (unit mm)*
G04 Created by KiCad (PCBNEW 9.0.7-9.0.7~ubuntu24.04.1) date 2026-03-04 01:19:00*
%MOMM*%
%LPD*%
G01*
G04 APERTURE LIST*
G04 Aperture macros list*
%AMRoundRect*
0 Rectangle with rounded corners*
0 $1 Rounding radius*
0 $2 $3 $4 $5 $6 $7 $8 $9 X,Y pos of 4 corners*
0 Add a 4 corners polygon primitive as box body*
4,1,4,$2,$3,$4,$5,$6,$7,$8,$9,$2,$3,0*
0 Add four circle primitives for the rounded corners*
1,1,$1+$1,$2,$3*
1,1,$1+$1,$4,$5*
1,1,$1+$1,$6,$7*
1,1,$1+$1,$8,$9*
0 Add four rect primitives between the rounded corners*
20,1,$1+$1,$2,$3,$4,$5,0*
20,1,$1+$1,$4,$5,$6,$7,0*
20,1,$1+$1,$6,$7,$8,$9,0*
20,1,$1+$1,$8,$9,$2,$3,0*%
%AMFreePoly0*
4,1,37,0.800000,0.796148,0.878414,0.796148,1.032228,0.765552,1.177117,0.705537,1.307515,0.618408,1.418408,0.507515,1.505537,0.377117,1.565552,0.232228,1.596148,0.078414,1.596148,-0.078414,1.565552,-0.232228,1.505537,-0.377117,1.418408,-0.507515,1.307515,-0.618408,1.177117,-0.705537,1.032228,-0.765552,0.878414,-0.796148,0.800000,-0.796148,0.800000,-0.800000,-1.400000,-0.800000,
-1.403843,-0.796157,-1.439018,-0.796157,-1.511114,-0.766294,-1.566294,-0.711114,-1.596157,-0.639018,-1.596157,-0.603843,-1.600000,-0.600000,-1.600000,0.600000,-1.596157,0.603843,-1.596157,0.639018,-1.566294,0.711114,-1.511114,0.766294,-1.439018,0.796157,-1.403843,0.796157,-1.400000,0.800000,0.800000,0.800000,0.800000,0.796148,0.800000,0.796148,$1*%
%AMFreePoly1*
4,1,37,1.403843,0.796157,1.439018,0.796157,1.511114,0.766294,1.566294,0.711114,1.596157,0.639018,1.596157,0.603843,1.600000,0.600000,1.600000,-0.600000,1.596157,-0.603843,1.596157,-0.639018,1.566294,-0.711114,1.511114,-0.766294,1.439018,-0.796157,1.403843,-0.796157,1.400000,-0.800000,-0.800000,-0.800000,-0.800000,-0.796148,-0.878414,-0.796148,-1.032228,-0.765552,-1.177117,-0.705537,
-1.307515,-0.618408,-1.418408,-0.507515,-1.505537,-0.377117,-1.565552,-0.232228,-1.596148,-0.078414,-1.596148,0.078414,-1.565552,0.232228,-1.505537,0.377117,-1.418408,0.507515,-1.307515,0.618408,-1.177117,0.705537,-1.032228,0.765552,-0.878414,0.796148,-0.800000,0.796148,-0.800000,0.800000,1.400000,0.800000,1.403843,0.796157,1.403843,0.796157,$1*%
%AMFreePoly2*
4,1,37,0.603843,0.796157,0.639018,0.796157,0.711114,0.766294,0.766294,0.711114,0.796157,0.639018,0.796157,0.603843,0.800000,0.600000,0.800000,-0.600000,0.796157,-0.603843,0.796157,-0.639018,0.766294,-0.711114,0.711114,-0.766294,0.639018,-0.796157,0.603843,-0.796157,0.600000,-0.800000,0.000000,-0.800000,0.000000,-0.796148,-0.078414,-0.796148,-0.232228,-0.765552,-0.377117,-0.705537,
-0.507515,-0.618408,-0.618408,-0.507515,-0.705537,-0.377117,-0.765552,-0.232228,-0.796148,-0.078414,-0.796148,0.078414,-0.765552,0.232228,-0.705537,0.377117,-0.618408,0.507515,-0.507515,0.618408,-0.377117,0.705537,-0.232228,0.765552,-0.078414,0.796148,0.000000,0.796148,0.000000,0.800000,0.600000,0.800000,0.603843,0.796157,0.603843,0.796157,$1*%
%AMFreePoly3*
4,1,37,0.000000,0.796148,0.078414,0.796148,0.232228,0.765552,0.377117,0.705537,0.507515,0.618408,0.618408,0.507515,0.705537,0.377117,0.765552,0.232228,0.796148,0.078414,0.796148,-0.078414,0.765552,-0.232228,0.705537,-0.377117,0.618408,-0.507515,0.507515,-0.618408,0.377117,-0.705537,0.232228,-0.765552,0.078414,-0.796148,0.000000,-0.796148,0.000000,-0.800000,-0.600000,-0.800000,
-0.603843,-0.796157,-0.639018,-0.796157,-0.711114,-0.766294,-0.766294,-0.711114,-0.796157,-0.639018,-0.796157,-0.603843,-0.800000,-0.600000,-0.800000,0.600000,-0.796157,0.603843,-0.796157,0.639018,-0.766294,0.711114,-0.711114,0.766294,-0.639018,0.796157,-0.603843,0.796157,-0.600000,0.800000,0.000000,0.800000,0.000000,0.796148,0.000000,0.796148,$1*%
G04 Aperture macros list end*
%TA.AperFunction,SMDPad,CuDef*%
%ADD10RoundRect,0.135000X-0.185000X0.135000X-0.185000X-0.135000X0.185000X-0.135000X0.185000X0.135000X0*%
%TD*%
%TA.AperFunction,ComponentPad*%
%ADD11R,2.000000X1.905000*%
%TD*%
%TA.AperFunction,ComponentPad*%
%ADD12O,2.000000X1.905000*%
%TD*%
%TA.AperFunction,ComponentPad*%
%ADD13R,1.700000X1.700000*%
%TD*%
%TA.AperFunction,ComponentPad*%
%ADD14C,1.700000*%
%TD*%
%TA.AperFunction,ComponentPad*%
%ADD15RoundRect,0.250000X0.750000X0.750000X-0.750000X0.750000X-0.750000X-0.750000X0.750000X-0.750000X0*%
%TD*%
%TA.AperFunction,ComponentPad*%
%ADD16C,2.000000*%
%TD*%
%TA.AperFunction,ComponentPad*%
%ADD17RoundRect,0.250000X-0.750000X-0.750000X0.750000X-0.750000X0.750000X0.750000X-0.750000X0.750000X0*%
%TD*%
%TA.AperFunction,SMDPad,CuDef*%
%ADD18RoundRect,0.135000X-0.135000X-0.185000X0.135000X-0.185000X0.135000X0.185000X-0.135000X0.185000X0*%
%TD*%
%TA.AperFunction,SMDPad,CuDef*%
%ADD19RoundRect,0.135000X0.135000X0.185000X-0.135000X0.185000X-0.135000X-0.185000X0.135000X-0.185000X0*%
%TD*%
%TA.AperFunction,ComponentPad*%
%ADD20C,1.500000*%
%TD*%
%TA.AperFunction,ComponentPad*%
%ADD21R,1.500000X1.500000*%
%TD*%
%TA.AperFunction,ComponentPad*%
%ADD22RoundRect,0.250000X-0.750000X0.750000X-0.750000X-0.750000X0.750000X-0.750000X0.750000X0.750000X0*%
%TD*%
%TA.AperFunction,SMDPad,CuDef*%
%ADD23RoundRect,0.135000X0.185000X-0.135000X0.185000X0.135000X-0.185000X0.135000X-0.185000X-0.135000X0*%
%TD*%
%TA.AperFunction,SMDPad,CuDef*%
%ADD24FreePoly0,0.000000*%
%TD*%
%TA.AperFunction,ComponentPad*%
%ADD25RoundRect,0.200000X-0.600000X-0.600000X0.600000X-0.600000X0.600000X0.600000X-0.600000X0.600000X0*%
%TD*%
%TA.AperFunction,SMDPad,CuDef*%
%ADD26RoundRect,0.800000X-0.800000X-0.000010X0.800000X-0.000010X0.800000X0.000010X-0.800000X0.000010X0*%
%TD*%
%TA.AperFunction,ComponentPad*%
%ADD27C,1.600000*%
%TD*%
%TA.AperFunction,SMDPad,CuDef*%
%ADD28FreePoly1,0.000000*%
%TD*%
%TA.AperFunction,ComponentPad*%
%ADD29FreePoly2,0.000000*%
%TD*%
%TA.AperFunction,ComponentPad*%
%ADD30FreePoly3,0.000000*%
%TD*%
%TA.AperFunction,ComponentPad*%
%ADD31C,1.371600*%
%TD*%
%TA.AperFunction,SMDPad,CuDef*%
%ADD32RoundRect,0.140000X0.170000X-0.140000X0.170000X0.140000X-0.170000X0.140000X-0.170000X-0.140000X0*%
%TD*%
%TA.AperFunction,ViaPad*%
%ADD33C,0.600000*%
%TD*%
%TA.AperFunction,ViaPad*%
%ADD34C,0.500000*%
%TD*%
%TA.AperFunction,Conductor*%
%ADD35C,0.500000*%
%TD*%
%TA.AperFunction,Conductor*%
%ADD36C,0.750000*%
%TD*%
%TA.AperFunction,Conductor*%
%ADD37C,0.130000*%
%TD*%
%TA.AperFunction,Conductor*%
%ADD38C,0.200000*%
%TD*%
%TA.AperFunction,Conductor*%
%ADD39C,1.500000*%
%TD*%
G04 APERTURE END LIST*
D10*
%TO.P,R4,1*%
%TO.N,Net-(J2-Pin_2)*%
X104500000Y-141990000D03*
%TO.P,R4,2*%
%TO.N,Net-(R4-Pad2)*%
X104500000Y-143010000D03*
%TD*%
D11*
%TO.P,Q1,1,G*%
%TO.N,Net-(Q1-G)*%
X114500000Y-131260999D03*
D12*
%TO.P,Q1,2,D*%
%TO.N,Net-(J2-Pin_1)*%
X114500000Y-133800999D03*
%TO.P,Q1,3,S*%
%TO.N,GND*%
X114500000Y-136340999D03*
%TD*%
D13*
%TO.P,U1,1,VCC*%
%TO.N,+3.3V*%
X141800000Y-164220000D03*
D14*
%TO.P,U1,2,GND*%
%TO.N,GND*%
X141800000Y-161680000D03*
%TO.P,U1,3,MISO_TX*%
%TO.N,/RD_MISO*%
X141800000Y-159140000D03*
%TO.P,U1,4,MOSI_RX*%
%TO.N,/RD_MOSI*%
X141800000Y-156600000D03*
%TO.P,U1,5,SCK_RTSN*%
%TO.N,/RD_SCK*%
X141800000Y-154060000D03*
%TO.P,U1,6,NSS_CTS*%
%TO.N,/RD_NSS*%
X141800000Y-151520000D03*
%TO.P,U1,7,GND*%
%TO.N,GND*%
X141800000Y-148980000D03*
%TO.P,U1,8,RX_EN*%
%TO.N,/RD_RX*%
X141800000Y-146440000D03*
%TO.P,U1,9,TX_EN*%
%TO.N,/RD_TX*%
X119000000Y-146440000D03*
%TO.P,U1,10,GND*%
%TO.N,GND*%
X119000000Y-148980000D03*
%TO.P,U1,11,NRESET*%
%TO.N,/RD_RESET*%
X119000000Y-151520000D03*
%TO.P,U1,12,BUSY*%
%TO.N,/RD_BUSY*%
X119000000Y-154060000D03*
%TO.P,U1,13,DIO1*%
%TO.N,/RD_DIO1*%
X119000000Y-156600000D03*
%TO.P,U1,14,DIO2*%
%TO.N,/RD_DIO2*%
X119000000Y-159140000D03*
%TO.P,U1,15,DIO3*%
%TO.N,/RD_DIO3*%
X119000000Y-161680000D03*
D13*
%TO.P,U1,16,GND*%
%TO.N,GND*%
X119000000Y-164220000D03*
%TD*%
D15*
%TO.P,Switch1,1,Pin_1*%
%TO.N,Net-(PILHAS1-Pin_2)*%
X103589600Y-92944500D03*
D16*
%TO.P,Switch1,2,Pin_2*%
%TO.N,/REG_IN*%
X101049600Y-92944500D03*
%TD*%
D17*
%TO.P,Switch2,1,Pin_1*%
%TO.N,Net-(KEY1-Pin_2)*%
X111160000Y-163500000D03*
D16*
%TO.P,Switch2,2,Pin_2*%
%TO.N,+3.3V*%
X113700000Y-163500000D03*
%TD*%
D18*
%TO.P,R1,1*%
%TO.N,GND*%
X116453443Y-128000000D03*
%TO.P,R1,2*%
%TO.N,Net-(Q1-G)*%
X117473443Y-128000000D03*
%TD*%
D19*
%TO.P,R2,1*%
%TO.N,Net-(Q1-G)*%
X117459151Y-126838990D03*
%TO.P,R2,2*%
%TO.N,/LGC_IGNITE*%
X116439151Y-126838990D03*
%TD*%
D20*
%TO.P,U2,1,IN+*%
%TO.N,/REG_IN*%
X102625000Y-99675000D03*
D21*
X100525000Y-99675000D03*
D20*
%TO.P,U2,2,IN-*%
%TO.N,Net-(PILHAS1-Pin_1)*%
X115700000Y-99700000D03*
D21*
X113600000Y-99700000D03*
D20*
%TO.P,U2,3,OUT+*%
%TO.N,+3.3V*%
X102650000Y-123225000D03*
D21*
X100550000Y-123225000D03*
D20*
%TO.P,U2,4,OUT-*%
%TO.N,GND*%
X115725000Y-123250000D03*
D21*
X113625000Y-123250000D03*
%TD*%
D22*
%TO.P,KEY1,1,Pin_1*%
%TO.N,Net-(J2-Pin_2)*%
X102350000Y-147525000D03*
D16*
%TO.P,KEY1,2,Pin_2*%
%TO.N,Net-(KEY1-Pin_2)*%
X102350000Y-150065000D03*
%TD*%
D22*
%TO.P,J2,1,Pin_1*%
%TO.N,Net-(J2-Pin_1)*%
X102400000Y-136300000D03*
D16*
%TO.P,J2,2,Pin_2*%
%TO.N,Net-(J2-Pin_2)*%
X102400000Y-138840000D03*
%TD*%
D15*
%TO.P,PILHAS1,1,Pin_1*%
%TO.N,Net-(PILHAS1-Pin_1)*%
X115475000Y-92982500D03*
D16*
%TO.P,PILHAS1,2,Pin_2*%
%TO.N,Net-(PILHAS1-Pin_2)*%
X112935000Y-92982500D03*
%TD*%
D19*
%TO.P,R3,1*%
%TO.N,/FLAG_IGNITE*%
X109450000Y-128950000D03*
%TO.P,R3,2*%
%TO.N,Net-(Switch3-Pin_2)*%
X108430000Y-128950000D03*
%TD*%
D23*
%TO.P,R5,1*%
%TO.N,/FLAG_IGNITE*%
X110440000Y-129000000D03*
%TO.P,R5,2*%
%TO.N,GND*%
X110440000Y-127980000D03*
%TD*%
D24*
%TO.P,A1,1,GPIO0*%
%TO.N,unconnected-(A1-GPIO0-Pad1)*%
X120420000Y-90300000D03*
D25*
X121220000Y-90300000D03*
D26*
%TO.P,A1,2,GPIO1*%
%TO.N,unconnected-(A1-GPIO1-Pad2)*%
X120420000Y-92840000D03*
D27*
X121220000Y-92840000D03*
D28*
%TO.P,A1,3,GND*%
%TO.N,GND*%
X120420000Y-95380000D03*
D29*
X121220000Y-95380000D03*
D26*
%TO.P,A1,4,GPIO2*%
%TO.N,unconnected-(A1-GPIO2-Pad4)*%
X120420000Y-97920000D03*
D27*
X121220000Y-97920000D03*
D26*
%TO.P,A1,5,GPIO3*%
%TO.N,unconnected-(A1-GPIO3-Pad5)*%
X120420000Y-100460000D03*
D27*
X121220000Y-100460000D03*
D26*
%TO.P,A1,6,GPIO4*%
%TO.N,unconnected-(A1-GPIO4-Pad6)*%
X120420000Y-103000000D03*
D27*
X121220000Y-103000000D03*
D26*
%TO.P,A1,7,GPIO5*%
%TO.N,unconnected-(A1-GPIO5-Pad7)*%
X120420000Y-105540000D03*
D27*
X121220000Y-105540000D03*
D28*
%TO.P,A1,8,GND*%
%TO.N,GND*%
X120420000Y-108080000D03*
D29*
X121220000Y-108080000D03*
D26*
%TO.P,A1,9,GPIO6*%
%TO.N,unconnected-(A1-GPIO6-Pad9)*%
X120420000Y-110620000D03*
D27*
X121220000Y-110620000D03*
D26*
%TO.P,A1,10,GPIO7*%
%TO.N,unconnected-(A1-GPIO7-Pad10)*%
X120420000Y-113160000D03*
D27*
X121220000Y-113160000D03*
D26*
%TO.P,A1,11,GPIO8*%
%TO.N,unconnected-(A1-GPIO8-Pad11)*%
X120420000Y-115700000D03*
D27*
X121220000Y-115700000D03*
D26*
%TO.P,A1,12,GPIO9*%
%TO.N,/FLAG_IGNITE*%
X120420000Y-118240000D03*
D27*
X121220000Y-118240000D03*
D28*
%TO.P,A1,13,GND*%
%TO.N,GND*%
X120420000Y-120780000D03*
D29*
X121220000Y-120780000D03*
D26*
%TO.P,A1,14,GPIO10*%
%TO.N,/RD_RX*%
X120420000Y-123320000D03*
D27*
X121220000Y-123320000D03*
D26*
%TO.P,A1,15,GPIO11*%
%TO.N,/LGC_IGNITE*%
X120420000Y-125860000D03*
D27*
X121220000Y-125860000D03*
D26*
%TO.P,A1,16,GPIO12*%
%TO.N,unconnected-(A1-GPIO12-Pad16)*%
X120420000Y-128400000D03*
D27*
X121220000Y-128400000D03*
D26*
%TO.P,A1,17,GPIO13*%
%TO.N,unconnected-(A1-GPIO13-Pad17)*%
X120420000Y-130940000D03*
D27*
X121220000Y-130940000D03*
D28*
%TO.P,A1,18,GND*%
%TO.N,GND*%
X120420000Y-133480000D03*
D29*
X121220000Y-133480000D03*
D26*
%TO.P,A1,19,GPIO14*%
%TO.N,unconnected-(A1-GPIO14-Pad19)*%
X120420000Y-136020000D03*
D27*
X121220000Y-136020000D03*
D26*
%TO.P,A1,20,GPIO15*%
%TO.N,/RD_TX*%
X120420000Y-138560000D03*
D27*
X121220000Y-138560000D03*
%TO.P,A1,21,GPIO16*%
%TO.N,/RD_MISO*%
X139000000Y-138560000D03*
D26*
X139800000Y-138560000D03*
D27*
%TO.P,A1,22,GPIO17*%
%TO.N,/RD_NSS*%
X139000000Y-136020000D03*
D26*
X139800000Y-136020000D03*
D30*
%TO.P,A1,23,GND*%
%TO.N,GND*%
X139000000Y-133480000D03*
D24*
X139800000Y-133480000D03*
D27*
%TO.P,A1,24,GPIO18*%
%TO.N,/RD_SCK*%
X139000000Y-130940000D03*
D26*
X139800000Y-130940000D03*
D27*
%TO.P,A1,25,GPIO19*%
%TO.N,/RD_MOSI*%
X139000000Y-128400000D03*
D26*
X139800000Y-128400000D03*
D27*
%TO.P,A1,26,GPIO20*%
%TO.N,/RD_DIO1*%
X139000000Y-125860000D03*
D26*
X139800000Y-125860000D03*
D27*
%TO.P,A1,27,GPIO21*%
%TO.N,/RD_BUSY*%
X139000000Y-123320000D03*
D26*
X139800000Y-123320000D03*
D30*
%TO.P,A1,28,GND*%
%TO.N,GND*%
X139000000Y-120780000D03*
D24*
X139800000Y-120780000D03*
D27*
%TO.P,A1,29,GPIO22*%
%TO.N,/RD_RESET*%
X139000000Y-118240000D03*
D26*
X139800000Y-118240000D03*
D27*
%TO.P,A1,30,RUN*%
%TO.N,unconnected-(A1-RUN-Pad30)*%
X139000000Y-115700000D03*
D26*
X139800000Y-115700000D03*
D27*
%TO.P,A1,31,GPIO26_ADC0*%
%TO.N,unconnected-(A1-GPIO26_ADC0-Pad31)*%
X139000000Y-113160000D03*
D26*
X139800000Y-113160000D03*
D27*
%TO.P,A1,32,GPIO27_ADC1*%
%TO.N,unconnected-(A1-GPIO27_ADC1-Pad32)*%
X139000000Y-110620000D03*
D26*
X139800000Y-110620000D03*
D30*
%TO.P,A1,33,AGND*%
%TO.N,unconnected-(A1-AGND-Pad33)*%
X139000000Y-108080000D03*
D24*
X139800000Y-108080000D03*
D27*
%TO.P,A1,34,GPIO28_ADC2*%
%TO.N,unconnected-(A1-GPIO28_ADC2-Pad34)*%
X139000000Y-105540000D03*
D26*
X139800000Y-105540000D03*
D27*
%TO.P,A1,35,ADC_VREF*%
%TO.N,unconnected-(A1-ADC_VREF-Pad35)*%
X139000000Y-103000000D03*
D26*
X139800000Y-103000000D03*
D27*
%TO.P,A1,36,3V3*%
%TO.N,unconnected-(A1-3V3-Pad36)*%
X139000000Y-100460000D03*
D26*
X139800000Y-100460000D03*
D27*
%TO.P,A1,37,3V3_EN*%
%TO.N,unconnected-(A1-3V3_EN-Pad37)*%
X139000000Y-97920000D03*
D26*
X139800000Y-97920000D03*
D30*
%TO.P,A1,38,GND*%
%TO.N,GND*%
X139000000Y-95380000D03*
D24*
X139800000Y-95380000D03*
D27*
%TO.P,A1,39,VSYS*%
%TO.N,+3.3V*%
X139000000Y-92840000D03*
D26*
X139800000Y-92840000D03*
D27*
%TO.P,A1,40,VBUS*%
%TO.N,unconnected-(A1-VBUS-Pad40)*%
X139000000Y-90300000D03*
D26*
X139800000Y-90300000D03*
%TD*%
D31*
%TO.P,U3,1,1*%
%TO.N,Net-(R4-Pad2)*%
X108730000Y-140310000D03*
%TO.P,U3,2,2*%
%TO.N,GND*%
X111270000Y-140310000D03*
%TO.P,U3,3,3*%
%TO.N,/FLAG_IGNITE*%
X111270000Y-132690000D03*
%TO.P,U3,4,4*%
%TO.N,+3.3V*%
X108730000Y-132690000D03*
%TD*%
D22*
%TO.P,Switch3,1,Pin_1*%
%TO.N,GND*%
X102400000Y-128725000D03*
D16*
%TO.P,Switch3,2,Pin_2*%
%TO.N,Net-(Switch3-Pin_2)*%
X102400000Y-131265000D03*
%TD*%
D32*
%TO.P,C7,1*%
%TO.N,+3.3V*%
X97236761Y-122642526D03*
%TO.P,C7,2*%
%TO.N,GND*%
X97236761Y-121682526D03*
%TD*%
D33*
%TO.N,GND*%
X114944783Y-127284283D03*
X110440000Y-127050000D03*
D34*
X97436761Y-120812526D03*
%TD*%
D35*
%TO.N,/RD_DIO1*%
X133047000Y-142553000D02*
X133047000Y-131813000D01*
X119000000Y-156600000D02*
X133047000Y-142553000D01*
X133047000Y-131813000D02*
X139000000Y-125860000D01*
%TO.N,/RD_TX*%
X121220000Y-138560000D02*
X121220000Y-144220000D01*
X121220000Y-144220000D02*
X119000000Y-146440000D01*
%TO.N,/RD_SCK*%
X141800000Y-154060000D02*
X134349000Y-146609000D01*
X134349000Y-134791000D02*
X138200000Y-130940000D01*
X134349000Y-146609000D02*
X134349000Y-134791000D01*
X138200000Y-130940000D02*
X139800000Y-130940000D01*
%TO.N,/RD_MOSI*%
X141800000Y-156600000D02*
X133698000Y-148498000D01*
X133698000Y-133702000D02*
X139000000Y-128400000D01*
X133698000Y-148498000D02*
X133698000Y-133702000D01*
%TO.N,/RD_NSS*%
X141800000Y-151520000D02*
X135000000Y-144720000D01*
X135000000Y-140020000D02*
X139000000Y-136020000D01*
X135000000Y-144720000D02*
X135000000Y-140020000D01*
%TO.N,/RD_BUSY*%
X132396000Y-140664000D02*
X132396000Y-131543346D01*
X132400000Y-129920000D02*
X139000000Y-123320000D01*
X132396000Y-131543346D02*
X132400000Y-131539346D01*
X132400000Y-131539346D02*
X132400000Y-129920000D01*
X119000000Y-154060000D02*
X132396000Y-140664000D01*
D36*
%TO.N,/LGC_IGNITE*%
X120085273Y-125856643D02*
X120088630Y-125860000D01*
D35*
X117098142Y-125860000D02*
X120420000Y-125860000D01*
D36*
X120088630Y-125860000D02*
X121220000Y-125860000D01*
D35*
X116439151Y-126838990D02*
X116439151Y-126518991D01*
D37*
X116439151Y-126838990D02*
X116632432Y-126838990D01*
D35*
X116439151Y-126518991D02*
X117098142Y-125860000D01*
%TO.N,/RD_MISO*%
X142098700Y-140858700D02*
X139800000Y-138560000D01*
%TO.N,/RD_RESET*%
X131745000Y-138775000D02*
X131745000Y-131273693D01*
X119000000Y-151520000D02*
X131745000Y-138775000D01*
X131749000Y-131269693D02*
X131749000Y-125491000D01*
X131749000Y-125491000D02*
X139000000Y-118240000D01*
X131745000Y-131273693D02*
X131749000Y-131269693D01*
%TO.N,Net-(Q1-G)*%
X114500000Y-131260999D02*
X117473443Y-128287556D01*
D38*
X117473443Y-128000000D02*
X117473443Y-127873282D01*
D35*
X117459151Y-127985708D02*
X117473443Y-128000000D01*
X117473443Y-128287556D02*
X117473443Y-128000000D01*
X117459151Y-126838990D02*
X117459151Y-127985708D01*
D39*
%TO.N,Net-(PILHAS1-Pin_2)*%
X112599998Y-93250000D02*
X103895100Y-93250000D01*
D35*
%TO.N,GND*%
X97236761Y-121012526D02*
X97436761Y-120812526D01*
X115660500Y-128000000D02*
X114944783Y-127284283D01*
X116453443Y-128000000D02*
X115660500Y-128000000D01*
X110440000Y-127980000D02*
X110440000Y-127050000D01*
D39*
X113625000Y-123250000D02*
X115725000Y-123250000D01*
D35*
X97236761Y-121682526D02*
X97236761Y-121012526D01*
%TO.N,Net-(J2-Pin_2)*%
X104500000Y-140940000D02*
X102400000Y-138840000D01*
X104500000Y-141990000D02*
X104500000Y-140940000D01*
X104500000Y-141990000D02*
X104180001Y-141990000D01*
X102350000Y-143820001D02*
X102350000Y-147525000D01*
X104180001Y-141990000D02*
X102350000Y-143820001D01*
D39*
%TO.N,Net-(PILHAS1-Pin_1)*%
X113600000Y-99700000D02*
X115700000Y-99700000D01*
X116100000Y-93250000D02*
X116100000Y-99300000D01*
%TO.N,/REG_IN*%
X100089598Y-92944500D02*
X100089598Y-99239598D01*
X100525000Y-99675000D02*
X102625000Y-99675000D01*
D35*
%TO.N,/FLAG_IGNITE*%
X109500000Y-129000000D02*
X109450000Y-128950000D01*
X109450000Y-128950000D02*
X109450000Y-124050000D01*
X109450000Y-124050000D02*
X115260000Y-118240000D01*
X110440000Y-129000000D02*
X109500000Y-129000000D01*
X110440000Y-129000000D02*
X111270000Y-129830000D01*
X111270000Y-129830000D02*
X111270000Y-132690000D01*
X115260000Y-118240000D02*
X120420000Y-118240000D01*
D36*
%TO.N,+3.3V*%
X100550000Y-123225000D02*
X97819235Y-123225000D01*
D39*
X100550000Y-123225000D02*
X102650000Y-123225000D01*
D36*
X97819235Y-123225000D02*
X97236761Y-122642526D01*
D35*
%TO.N,Net-(R4-Pad2)*%
X104500000Y-143010000D02*
X106030000Y-143010000D01*
X106030000Y-143010000D02*
X108730000Y-140310000D01*
%TO.N,Net-(Switch3-Pin_2)*%
X105100751Y-131265000D02*
X102400000Y-131265000D01*
X108430000Y-128950000D02*
X107415751Y-128950000D01*
X107415751Y-128950000D02*
X105100751Y-131265000D01*
%TO.N,Net-(KEY1-Pin_2)*%
X106400000Y-163500000D02*
X111160000Y-163500000D01*
X102350000Y-150065000D02*
X102350000Y-159450000D01*
X102350000Y-159450000D02*
X106400000Y-163500000D01*
%TD*%
%TA.AperFunction,Conductor*%
%TO.N,+3.3V*%
G36*
X145142539Y-86820185D02*
G01*
X145188294Y-86872989D01*
X145199500Y-86924500D01*
X145199500Y-169475500D01*
X145179815Y-169542539D01*
X145127011Y-169588294D01*
X145075500Y-169599500D01*
X96424500Y-169599500D01*
X96357461Y-169579815D01*
X96311706Y-169527011D01*
X96300500Y-169475500D01*
X96300500Y-146724983D01*
X100849500Y-146724983D01*
X100849500Y-148325001D01*
X100849501Y-148325018D01*
X100860000Y-148427796D01*
X100860001Y-148427799D01*
X100871197Y-148461585D01*
X100915186Y-148594334D01*
X101007288Y-148743656D01*
X101131344Y-148867712D01*
X101173102Y-148893468D01*
X101179656Y-148897511D01*
X101226381Y-148949459D01*
X101237604Y-149018421D01*
X101209760Y-149082504D01*
X101208615Y-149083759D01*
X101208647Y-149083786D01*
X101205485Y-149087487D01*
X101205483Y-149087490D01*
X101187499Y-149112243D01*
X101066657Y-149278566D01*
X100959433Y-149489003D01*
X100886446Y-149713631D01*
X100849500Y-149946902D01*
X100849500Y-150183097D01*
X100886446Y-150416368D01*
X100959433Y-150640996D01*
X101066657Y-150851433D01*
X101205483Y-151042510D01*
X101372490Y-151209517D01*
X101548386Y-151337313D01*
X101591051Y-151392643D01*
X101599500Y-151437631D01*
X101599500Y-159523918D01*
X101599500Y-159523920D01*
X101599499Y-159523920D01*
X101628340Y-159668907D01*
X101628343Y-159668917D01*
X101684912Y-159805488D01*
X101684920Y-159805502D01*
X101713192Y-159847813D01*
X101713193Y-159847816D01*
X101713194Y-159847816D01*
X101767051Y-159928420D01*
X105921581Y-164082950D01*
X105921584Y-164082952D01*
X105979215Y-164121459D01*
X106044505Y-164165084D01*
X106181087Y-164221658D01*
X106181091Y-164221658D01*
X106181092Y-164221659D01*
X106326079Y-164250500D01*
X106326082Y-164250500D01*
X106326083Y-164250500D01*
X106473917Y-164250500D01*
X109542465Y-164250500D01*
X109609504Y-164270185D01*
X109655259Y-164322989D01*
X109665823Y-164361898D01*
X109670001Y-164402797D01*
X109670001Y-164402799D01*
X109675250Y-164418638D01*
X109725186Y-164569334D01*
X109817288Y-164718656D01*
X109941344Y-164842712D01*
X110090666Y-164934814D01*
X110257203Y-164989999D01*
X110359991Y-165000500D01*
X111960008Y-165000499D01*
X112062797Y-164989999D01*
X112229334Y-164934814D01*
X112378656Y-164842712D01*
X112502712Y-164718656D01*
X112594814Y-164569334D01*
X112649999Y-164402797D01*
X112660500Y-164300009D01*
X112660499Y-164237305D01*
X112680183Y-164170269D01*
X112696818Y-164149626D01*
X113135387Y-163711058D01*
X113140889Y-163731591D01*
X113219881Y-163868408D01*
X113331592Y-163980119D01*
X113468409Y-164059111D01*
X113488940Y-164064612D01*
X112830893Y-164722658D01*
X112913828Y-164782914D01*
X113124197Y-164890102D01*
X113348752Y-164963065D01*
X113348751Y-164963065D01*
X113581948Y-165000000D01*
X113818052Y-165000000D01*
X114051247Y-164963065D01*
X114275802Y-164890102D01*
X114486163Y-164782918D01*
X114486169Y-164782914D01*
X114569104Y-164722658D01*
X114569105Y-164722658D01*
X113911058Y-164064612D01*
X113931591Y-164059111D01*
X114068408Y-163980119D01*
X114180119Y-163868408D01*
X114259111Y-163731591D01*
X114264612Y-163711059D01*
X114922658Y-164369105D01*
X114922658Y-164369104D01*
X114982914Y-164286169D01*
X114982918Y-164286163D01*
X115090102Y-164075802D01*
X115163065Y-163851247D01*
X115200000Y-163618052D01*
X115200000Y-163381947D01*
X115163065Y-163148752D01*
X115090102Y-162924197D01*
X114982914Y-162713828D01*
X114922658Y-162630894D01*
X114922658Y-162630893D01*
X114264612Y-163288940D01*
X114259111Y-163268409D01*
X114180119Y-163131592D01*
X114068408Y-163019881D01*
X113931591Y-162940889D01*
X113911059Y-162935387D01*
X114569105Y-162277340D01*
X114569104Y-162277338D01*
X114486174Y-162217087D01*
X114275802Y-162109897D01*
X114051247Y-162036934D01*
X114051248Y-162036934D01*
X113818052Y-162000000D01*
X113581948Y-162000000D01*
X113348752Y-162036934D01*
X113124197Y-162109897D01*
X112913830Y-162217084D01*
X112830894Y-162277340D01*
X113488941Y-162935387D01*
X113468409Y-162940889D01*
X113331592Y-163019881D01*
X113219881Y-163131592D01*
X113140889Y-163268409D01*
X113135387Y-163288941D01*
X112696818Y-162850372D01*
X112663333Y-162789049D01*
X112660499Y-162762691D01*
X112660499Y-162699998D01*
X112660498Y-162699981D01*
X112649999Y-162597203D01*
X112649998Y-162597200D01*
X112637600Y-162559786D01*
X112594814Y-162430666D01*
X112502712Y-162281344D01*
X112378656Y-162157288D01*
X112229334Y-162065186D01*
X112062797Y-162010001D01*
X112062795Y-162010000D01*
X111960010Y-161999500D01*
X110359998Y-161999500D01*
X110359981Y-161999501D01*
X110257203Y-162010000D01*
X110257200Y-162010001D01*
X110090668Y-162065185D01*
X110090663Y-162065187D01*
X109941342Y-162157289D01*
X109817289Y-162281342D01*
X109725187Y-162430663D01*
X109725186Y-162430666D01*
X109682401Y-162559784D01*
X109670001Y-162597204D01*
X109670000Y-162597205D01*
X109665823Y-162638102D01*
X109639427Y-162702793D01*
X109582247Y-162742945D01*
X109542465Y-162749500D01*
X106762230Y-162749500D01*
X106695191Y-162729815D01*
X106674549Y-162713181D01*
X103136819Y-159175451D01*
X103103334Y-159114128D01*
X103100500Y-159087770D01*
X103100500Y-151437631D01*
X103120185Y-151370592D01*
X103151614Y-151337313D01*
X103327510Y-151209517D01*
X103494517Y-151042510D01*
X103633343Y-150851433D01*
X103740568Y-150640992D01*
X103813553Y-150416368D01*
X103840744Y-150244692D01*
X103850500Y-150183097D01*
X103850500Y-149946902D01*
X103813553Y-149713631D01*
X103743624Y-149498414D01*
X103740568Y-149489008D01*
X103740566Y-149489005D01*
X103740566Y-149489003D01*
X103633342Y-149278566D01*
X103494517Y-149087490D01*
X103494508Y-149087481D01*
X103491353Y-149083786D01*
X103493134Y-149082264D01*
X103464273Y-149029408D01*
X103469257Y-148959716D01*
X103511129Y-148903783D01*
X103520334Y-148897516D01*
X103568656Y-148867712D01*
X103692712Y-148743656D01*
X103784814Y-148594334D01*
X103839999Y-148427797D01*
X103850500Y-148325009D01*
X103850499Y-146724992D01*
X103839999Y-146622203D01*
X103784814Y-146455666D01*
X103692712Y-146306344D01*
X103568656Y-146182288D01*
X103456630Y-146113190D01*
X103419336Y-146090187D01*
X103419331Y-146090185D01*
X103408259Y-146086516D01*
X103252797Y-146035001D01*
X103252795Y-146035000D01*
X103211896Y-146030822D01*
X103147205Y-146004425D01*
X103107054Y-145947244D01*
X103100500Y-145907464D01*
X103100500Y-144182230D01*
X103120185Y-144115191D01*
X103136819Y-144094549D01*
X103663636Y-143567732D01*
X103724959Y-143534247D01*
X103794651Y-143539231D01*
X103838998Y-143567732D01*
X103922396Y-143651130D01*
X103922400Y-143651133D01*
X103922402Y-143651135D01*
X104060607Y-143732869D01*
X104101268Y-143744682D01*
X104214791Y-143777664D01*
X104214794Y-143777664D01*
X104214796Y-143777665D01*
X104250819Y-143780500D01*
X104749180Y-143780499D01*
X104785204Y-143777665D01*
X104827338Y-143765424D01*
X104861933Y-143760500D01*
X106103920Y-143760500D01*
X106201462Y-143741096D01*
X106248913Y-143731658D01*
X106385495Y-143675084D01*
X106442419Y-143637049D01*
X106508416Y-143592952D01*
X108568747Y-141532618D01*
X108630070Y-141499134D01*
X108656428Y-141496300D01*
X108823363Y-141496300D01*
X108823364Y-141496300D01*
X109007793Y-141467089D01*
X109185381Y-141409387D01*
X109351757Y-141324615D01*
X109502822Y-141214859D01*
X109634859Y-141082822D01*
X109744615Y-140931757D01*
X109829387Y-140765381D01*
X109882070Y-140603239D01*
X109921506Y-140545566D01*
X109985865Y-140518367D01*
X110054711Y-140530282D01*
X110106187Y-140577526D01*
X110117928Y-140603236D01*
X110170613Y-140765381D01*
X110255385Y-140931757D01*
X110365141Y-141082822D01*
X110497178Y-141214859D01*
X110648243Y-141324615D01*
X110814619Y-141409387D01*
X110992207Y-141467089D01*
X111176636Y-141496300D01*
X111176637Y-141496300D01*
X111363363Y-141496300D01*
X111363364Y-141496300D01*
X111547793Y-141467089D01*
X111725381Y-141409387D01*
X111891757Y-141324615D01*
X112042822Y-141214859D01*
X112174859Y-141082822D01*
X112284615Y-140931757D01*
X112369387Y-140765381D01*
X112427089Y-140587793D01*
X112456300Y-140403364D01*
X112456300Y-140216636D01*
X112427089Y-140032207D01*
X112369387Y-139854619D01*
X112284615Y-139688243D01*
X112174859Y-139537178D01*
X112042822Y-139405141D01*
X111891757Y-139295385D01*
X111725381Y-139210613D01*
X111547793Y-139152911D01*
X111547791Y-139152910D01*
X111547789Y-139152910D01*
X111404226Y-139130172D01*
X111363364Y-139123700D01*
X111176636Y-139123700D01*
X111135774Y-139130172D01*
X110992210Y-139152910D01*
X110814616Y-139210614D01*
X110648242Y-139295385D01*
X110497176Y-139405142D01*
X110365142Y-139537176D01*
X110255385Y-139688242D01*
X110170614Y-139854616D01*
X110170613Y-139854618D01*
X110170613Y-139854619D01*
X110128407Y-139984517D01*
X110117931Y-140016758D01*
X110078493Y-140074434D01*
X110014135Y-140101632D01*
X109945288Y-140089717D01*
X109893813Y-140042473D01*
X109882069Y-140016758D01*
X109829387Y-139854619D01*
X109744615Y-139688243D01*
X109634859Y-139537178D01*
X109502822Y-139405141D01*
X109351757Y-139295385D01*
X109185381Y-139210613D01*
X109007793Y-139152911D01*
X109007791Y-139152910D01*
X109007789Y-139152910D01*
X108864226Y-139130172D01*
X108823364Y-139123700D01*
X108636636Y-139123700D01*
X108595774Y-139130172D01*
X108452210Y-139152910D01*
X108274616Y-139210614D01*
X108108242Y-139295385D01*
X107957176Y-139405142D01*
X107825142Y-139537176D01*
X107715385Y-139688242D01*
X107630614Y-139854616D01*
X107572910Y-140032210D01*
X107543700Y-140216636D01*
X107543700Y-140383570D01*
X107524015Y-140450609D01*
X107507381Y-140471251D01*
X105755451Y-142223181D01*
X105728523Y-142237884D01*
X105702705Y-142254477D01*
X105696504Y-142255368D01*
X105694128Y-142256666D01*
X105667770Y-142259500D01*
X105444500Y-142259500D01*
X105377461Y-142239815D01*
X105331706Y-142187011D01*
X105320500Y-142135500D01*
X105320499Y-141790830D01*
X105320498Y-141790808D01*
X105317665Y-141754796D01*
X105272869Y-141600607D01*
X105267765Y-141591976D01*
X105250500Y-141528859D01*
X105250500Y-140866079D01*
X105221659Y-140721092D01*
X105221658Y-140721091D01*
X105221658Y-140721087D01*
X105166446Y-140587793D01*
X105165087Y-140584511D01*
X105165080Y-140584498D01*
X105082952Y-140461585D01*
X105051983Y-140430616D01*
X104978416Y-140357049D01*
X103901280Y-139279913D01*
X103867795Y-139218590D01*
X103866488Y-139172834D01*
X103872936Y-139132128D01*
X103889007Y-139030657D01*
X103900500Y-138958097D01*
X103900500Y-138721902D01*
X103863553Y-138488631D01*
X103798764Y-138289233D01*
X103790568Y-138264008D01*
X103790566Y-138264005D01*
X103790566Y-138264003D01*
X103713881Y-138113502D01*
X103683343Y-138053567D01*
X103544517Y-137862490D01*
X103544508Y-137862481D01*
X103541353Y-137858786D01*
X103543134Y-137857264D01*
X103514273Y-137804408D01*
X103519257Y-137734716D01*
X103561129Y-137678783D01*
X103570334Y-137672516D01*
X103618656Y-137642712D01*
X103742712Y-137518656D01*
X103834814Y-137369334D01*
X103889999Y-137202797D01*
X103900500Y-137100009D01*
X103900499Y-135499992D01*
X103889999Y-135397203D01*
X103834814Y-135230666D01*
X103742712Y-135081344D01*
X103618656Y-134957288D01*
X103508642Y-134889431D01*
X103469336Y-134865187D01*
X103469331Y-134865185D01*
X103467862Y-134864698D01*
X103302797Y-134810001D01*
X103302795Y-134810000D01*
X103200010Y-134799500D01*
X101599998Y-134799500D01*
X101599981Y-134799501D01*
X101497203Y-134810000D01*
X101497200Y-134810001D01*
X101330668Y-134865185D01*
X101330663Y-134865187D01*
X101181342Y-134957289D01*
X101057289Y-135081342D01*
X100965187Y-135230663D01*
X100965185Y-135230668D01*
X100954162Y-135263934D01*
X100910001Y-135397203D01*
X100910001Y-135397204D01*
X100910000Y-135397204D01*
X100899500Y-135499983D01*
X100899500Y-137100001D01*
X100899501Y-137100018D01*
X100910000Y-137202796D01*
X100910001Y-137202799D01*
X100965185Y-137369331D01*
X100965186Y-137369334D01*
X101057288Y-137518656D01*
X101181344Y-137642712D01*
X101223102Y-137668468D01*
X101229656Y-137672511D01*
X101276381Y-137724459D01*
X101287604Y-137793421D01*
X101259760Y-137857504D01*
X101258615Y-137858759D01*
X101258647Y-137858786D01*
X101255485Y-137862487D01*
X101255483Y-137862490D01*
X101222952Y-137907265D01*
X101116657Y-138053566D01*
X101009433Y-138264003D01*
X100936446Y-138488631D01*
X100899500Y-138721902D01*
X100899500Y-138958097D01*
X100936446Y-139191368D01*
X101009433Y-139415996D01*
X101112465Y-139618205D01*
X101116657Y-139626433D01*
X101255483Y-139817510D01*
X101422490Y-139984517D01*
X101613567Y-140123343D01*
X101687314Y-140160919D01*
X101824003Y-140230566D01*
X101824005Y-140230566D01*
X101824008Y-140230568D01*
X101944412Y-140269689D01*
X102048631Y-140303553D01*
X102281903Y-140340500D01*
X102281908Y-140340500D01*
X102518097Y-140340500D01*
X102652399Y-140319227D01*
X102732835Y-140306488D01*
X102802127Y-140315442D01*
X102839913Y-140341280D01*
X103713181Y-141214548D01*
X103727884Y-141241475D01*
X103744477Y-141267294D01*
X103745368Y-141273494D01*
X103746666Y-141275871D01*
X103749500Y-141302229D01*
X103749500Y-141309078D01*
X103729815Y-141376117D01*
X103704165Y-141404931D01*
X103701582Y-141407050D01*
X101767048Y-143341584D01*
X101747671Y-143370584D01*
X101728423Y-143399393D01*
X101684919Y-143464500D01*
X101684912Y-143464512D01*
X101628343Y-143601083D01*
X101628340Y-143601093D01*
X101599500Y-143746080D01*
X101599500Y-145907465D01*
X101579815Y-145974504D01*
X101527011Y-146020259D01*
X101488102Y-146030823D01*
X101447202Y-146035001D01*
X101447200Y-146035001D01*
X101280668Y-146090185D01*
X101280663Y-146090187D01*
X101131342Y-146182289D01*
X101007289Y-146306342D01*
X100915187Y-146455663D01*
X100915186Y-146455666D01*
X100860001Y-146622203D01*
X100860001Y-146622204D01*
X100860000Y-146622204D01*
X100849500Y-146724983D01*
X96300500Y-146724983D01*
X96300500Y-127924983D01*
X100899500Y-127924983D01*
X100899500Y-129525001D01*
X100899501Y-129525018D01*
X100910000Y-129627796D01*
X100910001Y-129627799D01*
X100965185Y-129794331D01*
X100965187Y-129794336D01*
X100974498Y-129809431D01*
X101057288Y-129943656D01*
X101181344Y-130067712D01*
X101223102Y-130093468D01*
X101229656Y-130097511D01*
X101276381Y-130149459D01*
X101287604Y-130218421D01*
X101259760Y-130282504D01*
X101258615Y-130283759D01*
X101258647Y-130283786D01*
X101255485Y-130287487D01*
X101255483Y-130287490D01*
X101210961Y-130348769D01*
X101116657Y-130478566D01*
X101009433Y-130689003D01*
X100936446Y-130913631D01*
X100899500Y-131146902D01*
X100899500Y-131383097D01*
X100936446Y-131616368D01*
X101009433Y-131840996D01*
X101083653Y-131986659D01*
X101116657Y-132051433D01*
X101255483Y-132242510D01*
X101422490Y-132409517D01*
X101613567Y-132548343D01*
X101662509Y-132573280D01*
X101824003Y-132655566D01*
X101824005Y-132655566D01*
X101824008Y-132655568D01*
X101944412Y-132694689D01*
X102048631Y-132728553D01*
X102281903Y-132765500D01*
X102281908Y-132765500D01*
X102518097Y-132765500D01*
X102751368Y-132728553D01*
X102775217Y-132720804D01*
X102975992Y-132655568D01*
X103186433Y-132548343D01*
X103377510Y-132409517D01*
X103544517Y-132242510D01*
X103672313Y-132066613D01*
X103727643Y-132023949D01*
X103772631Y-132015500D01*
X105174671Y-132015500D01*
X105272213Y-131996096D01*
X105319664Y-131986658D01*
X105456246Y-131930084D01*
X105508991Y-131894841D01*
X105579167Y-131847952D01*
X105658197Y-131768922D01*
X105775260Y-131651860D01*
X107690299Y-129736819D01*
X107717226Y-129722115D01*
X107743045Y-129705523D01*
X107749245Y-129704631D01*
X107751622Y-129703334D01*
X107777980Y-129700500D01*
X107968861Y-129700500D01*
X108031981Y-129717767D01*
X108040607Y-129722869D01*
X108040614Y-129722871D01*
X108194791Y-129767664D01*
X108194794Y-129767664D01*
X108194796Y-129767665D01*
X108230819Y-129770500D01*
X108629180Y-129770499D01*
X108665204Y-129767665D01*
X108819393Y-129722869D01*
X108876882Y-129688869D01*
X108944602Y-129671688D01*
X109003117Y-129688869D01*
X109060607Y-129722869D01*
X109060610Y-129722869D01*
X109060612Y-129722871D01*
X109214791Y-129767664D01*
X109214794Y-129767664D01*
X109214796Y-129767665D01*
X109250819Y-129770500D01*
X109649180Y-129770499D01*
X109685204Y-129767665D01*
X109727338Y-129755424D01*
X109761933Y-129750500D01*
X110077771Y-129750500D01*
X110144810Y-129770185D01*
X110165452Y-129786819D01*
X110483181Y-130104548D01*
X110516666Y-130165871D01*
X110519500Y-130192229D01*
X110519500Y-131711456D01*
X110499815Y-131778495D01*
X110483182Y-131799137D01*
X110365140Y-131917179D01*
X110255385Y-132068242D01*
X110170615Y-132234614D01*
X110170614Y-132234616D01*
X110170613Y-132234619D01*
X110128410Y-132364507D01*
X110117668Y-132397567D01*
X110078230Y-132455242D01*
X110013872Y-132482440D01*
X109945025Y-132470525D01*
X109893550Y-132423281D01*
X109881806Y-132397566D01*
X109828922Y-132234808D01*
X109744186Y-132068504D01*
X109727716Y-132045836D01*
X109727716Y-132045835D01*
X109157277Y-132616274D01*
X109132374Y-132523331D01*
X109075526Y-132424869D01*
X108995131Y-132344474D01*
X108896669Y-132287626D01*
X108803724Y-132262722D01*
X109374162Y-131692282D01*
X109351491Y-131675811D01*
X109185191Y-131591077D01*
X109007672Y-131533397D01*
X108823330Y-131504200D01*
X108636670Y-131504200D01*
X108452327Y-131533397D01*
X108274808Y-131591077D01*
X108108502Y-131675814D01*
X108085836Y-131692282D01*
X108085835Y-131692282D01*
X108656275Y-132262721D01*
X108563331Y-132287626D01*
X108464869Y-132344474D01*
X108384474Y-132424869D01*
X108327626Y-132523331D01*
X108302722Y-132616275D01*
X107732282Y-132045835D01*
X107732282Y-132045836D01*
X107715814Y-132068502D01*
X107631077Y-132234808D01*
X107573397Y-132412327D01*
X107544200Y-132596669D01*
X107544200Y-132783330D01*
X107573397Y-132967672D01*
X107631077Y-133145191D01*
X107715811Y-133311491D01*
X107732282Y-133334162D01*
X108302721Y-132763723D01*
X108327626Y-132856669D01*
X108384474Y-132955131D01*
X108464869Y-133035526D01*
X108563331Y-133092374D01*
X108656275Y-133117278D01*
X108085835Y-133687716D01*
X108108504Y-133704186D01*
X108274808Y-133788922D01*
X108452327Y-133846602D01*
X108636670Y-133875800D01*
X108823330Y-133875800D01*
X109007672Y-133846602D01*
X109185191Y-133788922D01*
X109351496Y-133704186D01*
X109374162Y-133687717D01*
X109374162Y-133687716D01*
X108803724Y-133117277D01*
X108896669Y-133092374D01*
X108995131Y-133035526D01*
X109075526Y-132955131D01*
X109132374Y-132856669D01*
X109157278Y-132763724D01*
X109727716Y-133334162D01*
X109727717Y-133334162D01*
X109744186Y-133311496D01*
X109828922Y-133145191D01*
X109881806Y-132982433D01*
X109921243Y-132924758D01*
X109985602Y-132897559D01*
X110054448Y-132909474D01*
X110105924Y-132956718D01*
X110117667Y-132982431D01*
X110170613Y-133145381D01*
X110255385Y-133311757D01*
X110365141Y-133462822D01*
X110497178Y-133594859D01*
X110648243Y-133704615D01*
X110814619Y-133789387D01*
X110992207Y-133847089D01*
X111176636Y-133876300D01*
X111176637Y-133876300D01*
X111363363Y-133876300D01*
X111363364Y-133876300D01*
X111547793Y-133847089D01*
X111725381Y-133789387D01*
X111891757Y-133704615D01*
X112042822Y-133594859D01*
X112174859Y-133462822D01*
X112284615Y-133311757D01*
X112369387Y-133145381D01*
X112427089Y-132967793D01*
X112456300Y-132783364D01*
X112456300Y-132596636D01*
X112427089Y-132412207D01*
X112369387Y-132234619D01*
X112284615Y-132068243D01*
X112174859Y-131917178D01*
X112056818Y-131799137D01*
X112023334Y-131737814D01*
X112020500Y-131711456D01*
X112020500Y-129756079D01*
X111991659Y-129611092D01*
X111991658Y-129611091D01*
X111991658Y-129611087D01*
X111974253Y-129569067D01*
X111935087Y-129474511D01*
X111935080Y-129474498D01*
X111852952Y-129351585D01*
X111852951Y-129351584D01*
X111748416Y-129247049D01*
X111276697Y-128775330D01*
X111271597Y-128767585D01*
X111266790Y-128764151D01*
X111257833Y-128746684D01*
X111249190Y-128733558D01*
X111246972Y-128727993D01*
X111212869Y-128610607D01*
X111173974Y-128544840D01*
X111170415Y-128535909D01*
X111168010Y-128510319D01*
X111161688Y-128485398D01*
X111164704Y-128475124D01*
X111163880Y-128466346D01*
X111171744Y-128451147D01*
X111178869Y-128426882D01*
X111212869Y-128369393D01*
X111213550Y-128367051D01*
X111257664Y-128215208D01*
X111257665Y-128215202D01*
X111258901Y-128199500D01*
X111260500Y-128179181D01*
X111260499Y-127780820D01*
X111257665Y-127744796D01*
X111212869Y-127590607D01*
X111207765Y-127581976D01*
X111203415Y-127566074D01*
X111195523Y-127553794D01*
X111190500Y-127518859D01*
X111190500Y-127354604D01*
X111199939Y-127307151D01*
X111209737Y-127283497D01*
X111240500Y-127128842D01*
X111240500Y-126971158D01*
X111240500Y-126971155D01*
X111240499Y-126971153D01*
X111230089Y-126918821D01*
X111209737Y-126816503D01*
X111209735Y-126816498D01*
X111149397Y-126670827D01*
X111149390Y-126670814D01*
X111061789Y-126539711D01*
X111061786Y-126539707D01*
X110950292Y-126428213D01*
X110950288Y-126428210D01*
X110819185Y-126340609D01*
X110819172Y-126340602D01*
X110673501Y-126280264D01*
X110673489Y-126280261D01*
X110518845Y-126249500D01*
X110518842Y-126249500D01*
X110361158Y-126249500D01*
X110348690Y-126251980D01*
X110279099Y-126245751D01*
X110223922Y-126202888D01*
X110200678Y-126136998D01*
X110200500Y-126130362D01*
X110200500Y-124412230D01*
X110220185Y-124345191D01*
X110236819Y-124324549D01*
X112162819Y-122398549D01*
X112224142Y-122365064D01*
X112293834Y-122370048D01*
X112349767Y-122411920D01*
X112374184Y-122477384D01*
X112374500Y-122486230D01*
X112374500Y-124047870D01*
X112374501Y-124047876D01*
X112380908Y-124107483D01*
X112431202Y-124242328D01*
X112431206Y-124242335D01*
X112517452Y-124357544D01*
X112517455Y-124357547D01*
X112632664Y-124443793D01*
X112632671Y-124443797D01*
X112650831Y-124450570D01*
X112767517Y-124494091D01*
X112827127Y-124500500D01*
X113516580Y-124500499D01*
X113516594Y-124500500D01*
X113526583Y-124500500D01*
X115823422Y-124500500D01*
X116017826Y-124469709D01*
X116021248Y-124468597D01*
X116205025Y-124408884D01*
X116380405Y-124319524D01*
X116539646Y-124203828D01*
X116678828Y-124064646D01*
X116794524Y-123905405D01*
X116883884Y-123730025D01*
X116944709Y-123542826D01*
X116954884Y-123478582D01*
X116975500Y-123348420D01*
X116975500Y-123151577D01*
X116944709Y-122957173D01*
X116897146Y-122810792D01*
X116883884Y-122769975D01*
X116883882Y-122769972D01*
X116883882Y-122769970D01*
X116825633Y-122655651D01*
X116794524Y-122594595D01*
X116678828Y-122435354D01*
X116539646Y-122296172D01*
X116380405Y-122180476D01*
X116337108Y-122158415D01*
X116205029Y-122091117D01*
X116017826Y-122030290D01*
X115823422Y-121999500D01*
X115823417Y-121999500D01*
X113526583Y-121999500D01*
X113526579Y-121999500D01*
X112861229Y-121999500D01*
X112794190Y-121979815D01*
X112748435Y-121927011D01*
X112738491Y-121857853D01*
X112767516Y-121794297D01*
X112773534Y-121787833D01*
X115534549Y-119026819D01*
X115595872Y-118993334D01*
X115622230Y-118990500D01*
X118493337Y-118990500D01*
X118560376Y-119010185D01*
X118594912Y-119043377D01*
X118619954Y-119079141D01*
X118780858Y-119240045D01*
X118780861Y-119240047D01*
X118967266Y-119370568D01*
X119018655Y-119394531D01*
X119071095Y-119440703D01*
X119090247Y-119507896D01*
X119070032Y-119574778D01*
X119024705Y-119616271D01*
X118974288Y-119643219D01*
X118960217Y-119650741D01*
X118960214Y-119650742D01*
X118960200Y-119650751D01*
X118829206Y-119738278D01*
X118829194Y-119738287D01*
X118829189Y-119738290D01*
X118829189Y-119738291D01*
X118752588Y-119801157D01*
X118752585Y-119801160D01*
X118752582Y-119801162D01*
X118641162Y-119912582D01*
X118641160Y-119912585D01*
X118641157Y-119912588D01*
X118578291Y-119989189D01*
X118578287Y-119989194D01*
X118578278Y-119989206D01*
X118490751Y-120120200D01*
X118490734Y-120120228D01*
X118444031Y-120207603D01*
X118444029Y-120207608D01*
X118383722Y-120353200D01*
X118368186Y-120404416D01*
X118354956Y-120448032D01*
X118354955Y-120448036D01*
X118354955Y-120448037D01*
X118324211Y-120602599D01*
X118324211Y-120602602D01*
X118314500Y-120701209D01*
X118314500Y-120858790D01*
X118324211Y-120957397D01*
X118324211Y-120957400D01*
X118324213Y-120957410D01*
X118354956Y-121111968D01*
X118383722Y-121206798D01*
X118444028Y-121352389D01*
X118444029Y-121352391D01*
X118444031Y-121352396D01*
X118490734Y-121439771D01*
X118490751Y-121439799D01*
X118578278Y-121570793D01*
X118578286Y-121570804D01*
X118578291Y-121570811D01*
X118641157Y-121647412D01*
X118752588Y-121758843D01*
X118829189Y-121821709D01*
X118829198Y-121821715D01*
X118829206Y-121821721D01*
X118960200Y-121909248D01*
X118960205Y-121909251D01*
X118960217Y-121909259D01*
X118960226Y-121909263D01*
X118960228Y-121909265D01*
X119024704Y-121943728D01*
X119074548Y-121992690D01*
X119090009Y-122060828D01*
X119066178Y-122126507D01*
X119018657Y-122165468D01*
X118967264Y-122189433D01*
X118780858Y-122319954D01*
X118619954Y-122480858D01*
X118489432Y-122667265D01*
X118489431Y-122667267D01*
X118393261Y-122873502D01*
X118393258Y-122873511D01*
X118334366Y-123093302D01*
X118334364Y-123093312D01*
X118319500Y-123263214D01*
X118319500Y-123376785D01*
X118334364Y-123546687D01*
X118334366Y-123546697D01*
X118393258Y-123766488D01*
X118393261Y-123766497D01*
X118489431Y-123972732D01*
X118489432Y-123972734D01*
X118619954Y-124159141D01*
X118780858Y-124320045D01*
X118816771Y-124345191D01*
X118967266Y-124450568D01*
X119025275Y-124477618D01*
X119077714Y-124523791D01*
X119096866Y-124590984D01*
X119076650Y-124657865D01*
X119025275Y-124702382D01*
X118967267Y-124729431D01*
X118967265Y-124729432D01*
X118780858Y-124859954D01*
X118619954Y-125020858D01*
X118594912Y-125056623D01*
X118540335Y-125100248D01*
X118493337Y-125109500D01*
X117024222Y-125109500D01*
X116879234Y-125138340D01*
X116879224Y-125138343D01*
X116742651Y-125194913D01*
X116742649Y-125194914D01*
X116701787Y-125222218D01*
X116701785Y-125222219D01*
X116619731Y-125277043D01*
X116619726Y-125277047D01*
X115856198Y-126040575D01*
X115824183Y-126088489D01*
X115824184Y-126088490D01*
X115774064Y-126163499D01*
X115717494Y-126300073D01*
X115717491Y-126300083D01*
X115688651Y-126445070D01*
X115688651Y-126477054D01*
X115686393Y-126500612D01*
X115685313Y-126506191D01*
X115671486Y-126553786D01*
X115668651Y-126589809D01*
X115668651Y-126592299D01*
X115666993Y-126600868D01*
X115654038Y-126625950D01*
X115643985Y-126652327D01*
X115638217Y-126656580D01*
X115634930Y-126662946D01*
X115610474Y-126677041D01*
X115587754Y-126693798D01*
X115580603Y-126694258D01*
X115574396Y-126697836D01*
X115546200Y-126696472D01*
X115518029Y-126698285D01*
X115511706Y-126694803D01*
X115504608Y-126694460D01*
X115482669Y-126678813D01*
X115459866Y-126666255D01*
X115459782Y-126666359D01*
X115459226Y-126665903D01*
X115457570Y-126664991D01*
X115455075Y-126662496D01*
X115455071Y-126662493D01*
X115323968Y-126574892D01*
X115323955Y-126574885D01*
X115178284Y-126514547D01*
X115178272Y-126514544D01*
X115023628Y-126483783D01*
X115023625Y-126483783D01*
X114865941Y-126483783D01*
X114865938Y-126483783D01*
X114711293Y-126514544D01*
X114711281Y-126514547D01*
X114565610Y-126574885D01*
X114565597Y-126574892D01*
X114434494Y-126662493D01*
X114434490Y-126662496D01*
X114322996Y-126773990D01*
X114322993Y-126773994D01*
X114235392Y-126905097D01*
X114235385Y-126905110D01*
X114175047Y-127050781D01*
X114175044Y-127050793D01*
X114144283Y-127205436D01*
X114144283Y-127363129D01*
X114175044Y-127517772D01*
X114175047Y-127517784D01*
X114235385Y-127663455D01*
X114235392Y-127663468D01*
X114322993Y-127794571D01*
X114322996Y-127794575D01*
X114434493Y-127906072D01*
X114469315Y-127929339D01*
X114565604Y-127993677D01*
X114565609Y-127993679D01*
X114565611Y-127993680D01*
X114589256Y-128003474D01*
X114629488Y-128030355D01*
X115077549Y-128478416D01*
X115182084Y-128582951D01*
X115182087Y-128582953D01*
X115182088Y-128582954D01*
X115305003Y-128665083D01*
X115305006Y-128665085D01*
X115355165Y-128685861D01*
X115361580Y-128688518D01*
X115441588Y-128721659D01*
X115557741Y-128744763D01*
X115580880Y-128749365D01*
X115586581Y-128750500D01*
X115586582Y-128750500D01*
X115586583Y-128750500D01*
X115649770Y-128750500D01*
X115716809Y-128770185D01*
X115762564Y-128822989D01*
X115772508Y-128892147D01*
X115743483Y-128955703D01*
X115737451Y-128962181D01*
X114927950Y-129771680D01*
X114866627Y-129805165D01*
X114840269Y-129807999D01*
X113452129Y-129807999D01*
X113452123Y-129808000D01*
X113392516Y-129814407D01*
X113257671Y-129864701D01*
X113257664Y-129864705D01*
X113142455Y-129950951D01*
X113142452Y-129950954D01*
X113056206Y-130066163D01*
X113056202Y-130066170D01*
X113005908Y-130201016D01*
X112999501Y-130260615D01*
X112999500Y-130260634D01*
X112999500Y-132261369D01*
X112999501Y-132261375D01*
X113005908Y-132320982D01*
X113056202Y-132455827D01*
X113056206Y-132455834D01*
X113142452Y-132571043D01*
X113142455Y-132571046D01*
X113257664Y-132657292D01*
X113257669Y-132657295D01*
X113285539Y-132667689D01*
X113341473Y-132709560D01*
X113365891Y-132775023D01*
X113351040Y-132843297D01*
X113342525Y-132856758D01*
X113209783Y-133039460D01*
X113105950Y-133243243D01*
X113035278Y-133460749D01*
X113035278Y-133460752D01*
X112999500Y-133686645D01*
X112999500Y-133915352D01*
X113035278Y-134141245D01*
X113035278Y-134141248D01*
X113105950Y-134358754D01*
X113145079Y-134435548D01*
X113209783Y-134562537D01*
X113344214Y-134747565D01*
X113505934Y-134909285D01*
X113572004Y-134957288D01*
X113590438Y-134970681D01*
X113633103Y-135026012D01*
X113639082Y-135095625D01*
X113606476Y-135157420D01*
X113590438Y-135171317D01*
X113505932Y-135232714D01*
X113344216Y-135394430D01*
X113344216Y-135394431D01*
X113344214Y-135394433D01*
X113342201Y-135397204D01*
X113209783Y-135579460D01*
X113105950Y-135783243D01*
X113035278Y-136000749D01*
X113035278Y-136000752D01*
X113006430Y-136182890D01*
X112999500Y-136226645D01*
X112999500Y-136455353D01*
X113017389Y-136568298D01*
X113035278Y-136681245D01*
X113035278Y-136681248D01*
X113105950Y-136898754D01*
X113105952Y-136898757D01*
X113209783Y-137102537D01*
X113344214Y-137287565D01*
X113505934Y-137449285D01*
X113690962Y-137583716D01*
X113865232Y-137672511D01*
X113894744Y-137687548D01*
X114112251Y-137758220D01*
X114112252Y-137758220D01*
X114112255Y-137758221D01*
X114338146Y-137793999D01*
X114338147Y-137793999D01*
X114661853Y-137793999D01*
X114661854Y-137793999D01*
X114887745Y-137758221D01*
X114887748Y-137758220D01*
X114887749Y-137758220D01*
X115105255Y-137687548D01*
X115105255Y-137687547D01*
X115105258Y-137687547D01*
X115309038Y-137583716D01*
X115494066Y-137449285D01*
X115655786Y-137287565D01*
X115790217Y-137102537D01*
X115894048Y-136898757D01*
X115933903Y-136776095D01*
X115964721Y-136681248D01*
X115964721Y-136681247D01*
X115964722Y-136681244D01*
X116000500Y-136455353D01*
X116000500Y-136226645D01*
X115964722Y-136000754D01*
X115964721Y-136000750D01*
X115964721Y-136000749D01*
X115894049Y-135783243D01*
X115859514Y-135715465D01*
X115790217Y-135579461D01*
X115655786Y-135394433D01*
X115494066Y-135232713D01*
X115409559Y-135171315D01*
X115366896Y-135115987D01*
X115360917Y-135046374D01*
X115393523Y-134984579D01*
X115409556Y-134970684D01*
X115494066Y-134909285D01*
X115655786Y-134747565D01*
X115790217Y-134562537D01*
X115894048Y-134358757D01*
X115908842Y-134313225D01*
X115964721Y-134141248D01*
X115964721Y-134141247D01*
X115964722Y-134141244D01*
X116000500Y-133915353D01*
X116000500Y-133686645D01*
X115964722Y-133460754D01*
X115964721Y-133460750D01*
X115964721Y-133460749D01*
X115894049Y-133243243D01*
X115845539Y-133148037D01*
X115790217Y-133039461D01*
X115657472Y-132856754D01*
X115633994Y-132790952D01*
X115649819Y-132722898D01*
X115699925Y-132674203D01*
X115714455Y-132667691D01*
X115742331Y-132657295D01*
X115857546Y-132571045D01*
X115943796Y-132455830D01*
X115994091Y-132320982D01*
X116000500Y-132261372D01*
X116000499Y-130873227D01*
X116020184Y-130806189D01*
X116036813Y-130785552D01*
X118056394Y-128765972D01*
X118129394Y-128656719D01*
X118183004Y-128611916D01*
X118252329Y-128603208D01*
X118315357Y-128633362D01*
X118352076Y-128692805D01*
X118352270Y-128693517D01*
X118393259Y-128846490D01*
X118393261Y-128846497D01*
X118489431Y-129052732D01*
X118489432Y-129052734D01*
X118619954Y-129239141D01*
X118780858Y-129400045D01*
X118780861Y-129400047D01*
X118967266Y-129530568D01*
X119025275Y-129557618D01*
X119077714Y-129603791D01*
X119096866Y-129670984D01*
X119076650Y-129737865D01*
X119025275Y-129782381D01*
X119008272Y-129790310D01*
X118967267Y-129809431D01*
X118967265Y-129809432D01*
X118780858Y-129939954D01*
X118619954Y-130100858D01*
X118489432Y-130287265D01*
X118489431Y-130287267D01*
X118393261Y-130493502D01*
X118393258Y-130493511D01*
X118334366Y-130713302D01*
X118334364Y-130713312D01*
X118319500Y-130883214D01*
X118319500Y-130996785D01*
X118334364Y-131166687D01*
X118334366Y-131166697D01*
X118393258Y-131386488D01*
X118393261Y-131386497D01*
X118489431Y-131592732D01*
X118489432Y-131592734D01*
X118619954Y-131779141D01*
X118780858Y-131940045D01*
X118780861Y-131940047D01*
X118967266Y-132070568D01*
X119018655Y-132094531D01*
X119071095Y-132140703D01*
X119090247Y-132207896D01*
X119070032Y-132274778D01*
X119024705Y-132316271D01*
X118986961Y-132336446D01*
X118960217Y-132350741D01*
X118960214Y-132350742D01*
X118960200Y-132350751D01*
X118829206Y-132438278D01*
X118829194Y-132438287D01*
X118829189Y-132438290D01*
X118829189Y-132438291D01*
X118752588Y-132501157D01*
X118752585Y-132501160D01*
X118752582Y-132501162D01*
X118641162Y-132612582D01*
X118641160Y-132612585D01*
X118641157Y-132612588D01*
X118595936Y-132667689D01*
X118578287Y-132689194D01*
X118578278Y-132689206D01*
X118490751Y-132820200D01*
X118490734Y-132820228D01*
X118444031Y-132907603D01*
X118444029Y-132907608D01*
X118383722Y-133053200D01*
X118371839Y-133092374D01*
X118354956Y-133148032D01*
X118354955Y-133148036D01*
X118354955Y-133148037D01*
X118324211Y-133302599D01*
X118324211Y-133302602D01*
X118314500Y-133401209D01*
X118314500Y-133558790D01*
X118324211Y-133657397D01*
X118324211Y-133657400D01*
X118324213Y-133657410D01*
X118354956Y-133811968D01*
X118365462Y-133846602D01*
X118383722Y-133906799D01*
X118444029Y-134052391D01*
X118444031Y-134052396D01*
X118490734Y-134139771D01*
X118490751Y-134139799D01*
X118578278Y-134270793D01*
X118578286Y-134270804D01*
X118578291Y-134270811D01*
X118641157Y-134347412D01*
X118752588Y-134458843D01*
X118829189Y-134521709D01*
X118829198Y-134521715D01*
X118829206Y-134521721D01*
X118960200Y-134609248D01*
X118960205Y-134609251D01*
X118960217Y-134609259D01*
X118960226Y-134609263D01*
X118960228Y-134609265D01*
X119024704Y-134643728D01*
X119074548Y-134692690D01*
X119090009Y-134760828D01*
X119066178Y-134826507D01*
X119018657Y-134865468D01*
X118967264Y-134889433D01*
X118780858Y-135019954D01*
X118619954Y-135180858D01*
X118489432Y-135367265D01*
X118489431Y-135367267D01*
X118393261Y-135573502D01*
X118393258Y-135573511D01*
X118334366Y-135793302D01*
X118334364Y-135793312D01*
X118319500Y-135963214D01*
X118319500Y-136076785D01*
X118334364Y-136246687D01*
X118334366Y-136246697D01*
X118393258Y-136466488D01*
X118393261Y-136466497D01*
X118489431Y-136672732D01*
X118489432Y-136672734D01*
X118619954Y-136859141D01*
X118780858Y-137020045D01*
X118780861Y-137020047D01*
X118967266Y-137150568D01*
X119025275Y-137177618D01*
X119077714Y-137223791D01*
X119096866Y-137290984D01*
X119076650Y-137357865D01*
X119025275Y-137402382D01*
X118967267Y-137429431D01*
X118967265Y-137429432D01*
X118780858Y-137559954D01*
X118619954Y-137720858D01*
X118489432Y-137907265D01*
X118489431Y-137907267D01*
X118393261Y-138113502D01*
X118393258Y-138113511D01*
X118334366Y-138333302D01*
X118334364Y-138333312D01*
X118319500Y-138503214D01*
X118319500Y-138616785D01*
X118334364Y-138786687D01*
X118334366Y-138786697D01*
X118393258Y-139006488D01*
X118393261Y-139006497D01*
X118489431Y-139212732D01*
X118489432Y-139212734D01*
X118619954Y-139399141D01*
X118780858Y-139560045D01*
X118780861Y-139560047D01*
X118967266Y-139690568D01*
X119173504Y-139786739D01*
X119393308Y-139845635D01*
X119563214Y-139860499D01*
X119563215Y-139860500D01*
X119563216Y-139860500D01*
X120345500Y-139860500D01*
X120412539Y-139880185D01*
X120458294Y-139932989D01*
X120469500Y-139984500D01*
X120469500Y-143857769D01*
X120449815Y-143924808D01*
X120433181Y-143945450D01*
X119308807Y-145069824D01*
X119247484Y-145103309D01*
X119201728Y-145104616D01*
X119106292Y-145089500D01*
X119106287Y-145089500D01*
X118893713Y-145089500D01*
X118845042Y-145097208D01*
X118683760Y-145122753D01*
X118481585Y-145188444D01*
X118292179Y-145284951D01*
X118120213Y-145409890D01*
X117969890Y-145560213D01*
X117844951Y-145732179D01*
X117748444Y-145921585D01*
X117682753Y-146123760D01*
X117649500Y-146333713D01*
X117649500Y-146546286D01*
X117682753Y-146756239D01*
X117748444Y-146958414D01*
X117844951Y-147147820D01*
X117969890Y-147319786D01*
X118120213Y-147470109D01*
X118292182Y-147595050D01*
X118300946Y-147599516D01*
X118351742Y-147647491D01*
X118368536Y-147715312D01*
X118345998Y-147781447D01*
X118300946Y-147820484D01*
X118292182Y-147824949D01*
X118120213Y-147949890D01*
X117969890Y-148100213D01*
X117844951Y-148272179D01*
X117748444Y-148461585D01*
X117682753Y-148663760D01*
X117674334Y-148716917D01*
X117649500Y-148873713D01*
X117649500Y-149086287D01*
X117682754Y-149296243D01*
X117745387Y-149489008D01*
X117748444Y-149498414D01*
X117844951Y-149687820D01*
X117969890Y-149859786D01*
X118120213Y-150010109D01*
X118292182Y-150135050D01*
X118300946Y-150139516D01*
X118351742Y-150187491D01*
X118368536Y-150255312D01*
X118345998Y-150321447D01*
X118300946Y-150360484D01*
X118292182Y-150364949D01*
X118120213Y-150489890D01*
X117969890Y-150640213D01*
X117844951Y-150812179D01*
X117748444Y-151001585D01*
X117682753Y-151203760D01*
X117649500Y-151413713D01*
X117649500Y-151626286D01*
X117682753Y-151836239D01*
X117748444Y-152038414D01*
X117844951Y-152227820D01*
X117969890Y-152399786D01*
X118120213Y-152550109D01*
X118292182Y-152675050D01*
X118300946Y-152679516D01*
X118351742Y-152727491D01*
X118368536Y-152795312D01*
X118345998Y-152861447D01*
X118300946Y-152900484D01*
X118292182Y-152904949D01*
X118120213Y-153029890D01*
X117969890Y-153180213D01*
X117844951Y-153352179D01*
X117748444Y-153541585D01*
X117682753Y-153743760D01*
X117649500Y-153953713D01*
X117649500Y-154166286D01*
X117682753Y-154376239D01*
X117748444Y-154578414D01*
X117844951Y-154767820D01*
X117969890Y-154939786D01*
X118120213Y-155090109D01*
X118292182Y-155215050D01*
X118300946Y-155219516D01*
X118351742Y-155267491D01*
X118368536Y-155335312D01*
X118345998Y-155401447D01*
X118300946Y-155440484D01*
X118292182Y-155444949D01*
X118120213Y-155569890D01*
X117969890Y-155720213D01*
X117844951Y-155892179D01*
X117748444Y-156081585D01*
X117682753Y-156283760D01*
X117649500Y-156493713D01*
X117649500Y-156706286D01*
X117682753Y-156916239D01*
X117748444Y-157118414D01*
X117844951Y-157307820D01*
X117969890Y-157479786D01*
X118120213Y-157630109D01*
X118292182Y-157755050D01*
X118300946Y-157759516D01*
X118351742Y-157807491D01*
X118368536Y-157875312D01*
X118345998Y-157941447D01*
X118300946Y-157980484D01*
X118292182Y-157984949D01*
X118120213Y-158109890D01*
X117969890Y-158260213D01*
X117844951Y-158432179D01*
X117748444Y-158621585D01*
X117682753Y-158823760D01*
X117649500Y-159033713D01*
X117649500Y-159246286D01*
X117682753Y-159456239D01*
X117748444Y-159658414D01*
X117844951Y-159847820D01*
X117969890Y-160019786D01*
X118120213Y-160170109D01*
X118292182Y-160295050D01*
X118300946Y-160299516D01*
X118351742Y-160347491D01*
X118368536Y-160415312D01*
X118345998Y-160481447D01*
X118300946Y-160520484D01*
X118292182Y-160524949D01*
X118120213Y-160649890D01*
X117969890Y-160800213D01*
X117844951Y-160972179D01*
X117748444Y-161161585D01*
X117682753Y-161363760D01*
X117649500Y-161573713D01*
X117649500Y-161786287D01*
X117682754Y-161996243D01*
X117735081Y-162157289D01*
X117748444Y-162198414D01*
X117844951Y-162387820D01*
X117969890Y-162559786D01*
X118083430Y-162673326D01*
X118116915Y-162734649D01*
X118111931Y-162804341D01*
X118070059Y-162860274D01*
X118039083Y-162877189D01*
X117907669Y-162926203D01*
X117907664Y-162926206D01*
X117792455Y-163012452D01*
X117792452Y-163012455D01*
X117706206Y-163127664D01*
X117706202Y-163127671D01*
X117655908Y-163262517D01*
X117649501Y-163322116D01*
X117649501Y-163322123D01*
X117649500Y-163322135D01*
X117649500Y-165117870D01*
X117649501Y-165117876D01*
X117655908Y-165177483D01*
X117706202Y-165312328D01*
X117706206Y-165312335D01*
X117792452Y-165427544D01*
X117792455Y-165427547D01*
X117907664Y-165513793D01*
X117907671Y-165513797D01*
X118042517Y-165564091D01*
X118042516Y-165564091D01*
X118049444Y-165564835D01*
X118102127Y-165570500D01*
X119897872Y-165570499D01*
X119957483Y-165564091D01*
X120092331Y-165513796D01*
X120207546Y-165427546D01*
X120293796Y-165312331D01*
X120344091Y-165177483D01*
X120350500Y-165117873D01*
X120350499Y-164170269D01*
X120350499Y-163322129D01*
X120350498Y-163322123D01*
X120350497Y-163322116D01*
X120344091Y-163262517D01*
X120301659Y-163148752D01*
X120293797Y-163127671D01*
X120293793Y-163127664D01*
X120207547Y-163012455D01*
X120207544Y-163012452D01*
X120092335Y-162926206D01*
X120092328Y-162926202D01*
X119960917Y-162877189D01*
X119904983Y-162835318D01*
X119880566Y-162769853D01*
X119895418Y-162701580D01*
X119916563Y-162673332D01*
X120030104Y-162559792D01*
X120155051Y-162387816D01*
X120251557Y-162198412D01*
X120317246Y-161996243D01*
X120350500Y-161786287D01*
X120350500Y-161573713D01*
X120317246Y-161363757D01*
X120251557Y-161161588D01*
X120155051Y-160972184D01*
X120155049Y-160972181D01*
X120155048Y-160972179D01*
X120030109Y-160800213D01*
X119879786Y-160649890D01*
X119707820Y-160524951D01*
X119707115Y-160524591D01*
X119699054Y-160520485D01*
X119648259Y-160472512D01*
X119631463Y-160404692D01*
X119653999Y-160338556D01*
X119699054Y-160299515D01*
X119707816Y-160295051D01*
X119729789Y-160279086D01*
X119879786Y-160170109D01*
X119879788Y-160170106D01*
X119879792Y-160170104D01*
X120030104Y-160019792D01*
X120030106Y-160019788D01*
X120030109Y-160019786D01*
X120155048Y-159847820D01*
X120155047Y-159847820D01*
X120155051Y-159847816D01*
X120251557Y-159658412D01*
X120317246Y-159456243D01*
X120350500Y-159246287D01*
X120350500Y-159033713D01*
X120317246Y-158823757D01*
X120251557Y-158621588D01*
X120155051Y-158432184D01*
X120155049Y-158432181D01*
X120155048Y-158432179D01*
X120030109Y-158260213D01*
X119879786Y-158109890D01*
X119707820Y-157984951D01*
X119707115Y-157984591D01*
X119699054Y-157980485D01*
X119648259Y-157932512D01*
X119631463Y-157864692D01*
X119653999Y-157798556D01*
X119699054Y-157759515D01*
X119707816Y-157755051D01*
X119729789Y-157739086D01*
X119879786Y-157630109D01*
X119879788Y-157630106D01*
X119879792Y-157630104D01*
X120030104Y-157479792D01*
X120030106Y-157479788D01*
X120030109Y-157479786D01*
X120155048Y-157307820D01*
X120155047Y-157307820D01*
X120155051Y-157307816D01*
X120251557Y-157118412D01*
X120317246Y-156916243D01*
X120350500Y-156706287D01*
X120350500Y-156493713D01*
X120335382Y-156398268D01*
X120344336Y-156328979D01*
X120370171Y-156291195D01*
X132735821Y-143925546D01*
X132797142Y-143892063D01*
X132866834Y-143897047D01*
X132922767Y-143938919D01*
X132947184Y-144004383D01*
X132947500Y-144013229D01*
X132947500Y-148571918D01*
X132947500Y-148571920D01*
X132947499Y-148571920D01*
X132976340Y-148716907D01*
X132976343Y-148716917D01*
X133032912Y-148853488D01*
X133032916Y-148853495D01*
X133051599Y-148881456D01*
X133051600Y-148881459D01*
X133051601Y-148881459D01*
X133066659Y-148903996D01*
X133115051Y-148976420D01*
X133115052Y-148976421D01*
X140429824Y-156291191D01*
X140463309Y-156352514D01*
X140464616Y-156398270D01*
X140449500Y-156493707D01*
X140449500Y-156706286D01*
X140482753Y-156916239D01*
X140548444Y-157118414D01*
X140644951Y-157307820D01*
X140769890Y-157479786D01*
X140920213Y-157630109D01*
X141092182Y-157755050D01*
X141100946Y-157759516D01*
X141151742Y-157807491D01*
X141168536Y-157875312D01*
X141145998Y-157941447D01*
X141100946Y-157980484D01*
X141092182Y-157984949D01*
X140920213Y-158109890D01*
X140769890Y-158260213D01*
X140644951Y-158432179D01*
X140548444Y-158621585D01*
X140482753Y-158823760D01*
X140449500Y-159033713D01*
X140449500Y-159246286D01*
X140482753Y-159456239D01*
X140548444Y-159658414D01*
X140644951Y-159847820D01*
X140769890Y-160019786D01*
X140920213Y-160170109D01*
X141092182Y-160295050D01*
X141100946Y-160299516D01*
X141151742Y-160347491D01*
X141168536Y-160415312D01*
X141145998Y-160481447D01*
X141100946Y-160520484D01*
X141092182Y-160524949D01*
X140920213Y-160649890D01*
X140769890Y-160800213D01*
X140644951Y-160972179D01*
X140548444Y-161161585D01*
X140482753Y-161363760D01*
X140449500Y-161573713D01*
X140449500Y-161786287D01*
X140482754Y-161996243D01*
X140535081Y-162157289D01*
X140548444Y-162198414D01*
X140644951Y-162387820D01*
X140769890Y-162559786D01*
X140883818Y-162673714D01*
X140917303Y-162735037D01*
X140912319Y-162804729D01*
X140870447Y-162860662D01*
X140839471Y-162877577D01*
X140707912Y-162926646D01*
X140707906Y-162926649D01*
X140592812Y-163012809D01*
X140592809Y-163012812D01*
X140506649Y-163127906D01*
X140506645Y-163127913D01*
X140456403Y-163262620D01*
X140456401Y-163262627D01*
X140450000Y-163322155D01*
X140450000Y-163970000D01*
X141366988Y-163970000D01*
X141334075Y-164027007D01*
X141300000Y-164154174D01*
X141300000Y-164285826D01*
X141334075Y-164412993D01*
X141366988Y-164470000D01*
X140450000Y-164470000D01*
X140450000Y-165117844D01*
X140456401Y-165177372D01*
X140456403Y-165177379D01*
X140506645Y-165312086D01*
X140506649Y-165312093D01*
X140592809Y-165427187D01*
X140592812Y-165427190D01*
X140707906Y-165513350D01*
X140707913Y-165513354D01*
X140842620Y-165563596D01*
X140842627Y-165563598D01*
X140902155Y-165569999D01*
X140902172Y-165570000D01*
X141550000Y-165570000D01*
X141550000Y-164653012D01*
X141607007Y-164685925D01*
X141734174Y-164720000D01*
X141865826Y-164720000D01*
X141992993Y-164685925D01*
X142050000Y-164653012D01*
X142050000Y-165570000D01*
X142697828Y-165570000D01*
X142697844Y-165569999D01*
X142757372Y-165563598D01*
X142757379Y-165563596D01*
X142892086Y-165513354D01*
X142892093Y-165513350D01*
X143007187Y-165427190D01*
X143007190Y-165427187D01*
X143093350Y-165312093D01*
X143093354Y-165312086D01*
X143143596Y-165177379D01*
X143143598Y-165177372D01*
X143149999Y-165117844D01*
X143150000Y-165117827D01*
X143150000Y-164470000D01*
X142233012Y-164470000D01*
X142265925Y-164412993D01*
X142300000Y-164285826D01*
X142300000Y-164154174D01*
X142265925Y-164027007D01*
X142233012Y-163970000D01*
X143150000Y-163970000D01*
X143150000Y-163322172D01*
X143149999Y-163322155D01*
X143143598Y-163262627D01*
X143143596Y-163262620D01*
X143093354Y-163127913D01*
X143093350Y-163127906D01*
X143007190Y-163012812D01*
X143007187Y-163012809D01*
X142892093Y-162926649D01*
X142892088Y-162926646D01*
X142760528Y-162877577D01*
X142704595Y-162835705D01*
X142680178Y-162770241D01*
X142695030Y-162701968D01*
X142716175Y-162673720D01*
X142830104Y-162559792D01*
X142955051Y-162387816D01*
X143051557Y-162198412D01*
X143117246Y-161996243D01*
X143150500Y-161786287D01*
X143150500Y-161573713D01*
X143117246Y-161363757D01*
X143051557Y-161161588D01*
X142955051Y-160972184D01*
X142955049Y-160972181D01*
X142955048Y-160972179D01*
X142830109Y-160800213D01*
X142679786Y-160649890D01*
X142507820Y-160524951D01*
X142507115Y-160524591D01*
X142499054Y-160520485D01*
X142448259Y-160472512D01*
X142431463Y-160404692D01*
X142453999Y-160338556D01*
X142499054Y-160299515D01*
X142507816Y-160295051D01*
X142529789Y-160279086D01*
X142679786Y-160170109D01*
X142679788Y-160170106D01*
X142679792Y-160170104D01*
X142830104Y-160019792D01*
X142830106Y-160019788D01*
X142830109Y-160019786D01*
X142955048Y-159847820D01*
X142955047Y-159847820D01*
X142955051Y-159847816D01*
X143051557Y-159658412D01*
X143117246Y-159456243D01*
X143150500Y-159246287D01*
X143150500Y-159033713D01*
X143117246Y-158823757D01*
X143051557Y-158621588D01*
X142955051Y-158432184D01*
X142955049Y-158432181D01*
X142955048Y-158432179D01*
X142830109Y-158260213D01*
X142679786Y-158109890D01*
X142507820Y-157984951D01*
X142507115Y-157984591D01*
X142499054Y-157980485D01*
X142448259Y-157932512D01*
X142431463Y-157864692D01*
X142453999Y-157798556D01*
X142499054Y-157759515D01*
X142507816Y-157755051D01*
X142529789Y-157739086D01*
X142679786Y-157630109D01*
X142679788Y-157630106D01*
X142679792Y-157630104D01*
X142830104Y-157479792D01*
X142830106Y-157479788D01*
X142830109Y-157479786D01*
X142955048Y-157307820D01*
X142955047Y-157307820D01*
X142955051Y-157307816D01*
X143051557Y-157118412D01*
X143117246Y-156916243D01*
X143150500Y-156706287D01*
X143150500Y-156493713D01*
X143117246Y-156283757D01*
X143051557Y-156081588D01*
X142955051Y-155892184D01*
X142955049Y-155892181D01*
X142955048Y-155892179D01*
X142830109Y-155720213D01*
X142679786Y-155569890D01*
X142507820Y-155444951D01*
X142507115Y-155444591D01*
X142499054Y-155440485D01*
X142448259Y-155392512D01*
X142431463Y-155324692D01*
X142453999Y-155258556D01*
X142499054Y-155219515D01*
X142507816Y-155215051D01*
X142529789Y-155199086D01*
X142679786Y-155090109D01*
X142679788Y-155090106D01*
X142679792Y-155090104D01*
X142830104Y-154939792D01*
X142830106Y-154939788D01*
X142830109Y-154939786D01*
X142955048Y-154767820D01*
X142955047Y-154767820D01*
X142955051Y-154767816D01*
X143051557Y-154578412D01*
X143117246Y-154376243D01*
X143150500Y-154166287D01*
X143150500Y-153953713D01*
X143117246Y-153743757D01*
X143051557Y-153541588D01*
X142955051Y-153352184D01*
X142955049Y-153352181D01*
X142955048Y-153352179D01*
X142830109Y-153180213D01*
X142679786Y-153029890D01*
X142507820Y-152904951D01*
X142507115Y-152904591D01*
X142499054Y-152900485D01*
X142448259Y-152852512D01*
X142431463Y-152784692D01*
X142453999Y-152718556D01*
X142499054Y-152679515D01*
X142507816Y-152675051D01*
X142529789Y-152659086D01*
X142679786Y-152550109D01*
X142679788Y-152550106D01*
X142679792Y-152550104D01*
X142830104Y-152399792D01*
X142830106Y-152399788D01*
X142830109Y-152399786D01*
X142955048Y-152227820D01*
X142955047Y-152227820D01*
X142955051Y-152227816D01*
X143051557Y-152038412D01*
X143117246Y-151836243D01*
X143150500Y-151626287D01*
X143150500Y-151413713D01*
X143117246Y-151203757D01*
X143051557Y-151001588D01*
X142955051Y-150812184D01*
X142955049Y-150812181D01*
X142955048Y-150812179D01*
X142830109Y-150640213D01*
X142679786Y-150489890D01*
X142507820Y-150364951D01*
X142507115Y-150364591D01*
X142499054Y-150360485D01*
X142448259Y-150312512D01*
X142431463Y-150244692D01*
X142453999Y-150178556D01*
X142499054Y-150139515D01*
X142507816Y-150135051D01*
X142529789Y-150119086D01*
X142679786Y-150010109D01*
X142679788Y-150010106D01*
X142679792Y-150010104D01*
X142830104Y-149859792D01*
X142830106Y-149859788D01*
X142830109Y-149859786D01*
X142955048Y-149687820D01*
X142955047Y-149687820D01*
X142955051Y-149687816D01*
X143051557Y-149498412D01*
X143117246Y-149296243D01*
X143150500Y-149086287D01*
X143150500Y-148873713D01*
X143117246Y-148663757D01*
X143051557Y-148461588D01*
X142955051Y-148272184D01*
X142955049Y-148272181D01*
X142955048Y-148272179D01*
X142830109Y-148100213D01*
X142679786Y-147949890D01*
X142507820Y-147824951D01*
X142507115Y-147824591D01*
X142499054Y-147820485D01*
X142448259Y-147772512D01*
X142431463Y-147704692D01*
X142453999Y-147638556D01*
X142499054Y-147599515D01*
X142507816Y-147595051D01*
X142529789Y-147579086D01*
X142679786Y-147470109D01*
X142679788Y-147470106D01*
X142679792Y-147470104D01*
X142830104Y-147319792D01*
X142830106Y-147319788D01*
X142830109Y-147319786D01*
X142955048Y-147147820D01*
X142955047Y-147147820D01*
X142955051Y-147147816D01*
X143051557Y-146958412D01*
X143117246Y-146756243D01*
X143150500Y-146546287D01*
X143150500Y-146333713D01*
X143117246Y-146123757D01*
X143051557Y-145921588D01*
X142955051Y-145732184D01*
X142955049Y-145732181D01*
X142955048Y-145732179D01*
X142830109Y-145560213D01*
X142679786Y-145409890D01*
X142507820Y-145284951D01*
X142318414Y-145188444D01*
X142318413Y-145188443D01*
X142318412Y-145188443D01*
X142116243Y-145122754D01*
X142116241Y-145122753D01*
X142116240Y-145122753D01*
X141954957Y-145097208D01*
X141906287Y-145089500D01*
X141693713Y-145089500D01*
X141645042Y-145097208D01*
X141483760Y-145122753D01*
X141281585Y-145188444D01*
X141092179Y-145284951D01*
X140920213Y-145409890D01*
X140769890Y-145560213D01*
X140644951Y-145732179D01*
X140548444Y-145921585D01*
X140482753Y-146123760D01*
X140449500Y-146333713D01*
X140449500Y-146546286D01*
X140482753Y-146756239D01*
X140548444Y-146958414D01*
X140644951Y-147147820D01*
X140769890Y-147319786D01*
X140920213Y-147470109D01*
X141092182Y-147595050D01*
X141100946Y-147599516D01*
X141151742Y-147647491D01*
X141168536Y-147715312D01*
X141145998Y-147781447D01*
X141100946Y-147820484D01*
X141092182Y-147824949D01*
X140920213Y-147949890D01*
X140769890Y-148100213D01*
X140644951Y-148272179D01*
X140548444Y-148461585D01*
X140482753Y-148663760D01*
X140455518Y-148835713D01*
X140425589Y-148898848D01*
X140366277Y-148935779D01*
X140296414Y-148934781D01*
X140245364Y-148903996D01*
X135786819Y-144445451D01*
X135753334Y-144384128D01*
X135750500Y-144357770D01*
X135750500Y-140382228D01*
X135770185Y-140315189D01*
X135786814Y-140294552D01*
X137489067Y-138592298D01*
X137500114Y-138586266D01*
X137508222Y-138576635D01*
X137530198Y-138569839D01*
X137550388Y-138558815D01*
X137562945Y-138559713D01*
X137574973Y-138555994D01*
X137597132Y-138562157D01*
X137620080Y-138563799D01*
X137630159Y-138571344D01*
X137642287Y-138574718D01*
X137657597Y-138591884D01*
X137676013Y-138605671D01*
X137681525Y-138618714D01*
X137688792Y-138626862D01*
X137699219Y-138660581D01*
X137707728Y-138714299D01*
X137708783Y-138722891D01*
X137714364Y-138786686D01*
X137714364Y-138786689D01*
X137714365Y-138786692D01*
X137726174Y-138830766D01*
X137731523Y-138864534D01*
X137752614Y-138929448D01*
X137753454Y-138932581D01*
X137753460Y-138932600D01*
X137773260Y-139006494D01*
X137784529Y-139030662D01*
X137787733Y-139037532D01*
X137794780Y-139059219D01*
X137830930Y-139130169D01*
X137831844Y-139132128D01*
X137869432Y-139212734D01*
X137877562Y-139224346D01*
X137882535Y-139231448D01*
X137887713Y-139241610D01*
X137941164Y-139315180D01*
X137941793Y-139316078D01*
X137999953Y-139399140D01*
X138160858Y-139560045D01*
X138160861Y-139560047D01*
X138244800Y-139618821D01*
X138318390Y-139672287D01*
X138328547Y-139677462D01*
X138335648Y-139682434D01*
X138335652Y-139682436D01*
X138347265Y-139690567D01*
X138347266Y-139690568D01*
X138429827Y-139729067D01*
X138500781Y-139765220D01*
X138522467Y-139772266D01*
X138553504Y-139786739D01*
X138553510Y-139786740D01*
X138553513Y-139786742D01*
X138627386Y-139806535D01*
X138630528Y-139807377D01*
X138695466Y-139828477D01*
X138729233Y-139833825D01*
X138773308Y-139845635D01*
X138837103Y-139851215D01*
X138845690Y-139852269D01*
X138897648Y-139860500D01*
X138943216Y-139860500D01*
X139987770Y-139860500D01*
X140054809Y-139880185D01*
X140075451Y-139896819D01*
X141620278Y-141441647D01*
X141620281Y-141441649D01*
X141620284Y-141441652D01*
X141743206Y-141523784D01*
X141879788Y-141580359D01*
X141981573Y-141600605D01*
X142024778Y-141609199D01*
X142024782Y-141609200D01*
X142024783Y-141609200D01*
X142172619Y-141609200D01*
X142172620Y-141609199D01*
X142317613Y-141580359D01*
X142454195Y-141523784D01*
X142577116Y-141441652D01*
X142681652Y-141337116D01*
X142763784Y-141214195D01*
X142820359Y-141077613D01*
X142849200Y-140932618D01*
X142849200Y-140784783D01*
X142820359Y-140639788D01*
X142763784Y-140503206D01*
X142681652Y-140380284D01*
X142681647Y-140380279D01*
X142681647Y-140380278D01*
X141714992Y-139413624D01*
X141681507Y-139352301D01*
X141686491Y-139282610D01*
X141701100Y-139254818D01*
X141730565Y-139212739D01*
X141730566Y-139212736D01*
X141730568Y-139212734D01*
X141826739Y-139006496D01*
X141885635Y-138786692D01*
X141900500Y-138616784D01*
X141900500Y-138503216D01*
X141885635Y-138333308D01*
X141840916Y-138166415D01*
X141826741Y-138113511D01*
X141826738Y-138113502D01*
X141815472Y-138089343D01*
X141730568Y-137907266D01*
X141600047Y-137720861D01*
X141600045Y-137720858D01*
X141439141Y-137559954D01*
X141252734Y-137429432D01*
X141252728Y-137429429D01*
X141194725Y-137402382D01*
X141142285Y-137356210D01*
X141123133Y-137289017D01*
X141143348Y-137222135D01*
X141194725Y-137177618D01*
X141252734Y-137150568D01*
X141439139Y-137020047D01*
X141600047Y-136859139D01*
X141730568Y-136672734D01*
X141826739Y-136466496D01*
X141885635Y-136246692D01*
X141900500Y-136076784D01*
X141900500Y-135963216D01*
X141885635Y-135793308D01*
X141828335Y-135579460D01*
X141826741Y-135573511D01*
X141826738Y-135573503D01*
X141730568Y-135367266D01*
X141600047Y-135180861D01*
X141600045Y-135180858D01*
X141439141Y-135019954D01*
X141252734Y-134889432D01*
X141252732Y-134889431D01*
X141201343Y-134865468D01*
X141148904Y-134819295D01*
X141129752Y-134752102D01*
X141149968Y-134685221D01*
X141195293Y-134643729D01*
X141259783Y-134609259D01*
X141390811Y-134521709D01*
X141467412Y-134458843D01*
X141578843Y-134347412D01*
X141641709Y-134270811D01*
X141729259Y-134139783D01*
X141775972Y-134052389D01*
X141836278Y-133906798D01*
X141865044Y-133811968D01*
X141895787Y-133657410D01*
X141905500Y-133558793D01*
X141905500Y-133401207D01*
X141895787Y-133302590D01*
X141865044Y-133148032D01*
X141836278Y-133053202D01*
X141775972Y-132907611D01*
X141741595Y-132843297D01*
X141729265Y-132820228D01*
X141729263Y-132820226D01*
X141729259Y-132820217D01*
X141729248Y-132820200D01*
X141641721Y-132689206D01*
X141641712Y-132689194D01*
X141641709Y-132689189D01*
X141578843Y-132612588D01*
X141467412Y-132501157D01*
X141390811Y-132438291D01*
X141390804Y-132438286D01*
X141390793Y-132438278D01*
X141259799Y-132350751D01*
X141259788Y-132350744D01*
X141259783Y-132350741D01*
X141195293Y-132316270D01*
X141145450Y-132267308D01*
X141129990Y-132199171D01*
X141153822Y-132133491D01*
X141201341Y-132094532D01*
X141252734Y-132070568D01*
X141439139Y-131940047D01*
X141600047Y-131779139D01*
X141730568Y-131592734D01*
X141826739Y-131386496D01*
X141885635Y-131166692D01*
X141900500Y-130996784D01*
X141900500Y-130883216D01*
X141885635Y-130713308D01*
X141831968Y-130513020D01*
X141826741Y-130493511D01*
X141826738Y-130493502D01*
X141819594Y-130478181D01*
X141730568Y-130287266D01*
X141600047Y-130100861D01*
X141600045Y-130100858D01*
X141439141Y-129939954D01*
X141252734Y-129809432D01*
X141252728Y-129809429D01*
X141220350Y-129794331D01*
X141194724Y-129782381D01*
X141142285Y-129736210D01*
X141123133Y-129669017D01*
X141143348Y-129602135D01*
X141194725Y-129557618D01*
X141252734Y-129530568D01*
X141439139Y-129400047D01*
X141600047Y-129239139D01*
X141730568Y-129052734D01*
X141826739Y-128846496D01*
X141885635Y-128626692D01*
X141900500Y-128456784D01*
X141900500Y-128343216D01*
X141885635Y-128173308D01*
X141837503Y-127993676D01*
X141826741Y-127953511D01*
X141826738Y-127953502D01*
X141815472Y-127929343D01*
X141730568Y-127747266D01*
X141600047Y-127560861D01*
X141600045Y-127560858D01*
X141439141Y-127399954D01*
X141252734Y-127269432D01*
X141252728Y-127269429D01*
X141194725Y-127242382D01*
X141142285Y-127196210D01*
X141123133Y-127129017D01*
X141143348Y-127062135D01*
X141194725Y-127017618D01*
X141252734Y-126990568D01*
X141439139Y-126860047D01*
X141600047Y-126699139D01*
X141730568Y-126512734D01*
X141826739Y-126306496D01*
X141885635Y-126086692D01*
X141900500Y-125916784D01*
X141900500Y-125803216D01*
X141885635Y-125633308D01*
X141827697Y-125417079D01*
X141826741Y-125413511D01*
X141826738Y-125413502D01*
X141815472Y-125389343D01*
X141730568Y-125207266D01*
X141600047Y-125020861D01*
X141600045Y-125020858D01*
X141439141Y-124859954D01*
X141252734Y-124729432D01*
X141252728Y-124729429D01*
X141194725Y-124702382D01*
X141142285Y-124656210D01*
X141123133Y-124589017D01*
X141143348Y-124522135D01*
X141194725Y-124477618D01*
X141252734Y-124450568D01*
X141439139Y-124320047D01*
X141600047Y-124159139D01*
X141730568Y-123972734D01*
X141826739Y-123766496D01*
X141885635Y-123546692D01*
X141900500Y-123376784D01*
X141900500Y-123263216D01*
X141885635Y-123093308D01*
X141831836Y-122892526D01*
X141826741Y-122873511D01*
X141826738Y-122873503D01*
X141730568Y-122667266D01*
X141600047Y-122480861D01*
X141600045Y-122480858D01*
X141439141Y-122319954D01*
X141252734Y-122189432D01*
X141252732Y-122189431D01*
X141201343Y-122165468D01*
X141148904Y-122119295D01*
X141129752Y-122052102D01*
X141149968Y-121985221D01*
X141195293Y-121943729D01*
X141259783Y-121909259D01*
X141390811Y-121821709D01*
X141467412Y-121758843D01*
X141578843Y-121647412D01*
X141641709Y-121570811D01*
X141729259Y-121439783D01*
X141775972Y-121352389D01*
X141836278Y-121206798D01*
X141865044Y-121111968D01*
X141895787Y-120957410D01*
X141905500Y-120858793D01*
X141905500Y-120701207D01*
X141895787Y-120602590D01*
X141865044Y-120448032D01*
X141836278Y-120353202D01*
X141775972Y-120207611D01*
X141729259Y-120120217D01*
X141709648Y-120090867D01*
X141641721Y-119989206D01*
X141641712Y-119989194D01*
X141641709Y-119989189D01*
X141578843Y-119912588D01*
X141467412Y-119801157D01*
X141390811Y-119738291D01*
X141390804Y-119738286D01*
X141390793Y-119738278D01*
X141259799Y-119650751D01*
X141259788Y-119650744D01*
X141259783Y-119650741D01*
X141195293Y-119616270D01*
X141145450Y-119567308D01*
X141129990Y-119499171D01*
X141153822Y-119433491D01*
X141201341Y-119394532D01*
X141252734Y-119370568D01*
X141439139Y-119240047D01*
X141600047Y-119079139D01*
X141730568Y-118892734D01*
X141826739Y-118686496D01*
X141885635Y-118466692D01*
X141900500Y-118296784D01*
X141900500Y-118183216D01*
X141885635Y-118013308D01*
X141840916Y-117846415D01*
X141826741Y-117793511D01*
X141826738Y-117793503D01*
X141730568Y-117587266D01*
X141600047Y-117400861D01*
X141600045Y-117400858D01*
X141439141Y-117239954D01*
X141252734Y-117109432D01*
X141252728Y-117109429D01*
X141194725Y-117082382D01*
X141142285Y-117036210D01*
X141123133Y-116969017D01*
X141143348Y-116902135D01*
X141194725Y-116857618D01*
X141252734Y-116830568D01*
X141439139Y-116700047D01*
X141600047Y-116539139D01*
X141730568Y-116352734D01*
X141826739Y-116146496D01*
X141885635Y-115926692D01*
X141900500Y-115756784D01*
X141900500Y-115643216D01*
X141885635Y-115473308D01*
X141840916Y-115306415D01*
X141826741Y-115253511D01*
X141826738Y-115253503D01*
X141730568Y-115047266D01*
X141600047Y-114860861D01*
X141600045Y-114860858D01*
X141439141Y-114699954D01*
X141252734Y-114569432D01*
X141252728Y-114569429D01*
X141194725Y-114542382D01*
X141142285Y-114496210D01*
X141123133Y-114429017D01*
X141143348Y-114362135D01*
X141194725Y-114317618D01*
X141252734Y-114290568D01*
X141439139Y-114160047D01*
X141600047Y-113999139D01*
X141730568Y-113812734D01*
X141826739Y-113606496D01*
X141885635Y-113386692D01*
X141900500Y-113216784D01*
X141900500Y-113103216D01*
X141885635Y-112933308D01*
X141840916Y-112766415D01*
X141826741Y-112713511D01*
X141826738Y-112713503D01*
X141730568Y-112507266D01*
X141600047Y-112320861D01*
X141600045Y-112320858D01*
X141439141Y-112159954D01*
X141252734Y-112029432D01*
X141252728Y-112029429D01*
X141194725Y-112002382D01*
X141142285Y-111956210D01*
X141123133Y-111889017D01*
X141143348Y-111822135D01*
X141194725Y-111777618D01*
X141252734Y-111750568D01*
X141439139Y-111620047D01*
X141600047Y-111459139D01*
X141730568Y-111272734D01*
X141826739Y-111066496D01*
X141885635Y-110846692D01*
X141900500Y-110676784D01*
X141900500Y-110563216D01*
X141885635Y-110393308D01*
X141830005Y-110185692D01*
X141826741Y-110173511D01*
X141826738Y-110173503D01*
X141730568Y-109967266D01*
X141600047Y-109780861D01*
X141600045Y-109780858D01*
X141439141Y-109619954D01*
X141252734Y-109489432D01*
X141252732Y-109489431D01*
X141201343Y-109465468D01*
X141148904Y-109419295D01*
X141129752Y-109352102D01*
X141149968Y-109285221D01*
X141195293Y-109243729D01*
X141259783Y-109209259D01*
X141390811Y-109121709D01*
X141467412Y-109058843D01*
X141578843Y-108947412D01*
X141641709Y-108870811D01*
X141729259Y-108739783D01*
X141775972Y-108652389D01*
X141836278Y-108506798D01*
X141865044Y-108411968D01*
X141895787Y-108257410D01*
X141905500Y-108158793D01*
X141905500Y-108001207D01*
X141895787Y-107902590D01*
X141865044Y-107748032D01*
X141836278Y-107653202D01*
X141775972Y-107507611D01*
X141729259Y-107420217D01*
X141706517Y-107386181D01*
X141641721Y-107289206D01*
X141641712Y-107289194D01*
X141641709Y-107289189D01*
X141578843Y-107212588D01*
X141467412Y-107101157D01*
X141390811Y-107038291D01*
X141390804Y-107038286D01*
X141390793Y-107038278D01*
X141259799Y-106950751D01*
X141259788Y-106950744D01*
X141259783Y-106950741D01*
X141195293Y-106916270D01*
X141145450Y-106867308D01*
X141129990Y-106799171D01*
X141153822Y-106733491D01*
X141201341Y-106694532D01*
X141252734Y-106670568D01*
X141439139Y-106540047D01*
X141600047Y-106379139D01*
X141730568Y-106192734D01*
X141826739Y-105986496D01*
X141885635Y-105766692D01*
X141900500Y-105596784D01*
X141900500Y-105483216D01*
X141885635Y-105313308D01*
X141840916Y-105146415D01*
X141826741Y-105093511D01*
X141826738Y-105093503D01*
X141730568Y-104887266D01*
X141600047Y-104700861D01*
X141600045Y-104700858D01*
X141439141Y-104539954D01*
X141252734Y-104409432D01*
X141252728Y-104409429D01*
X141194725Y-104382382D01*
X141142285Y-104336210D01*
X141123133Y-104269017D01*
X141143348Y-104202135D01*
X141194725Y-104157618D01*
X141252734Y-104130568D01*
X141439139Y-104000047D01*
X141600047Y-103839139D01*
X141730568Y-103652734D01*
X141826739Y-103446496D01*
X141885635Y-103226692D01*
X141900500Y-103056784D01*
X141900500Y-102943216D01*
X141885635Y-102773308D01*
X141840916Y-102606415D01*
X141826741Y-102553511D01*
X141826738Y-102553503D01*
X141730568Y-102347266D01*
X141600047Y-102160861D01*
X141600045Y-102160858D01*
X141439141Y-101999954D01*
X141252734Y-101869432D01*
X141252728Y-101869429D01*
X141194725Y-101842382D01*
X141142285Y-101796210D01*
X141123133Y-101729017D01*
X141143348Y-101662135D01*
X141194725Y-101617618D01*
X141252734Y-101590568D01*
X141439139Y-101460047D01*
X141600047Y-101299139D01*
X141730568Y-101112734D01*
X141826739Y-100906496D01*
X141885635Y-100686692D01*
X141900500Y-100516784D01*
X141900500Y-100403216D01*
X141885635Y-100233308D01*
X141837655Y-100054244D01*
X141826741Y-100013511D01*
X141826738Y-100013503D01*
X141730568Y-99807266D01*
X141600047Y-99620861D01*
X141600045Y-99620858D01*
X141439141Y-99459954D01*
X141252734Y-99329432D01*
X141252728Y-99329429D01*
X141194725Y-99302382D01*
X141142285Y-99256210D01*
X141123133Y-99189017D01*
X141143348Y-99122135D01*
X141194725Y-99077618D01*
X141252734Y-99050568D01*
X141439139Y-98920047D01*
X141600047Y-98759139D01*
X141730568Y-98572734D01*
X141826739Y-98366496D01*
X141885635Y-98146692D01*
X141900500Y-97976784D01*
X141900500Y-97863216D01*
X141885635Y-97693308D01*
X141840916Y-97526415D01*
X141826741Y-97473511D01*
X141826738Y-97473503D01*
X141730568Y-97267266D01*
X141600047Y-97080861D01*
X141600045Y-97080858D01*
X141439141Y-96919954D01*
X141252734Y-96789432D01*
X141252732Y-96789431D01*
X141201343Y-96765468D01*
X141148904Y-96719295D01*
X141129752Y-96652102D01*
X141149968Y-96585221D01*
X141195293Y-96543729D01*
X141259783Y-96509259D01*
X141390811Y-96421709D01*
X141467412Y-96358843D01*
X141578843Y-96247412D01*
X141641709Y-96170811D01*
X141729259Y-96039783D01*
X141775972Y-95952389D01*
X141836278Y-95806798D01*
X141865044Y-95711968D01*
X141895787Y-95557410D01*
X141905500Y-95458793D01*
X141905500Y-95301207D01*
X141895787Y-95202590D01*
X141865044Y-95048032D01*
X141836278Y-94953202D01*
X141775972Y-94807611D01*
X141729259Y-94720217D01*
X141706517Y-94686181D01*
X141641721Y-94589206D01*
X141641712Y-94589194D01*
X141641709Y-94589189D01*
X141578843Y-94512588D01*
X141467412Y-94401157D01*
X141390811Y-94338291D01*
X141390804Y-94338286D01*
X141390793Y-94338278D01*
X141259799Y-94250751D01*
X141259771Y-94250734D01*
X141194744Y-94215977D01*
X141144900Y-94167015D01*
X141129439Y-94098877D01*
X141153270Y-94033198D01*
X141200793Y-93994236D01*
X141252484Y-93970132D01*
X141438820Y-93839657D01*
X141599657Y-93678820D01*
X141730134Y-93492482D01*
X141826265Y-93286326D01*
X141826269Y-93286317D01*
X141878872Y-93090000D01*
X139433012Y-93090000D01*
X139465925Y-93032993D01*
X139500000Y-92905826D01*
X139500000Y-92774174D01*
X139465925Y-92647007D01*
X139433012Y-92590000D01*
X141878872Y-92590000D01*
X141878872Y-92589999D01*
X141826269Y-92393682D01*
X141826265Y-92393673D01*
X141730134Y-92187517D01*
X141599657Y-92001179D01*
X141438820Y-91840342D01*
X141252482Y-91709865D01*
X141194133Y-91682657D01*
X141141694Y-91636484D01*
X141122542Y-91569291D01*
X141142758Y-91502410D01*
X141194129Y-91457895D01*
X141252734Y-91430568D01*
X141439139Y-91300047D01*
X141600047Y-91139139D01*
X141730568Y-90952734D01*
X141826739Y-90746496D01*
X141885635Y-90526692D01*
X141900500Y-90356784D01*
X141900500Y-90243216D01*
X141885635Y-90073308D01*
X141826739Y-89853504D01*
X141730568Y-89647266D01*
X141600047Y-89460861D01*
X141600045Y-89460858D01*
X141439141Y-89299954D01*
X141252734Y-89169432D01*
X141252732Y-89169431D01*
X141046497Y-89073261D01*
X141046488Y-89073258D01*
X140826697Y-89014366D01*
X140826687Y-89014364D01*
X140656785Y-88999500D01*
X140656784Y-88999500D01*
X139102352Y-88999500D01*
X138897648Y-88999500D01*
X138897644Y-88999500D01*
X138845697Y-89007728D01*
X138845695Y-89007728D01*
X138841410Y-89008406D01*
X138773308Y-89014365D01*
X138729245Y-89026170D01*
X138722841Y-89027185D01*
X138722824Y-89027189D01*
X138695463Y-89031523D01*
X138695459Y-89031524D01*
X138633627Y-89051615D01*
X138627404Y-89053459D01*
X138553504Y-89073261D01*
X138553503Y-89073261D01*
X138529338Y-89084529D01*
X138529337Y-89084528D01*
X138522456Y-89087736D01*
X138500781Y-89094780D01*
X138429886Y-89130901D01*
X138427900Y-89131828D01*
X138427882Y-89131838D01*
X138347262Y-89169433D01*
X138335655Y-89177559D01*
X138335656Y-89177560D01*
X138328549Y-89182535D01*
X138318390Y-89187713D01*
X138244870Y-89241126D01*
X138243939Y-89241779D01*
X138160859Y-89299954D01*
X137999954Y-89460859D01*
X137941781Y-89543934D01*
X137941782Y-89543935D01*
X137941132Y-89544863D01*
X137887713Y-89618390D01*
X137882535Y-89628550D01*
X137877560Y-89635656D01*
X137877558Y-89635656D01*
X137869433Y-89647262D01*
X137831838Y-89727882D01*
X137830920Y-89729849D01*
X137794780Y-89800781D01*
X137787735Y-89822458D01*
X137784532Y-89829329D01*
X137784529Y-89829338D01*
X137773261Y-89853503D01*
X137773261Y-89853504D01*
X137753459Y-89927404D01*
X137753458Y-89927403D01*
X137752614Y-89930551D01*
X137731523Y-89995466D01*
X137726175Y-90029224D01*
X137724492Y-90035507D01*
X137724492Y-90035511D01*
X137714366Y-90073304D01*
X137714364Y-90073313D01*
X137708783Y-90137106D01*
X137707942Y-90143954D01*
X137707941Y-90144301D01*
X137707837Y-90145007D01*
X137699500Y-90197648D01*
X137699500Y-90402352D01*
X137708406Y-90458582D01*
X137714365Y-90526692D01*
X137726171Y-90570756D01*
X137727188Y-90577175D01*
X137727190Y-90577181D01*
X137731521Y-90604525D01*
X137731522Y-90604530D01*
X137751617Y-90666378D01*
X137753460Y-90672600D01*
X137773260Y-90746494D01*
X137784529Y-90770662D01*
X137785231Y-90772167D01*
X137787733Y-90777532D01*
X137794780Y-90799219D01*
X137830930Y-90870169D01*
X137831844Y-90872128D01*
X137869432Y-90952734D01*
X137877562Y-90964346D01*
X137882535Y-90971448D01*
X137887713Y-90981610D01*
X137941164Y-91055180D01*
X137941793Y-91056078D01*
X137999953Y-91139140D01*
X138160858Y-91300045D01*
X138160861Y-91300047D01*
X138244800Y-91358821D01*
X138318390Y-91412287D01*
X138328547Y-91417462D01*
X138335648Y-91422434D01*
X138335652Y-91422436D01*
X138347266Y-91430568D01*
X138347270Y-91430570D01*
X138405864Y-91457893D01*
X138416528Y-91467282D01*
X138429741Y-91472514D01*
X138442229Y-91489912D01*
X138458304Y-91504065D01*
X138462199Y-91517731D01*
X138470485Y-91529274D01*
X138471585Y-91550661D01*
X138477456Y-91571258D01*
X138473344Y-91584859D01*
X138474075Y-91599052D01*
X138463436Y-91617640D01*
X138457241Y-91638139D01*
X138445753Y-91648538D01*
X138439370Y-91659693D01*
X138414925Y-91676446D01*
X138410698Y-91680274D01*
X138322032Y-91726411D01*
X138321832Y-91726450D01*
X138321094Y-91726894D01*
X138318657Y-91728135D01*
X138318656Y-91728136D01*
X138274077Y-91760523D01*
X138274077Y-91760524D01*
X138870591Y-92357037D01*
X138807007Y-92374075D01*
X138692993Y-92439901D01*
X138599901Y-92532993D01*
X138534075Y-92647007D01*
X138500000Y-92774174D01*
X138500000Y-92905826D01*
X138534075Y-93032993D01*
X138599901Y-93147007D01*
X138692993Y-93240099D01*
X138807007Y-93305925D01*
X138870589Y-93322962D01*
X138274076Y-93919474D01*
X138278562Y-93976463D01*
X138275293Y-93976720D01*
X138278341Y-94012159D01*
X138245741Y-94073958D01*
X138187476Y-94107694D01*
X138166773Y-94112978D01*
X138166766Y-94112980D01*
X138093280Y-94143419D01*
X138093252Y-94143431D01*
X138044451Y-94166779D01*
X138044446Y-94166782D01*
X137929268Y-94253005D01*
X137929256Y-94253015D01*
X137873019Y-94309252D01*
X137836843Y-94349524D01*
X137836837Y-94349532D01*
X137763426Y-94473263D01*
X137732978Y-94546774D01*
X137732970Y-94546795D01*
X137714976Y-94597800D01*
X137702269Y-94686181D01*
X137694501Y-94740215D01*
X137694500Y-94740219D01*
X137694500Y-96019784D01*
X137697395Y-96073814D01*
X137697396Y-96073818D01*
X137732976Y-96213221D01*
X137732980Y-96213233D01*
X137763419Y-96286719D01*
X137763431Y-96286747D01*
X137786779Y-96335548D01*
X137786781Y-96335551D01*
X137873006Y-96450733D01*
X137873010Y-96450737D01*
X137873015Y-96450743D01*
X137929252Y-96506980D01*
X137929261Y-96506988D01*
X137929267Y-96506994D01*
X137969524Y-96543156D01*
X137969532Y-96543162D01*
X138093263Y-96616573D01*
X138093262Y-96616573D01*
X138093279Y-96616580D01*
X138166774Y-96647022D01*
X138180961Y-96652027D01*
X138194660Y-96656860D01*
X138251332Y-96697726D01*
X138276913Y-96762745D01*
X138263281Y-96831272D01*
X138224531Y-96875370D01*
X138160858Y-96919955D01*
X137999954Y-97080859D01*
X137941781Y-97163934D01*
X137941782Y-97163935D01*
X137941132Y-97164863D01*
X137887713Y-97238390D01*
X137882535Y-97248550D01*
X137877560Y-97255656D01*
X137877558Y-97255656D01*
X137869433Y-97267262D01*
X137831838Y-97347882D01*
X137830920Y-97349849D01*
X137794780Y-97420781D01*
X137787735Y-97442458D01*
X137784532Y-97449329D01*
X137784529Y-97449338D01*
X137773261Y-97473503D01*
X137773261Y-97473504D01*
X137753459Y-97547404D01*
X137753458Y-97547403D01*
X137752614Y-97550551D01*
X137731523Y-97615466D01*
X137726175Y-97649224D01*
X137724492Y-97655507D01*
X137724492Y-97655511D01*
X137714366Y-97693304D01*
X137714364Y-97693313D01*
X137708783Y-97757106D01*
X137707728Y-97765697D01*
X137699500Y-97817643D01*
X137699500Y-97817648D01*
X137699500Y-98022352D01*
X137708406Y-98078582D01*
X137714365Y-98146692D01*
X137726171Y-98190756D01*
X137727188Y-98197175D01*
X137727190Y-98197181D01*
X137731521Y-98224525D01*
X137731522Y-98224530D01*
X137751617Y-98286378D01*
X137753460Y-98292600D01*
X137773260Y-98366494D01*
X137784529Y-98390662D01*
X137787733Y-98397532D01*
X137794780Y-98419219D01*
X137830930Y-98490169D01*
X137831844Y-98492128D01*
X137869432Y-98572734D01*
X137877562Y-98584346D01*
X137882535Y-98591448D01*
X137887713Y-98601610D01*
X137941164Y-98675180D01*
X137941793Y-98676078D01*
X137999953Y-98759140D01*
X138160858Y-98920045D01*
X138160861Y-98920047D01*
X138244800Y-98978821D01*
X138318390Y-99032287D01*
X138328547Y-99037462D01*
X138335648Y-99042434D01*
X138335652Y-99042436D01*
X138347266Y-99050568D01*
X138347270Y-99050570D01*
X138405272Y-99077617D01*
X138415927Y-99086999D01*
X138429131Y-99092224D01*
X138441629Y-99109629D01*
X138457712Y-99123789D01*
X138461604Y-99137444D01*
X138469886Y-99148977D01*
X138470990Y-99170375D01*
X138476864Y-99190982D01*
X138472755Y-99204573D01*
X138473488Y-99218754D01*
X138462848Y-99237352D01*
X138456649Y-99257864D01*
X138445167Y-99268259D01*
X138438794Y-99279401D01*
X138414369Y-99296145D01*
X138410126Y-99299988D01*
X138407711Y-99301244D01*
X138347266Y-99329432D01*
X138329002Y-99342219D01*
X138321792Y-99345973D01*
X138321591Y-99346012D01*
X138320847Y-99346460D01*
X138318397Y-99347708D01*
X138318394Y-99347710D01*
X138245696Y-99400526D01*
X138243939Y-99401779D01*
X138160859Y-99459954D01*
X137999954Y-99620859D01*
X137941781Y-99703934D01*
X137941782Y-99703935D01*
X137941132Y-99704863D01*
X137887713Y-99778390D01*
X137882535Y-99788550D01*
X137877560Y-99795656D01*
X137877558Y-99795656D01*
X137869433Y-99807262D01*
X137831838Y-99887882D01*
X137830920Y-99889849D01*
X137794780Y-99960781D01*
X137787735Y-99982458D01*
X137784532Y-99989329D01*
X137784529Y-99989338D01*
X137773261Y-100013503D01*
X137773261Y-100013504D01*
X137753459Y-100087404D01*
X137753458Y-100087403D01*
X137752614Y-100090551D01*
X137731523Y-100155466D01*
X137726175Y-100189224D01*
X137724492Y-100195507D01*
X137724492Y-100195511D01*
X137714366Y-100233304D01*
X137714364Y-100233313D01*
X137708783Y-100297106D01*
X137707728Y-100305697D01*
X137699500Y-100357643D01*
X137699500Y-100357648D01*
X137699500Y-100562352D01*
X137708406Y-100618582D01*
X137714365Y-100686692D01*
X137726171Y-100730756D01*
X137727188Y-100737175D01*
X137727190Y-100737181D01*
X137731521Y-100764525D01*
X137731522Y-100764530D01*
X137731523Y-100764534D01*
X137737376Y-100782547D01*
X137751617Y-100826378D01*
X137753460Y-100832600D01*
X137773260Y-100906494D01*
X137784529Y-100930662D01*
X137787733Y-100937532D01*
X137794780Y-100959219D01*
X137830930Y-101030169D01*
X137831844Y-101032128D01*
X137869432Y-101112734D01*
X137877562Y-101124346D01*
X137882535Y-101131448D01*
X137887713Y-101141610D01*
X137941164Y-101215180D01*
X137941793Y-101216078D01*
X137999953Y-101299140D01*
X138160858Y-101460045D01*
X138160861Y-101460047D01*
X138244800Y-101518821D01*
X138318390Y-101572287D01*
X138328547Y-101577462D01*
X138335648Y-101582434D01*
X138335652Y-101582436D01*
X138347266Y-101590568D01*
X138347270Y-101590570D01*
X138405272Y-101617617D01*
X138415927Y-101626999D01*
X138429131Y-101632224D01*
X138441629Y-101649629D01*
X138457712Y-101663789D01*
X138461604Y-101677444D01*
X138469886Y-101688977D01*
X138470990Y-101710375D01*
X138476864Y-101730982D01*
X138472755Y-101744573D01*
X138473488Y-101758754D01*
X138462848Y-101777352D01*
X138456649Y-101797864D01*
X138445167Y-101808259D01*
X138438794Y-101819401D01*
X138414369Y-101836145D01*
X138410126Y-101839988D01*
X138407711Y-101841244D01*
X138347266Y-101869432D01*
X138329002Y-101882219D01*
X138321792Y-101885973D01*
X138321591Y-101886012D01*
X138320847Y-101886460D01*
X138318397Y-101887708D01*
X138318394Y-101887710D01*
X138245696Y-101940526D01*
X138243939Y-101941779D01*
X138160859Y-101999954D01*
X137999954Y-102160859D01*
X137941781Y-102243934D01*
X137941782Y-102243935D01*
X137941132Y-102244863D01*
X137887713Y-102318390D01*
X137882535Y-102328550D01*
X137877560Y-102335656D01*
X137877558Y-102335656D01*
X137869433Y-102347262D01*
X137831838Y-102427882D01*
X137830920Y-102429849D01*
X137794780Y-102500781D01*
X137787735Y-102522458D01*
X137784532Y-102529329D01*
X137784529Y-102529338D01*
X137773261Y-102553503D01*
X137773261Y-102553504D01*
X137753459Y-102627404D01*
X137753458Y-102627403D01*
X137752614Y-102630551D01*
X137731523Y-102695466D01*
X137726175Y-102729224D01*
X137724492Y-102735507D01*
X137724492Y-102735511D01*
X137714366Y-102773304D01*
X137714364Y-102773313D01*
X137708783Y-102837106D01*
X137707728Y-102845697D01*
X137699500Y-102897643D01*
X137699500Y-102897648D01*
X137699500Y-103102352D01*
X137708406Y-103158582D01*
X137714365Y-103226692D01*
X137726171Y-103270756D01*
X137727188Y-103277175D01*
X137727190Y-103277181D01*
X137731521Y-103304525D01*
X137731522Y-103304530D01*
X137751617Y-103366378D01*
X137753460Y-103372600D01*
X137773260Y-103446494D01*
X137784529Y-103470662D01*
X137787733Y-103477532D01*
X137794780Y-103499219D01*
X137830930Y-103570169D01*
X137831844Y-103572128D01*
X137869432Y-103652734D01*
X137877562Y-103664346D01*
X137882535Y-103671448D01*
X137887713Y-103681610D01*
X137941164Y-103755180D01*
X137941793Y-103756078D01*
X137999953Y-103839140D01*
X138160858Y-104000045D01*
X138160861Y-104000047D01*
X138244800Y-104058821D01*
X138318390Y-104112287D01*
X138328547Y-104117462D01*
X138335648Y-104122434D01*
X138335652Y-104122436D01*
X138347266Y-104130568D01*
X138347270Y-104130570D01*
X138405272Y-104157617D01*
X138415927Y-104166999D01*
X138429131Y-104172224D01*
X138441629Y-104189629D01*
X138457712Y-104203789D01*
X138461604Y-104217444D01*
X138469886Y-104228977D01*
X138470990Y-104250375D01*
X138476864Y-104270982D01*
X138472755Y-104284573D01*
X138473488Y-104298754D01*
X138462848Y-104317352D01*
X138456649Y-104337864D01*
X138445167Y-104348259D01*
X138438794Y-104359401D01*
X138414369Y-104376145D01*
X138410126Y-104379988D01*
X138407711Y-104381244D01*
X138347266Y-104409432D01*
X138329002Y-104422219D01*
X138321792Y-104425973D01*
X138321591Y-104426012D01*
X138320847Y-104426460D01*
X138318397Y-104427708D01*
X138318394Y-104427710D01*
X138245696Y-104480526D01*
X138243939Y-104481779D01*
X138160859Y-104539954D01*
X137999954Y-104700859D01*
X137941781Y-104783934D01*
X137941782Y-104783935D01*
X137941132Y-104784863D01*
X137887713Y-104858390D01*
X137882535Y-104868550D01*
X137877560Y-104875656D01*
X137877558Y-104875656D01*
X137869433Y-104887262D01*
X137831838Y-104967882D01*
X137830920Y-104969849D01*
X137794780Y-105040781D01*
X137787735Y-105062458D01*
X137784532Y-105069329D01*
X137784529Y-105069338D01*
X137773261Y-105093503D01*
X137773261Y-105093504D01*
X137753459Y-105167404D01*
X137753458Y-105167403D01*
X137752614Y-105170551D01*
X137731523Y-105235466D01*
X137726175Y-105269224D01*
X137724492Y-105275507D01*
X137724492Y-105275511D01*
X137714366Y-105313304D01*
X137714364Y-105313313D01*
X137708783Y-105377106D01*
X137707728Y-105385697D01*
X137699500Y-105437643D01*
X137699500Y-105437648D01*
X137699500Y-105642352D01*
X137708406Y-105698582D01*
X137714365Y-105766692D01*
X137726171Y-105810756D01*
X137727188Y-105817175D01*
X137727190Y-105817181D01*
X137731521Y-105844525D01*
X137731522Y-105844530D01*
X137751617Y-105906378D01*
X137753460Y-105912600D01*
X137773260Y-105986494D01*
X137784529Y-106010662D01*
X137787733Y-106017532D01*
X137794780Y-106039219D01*
X137830930Y-106110169D01*
X137831844Y-106112128D01*
X137869432Y-106192734D01*
X137877562Y-106204346D01*
X137882535Y-106211448D01*
X137887713Y-106221610D01*
X137941164Y-106295180D01*
X137941793Y-106296078D01*
X137999953Y-106379140D01*
X138160857Y-106540044D01*
X138160860Y-106540046D01*
X138160861Y-106540047D01*
X138226843Y-106586248D01*
X138270469Y-106640824D01*
X138277663Y-106710322D01*
X138246141Y-106772677D01*
X138186391Y-106807970D01*
X138166780Y-106812975D01*
X138166766Y-106812980D01*
X138093280Y-106843419D01*
X138093252Y-106843431D01*
X138044451Y-106866779D01*
X138044446Y-106866782D01*
X137929268Y-106953005D01*
X137929256Y-106953015D01*
X137873019Y-107009252D01*
X137836843Y-107049524D01*
X137836837Y-107049532D01*
X137763426Y-107173263D01*
X137732978Y-107246774D01*
X137732970Y-107246795D01*
X137714976Y-107297800D01*
X137714976Y-107297802D01*
X137694501Y-107440215D01*
X137694500Y-107440219D01*
X137694500Y-108719784D01*
X137697395Y-108773814D01*
X137697396Y-108773818D01*
X137732976Y-108913221D01*
X137732980Y-108913233D01*
X137763419Y-108986719D01*
X137763431Y-108986747D01*
X137786779Y-109035548D01*
X137786781Y-109035551D01*
X137873006Y-109150733D01*
X137873010Y-109150737D01*
X137873015Y-109150743D01*
X137929252Y-109206980D01*
X137929261Y-109206988D01*
X137929267Y-109206994D01*
X137969524Y-109243156D01*
X137969532Y-109243162D01*
X138093263Y-109316573D01*
X138093262Y-109316573D01*
X138093279Y-109316580D01*
X138166774Y-109347022D01*
X138180961Y-109352027D01*
X138194660Y-109356860D01*
X138251332Y-109397726D01*
X138276913Y-109462745D01*
X138263281Y-109531272D01*
X138224531Y-109575370D01*
X138160858Y-109619955D01*
X137999954Y-109780859D01*
X137941781Y-109863934D01*
X137941782Y-109863935D01*
X137941132Y-109864863D01*
X137887713Y-109938390D01*
X137882535Y-109948550D01*
X137877560Y-109955656D01*
X137877558Y-109955656D01*
X137869433Y-109967262D01*
X137831838Y-110047882D01*
X137830920Y-110049849D01*
X137794780Y-110120781D01*
X137787735Y-110142458D01*
X137784532Y-110149329D01*
X137784529Y-110149338D01*
X137773261Y-110173503D01*
X137773261Y-110173504D01*
X137753459Y-110247404D01*
X137753458Y-110247403D01*
X137752614Y-110250551D01*
X137731523Y-110315466D01*
X137726175Y-110349224D01*
X137724492Y-110355507D01*
X137724492Y-110355511D01*
X137714366Y-110393304D01*
X137714364Y-110393313D01*
X137708783Y-110457106D01*
X137707728Y-110465697D01*
X137699500Y-110517643D01*
X137699500Y-110517648D01*
X137699500Y-110722352D01*
X137708406Y-110778582D01*
X137714365Y-110846692D01*
X137726171Y-110890756D01*
X137727188Y-110897175D01*
X137727190Y-110897181D01*
X137731521Y-110924525D01*
X137731522Y-110924530D01*
X137751617Y-110986378D01*
X137753460Y-110992600D01*
X137773260Y-111066494D01*
X137784529Y-111090662D01*
X137787733Y-111097532D01*
X137794780Y-111119219D01*
X137830930Y-111190169D01*
X137831844Y-111192128D01*
X137869432Y-111272734D01*
X137877562Y-111284346D01*
X137882535Y-111291448D01*
X137887713Y-111301610D01*
X137941164Y-111375180D01*
X137941793Y-111376078D01*
X137999953Y-111459140D01*
X138160858Y-111620045D01*
X138160861Y-111620047D01*
X138244800Y-111678821D01*
X138318390Y-111732287D01*
X138328547Y-111737462D01*
X138335648Y-111742434D01*
X138335652Y-111742436D01*
X138347266Y-111750568D01*
X138347270Y-111750570D01*
X138405272Y-111777617D01*
X138415927Y-111786999D01*
X138429131Y-111792224D01*
X138441629Y-111809629D01*
X138457712Y-111823789D01*
X138461604Y-111837444D01*
X138469886Y-111848977D01*
X138470990Y-111870375D01*
X138476864Y-111890982D01*
X138472755Y-111904573D01*
X138473488Y-111918754D01*
X138462848Y-111937352D01*
X138456649Y-111957864D01*
X138445167Y-111968259D01*
X138438794Y-111979401D01*
X138414369Y-111996145D01*
X138410126Y-111999988D01*
X138407711Y-112001244D01*
X138347266Y-112029432D01*
X138329002Y-112042219D01*
X138321792Y-112045973D01*
X138321591Y-112046012D01*
X138320847Y-112046460D01*
X138318397Y-112047708D01*
X138318394Y-112047710D01*
X138245696Y-112100526D01*
X138243939Y-112101779D01*
X138160859Y-112159954D01*
X137999954Y-112320859D01*
X137941781Y-112403934D01*
X137941782Y-112403935D01*
X137941132Y-112404863D01*
X137887713Y-112478390D01*
X137882535Y-112488550D01*
X137877560Y-112495656D01*
X137877558Y-112495656D01*
X137869433Y-112507262D01*
X137831838Y-112587882D01*
X137830920Y-112589849D01*
X137794780Y-112660781D01*
X137787735Y-112682458D01*
X137784532Y-112689329D01*
X137784529Y-112689338D01*
X137773261Y-112713503D01*
X137773261Y-112713504D01*
X137753459Y-112787404D01*
X137753458Y-112787403D01*
X137752614Y-112790551D01*
X137731523Y-112855466D01*
X137726175Y-112889224D01*
X137724492Y-112895507D01*
X137724492Y-112895511D01*
X137714366Y-112933304D01*
X137714364Y-112933313D01*
X137708783Y-112997106D01*
X137707728Y-113005697D01*
X137699500Y-113057643D01*
X137699500Y-113057648D01*
X137699500Y-113262352D01*
X137708406Y-113318582D01*
X137714365Y-113386692D01*
X137726171Y-113430756D01*
X137727188Y-113437175D01*
X137727190Y-113437181D01*
X137731521Y-113464525D01*
X137731522Y-113464530D01*
X137751617Y-113526378D01*
X137753460Y-113532600D01*
X137773260Y-113606494D01*
X137784529Y-113630662D01*
X137787733Y-113637532D01*
X137794780Y-113659219D01*
X137830930Y-113730169D01*
X137831844Y-113732128D01*
X137869432Y-113812734D01*
X137877562Y-113824346D01*
X137882535Y-113831448D01*
X137887713Y-113841610D01*
X137941164Y-113915180D01*
X137941793Y-113916078D01*
X137999953Y-113999140D01*
X138160858Y-114160045D01*
X138160861Y-114160047D01*
X138244800Y-114218821D01*
X138318390Y-114272287D01*
X138328547Y-114277462D01*
X138335648Y-114282434D01*
X138335652Y-114282436D01*
X138347266Y-114290568D01*
X138347270Y-114290570D01*
X138405272Y-114317617D01*
X138415927Y-114326999D01*
X138429131Y-114332224D01*
X138441629Y-114349629D01*
X138457712Y-114363789D01*
X138461604Y-114377444D01*
X138469886Y-114388977D01*
X138470990Y-114410375D01*
X138476864Y-114430982D01*
X138472755Y-114444573D01*
X138473488Y-114458754D01*
X138462848Y-114477352D01*
X138456649Y-114497864D01*
X138445167Y-114508259D01*
X138438794Y-114519401D01*
X138414369Y-114536145D01*
X138410126Y-114539988D01*
X138407711Y-114541244D01*
X138347266Y-114569432D01*
X138329002Y-114582219D01*
X138321792Y-114585973D01*
X138321591Y-114586012D01*
X138320847Y-114586460D01*
X138318397Y-114587708D01*
X138318394Y-114587710D01*
X138245696Y-114640526D01*
X138243939Y-114641779D01*
X138160859Y-114699954D01*
X137999954Y-114860859D01*
X137941781Y-114943934D01*
X137941782Y-114943935D01*
X137941132Y-114944863D01*
X137887713Y-115018390D01*
X137882535Y-115028550D01*
X137877560Y-115035656D01*
X137877558Y-115035656D01*
X137869433Y-115047262D01*
X137831838Y-115127882D01*
X137830920Y-115129849D01*
X137794780Y-115200781D01*
X137787735Y-115222458D01*
X137784532Y-115229329D01*
X137784529Y-115229338D01*
X137773261Y-115253503D01*
X137773261Y-115253504D01*
X137753459Y-115327404D01*
X137753458Y-115327403D01*
X137752614Y-115330551D01*
X137731523Y-115395466D01*
X137726175Y-115429224D01*
X137724492Y-115435507D01*
X137724492Y-115435511D01*
X137714366Y-115473304D01*
X137714364Y-115473313D01*
X137708783Y-115537106D01*
X137707728Y-115545697D01*
X137699500Y-115597643D01*
X137699500Y-115597648D01*
X137699500Y-115802352D01*
X137708406Y-115858582D01*
X137714365Y-115926692D01*
X137726171Y-115970756D01*
X137727188Y-115977175D01*
X137727190Y-115977181D01*
X137731521Y-116004525D01*
X137731522Y-116004530D01*
X137751617Y-116066378D01*
X137753460Y-116072600D01*
X137773260Y-116146494D01*
X137784529Y-116170662D01*
X137787733Y-116177532D01*
X137794780Y-116199219D01*
X137830930Y-116270169D01*
X137831844Y-116272128D01*
X137869432Y-116352734D01*
X137877562Y-116364346D01*
X137882535Y-116371448D01*
X137887713Y-116381610D01*
X137941164Y-116455180D01*
X137941793Y-116456078D01*
X137999953Y-116539140D01*
X138160858Y-116700045D01*
X138160861Y-116700047D01*
X138244800Y-116758821D01*
X138318390Y-116812287D01*
X138328547Y-116817462D01*
X138335648Y-116822434D01*
X138335652Y-116822436D01*
X138347266Y-116830568D01*
X138347270Y-116830570D01*
X138405272Y-116857617D01*
X138415927Y-116866999D01*
X138429131Y-116872224D01*
X138441629Y-116889629D01*
X138457712Y-116903789D01*
X138461604Y-116917444D01*
X138469886Y-116928977D01*
X138470990Y-116950375D01*
X138476864Y-116970982D01*
X138472755Y-116984573D01*
X138473488Y-116998754D01*
X138462848Y-117017352D01*
X138456649Y-117037864D01*
X138445167Y-117048259D01*
X138438794Y-117059401D01*
X138414369Y-117076145D01*
X138410126Y-117079988D01*
X138407711Y-117081244D01*
X138347266Y-117109432D01*
X138329002Y-117122219D01*
X138321792Y-117125973D01*
X138321591Y-117126012D01*
X138320847Y-117126460D01*
X138318397Y-117127708D01*
X138318394Y-117127710D01*
X138245696Y-117180526D01*
X138243939Y-117181779D01*
X138160859Y-117239954D01*
X137999954Y-117400859D01*
X137941781Y-117483934D01*
X137941782Y-117483935D01*
X137941132Y-117484863D01*
X137887713Y-117558390D01*
X137882535Y-117568550D01*
X137877560Y-117575656D01*
X137877558Y-117575656D01*
X137869433Y-117587262D01*
X137831838Y-117667882D01*
X137830920Y-117669849D01*
X137794780Y-117740781D01*
X137787735Y-117762458D01*
X137784532Y-117769329D01*
X137784529Y-117769338D01*
X137773261Y-117793503D01*
X137773261Y-117793504D01*
X137753459Y-117867404D01*
X137753458Y-117867403D01*
X137752614Y-117870551D01*
X137731523Y-117935466D01*
X137726175Y-117969224D01*
X137724492Y-117975507D01*
X137724492Y-117975511D01*
X137714366Y-118013304D01*
X137714364Y-118013313D01*
X137708783Y-118077106D01*
X137707728Y-118085697D01*
X137699500Y-118137643D01*
X137699500Y-118342352D01*
X137699499Y-118342352D01*
X137707728Y-118394304D01*
X137708783Y-118402890D01*
X137709130Y-118406855D01*
X137695365Y-118475356D01*
X137673283Y-118505347D01*
X131166048Y-125012583D01*
X131142062Y-125048481D01*
X131118236Y-125084142D01*
X131083914Y-125135507D01*
X131083913Y-125135509D01*
X131027343Y-125272082D01*
X131027340Y-125272092D01*
X130998500Y-125417079D01*
X130998500Y-131167452D01*
X130996117Y-131191644D01*
X130994500Y-131199772D01*
X130994500Y-138412769D01*
X130974815Y-138479808D01*
X130958181Y-138500450D01*
X120554635Y-148903995D01*
X120493312Y-148937480D01*
X120423620Y-148932496D01*
X120367687Y-148890624D01*
X120344481Y-148835712D01*
X120329901Y-148743656D01*
X120317246Y-148663757D01*
X120251557Y-148461588D01*
X120155051Y-148272184D01*
X120155049Y-148272181D01*
X120155048Y-148272179D01*
X120030109Y-148100213D01*
X119879786Y-147949890D01*
X119707820Y-147824951D01*
X119707115Y-147824591D01*
X119699054Y-147820485D01*
X119648259Y-147772512D01*
X119631463Y-147704692D01*
X119653999Y-147638556D01*
X119699054Y-147599515D01*
X119707816Y-147595051D01*
X119729789Y-147579086D01*
X119879786Y-147470109D01*
X119879788Y-147470106D01*
X119879792Y-147470104D01*
X120030104Y-147319792D01*
X120030106Y-147319788D01*
X120030109Y-147319786D01*
X120155048Y-147147820D01*
X120155047Y-147147820D01*
X120155051Y-147147816D01*
X120251557Y-146958412D01*
X120317246Y-146756243D01*
X120350500Y-146546287D01*
X120350500Y-146333713D01*
X120335382Y-146238268D01*
X120344336Y-146168979D01*
X120370171Y-146131195D01*
X121802951Y-144698416D01*
X121885084Y-144575495D01*
X121941658Y-144438913D01*
X121970500Y-144293918D01*
X121970500Y-139686662D01*
X121990185Y-139619623D01*
X122023379Y-139585086D01*
X122059140Y-139560046D01*
X122220044Y-139399142D01*
X122220045Y-139399141D01*
X122220047Y-139399139D01*
X122278821Y-139315199D01*
X122332287Y-139241610D01*
X122337465Y-139231446D01*
X122350568Y-139212734D01*
X122389067Y-139130172D01*
X122425220Y-139059219D01*
X122432266Y-139037532D01*
X122446739Y-139006496D01*
X122446742Y-139006488D01*
X122466534Y-138932617D01*
X122467377Y-138929471D01*
X122488477Y-138864534D01*
X122493825Y-138830766D01*
X122505635Y-138786692D01*
X122511216Y-138722891D01*
X122512270Y-138714306D01*
X122520500Y-138662350D01*
X122520500Y-138457649D01*
X122512270Y-138405691D01*
X122512270Y-138405690D01*
X122511592Y-138401414D01*
X122505635Y-138333308D01*
X122493825Y-138289233D01*
X122488477Y-138255466D01*
X122468378Y-138193609D01*
X122466535Y-138187386D01*
X122446742Y-138113513D01*
X122446740Y-138113510D01*
X122446739Y-138113504D01*
X122432266Y-138082467D01*
X122425220Y-138060781D01*
X122389067Y-137989827D01*
X122350568Y-137907266D01*
X122342436Y-137895652D01*
X122342436Y-137895651D01*
X122337462Y-137888548D01*
X122332287Y-137878390D01*
X122278821Y-137804800D01*
X122270853Y-137793421D01*
X122220045Y-137720858D01*
X122059140Y-137559953D01*
X121976078Y-137501793D01*
X121975180Y-137501164D01*
X121901610Y-137447713D01*
X121891448Y-137442535D01*
X121884346Y-137437562D01*
X121872736Y-137429433D01*
X121872727Y-137429429D01*
X121814723Y-137402380D01*
X121804066Y-137392996D01*
X121790866Y-137387773D01*
X121778368Y-137370369D01*
X121762285Y-137356208D01*
X121758393Y-137342552D01*
X121750112Y-137331021D01*
X121749007Y-137309621D01*
X121743134Y-137289014D01*
X121747241Y-137275423D01*
X121746510Y-137261244D01*
X121757149Y-137242644D01*
X121763350Y-137222133D01*
X121774830Y-137211737D01*
X121781204Y-137200597D01*
X121805623Y-137183856D01*
X121809872Y-137180010D01*
X121812252Y-137178770D01*
X121872734Y-137150568D01*
X121891002Y-137137775D01*
X121898207Y-137134025D01*
X121898416Y-137133983D01*
X121899180Y-137133524D01*
X121901610Y-137132287D01*
X121974358Y-137079432D01*
X121976047Y-137078227D01*
X122059139Y-137020047D01*
X122220047Y-136859139D01*
X122278821Y-136775199D01*
X122332287Y-136701610D01*
X122337465Y-136691446D01*
X122350568Y-136672734D01*
X122389067Y-136590172D01*
X122425220Y-136519219D01*
X122432266Y-136497532D01*
X122446739Y-136466496D01*
X122446742Y-136466488D01*
X122466534Y-136392617D01*
X122467377Y-136389471D01*
X122488477Y-136324534D01*
X122493825Y-136290766D01*
X122505635Y-136246692D01*
X122511216Y-136182890D01*
X122512270Y-136174306D01*
X122512271Y-136174304D01*
X122520500Y-136122352D01*
X122520500Y-135917648D01*
X122511593Y-135861417D01*
X122505635Y-135793308D01*
X122493825Y-135749233D01*
X122488477Y-135715466D01*
X122468378Y-135653609D01*
X122466535Y-135647386D01*
X122446742Y-135573513D01*
X122446740Y-135573510D01*
X122446739Y-135573504D01*
X122432266Y-135542467D01*
X122425220Y-135520781D01*
X122389067Y-135449827D01*
X122350568Y-135367266D01*
X122342436Y-135355652D01*
X122342436Y-135355651D01*
X122337462Y-135348548D01*
X122332287Y-135338390D01*
X122278821Y-135264800D01*
X122278215Y-135263935D01*
X122278205Y-135263920D01*
X122220045Y-135180858D01*
X122059141Y-135019954D01*
X121993155Y-134973751D01*
X121949530Y-134919175D01*
X121942336Y-134849677D01*
X121973858Y-134787322D01*
X122033612Y-134752028D01*
X122053226Y-134747022D01*
X122126735Y-134716574D01*
X122175551Y-134693219D01*
X122290733Y-134606994D01*
X122346994Y-134550733D01*
X122383157Y-134510475D01*
X122456574Y-134386735D01*
X122487022Y-134313226D01*
X122505024Y-134262198D01*
X122525500Y-134119782D01*
X122525500Y-132840218D01*
X122522859Y-132790952D01*
X122522604Y-132786185D01*
X122522603Y-132786181D01*
X122489707Y-132657292D01*
X122487022Y-132646774D01*
X122456574Y-132573265D01*
X122455512Y-132571046D01*
X122433220Y-132524451D01*
X122433217Y-132524446D01*
X122401771Y-132482440D01*
X122346994Y-132409267D01*
X122346989Y-132409262D01*
X122346984Y-132409256D01*
X122290747Y-132353019D01*
X122288222Y-132350751D01*
X122250475Y-132316843D01*
X122250467Y-132316837D01*
X122126736Y-132243426D01*
X122126737Y-132243426D01*
X122058001Y-132214956D01*
X122053226Y-132212978D01*
X122038821Y-132207896D01*
X122025337Y-132203139D01*
X121968666Y-132162272D01*
X121943085Y-132097253D01*
X121956717Y-132028726D01*
X121995469Y-131984628D01*
X122059139Y-131940047D01*
X122220047Y-131779139D01*
X122278821Y-131695199D01*
X122332287Y-131621610D01*
X122337465Y-131611446D01*
X122350568Y-131592734D01*
X122389067Y-131510172D01*
X122425220Y-131439219D01*
X122432266Y-131417532D01*
X122446739Y-131386496D01*
X122446742Y-131386488D01*
X122466534Y-131312617D01*
X122467377Y-131309471D01*
X122488477Y-131244534D01*
X122493825Y-131210766D01*
X122505635Y-131166692D01*
X122511215Y-131102892D01*
X122512270Y-131094306D01*
X122520500Y-131042350D01*
X122520500Y-130837649D01*
X122512270Y-130785691D01*
X122512270Y-130785690D01*
X122511592Y-130781414D01*
X122505635Y-130713308D01*
X122493825Y-130669233D01*
X122488477Y-130635466D01*
X122468378Y-130573609D01*
X122466535Y-130567386D01*
X122446742Y-130493513D01*
X122446740Y-130493510D01*
X122446739Y-130493504D01*
X122432266Y-130462467D01*
X122425220Y-130440781D01*
X122389067Y-130369827D01*
X122350568Y-130287266D01*
X122342436Y-130275652D01*
X122342436Y-130275651D01*
X122337462Y-130268548D01*
X122332287Y-130258390D01*
X122278821Y-130184800D01*
X122220047Y-130100861D01*
X122220045Y-130100858D01*
X122059140Y-129939953D01*
X121976078Y-129881793D01*
X121975180Y-129881164D01*
X121901610Y-129827713D01*
X121891448Y-129822535D01*
X121884346Y-129817562D01*
X121872736Y-129809433D01*
X121872727Y-129809429D01*
X121814723Y-129782380D01*
X121804066Y-129772996D01*
X121790866Y-129767773D01*
X121778368Y-129750369D01*
X121762285Y-129736208D01*
X121758393Y-129722552D01*
X121750112Y-129711021D01*
X121749007Y-129689621D01*
X121743134Y-129669014D01*
X121747241Y-129655423D01*
X121746510Y-129641244D01*
X121757149Y-129622644D01*
X121763350Y-129602133D01*
X121774830Y-129591737D01*
X121781204Y-129580597D01*
X121805623Y-129563856D01*
X121809872Y-129560010D01*
X121812252Y-129558770D01*
X121872734Y-129530568D01*
X121891002Y-129517775D01*
X121898207Y-129514025D01*
X121898416Y-129513983D01*
X121899180Y-129513524D01*
X121901610Y-129512287D01*
X121974358Y-129459432D01*
X121976047Y-129458227D01*
X122059139Y-129400047D01*
X122220047Y-129239139D01*
X122278821Y-129155199D01*
X122332287Y-129081610D01*
X122337465Y-129071446D01*
X122350568Y-129052734D01*
X122389067Y-128970172D01*
X122425220Y-128899219D01*
X122432266Y-128877532D01*
X122446739Y-128846496D01*
X122446742Y-128846488D01*
X122466534Y-128772617D01*
X122467377Y-128769471D01*
X122488477Y-128704534D01*
X122493825Y-128670766D01*
X122505635Y-128626692D01*
X122511216Y-128562890D01*
X122512270Y-128554306D01*
X122520500Y-128502350D01*
X122520500Y-128297649D01*
X122518482Y-128284912D01*
X122511593Y-128241417D01*
X122505635Y-128173308D01*
X122493825Y-128129233D01*
X122488477Y-128095466D01*
X122468378Y-128033609D01*
X122466535Y-128027386D01*
X122446742Y-127953513D01*
X122446740Y-127953510D01*
X122446739Y-127953504D01*
X122432266Y-127922467D01*
X122425220Y-127900781D01*
X122389067Y-127829827D01*
X122350568Y-127747266D01*
X122350567Y-127747265D01*
X122342436Y-127735652D01*
X122342436Y-127735651D01*
X122337462Y-127728548D01*
X122332287Y-127718390D01*
X122278821Y-127644800D01*
X122252017Y-127606520D01*
X122220045Y-127560858D01*
X122059140Y-127399953D01*
X121976078Y-127341793D01*
X121975180Y-127341164D01*
X121901610Y-127287713D01*
X121891448Y-127282535D01*
X121884346Y-127277562D01*
X121872736Y-127269433D01*
X121872727Y-127269429D01*
X121814723Y-127242380D01*
X121804066Y-127232996D01*
X121790866Y-127227773D01*
X121778368Y-127210369D01*
X121762285Y-127196208D01*
X121758393Y-127182552D01*
X121750112Y-127171021D01*
X121749007Y-127149621D01*
X121743134Y-127129014D01*
X121747241Y-127115423D01*
X121746510Y-127101244D01*
X121757149Y-127082644D01*
X121763350Y-127062133D01*
X121774830Y-127051737D01*
X121781204Y-127040597D01*
X121805623Y-127023856D01*
X121809872Y-127020010D01*
X121812252Y-127018770D01*
X121872734Y-126990568D01*
X121891002Y-126977775D01*
X121898207Y-126974025D01*
X121898416Y-126973983D01*
X121899180Y-126973524D01*
X121901610Y-126972287D01*
X121974358Y-126919432D01*
X121976047Y-126918227D01*
X122059139Y-126860047D01*
X122220047Y-126699139D01*
X122278821Y-126615199D01*
X122332287Y-126541610D01*
X122337465Y-126531446D01*
X122350568Y-126512734D01*
X122389067Y-126430172D01*
X122425220Y-126359219D01*
X122432266Y-126337532D01*
X122446739Y-126306496D01*
X122446742Y-126306488D01*
X122466534Y-126232617D01*
X122467377Y-126229471D01*
X122488477Y-126164534D01*
X122493825Y-126130766D01*
X122505635Y-126086692D01*
X122511216Y-126022890D01*
X122512270Y-126014306D01*
X122520500Y-125962350D01*
X122520500Y-125757649D01*
X122512270Y-125705691D01*
X122512270Y-125705690D01*
X122511592Y-125701414D01*
X122505635Y-125633308D01*
X122493825Y-125589233D01*
X122488477Y-125555466D01*
X122468378Y-125493609D01*
X122466535Y-125487386D01*
X122446742Y-125413513D01*
X122446740Y-125413510D01*
X122446739Y-125413504D01*
X122432266Y-125382467D01*
X122425220Y-125360781D01*
X122389067Y-125289827D01*
X122350568Y-125207266D01*
X122342436Y-125195652D01*
X122342436Y-125195651D01*
X122337462Y-125188548D01*
X122332287Y-125178390D01*
X122278821Y-125104800D01*
X122220047Y-125020861D01*
X122220045Y-125020858D01*
X122059140Y-124859953D01*
X121976078Y-124801793D01*
X121975180Y-124801164D01*
X121901610Y-124747713D01*
X121891448Y-124742535D01*
X121884346Y-124737562D01*
X121872736Y-124729433D01*
X121872727Y-124729429D01*
X121814723Y-124702380D01*
X121804066Y-124692996D01*
X121790866Y-124687773D01*
X121778368Y-124670369D01*
X121762285Y-124656208D01*
X121758393Y-124642552D01*
X121750112Y-124631021D01*
X121749007Y-124609621D01*
X121743134Y-124589014D01*
X121747241Y-124575423D01*
X121746510Y-124561244D01*
X121757149Y-124542644D01*
X121763350Y-124522133D01*
X121774830Y-124511737D01*
X121781204Y-124500597D01*
X121805623Y-124483856D01*
X121809872Y-124480010D01*
X121812252Y-124478770D01*
X121872734Y-124450568D01*
X121891002Y-124437775D01*
X121898207Y-124434025D01*
X121898416Y-124433983D01*
X121899180Y-124433524D01*
X121901610Y-124432287D01*
X121974358Y-124379432D01*
X121976047Y-124378227D01*
X122059139Y-124320047D01*
X122220047Y-124159139D01*
X122278821Y-124075199D01*
X122332287Y-124001610D01*
X122337465Y-123991446D01*
X122350568Y-123972734D01*
X122389067Y-123890172D01*
X122425220Y-123819219D01*
X122432266Y-123797532D01*
X122446739Y-123766496D01*
X122446742Y-123766488D01*
X122466534Y-123692617D01*
X122467377Y-123689471D01*
X122488477Y-123624534D01*
X122493825Y-123590766D01*
X122505635Y-123546692D01*
X122511216Y-123482890D01*
X122512270Y-123474306D01*
X122512271Y-123474304D01*
X122520500Y-123422352D01*
X122520500Y-123217648D01*
X122511593Y-123161417D01*
X122505635Y-123093308D01*
X122493825Y-123049233D01*
X122488477Y-123015466D01*
X122468378Y-122953609D01*
X122466535Y-122947386D01*
X122446742Y-122873513D01*
X122446740Y-122873510D01*
X122446739Y-122873504D01*
X122432266Y-122842467D01*
X122425220Y-122820781D01*
X122389067Y-122749827D01*
X122350568Y-122667266D01*
X122342436Y-122655652D01*
X122342436Y-122655651D01*
X122337462Y-122648548D01*
X122332287Y-122638390D01*
X122278821Y-122564800D01*
X122278215Y-122563935D01*
X122278205Y-122563920D01*
X122220045Y-122480858D01*
X122059141Y-122319954D01*
X121993155Y-122273751D01*
X121949530Y-122219175D01*
X121942336Y-122149677D01*
X121973858Y-122087322D01*
X122033612Y-122052028D01*
X122053226Y-122047022D01*
X122126735Y-122016574D01*
X122175551Y-121993219D01*
X122290733Y-121906994D01*
X122346994Y-121850733D01*
X122383157Y-121810475D01*
X122456574Y-121686735D01*
X122487022Y-121613226D01*
X122505024Y-121562198D01*
X122525500Y-121419782D01*
X122525500Y-120140218D01*
X122522604Y-120086185D01*
X122487022Y-119946774D01*
X122456574Y-119873265D01*
X122433219Y-119824449D01*
X122346994Y-119709267D01*
X122346989Y-119709262D01*
X122346984Y-119709256D01*
X122290747Y-119653019D01*
X122288222Y-119650751D01*
X122250475Y-119616843D01*
X122250467Y-119616837D01*
X122126736Y-119543426D01*
X122126737Y-119543426D01*
X122058001Y-119514956D01*
X122053226Y-119512978D01*
X122038821Y-119507896D01*
X122025337Y-119503139D01*
X121968666Y-119462272D01*
X121943085Y-119397253D01*
X121956717Y-119328726D01*
X121995469Y-119284628D01*
X122059139Y-119240047D01*
X122220047Y-119079139D01*
X122278821Y-118995199D01*
X122332287Y-118921610D01*
X122337465Y-118911446D01*
X122350568Y-118892734D01*
X122389067Y-118810172D01*
X122425220Y-118739219D01*
X122432266Y-118717532D01*
X122446739Y-118686496D01*
X122446742Y-118686488D01*
X122466534Y-118612617D01*
X122467377Y-118609471D01*
X122488477Y-118544534D01*
X122493825Y-118510766D01*
X122505635Y-118466692D01*
X122511216Y-118402890D01*
X122512270Y-118394306D01*
X122512271Y-118394304D01*
X122520500Y-118342352D01*
X122520500Y-118137648D01*
X122511593Y-118081417D01*
X122505635Y-118013308D01*
X122493825Y-117969233D01*
X122488477Y-117935466D01*
X122468378Y-117873609D01*
X122466535Y-117867386D01*
X122446742Y-117793513D01*
X122446740Y-117793510D01*
X122446739Y-117793504D01*
X122432266Y-117762467D01*
X122425220Y-117740781D01*
X122389067Y-117669827D01*
X122350568Y-117587266D01*
X122342436Y-117575652D01*
X122342436Y-117575651D01*
X122337462Y-117568548D01*
X122332287Y-117558390D01*
X122278821Y-117484800D01*
X122278215Y-117483935D01*
X122278205Y-117483920D01*
X122220045Y-117400858D01*
X122059140Y-117239953D01*
X121976078Y-117181793D01*
X121975180Y-117181164D01*
X121901610Y-117127713D01*
X121891448Y-117122535D01*
X121884346Y-117117562D01*
X121872736Y-117109433D01*
X121872727Y-117109429D01*
X121814723Y-117082380D01*
X121804066Y-117072996D01*
X121790866Y-117067773D01*
X121778368Y-117050369D01*
X121762285Y-117036208D01*
X121758393Y-117022552D01*
X121750112Y-117011021D01*
X121749007Y-116989621D01*
X121743134Y-116969014D01*
X121747241Y-116955423D01*
X121746510Y-116941244D01*
X121757149Y-116922644D01*
X121763350Y-116902133D01*
X121774830Y-116891737D01*
X121781204Y-116880597D01*
X121805623Y-116863856D01*
X121809872Y-116860010D01*
X121812252Y-116858770D01*
X121872734Y-116830568D01*
X121891002Y-116817775D01*
X121898207Y-116814025D01*
X121898416Y-116813983D01*
X121899180Y-116813524D01*
X121901610Y-116812287D01*
X121974358Y-116759432D01*
X121976047Y-116758227D01*
X122059139Y-116700047D01*
X122220047Y-116539139D01*
X122278821Y-116455199D01*
X122332287Y-116381610D01*
X122337465Y-116371446D01*
X122350568Y-116352734D01*
X122389067Y-116270172D01*
X122425220Y-116199219D01*
X122432266Y-116177532D01*
X122446739Y-116146496D01*
X122446742Y-116146488D01*
X122466534Y-116072617D01*
X122467377Y-116069471D01*
X122488477Y-116004534D01*
X122493825Y-115970766D01*
X122505635Y-115926692D01*
X122511215Y-115862892D01*
X122512270Y-115854306D01*
X122520500Y-115802350D01*
X122520500Y-115597649D01*
X122512270Y-115545691D01*
X122512270Y-115545690D01*
X122511592Y-115541414D01*
X122505635Y-115473308D01*
X122493825Y-115429233D01*
X122488477Y-115395466D01*
X122468378Y-115333609D01*
X122466535Y-115327386D01*
X122446742Y-115253513D01*
X122446740Y-115253510D01*
X122446739Y-115253504D01*
X122432266Y-115222467D01*
X122425220Y-115200781D01*
X122389067Y-115129827D01*
X122350568Y-115047266D01*
X122342436Y-115035652D01*
X122342436Y-115035651D01*
X122337462Y-115028548D01*
X122332287Y-115018390D01*
X122278821Y-114944800D01*
X122278215Y-114943935D01*
X122278205Y-114943920D01*
X122220045Y-114860858D01*
X122059140Y-114699953D01*
X121976078Y-114641793D01*
X121975180Y-114641164D01*
X121901610Y-114587713D01*
X121891448Y-114582535D01*
X121884346Y-114577562D01*
X121872736Y-114569433D01*
X121872727Y-114569429D01*
X121814723Y-114542380D01*
X121804066Y-114532996D01*
X121790866Y-114527773D01*
X121778368Y-114510369D01*
X121762285Y-114496208D01*
X121758393Y-114482552D01*
X121750112Y-114471021D01*
X121749007Y-114449621D01*
X121743134Y-114429014D01*
X121747241Y-114415423D01*
X121746510Y-114401244D01*
X121757149Y-114382644D01*
X121763350Y-114362133D01*
X121774830Y-114351737D01*
X121781204Y-114340597D01*
X121805623Y-114323856D01*
X121809872Y-114320010D01*
X121812252Y-114318770D01*
X121872734Y-114290568D01*
X121891002Y-114277775D01*
X121898207Y-114274025D01*
X121898416Y-114273983D01*
X121899180Y-114273524D01*
X121901610Y-114272287D01*
X121974358Y-114219432D01*
X121976047Y-114218227D01*
X122059139Y-114160047D01*
X122220047Y-113999139D01*
X122278821Y-113915199D01*
X122332287Y-113841610D01*
X122337465Y-113831446D01*
X122350568Y-113812734D01*
X122389067Y-113730172D01*
X122425220Y-113659219D01*
X122432266Y-113637532D01*
X122446739Y-113606496D01*
X122446742Y-113606488D01*
X122466534Y-113532617D01*
X122467377Y-113529471D01*
X122488477Y-113464534D01*
X122493825Y-113430766D01*
X122505635Y-113386692D01*
X122511215Y-113322892D01*
X122512270Y-113314306D01*
X122520500Y-113262350D01*
X122520500Y-113057649D01*
X122512270Y-113005691D01*
X122512270Y-113005690D01*
X122511592Y-113001414D01*
X122505635Y-112933308D01*
X122493825Y-112889233D01*
X122488477Y-112855466D01*
X122468378Y-112793609D01*
X122466535Y-112787386D01*
X122446742Y-112713513D01*
X122446740Y-112713510D01*
X122446739Y-112713504D01*
X122432266Y-112682467D01*
X122425220Y-112660781D01*
X122389067Y-112589827D01*
X122350568Y-112507266D01*
X122342436Y-112495652D01*
X122342436Y-112495651D01*
X122337462Y-112488548D01*
X122332287Y-112478390D01*
X122278821Y-112404800D01*
X122278215Y-112403935D01*
X122278205Y-112403920D01*
X122220045Y-112320858D01*
X122059140Y-112159953D01*
X121976078Y-112101793D01*
X121975180Y-112101164D01*
X121901610Y-112047713D01*
X121891448Y-112042535D01*
X121884346Y-112037562D01*
X121872736Y-112029433D01*
X121872727Y-112029429D01*
X121814723Y-112002380D01*
X121804066Y-111992996D01*
X121790866Y-111987773D01*
X121778368Y-111970369D01*
X121762285Y-111956208D01*
X121758393Y-111942552D01*
X121750112Y-111931021D01*
X121749007Y-111909621D01*
X121743134Y-111889014D01*
X121747241Y-111875423D01*
X121746510Y-111861244D01*
X121757149Y-111842644D01*
X121763350Y-111822133D01*
X121774830Y-111811737D01*
X121781204Y-111800597D01*
X121805623Y-111783856D01*
X121809872Y-111780010D01*
X121812252Y-111778770D01*
X121872734Y-111750568D01*
X121891002Y-111737775D01*
X121898207Y-111734025D01*
X121898416Y-111733983D01*
X121899180Y-111733524D01*
X121901610Y-111732287D01*
X121974358Y-111679432D01*
X121976047Y-111678227D01*
X122059139Y-111620047D01*
X122220047Y-111459139D01*
X122278821Y-111375199D01*
X122332287Y-111301610D01*
X122337465Y-111291446D01*
X122350568Y-111272734D01*
X122389067Y-111190172D01*
X122425220Y-111119219D01*
X122432266Y-111097532D01*
X122446739Y-111066496D01*
X122446742Y-111066488D01*
X122466534Y-110992617D01*
X122467377Y-110989471D01*
X122488477Y-110924534D01*
X122493825Y-110890766D01*
X122505635Y-110846692D01*
X122511215Y-110782892D01*
X122512270Y-110774306D01*
X122520500Y-110722350D01*
X122520500Y-110517649D01*
X122512270Y-110465691D01*
X122512270Y-110465690D01*
X122511592Y-110461414D01*
X122505635Y-110393308D01*
X122493825Y-110349233D01*
X122488477Y-110315466D01*
X122468378Y-110253609D01*
X122466535Y-110247386D01*
X122446742Y-110173513D01*
X122446740Y-110173510D01*
X122446739Y-110173504D01*
X122432266Y-110142467D01*
X122425220Y-110120781D01*
X122389067Y-110049827D01*
X122350568Y-109967266D01*
X122342436Y-109955652D01*
X122342436Y-109955651D01*
X122337462Y-109948548D01*
X122332287Y-109938390D01*
X122278821Y-109864800D01*
X122278215Y-109863935D01*
X122278205Y-109863920D01*
X122220045Y-109780858D01*
X122059141Y-109619954D01*
X121993155Y-109573751D01*
X121949530Y-109519175D01*
X121942336Y-109449677D01*
X121973858Y-109387322D01*
X122033612Y-109352028D01*
X122053226Y-109347022D01*
X122126735Y-109316574D01*
X122175551Y-109293219D01*
X122290733Y-109206994D01*
X122346994Y-109150733D01*
X122383157Y-109110475D01*
X122456574Y-108986735D01*
X122459364Y-108979999D01*
X130160000Y-108979999D01*
X130160000Y-109880000D01*
X130162138Y-109945541D01*
X130162138Y-109945544D01*
X130162139Y-109945545D01*
X130196068Y-110072167D01*
X130261612Y-110185694D01*
X130354306Y-110278388D01*
X130467833Y-110343932D01*
X130594455Y-110377861D01*
X130660000Y-110380000D01*
X131560000Y-110380000D01*
X131625545Y-110377861D01*
X131752167Y-110343933D01*
X131865694Y-110278388D01*
X131958388Y-110185694D01*
X132023933Y-110072167D01*
X132057861Y-109945545D01*
X132060000Y-109880000D01*
X132060000Y-108980000D01*
X132057861Y-108914455D01*
X132023933Y-108787833D01*
X131958388Y-108674306D01*
X131865694Y-108581612D01*
X131752167Y-108516067D01*
X131625545Y-108482139D01*
X131560000Y-108480000D01*
X131110000Y-108480000D01*
X130660000Y-108480000D01*
X130594458Y-108482138D01*
X130467832Y-108516068D01*
X130354307Y-108581611D01*
X130354304Y-108581613D01*
X130261613Y-108674304D01*
X130261611Y-108674307D01*
X130196068Y-108787832D01*
X130162138Y-108914458D01*
X130160000Y-108979999D01*
X122459364Y-108979999D01*
X122487022Y-108913226D01*
X122505024Y-108862198D01*
X122525500Y-108719782D01*
X122525500Y-107440218D01*
X122522604Y-107386185D01*
X122487022Y-107246774D01*
X122456574Y-107173265D01*
X122433219Y-107124449D01*
X122346994Y-107009267D01*
X122346989Y-107009262D01*
X122346984Y-107009256D01*
X122290747Y-106953019D01*
X122290731Y-106953005D01*
X122250475Y-106916843D01*
X122250467Y-106916837D01*
X122126736Y-106843426D01*
X122126737Y-106843426D01*
X122058001Y-106814956D01*
X122053226Y-106812978D01*
X122053215Y-106812974D01*
X122025337Y-106803139D01*
X121968666Y-106762272D01*
X121943085Y-106697253D01*
X121956717Y-106628726D01*
X121995469Y-106584628D01*
X122059139Y-106540047D01*
X122220047Y-106379139D01*
X122278821Y-106295199D01*
X122332287Y-106221610D01*
X122337465Y-106211446D01*
X122350568Y-106192734D01*
X122389067Y-106110172D01*
X122425220Y-106039219D01*
X122432266Y-106017532D01*
X122446739Y-105986496D01*
X122446742Y-105986488D01*
X122466534Y-105912617D01*
X122467377Y-105909471D01*
X122488477Y-105844534D01*
X122493825Y-105810766D01*
X122505635Y-105766692D01*
X122511215Y-105702892D01*
X122512270Y-105694306D01*
X122520500Y-105642350D01*
X122520500Y-105437649D01*
X122512270Y-105385691D01*
X122512270Y-105385690D01*
X122511592Y-105381414D01*
X122505635Y-105313308D01*
X122493825Y-105269233D01*
X122488477Y-105235466D01*
X122468378Y-105173609D01*
X122466535Y-105167386D01*
X122446742Y-105093513D01*
X122446740Y-105093510D01*
X122446739Y-105093504D01*
X122432266Y-105062467D01*
X122425220Y-105040781D01*
X122389067Y-104969827D01*
X122350568Y-104887266D01*
X122342436Y-104875652D01*
X122342436Y-104875651D01*
X122337462Y-104868548D01*
X122332287Y-104858390D01*
X122278821Y-104784800D01*
X122278215Y-104783935D01*
X122278205Y-104783920D01*
X122220045Y-104700858D01*
X122059140Y-104539953D01*
X121976078Y-104481793D01*
X121975180Y-104481164D01*
X121901610Y-104427713D01*
X121891448Y-104422535D01*
X121884346Y-104417562D01*
X121872736Y-104409433D01*
X121872727Y-104409429D01*
X121814723Y-104382380D01*
X121804066Y-104372996D01*
X121790866Y-104367773D01*
X121778368Y-104350369D01*
X121762285Y-104336208D01*
X121758393Y-104322552D01*
X121750112Y-104311021D01*
X121749007Y-104289621D01*
X121743134Y-104269014D01*
X121747241Y-104255423D01*
X121746510Y-104241244D01*
X121757149Y-104222644D01*
X121763350Y-104202133D01*
X121774830Y-104191737D01*
X121781204Y-104180597D01*
X121805623Y-104163856D01*
X121809872Y-104160010D01*
X121812252Y-104158770D01*
X121872734Y-104130568D01*
X121891002Y-104117775D01*
X121898207Y-104114025D01*
X121898416Y-104113983D01*
X121899180Y-104113524D01*
X121901610Y-104112287D01*
X121974358Y-104059432D01*
X121976047Y-104058227D01*
X122059139Y-104000047D01*
X122220047Y-103839139D01*
X122278821Y-103755199D01*
X122332287Y-103681610D01*
X122337465Y-103671446D01*
X122350568Y-103652734D01*
X122389067Y-103570172D01*
X122425220Y-103499219D01*
X122432266Y-103477532D01*
X122446739Y-103446496D01*
X122446742Y-103446488D01*
X122466534Y-103372617D01*
X122467377Y-103369471D01*
X122488477Y-103304534D01*
X122493825Y-103270766D01*
X122505635Y-103226692D01*
X122511215Y-103162892D01*
X122512270Y-103154306D01*
X122520500Y-103102350D01*
X122520500Y-102897649D01*
X122512270Y-102845691D01*
X122512270Y-102845690D01*
X122511592Y-102841414D01*
X122505635Y-102773308D01*
X122493825Y-102729233D01*
X122488477Y-102695466D01*
X122468378Y-102633609D01*
X122466535Y-102627386D01*
X122446742Y-102553513D01*
X122446740Y-102553510D01*
X122446739Y-102553504D01*
X122432266Y-102522467D01*
X122425220Y-102500781D01*
X122389067Y-102429827D01*
X122350568Y-102347266D01*
X122342436Y-102335652D01*
X122342436Y-102335651D01*
X122337462Y-102328548D01*
X122332287Y-102318390D01*
X122278821Y-102244800D01*
X122278215Y-102243935D01*
X122278205Y-102243920D01*
X122220045Y-102160858D01*
X122059140Y-101999953D01*
X121976078Y-101941793D01*
X121975180Y-101941164D01*
X121901610Y-101887713D01*
X121891448Y-101882535D01*
X121884346Y-101877562D01*
X121872736Y-101869433D01*
X121872727Y-101869429D01*
X121814723Y-101842380D01*
X121804066Y-101832996D01*
X121790866Y-101827773D01*
X121778368Y-101810369D01*
X121762285Y-101796208D01*
X121758393Y-101782552D01*
X121750112Y-101771021D01*
X121749007Y-101749621D01*
X121743134Y-101729014D01*
X121747241Y-101715423D01*
X121746510Y-101701244D01*
X121757149Y-101682644D01*
X121763350Y-101662133D01*
X121774830Y-101651737D01*
X121781204Y-101640597D01*
X121805623Y-101623856D01*
X121809872Y-101620010D01*
X121812252Y-101618770D01*
X121872734Y-101590568D01*
X121891002Y-101577775D01*
X121898207Y-101574025D01*
X121898416Y-101573983D01*
X121899180Y-101573524D01*
X121901610Y-101572287D01*
X121974358Y-101519432D01*
X121976047Y-101518227D01*
X122059139Y-101460047D01*
X122220047Y-101299139D01*
X122278821Y-101215199D01*
X122332287Y-101141610D01*
X122337465Y-101131446D01*
X122350568Y-101112734D01*
X122389067Y-101030172D01*
X122425220Y-100959219D01*
X122432266Y-100937532D01*
X122446739Y-100906496D01*
X122446742Y-100906488D01*
X122466534Y-100832617D01*
X122467377Y-100829471D01*
X122488477Y-100764534D01*
X122493825Y-100730766D01*
X122505635Y-100686692D01*
X122511215Y-100622892D01*
X122512270Y-100614306D01*
X122520500Y-100562350D01*
X122520500Y-100357649D01*
X122512270Y-100305691D01*
X122512270Y-100305690D01*
X122511592Y-100301414D01*
X122505635Y-100233308D01*
X122493825Y-100189233D01*
X122488477Y-100155466D01*
X122468378Y-100093609D01*
X122466535Y-100087386D01*
X122446742Y-100013513D01*
X122446740Y-100013510D01*
X122446739Y-100013504D01*
X122432266Y-99982467D01*
X122425220Y-99960781D01*
X122389067Y-99889827D01*
X122350568Y-99807266D01*
X122342436Y-99795652D01*
X122342436Y-99795651D01*
X122337462Y-99788548D01*
X122332287Y-99778390D01*
X122278821Y-99704800D01*
X122278215Y-99703935D01*
X122278205Y-99703920D01*
X122220045Y-99620858D01*
X122059140Y-99459953D01*
X121976078Y-99401793D01*
X121975180Y-99401164D01*
X121901610Y-99347713D01*
X121891448Y-99342535D01*
X121884346Y-99337562D01*
X121872736Y-99329433D01*
X121872727Y-99329429D01*
X121814723Y-99302380D01*
X121804066Y-99292996D01*
X121790866Y-99287773D01*
X121778368Y-99270369D01*
X121762285Y-99256208D01*
X121758393Y-99242552D01*
X121750112Y-99231021D01*
X121749007Y-99209621D01*
X121743134Y-99189014D01*
X121747241Y-99175423D01*
X121746510Y-99161244D01*
X121757149Y-99142644D01*
X121763350Y-99122133D01*
X121774830Y-99111737D01*
X121781204Y-99100597D01*
X121805623Y-99083856D01*
X121809872Y-99080010D01*
X121812252Y-99078770D01*
X121872734Y-99050568D01*
X121891002Y-99037775D01*
X121898207Y-99034025D01*
X121898416Y-99033983D01*
X121899180Y-99033524D01*
X121901610Y-99032287D01*
X121974358Y-98979432D01*
X121976047Y-98978227D01*
X122059139Y-98920047D01*
X122220047Y-98759139D01*
X122278821Y-98675199D01*
X122332287Y-98601610D01*
X122337465Y-98591446D01*
X122350568Y-98572734D01*
X122389067Y-98490172D01*
X122425220Y-98419219D01*
X122432266Y-98397532D01*
X122446739Y-98366496D01*
X122446742Y-98366488D01*
X122466534Y-98292617D01*
X122467377Y-98289471D01*
X122488477Y-98224534D01*
X122493825Y-98190766D01*
X122505635Y-98146692D01*
X122511215Y-98082892D01*
X122512270Y-98074306D01*
X122520500Y-98022350D01*
X122520500Y-97817649D01*
X122512270Y-97765691D01*
X122512270Y-97765690D01*
X122511592Y-97761414D01*
X122505635Y-97693308D01*
X122493825Y-97649233D01*
X122488477Y-97615466D01*
X122468378Y-97553609D01*
X122466535Y-97547386D01*
X122446742Y-97473513D01*
X122446740Y-97473510D01*
X122446739Y-97473504D01*
X122432266Y-97442467D01*
X122425220Y-97420781D01*
X122389067Y-97349827D01*
X122350568Y-97267266D01*
X122342436Y-97255652D01*
X122342436Y-97255651D01*
X122337462Y-97248548D01*
X122332287Y-97238390D01*
X122278821Y-97164800D01*
X122278215Y-97163935D01*
X122278205Y-97163920D01*
X122220045Y-97080858D01*
X122059141Y-96919954D01*
X121993155Y-96873751D01*
X121949530Y-96819175D01*
X121942336Y-96749677D01*
X121973858Y-96687322D01*
X122033612Y-96652028D01*
X122053226Y-96647022D01*
X122126735Y-96616574D01*
X122175551Y-96593219D01*
X122290733Y-96506994D01*
X122317728Y-96479999D01*
X126660000Y-96479999D01*
X126660000Y-103880000D01*
X126662138Y-103945541D01*
X126662138Y-103945544D01*
X126662139Y-103945545D01*
X126696068Y-104072167D01*
X126761612Y-104185694D01*
X126854306Y-104278388D01*
X126967833Y-104343932D01*
X127094455Y-104377861D01*
X127160000Y-104380000D01*
X128060000Y-104380000D01*
X128125545Y-104377861D01*
X128252167Y-104343932D01*
X128365694Y-104278388D01*
X128458388Y-104185694D01*
X128523932Y-104072167D01*
X128557861Y-103945545D01*
X128560000Y-103880000D01*
X128560000Y-100180000D01*
X128560000Y-96480000D01*
X128557861Y-96414455D01*
X128523933Y-96287833D01*
X128458388Y-96174306D01*
X128365694Y-96081612D01*
X128252167Y-96016067D01*
X128125545Y-95982139D01*
X128060000Y-95980000D01*
X127160000Y-95980000D01*
X127094455Y-95982139D01*
X126967833Y-96016067D01*
X126967831Y-96016067D01*
X126967831Y-96016068D01*
X126854306Y-96081612D01*
X126854303Y-96081614D01*
X126761614Y-96174303D01*
X126761612Y-96174306D01*
X126696068Y-96287831D01*
X126662139Y-96414455D01*
X126660000Y-96479999D01*
X122317728Y-96479999D01*
X122346994Y-96450733D01*
X122383157Y-96410475D01*
X122456574Y-96286735D01*
X122487022Y-96213226D01*
X122505024Y-96162198D01*
X122525500Y-96019782D01*
X122525500Y-94740218D01*
X122522604Y-94686185D01*
X122487022Y-94546774D01*
X122456574Y-94473265D01*
X122433219Y-94424449D01*
X122431845Y-94422614D01*
X122411904Y-94395976D01*
X122346994Y-94309267D01*
X122346989Y-94309262D01*
X122346984Y-94309256D01*
X122290747Y-94253019D01*
X122290731Y-94253005D01*
X122250475Y-94216843D01*
X122250467Y-94216837D01*
X122126736Y-94143426D01*
X122126737Y-94143426D01*
X122058001Y-94114956D01*
X122053226Y-94112978D01*
X122038248Y-94107694D01*
X122025337Y-94103139D01*
X121968666Y-94062272D01*
X121943085Y-93997253D01*
X121956717Y-93928726D01*
X121995469Y-93884628D01*
X122059139Y-93840047D01*
X122220047Y-93679139D01*
X122278821Y-93595199D01*
X122332287Y-93521610D01*
X122337465Y-93511446D01*
X122350568Y-93492734D01*
X122388472Y-93411447D01*
X122389152Y-93410003D01*
X122408811Y-93371421D01*
X126559500Y-93371421D01*
X126559500Y-93548578D01*
X126587214Y-93723556D01*
X126641956Y-93892039D01*
X126641957Y-93892042D01*
X126722386Y-94049890D01*
X126826517Y-94193214D01*
X126951786Y-94318483D01*
X127095110Y-94422614D01*
X127150591Y-94450883D01*
X127252957Y-94503042D01*
X127252960Y-94503043D01*
X127337201Y-94530414D01*
X127421445Y-94557786D01*
X127596421Y-94585500D01*
X127596422Y-94585500D01*
X127773578Y-94585500D01*
X127773579Y-94585500D01*
X127948555Y-94557786D01*
X128117042Y-94503042D01*
X128274890Y-94422614D01*
X128418214Y-94318483D01*
X128543483Y-94193214D01*
X128647614Y-94049890D01*
X128728042Y-93892042D01*
X128782786Y-93723555D01*
X128810500Y-93548579D01*
X128810500Y-93371421D01*
X128782786Y-93196445D01*
X128728042Y-93027958D01*
X128728041Y-93027956D01*
X128728040Y-93027953D01*
X128703606Y-92979999D01*
X129160000Y-92979999D01*
X129160000Y-93880000D01*
X129162138Y-93945541D01*
X129162138Y-93945544D01*
X129162139Y-93945545D01*
X129196068Y-94072167D01*
X129261612Y-94185694D01*
X129354306Y-94278388D01*
X129467833Y-94343932D01*
X129594455Y-94377861D01*
X129660000Y-94380000D01*
X130560000Y-94380000D01*
X130625545Y-94377861D01*
X130752167Y-94343933D01*
X130865694Y-94278388D01*
X130958388Y-94185694D01*
X131023933Y-94072167D01*
X131057861Y-93945545D01*
X131060000Y-93880000D01*
X131060000Y-93371421D01*
X131409500Y-93371421D01*
X131409500Y-93548578D01*
X131437214Y-93723556D01*
X131491956Y-93892039D01*
X131491957Y-93892042D01*
X131572386Y-94049890D01*
X131676517Y-94193214D01*
X131801786Y-94318483D01*
X131945110Y-94422614D01*
X132000591Y-94450883D01*
X132102957Y-94503042D01*
X132102960Y-94503043D01*
X132187201Y-94530414D01*
X132271445Y-94557786D01*
X132446421Y-94585500D01*
X132446422Y-94585500D01*
X132623578Y-94585500D01*
X132623579Y-94585500D01*
X132798555Y-94557786D01*
X132967042Y-94503042D01*
X133124890Y-94422614D01*
X133268214Y-94318483D01*
X133393483Y-94193214D01*
X133497614Y-94049890D01*
X133578042Y-93892042D01*
X133632786Y-93723555D01*
X133660500Y-93548579D01*
X133660500Y-93371421D01*
X133632786Y-93196445D01*
X133602908Y-93104489D01*
X133601886Y-93101343D01*
X133601885Y-93101341D01*
X133598200Y-93090000D01*
X137721128Y-93090000D01*
X137724983Y-93104390D01*
X137727680Y-93117081D01*
X137732010Y-93144420D01*
X137752095Y-93206236D01*
X137753938Y-93212456D01*
X137773733Y-93286325D01*
X137773735Y-93286329D01*
X137784994Y-93310476D01*
X137832302Y-93411927D01*
X137869866Y-93492483D01*
X137877989Y-93504085D01*
X137886894Y-93518905D01*
X137888135Y-93521342D01*
X137888139Y-93521348D01*
X137920523Y-93565921D01*
X137920524Y-93565922D01*
X138396446Y-93090000D01*
X137721128Y-93090000D01*
X133598200Y-93090000D01*
X133578044Y-93027963D01*
X133578042Y-93027957D01*
X133534422Y-92942350D01*
X133497614Y-92870110D01*
X133393483Y-92726786D01*
X133268214Y-92601517D01*
X133252361Y-92589999D01*
X137721126Y-92589999D01*
X137721127Y-92590000D01*
X138396446Y-92590000D01*
X138396446Y-92589999D01*
X137920523Y-92114077D01*
X137888136Y-92158656D01*
X137888135Y-92158657D01*
X137886894Y-92161094D01*
X137830400Y-92271972D01*
X137830398Y-92271973D01*
X137795242Y-92340974D01*
X137795241Y-92340976D01*
X137790538Y-92355449D01*
X137784993Y-92369526D01*
X137773733Y-92393673D01*
X137753944Y-92467524D01*
X137752101Y-92473745D01*
X137732012Y-92535572D01*
X137732009Y-92535585D01*
X137727680Y-92562918D01*
X137724982Y-92575612D01*
X137721126Y-92589999D01*
X133252361Y-92589999D01*
X133124890Y-92497386D01*
X132967042Y-92416957D01*
X132967039Y-92416956D01*
X132798556Y-92362214D01*
X132664453Y-92340974D01*
X132623579Y-92334500D01*
X132446421Y-92334500D01*
X132411696Y-92340000D01*
X132271443Y-92362214D01*
X132102960Y-92416956D01*
X132102957Y-92416957D01*
X131945109Y-92497386D01*
X131863338Y-92556796D01*
X131801786Y-92601517D01*
X131801784Y-92601519D01*
X131801783Y-92601519D01*
X131676519Y-92726783D01*
X131676519Y-92726784D01*
X131676517Y-92726786D01*
X131642088Y-92774174D01*
X131572386Y-92870109D01*
X131491957Y-93027957D01*
X131491956Y-93027960D01*
X131437214Y-93196443D01*
X131409500Y-93371421D01*
X131060000Y-93371421D01*
X131060000Y-92980000D01*
X131057861Y-92914455D01*
X131023933Y-92787833D01*
X130958388Y-92674306D01*
X130865694Y-92581612D01*
X130752167Y-92516067D01*
X130625545Y-92482139D01*
X130560000Y-92480000D01*
X130110000Y-92480000D01*
X129660000Y-92480000D01*
X129594458Y-92482138D01*
X129467832Y-92516068D01*
X129354307Y-92581611D01*
X129354304Y-92581613D01*
X129261613Y-92674304D01*
X129261611Y-92674307D01*
X129196068Y-92787832D01*
X129162138Y-92914458D01*
X129160000Y-92979999D01*
X128703606Y-92979999D01*
X128684422Y-92942350D01*
X128647614Y-92870110D01*
X128543483Y-92726786D01*
X128418214Y-92601517D01*
X128274890Y-92497386D01*
X128117042Y-92416957D01*
X128117039Y-92416956D01*
X127948556Y-92362214D01*
X127814453Y-92340974D01*
X127773579Y-92334500D01*
X127596421Y-92334500D01*
X127561696Y-92340000D01*
X127421443Y-92362214D01*
X127252960Y-92416956D01*
X127252957Y-92416957D01*
X127095109Y-92497386D01*
X127013338Y-92556796D01*
X126951786Y-92601517D01*
X126951784Y-92601519D01*
X126951783Y-92601519D01*
X126826519Y-92726783D01*
X126826519Y-92726784D01*
X126826517Y-92726786D01*
X126792088Y-92774174D01*
X126722386Y-92870109D01*
X126641957Y-93027957D01*
X126641956Y-93027960D01*
X126587214Y-93196443D01*
X126559500Y-93371421D01*
X122408811Y-93371421D01*
X122425220Y-93339219D01*
X122431218Y-93320757D01*
X122432883Y-93317225D01*
X122435473Y-93310654D01*
X122435556Y-93310476D01*
X122446739Y-93286496D01*
X122446742Y-93286488D01*
X122466534Y-93212617D01*
X122467377Y-93209471D01*
X122488477Y-93144534D01*
X122493825Y-93110766D01*
X122505635Y-93066692D01*
X122511215Y-93002892D01*
X122512270Y-92994306D01*
X122514537Y-92979999D01*
X122520500Y-92942352D01*
X122520500Y-92737648D01*
X122511593Y-92681417D01*
X122505635Y-92613308D01*
X122493825Y-92569233D01*
X122488477Y-92535466D01*
X122468378Y-92473609D01*
X122466535Y-92467386D01*
X122446742Y-92393513D01*
X122446740Y-92393510D01*
X122446739Y-92393504D01*
X122432266Y-92362467D01*
X122425220Y-92340781D01*
X122389067Y-92269827D01*
X122350568Y-92187266D01*
X122342436Y-92175652D01*
X122342436Y-92175651D01*
X122337462Y-92168548D01*
X122332287Y-92158390D01*
X122278821Y-92084800D01*
X122220047Y-92000861D01*
X122220045Y-92000858D01*
X122059142Y-91839955D01*
X122047928Y-91832103D01*
X121988515Y-91790502D01*
X121944891Y-91735927D01*
X121937697Y-91666429D01*
X121969219Y-91604074D01*
X122022747Y-91570543D01*
X122109606Y-91543478D01*
X122255185Y-91455472D01*
X122375472Y-91335185D01*
X122463478Y-91189606D01*
X122514086Y-91027196D01*
X122520500Y-90956616D01*
X122520500Y-90435650D01*
X122520621Y-90430163D01*
X122520768Y-90426830D01*
X122525500Y-90378793D01*
X122525500Y-90327648D01*
X126084500Y-90327648D01*
X126084500Y-90532351D01*
X126116522Y-90734534D01*
X126179781Y-90929223D01*
X126229700Y-91027192D01*
X126263508Y-91093545D01*
X126272715Y-91111613D01*
X126393028Y-91277213D01*
X126537786Y-91421971D01*
X126671265Y-91518947D01*
X126703390Y-91542287D01*
X126800824Y-91591932D01*
X126885776Y-91635218D01*
X126885778Y-91635218D01*
X126885781Y-91635220D01*
X126990137Y-91669127D01*
X127080465Y-91698477D01*
X127149632Y-91709432D01*
X127282648Y-91730500D01*
X127282649Y-91730500D01*
X127487351Y-91730500D01*
X127487352Y-91730500D01*
X127689534Y-91698477D01*
X127884219Y-91635220D01*
X128066610Y-91542287D01*
X128175524Y-91463157D01*
X128232213Y-91421971D01*
X128232215Y-91421968D01*
X128232219Y-91421966D01*
X128376966Y-91277219D01*
X128484843Y-91128736D01*
X128540170Y-91086072D01*
X128589206Y-91077689D01*
X128594452Y-91077860D01*
X128594455Y-91077861D01*
X128660000Y-91080000D01*
X128660001Y-91080000D01*
X129560000Y-91080000D01*
X129625545Y-91077861D01*
X129752167Y-91043933D01*
X129865694Y-90978388D01*
X129958388Y-90885694D01*
X129998283Y-90816594D01*
X130048850Y-90768378D01*
X130117457Y-90755155D01*
X130182322Y-90781124D01*
X130213057Y-90816594D01*
X130261609Y-90900690D01*
X130261611Y-90900693D01*
X130261612Y-90900694D01*
X130354306Y-90993388D01*
X130467833Y-91058932D01*
X130594455Y-91092861D01*
X130660000Y-91095000D01*
X131560000Y-91095000D01*
X131625545Y-91092861D01*
X131625556Y-91092858D01*
X131626616Y-91092701D01*
X131627343Y-91092802D01*
X131632653Y-91092629D01*
X131632682Y-91093545D01*
X131695819Y-91102332D01*
X131745134Y-91142471D01*
X131827293Y-91255553D01*
X131843034Y-91277219D01*
X131987786Y-91421971D01*
X132121265Y-91518947D01*
X132153390Y-91542287D01*
X132250824Y-91591932D01*
X132335776Y-91635218D01*
X132335778Y-91635218D01*
X132335781Y-91635220D01*
X132440137Y-91669127D01*
X132530465Y-91698477D01*
X132599632Y-91709432D01*
X132732648Y-91730500D01*
X132732649Y-91730500D01*
X132937351Y-91730500D01*
X132937352Y-91730500D01*
X133139534Y-91698477D01*
X133334219Y-91635220D01*
X133516610Y-91542287D01*
X133625524Y-91463157D01*
X133682213Y-91421971D01*
X133682215Y-91421968D01*
X133682219Y-91421966D01*
X133826966Y-91277219D01*
X133826968Y-91277215D01*
X133826971Y-91277213D01*
X133890620Y-91189606D01*
X133947287Y-91111610D01*
X134040220Y-90929219D01*
X134103477Y-90734534D01*
X134135500Y-90532352D01*
X134135500Y-90327648D01*
X134103477Y-90125466D01*
X134086531Y-90073313D01*
X134040218Y-89930776D01*
X133988532Y-89829338D01*
X133947287Y-89748390D01*
X133932387Y-89727882D01*
X133826971Y-89582786D01*
X133682213Y-89438028D01*
X133516613Y-89317715D01*
X133516612Y-89317714D01*
X133516610Y-89317713D01*
X133422036Y-89269525D01*
X133334223Y-89224781D01*
X133139534Y-89161522D01*
X132952050Y-89131828D01*
X132937352Y-89129500D01*
X132732648Y-89129500D01*
X132723607Y-89130932D01*
X132530465Y-89161522D01*
X132335776Y-89224781D01*
X132153386Y-89317715D01*
X132084659Y-89367648D01*
X132018853Y-89391128D01*
X131950799Y-89375302D01*
X131924093Y-89355011D01*
X131865696Y-89296614D01*
X131865694Y-89296612D01*
X131752167Y-89231067D01*
X131625545Y-89197139D01*
X131560000Y-89195000D01*
X131110000Y-89195000D01*
X130660000Y-89195000D01*
X130594458Y-89197138D01*
X130467832Y-89231068D01*
X130354307Y-89296611D01*
X130354304Y-89296613D01*
X130261613Y-89389304D01*
X130261609Y-89389309D01*
X130221717Y-89458405D01*
X130171150Y-89506621D01*
X130102543Y-89519843D01*
X130037678Y-89493875D01*
X130006943Y-89458405D01*
X129969334Y-89393265D01*
X129958388Y-89374306D01*
X129865694Y-89281612D01*
X129752167Y-89216067D01*
X129625545Y-89182139D01*
X129560000Y-89180000D01*
X129110000Y-89180000D01*
X128660000Y-89180000D01*
X128594458Y-89182138D01*
X128467832Y-89216068D01*
X128354307Y-89281610D01*
X128287218Y-89348700D01*
X128225894Y-89382184D01*
X128156203Y-89377199D01*
X128126656Y-89361338D01*
X128066610Y-89317713D01*
X128025197Y-89296612D01*
X127884223Y-89224781D01*
X127689534Y-89161522D01*
X127502050Y-89131828D01*
X127487352Y-89129500D01*
X127282648Y-89129500D01*
X127273607Y-89130932D01*
X127080465Y-89161522D01*
X126885776Y-89224781D01*
X126703386Y-89317715D01*
X126537786Y-89438028D01*
X126393028Y-89582786D01*
X126272715Y-89748386D01*
X126179781Y-89930776D01*
X126116522Y-90125465D01*
X126084500Y-90327648D01*
X122525500Y-90327648D01*
X122525500Y-90221207D01*
X122521097Y-90176501D01*
X122520500Y-90164348D01*
X122520500Y-89643386D01*
X122519152Y-89628553D01*
X122514086Y-89572804D01*
X122463478Y-89410394D01*
X122375472Y-89264815D01*
X122375470Y-89264813D01*
X122375469Y-89264811D01*
X122255188Y-89144530D01*
X122234176Y-89131828D01*
X122109606Y-89056522D01*
X121947196Y-89005914D01*
X121947194Y-89005913D01*
X121947192Y-89005913D01*
X121897778Y-89001423D01*
X121876616Y-88999500D01*
X121876613Y-88999500D01*
X121355650Y-88999500D01*
X121343497Y-88998903D01*
X121298793Y-88994500D01*
X118980218Y-88994500D01*
X118980216Y-88994500D01*
X118926185Y-88997395D01*
X118926181Y-88997396D01*
X118786778Y-89032976D01*
X118786766Y-89032980D01*
X118713280Y-89063419D01*
X118713252Y-89063431D01*
X118664451Y-89086779D01*
X118664446Y-89086782D01*
X118549268Y-89173005D01*
X118549256Y-89173015D01*
X118493019Y-89229252D01*
X118456843Y-89269524D01*
X118456837Y-89269532D01*
X118383426Y-89393263D01*
X118352978Y-89466774D01*
X118352970Y-89466795D01*
X118334976Y-89517800D01*
X118314500Y-89660219D01*
X118314500Y-90939784D01*
X118317395Y-90993814D01*
X118317396Y-90993818D01*
X118352976Y-91133221D01*
X118352980Y-91133233D01*
X118383419Y-91206719D01*
X118383431Y-91206747D01*
X118406779Y-91255548D01*
X118406782Y-91255553D01*
X118449893Y-91313142D01*
X118493006Y-91370733D01*
X118493010Y-91370737D01*
X118493015Y-91370743D01*
X118549252Y-91426980D01*
X118549261Y-91426988D01*
X118549267Y-91426994D01*
X118580970Y-91455472D01*
X118589524Y-91463156D01*
X118589532Y-91463162D01*
X118713263Y-91536573D01*
X118713262Y-91536573D01*
X118727050Y-91542284D01*
X118786774Y-91567022D01*
X118814662Y-91576860D01*
X118871332Y-91617725D01*
X118896913Y-91682743D01*
X118883283Y-91751271D01*
X118844531Y-91795371D01*
X118780856Y-91839956D01*
X118619954Y-92000858D01*
X118489432Y-92187265D01*
X118489431Y-92187267D01*
X118393261Y-92393502D01*
X118393258Y-92393511D01*
X118334366Y-92613302D01*
X118334364Y-92613312D01*
X118319500Y-92783214D01*
X118319500Y-92896785D01*
X118334364Y-93066687D01*
X118334366Y-93066697D01*
X118393258Y-93286488D01*
X118393261Y-93286497D01*
X118489431Y-93492732D01*
X118489432Y-93492734D01*
X118619954Y-93679141D01*
X118780858Y-93840045D01*
X118780861Y-93840047D01*
X118967266Y-93970568D01*
X119018655Y-93994531D01*
X119071095Y-94040703D01*
X119090247Y-94107896D01*
X119070032Y-94174778D01*
X119024705Y-94216271D01*
X119003058Y-94227842D01*
X118960217Y-94250741D01*
X118960214Y-94250742D01*
X118960200Y-94250751D01*
X118829206Y-94338278D01*
X118829194Y-94338287D01*
X118829189Y-94338290D01*
X118829189Y-94338291D01*
X118752588Y-94401157D01*
X118752585Y-94401160D01*
X118752582Y-94401162D01*
X118641162Y-94512582D01*
X118641160Y-94512585D01*
X118641157Y-94512588D01*
X118581319Y-94585500D01*
X118578287Y-94589194D01*
X118578278Y-94589206D01*
X118490751Y-94720200D01*
X118490734Y-94720228D01*
X118444031Y-94807603D01*
X118444029Y-94807608D01*
X118383722Y-94953200D01*
X118368186Y-95004416D01*
X118354956Y-95048032D01*
X118354955Y-95048036D01*
X118354955Y-95048037D01*
X118324211Y-95202599D01*
X118324211Y-95202602D01*
X118314500Y-95301209D01*
X118314500Y-95458790D01*
X118324211Y-95557397D01*
X118324211Y-95557400D01*
X118324213Y-95557410D01*
X118354956Y-95711968D01*
X118375954Y-95781190D01*
X118383722Y-95806799D01*
X118444029Y-95952391D01*
X118444031Y-95952396D01*
X118490734Y-96039771D01*
X118490751Y-96039799D01*
X118578278Y-96170793D01*
X118578286Y-96170804D01*
X118578291Y-96170811D01*
X118641157Y-96247412D01*
X118752588Y-96358843D01*
X118829189Y-96421709D01*
X118829198Y-96421715D01*
X118829206Y-96421721D01*
X118960200Y-96509248D01*
X118960205Y-96509251D01*
X118960217Y-96509259D01*
X118960226Y-96509263D01*
X118960228Y-96509265D01*
X119024704Y-96543728D01*
X119074548Y-96592690D01*
X119090009Y-96660828D01*
X119066178Y-96726507D01*
X119018657Y-96765468D01*
X118967264Y-96789433D01*
X118780858Y-96919954D01*
X118619954Y-97080858D01*
X118489432Y-97267265D01*
X118489431Y-97267267D01*
X118393261Y-97473502D01*
X118393258Y-97473511D01*
X118334366Y-97693302D01*
X118334364Y-97693312D01*
X118319500Y-97863214D01*
X118319500Y-97976785D01*
X118334364Y-98146687D01*
X118334366Y-98146697D01*
X118393258Y-98366488D01*
X118393261Y-98366497D01*
X118489431Y-98572732D01*
X118489432Y-98572734D01*
X118619954Y-98759141D01*
X118780858Y-98920045D01*
X118780861Y-98920047D01*
X118967266Y-99050568D01*
X119025275Y-99077618D01*
X119077714Y-99123791D01*
X119096866Y-99190984D01*
X119076650Y-99257865D01*
X119025275Y-99302382D01*
X118967267Y-99329431D01*
X118967265Y-99329432D01*
X118780858Y-99459954D01*
X118619954Y-99620858D01*
X118489432Y-99807265D01*
X118489431Y-99807267D01*
X118393261Y-100013502D01*
X118393258Y-100013511D01*
X118334366Y-100233302D01*
X118334364Y-100233312D01*
X118319500Y-100403214D01*
X118319500Y-100516785D01*
X118334364Y-100686687D01*
X118334366Y-100686697D01*
X118393258Y-100906488D01*
X118393261Y-100906497D01*
X118489431Y-101112732D01*
X118489432Y-101112734D01*
X118619954Y-101299141D01*
X118780858Y-101460045D01*
X118780861Y-101460047D01*
X118967266Y-101590568D01*
X119025275Y-101617618D01*
X119077714Y-101663791D01*
X119096866Y-101730984D01*
X119076650Y-101797865D01*
X119025275Y-101842382D01*
X118967267Y-101869431D01*
X118967265Y-101869432D01*
X118780858Y-101999954D01*
X118619954Y-102160858D01*
X118489432Y-102347265D01*
X118489431Y-102347267D01*
X118393261Y-102553502D01*
X118393258Y-102553511D01*
X118334366Y-102773302D01*
X118334364Y-102773312D01*
X118319500Y-102943214D01*
X118319500Y-103056785D01*
X118334364Y-103226687D01*
X118334366Y-103226697D01*
X118393258Y-103446488D01*
X118393261Y-103446497D01*
X118489431Y-103652732D01*
X118489432Y-103652734D01*
X118619954Y-103839141D01*
X118780858Y-104000045D01*
X118780861Y-104000047D01*
X118967266Y-104130568D01*
X119025275Y-104157618D01*
X119077714Y-104203791D01*
X119096866Y-104270984D01*
X119076650Y-104337865D01*
X119025275Y-104382382D01*
X118967267Y-104409431D01*
X118967265Y-104409432D01*
X118780858Y-104539954D01*
X118619954Y-104700858D01*
X118489432Y-104887265D01*
X118489431Y-104887267D01*
X118393261Y-105093502D01*
X118393258Y-105093511D01*
X118334366Y-105313302D01*
X118334364Y-105313312D01*
X118319500Y-105483214D01*
X118319500Y-105596785D01*
X118334364Y-105766687D01*
X118334366Y-105766697D01*
X118393258Y-105986488D01*
X118393261Y-105986497D01*
X118489431Y-106192732D01*
X118489432Y-106192734D01*
X118619954Y-106379141D01*
X118780858Y-106540045D01*
X118780861Y-106540047D01*
X118967266Y-106670568D01*
X119018655Y-106694531D01*
X119071095Y-106740703D01*
X119090247Y-106807896D01*
X119070032Y-106874778D01*
X119024705Y-106916271D01*
X118974288Y-106943219D01*
X118960217Y-106950741D01*
X118960214Y-106950742D01*
X118960200Y-106950751D01*
X118829206Y-107038278D01*
X118829194Y-107038287D01*
X118829189Y-107038290D01*
X118829189Y-107038291D01*
X118752588Y-107101157D01*
X118752585Y-107101160D01*
X118752582Y-107101162D01*
X118641162Y-107212582D01*
X118641160Y-107212585D01*
X118641157Y-107212588D01*
X118613084Y-107246795D01*
X118578287Y-107289194D01*
X118578278Y-107289206D01*
X118490751Y-107420200D01*
X118490734Y-107420228D01*
X118444031Y-107507603D01*
X118444029Y-107507608D01*
X118383722Y-107653200D01*
X118368186Y-107704416D01*
X118354956Y-107748032D01*
X118354955Y-107748036D01*
X118354955Y-107748037D01*
X118324211Y-107902599D01*
X118324211Y-107902602D01*
X118314500Y-108001209D01*
X118314500Y-108158790D01*
X118324211Y-108257397D01*
X118324211Y-108257400D01*
X118324213Y-108257410D01*
X118354956Y-108411968D01*
X118375593Y-108480000D01*
X118383722Y-108506799D01*
X118444029Y-108652391D01*
X118444031Y-108652396D01*
X118490734Y-108739771D01*
X118490751Y-108739799D01*
X118578278Y-108870793D01*
X118578286Y-108870804D01*
X118578291Y-108870811D01*
X118641157Y-108947412D01*
X118752588Y-109058843D01*
X118829189Y-109121709D01*
X118829198Y-109121715D01*
X118829206Y-109121721D01*
X118960200Y-109209248D01*
X118960205Y-109209251D01*
X118960217Y-109209259D01*
X118960226Y-109209263D01*
X118960228Y-109209265D01*
X119024704Y-109243728D01*
X119074548Y-109292690D01*
X119090009Y-109360828D01*
X119066178Y-109426507D01*
X119018657Y-109465468D01*
X118967264Y-109489433D01*
X118780858Y-109619954D01*
X118619954Y-109780858D01*
X118489432Y-109967265D01*
X118489431Y-109967267D01*
X118393261Y-110173502D01*
X118393258Y-110173511D01*
X118334366Y-110393302D01*
X118334364Y-110393312D01*
X118319500Y-110563214D01*
X118319500Y-110676785D01*
X118334364Y-110846687D01*
X118334366Y-110846697D01*
X118393258Y-111066488D01*
X118393261Y-111066497D01*
X118489431Y-111272732D01*
X118489432Y-111272734D01*
X118619954Y-111459141D01*
X118780858Y-111620045D01*
X118780861Y-111620047D01*
X118967266Y-111750568D01*
X119025275Y-111777618D01*
X119077714Y-111823791D01*
X119096866Y-111890984D01*
X119076650Y-111957865D01*
X119025275Y-112002382D01*
X118967267Y-112029431D01*
X118967265Y-112029432D01*
X118780858Y-112159954D01*
X118619954Y-112320858D01*
X118489432Y-112507265D01*
X118489431Y-112507267D01*
X118393261Y-112713502D01*
X118393258Y-112713511D01*
X118334366Y-112933302D01*
X118334364Y-112933312D01*
X118319500Y-113103214D01*
X118319500Y-113216785D01*
X118334364Y-113386687D01*
X118334366Y-113386697D01*
X118393258Y-113606488D01*
X118393261Y-113606497D01*
X118489431Y-113812732D01*
X118489432Y-113812734D01*
X118619954Y-113999141D01*
X118780858Y-114160045D01*
X118780861Y-114160047D01*
X118967266Y-114290568D01*
X119025275Y-114317618D01*
X119077714Y-114363791D01*
X119096866Y-114430984D01*
X119076650Y-114497865D01*
X119025275Y-114542382D01*
X118967267Y-114569431D01*
X118967265Y-114569432D01*
X118780858Y-114699954D01*
X118619954Y-114860858D01*
X118489432Y-115047265D01*
X118489431Y-115047267D01*
X118393261Y-115253502D01*
X118393258Y-115253511D01*
X118334366Y-115473302D01*
X118334364Y-115473312D01*
X118319500Y-115643214D01*
X118319500Y-115756785D01*
X118334364Y-115926687D01*
X118334366Y-115926697D01*
X118393258Y-116146488D01*
X118393261Y-116146497D01*
X118489431Y-116352732D01*
X118489432Y-116352734D01*
X118619954Y-116539141D01*
X118780858Y-116700045D01*
X118780861Y-116700047D01*
X118967266Y-116830568D01*
X119025275Y-116857618D01*
X119077714Y-116903791D01*
X119096866Y-116970984D01*
X119076650Y-117037865D01*
X119025275Y-117082382D01*
X118967267Y-117109431D01*
X118967265Y-117109432D01*
X118780858Y-117239954D01*
X118619954Y-117400858D01*
X118594912Y-117436623D01*
X118540335Y-117480248D01*
X118493337Y-117489500D01*
X115186080Y-117489500D01*
X115041092Y-117518340D01*
X115041082Y-117518343D01*
X114904509Y-117574913D01*
X114904507Y-117574914D01*
X114863645Y-117602218D01*
X114863643Y-117602219D01*
X114781589Y-117657043D01*
X114781584Y-117657047D01*
X108867047Y-123571584D01*
X108858425Y-123584489D01*
X108840154Y-123611835D01*
X108831669Y-123624534D01*
X108784914Y-123694507D01*
X108728343Y-123831082D01*
X108728340Y-123831092D01*
X108699500Y-123976079D01*
X108699500Y-128005500D01*
X108679815Y-128072539D01*
X108627011Y-128118294D01*
X108575500Y-128129500D01*
X108230830Y-128129500D01*
X108230808Y-128129501D01*
X108194794Y-128132335D01*
X108040611Y-128177129D01*
X108040606Y-128177131D01*
X108031982Y-128182232D01*
X107968861Y-128199500D01*
X107341831Y-128199500D01*
X107196843Y-128228340D01*
X107196833Y-128228343D01*
X107060262Y-128284912D01*
X107060249Y-128284919D01*
X106937335Y-128367048D01*
X106937331Y-128367051D01*
X104826202Y-130478181D01*
X104764879Y-130511666D01*
X104738521Y-130514500D01*
X103772631Y-130514500D01*
X103767592Y-130513020D01*
X103762451Y-130514081D01*
X103734419Y-130503279D01*
X103705592Y-130494815D01*
X103700836Y-130490339D01*
X103697254Y-130488959D01*
X103673607Y-130464713D01*
X103672568Y-130463735D01*
X103672381Y-130463479D01*
X103544517Y-130287490D01*
X103541010Y-130283983D01*
X103535376Y-130276285D01*
X103526627Y-130252034D01*
X103514273Y-130229408D01*
X103514966Y-130219708D01*
X103511667Y-130210561D01*
X103517417Y-130185431D01*
X103519257Y-130159716D01*
X103525084Y-130151931D01*
X103527254Y-130142452D01*
X103545680Y-130124419D01*
X103561129Y-130103783D01*
X103570334Y-130097516D01*
X103618656Y-130067712D01*
X103742712Y-129943656D01*
X103834814Y-129794334D01*
X103889999Y-129627797D01*
X103900500Y-129525009D01*
X103900499Y-127924992D01*
X103889999Y-127822203D01*
X103834814Y-127655666D01*
X103742712Y-127506344D01*
X103618656Y-127382288D01*
X103469334Y-127290186D01*
X103302797Y-127235001D01*
X103302795Y-127235000D01*
X103200010Y-127224500D01*
X101599998Y-127224500D01*
X101599981Y-127224501D01*
X101497203Y-127235000D01*
X101497200Y-127235001D01*
X101330668Y-127290185D01*
X101330663Y-127290187D01*
X101181342Y-127382289D01*
X101057289Y-127506342D01*
X100965187Y-127655663D01*
X100965185Y-127655668D01*
X100945592Y-127714796D01*
X100910001Y-127822203D01*
X100910001Y-127822204D01*
X100910000Y-127822204D01*
X100899500Y-127924983D01*
X96300500Y-127924983D01*
X96300500Y-123197383D01*
X96320185Y-123130344D01*
X96372989Y-123084589D01*
X96442147Y-123074645D01*
X96505703Y-123103670D01*
X96531232Y-123134262D01*
X96557039Y-123177900D01*
X96557046Y-123177909D01*
X96671377Y-123292240D01*
X96671386Y-123292247D01*
X96810565Y-123374557D01*
X96965850Y-123419671D01*
X96986761Y-123421315D01*
X97486761Y-123421315D01*
X97507671Y-123419671D01*
X97662956Y-123374557D01*
X97802135Y-123292247D01*
X97802144Y-123292240D01*
X97916475Y-123177909D01*
X97916482Y-123177900D01*
X97998792Y-123038721D01*
X98041265Y-122892526D01*
X97486761Y-122892526D01*
X97486761Y-123421315D01*
X96986761Y-123421315D01*
X96986761Y-122766526D01*
X97006446Y-122699487D01*
X97059250Y-122653732D01*
X97110761Y-122642526D01*
X97236761Y-122642526D01*
X97236761Y-122587026D01*
X97256446Y-122519987D01*
X97309250Y-122474232D01*
X97360761Y-122463026D01*
X97471443Y-122463026D01*
X97471451Y-122463026D01*
X97507754Y-122460169D01*
X97507756Y-122460168D01*
X97507758Y-122460168D01*
X97621388Y-122427155D01*
X99300000Y-122427155D01*
X99300000Y-124022844D01*
X99306401Y-124082375D01*
X99315277Y-124106170D01*
X100112352Y-123309095D01*
X100135792Y-123396571D01*
X100194311Y-123497930D01*
X100277070Y-123580689D01*
X100378429Y-123639208D01*
X100465904Y-123662647D01*
X99668829Y-124459720D01*
X99668829Y-124459722D01*
X99692622Y-124468597D01*
X99692623Y-124468598D01*
X99752155Y-124474999D01*
X99752172Y-124475000D01*
X101347828Y-124475000D01*
X101347844Y-124474999D01*
X101407372Y-124468598D01*
X101431169Y-124459721D01*
X100634095Y-123662647D01*
X100721571Y-123639208D01*
X100822930Y-123580689D01*
X100905689Y-123497930D01*
X100964208Y-123396571D01*
X100987647Y-123309095D01*
X101913636Y-124235084D01*
X101913645Y-124235091D01*
X101994852Y-124294093D01*
X102170164Y-124383418D01*
X102357294Y-124444221D01*
X102551618Y-124475000D01*
X102748382Y-124475000D01*
X102942705Y-124444221D01*
X103129835Y-124383418D01*
X103305143Y-124294095D01*
X103340125Y-124268678D01*
X103340126Y-124268678D01*
X102734094Y-123662647D01*
X102821571Y-123639208D01*
X102922930Y-123580689D01*
X103005689Y-123497930D01*
X103064208Y-123396571D01*
X103087647Y-123309095D01*
X103693678Y-123915126D01*
X103693678Y-123915125D01*
X103719095Y-123880143D01*
X103808418Y-123704835D01*
X103869221Y-123517705D01*
X103900000Y-123323382D01*
X103900000Y-123126617D01*
X103869221Y-122932294D01*
X103808418Y-122745164D01*
X103719096Y-122569858D01*
X103693678Y-122534873D01*
X103693677Y-122534873D01*
X103087647Y-123140904D01*
X103064208Y-123053429D01*
X103005689Y-122952070D01*
X102922930Y-122869311D01*
X102821571Y-122810792D01*
X102734093Y-122787352D01*
X103340125Y-122181320D01*
X103340125Y-122181319D01*
X103305145Y-122155905D01*
X103129835Y-122066581D01*
X102942705Y-122005778D01*
X102748382Y-121975000D01*
X102551618Y-121975000D01*
X102357294Y-122005778D01*
X102170164Y-122066581D01*
X101994855Y-122155905D01*
X101994846Y-122155911D01*
X101913644Y-122214906D01*
X101913640Y-122214910D01*
X100987646Y-123140904D01*
X100964208Y-123053429D01*
X100905689Y-122952070D01*
X100822930Y-122869311D01*
X100721571Y-122810792D01*
X100634095Y-122787353D01*
X101431170Y-121990277D01*
X101431170Y-121990276D01*
X101407375Y-121981401D01*
X101347844Y-121975000D01*
X99752155Y-121975000D01*
X99692627Y-121981401D01*
X99692623Y-121981402D01*
X99668829Y-121990277D01*
X100465904Y-122787352D01*
X100378429Y-122810792D01*
X100277070Y-122869311D01*
X100194311Y-122952070D01*
X100135792Y-123053429D01*
X100112353Y-123140904D01*
X99315277Y-122343829D01*
X99306402Y-122367623D01*
X99306401Y-122367627D01*
X99300000Y-122427155D01*
X97621388Y-122427155D01*
X97663150Y-122415022D01*
X97663150Y-122415021D01*
X97663156Y-122415020D01*
X97671994Y-122409793D01*
X97735113Y-122392526D01*
X98041265Y-122392526D01*
X98041265Y-122392525D01*
X97998792Y-122246329D01*
X97986851Y-122226139D01*
X97969667Y-122158415D01*
X97977231Y-122120138D01*
X97981119Y-122109586D01*
X97999255Y-122078921D01*
X98038699Y-121943156D01*
X98044403Y-121923523D01*
X98044404Y-121923517D01*
X98047261Y-121887216D01*
X98047261Y-121477836D01*
X98044404Y-121441533D01*
X98022542Y-121366285D01*
X98022544Y-121365319D01*
X98022037Y-121364498D01*
X98022644Y-121330464D01*
X98022741Y-121296418D01*
X98023271Y-121295287D01*
X98023283Y-121294640D01*
X98038514Y-121262803D01*
X98093011Y-121181242D01*
X98101845Y-121168021D01*
X98135636Y-121086443D01*
X98158420Y-121031438D01*
X98187261Y-120886443D01*
X98187261Y-120738608D01*
X98158420Y-120593613D01*
X98130132Y-120525322D01*
X98101846Y-120457032D01*
X98074342Y-120415869D01*
X98019713Y-120334110D01*
X98019711Y-120334108D01*
X98019709Y-120334105D01*
X97915181Y-120229577D01*
X97882306Y-120207611D01*
X97841491Y-120180339D01*
X97792254Y-120147440D01*
X97655674Y-120090867D01*
X97655666Y-120090865D01*
X97510683Y-120062026D01*
X97510679Y-120062026D01*
X97362843Y-120062026D01*
X97362837Y-120062026D01*
X97334003Y-120067760D01*
X97334004Y-120067761D01*
X97217854Y-120090865D01*
X97217850Y-120090866D01*
X97146993Y-120120217D01*
X97081270Y-120147440D01*
X97081257Y-120147447D01*
X97032030Y-120180339D01*
X96958349Y-120229570D01*
X96958341Y-120229576D01*
X96653810Y-120534107D01*
X96614050Y-120593612D01*
X96614051Y-120593613D01*
X96571676Y-120657032D01*
X96539061Y-120735773D01*
X96495220Y-120790176D01*
X96428926Y-120812241D01*
X96361227Y-120794962D01*
X96313616Y-120743825D01*
X96300500Y-120688320D01*
X96300500Y-92846077D01*
X98839098Y-92846077D01*
X98839098Y-99338020D01*
X98869888Y-99532424D01*
X98930715Y-99719627D01*
X99016432Y-99887855D01*
X99020074Y-99895003D01*
X99135770Y-100054244D01*
X99135772Y-100054246D01*
X99238181Y-100156655D01*
X99271666Y-100217978D01*
X99274500Y-100244335D01*
X99274500Y-100472869D01*
X99274501Y-100472876D01*
X99280908Y-100532483D01*
X99331202Y-100667328D01*
X99331206Y-100667335D01*
X99417452Y-100782544D01*
X99417455Y-100782547D01*
X99532664Y-100868793D01*
X99532671Y-100868797D01*
X99577618Y-100885561D01*
X99667517Y-100919091D01*
X99727127Y-100925500D01*
X100416580Y-100925499D01*
X100416594Y-100925500D01*
X100426583Y-100925500D01*
X102723422Y-100925500D01*
X102917826Y-100894709D01*
X102997574Y-100868797D01*
X103105025Y-100833884D01*
X103280405Y-100744524D01*
X103439646Y-100628828D01*
X103578828Y-100489646D01*
X103694524Y-100330405D01*
X103780603Y-100161463D01*
X103783882Y-100155029D01*
X103783882Y-100155028D01*
X103783884Y-100155025D01*
X103844709Y-99967826D01*
X103870139Y-99807267D01*
X103875500Y-99773422D01*
X103875500Y-99576577D01*
X103844709Y-99382173D01*
X103815733Y-99292996D01*
X103783884Y-99194975D01*
X103783882Y-99194972D01*
X103783882Y-99194970D01*
X103731530Y-99092224D01*
X103694524Y-99019595D01*
X103578828Y-98860354D01*
X103439646Y-98721172D01*
X103280405Y-98605476D01*
X103105029Y-98516117D01*
X102917826Y-98455290D01*
X102723422Y-98424500D01*
X102723417Y-98424500D01*
X101464098Y-98424500D01*
X101397059Y-98404815D01*
X101351304Y-98352011D01*
X101340098Y-98300500D01*
X101340098Y-94517922D01*
X101359783Y-94450883D01*
X101412587Y-94405128D01*
X101425780Y-94399991D01*
X101625592Y-94335068D01*
X101836033Y-94227843D01*
X102027110Y-94089017D01*
X102027116Y-94089011D01*
X102030821Y-94085848D01*
X102032384Y-94087679D01*
X102084892Y-94058839D01*
X102154596Y-94063652D01*
X102210632Y-94105385D01*
X102217087Y-94114842D01*
X102234901Y-94143722D01*
X102246888Y-94163156D01*
X102370944Y-94287212D01*
X102520266Y-94379314D01*
X102686803Y-94434499D01*
X102789591Y-94445000D01*
X103506585Y-94444999D01*
X103544903Y-94451068D01*
X103564998Y-94457597D01*
X103602274Y-94469709D01*
X103657819Y-94478506D01*
X103796678Y-94500500D01*
X103796683Y-94500500D01*
X112698414Y-94500500D01*
X112698415Y-94500500D01*
X112799263Y-94484526D01*
X112818661Y-94483000D01*
X113053097Y-94483000D01*
X113286368Y-94446053D01*
X113321927Y-94434499D01*
X113510992Y-94373068D01*
X113721433Y-94265843D01*
X113912510Y-94127017D01*
X113912516Y-94127011D01*
X113916221Y-94123848D01*
X113917784Y-94125679D01*
X113970292Y-94096839D01*
X114039996Y-94101652D01*
X114096032Y-94143385D01*
X114102487Y-94152842D01*
X114132287Y-94201155D01*
X114132288Y-94201156D01*
X114256344Y-94325212D01*
X114405666Y-94417314D01*
X114572203Y-94472499D01*
X114674991Y-94483000D01*
X114725500Y-94482999D01*
X114792538Y-94502682D01*
X114838293Y-94555485D01*
X114849500Y-94606999D01*
X114849500Y-98325500D01*
X114829815Y-98392539D01*
X114777011Y-98438294D01*
X114725500Y-98449500D01*
X112802129Y-98449500D01*
X112802123Y-98449501D01*
X112742516Y-98455908D01*
X112607671Y-98506202D01*
X112607664Y-98506206D01*
X112492455Y-98592452D01*
X112492452Y-98592455D01*
X112406206Y-98707664D01*
X112406202Y-98707671D01*
X112355908Y-98842517D01*
X112349501Y-98902116D01*
X112349500Y-98902135D01*
X112349500Y-100497870D01*
X112349501Y-100497876D01*
X112355908Y-100557483D01*
X112406202Y-100692328D01*
X112406206Y-100692335D01*
X112492452Y-100807544D01*
X112492455Y-100807547D01*
X112607664Y-100893793D01*
X112607671Y-100893797D01*
X112641698Y-100906488D01*
X112742517Y-100944091D01*
X112802127Y-100950500D01*
X113491580Y-100950499D01*
X113491594Y-100950500D01*
X113501583Y-100950500D01*
X115798422Y-100950500D01*
X115992826Y-100919709D01*
X116033497Y-100906494D01*
X116180025Y-100858884D01*
X116355405Y-100769524D01*
X116514646Y-100653828D01*
X116653828Y-100514646D01*
X116752040Y-100379467D01*
X116779467Y-100352040D01*
X116914646Y-100253828D01*
X117053828Y-100114646D01*
X117169524Y-99955405D01*
X117258884Y-99780025D01*
X117319709Y-99592826D01*
X117340754Y-99459953D01*
X117350500Y-99398422D01*
X117350500Y-93151577D01*
X117319709Y-92957173D01*
X117264686Y-92787832D01*
X117258884Y-92769975D01*
X117258882Y-92769972D01*
X117258882Y-92769970D01*
X117210139Y-92674306D01*
X117169524Y-92594595D01*
X117053828Y-92435354D01*
X117011818Y-92393344D01*
X116978333Y-92332021D01*
X116975499Y-92305663D01*
X116975499Y-92182498D01*
X116975498Y-92182481D01*
X116964999Y-92079703D01*
X116964998Y-92079700D01*
X116909814Y-91913166D01*
X116817712Y-91763844D01*
X116693656Y-91639788D01*
X116581390Y-91570542D01*
X116544336Y-91547687D01*
X116544331Y-91547685D01*
X116481120Y-91526739D01*
X116377797Y-91492501D01*
X116377795Y-91492500D01*
X116275010Y-91482000D01*
X114674998Y-91482000D01*
X114674981Y-91482001D01*
X114572203Y-91492500D01*
X114572200Y-91492501D01*
X114405668Y-91547685D01*
X114405663Y-91547687D01*
X114256342Y-91639789D01*
X114132287Y-91763844D01*
X114102487Y-91812158D01*
X114050539Y-91858882D01*
X113981576Y-91870103D01*
X113917494Y-91842259D01*
X113916241Y-91841114D01*
X113916214Y-91841147D01*
X113912517Y-91837990D01*
X113912510Y-91837983D01*
X113721433Y-91699157D01*
X113684373Y-91680274D01*
X113510996Y-91591933D01*
X113286368Y-91518946D01*
X113053097Y-91482000D01*
X113053092Y-91482000D01*
X112816908Y-91482000D01*
X112816903Y-91482000D01*
X112583631Y-91518946D01*
X112359003Y-91591933D01*
X112148566Y-91699157D01*
X112076838Y-91751271D01*
X111957490Y-91837983D01*
X111957488Y-91837985D01*
X111957487Y-91837985D01*
X111832292Y-91963181D01*
X111770969Y-91996666D01*
X111744611Y-91999500D01*
X105155155Y-91999500D01*
X105088116Y-91979815D01*
X105042361Y-91927011D01*
X105037449Y-91914504D01*
X105024414Y-91875166D01*
X104932312Y-91725844D01*
X104808256Y-91601788D01*
X104702525Y-91536573D01*
X104658936Y-91509687D01*
X104658931Y-91509685D01*
X104657462Y-91509198D01*
X104492397Y-91454501D01*
X104492395Y-91454500D01*
X104389610Y-91444000D01*
X102789598Y-91444000D01*
X102789581Y-91444001D01*
X102686803Y-91454500D01*
X102686800Y-91454501D01*
X102520268Y-91509685D01*
X102520263Y-91509687D01*
X102370942Y-91601789D01*
X102246887Y-91725844D01*
X102217087Y-91774158D01*
X102165139Y-91820882D01*
X102096176Y-91832103D01*
X102032094Y-91804259D01*
X102030841Y-91803114D01*
X102030814Y-91803147D01*
X102027117Y-91799990D01*
X102027110Y-91799983D01*
X101836033Y-91661157D01*
X101790858Y-91638139D01*
X101625596Y-91553933D01*
X101400968Y-91480946D01*
X101167697Y-91444000D01*
X101167692Y-91444000D01*
X100931508Y-91444000D01*
X100931503Y-91444000D01*
X100698231Y-91480946D01*
X100473603Y-91553933D01*
X100263168Y-91661156D01*
X100263161Y-91661160D01*
X100250554Y-91670320D01*
X100184747Y-91693798D01*
X100177672Y-91694000D01*
X99991176Y-91694000D01*
X99796771Y-91724790D01*
X99609568Y-91785617D01*
X99434192Y-91874976D01*
X99379665Y-91914593D01*
X99274952Y-91990672D01*
X99274950Y-91990674D01*
X99274949Y-91990674D01*
X99135772Y-92129851D01*
X99135772Y-92129852D01*
X99135770Y-92129854D01*
X99102496Y-92175652D01*
X99020074Y-92289094D01*
X98930715Y-92464470D01*
X98869888Y-92651673D01*
X98839098Y-92846077D01*
X96300500Y-92846077D01*
X96300500Y-86924500D01*
X96320185Y-86857461D01*
X96372989Y-86811706D01*
X96424500Y-86800500D01*
X145075500Y-86800500D01*
X145142539Y-86820185D01*
G37*
%TD.AperFunction*%
%TD*%
M02*
