%TF.GenerationSoftware,KiCad,Pcbnew,9.0.7-9.0.7~ubuntu24.04.1*%
%TF.CreationDate,2026-03-04T01:19:00+00:00*%
%TF.ProjectId,ignition,69676e69-7469-46f6-9e2e-6b696361645f,rev?*%
%TF.SameCoordinates,Original*%
%TF.FileFunction,Copper,L2,Bot*%
%TF.FilePolarity,Positive*%
%FSLAX46Y46*%
G04 Gerber Fmt 4.6, Leading zero omitted, Abs format (unit mm)*
G04 Created by KiCad (PCBNEW 9.0.7-9.0.7~ubuntu24.04.1) date 2026-03-04 01:19:00*
%MOMM*%
%LPD*%
G01*
G04 APERTURE LIST*
G04 Aperture macros list*
%AMRoundRect*
0 Rectangle with rounded corners*
0 $1 Rounding radius*
0 $2 $3 $4 $5 $6 $7 $8 $9 X,Y pos of 4 corners*
0 Add a 4 corners polygon primitive as box body*
4,1,4,$2,$3,$4,$5,$6,$7,$8,$9,$2,$3,0*
0 Add four circle primitives for the rounded corners*
1,1,$1+$1,$2,$3*
1,1,$1+$1,$4,$5*
1,1,$1+$1,$6,$7*
1,1,$1+$1,$8,$9*
0 Add four rect primitives between the rounded corners*
20,1,$1+$1,$2,$3,$4,$5,0*
20,1,$1+$1,$4,$5,$6,$7,0*
20,1,$1+$1,$6,$7,$8,$9,0*
20,1,$1+$1,$8,$9,$2,$3,0*%
%AMFreePoly0*
4,1,37,0.603843,0.796157,0.639018,0.796157,0.711114,0.766294,0.766294,0.711114,0.796157,0.639018,0.796157,0.603843,0.800000,0.600000,0.800000,-0.600000,0.796157,-0.603843,0.796157,-0.639018,0.766294,-0.711114,0.711114,-0.766294,0.639018,-0.796157,0.603843,-0.796157,0.600000,-0.800000,0.000000,-0.800000,0.000000,-0.796148,-0.078414,-0.796148,-0.232228,-0.765552,-0.377117,-0.705537,
-0.507515,-0.618408,-0.618408,-0.507515,-0.705537,-0.377117,-0.765552,-0.232228,-0.796148,-0.078414,-0.796148,0.078414,-0.765552,0.232228,-0.705537,0.377117,-0.618408,0.507515,-0.507515,0.618408,-0.377117,0.705537,-0.232228,0.765552,-0.078414,0.796148,0.000000,0.796148,0.000000,0.800000,0.600000,0.800000,0.603843,0.796157,0.603843,0.796157,$1*%
%AMFreePoly1*
4,1,37,0.000000,0.796148,0.078414,0.796148,0.232228,0.765552,0.377117,0.705537,0.507515,0.618408,0.618408,0.507515,0.705537,0.377117,0.765552,0.232228,0.796148,0.078414,0.796148,-0.078414,0.765552,-0.232228,0.705537,-0.377117,0.618408,-0.507515,0.507515,-0.618408,0.377117,-0.705537,0.232228,-0.765552,0.078414,-0.796148,0.000000,-0.796148,0.000000,-0.800000,-0.600000,-0.800000,
-0.603843,-0.796157,-0.639018,-0.796157,-0.711114,-0.766294,-0.766294,-0.711114,-0.796157,-0.639018,-0.796157,-0.603843,-0.800000,-0.600000,-0.800000,0.600000,-0.796157,0.603843,-0.796157,0.639018,-0.766294,0.711114,-0.711114,0.766294,-0.639018,0.796157,-0.603843,0.796157,-0.600000,0.800000,0.000000,0.800000,0.000000,0.796148,0.000000,0.796148,$1*%
G04 Aperture macros list end*
%TA.AperFunction,ComponentPad*%
%ADD10R,2.000000X1.905000*%
%TD*%
%TA.AperFunction,ComponentPad*%
%ADD11O,2.000000X1.905000*%
%TD*%
%TA.AperFunction,ComponentPad*%
%ADD12R,1.700000X1.700000*%
%TD*%
%TA.AperFunction,ComponentPad*%
%ADD13C,1.700000*%
%TD*%
%TA.AperFunction,ComponentPad*%
%ADD14RoundRect,0.250000X0.750000X0.750000X-0.750000X0.750000X-0.750000X-0.750000X0.750000X-0.750000X0*%
%TD*%
%TA.AperFunction,ComponentPad*%
%ADD15C,2.000000*%
%TD*%
%TA.AperFunction,ComponentPad*%
%ADD16RoundRect,0.250000X-0.750000X-0.750000X0.750000X-0.750000X0.750000X0.750000X-0.750000X0.750000X0*%
%TD*%
%TA.AperFunction,ComponentPad*%
%ADD17C,1.500000*%
%TD*%
%TA.AperFunction,ComponentPad*%
%ADD18R,1.500000X1.500000*%
%TD*%
%TA.AperFunction,ComponentPad*%
%ADD19RoundRect,0.250000X-0.750000X0.750000X-0.750000X-0.750000X0.750000X-0.750000X0.750000X0.750000X0*%
%TD*%
%TA.AperFunction,ComponentPad*%
%ADD20RoundRect,0.200000X-0.600000X-0.600000X0.600000X-0.600000X0.600000X0.600000X-0.600000X0.600000X0*%
%TD*%
%TA.AperFunction,ComponentPad*%
%ADD21C,1.600000*%
%TD*%
%TA.AperFunction,ComponentPad*%
%ADD22FreePoly0,0.000000*%
%TD*%
%TA.AperFunction,ComponentPad*%
%ADD23FreePoly1,0.000000*%
%TD*%
%TA.AperFunction,ComponentPad*%
%ADD24C,1.371600*%
%TD*%
%TA.AperFunction,ViaPad*%
%ADD25C,0.600000*%
%TD*%
%TA.AperFunction,ViaPad*%
%ADD26C,0.500000*%
%TD*%
%TA.AperFunction,Conductor*%
%ADD27C,0.500000*%
%TD*%
G04 APERTURE END LIST*
D10*
%TO.P,Q1,1,G*%
%TO.N,Net-(Q1-G)*%
X114500000Y-131260999D03*
D11*
%TO.P,Q1,2,D*%
%TO.N,Net-(J2-Pin_1)*%
X114500000Y-133800999D03*
%TO.P,Q1,3,S*%
%TO.N,GND*%
X114500000Y-136340999D03*
%TD*%
D12*
%TO.P,U1,1,VCC*%
%TO.N,+3.3V*%
X141800000Y-164220000D03*
D13*
%TO.P,U1,2,GND*%
%TO.N,GND*%
X141800000Y-161680000D03*
%TO.P,U1,3,MISO_TX*%
%TO.N,/RD_MISO*%
X141800000Y-159140000D03*
%TO.P,U1,4,MOSI_RX*%
%TO.N,/RD_MOSI*%
X141800000Y-156600000D03*
%TO.P,U1,5,SCK_RTSN*%
%TO.N,/RD_SCK*%
X141800000Y-154060000D03*
%TO.P,U1,6,NSS_CTS*%
%TO.N,/RD_NSS*%
X141800000Y-151520000D03*
%TO.P,U1,7,GND*%
%TO.N,GND*%
X141800000Y-148980000D03*
%TO.P,U1,8,RX_EN*%
%TO.N,/RD_RX*%
X141800000Y-146440000D03*
%TO.P,U1,9,TX_EN*%
%TO.N,/RD_TX*%
X119000000Y-146440000D03*
%TO.P,U1,10,GND*%
%TO.N,GND*%
X119000000Y-148980000D03*
%TO.P,U1,11,NRESET*%
%TO.N,/RD_RESET*%
X119000000Y-151520000D03*
%TO.P,U1,12,BUSY*%
%TO.N,/RD_BUSY*%
X119000000Y-154060000D03*
%TO.P,U1,13,DIO1*%
%TO.N,/RD_DIO1*%
X119000000Y-156600000D03*
%TO.P,U1,14,DIO2*%
%TO.N,/RD_DIO2*%
X119000000Y-159140000D03*
%TO.P,U1,15,DIO3*%
%TO.N,/RD_DIO3*%
X119000000Y-161680000D03*
D12*
%TO.P,U1,16,GND*%
%TO.N,GND*%
X119000000Y-164220000D03*
%TD*%
D14*
%TO.P,Switch1,1,Pin_1*%
%TO.N,Net-(PILHAS1-Pin_2)*%
X103589600Y-92944500D03*
D15*
%TO.P,Switch1,2,Pin_2*%
%TO.N,/REG_IN*%
X101049600Y-92944500D03*
%TD*%
D16*
%TO.P,Switch2,1,Pin_1*%
%TO.N,Net-(KEY1-Pin_2)*%
X111160000Y-163500000D03*
D15*
%TO.P,Switch2,2,Pin_2*%
%TO.N,+3.3V*%
X113700000Y-163500000D03*
%TD*%
D17*
%TO.P,U2,1,IN+*%
%TO.N,/REG_IN*%
X102625000Y-99675000D03*
D18*
X100525000Y-99675000D03*
D17*
%TO.P,U2,2,IN-*%
%TO.N,Net-(PILHAS1-Pin_1)*%
X115700000Y-99700000D03*
D18*
X113600000Y-99700000D03*
D17*
%TO.P,U2,3,OUT+*%
%TO.N,+3.3V*%
X102650000Y-123225000D03*
D18*
X100550000Y-123225000D03*
D17*
%TO.P,U2,4,OUT-*%
%TO.N,GND*%
X115725000Y-123250000D03*
D18*
X113625000Y-123250000D03*
%TD*%
D19*
%TO.P,KEY1,1,Pin_1*%
%TO.N,Net-(J2-Pin_2)*%
X102350000Y-147525000D03*
D15*
%TO.P,KEY1,2,Pin_2*%
%TO.N,Net-(KEY1-Pin_2)*%
X102350000Y-150065000D03*
%TD*%
D19*
%TO.P,J2,1,Pin_1*%
%TO.N,Net-(J2-Pin_1)*%
X102400000Y-136300000D03*
D15*
%TO.P,J2,2,Pin_2*%
%TO.N,Net-(J2-Pin_2)*%
X102400000Y-138840000D03*
%TD*%
D14*
%TO.P,PILHAS1,1,Pin_1*%
%TO.N,Net-(PILHAS1-Pin_1)*%
X115475000Y-92982500D03*
D15*
%TO.P,PILHAS1,2,Pin_2*%
%TO.N,Net-(PILHAS1-Pin_2)*%
X112935000Y-92982500D03*
%TD*%
D20*
%TO.P,A1,1,GPIO0*%
%TO.N,unconnected-(A1-GPIO0-Pad1)*%
X121220000Y-90300000D03*
D21*
%TO.P,A1,2,GPIO1*%
%TO.N,unconnected-(A1-GPIO1-Pad2)*%
X121220000Y-92840000D03*
D22*
%TO.P,A1,3,GND*%
%TO.N,GND*%
X121220000Y-95380000D03*
D21*
%TO.P,A1,4,GPIO2*%
%TO.N,unconnected-(A1-GPIO2-Pad4)*%
X121220000Y-97920000D03*
%TO.P,A1,5,GPIO3*%
%TO.N,unconnected-(A1-GPIO3-Pad5)*%
X121220000Y-100460000D03*
%TO.P,A1,6,GPIO4*%
%TO.N,unconnected-(A1-GPIO4-Pad6)*%
X121220000Y-103000000D03*
%TO.P,A1,7,GPIO5*%
%TO.N,unconnected-(A1-GPIO5-Pad7)*%
X121220000Y-105540000D03*
D22*
%TO.P,A1,8,GND*%
%TO.N,GND*%
X121220000Y-108080000D03*
D21*
%TO.P,A1,9,GPIO6*%
%TO.N,unconnected-(A1-GPIO6-Pad9)*%
X121220000Y-110620000D03*
%TO.P,A1,10,GPIO7*%
%TO.N,unconnected-(A1-GPIO7-Pad10)*%
X121220000Y-113160000D03*
%TO.P,A1,11,GPIO8*%
%TO.N,unconnected-(A1-GPIO8-Pad11)*%
X121220000Y-115700000D03*
%TO.P,A1,12,GPIO9*%
%TO.N,/FLAG_IGNITE*%
X121220000Y-118240000D03*
D22*
%TO.P,A1,13,GND*%
%TO.N,GND*%
X121220000Y-120780000D03*
D21*
%TO.P,A1,14,GPIO10*%
%TO.N,/RD_RX*%
X121220000Y-123320000D03*
%TO.P,A1,15,GPIO11*%
%TO.N,/LGC_IGNITE*%
X121220000Y-125860000D03*
%TO.P,A1,16,GPIO12*%
%TO.N,unconnected-(A1-GPIO12-Pad16)*%
X121220000Y-128400000D03*
%TO.P,A1,17,GPIO13*%
%TO.N,unconnected-(A1-GPIO13-Pad17)*%
X121220000Y-130940000D03*
D22*
%TO.P,A1,18,GND*%
%TO.N,GND*%
X121220000Y-133480000D03*
D21*
%TO.P,A1,19,GPIO14*%
%TO.N,unconnected-(A1-GPIO14-Pad19)*%
X121220000Y-136020000D03*
%TO.P,A1,20,GPIO15*%
%TO.N,/RD_TX*%
X121220000Y-138560000D03*
%TO.P,A1,21,GPIO16*%
%TO.N,/RD_MISO*%
X139000000Y-138560000D03*
%TO.P,A1,22,GPIO17*%
%TO.N,/RD_NSS*%
X139000000Y-136020000D03*
D23*
%TO.P,A1,23,GND*%
%TO.N,GND*%
X139000000Y-133480000D03*
D21*
%TO.P,A1,24,GPIO18*%
%TO.N,/RD_SCK*%
X139000000Y-130940000D03*
%TO.P,A1,25,GPIO19*%
%TO.N,/RD_MOSI*%
X139000000Y-128400000D03*
%TO.P,A1,26,GPIO20*%
%TO.N,/RD_DIO1*%
X139000000Y-125860000D03*
%TO.P,A1,27,GPIO21*%
%TO.N,/RD_BUSY*%
X139000000Y-123320000D03*
D23*
%TO.P,A1,28,GND*%
%TO.N,GND*%
X139000000Y-120780000D03*
D21*
%TO.P,A1,29,GPIO22*%
%TO.N,/RD_RESET*%
X139000000Y-118240000D03*
%TO.P,A1,30,RUN*%
%TO.N,unconnected-(A1-RUN-Pad30)*%
X139000000Y-115700000D03*
%TO.P,A1,31,GPIO26_ADC0*%
%TO.N,unconnected-(A1-GPIO26_ADC0-Pad31)*%
X139000000Y-113160000D03*
%TO.P,A1,32,GPIO27_ADC1*%
%TO.N,unconnected-(A1-GPIO27_ADC1-Pad32)*%
X139000000Y-110620000D03*
D23*
%TO.P,A1,33,AGND*%
%TO.N,unconnected-(A1-AGND-Pad33)*%
X139000000Y-108080000D03*
D21*
%TO.P,A1,34,GPIO28_ADC2*%
%TO.N,unconnected-(A1-GPIO28_ADC2-Pad34)*%
X139000000Y-105540000D03*
%TO.P,A1,35,ADC_VREF*%
%TO.N,unconnected-(A1-ADC_VREF-Pad35)*%
X139000000Y-103000000D03*
%TO.P,A1,36,3V3*%
%TO.N,unconnected-(A1-3V3-Pad36)*%
X139000000Y-100460000D03*
%TO.P,A1,37,3V3_EN*%
%TO.N,unconnected-(A1-3V3_EN-Pad37)*%
X139000000Y-97920000D03*
D23*
%TO.P,A1,38,GND*%
%TO.N,GND*%
X139000000Y-95380000D03*
D21*
%TO.P,A1,39,VSYS*%
%TO.N,+3.3V*%
X139000000Y-92840000D03*
%TO.P,A1,40,VBUS*%
%TO.N,unconnected-(A1-VBUS-Pad40)*%
X139000000Y-90300000D03*
%TD*%
D24*
%TO.P,U3,1,1*%
%TO.N,Net-(R4-Pad2)*%
X108730000Y-140310000D03*
%TO.P,U3,2,2*%
%TO.N,GND*%
X111270000Y-140310000D03*
%TO.P,U3,3,3*%
%TO.N,/FLAG_IGNITE*%
X111270000Y-132690000D03*
%TO.P,U3,4,4*%
%TO.N,+3.3V*%
X108730000Y-132690000D03*
%TD*%
D19*
%TO.P,Switch3,1,Pin_1*%
%TO.N,GND*%
X102400000Y-128725000D03*
D15*
%TO.P,Switch3,2,Pin_2*%
%TO.N,Net-(Switch3-Pin_2)*%
X102400000Y-131265000D03*
%TD*%
D25*
%TO.N,GND*%
X114944783Y-127284283D03*
X110440000Y-127050000D03*
D26*
X97436761Y-120812526D03*
%TD*%
D27*
%TO.N,/RD_RX*%
X141800000Y-146440000D02*
X131000000Y-135640000D01*
X121220000Y-123320000D02*
X128320000Y-123320000D01*
X128320000Y-123320000D02*
X131000000Y-126000000D01*
X131000000Y-126000000D02*
X131000000Y-135640000D01*
%TO.N,Net-(J2-Pin_1)*%
X104899001Y-133800999D02*
X102400000Y-136300000D01*
X114500000Y-133800999D02*
X104899001Y-133800999D01*
%TD*%
%TA.AperFunction,Conductor*%
%TO.N,GND*%
G36*
X145142539Y-86820185D02*
G01*
X145188294Y-86872989D01*
X145199500Y-86924500D01*
X145199500Y-169475500D01*
X145179815Y-169542539D01*
X145127011Y-169588294D01*
X145075500Y-169599500D01*
X96424500Y-169599500D01*
X96357461Y-169579815D01*
X96311706Y-169527011D01*
X96300500Y-169475500D01*
X96300500Y-162699983D01*
X109659500Y-162699983D01*
X109659500Y-164300001D01*
X109659501Y-164300018D01*
X109670000Y-164402796D01*
X109670001Y-164402799D01*
X109694759Y-164477512D01*
X109725186Y-164569334D01*
X109817288Y-164718656D01*
X109941344Y-164842712D01*
X110090666Y-164934814D01*
X110257203Y-164989999D01*
X110359991Y-165000500D01*
X111960008Y-165000499D01*
X112062797Y-164989999D01*
X112229334Y-164934814D01*
X112378656Y-164842712D01*
X112502712Y-164718656D01*
X112532512Y-164670341D01*
X112584458Y-164623618D01*
X112653420Y-164612395D01*
X112717503Y-164640238D01*
X112718758Y-164641385D01*
X112718786Y-164641353D01*
X112722481Y-164644508D01*
X112722490Y-164644517D01*
X112913567Y-164783343D01*
X113012991Y-164834002D01*
X113124003Y-164890566D01*
X113124005Y-164890566D01*
X113124008Y-164890568D01*
X113244412Y-164929689D01*
X113348631Y-164963553D01*
X113581903Y-165000500D01*
X113581908Y-165000500D01*
X113818097Y-165000500D01*
X114051368Y-164963553D01*
X114275992Y-164890568D01*
X114486433Y-164783343D01*
X114677510Y-164644517D01*
X114844517Y-164477510D01*
X114983343Y-164286433D01*
X115090568Y-164075992D01*
X115163553Y-163851368D01*
X115178963Y-163754075D01*
X115200500Y-163618097D01*
X115200500Y-163381902D01*
X115163553Y-163148631D01*
X115119305Y-163012452D01*
X115090568Y-162924008D01*
X115090566Y-162924005D01*
X115090566Y-162924003D01*
X115012220Y-162770241D01*
X114983343Y-162713567D01*
X114844517Y-162522490D01*
X114677510Y-162355483D01*
X114486433Y-162216657D01*
X114450629Y-162198414D01*
X114275996Y-162109433D01*
X114051368Y-162036446D01*
X113818097Y-161999500D01*
X113818092Y-161999500D01*
X113581908Y-161999500D01*
X113581903Y-161999500D01*
X113348631Y-162036446D01*
X113124003Y-162109433D01*
X112913566Y-162216657D01*
X112824533Y-162281344D01*
X112722490Y-162355483D01*
X112722488Y-162355485D01*
X112718786Y-162358647D01*
X112717305Y-162356913D01*
X112664110Y-162385791D01*
X112594431Y-162380635D01*
X112538601Y-162338626D01*
X112532511Y-162329656D01*
X112528468Y-162323102D01*
X112502712Y-162281344D01*
X112378656Y-162157288D01*
X112229334Y-162065186D01*
X112062797Y-162010001D01*
X112062795Y-162010000D01*
X111960010Y-161999500D01*
X110359998Y-161999500D01*
X110359981Y-161999501D01*
X110257203Y-162010000D01*
X110257200Y-162010001D01*
X110090668Y-162065185D01*
X110090663Y-162065187D01*
X109941342Y-162157289D01*
X109817289Y-162281342D01*
X109725187Y-162430663D01*
X109725186Y-162430666D01*
X109670001Y-162597203D01*
X109670001Y-162597204D01*
X109670000Y-162597204D01*
X109659500Y-162699983D01*
X96300500Y-162699983D01*
X96300500Y-146724983D01*
X100849500Y-146724983D01*
X100849500Y-148325001D01*
X100849501Y-148325018D01*
X100860000Y-148427796D01*
X100860001Y-148427799D01*
X100910403Y-148579901D01*
X100915186Y-148594334D01*
X101007288Y-148743656D01*
X101131344Y-148867712D01*
X101173102Y-148893468D01*
X101179656Y-148897511D01*
X101226381Y-148949459D01*
X101237604Y-149018421D01*
X101209760Y-149082504D01*
X101208615Y-149083759D01*
X101208647Y-149083786D01*
X101205485Y-149087487D01*
X101205483Y-149087490D01*
X101145862Y-149169550D01*
X101066657Y-149278566D01*
X100959433Y-149489003D01*
X100886446Y-149713631D01*
X100849500Y-149946902D01*
X100849500Y-150183097D01*
X100886446Y-150416368D01*
X100959433Y-150640996D01*
X101066657Y-150851433D01*
X101205483Y-151042510D01*
X101372490Y-151209517D01*
X101563567Y-151348343D01*
X101662991Y-151399002D01*
X101774003Y-151455566D01*
X101774005Y-151455566D01*
X101774008Y-151455568D01*
X101894412Y-151494689D01*
X101998631Y-151528553D01*
X102231903Y-151565500D01*
X102231908Y-151565500D01*
X102468097Y-151565500D01*
X102701368Y-151528553D01*
X102925992Y-151455568D01*
X103136433Y-151348343D01*
X103327510Y-151209517D01*
X103494517Y-151042510D01*
X103633343Y-150851433D01*
X103740568Y-150640992D01*
X103813553Y-150416368D01*
X103821697Y-150364949D01*
X103850500Y-150183097D01*
X103850500Y-149946902D01*
X103813553Y-149713631D01*
X103740566Y-149489003D01*
X103661360Y-149333554D01*
X103633343Y-149278567D01*
X103494517Y-149087490D01*
X103494508Y-149087481D01*
X103491353Y-149083786D01*
X103493134Y-149082264D01*
X103464273Y-149029408D01*
X103469257Y-148959716D01*
X103505002Y-148908679D01*
X103512240Y-148902509D01*
X103568656Y-148867712D01*
X103692712Y-148743656D01*
X103784814Y-148594334D01*
X103839999Y-148427797D01*
X103850500Y-148325009D01*
X103850499Y-146724992D01*
X103839999Y-146622203D01*
X103784814Y-146455666D01*
X103709593Y-146333713D01*
X117649500Y-146333713D01*
X117649500Y-146546286D01*
X117682753Y-146756239D01*
X117748444Y-146958414D01*
X117844951Y-147147820D01*
X117969890Y-147319786D01*
X118120213Y-147470109D01*
X118292179Y-147595048D01*
X118292181Y-147595049D01*
X118292184Y-147595051D01*
X118301493Y-147599794D01*
X118352290Y-147647766D01*
X118369087Y-147715587D01*
X118346552Y-147781722D01*
X118301505Y-147820760D01*
X118292446Y-147825376D01*
X118292440Y-147825380D01*
X118238282Y-147864727D01*
X118238282Y-147864728D01*
X118870591Y-148497037D01*
X118807007Y-148514075D01*
X118692993Y-148579901D01*
X118599901Y-148672993D01*
X118534075Y-148787007D01*
X118517037Y-148850591D01*
X117884728Y-148218282D01*
X117884727Y-148218282D01*
X117845380Y-148272439D01*
X117748904Y-148461782D01*
X117683242Y-148663869D01*
X117683242Y-148663872D01*
X117650000Y-148873753D01*
X117650000Y-149086246D01*
X117683242Y-149296127D01*
X117683242Y-149296130D01*
X117748904Y-149498217D01*
X117845375Y-149687550D01*
X117884728Y-149741716D01*
X118517037Y-149109408D01*
X118534075Y-149172993D01*
X118599901Y-149287007D01*
X118692993Y-149380099D01*
X118807007Y-149445925D01*
X118870590Y-149462962D01*
X118238282Y-150095269D01*
X118238282Y-150095270D01*
X118292452Y-150134626D01*
X118292451Y-150134626D01*
X118301495Y-150139234D01*
X118352292Y-150187208D01*
X118369087Y-150255029D01*
X118346550Y-150321164D01*
X118301499Y-150360202D01*
X118292182Y-150364949D01*
X118120213Y-150489890D01*
X117969890Y-150640213D01*
X117844951Y-150812179D01*
X117748444Y-151001585D01*
X117682753Y-151203760D01*
X117649500Y-151413713D01*
X117649500Y-151626286D01*
X117682753Y-151836239D01*
X117748444Y-152038414D01*
X117844951Y-152227820D01*
X117969890Y-152399786D01*
X118120213Y-152550109D01*
X118292182Y-152675050D01*
X118300946Y-152679516D01*
X118351742Y-152727491D01*
X118368536Y-152795312D01*
X118345998Y-152861447D01*
X118300946Y-152900484D01*
X118292182Y-152904949D01*
X118120213Y-153029890D01*
X117969890Y-153180213D01*
X117844951Y-153352179D01*
X117748444Y-153541585D01*
X117682753Y-153743760D01*
X117649500Y-153953713D01*
X117649500Y-154166286D01*
X117682753Y-154376239D01*
X117748444Y-154578414D01*
X117844951Y-154767820D01*
X117969890Y-154939786D01*
X118120213Y-155090109D01*
X118292182Y-155215050D01*
X118300946Y-155219516D01*
X118351742Y-155267491D01*
X118368536Y-155335312D01*
X118345998Y-155401447D01*
X118300946Y-155440484D01*
X118292182Y-155444949D01*
X118120213Y-155569890D01*
X117969890Y-155720213D01*
X117844951Y-155892179D01*
X117748444Y-156081585D01*
X117682753Y-156283760D01*
X117649500Y-156493713D01*
X117649500Y-156706286D01*
X117682753Y-156916239D01*
X117748444Y-157118414D01*
X117844951Y-157307820D01*
X117969890Y-157479786D01*
X118120213Y-157630109D01*
X118292182Y-157755050D01*
X118300946Y-157759516D01*
X118351742Y-157807491D01*
X118368536Y-157875312D01*
X118345998Y-157941447D01*
X118300946Y-157980484D01*
X118292182Y-157984949D01*
X118120213Y-158109890D01*
X117969890Y-158260213D01*
X117844951Y-158432179D01*
X117748444Y-158621585D01*
X117682753Y-158823760D01*
X117649500Y-159033713D01*
X117649500Y-159246286D01*
X117682753Y-159456239D01*
X117748444Y-159658414D01*
X117844951Y-159847820D01*
X117969890Y-160019786D01*
X118120213Y-160170109D01*
X118292182Y-160295050D01*
X118300946Y-160299516D01*
X118351742Y-160347491D01*
X118368536Y-160415312D01*
X118345998Y-160481447D01*
X118300946Y-160520484D01*
X118292182Y-160524949D01*
X118120213Y-160649890D01*
X117969890Y-160800213D01*
X117844951Y-160972179D01*
X117748444Y-161161585D01*
X117682753Y-161363760D01*
X117649500Y-161573713D01*
X117649500Y-161786286D01*
X117682735Y-161996127D01*
X117682754Y-161996243D01*
X117735081Y-162157289D01*
X117748444Y-162198414D01*
X117844951Y-162387820D01*
X117969890Y-162559786D01*
X118083818Y-162673714D01*
X118117303Y-162735037D01*
X118112319Y-162804729D01*
X118070447Y-162860662D01*
X118039471Y-162877577D01*
X117907912Y-162926646D01*
X117907906Y-162926649D01*
X117792812Y-163012809D01*
X117792809Y-163012812D01*
X117706649Y-163127906D01*
X117706645Y-163127913D01*
X117656403Y-163262620D01*
X117656401Y-163262627D01*
X117650000Y-163322155D01*
X117650000Y-163970000D01*
X118566988Y-163970000D01*
X118534075Y-164027007D01*
X118500000Y-164154174D01*
X118500000Y-164285826D01*
X118534075Y-164412993D01*
X118566988Y-164470000D01*
X117650000Y-164470000D01*
X117650000Y-165117844D01*
X117656401Y-165177372D01*
X117656403Y-165177379D01*
X117706645Y-165312086D01*
X117706649Y-165312093D01*
X117792809Y-165427187D01*
X117792812Y-165427190D01*
X117907906Y-165513350D01*
X117907913Y-165513354D01*
X118042620Y-165563596D01*
X118042627Y-165563598D01*
X118102155Y-165569999D01*
X118102172Y-165570000D01*
X118750000Y-165570000D01*
X118750000Y-164653012D01*
X118807007Y-164685925D01*
X118934174Y-164720000D01*
X119065826Y-164720000D01*
X119192993Y-164685925D01*
X119250000Y-164653012D01*
X119250000Y-165570000D01*
X119897828Y-165570000D01*
X119897844Y-165569999D01*
X119957372Y-165563598D01*
X119957379Y-165563596D01*
X120092086Y-165513354D01*
X120092093Y-165513350D01*
X120207187Y-165427190D01*
X120207190Y-165427187D01*
X120293350Y-165312093D01*
X120293354Y-165312086D01*
X120343596Y-165177379D01*
X120343598Y-165177372D01*
X120349999Y-165117844D01*
X120350000Y-165117827D01*
X120350000Y-164470000D01*
X119433012Y-164470000D01*
X119465925Y-164412993D01*
X119500000Y-164285826D01*
X119500000Y-164154174D01*
X119465925Y-164027007D01*
X119433012Y-163970000D01*
X120350000Y-163970000D01*
X120350000Y-163322164D01*
X120343598Y-163262627D01*
X120343596Y-163262620D01*
X120293354Y-163127913D01*
X120293350Y-163127906D01*
X120207190Y-163012812D01*
X120207187Y-163012809D01*
X120092093Y-162926649D01*
X120092088Y-162926646D01*
X119960528Y-162877577D01*
X119904595Y-162835705D01*
X119880178Y-162770241D01*
X119895030Y-162701968D01*
X119916175Y-162673720D01*
X120030104Y-162559792D01*
X120057208Y-162522487D01*
X120155048Y-162387820D01*
X120155047Y-162387820D01*
X120155051Y-162387816D01*
X120251557Y-162198412D01*
X120317246Y-161996243D01*
X120350500Y-161786287D01*
X120350500Y-161573713D01*
X120317246Y-161363757D01*
X120251557Y-161161588D01*
X120155051Y-160972184D01*
X120155049Y-160972181D01*
X120155048Y-160972179D01*
X120030109Y-160800213D01*
X119879786Y-160649890D01*
X119707820Y-160524951D01*
X119699600Y-160520763D01*
X119699054Y-160520485D01*
X119648259Y-160472512D01*
X119631463Y-160404692D01*
X119653999Y-160338556D01*
X119699054Y-160299515D01*
X119707816Y-160295051D01*
X119729789Y-160279086D01*
X119879786Y-160170109D01*
X119879788Y-160170106D01*
X119879792Y-160170104D01*
X120030104Y-160019792D01*
X120030106Y-160019788D01*
X120030109Y-160019786D01*
X120155048Y-159847820D01*
X120155047Y-159847820D01*
X120155051Y-159847816D01*
X120251557Y-159658412D01*
X120317246Y-159456243D01*
X120350500Y-159246287D01*
X120350500Y-159033713D01*
X120317246Y-158823757D01*
X120251557Y-158621588D01*
X120155051Y-158432184D01*
X120155049Y-158432181D01*
X120155048Y-158432179D01*
X120030109Y-158260213D01*
X119879786Y-158109890D01*
X119707820Y-157984951D01*
X119707115Y-157984591D01*
X119699054Y-157980485D01*
X119648259Y-157932512D01*
X119631463Y-157864692D01*
X119653999Y-157798556D01*
X119699054Y-157759515D01*
X119707816Y-157755051D01*
X119729789Y-157739086D01*
X119879786Y-157630109D01*
X119879788Y-157630106D01*
X119879792Y-157630104D01*
X120030104Y-157479792D01*
X120030106Y-157479788D01*
X120030109Y-157479786D01*
X120155048Y-157307820D01*
X120155047Y-157307820D01*
X120155051Y-157307816D01*
X120251557Y-157118412D01*
X120317246Y-156916243D01*
X120350500Y-156706287D01*
X120350500Y-156493713D01*
X120317246Y-156283757D01*
X120251557Y-156081588D01*
X120155051Y-155892184D01*
X120155049Y-155892181D01*
X120155048Y-155892179D01*
X120030109Y-155720213D01*
X119879786Y-155569890D01*
X119707820Y-155444951D01*
X119707115Y-155444591D01*
X119699054Y-155440485D01*
X119648259Y-155392512D01*
X119631463Y-155324692D01*
X119653999Y-155258556D01*
X119699054Y-155219515D01*
X119707816Y-155215051D01*
X119729789Y-155199086D01*
X119879786Y-155090109D01*
X119879788Y-155090106D01*
X119879792Y-155090104D01*
X120030104Y-154939792D01*
X120030106Y-154939788D01*
X120030109Y-154939786D01*
X120155048Y-154767820D01*
X120155047Y-154767820D01*
X120155051Y-154767816D01*
X120251557Y-154578412D01*
X120317246Y-154376243D01*
X120350500Y-154166287D01*
X120350500Y-153953713D01*
X120317246Y-153743757D01*
X120251557Y-153541588D01*
X120155051Y-153352184D01*
X120155049Y-153352181D01*
X120155048Y-153352179D01*
X120030109Y-153180213D01*
X119879786Y-153029890D01*
X119707820Y-152904951D01*
X119707115Y-152904591D01*
X119699054Y-152900485D01*
X119648259Y-152852512D01*
X119631463Y-152784692D01*
X119653999Y-152718556D01*
X119699054Y-152679515D01*
X119707816Y-152675051D01*
X119729789Y-152659086D01*
X119879786Y-152550109D01*
X119879788Y-152550106D01*
X119879792Y-152550104D01*
X120030104Y-152399792D01*
X120030106Y-152399788D01*
X120030109Y-152399786D01*
X120155048Y-152227820D01*
X120155047Y-152227820D01*
X120155051Y-152227816D01*
X120251557Y-152038412D01*
X120317246Y-151836243D01*
X120350500Y-151626287D01*
X120350500Y-151413713D01*
X120317246Y-151203757D01*
X120251557Y-151001588D01*
X120155051Y-150812184D01*
X120155049Y-150812181D01*
X120155048Y-150812179D01*
X120030109Y-150640213D01*
X119879786Y-150489890D01*
X119707817Y-150364949D01*
X119698504Y-150360204D01*
X119647707Y-150312230D01*
X119630912Y-150244409D01*
X119653449Y-150178274D01*
X119698507Y-150139232D01*
X119707555Y-150134622D01*
X119761716Y-150095270D01*
X119761717Y-150095270D01*
X119129408Y-149462962D01*
X119192993Y-149445925D01*
X119307007Y-149380099D01*
X119400099Y-149287007D01*
X119465925Y-149172993D01*
X119482962Y-149109409D01*
X120115270Y-149741717D01*
X120115270Y-149741716D01*
X120154622Y-149687554D01*
X120251095Y-149498217D01*
X120316757Y-149296130D01*
X120316757Y-149296127D01*
X120350000Y-149086246D01*
X120350000Y-148873753D01*
X120316757Y-148663872D01*
X120316757Y-148663869D01*
X120251095Y-148461782D01*
X120154624Y-148272449D01*
X120115270Y-148218282D01*
X120115269Y-148218282D01*
X119482962Y-148850590D01*
X119465925Y-148787007D01*
X119400099Y-148672993D01*
X119307007Y-148579901D01*
X119192993Y-148514075D01*
X119129409Y-148497037D01*
X119761716Y-147864728D01*
X119707547Y-147825373D01*
X119707547Y-147825372D01*
X119698500Y-147820763D01*
X119647706Y-147772788D01*
X119630912Y-147704966D01*
X119653451Y-147638832D01*
X119698508Y-147599793D01*
X119707816Y-147595051D01*
X119787007Y-147537515D01*
X119879786Y-147470109D01*
X119879788Y-147470106D01*
X119879792Y-147470104D01*
X120030104Y-147319792D01*
X120030106Y-147319788D01*
X120030109Y-147319786D01*
X120155048Y-147147820D01*
X120155047Y-147147820D01*
X120155051Y-147147816D01*
X120251557Y-146958412D01*
X120317246Y-146756243D01*
X120350500Y-146546287D01*
X120350500Y-146333713D01*
X120317246Y-146123757D01*
X120251557Y-145921588D01*
X120155051Y-145732184D01*
X120155049Y-145732181D01*
X120155048Y-145732179D01*
X120030109Y-145560213D01*
X119879786Y-145409890D01*
X119707820Y-145284951D01*
X119518414Y-145188444D01*
X119518413Y-145188443D01*
X119518412Y-145188443D01*
X119316243Y-145122754D01*
X119316241Y-145122753D01*
X119316240Y-145122753D01*
X119145192Y-145095662D01*
X119106287Y-145089500D01*
X118893713Y-145089500D01*
X118854808Y-145095662D01*
X118683760Y-145122753D01*
X118481585Y-145188444D01*
X118292179Y-145284951D01*
X118120213Y-145409890D01*
X117969890Y-145560213D01*
X117844951Y-145732179D01*
X117748444Y-145921585D01*
X117682753Y-146123760D01*
X117649500Y-146333713D01*
X103709593Y-146333713D01*
X103692712Y-146306344D01*
X103568656Y-146182288D01*
X103419334Y-146090186D01*
X103252797Y-146035001D01*
X103252795Y-146035000D01*
X103150010Y-146024500D01*
X101549998Y-146024500D01*
X101549981Y-146024501D01*
X101447203Y-146035000D01*
X101447200Y-146035001D01*
X101280668Y-146090185D01*
X101280663Y-146090187D01*
X101131342Y-146182289D01*
X101007289Y-146306342D01*
X100915187Y-146455663D01*
X100915186Y-146455666D01*
X100860001Y-146622203D01*
X100860001Y-146622204D01*
X100860000Y-146622204D01*
X100849500Y-146724983D01*
X96300500Y-146724983D01*
X96300500Y-135499983D01*
X100899500Y-135499983D01*
X100899500Y-137100001D01*
X100899501Y-137100018D01*
X100910000Y-137202796D01*
X100910001Y-137202799D01*
X100938897Y-137290000D01*
X100965186Y-137369334D01*
X101057288Y-137518656D01*
X101181344Y-137642712D01*
X101223102Y-137668468D01*
X101229656Y-137672511D01*
X101276381Y-137724459D01*
X101287604Y-137793421D01*
X101259760Y-137857504D01*
X101258615Y-137858759D01*
X101258647Y-137858786D01*
X101255485Y-137862487D01*
X101255483Y-137862490D01*
X101243934Y-137878386D01*
X101116657Y-138053566D01*
X101009433Y-138264003D01*
X100936446Y-138488631D01*
X100899500Y-138721902D01*
X100899500Y-138958097D01*
X100936446Y-139191368D01*
X101009433Y-139415996D01*
X101116657Y-139626433D01*
X101255483Y-139817510D01*
X101422490Y-139984517D01*
X101613567Y-140123343D01*
X101652796Y-140143331D01*
X101824003Y-140230566D01*
X101824005Y-140230566D01*
X101824008Y-140230568D01*
X101944412Y-140269689D01*
X102048631Y-140303553D01*
X102281903Y-140340500D01*
X102281908Y-140340500D01*
X102518097Y-140340500D01*
X102751368Y-140303553D01*
X102975992Y-140230568D01*
X103003335Y-140216636D01*
X107543700Y-140216636D01*
X107543700Y-140403363D01*
X107572891Y-140587672D01*
X107572911Y-140587793D01*
X107630613Y-140765381D01*
X107715385Y-140931757D01*
X107825141Y-141082822D01*
X107957178Y-141214859D01*
X108108243Y-141324615D01*
X108274619Y-141409387D01*
X108452207Y-141467089D01*
X108636636Y-141496300D01*
X108636637Y-141496300D01*
X108823363Y-141496300D01*
X108823364Y-141496300D01*
X109007793Y-141467089D01*
X109185381Y-141409387D01*
X109351757Y-141324615D01*
X109502822Y-141214859D01*
X109634859Y-141082822D01*
X109744615Y-140931757D01*
X109829387Y-140765381D01*
X109882333Y-140602429D01*
X109921768Y-140544758D01*
X109986127Y-140517559D01*
X110054973Y-140529473D01*
X110106449Y-140576717D01*
X110118193Y-140602432D01*
X110171077Y-140765193D01*
X110255811Y-140931491D01*
X110272282Y-140954162D01*
X110842721Y-140383723D01*
X110867626Y-140476669D01*
X110924474Y-140575131D01*
X111004869Y-140655526D01*
X111103331Y-140712374D01*
X111196275Y-140737278D01*
X110625835Y-141307716D01*
X110648504Y-141324186D01*
X110814808Y-141408922D01*
X110992327Y-141466602D01*
X111176670Y-141495800D01*
X111363330Y-141495800D01*
X111547672Y-141466602D01*
X111725191Y-141408922D01*
X111891496Y-141324186D01*
X111914162Y-141307717D01*
X111914162Y-141307716D01*
X111343724Y-140737277D01*
X111436669Y-140712374D01*
X111535131Y-140655526D01*
X111615526Y-140575131D01*
X111672374Y-140476669D01*
X111697278Y-140383724D01*
X112267716Y-140954162D01*
X112267717Y-140954162D01*
X112284186Y-140931496D01*
X112368922Y-140765191D01*
X112426602Y-140587672D01*
X112455800Y-140403330D01*
X112455800Y-140216669D01*
X112426602Y-140032327D01*
X112368922Y-139854808D01*
X112284186Y-139688504D01*
X112267716Y-139665836D01*
X112267716Y-139665835D01*
X111697277Y-140236274D01*
X111672374Y-140143331D01*
X111615526Y-140044869D01*
X111535131Y-139964474D01*
X111436669Y-139907626D01*
X111343724Y-139882722D01*
X111914162Y-139312282D01*
X111891491Y-139295811D01*
X111725191Y-139211077D01*
X111547672Y-139153397D01*
X111363330Y-139124200D01*
X111176670Y-139124200D01*
X110992327Y-139153397D01*
X110814808Y-139211077D01*
X110648502Y-139295814D01*
X110625836Y-139312282D01*
X110625835Y-139312282D01*
X111196275Y-139882721D01*
X111103331Y-139907626D01*
X111004869Y-139964474D01*
X110924474Y-140044869D01*
X110867626Y-140143331D01*
X110842722Y-140236275D01*
X110272282Y-139665835D01*
X110272282Y-139665836D01*
X110255814Y-139688502D01*
X110171077Y-139854806D01*
X110118193Y-140017567D01*
X110078755Y-140075242D01*
X110014396Y-140102440D01*
X109945550Y-140090525D01*
X109894074Y-140043281D01*
X109882333Y-140017572D01*
X109829387Y-139854619D01*
X109744615Y-139688243D01*
X109634859Y-139537178D01*
X109502822Y-139405141D01*
X109351757Y-139295385D01*
X109185381Y-139210613D01*
X109007793Y-139152911D01*
X109007791Y-139152910D01*
X109007789Y-139152910D01*
X108879018Y-139132514D01*
X108823364Y-139123700D01*
X108636636Y-139123700D01*
X108593883Y-139130471D01*
X108452210Y-139152910D01*
X108274616Y-139210614D01*
X108108242Y-139295385D01*
X107957176Y-139405142D01*
X107825142Y-139537176D01*
X107715385Y-139688242D01*
X107630614Y-139854616D01*
X107572910Y-140032210D01*
X107543700Y-140216636D01*
X103003335Y-140216636D01*
X103186433Y-140123343D01*
X103377510Y-139984517D01*
X103544517Y-139817510D01*
X103683343Y-139626433D01*
X103790568Y-139415992D01*
X103863553Y-139191368D01*
X103869644Y-139152910D01*
X103900500Y-138958097D01*
X103900500Y-138721902D01*
X103863553Y-138488631D01*
X103790566Y-138264003D01*
X103734002Y-138152991D01*
X103683343Y-138053567D01*
X103544517Y-137862490D01*
X103544508Y-137862481D01*
X103541353Y-137858786D01*
X103543134Y-137857264D01*
X103514273Y-137804408D01*
X103519257Y-137734716D01*
X103561129Y-137678783D01*
X103570334Y-137672516D01*
X103618656Y-137642712D01*
X103742712Y-137518656D01*
X103834814Y-137369334D01*
X103889999Y-137202797D01*
X103900500Y-137100009D01*
X103900499Y-136413408D01*
X103900499Y-135912229D01*
X103920183Y-135845190D01*
X103936813Y-135824553D01*
X105173549Y-134587818D01*
X105234872Y-134554333D01*
X105261230Y-134551499D01*
X113138582Y-134551499D01*
X113205621Y-134571184D01*
X113238899Y-134602612D01*
X113344214Y-134747565D01*
X113505934Y-134909285D01*
X113590864Y-134970990D01*
X113633529Y-135026320D01*
X113639508Y-135095934D01*
X113606902Y-135157729D01*
X113590864Y-135171626D01*
X113506257Y-135233096D01*
X113344597Y-135394756D01*
X113210211Y-135579722D01*
X113106417Y-135783428D01*
X113035765Y-136000870D01*
X113021491Y-136090999D01*
X114009252Y-136090999D01*
X113987482Y-136128707D01*
X113950000Y-136268590D01*
X113950000Y-136413408D01*
X113987482Y-136553291D01*
X114009252Y-136590999D01*
X113021491Y-136590999D01*
X113035765Y-136681127D01*
X113106417Y-136898569D01*
X113210211Y-137102275D01*
X113344597Y-137287241D01*
X113506257Y-137448901D01*
X113691223Y-137583287D01*
X113894929Y-137687081D01*
X114112371Y-137757733D01*
X114250000Y-137779531D01*
X114250000Y-136831746D01*
X114287708Y-136853517D01*
X114427591Y-136890999D01*
X114572409Y-136890999D01*
X114712292Y-136853517D01*
X114750000Y-136831746D01*
X114750000Y-137779530D01*
X114887628Y-137757733D01*
X115105070Y-137687081D01*
X115308776Y-137583287D01*
X115493742Y-137448901D01*
X115655402Y-137287241D01*
X115789788Y-137102275D01*
X115893582Y-136898569D01*
X115964234Y-136681127D01*
X115978509Y-136590999D01*
X114990748Y-136590999D01*
X115012518Y-136553291D01*
X115050000Y-136413408D01*
X115050000Y-136268590D01*
X115012518Y-136128707D01*
X114990748Y-136090999D01*
X115978509Y-136090999D01*
X115964233Y-136000865D01*
X115948061Y-135951094D01*
X115893582Y-135783428D01*
X115789788Y-135579722D01*
X115655402Y-135394756D01*
X115493742Y-135233096D01*
X115409135Y-135171625D01*
X115366470Y-135116295D01*
X115360491Y-135046681D01*
X115393097Y-134984886D01*
X115409125Y-134970998D01*
X115494066Y-134909285D01*
X115655786Y-134747565D01*
X115790217Y-134562537D01*
X115894048Y-134358757D01*
X115942735Y-134208913D01*
X115964721Y-134141248D01*
X115964721Y-134141247D01*
X115964722Y-134141244D01*
X116000500Y-133915353D01*
X116000500Y-133686645D01*
X115964722Y-133460754D01*
X115964721Y-133460750D01*
X115964721Y-133460749D01*
X115956836Y-133436481D01*
X115894049Y-133243243D01*
X115894048Y-133243241D01*
X115790217Y-133039461D01*
X115657472Y-132856754D01*
X115633994Y-132790952D01*
X115649819Y-132722898D01*
X115699925Y-132674203D01*
X115714455Y-132667691D01*
X115742331Y-132657295D01*
X115857546Y-132571045D01*
X115943796Y-132455830D01*
X115994091Y-132320982D01*
X116000500Y-132261372D01*
X116000499Y-130260627D01*
X115994091Y-130201016D01*
X115974726Y-130149097D01*
X115943797Y-130066170D01*
X115943793Y-130066163D01*
X115857547Y-129950954D01*
X115857544Y-129950951D01*
X115742335Y-129864705D01*
X115742328Y-129864701D01*
X115607482Y-129814407D01*
X115607483Y-129814407D01*
X115547883Y-129808000D01*
X115547881Y-129807999D01*
X115547873Y-129807999D01*
X115547864Y-129807999D01*
X113452129Y-129807999D01*
X113452123Y-129808000D01*
X113392516Y-129814407D01*
X113257671Y-129864701D01*
X113257664Y-129864705D01*
X113142455Y-129950951D01*
X113142452Y-129950954D01*
X113056206Y-130066163D01*
X113056202Y-130066170D01*
X113005908Y-130201016D01*
X113002895Y-130229045D01*
X112999501Y-130260622D01*
X112999500Y-130260634D01*
X112999500Y-132261369D01*
X112999501Y-132261375D01*
X113005908Y-132320982D01*
X113056202Y-132455827D01*
X113056206Y-132455834D01*
X113142452Y-132571043D01*
X113142455Y-132571046D01*
X113257664Y-132657292D01*
X113257669Y-132657295D01*
X113285539Y-132667689D01*
X113306012Y-132683015D01*
X113328627Y-132694948D01*
X113333514Y-132703602D01*
X113341473Y-132709560D01*
X113350410Y-132733520D01*
X113362985Y-132755787D01*
X113362417Y-132765710D01*
X113365891Y-132775023D01*
X113360456Y-132800008D01*
X113358996Y-132825542D01*
X113352030Y-132838742D01*
X113351040Y-132843297D01*
X113342526Y-132856755D01*
X113305440Y-132907801D01*
X113238900Y-132999385D01*
X113183570Y-133042050D01*
X113138582Y-133050499D01*
X112559175Y-133050499D01*
X112492136Y-133030814D01*
X112446381Y-132978010D01*
X112436437Y-132908852D01*
X112436702Y-132907101D01*
X112456300Y-132783363D01*
X112456300Y-132596636D01*
X112438085Y-132481632D01*
X112427089Y-132412207D01*
X112369387Y-132234619D01*
X112284615Y-132068243D01*
X112174859Y-131917178D01*
X112042822Y-131785141D01*
X111891757Y-131675385D01*
X111725381Y-131590613D01*
X111547793Y-131532911D01*
X111547791Y-131532910D01*
X111547789Y-131532910D01*
X111419018Y-131512514D01*
X111363364Y-131503700D01*
X111176636Y-131503700D01*
X111133883Y-131510471D01*
X110992210Y-131532910D01*
X110814616Y-131590614D01*
X110648242Y-131675385D01*
X110497176Y-131785142D01*
X110365142Y-131917176D01*
X110255385Y-132068242D01*
X110170614Y-132234616D01*
X110170613Y-132234618D01*
X110170613Y-132234619D01*
X110144204Y-132315899D01*
X110117931Y-132396758D01*
X110078493Y-132454434D01*
X110014135Y-132481632D01*
X109945288Y-132469717D01*
X109893813Y-132422473D01*
X109882069Y-132396758D01*
X109829387Y-132234619D01*
X109744615Y-132068243D01*
X109634859Y-131917178D01*
X109502822Y-131785141D01*
X109351757Y-131675385D01*
X109185381Y-131590613D01*
X109007793Y-131532911D01*
X109007791Y-131532910D01*
X109007789Y-131532910D01*
X108879018Y-131512514D01*
X108823364Y-131503700D01*
X108636636Y-131503700D01*
X108593883Y-131510471D01*
X108452210Y-131532910D01*
X108274616Y-131590614D01*
X108108242Y-131675385D01*
X107957176Y-131785142D01*
X107825142Y-131917176D01*
X107715385Y-132068242D01*
X107630614Y-132234616D01*
X107572910Y-132412210D01*
X107543700Y-132596636D01*
X107543700Y-132783363D01*
X107563298Y-132907101D01*
X107554343Y-132976395D01*
X107509347Y-133029847D01*
X107442596Y-133050486D01*
X107440825Y-133050499D01*
X104825081Y-133050499D01*
X104680093Y-133079339D01*
X104680083Y-133079342D01*
X104543512Y-133135911D01*
X104543499Y-133135918D01*
X104420585Y-133218047D01*
X104420581Y-133218050D01*
X102875450Y-134763181D01*
X102814127Y-134796666D01*
X102787769Y-134799500D01*
X101599998Y-134799500D01*
X101599981Y-134799501D01*
X101497203Y-134810000D01*
X101497200Y-134810001D01*
X101330668Y-134865185D01*
X101330663Y-134865187D01*
X101181342Y-134957289D01*
X101057289Y-135081342D01*
X100965187Y-135230663D01*
X100965185Y-135230668D01*
X100957454Y-135253999D01*
X100910001Y-135397203D01*
X100910001Y-135397204D01*
X100910000Y-135397204D01*
X100899500Y-135499983D01*
X96300500Y-135499983D01*
X96300500Y-131146902D01*
X100899500Y-131146902D01*
X100899500Y-131383097D01*
X100936446Y-131616368D01*
X101009433Y-131840996D01*
X101105184Y-132028916D01*
X101116657Y-132051433D01*
X101255483Y-132242510D01*
X101422490Y-132409517D01*
X101613567Y-132548343D01*
X101696136Y-132590414D01*
X101824003Y-132655566D01*
X101824005Y-132655566D01*
X101824008Y-132655568D01*
X101908481Y-132683015D01*
X102048631Y-132728553D01*
X102281903Y-132765500D01*
X102281908Y-132765500D01*
X102518097Y-132765500D01*
X102751368Y-132728553D01*
X102796160Y-132713999D01*
X102975992Y-132655568D01*
X103186433Y-132548343D01*
X103377510Y-132409517D01*
X103544517Y-132242510D01*
X103683343Y-132051433D01*
X103790568Y-131840992D01*
X103863553Y-131616368D01*
X103876771Y-131532911D01*
X103900500Y-131383097D01*
X103900500Y-131146902D01*
X103863553Y-130913631D01*
X103790566Y-130689003D01*
X103683342Y-130478566D01*
X103544517Y-130287490D01*
X103544508Y-130287481D01*
X103541353Y-130283786D01*
X103543022Y-130282360D01*
X103513910Y-130229045D01*
X103518894Y-130159353D01*
X103560766Y-130103420D01*
X103569980Y-130097148D01*
X103618343Y-130067317D01*
X103742315Y-129943345D01*
X103834356Y-129794124D01*
X103834358Y-129794119D01*
X103889505Y-129627697D01*
X103889506Y-129627690D01*
X103899999Y-129524986D01*
X103900000Y-129524973D01*
X103900000Y-128975000D01*
X102948482Y-128975000D01*
X102959111Y-128956591D01*
X103000000Y-128803991D01*
X103000000Y-128646009D01*
X102959111Y-128493409D01*
X102948482Y-128475000D01*
X103899999Y-128475000D01*
X103899999Y-127925028D01*
X103899998Y-127925013D01*
X103889505Y-127822302D01*
X103834358Y-127655880D01*
X103834356Y-127655875D01*
X103742315Y-127506654D01*
X103618345Y-127382684D01*
X103469124Y-127290643D01*
X103469119Y-127290641D01*
X103302697Y-127235494D01*
X103302690Y-127235493D01*
X103199986Y-127225000D01*
X102650000Y-127225000D01*
X102650000Y-128176517D01*
X102631591Y-128165889D01*
X102478991Y-128125000D01*
X102321009Y-128125000D01*
X102168409Y-128165889D01*
X102150000Y-128176517D01*
X102150000Y-127225000D01*
X101600028Y-127225000D01*
X101600012Y-127225001D01*
X101497302Y-127235494D01*
X101330880Y-127290641D01*
X101330875Y-127290643D01*
X101181654Y-127382684D01*
X101057684Y-127506654D01*
X100965643Y-127655875D01*
X100965641Y-127655880D01*
X100910494Y-127822302D01*
X100910493Y-127822309D01*
X100900000Y-127925013D01*
X100900000Y-128475000D01*
X101851518Y-128475000D01*
X101840889Y-128493409D01*
X101800000Y-128646009D01*
X101800000Y-128803991D01*
X101840889Y-128956591D01*
X101851518Y-128975000D01*
X100900001Y-128975000D01*
X100900001Y-129524986D01*
X100910494Y-129627697D01*
X100965641Y-129794119D01*
X100965643Y-129794124D01*
X101057684Y-129943345D01*
X101181655Y-130067316D01*
X101181659Y-130067319D01*
X101230020Y-130097149D01*
X101276745Y-130149097D01*
X101287966Y-130218059D01*
X101260123Y-130282141D01*
X101258632Y-130283773D01*
X101258647Y-130283786D01*
X101255485Y-130287488D01*
X101255483Y-130287490D01*
X101195862Y-130369550D01*
X101116657Y-130478566D01*
X101009433Y-130689003D01*
X100936446Y-130913631D01*
X100899500Y-131146902D01*
X96300500Y-131146902D01*
X96300500Y-122427135D01*
X99299500Y-122427135D01*
X99299500Y-124022870D01*
X99299501Y-124022876D01*
X99305908Y-124082483D01*
X99356202Y-124217328D01*
X99356206Y-124217335D01*
X99442452Y-124332544D01*
X99442455Y-124332547D01*
X99557664Y-124418793D01*
X99557671Y-124418797D01*
X99692517Y-124469091D01*
X99692516Y-124469091D01*
X99699444Y-124469835D01*
X99752127Y-124475500D01*
X101347872Y-124475499D01*
X101407483Y-124469091D01*
X101542331Y-124418796D01*
X101657546Y-124332546D01*
X101721464Y-124247162D01*
X101777396Y-124205293D01*
X101847088Y-124200309D01*
X101893613Y-124221156D01*
X101994595Y-124294524D01*
X102028837Y-124311971D01*
X102169970Y-124383882D01*
X102169972Y-124383882D01*
X102169975Y-124383884D01*
X102270317Y-124416487D01*
X102357173Y-124444709D01*
X102551578Y-124475500D01*
X102551583Y-124475500D01*
X102748422Y-124475500D01*
X102942826Y-124444709D01*
X103130025Y-124383884D01*
X103305405Y-124294524D01*
X103464646Y-124178828D01*
X103603828Y-124039646D01*
X103719524Y-123880405D01*
X103808884Y-123705025D01*
X103869709Y-123517826D01*
X103879955Y-123453134D01*
X103900500Y-123323422D01*
X103900500Y-123126577D01*
X103869709Y-122932173D01*
X103808882Y-122744970D01*
X103762995Y-122654913D01*
X103719524Y-122569595D01*
X103705153Y-122549815D01*
X103684755Y-122521739D01*
X103684753Y-122521737D01*
X103634198Y-122452155D01*
X112375000Y-122452155D01*
X112375000Y-124047844D01*
X112381401Y-124107375D01*
X112390277Y-124131170D01*
X113187352Y-123334095D01*
X113210792Y-123421571D01*
X113269311Y-123522930D01*
X113352070Y-123605689D01*
X113453429Y-123664208D01*
X113540904Y-123687647D01*
X112743829Y-124484720D01*
X112743829Y-124484722D01*
X112767622Y-124493597D01*
X112767623Y-124493598D01*
X112827155Y-124499999D01*
X112827172Y-124500000D01*
X114422828Y-124500000D01*
X114422844Y-124499999D01*
X114482372Y-124493598D01*
X114506169Y-124484721D01*
X113709095Y-123687647D01*
X113796571Y-123664208D01*
X113897930Y-123605689D01*
X113980689Y-123522930D01*
X114039208Y-123421571D01*
X114062647Y-123334095D01*
X114988636Y-124260084D01*
X114988645Y-124260091D01*
X115069852Y-124319093D01*
X115245164Y-124408418D01*
X115432294Y-124469221D01*
X115626618Y-124500000D01*
X115823382Y-124500000D01*
X116017705Y-124469221D01*
X116204835Y-124408418D01*
X116380143Y-124319095D01*
X116415125Y-124293678D01*
X116415126Y-124293678D01*
X115809094Y-123687647D01*
X115896571Y-123664208D01*
X115997930Y-123605689D01*
X116080689Y-123522930D01*
X116139208Y-123421571D01*
X116162647Y-123334095D01*
X116768678Y-123940126D01*
X116768678Y-123940125D01*
X116794095Y-123905143D01*
X116883418Y-123729835D01*
X116944221Y-123542705D01*
X116975000Y-123348382D01*
X116975000Y-123151617D01*
X116944221Y-122957294D01*
X116883418Y-122770164D01*
X116794096Y-122594858D01*
X116768678Y-122559873D01*
X116768677Y-122559873D01*
X116162647Y-123165904D01*
X116139208Y-123078429D01*
X116080689Y-122977070D01*
X115997930Y-122894311D01*
X115896571Y-122835792D01*
X115809093Y-122812352D01*
X116415125Y-122206320D01*
X116415125Y-122206319D01*
X116380145Y-122180905D01*
X116204835Y-122091581D01*
X116017705Y-122030778D01*
X115823382Y-122000000D01*
X115626618Y-122000000D01*
X115432294Y-122030778D01*
X115245164Y-122091581D01*
X115069855Y-122180905D01*
X115069846Y-122180911D01*
X114988644Y-122239906D01*
X114988640Y-122239910D01*
X114062646Y-123165904D01*
X114039208Y-123078429D01*
X113980689Y-122977070D01*
X113897930Y-122894311D01*
X113796571Y-122835792D01*
X113709095Y-122812353D01*
X114506170Y-122015277D01*
X114506170Y-122015276D01*
X114482375Y-122006401D01*
X114422844Y-122000000D01*
X112827155Y-122000000D01*
X112767627Y-122006401D01*
X112767623Y-122006402D01*
X112743829Y-122015277D01*
X113540904Y-122812352D01*
X113453429Y-122835792D01*
X113352070Y-122894311D01*
X113269311Y-122977070D01*
X113210792Y-123078429D01*
X113187353Y-123165904D01*
X112390277Y-122368829D01*
X112381402Y-122392623D01*
X112381401Y-122392627D01*
X112375000Y-122452155D01*
X103634198Y-122452155D01*
X103616006Y-122427116D01*
X103603828Y-122410354D01*
X103464646Y-122271172D01*
X103305405Y-122155476D01*
X103289335Y-122147288D01*
X103130029Y-122066117D01*
X102942826Y-122005290D01*
X102748422Y-121974500D01*
X102748417Y-121974500D01*
X102551583Y-121974500D01*
X102551578Y-121974500D01*
X102357173Y-122005290D01*
X102169970Y-122066117D01*
X101994591Y-122155478D01*
X101893614Y-122228842D01*
X101827808Y-122252322D01*
X101759754Y-122236496D01*
X101721463Y-122202835D01*
X101657547Y-122117455D01*
X101657544Y-122117452D01*
X101542335Y-122031206D01*
X101542328Y-122031202D01*
X101407482Y-121980908D01*
X101407483Y-121980908D01*
X101347883Y-121974501D01*
X101347881Y-121974500D01*
X101347873Y-121974500D01*
X101347864Y-121974500D01*
X99752129Y-121974500D01*
X99752123Y-121974501D01*
X99692516Y-121980908D01*
X99557671Y-122031202D01*
X99557664Y-122031206D01*
X99442455Y-122117452D01*
X99442452Y-122117455D01*
X99356206Y-122232664D01*
X99356202Y-122232671D01*
X99305908Y-122367517D01*
X99299501Y-122427116D01*
X99299500Y-122427135D01*
X96300500Y-122427135D01*
X96300500Y-98877135D01*
X99274500Y-98877135D01*
X99274500Y-100472870D01*
X99274501Y-100472876D01*
X99280908Y-100532483D01*
X99331202Y-100667328D01*
X99331206Y-100667335D01*
X99417452Y-100782544D01*
X99417455Y-100782547D01*
X99532664Y-100868793D01*
X99532671Y-100868797D01*
X99667517Y-100919091D01*
X99667516Y-100919091D01*
X99673265Y-100919709D01*
X99727127Y-100925500D01*
X101322872Y-100925499D01*
X101382483Y-100919091D01*
X101517331Y-100868796D01*
X101632546Y-100782546D01*
X101696464Y-100697162D01*
X101752396Y-100655293D01*
X101822088Y-100650309D01*
X101868613Y-100671156D01*
X101969595Y-100744524D01*
X102018659Y-100769523D01*
X102144970Y-100833882D01*
X102144972Y-100833882D01*
X102144975Y-100833884D01*
X102221917Y-100858884D01*
X102332173Y-100894709D01*
X102526578Y-100925500D01*
X102526583Y-100925500D01*
X102723422Y-100925500D01*
X102917826Y-100894709D01*
X102997574Y-100868797D01*
X103105025Y-100833884D01*
X103280405Y-100744524D01*
X103439646Y-100628828D01*
X103578828Y-100489646D01*
X103694524Y-100330405D01*
X103783884Y-100155025D01*
X103844709Y-99967826D01*
X103871540Y-99798422D01*
X103875500Y-99773422D01*
X103875500Y-99576577D01*
X103844709Y-99382173D01*
X103783882Y-99194970D01*
X103736743Y-99102455D01*
X103694524Y-99019595D01*
X103609184Y-98902135D01*
X112349500Y-98902135D01*
X112349500Y-100497870D01*
X112349501Y-100497876D01*
X112355908Y-100557483D01*
X112406202Y-100692328D01*
X112406206Y-100692335D01*
X112492452Y-100807544D01*
X112492455Y-100807547D01*
X112607664Y-100893793D01*
X112607671Y-100893797D01*
X112742517Y-100944091D01*
X112742516Y-100944091D01*
X112749444Y-100944835D01*
X112802127Y-100950500D01*
X114397872Y-100950499D01*
X114457483Y-100944091D01*
X114592331Y-100893796D01*
X114707546Y-100807546D01*
X114771464Y-100722162D01*
X114827396Y-100680293D01*
X114897088Y-100675309D01*
X114943613Y-100696156D01*
X115044595Y-100769524D01*
X115119214Y-100807544D01*
X115219970Y-100858882D01*
X115219972Y-100858882D01*
X115219975Y-100858884D01*
X115320317Y-100891487D01*
X115407173Y-100919709D01*
X115601578Y-100950500D01*
X115601583Y-100950500D01*
X115798422Y-100950500D01*
X115992826Y-100919709D01*
X115994728Y-100919091D01*
X116180025Y-100858884D01*
X116355405Y-100769524D01*
X116514646Y-100653828D01*
X116653828Y-100514646D01*
X116769524Y-100355405D01*
X116858884Y-100180025D01*
X116919709Y-99992826D01*
X116923669Y-99967826D01*
X116950500Y-99798422D01*
X116950500Y-99601577D01*
X116919709Y-99407173D01*
X116870193Y-99254780D01*
X116858884Y-99219975D01*
X116858882Y-99219972D01*
X116858882Y-99219970D01*
X116807208Y-99118555D01*
X116769524Y-99044595D01*
X116653828Y-98885354D01*
X116514646Y-98746172D01*
X116355405Y-98630476D01*
X116180029Y-98541117D01*
X115992826Y-98480290D01*
X115798422Y-98449500D01*
X115798417Y-98449500D01*
X115601583Y-98449500D01*
X115601578Y-98449500D01*
X115407173Y-98480290D01*
X115219970Y-98541117D01*
X115044591Y-98630478D01*
X114943614Y-98703842D01*
X114877808Y-98727322D01*
X114809754Y-98711496D01*
X114771463Y-98677835D01*
X114707547Y-98592455D01*
X114707544Y-98592452D01*
X114592335Y-98506206D01*
X114592328Y-98506202D01*
X114457482Y-98455908D01*
X114457483Y-98455908D01*
X114397883Y-98449501D01*
X114397881Y-98449500D01*
X114397873Y-98449500D01*
X114397864Y-98449500D01*
X112802129Y-98449500D01*
X112802123Y-98449501D01*
X112742516Y-98455908D01*
X112607671Y-98506202D01*
X112607664Y-98506206D01*
X112492455Y-98592452D01*
X112492452Y-98592455D01*
X112406206Y-98707664D01*
X112406202Y-98707671D01*
X112355908Y-98842517D01*
X112349501Y-98902116D01*
X112349500Y-98902135D01*
X103609184Y-98902135D01*
X103578828Y-98860354D01*
X103439646Y-98721172D01*
X103280405Y-98605476D01*
X103272823Y-98601613D01*
X103105029Y-98516117D01*
X102917826Y-98455290D01*
X102723422Y-98424500D01*
X102723417Y-98424500D01*
X102526583Y-98424500D01*
X102526578Y-98424500D01*
X102332173Y-98455290D01*
X102144970Y-98516117D01*
X101969591Y-98605478D01*
X101868614Y-98678842D01*
X101802808Y-98702322D01*
X101734754Y-98686496D01*
X101696463Y-98652835D01*
X101632547Y-98567455D01*
X101632544Y-98567452D01*
X101517335Y-98481206D01*
X101517328Y-98481202D01*
X101382482Y-98430908D01*
X101382483Y-98430908D01*
X101322883Y-98424501D01*
X101322881Y-98424500D01*
X101322873Y-98424500D01*
X101322864Y-98424500D01*
X99727129Y-98424500D01*
X99727123Y-98424501D01*
X99667516Y-98430908D01*
X99532671Y-98481202D01*
X99532664Y-98481206D01*
X99417455Y-98567452D01*
X99417452Y-98567455D01*
X99331206Y-98682664D01*
X99331202Y-98682671D01*
X99280908Y-98817517D01*
X99274501Y-98877116D01*
X99274500Y-98877135D01*
X96300500Y-98877135D01*
X96300500Y-95301210D01*
X119915000Y-95301210D01*
X119915000Y-95458789D01*
X119924701Y-95557299D01*
X119924701Y-95557302D01*
X119955444Y-95711864D01*
X119984185Y-95806612D01*
X120044490Y-95952198D01*
X120091155Y-96039501D01*
X120091161Y-96039511D01*
X120137534Y-96108912D01*
X120737037Y-95509410D01*
X120754075Y-95572993D01*
X120819901Y-95687007D01*
X120912993Y-95780099D01*
X121027007Y-95845925D01*
X121090589Y-95862962D01*
X120491085Y-96462465D01*
X120560488Y-96508838D01*
X120560498Y-96508844D01*
X120626454Y-96544099D01*
X120676298Y-96593062D01*
X120691758Y-96661200D01*
X120667926Y-96726879D01*
X120624295Y-96763942D01*
X120538386Y-96807715D01*
X120372786Y-96928028D01*
X120228028Y-97072786D01*
X120107715Y-97238386D01*
X120014781Y-97420776D01*
X119951522Y-97615465D01*
X119919500Y-97817648D01*
X119919500Y-98022351D01*
X119951522Y-98224534D01*
X120014781Y-98419223D01*
X120064152Y-98516117D01*
X120103048Y-98592455D01*
X120107715Y-98601613D01*
X120228028Y-98767213D01*
X120372786Y-98911971D01*
X120454987Y-98971692D01*
X120538390Y-99032287D01*
X120629840Y-99078883D01*
X120631080Y-99079515D01*
X120681876Y-99127490D01*
X120698671Y-99195311D01*
X120676134Y-99261446D01*
X120631080Y-99300485D01*
X120538386Y-99347715D01*
X120372786Y-99468028D01*
X120228028Y-99612786D01*
X120107715Y-99778386D01*
X120014781Y-99960776D01*
X119951522Y-100155465D01*
X119919500Y-100357648D01*
X119919500Y-100562351D01*
X119951522Y-100764534D01*
X120014781Y-100959223D01*
X120107715Y-101141613D01*
X120228028Y-101307213D01*
X120372786Y-101451971D01*
X120527749Y-101564556D01*
X120538390Y-101572287D01*
X120629840Y-101618883D01*
X120631080Y-101619515D01*
X120681876Y-101667490D01*
X120698671Y-101735311D01*
X120676134Y-101801446D01*
X120631080Y-101840485D01*
X120538386Y-101887715D01*
X120372786Y-102008028D01*
X120228028Y-102152786D01*
X120107715Y-102318386D01*
X120014781Y-102500776D01*
X119951522Y-102695465D01*
X119919500Y-102897648D01*
X119919500Y-103102351D01*
X119951522Y-103304534D01*
X120014781Y-103499223D01*
X120107715Y-103681613D01*
X120228028Y-103847213D01*
X120372786Y-103991971D01*
X120527749Y-104104556D01*
X120538390Y-104112287D01*
X120629840Y-104158883D01*
X120631080Y-104159515D01*
X120681876Y-104207490D01*
X120698671Y-104275311D01*
X120676134Y-104341446D01*
X120631080Y-104380485D01*
X120538386Y-104427715D01*
X120372786Y-104548028D01*
X120228028Y-104692786D01*
X120107715Y-104858386D01*
X120014781Y-105040776D01*
X119951522Y-105235465D01*
X119919500Y-105437648D01*
X119919500Y-105642351D01*
X119951522Y-105844534D01*
X120014781Y-106039223D01*
X120107715Y-106221613D01*
X120228028Y-106387213D01*
X120372786Y-106531971D01*
X120538388Y-106652286D01*
X120538390Y-106652287D01*
X120624294Y-106696057D01*
X120675090Y-106744031D01*
X120691886Y-106811852D01*
X120669349Y-106877987D01*
X120626455Y-106915899D01*
X120560497Y-106951155D01*
X120491086Y-106997534D01*
X120491085Y-106997534D01*
X121090589Y-107597037D01*
X121027007Y-107614075D01*
X120912993Y-107679901D01*
X120819901Y-107772993D01*
X120754075Y-107887007D01*
X120737037Y-107950588D01*
X120137534Y-107351085D01*
X120137534Y-107351086D01*
X120091158Y-107420493D01*
X120044490Y-107507801D01*
X119984185Y-107653387D01*
X119955444Y-107748135D01*
X119924701Y-107902697D01*
X119924701Y-107902700D01*
X119915000Y-108001210D01*
X119915000Y-108158789D01*
X119924701Y-108257299D01*
X119924701Y-108257302D01*
X119955444Y-108411864D01*
X119984185Y-108506612D01*
X120044490Y-108652198D01*
X120091155Y-108739501D01*
X120091161Y-108739511D01*
X120137534Y-108808912D01*
X120737037Y-108209410D01*
X120754075Y-108272993D01*
X120819901Y-108387007D01*
X120912993Y-108480099D01*
X121027007Y-108545925D01*
X121090589Y-108562962D01*
X120491085Y-109162465D01*
X120560488Y-109208838D01*
X120560498Y-109208844D01*
X120626454Y-109244099D01*
X120676298Y-109293062D01*
X120691758Y-109361200D01*
X120667926Y-109426879D01*
X120624295Y-109463942D01*
X120538386Y-109507715D01*
X120372786Y-109628028D01*
X120228028Y-109772786D01*
X120107715Y-109938386D01*
X120014781Y-110120776D01*
X119951522Y-110315465D01*
X119919500Y-110517648D01*
X119919500Y-110722351D01*
X119951522Y-110924534D01*
X120014781Y-111119223D01*
X120107715Y-111301613D01*
X120228028Y-111467213D01*
X120372786Y-111611971D01*
X120527749Y-111724556D01*
X120538390Y-111732287D01*
X120629840Y-111778883D01*
X120631080Y-111779515D01*
X120681876Y-111827490D01*
X120698671Y-111895311D01*
X120676134Y-111961446D01*
X120631080Y-112000485D01*
X120538386Y-112047715D01*
X120372786Y-112168028D01*
X120228028Y-112312786D01*
X120107715Y-112478386D01*
X120014781Y-112660776D01*
X119951522Y-112855465D01*
X119919500Y-113057648D01*
X119919500Y-113262351D01*
X119951522Y-113464534D01*
X120014781Y-113659223D01*
X120107715Y-113841613D01*
X120228028Y-114007213D01*
X120372786Y-114151971D01*
X120527749Y-114264556D01*
X120538390Y-114272287D01*
X120629840Y-114318883D01*
X120631080Y-114319515D01*
X120681876Y-114367490D01*
X120698671Y-114435311D01*
X120676134Y-114501446D01*
X120631080Y-114540485D01*
X120538386Y-114587715D01*
X120372786Y-114708028D01*
X120228028Y-114852786D01*
X120107715Y-115018386D01*
X120014781Y-115200776D01*
X119951522Y-115395465D01*
X119919500Y-115597648D01*
X119919500Y-115802351D01*
X119951522Y-116004534D01*
X120014781Y-116199223D01*
X120107715Y-116381613D01*
X120228028Y-116547213D01*
X120372786Y-116691971D01*
X120527749Y-116804556D01*
X120538390Y-116812287D01*
X120629840Y-116858883D01*
X120631080Y-116859515D01*
X120681876Y-116907490D01*
X120698671Y-116975311D01*
X120676134Y-117041446D01*
X120631080Y-117080485D01*
X120538386Y-117127715D01*
X120372786Y-117248028D01*
X120228028Y-117392786D01*
X120107715Y-117558386D01*
X120014781Y-117740776D01*
X119951522Y-117935465D01*
X119919500Y-118137648D01*
X119919500Y-118342351D01*
X119951522Y-118544534D01*
X120014781Y-118739223D01*
X120107715Y-118921613D01*
X120228028Y-119087213D01*
X120372786Y-119231971D01*
X120538388Y-119352286D01*
X120538390Y-119352287D01*
X120624294Y-119396057D01*
X120675090Y-119444031D01*
X120691886Y-119511852D01*
X120669349Y-119577987D01*
X120626455Y-119615899D01*
X120560497Y-119651155D01*
X120491086Y-119697534D01*
X120491085Y-119697534D01*
X121090589Y-120297037D01*
X121027007Y-120314075D01*
X120912993Y-120379901D01*
X120819901Y-120472993D01*
X120754075Y-120587007D01*
X120737037Y-120650588D01*
X120137534Y-120051085D01*
X120137534Y-120051086D01*
X120091158Y-120120493D01*
X120044490Y-120207801D01*
X119984185Y-120353387D01*
X119955444Y-120448135D01*
X119924701Y-120602697D01*
X119924701Y-120602700D01*
X119915000Y-120701210D01*
X119915000Y-120858789D01*
X119924701Y-120957299D01*
X119924701Y-120957302D01*
X119955444Y-121111864D01*
X119984185Y-121206612D01*
X120044490Y-121352198D01*
X120091155Y-121439501D01*
X120091161Y-121439511D01*
X120137534Y-121508912D01*
X120737037Y-120909410D01*
X120754075Y-120972993D01*
X120819901Y-121087007D01*
X120912993Y-121180099D01*
X121027007Y-121245925D01*
X121090589Y-121262962D01*
X120491085Y-121862465D01*
X120560488Y-121908838D01*
X120560498Y-121908844D01*
X120626454Y-121944099D01*
X120676298Y-121993062D01*
X120691758Y-122061200D01*
X120667926Y-122126879D01*
X120624295Y-122163942D01*
X120538386Y-122207715D01*
X120372786Y-122328028D01*
X120228028Y-122472786D01*
X120107715Y-122638386D01*
X120014781Y-122820776D01*
X119951522Y-123015465D01*
X119919500Y-123217648D01*
X119919500Y-123422351D01*
X119951522Y-123624534D01*
X120014781Y-123819223D01*
X120107715Y-124001613D01*
X120228028Y-124167213D01*
X120372786Y-124311971D01*
X120471768Y-124383884D01*
X120538390Y-124432287D01*
X120610622Y-124469091D01*
X120631080Y-124479515D01*
X120681876Y-124527490D01*
X120698671Y-124595311D01*
X120676134Y-124661446D01*
X120631080Y-124700485D01*
X120538386Y-124747715D01*
X120372786Y-124868028D01*
X120228028Y-125012786D01*
X120107715Y-125178386D01*
X120014781Y-125360776D01*
X119951522Y-125555465D01*
X119919500Y-125757648D01*
X119919500Y-125962351D01*
X119951522Y-126164534D01*
X120014781Y-126359223D01*
X120107715Y-126541613D01*
X120228028Y-126707213D01*
X120372786Y-126851971D01*
X120527749Y-126964556D01*
X120538390Y-126972287D01*
X120629840Y-127018883D01*
X120631080Y-127019515D01*
X120681876Y-127067490D01*
X120698671Y-127135311D01*
X120676134Y-127201446D01*
X120631080Y-127240485D01*
X120538386Y-127287715D01*
X120372786Y-127408028D01*
X120228028Y-127552786D01*
X120107715Y-127718386D01*
X120014781Y-127900776D01*
X119951522Y-128095465D01*
X119919500Y-128297648D01*
X119919500Y-128502351D01*
X119951522Y-128704534D01*
X120014781Y-128899223D01*
X120107715Y-129081613D01*
X120228028Y-129247213D01*
X120372786Y-129391971D01*
X120527749Y-129504556D01*
X120538390Y-129512287D01*
X120629840Y-129558883D01*
X120631080Y-129559515D01*
X120681876Y-129607490D01*
X120698671Y-129675311D01*
X120676134Y-129741446D01*
X120631080Y-129780485D01*
X120538386Y-129827715D01*
X120372786Y-129948028D01*
X120228028Y-130092786D01*
X120107715Y-130258386D01*
X120014781Y-130440776D01*
X119951522Y-130635465D01*
X119919500Y-130837648D01*
X119919500Y-131042351D01*
X119951522Y-131244534D01*
X120014781Y-131439223D01*
X120107715Y-131621613D01*
X120228028Y-131787213D01*
X120372786Y-131931971D01*
X120538388Y-132052286D01*
X120538390Y-132052287D01*
X120624294Y-132096057D01*
X120675090Y-132144031D01*
X120691886Y-132211852D01*
X120669349Y-132277987D01*
X120626455Y-132315899D01*
X120560497Y-132351155D01*
X120491086Y-132397534D01*
X120491085Y-132397534D01*
X121090589Y-132997037D01*
X121027007Y-133014075D01*
X120912993Y-133079901D01*
X120819901Y-133172993D01*
X120754075Y-133287007D01*
X120737037Y-133350588D01*
X120137534Y-132751085D01*
X120137534Y-132751086D01*
X120091158Y-132820493D01*
X120044490Y-132907801D01*
X119984185Y-133053387D01*
X119955444Y-133148135D01*
X119924701Y-133302697D01*
X119924701Y-133302700D01*
X119915000Y-133401210D01*
X119915000Y-133558789D01*
X119924701Y-133657299D01*
X119924701Y-133657302D01*
X119955444Y-133811864D01*
X119984185Y-133906612D01*
X120044490Y-134052198D01*
X120091155Y-134139501D01*
X120091161Y-134139511D01*
X120137534Y-134208912D01*
X120737037Y-133609410D01*
X120754075Y-133672993D01*
X120819901Y-133787007D01*
X120912993Y-133880099D01*
X121027007Y-133945925D01*
X121090589Y-133962962D01*
X120491085Y-134562465D01*
X120560488Y-134608838D01*
X120560498Y-134608844D01*
X120626454Y-134644099D01*
X120676298Y-134693062D01*
X120691758Y-134761200D01*
X120667926Y-134826879D01*
X120624295Y-134863942D01*
X120538386Y-134907715D01*
X120372786Y-135028028D01*
X120228028Y-135172786D01*
X120107715Y-135338386D01*
X120014781Y-135520776D01*
X119951522Y-135715465D01*
X119919500Y-135917648D01*
X119919500Y-136122351D01*
X119951522Y-136324534D01*
X120014781Y-136519223D01*
X120078691Y-136644653D01*
X120097276Y-136681127D01*
X120107715Y-136701613D01*
X120228028Y-136867213D01*
X120372786Y-137011971D01*
X120527749Y-137124556D01*
X120538390Y-137132287D01*
X120629840Y-137178883D01*
X120631080Y-137179515D01*
X120681876Y-137227490D01*
X120698671Y-137295311D01*
X120676134Y-137361446D01*
X120631080Y-137400485D01*
X120538386Y-137447715D01*
X120372786Y-137568028D01*
X120228028Y-137712786D01*
X120107715Y-137878386D01*
X120014781Y-138060776D01*
X119951522Y-138255465D01*
X119919500Y-138457648D01*
X119919500Y-138662351D01*
X119951522Y-138864534D01*
X120014781Y-139059223D01*
X120107715Y-139241613D01*
X120228028Y-139407213D01*
X120372786Y-139551971D01*
X120527749Y-139664556D01*
X120538390Y-139672287D01*
X120654607Y-139731503D01*
X120720776Y-139765218D01*
X120720778Y-139765218D01*
X120720781Y-139765220D01*
X120825137Y-139799127D01*
X120915465Y-139828477D01*
X121016557Y-139844488D01*
X121117648Y-139860500D01*
X121117649Y-139860500D01*
X121322351Y-139860500D01*
X121322352Y-139860500D01*
X121524534Y-139828477D01*
X121719219Y-139765220D01*
X121901610Y-139672287D01*
X121994590Y-139604732D01*
X122067213Y-139551971D01*
X122067215Y-139551968D01*
X122067219Y-139551966D01*
X122211966Y-139407219D01*
X122211968Y-139407215D01*
X122211971Y-139407213D01*
X122280941Y-139312282D01*
X122332287Y-139241610D01*
X122425220Y-139059219D01*
X122488477Y-138864534D01*
X122520500Y-138662352D01*
X122520500Y-138457648D01*
X122488477Y-138255466D01*
X122425220Y-138060781D01*
X122425218Y-138060778D01*
X122425218Y-138060776D01*
X122391503Y-137994607D01*
X122332287Y-137878390D01*
X122316938Y-137857264D01*
X122211971Y-137712786D01*
X122067213Y-137568028D01*
X121901614Y-137447715D01*
X121895006Y-137444348D01*
X121808917Y-137400483D01*
X121758123Y-137352511D01*
X121741328Y-137284690D01*
X121763865Y-137218555D01*
X121808917Y-137179516D01*
X121901610Y-137132287D01*
X121946039Y-137100008D01*
X122067213Y-137011971D01*
X122067215Y-137011968D01*
X122067219Y-137011966D01*
X122211966Y-136867219D01*
X122211968Y-136867215D01*
X122211971Y-136867213D01*
X122274528Y-136781109D01*
X122332287Y-136701610D01*
X122425220Y-136519219D01*
X122488477Y-136324534D01*
X122520500Y-136122352D01*
X122520500Y-135917648D01*
X122505754Y-135824548D01*
X122488477Y-135715465D01*
X122425218Y-135520776D01*
X122362254Y-135397204D01*
X122332287Y-135338390D01*
X122324556Y-135327749D01*
X122211971Y-135172786D01*
X122067217Y-135028032D01*
X121990415Y-134972232D01*
X121947750Y-134916902D01*
X121941771Y-134847288D01*
X121974377Y-134785494D01*
X122032640Y-134751765D01*
X122053039Y-134746559D01*
X122109584Y-134723136D01*
X122109584Y-134723135D01*
X121349410Y-133962962D01*
X121412993Y-133945925D01*
X121527007Y-133880099D01*
X121620099Y-133787007D01*
X121685925Y-133672993D01*
X121702962Y-133609411D01*
X122463135Y-134369584D01*
X122463136Y-134369584D01*
X122486552Y-134313053D01*
X122504544Y-134262053D01*
X122524999Y-134119780D01*
X122525000Y-134119779D01*
X122525000Y-132840214D01*
X122522106Y-132786237D01*
X122522106Y-132786235D01*
X122486561Y-132646969D01*
X122486559Y-132646962D01*
X122463135Y-132590414D01*
X121702962Y-133350588D01*
X121685925Y-133287007D01*
X121620099Y-133172993D01*
X121527007Y-133079901D01*
X121412993Y-133014075D01*
X121349410Y-132997037D01*
X122109584Y-132236862D01*
X122053059Y-132213449D01*
X122053048Y-132213445D01*
X122024374Y-132203329D01*
X121967703Y-132162462D01*
X121942122Y-132097443D01*
X121955754Y-132028916D01*
X121992745Y-131986074D01*
X122067215Y-131931969D01*
X122067215Y-131931968D01*
X122067219Y-131931966D01*
X122211966Y-131787219D01*
X122211968Y-131787215D01*
X122211971Y-131787213D01*
X122293217Y-131675385D01*
X122332287Y-131621610D01*
X122425220Y-131439219D01*
X122488477Y-131244534D01*
X122520500Y-131042352D01*
X122520500Y-130837648D01*
X122488477Y-130635466D01*
X122425220Y-130440781D01*
X122425218Y-130440778D01*
X122425218Y-130440776D01*
X122391503Y-130374607D01*
X122332287Y-130258390D01*
X122290602Y-130201015D01*
X122211971Y-130092786D01*
X122067213Y-129948028D01*
X121901614Y-129827715D01*
X121895006Y-129824348D01*
X121808917Y-129780483D01*
X121758123Y-129732511D01*
X121741328Y-129664690D01*
X121763865Y-129598555D01*
X121808917Y-129559516D01*
X121901610Y-129512287D01*
X121922770Y-129496913D01*
X122067213Y-129391971D01*
X122067215Y-129391968D01*
X122067219Y-129391966D01*
X122211966Y-129247219D01*
X122211968Y-129247215D01*
X122211971Y-129247213D01*
X122323715Y-129093408D01*
X122332287Y-129081610D01*
X122425220Y-128899219D01*
X122488477Y-128704534D01*
X122520500Y-128502352D01*
X122520500Y-128297648D01*
X122488477Y-128095466D01*
X122425220Y-127900781D01*
X122425218Y-127900778D01*
X122425218Y-127900776D01*
X122385233Y-127822302D01*
X122332287Y-127718390D01*
X122324556Y-127707749D01*
X122211971Y-127552786D01*
X122067213Y-127408028D01*
X121901614Y-127287715D01*
X121895006Y-127284348D01*
X121808917Y-127240483D01*
X121758123Y-127192511D01*
X121741328Y-127124690D01*
X121763865Y-127058555D01*
X121808917Y-127019516D01*
X121901610Y-126972287D01*
X121922770Y-126956913D01*
X122067213Y-126851971D01*
X122067215Y-126851968D01*
X122067219Y-126851966D01*
X122211966Y-126707219D01*
X122211968Y-126707215D01*
X122211971Y-126707213D01*
X122264732Y-126634590D01*
X122332287Y-126541610D01*
X122425220Y-126359219D01*
X122488477Y-126164534D01*
X122520500Y-125962352D01*
X122520500Y-125757648D01*
X122488477Y-125555466D01*
X122477468Y-125521585D01*
X122443503Y-125417050D01*
X122425220Y-125360781D01*
X122425218Y-125360778D01*
X122425218Y-125360776D01*
X122391503Y-125294607D01*
X122332287Y-125178390D01*
X122324556Y-125167749D01*
X122211971Y-125012786D01*
X122067213Y-124868028D01*
X121901614Y-124747715D01*
X121895006Y-124744348D01*
X121808917Y-124700483D01*
X121758123Y-124652511D01*
X121741328Y-124584690D01*
X121763865Y-124518555D01*
X121808917Y-124479516D01*
X121901610Y-124432287D01*
X121968232Y-124383884D01*
X122067213Y-124311971D01*
X122067215Y-124311968D01*
X122067219Y-124311966D01*
X122211966Y-124167219D01*
X122214650Y-124163524D01*
X122245100Y-124121615D01*
X122300429Y-124078949D01*
X122345418Y-124070500D01*
X127957770Y-124070500D01*
X128024809Y-124090185D01*
X128045451Y-124106819D01*
X130213181Y-126274548D01*
X130246666Y-126335871D01*
X130249500Y-126362229D01*
X130249500Y-135713918D01*
X130249500Y-135713920D01*
X130249499Y-135713920D01*
X130278340Y-135858907D01*
X130278343Y-135858917D01*
X130334914Y-135995491D01*
X130334916Y-135995495D01*
X130355856Y-136026835D01*
X130366188Y-136042298D01*
X130417049Y-136118418D01*
X130417052Y-136118421D01*
X140429824Y-146131191D01*
X140463309Y-146192514D01*
X140464616Y-146238270D01*
X140449500Y-146333707D01*
X140449500Y-146546286D01*
X140482753Y-146756239D01*
X140548444Y-146958414D01*
X140644951Y-147147820D01*
X140769890Y-147319786D01*
X140920213Y-147470109D01*
X141092179Y-147595048D01*
X141092181Y-147595049D01*
X141092184Y-147595051D01*
X141101493Y-147599794D01*
X141152290Y-147647766D01*
X141169087Y-147715587D01*
X141146552Y-147781722D01*
X141101505Y-147820760D01*
X141092446Y-147825376D01*
X141092440Y-147825380D01*
X141038282Y-147864727D01*
X141038282Y-147864728D01*
X141670591Y-148497037D01*
X141607007Y-148514075D01*
X141492993Y-148579901D01*
X141399901Y-148672993D01*
X141334075Y-148787007D01*
X141317037Y-148850591D01*
X140684728Y-148218282D01*
X140684727Y-148218282D01*
X140645380Y-148272439D01*
X140548904Y-148461782D01*
X140483242Y-148663869D01*
X140483242Y-148663872D01*
X140450000Y-148873753D01*
X140450000Y-149086246D01*
X140483242Y-149296127D01*
X140483242Y-149296130D01*
X140548904Y-149498217D01*
X140645375Y-149687550D01*
X140684728Y-149741716D01*
X141317037Y-149109408D01*
X141334075Y-149172993D01*
X141399901Y-149287007D01*
X141492993Y-149380099D01*
X141607007Y-149445925D01*
X141670590Y-149462962D01*
X141038282Y-150095269D01*
X141038282Y-150095270D01*
X141092452Y-150134626D01*
X141092451Y-150134626D01*
X141101495Y-150139234D01*
X141152292Y-150187208D01*
X141169087Y-150255029D01*
X141146550Y-150321164D01*
X141101499Y-150360202D01*
X141092182Y-150364949D01*
X140920213Y-150489890D01*
X140769890Y-150640213D01*
X140644951Y-150812179D01*
X140548444Y-151001585D01*
X140482753Y-151203760D01*
X140449500Y-151413713D01*
X140449500Y-151626286D01*
X140482753Y-151836239D01*
X140548444Y-152038414D01*
X140644951Y-152227820D01*
X140769890Y-152399786D01*
X140920213Y-152550109D01*
X141092182Y-152675050D01*
X141100946Y-152679516D01*
X141151742Y-152727491D01*
X141168536Y-152795312D01*
X141145998Y-152861447D01*
X141100946Y-152900484D01*
X141092182Y-152904949D01*
X140920213Y-153029890D01*
X140769890Y-153180213D01*
X140644951Y-153352179D01*
X140548444Y-153541585D01*
X140482753Y-153743760D01*
X140449500Y-153953713D01*
X140449500Y-154166286D01*
X140482753Y-154376239D01*
X140548444Y-154578414D01*
X140644951Y-154767820D01*
X140769890Y-154939786D01*
X140920213Y-155090109D01*
X141092182Y-155215050D01*
X141100946Y-155219516D01*
X141151742Y-155267491D01*
X141168536Y-155335312D01*
X141145998Y-155401447D01*
X141100946Y-155440484D01*
X141092182Y-155444949D01*
X140920213Y-155569890D01*
X140769890Y-155720213D01*
X140644951Y-155892179D01*
X140548444Y-156081585D01*
X140482753Y-156283760D01*
X140449500Y-156493713D01*
X140449500Y-156706286D01*
X140482753Y-156916239D01*
X140548444Y-157118414D01*
X140644951Y-157307820D01*
X140769890Y-157479786D01*
X140920213Y-157630109D01*
X141092182Y-157755050D01*
X141100946Y-157759516D01*
X141151742Y-157807491D01*
X141168536Y-157875312D01*
X141145998Y-157941447D01*
X141100946Y-157980484D01*
X141092182Y-157984949D01*
X140920213Y-158109890D01*
X140769890Y-158260213D01*
X140644951Y-158432179D01*
X140548444Y-158621585D01*
X140482753Y-158823760D01*
X140449500Y-159033713D01*
X140449500Y-159246286D01*
X140482753Y-159456239D01*
X140548444Y-159658414D01*
X140644951Y-159847820D01*
X140769890Y-160019786D01*
X140920213Y-160170109D01*
X141092179Y-160295048D01*
X141092181Y-160295049D01*
X141092184Y-160295051D01*
X141101493Y-160299794D01*
X141152290Y-160347766D01*
X141169087Y-160415587D01*
X141146552Y-160481722D01*
X141101505Y-160520760D01*
X141092446Y-160525376D01*
X141092440Y-160525380D01*
X141038282Y-160564727D01*
X141038282Y-160564728D01*
X141670591Y-161197037D01*
X141607007Y-161214075D01*
X141492993Y-161279901D01*
X141399901Y-161372993D01*
X141334075Y-161487007D01*
X141317037Y-161550591D01*
X140684728Y-160918282D01*
X140684727Y-160918282D01*
X140645380Y-160972439D01*
X140548904Y-161161782D01*
X140483242Y-161363869D01*
X140483242Y-161363872D01*
X140450000Y-161573753D01*
X140450000Y-161786246D01*
X140483242Y-161996127D01*
X140483242Y-161996130D01*
X140548904Y-162198217D01*
X140645375Y-162387550D01*
X140684728Y-162441716D01*
X141317037Y-161809408D01*
X141334075Y-161872993D01*
X141399901Y-161987007D01*
X141492993Y-162080099D01*
X141607007Y-162145925D01*
X141670590Y-162162962D01*
X141000370Y-162833181D01*
X140939047Y-162866666D01*
X140912698Y-162869500D01*
X140902134Y-162869500D01*
X140902123Y-162869501D01*
X140842516Y-162875908D01*
X140707671Y-162926202D01*
X140707664Y-162926206D01*
X140592455Y-163012452D01*
X140592452Y-163012455D01*
X140506206Y-163127664D01*
X140506202Y-163127671D01*
X140455908Y-163262517D01*
X140449501Y-163322116D01*
X140449501Y-163322123D01*
X140449500Y-163322135D01*
X140449500Y-165117870D01*
X140449501Y-165117876D01*
X140455908Y-165177483D01*
X140506202Y-165312328D01*
X140506206Y-165312335D01*
X140592452Y-165427544D01*
X140592455Y-165427547D01*
X140707664Y-165513793D01*
X140707671Y-165513797D01*
X140842517Y-165564091D01*
X140842516Y-165564091D01*
X140849444Y-165564835D01*
X140902127Y-165570500D01*
X142697872Y-165570499D01*
X142757483Y-165564091D01*
X142892331Y-165513796D01*
X143007546Y-165427546D01*
X143093796Y-165312331D01*
X143144091Y-165177483D01*
X143150500Y-165117873D01*
X143150499Y-163322128D01*
X143144091Y-163262517D01*
X143101614Y-163148631D01*
X143093797Y-163127671D01*
X143093793Y-163127664D01*
X143007547Y-163012455D01*
X143007544Y-163012452D01*
X142892335Y-162926206D01*
X142892328Y-162926202D01*
X142757482Y-162875908D01*
X142757483Y-162875908D01*
X142697883Y-162869501D01*
X142697881Y-162869500D01*
X142697873Y-162869500D01*
X142697865Y-162869500D01*
X142687309Y-162869500D01*
X142620270Y-162849815D01*
X142599628Y-162833181D01*
X141929408Y-162162962D01*
X141992993Y-162145925D01*
X142107007Y-162080099D01*
X142200099Y-161987007D01*
X142265925Y-161872993D01*
X142282962Y-161809409D01*
X142915270Y-162441717D01*
X142915270Y-162441716D01*
X142954622Y-162387554D01*
X143051095Y-162198217D01*
X143116757Y-161996130D01*
X143116757Y-161996127D01*
X143150000Y-161786246D01*
X143150000Y-161573753D01*
X143116757Y-161363872D01*
X143116757Y-161363869D01*
X143051095Y-161161782D01*
X142954624Y-160972449D01*
X142915270Y-160918282D01*
X142915269Y-160918282D01*
X142282962Y-161550590D01*
X142265925Y-161487007D01*
X142200099Y-161372993D01*
X142107007Y-161279901D01*
X141992993Y-161214075D01*
X141929409Y-161197037D01*
X142561716Y-160564728D01*
X142507547Y-160525373D01*
X142507547Y-160525372D01*
X142498500Y-160520763D01*
X142447706Y-160472788D01*
X142430912Y-160404966D01*
X142453451Y-160338832D01*
X142498508Y-160299793D01*
X142507816Y-160295051D01*
X142587007Y-160237515D01*
X142679786Y-160170109D01*
X142679788Y-160170106D01*
X142679792Y-160170104D01*
X142830104Y-160019792D01*
X142830106Y-160019788D01*
X142830109Y-160019786D01*
X142955048Y-159847820D01*
X142955047Y-159847820D01*
X142955051Y-159847816D01*
X143051557Y-159658412D01*
X143117246Y-159456243D01*
X143150500Y-159246287D01*
X143150500Y-159033713D01*
X143117246Y-158823757D01*
X143051557Y-158621588D01*
X142955051Y-158432184D01*
X142955049Y-158432181D01*
X142955048Y-158432179D01*
X142830109Y-158260213D01*
X142679786Y-158109890D01*
X142507820Y-157984951D01*
X142507115Y-157984591D01*
X142499054Y-157980485D01*
X142448259Y-157932512D01*
X142431463Y-157864692D01*
X142453999Y-157798556D01*
X142499054Y-157759515D01*
X142507816Y-157755051D01*
X142529789Y-157739086D01*
X142679786Y-157630109D01*
X142679788Y-157630106D01*
X142679792Y-157630104D01*
X142830104Y-157479792D01*
X142830106Y-157479788D01*
X142830109Y-157479786D01*
X142955048Y-157307820D01*
X142955047Y-157307820D01*
X142955051Y-157307816D01*
X143051557Y-157118412D01*
X143117246Y-156916243D01*
X143150500Y-156706287D01*
X143150500Y-156493713D01*
X143117246Y-156283757D01*
X143051557Y-156081588D01*
X142955051Y-155892184D01*
X142955049Y-155892181D01*
X142955048Y-155892179D01*
X142830109Y-155720213D01*
X142679786Y-155569890D01*
X142507820Y-155444951D01*
X142507115Y-155444591D01*
X142499054Y-155440485D01*
X142448259Y-155392512D01*
X142431463Y-155324692D01*
X142453999Y-155258556D01*
X142499054Y-155219515D01*
X142507816Y-155215051D01*
X142529789Y-155199086D01*
X142679786Y-155090109D01*
X142679788Y-155090106D01*
X142679792Y-155090104D01*
X142830104Y-154939792D01*
X142830106Y-154939788D01*
X142830109Y-154939786D01*
X142955048Y-154767820D01*
X142955047Y-154767820D01*
X142955051Y-154767816D01*
X143051557Y-154578412D01*
X143117246Y-154376243D01*
X143150500Y-154166287D01*
X143150500Y-153953713D01*
X143117246Y-153743757D01*
X143051557Y-153541588D01*
X142955051Y-153352184D01*
X142955049Y-153352181D01*
X142955048Y-153352179D01*
X142830109Y-153180213D01*
X142679786Y-153029890D01*
X142507820Y-152904951D01*
X142507115Y-152904591D01*
X142499054Y-152900485D01*
X142448259Y-152852512D01*
X142431463Y-152784692D01*
X142453999Y-152718556D01*
X142499054Y-152679515D01*
X142507816Y-152675051D01*
X142529789Y-152659086D01*
X142679786Y-152550109D01*
X142679788Y-152550106D01*
X142679792Y-152550104D01*
X142830104Y-152399792D01*
X142830106Y-152399788D01*
X142830109Y-152399786D01*
X142955048Y-152227820D01*
X142955047Y-152227820D01*
X142955051Y-152227816D01*
X143051557Y-152038412D01*
X143117246Y-151836243D01*
X143150500Y-151626287D01*
X143150500Y-151413713D01*
X143117246Y-151203757D01*
X143051557Y-151001588D01*
X142955051Y-150812184D01*
X142955049Y-150812181D01*
X142955048Y-150812179D01*
X142830109Y-150640213D01*
X142679786Y-150489890D01*
X142507817Y-150364949D01*
X142498504Y-150360204D01*
X142447707Y-150312230D01*
X142430912Y-150244409D01*
X142453449Y-150178274D01*
X142498507Y-150139232D01*
X142507555Y-150134622D01*
X142561716Y-150095270D01*
X142561717Y-150095270D01*
X141929408Y-149462962D01*
X141992993Y-149445925D01*
X142107007Y-149380099D01*
X142200099Y-149287007D01*
X142265925Y-149172993D01*
X142282962Y-149109409D01*
X142915270Y-149741717D01*
X142915270Y-149741716D01*
X142954622Y-149687554D01*
X143051095Y-149498217D01*
X143116757Y-149296130D01*
X143116757Y-149296127D01*
X143150000Y-149086246D01*
X143150000Y-148873753D01*
X143116757Y-148663872D01*
X143116757Y-148663869D01*
X143051095Y-148461782D01*
X142954624Y-148272449D01*
X142915270Y-148218282D01*
X142915269Y-148218282D01*
X142282962Y-148850590D01*
X142265925Y-148787007D01*
X142200099Y-148672993D01*
X142107007Y-148579901D01*
X141992993Y-148514075D01*
X141929409Y-148497037D01*
X142561716Y-147864728D01*
X142507547Y-147825373D01*
X142507547Y-147825372D01*
X142498500Y-147820763D01*
X142447706Y-147772788D01*
X142430912Y-147704966D01*
X142453451Y-147638832D01*
X142498508Y-147599793D01*
X142507816Y-147595051D01*
X142587007Y-147537515D01*
X142679786Y-147470109D01*
X142679788Y-147470106D01*
X142679792Y-147470104D01*
X142830104Y-147319792D01*
X142830106Y-147319788D01*
X142830109Y-147319786D01*
X142955048Y-147147820D01*
X142955047Y-147147820D01*
X142955051Y-147147816D01*
X143051557Y-146958412D01*
X143117246Y-146756243D01*
X143150500Y-146546287D01*
X143150500Y-146333713D01*
X143117246Y-146123757D01*
X143051557Y-145921588D01*
X142955051Y-145732184D01*
X142955049Y-145732181D01*
X142955048Y-145732179D01*
X142830109Y-145560213D01*
X142679786Y-145409890D01*
X142507820Y-145284951D01*
X142318414Y-145188444D01*
X142318413Y-145188443D01*
X142318412Y-145188443D01*
X142116243Y-145122754D01*
X142116241Y-145122753D01*
X142116240Y-145122753D01*
X141945192Y-145095662D01*
X141906287Y-145089500D01*
X141693713Y-145089500D01*
X141693708Y-145089500D01*
X141598270Y-145104616D01*
X141528977Y-145095662D01*
X141491191Y-145069824D01*
X132421825Y-136000457D01*
X131786819Y-135365451D01*
X131753334Y-135304128D01*
X131750500Y-135277770D01*
X131750500Y-125926079D01*
X131721659Y-125781092D01*
X131721658Y-125781091D01*
X131721658Y-125781087D01*
X131711949Y-125757648D01*
X131665087Y-125644511D01*
X131665080Y-125644498D01*
X131582952Y-125521585D01*
X131582951Y-125521584D01*
X131478416Y-125417049D01*
X130445249Y-124383882D01*
X129361825Y-123300457D01*
X128798413Y-122737045D01*
X128749179Y-122704150D01*
X128716355Y-122682218D01*
X128675495Y-122654916D01*
X128675494Y-122654915D01*
X128675492Y-122654914D01*
X128675490Y-122654913D01*
X128538917Y-122598343D01*
X128538907Y-122598340D01*
X128393920Y-122569500D01*
X128393918Y-122569500D01*
X122345418Y-122569500D01*
X122278379Y-122549815D01*
X122245100Y-122518385D01*
X122211971Y-122472787D01*
X122211967Y-122472782D01*
X122067217Y-122328032D01*
X121990415Y-122272232D01*
X121947750Y-122216902D01*
X121941771Y-122147288D01*
X121974377Y-122085494D01*
X122032640Y-122051765D01*
X122053039Y-122046559D01*
X122109584Y-122023136D01*
X122109584Y-122023135D01*
X121349410Y-121262962D01*
X121412993Y-121245925D01*
X121527007Y-121180099D01*
X121620099Y-121087007D01*
X121685925Y-120972993D01*
X121702962Y-120909411D01*
X122463135Y-121669584D01*
X122463136Y-121669584D01*
X122486552Y-121613053D01*
X122504544Y-121562053D01*
X122524999Y-121419780D01*
X122525000Y-121419779D01*
X122525000Y-120140224D01*
X122524999Y-120140204D01*
X122522106Y-120086237D01*
X122522106Y-120086235D01*
X122486561Y-119946969D01*
X122486559Y-119946962D01*
X122463135Y-119890414D01*
X121702962Y-120650588D01*
X121685925Y-120587007D01*
X121620099Y-120472993D01*
X121527007Y-120379901D01*
X121412993Y-120314075D01*
X121349410Y-120297037D01*
X122109584Y-119536862D01*
X122053059Y-119513449D01*
X122053048Y-119513445D01*
X122024374Y-119503329D01*
X121967703Y-119462462D01*
X121942122Y-119397443D01*
X121955754Y-119328916D01*
X121992745Y-119286074D01*
X122067215Y-119231969D01*
X122067215Y-119231968D01*
X122067219Y-119231966D01*
X122211966Y-119087219D01*
X122211968Y-119087215D01*
X122211971Y-119087213D01*
X122264732Y-119014590D01*
X122332287Y-118921610D01*
X122425220Y-118739219D01*
X122488477Y-118544534D01*
X122520500Y-118342352D01*
X122520500Y-118137648D01*
X122488477Y-117935466D01*
X122425220Y-117740781D01*
X122425218Y-117740778D01*
X122425218Y-117740776D01*
X122391503Y-117674607D01*
X122332287Y-117558390D01*
X122324556Y-117547749D01*
X122211971Y-117392786D01*
X122067213Y-117248028D01*
X121901614Y-117127715D01*
X121895006Y-117124348D01*
X121808917Y-117080483D01*
X121758123Y-117032511D01*
X121741328Y-116964690D01*
X121763865Y-116898555D01*
X121808917Y-116859516D01*
X121901610Y-116812287D01*
X121922770Y-116796913D01*
X122067213Y-116691971D01*
X122067215Y-116691968D01*
X122067219Y-116691966D01*
X122211966Y-116547219D01*
X122211968Y-116547215D01*
X122211971Y-116547213D01*
X122264732Y-116474590D01*
X122332287Y-116381610D01*
X122425220Y-116199219D01*
X122488477Y-116004534D01*
X122520500Y-115802352D01*
X122520500Y-115597648D01*
X122488477Y-115395466D01*
X122425220Y-115200781D01*
X122425218Y-115200778D01*
X122425218Y-115200776D01*
X122391503Y-115134607D01*
X122332287Y-115018390D01*
X122324556Y-115007749D01*
X122211971Y-114852786D01*
X122067213Y-114708028D01*
X121901614Y-114587715D01*
X121895006Y-114584348D01*
X121808917Y-114540483D01*
X121758123Y-114492511D01*
X121741328Y-114424690D01*
X121763865Y-114358555D01*
X121808917Y-114319516D01*
X121901610Y-114272287D01*
X121922770Y-114256913D01*
X122067213Y-114151971D01*
X122067215Y-114151968D01*
X122067219Y-114151966D01*
X122211966Y-114007219D01*
X122211968Y-114007215D01*
X122211971Y-114007213D01*
X122264732Y-113934590D01*
X122332287Y-113841610D01*
X122425220Y-113659219D01*
X122488477Y-113464534D01*
X122520500Y-113262352D01*
X122520500Y-113057648D01*
X122488477Y-112855466D01*
X122425220Y-112660781D01*
X122425218Y-112660778D01*
X122425218Y-112660776D01*
X122391503Y-112594607D01*
X122332287Y-112478390D01*
X122324556Y-112467749D01*
X122211971Y-112312786D01*
X122067213Y-112168028D01*
X121901614Y-112047715D01*
X121895006Y-112044348D01*
X121808917Y-112000483D01*
X121758123Y-111952511D01*
X121741328Y-111884690D01*
X121763865Y-111818555D01*
X121808917Y-111779516D01*
X121901610Y-111732287D01*
X121922770Y-111716913D01*
X122067213Y-111611971D01*
X122067215Y-111611968D01*
X122067219Y-111611966D01*
X122211966Y-111467219D01*
X122211968Y-111467215D01*
X122211971Y-111467213D01*
X122264732Y-111394590D01*
X122332287Y-111301610D01*
X122425220Y-111119219D01*
X122488477Y-110924534D01*
X122520500Y-110722352D01*
X122520500Y-110517648D01*
X122488477Y-110315466D01*
X122425220Y-110120781D01*
X122425218Y-110120778D01*
X122425218Y-110120776D01*
X122391503Y-110054607D01*
X122332287Y-109938390D01*
X122324556Y-109927749D01*
X122211971Y-109772786D01*
X122067217Y-109628032D01*
X121990415Y-109572232D01*
X121947750Y-109516902D01*
X121941771Y-109447288D01*
X121974377Y-109385494D01*
X122032640Y-109351765D01*
X122053039Y-109346559D01*
X122109584Y-109323136D01*
X122109584Y-109323135D01*
X121349410Y-108562962D01*
X121412993Y-108545925D01*
X121527007Y-108480099D01*
X121620099Y-108387007D01*
X121685925Y-108272993D01*
X121702962Y-108209411D01*
X122463135Y-108969584D01*
X122463136Y-108969584D01*
X122486552Y-108913053D01*
X122504544Y-108862053D01*
X122524999Y-108719780D01*
X122525000Y-108719779D01*
X122525000Y-107440224D01*
X122525000Y-107440219D01*
X137694500Y-107440219D01*
X137694500Y-108719784D01*
X137697395Y-108773814D01*
X137697396Y-108773818D01*
X137732976Y-108913221D01*
X137732980Y-108913233D01*
X137763419Y-108986719D01*
X137763431Y-108986747D01*
X137786779Y-109035548D01*
X137786781Y-109035551D01*
X137873006Y-109150733D01*
X137873010Y-109150737D01*
X137873015Y-109150743D01*
X137929252Y-109206980D01*
X137929261Y-109206988D01*
X137929267Y-109206994D01*
X137969524Y-109243156D01*
X137969532Y-109243162D01*
X138093263Y-109316573D01*
X138093262Y-109316573D01*
X138100329Y-109319500D01*
X138166774Y-109347022D01*
X138182645Y-109352621D01*
X138195133Y-109357027D01*
X138251805Y-109397894D01*
X138277386Y-109462912D01*
X138263754Y-109531439D01*
X138226765Y-109574281D01*
X138152782Y-109628032D01*
X138008028Y-109772786D01*
X137887715Y-109938386D01*
X137794781Y-110120776D01*
X137731522Y-110315465D01*
X137699500Y-110517648D01*
X137699500Y-110722351D01*
X137731522Y-110924534D01*
X137794781Y-111119223D01*
X137887715Y-111301613D01*
X138008028Y-111467213D01*
X138152786Y-111611971D01*
X138307749Y-111724556D01*
X138318390Y-111732287D01*
X138409840Y-111778883D01*
X138411080Y-111779515D01*
X138461876Y-111827490D01*
X138478671Y-111895311D01*
X138456134Y-111961446D01*
X138411080Y-112000485D01*
X138318386Y-112047715D01*
X138152786Y-112168028D01*
X138008028Y-112312786D01*
X137887715Y-112478386D01*
X137794781Y-112660776D01*
X137731522Y-112855465D01*
X137699500Y-113057648D01*
X137699500Y-113262351D01*
X137731522Y-113464534D01*
X137794781Y-113659223D01*
X137887715Y-113841613D01*
X138008028Y-114007213D01*
X138152786Y-114151971D01*
X138307749Y-114264556D01*
X138318390Y-114272287D01*
X138409840Y-114318883D01*
X138411080Y-114319515D01*
X138461876Y-114367490D01*
X138478671Y-114435311D01*
X138456134Y-114501446D01*
X138411080Y-114540485D01*
X138318386Y-114587715D01*
X138152786Y-114708028D01*
X138008028Y-114852786D01*
X137887715Y-115018386D01*
X137794781Y-115200776D01*
X137731522Y-115395465D01*
X137699500Y-115597648D01*
X137699500Y-115802351D01*
X137731522Y-116004534D01*
X137794781Y-116199223D01*
X137887715Y-116381613D01*
X138008028Y-116547213D01*
X138152786Y-116691971D01*
X138307749Y-116804556D01*
X138318390Y-116812287D01*
X138409840Y-116858883D01*
X138411080Y-116859515D01*
X138461876Y-116907490D01*
X138478671Y-116975311D01*
X138456134Y-117041446D01*
X138411080Y-117080485D01*
X138318386Y-117127715D01*
X138152786Y-117248028D01*
X138008028Y-117392786D01*
X137887715Y-117558386D01*
X137794781Y-117740776D01*
X137731522Y-117935465D01*
X137699500Y-118137648D01*
X137699500Y-118342351D01*
X137731522Y-118544534D01*
X137794781Y-118739223D01*
X137887715Y-118921613D01*
X138008028Y-119087213D01*
X138152782Y-119231967D01*
X138152787Y-119231971D01*
X138229583Y-119287767D01*
X138272249Y-119343097D01*
X138278228Y-119412710D01*
X138245622Y-119474505D01*
X138187365Y-119508233D01*
X138166973Y-119513437D01*
X138166962Y-119513441D01*
X138110415Y-119536863D01*
X138870589Y-120297037D01*
X138807007Y-120314075D01*
X138692993Y-120379901D01*
X138599901Y-120472993D01*
X138534075Y-120587007D01*
X138517037Y-120650589D01*
X137756863Y-119890415D01*
X137756862Y-119890415D01*
X137733446Y-119946947D01*
X137733431Y-119946987D01*
X137715457Y-119997939D01*
X137715455Y-119997946D01*
X137695000Y-120140219D01*
X137695000Y-121419785D01*
X137697893Y-121473762D01*
X137697893Y-121473764D01*
X137733438Y-121613030D01*
X137733442Y-121613043D01*
X137756862Y-121669584D01*
X138517037Y-120909410D01*
X138534075Y-120972993D01*
X138599901Y-121087007D01*
X138692993Y-121180099D01*
X138807007Y-121245925D01*
X138870589Y-121262962D01*
X138110414Y-122023135D01*
X138166960Y-122046557D01*
X138166986Y-122046567D01*
X138195621Y-122056669D01*
X138252294Y-122097534D01*
X138277876Y-122162552D01*
X138264246Y-122231080D01*
X138227256Y-122273924D01*
X138152782Y-122328032D01*
X138008028Y-122472786D01*
X137887715Y-122638386D01*
X137794781Y-122820776D01*
X137731522Y-123015465D01*
X137699500Y-123217648D01*
X137699500Y-123422351D01*
X137731522Y-123624534D01*
X137794781Y-123819223D01*
X137887715Y-124001613D01*
X138008028Y-124167213D01*
X138152786Y-124311971D01*
X138251768Y-124383884D01*
X138318390Y-124432287D01*
X138390622Y-124469091D01*
X138411080Y-124479515D01*
X138461876Y-124527490D01*
X138478671Y-124595311D01*
X138456134Y-124661446D01*
X138411080Y-124700485D01*
X138318386Y-124747715D01*
X138152786Y-124868028D01*
X138008028Y-125012786D01*
X137887715Y-125178386D01*
X137794781Y-125360776D01*
X137731522Y-125555465D01*
X137699500Y-125757648D01*
X137699500Y-125962351D01*
X137731522Y-126164534D01*
X137794781Y-126359223D01*
X137887715Y-126541613D01*
X138008028Y-126707213D01*
X138152786Y-126851971D01*
X138307749Y-126964556D01*
X138318390Y-126972287D01*
X138409840Y-127018883D01*
X138411080Y-127019515D01*
X138461876Y-127067490D01*
X138478671Y-127135311D01*
X138456134Y-127201446D01*
X138411080Y-127240485D01*
X138318386Y-127287715D01*
X138152786Y-127408028D01*
X138008028Y-127552786D01*
X137887715Y-127718386D01*
X137794781Y-127900776D01*
X137731522Y-128095465D01*
X137699500Y-128297648D01*
X137699500Y-128502351D01*
X137731522Y-128704534D01*
X137794781Y-128899223D01*
X137887715Y-129081613D01*
X138008028Y-129247213D01*
X138152786Y-129391971D01*
X138307749Y-129504556D01*
X138318390Y-129512287D01*
X138409840Y-129558883D01*
X138411080Y-129559515D01*
X138461876Y-129607490D01*
X138478671Y-129675311D01*
X138456134Y-129741446D01*
X138411080Y-129780485D01*
X138318386Y-129827715D01*
X138152786Y-129948028D01*
X138008028Y-130092786D01*
X137887715Y-130258386D01*
X137794781Y-130440776D01*
X137731522Y-130635465D01*
X137699500Y-130837648D01*
X137699500Y-131042351D01*
X137731522Y-131244534D01*
X137794781Y-131439223D01*
X137887715Y-131621613D01*
X138008028Y-131787213D01*
X138152782Y-131931967D01*
X138152787Y-131931971D01*
X138229583Y-131987767D01*
X138272249Y-132043097D01*
X138278228Y-132112710D01*
X138245622Y-132174505D01*
X138187365Y-132208233D01*
X138166973Y-132213437D01*
X138166962Y-132213441D01*
X138110415Y-132236863D01*
X138870589Y-132997037D01*
X138807007Y-133014075D01*
X138692993Y-133079901D01*
X138599901Y-133172993D01*
X138534075Y-133287007D01*
X138517037Y-133350589D01*
X137756863Y-132590415D01*
X137756862Y-132590415D01*
X137733446Y-132646947D01*
X137733431Y-132646987D01*
X137715457Y-132697939D01*
X137715455Y-132697946D01*
X137695000Y-132840219D01*
X137695000Y-134119785D01*
X137697893Y-134173762D01*
X137697893Y-134173764D01*
X137733438Y-134313030D01*
X137733442Y-134313043D01*
X137756862Y-134369584D01*
X138517037Y-133609410D01*
X138534075Y-133672993D01*
X138599901Y-133787007D01*
X138692993Y-133880099D01*
X138807007Y-133945925D01*
X138870589Y-133962962D01*
X138110414Y-134723135D01*
X138166960Y-134746557D01*
X138166986Y-134746567D01*
X138195621Y-134756669D01*
X138252294Y-134797534D01*
X138277876Y-134862552D01*
X138264246Y-134931080D01*
X138227256Y-134973924D01*
X138152782Y-135028032D01*
X138008028Y-135172786D01*
X137887715Y-135338386D01*
X137794781Y-135520776D01*
X137731522Y-135715465D01*
X137699500Y-135917648D01*
X137699500Y-136122351D01*
X137731522Y-136324534D01*
X137794781Y-136519223D01*
X137858691Y-136644653D01*
X137877276Y-136681127D01*
X137887715Y-136701613D01*
X138008028Y-136867213D01*
X138152786Y-137011971D01*
X138307749Y-137124556D01*
X138318390Y-137132287D01*
X138409840Y-137178883D01*
X138411080Y-137179515D01*
X138461876Y-137227490D01*
X138478671Y-137295311D01*
X138456134Y-137361446D01*
X138411080Y-137400485D01*
X138318386Y-137447715D01*
X138152786Y-137568028D01*
X138008028Y-137712786D01*
X137887715Y-137878386D01*
X137794781Y-138060776D01*
X137731522Y-138255465D01*
X137699500Y-138457648D01*
X137699500Y-138662351D01*
X137731522Y-138864534D01*
X137794781Y-139059223D01*
X137887715Y-139241613D01*
X138008028Y-139407213D01*
X138152786Y-139551971D01*
X138307749Y-139664556D01*
X138318390Y-139672287D01*
X138434607Y-139731503D01*
X138500776Y-139765218D01*
X138500778Y-139765218D01*
X138500781Y-139765220D01*
X138605137Y-139799127D01*
X138695465Y-139828477D01*
X138796557Y-139844488D01*
X138897648Y-139860500D01*
X138897649Y-139860500D01*
X139102351Y-139860500D01*
X139102352Y-139860500D01*
X139304534Y-139828477D01*
X139499219Y-139765220D01*
X139681610Y-139672287D01*
X139774590Y-139604732D01*
X139847213Y-139551971D01*
X139847215Y-139551968D01*
X139847219Y-139551966D01*
X139991966Y-139407219D01*
X139991968Y-139407215D01*
X139991971Y-139407213D01*
X140060941Y-139312282D01*
X140112287Y-139241610D01*
X140205220Y-139059219D01*
X140268477Y-138864534D01*
X140300500Y-138662352D01*
X140300500Y-138457648D01*
X140268477Y-138255466D01*
X140205220Y-138060781D01*
X140205218Y-138060778D01*
X140205218Y-138060776D01*
X140171503Y-137994607D01*
X140112287Y-137878390D01*
X140096938Y-137857264D01*
X139991971Y-137712786D01*
X139847213Y-137568028D01*
X139681614Y-137447715D01*
X139675006Y-137444348D01*
X139588917Y-137400483D01*
X139538123Y-137352511D01*
X139521328Y-137284690D01*
X139543865Y-137218555D01*
X139588917Y-137179516D01*
X139681610Y-137132287D01*
X139726039Y-137100008D01*
X139847213Y-137011971D01*
X139847215Y-137011968D01*
X139847219Y-137011966D01*
X139991966Y-136867219D01*
X139991968Y-136867215D01*
X139991971Y-136867213D01*
X140054528Y-136781109D01*
X140112287Y-136701610D01*
X140205220Y-136519219D01*
X140268477Y-136324534D01*
X140300500Y-136122352D01*
X140300500Y-135917648D01*
X140285754Y-135824548D01*
X140268477Y-135715465D01*
X140205218Y-135520776D01*
X140142254Y-135397204D01*
X140112287Y-135338390D01*
X140104556Y-135327749D01*
X139991971Y-135172786D01*
X139847213Y-135028028D01*
X139681614Y-134907715D01*
X139673410Y-134903535D01*
X139595703Y-134863941D01*
X139544908Y-134815968D01*
X139528113Y-134748147D01*
X139550650Y-134682012D01*
X139593546Y-134644099D01*
X139659503Y-134608843D01*
X139659515Y-134608837D01*
X139728913Y-134562465D01*
X139129410Y-133962962D01*
X139192993Y-133945925D01*
X139307007Y-133880099D01*
X139400099Y-133787007D01*
X139465925Y-133672993D01*
X139482962Y-133609410D01*
X140082465Y-134208913D01*
X140128837Y-134139515D01*
X140128838Y-134139511D01*
X140175509Y-134052198D01*
X140235814Y-133906612D01*
X140264555Y-133811864D01*
X140295298Y-133657302D01*
X140295298Y-133657299D01*
X140305000Y-133558789D01*
X140305000Y-133401210D01*
X140295298Y-133302700D01*
X140295298Y-133302697D01*
X140264555Y-133148135D01*
X140235814Y-133053387D01*
X140175509Y-132907801D01*
X140128844Y-132820498D01*
X140128838Y-132820488D01*
X140082465Y-132751085D01*
X139482962Y-133350588D01*
X139465925Y-133287007D01*
X139400099Y-133172993D01*
X139307007Y-133079901D01*
X139192993Y-133014075D01*
X139129410Y-132997037D01*
X139728912Y-132397534D01*
X139659511Y-132351161D01*
X139659500Y-132351155D01*
X139593545Y-132315900D01*
X139543701Y-132266937D01*
X139528241Y-132198799D01*
X139552073Y-132133119D01*
X139595702Y-132096059D01*
X139681610Y-132052287D01*
X139772745Y-131986074D01*
X139847213Y-131931971D01*
X139847215Y-131931968D01*
X139847219Y-131931966D01*
X139991966Y-131787219D01*
X139991968Y-131787215D01*
X139991971Y-131787213D01*
X140073217Y-131675385D01*
X140112287Y-131621610D01*
X140205220Y-131439219D01*
X140268477Y-131244534D01*
X140300500Y-131042352D01*
X140300500Y-130837648D01*
X140268477Y-130635466D01*
X140205220Y-130440781D01*
X140205218Y-130440778D01*
X140205218Y-130440776D01*
X140171503Y-130374607D01*
X140112287Y-130258390D01*
X140070602Y-130201015D01*
X139991971Y-130092786D01*
X139847213Y-129948028D01*
X139681614Y-129827715D01*
X139675006Y-129824348D01*
X139588917Y-129780483D01*
X139538123Y-129732511D01*
X139521328Y-129664690D01*
X139543865Y-129598555D01*
X139588917Y-129559516D01*
X139681610Y-129512287D01*
X139702770Y-129496913D01*
X139847213Y-129391971D01*
X139847215Y-129391968D01*
X139847219Y-129391966D01*
X139991966Y-129247219D01*
X139991968Y-129247215D01*
X139991971Y-129247213D01*
X140103715Y-129093408D01*
X140112287Y-129081610D01*
X140205220Y-128899219D01*
X140268477Y-128704534D01*
X140300500Y-128502352D01*
X140300500Y-128297648D01*
X140268477Y-128095466D01*
X140205220Y-127900781D01*
X140205218Y-127900778D01*
X140205218Y-127900776D01*
X140165233Y-127822302D01*
X140112287Y-127718390D01*
X140104556Y-127707749D01*
X139991971Y-127552786D01*
X139847213Y-127408028D01*
X139681614Y-127287715D01*
X139675006Y-127284348D01*
X139588917Y-127240483D01*
X139538123Y-127192511D01*
X139521328Y-127124690D01*
X139543865Y-127058555D01*
X139588917Y-127019516D01*
X139681610Y-126972287D01*
X139702770Y-126956913D01*
X139847213Y-126851971D01*
X139847215Y-126851968D01*
X139847219Y-126851966D01*
X139991966Y-126707219D01*
X139991968Y-126707215D01*
X139991971Y-126707213D01*
X140044732Y-126634590D01*
X140112287Y-126541610D01*
X140205220Y-126359219D01*
X140268477Y-126164534D01*
X140300500Y-125962352D01*
X140300500Y-125757648D01*
X140268477Y-125555466D01*
X140257468Y-125521585D01*
X140223503Y-125417050D01*
X140205220Y-125360781D01*
X140205218Y-125360778D01*
X140205218Y-125360776D01*
X140171503Y-125294607D01*
X140112287Y-125178390D01*
X140104556Y-125167749D01*
X139991971Y-125012786D01*
X139847213Y-124868028D01*
X139681614Y-124747715D01*
X139675006Y-124744348D01*
X139588917Y-124700483D01*
X139538123Y-124652511D01*
X139521328Y-124584690D01*
X139543865Y-124518555D01*
X139588917Y-124479516D01*
X139681610Y-124432287D01*
X139748232Y-124383884D01*
X139847213Y-124311971D01*
X139847215Y-124311968D01*
X139847219Y-124311966D01*
X139991966Y-124167219D01*
X139991968Y-124167215D01*
X139991971Y-124167213D01*
X140084651Y-124039648D01*
X140112287Y-124001610D01*
X140205220Y-123819219D01*
X140268477Y-123624534D01*
X140300500Y-123422352D01*
X140300500Y-123217648D01*
X140296355Y-123191480D01*
X140268477Y-123015465D01*
X140205218Y-122820776D01*
X140162554Y-122737045D01*
X140112287Y-122638390D01*
X140104556Y-122627749D01*
X139991971Y-122472786D01*
X139847213Y-122328028D01*
X139681614Y-122207715D01*
X139628996Y-122180905D01*
X139595703Y-122163941D01*
X139544908Y-122115968D01*
X139528113Y-122048147D01*
X139550650Y-121982012D01*
X139593546Y-121944099D01*
X139659503Y-121908843D01*
X139659515Y-121908837D01*
X139728913Y-121862465D01*
X139129410Y-121262962D01*
X139192993Y-121245925D01*
X139307007Y-121180099D01*
X139400099Y-121087007D01*
X139465925Y-120972993D01*
X139482962Y-120909410D01*
X140082465Y-121508913D01*
X140128837Y-121439515D01*
X140128838Y-121439511D01*
X140175509Y-121352198D01*
X140235814Y-121206612D01*
X140264555Y-121111864D01*
X140295298Y-120957302D01*
X140295298Y-120957299D01*
X140305000Y-120858789D01*
X140305000Y-120701210D01*
X140295298Y-120602700D01*
X140295298Y-120602697D01*
X140264555Y-120448135D01*
X140235814Y-120353387D01*
X140175509Y-120207801D01*
X140128844Y-120120498D01*
X140128838Y-120120488D01*
X140082465Y-120051085D01*
X139482962Y-120650588D01*
X139465925Y-120587007D01*
X139400099Y-120472993D01*
X139307007Y-120379901D01*
X139192993Y-120314075D01*
X139129410Y-120297037D01*
X139728912Y-119697534D01*
X139659511Y-119651161D01*
X139659500Y-119651155D01*
X139593545Y-119615900D01*
X139543701Y-119566937D01*
X139528241Y-119498799D01*
X139552073Y-119433119D01*
X139595702Y-119396059D01*
X139681610Y-119352287D01*
X139772745Y-119286074D01*
X139847213Y-119231971D01*
X139847215Y-119231968D01*
X139847219Y-119231966D01*
X139991966Y-119087219D01*
X139991968Y-119087215D01*
X139991971Y-119087213D01*
X140044732Y-119014590D01*
X140112287Y-118921610D01*
X140205220Y-118739219D01*
X140268477Y-118544534D01*
X140300500Y-118342352D01*
X140300500Y-118137648D01*
X140268477Y-117935466D01*
X140205220Y-117740781D01*
X140205218Y-117740778D01*
X140205218Y-117740776D01*
X140171503Y-117674607D01*
X140112287Y-117558390D01*
X140104556Y-117547749D01*
X139991971Y-117392786D01*
X139847213Y-117248028D01*
X139681614Y-117127715D01*
X139675006Y-117124348D01*
X139588917Y-117080483D01*
X139538123Y-117032511D01*
X139521328Y-116964690D01*
X139543865Y-116898555D01*
X139588917Y-116859516D01*
X139681610Y-116812287D01*
X139702770Y-116796913D01*
X139847213Y-116691971D01*
X139847215Y-116691968D01*
X139847219Y-116691966D01*
X139991966Y-116547219D01*
X139991968Y-116547215D01*
X139991971Y-116547213D01*
X140044732Y-116474590D01*
X140112287Y-116381610D01*
X140205220Y-116199219D01*
X140268477Y-116004534D01*
X140300500Y-115802352D01*
X140300500Y-115597648D01*
X140268477Y-115395466D01*
X140205220Y-115200781D01*
X140205218Y-115200778D01*
X140205218Y-115200776D01*
X140171503Y-115134607D01*
X140112287Y-115018390D01*
X140104556Y-115007749D01*
X139991971Y-114852786D01*
X139847213Y-114708028D01*
X139681614Y-114587715D01*
X139675006Y-114584348D01*
X139588917Y-114540483D01*
X139538123Y-114492511D01*
X139521328Y-114424690D01*
X139543865Y-114358555D01*
X139588917Y-114319516D01*
X139681610Y-114272287D01*
X139702770Y-114256913D01*
X139847213Y-114151971D01*
X139847215Y-114151968D01*
X139847219Y-114151966D01*
X139991966Y-114007219D01*
X139991968Y-114007215D01*
X139991971Y-114007213D01*
X140044732Y-113934590D01*
X140112287Y-113841610D01*
X140205220Y-113659219D01*
X140268477Y-113464534D01*
X140300500Y-113262352D01*
X140300500Y-113057648D01*
X140268477Y-112855466D01*
X140205220Y-112660781D01*
X140205218Y-112660778D01*
X140205218Y-112660776D01*
X140171503Y-112594607D01*
X140112287Y-112478390D01*
X140104556Y-112467749D01*
X139991971Y-112312786D01*
X139847213Y-112168028D01*
X139681614Y-112047715D01*
X139675006Y-112044348D01*
X139588917Y-112000483D01*
X139538123Y-111952511D01*
X139521328Y-111884690D01*
X139543865Y-111818555D01*
X139588917Y-111779516D01*
X139681610Y-111732287D01*
X139702770Y-111716913D01*
X139847213Y-111611971D01*
X139847215Y-111611968D01*
X139847219Y-111611966D01*
X139991966Y-111467219D01*
X139991968Y-111467215D01*
X139991971Y-111467213D01*
X140044732Y-111394590D01*
X140112287Y-111301610D01*
X140205220Y-111119219D01*
X140268477Y-110924534D01*
X140300500Y-110722352D01*
X140300500Y-110517648D01*
X140268477Y-110315466D01*
X140205220Y-110120781D01*
X140205218Y-110120778D01*
X140205218Y-110120776D01*
X140171503Y-110054607D01*
X140112287Y-109938390D01*
X140104556Y-109927749D01*
X139991971Y-109772786D01*
X139847213Y-109628028D01*
X139681613Y-109507715D01*
X139681612Y-109507714D01*
X139681610Y-109507713D01*
X139628947Y-109480880D01*
X139596245Y-109464217D01*
X139545449Y-109416242D01*
X139528654Y-109348421D01*
X139551192Y-109282286D01*
X139594083Y-109244376D01*
X139659783Y-109209259D01*
X139790811Y-109121709D01*
X139867412Y-109058843D01*
X139978843Y-108947412D01*
X140041709Y-108870811D01*
X140129259Y-108739783D01*
X140175972Y-108652389D01*
X140236278Y-108506798D01*
X140265044Y-108411968D01*
X140295787Y-108257410D01*
X140305500Y-108158793D01*
X140305500Y-108001207D01*
X140295787Y-107902590D01*
X140265044Y-107748032D01*
X140236278Y-107653202D01*
X140175972Y-107507611D01*
X140129259Y-107420217D01*
X140129248Y-107420200D01*
X140041721Y-107289206D01*
X140041712Y-107289194D01*
X140041709Y-107289189D01*
X139978843Y-107212588D01*
X139867412Y-107101157D01*
X139790811Y-107038291D01*
X139790804Y-107038286D01*
X139790793Y-107038278D01*
X139659799Y-106950751D01*
X139659788Y-106950744D01*
X139659783Y-106950741D01*
X139637645Y-106938908D01*
X139594086Y-106915625D01*
X139544242Y-106866662D01*
X139528782Y-106798524D01*
X139552614Y-106732845D01*
X139596246Y-106695782D01*
X139681610Y-106652287D01*
X139772745Y-106586074D01*
X139847213Y-106531971D01*
X139847215Y-106531968D01*
X139847219Y-106531966D01*
X139991966Y-106387219D01*
X139991968Y-106387215D01*
X139991971Y-106387213D01*
X140044732Y-106314590D01*
X140112287Y-106221610D01*
X140205220Y-106039219D01*
X140268477Y-105844534D01*
X140300500Y-105642352D01*
X140300500Y-105437648D01*
X140268477Y-105235466D01*
X140205220Y-105040781D01*
X140205218Y-105040778D01*
X140205218Y-105040776D01*
X140171503Y-104974607D01*
X140112287Y-104858390D01*
X140104556Y-104847749D01*
X139991971Y-104692786D01*
X139847213Y-104548028D01*
X139681614Y-104427715D01*
X139675006Y-104424348D01*
X139588917Y-104380483D01*
X139538123Y-104332511D01*
X139521328Y-104264690D01*
X139543865Y-104198555D01*
X139588917Y-104159516D01*
X139681610Y-104112287D01*
X139702770Y-104096913D01*
X139847213Y-103991971D01*
X139847215Y-103991968D01*
X139847219Y-103991966D01*
X139991966Y-103847219D01*
X139991968Y-103847215D01*
X139991971Y-103847213D01*
X140044732Y-103774590D01*
X140112287Y-103681610D01*
X140205220Y-103499219D01*
X140268477Y-103304534D01*
X140300500Y-103102352D01*
X140300500Y-102897648D01*
X140268477Y-102695466D01*
X140205220Y-102500781D01*
X140205218Y-102500778D01*
X140205218Y-102500776D01*
X140171503Y-102434607D01*
X140112287Y-102318390D01*
X140104556Y-102307749D01*
X139991971Y-102152786D01*
X139847213Y-102008028D01*
X139681614Y-101887715D01*
X139675006Y-101884348D01*
X139588917Y-101840483D01*
X139538123Y-101792511D01*
X139521328Y-101724690D01*
X139543865Y-101658555D01*
X139588917Y-101619516D01*
X139681610Y-101572287D01*
X139702770Y-101556913D01*
X139847213Y-101451971D01*
X139847215Y-101451968D01*
X139847219Y-101451966D01*
X139991966Y-101307219D01*
X139991968Y-101307215D01*
X139991971Y-101307213D01*
X140044732Y-101234590D01*
X140112287Y-101141610D01*
X140205220Y-100959219D01*
X140268477Y-100764534D01*
X140300500Y-100562352D01*
X140300500Y-100357648D01*
X140296185Y-100330405D01*
X140268477Y-100155465D01*
X140205218Y-99960776D01*
X140171503Y-99894607D01*
X140112287Y-99778390D01*
X140104556Y-99767749D01*
X139991971Y-99612786D01*
X139847213Y-99468028D01*
X139681614Y-99347715D01*
X139675006Y-99344348D01*
X139588917Y-99300483D01*
X139538123Y-99252511D01*
X139521328Y-99184690D01*
X139543865Y-99118555D01*
X139588917Y-99079516D01*
X139681610Y-99032287D01*
X139765013Y-98971692D01*
X139847213Y-98911971D01*
X139847215Y-98911968D01*
X139847219Y-98911966D01*
X139991966Y-98767219D01*
X139991968Y-98767215D01*
X139991971Y-98767213D01*
X140091313Y-98630478D01*
X140112287Y-98601610D01*
X140205220Y-98419219D01*
X140268477Y-98224534D01*
X140300500Y-98022352D01*
X140300500Y-97817648D01*
X140268477Y-97615466D01*
X140205220Y-97420781D01*
X140205218Y-97420778D01*
X140205218Y-97420776D01*
X140171503Y-97354607D01*
X140112287Y-97238390D01*
X140104556Y-97227749D01*
X139991971Y-97072786D01*
X139847213Y-96928028D01*
X139681614Y-96807715D01*
X139673410Y-96803535D01*
X139595703Y-96763941D01*
X139544908Y-96715968D01*
X139528113Y-96648147D01*
X139550650Y-96582012D01*
X139593546Y-96544099D01*
X139659503Y-96508843D01*
X139659515Y-96508837D01*
X139728913Y-96462465D01*
X139129410Y-95862962D01*
X139192993Y-95845925D01*
X139307007Y-95780099D01*
X139400099Y-95687007D01*
X139465925Y-95572993D01*
X139482962Y-95509410D01*
X140082465Y-96108913D01*
X140128837Y-96039515D01*
X140128838Y-96039511D01*
X140175509Y-95952198D01*
X140235814Y-95806612D01*
X140264555Y-95711864D01*
X140295298Y-95557302D01*
X140295298Y-95557299D01*
X140305000Y-95458789D01*
X140305000Y-95301210D01*
X140295298Y-95202700D01*
X140295298Y-95202697D01*
X140264555Y-95048135D01*
X140235814Y-94953387D01*
X140175509Y-94807801D01*
X140128844Y-94720498D01*
X140128838Y-94720488D01*
X140082465Y-94651085D01*
X139482962Y-95250588D01*
X139465925Y-95187007D01*
X139400099Y-95072993D01*
X139307007Y-94979901D01*
X139192993Y-94914075D01*
X139129410Y-94897037D01*
X139728912Y-94297534D01*
X139659511Y-94251161D01*
X139659500Y-94251155D01*
X139593545Y-94215900D01*
X139543701Y-94166937D01*
X139528241Y-94098799D01*
X139552073Y-94033119D01*
X139595702Y-93996059D01*
X139681610Y-93952287D01*
X139773815Y-93885297D01*
X139847213Y-93831971D01*
X139847215Y-93831968D01*
X139847219Y-93831966D01*
X139991966Y-93687219D01*
X139991968Y-93687215D01*
X139991971Y-93687213D01*
X140044732Y-93614590D01*
X140112287Y-93521610D01*
X140205220Y-93339219D01*
X140268477Y-93144534D01*
X140300500Y-92942352D01*
X140300500Y-92737648D01*
X140268477Y-92535466D01*
X140205220Y-92340781D01*
X140205218Y-92340778D01*
X140205218Y-92340776D01*
X140131484Y-92196067D01*
X140112287Y-92158390D01*
X140102182Y-92144481D01*
X139991971Y-91992786D01*
X139847213Y-91848028D01*
X139681614Y-91727715D01*
X139675006Y-91724348D01*
X139588917Y-91680483D01*
X139538123Y-91632511D01*
X139521328Y-91564690D01*
X139543865Y-91498555D01*
X139588917Y-91459516D01*
X139681610Y-91412287D01*
X139787733Y-91335185D01*
X139847213Y-91291971D01*
X139847215Y-91291968D01*
X139847219Y-91291966D01*
X139991966Y-91147219D01*
X139991968Y-91147215D01*
X139991971Y-91147213D01*
X140079170Y-91027192D01*
X140112287Y-90981610D01*
X140205220Y-90799219D01*
X140268477Y-90604534D01*
X140300500Y-90402352D01*
X140300500Y-90197648D01*
X140268477Y-89995466D01*
X140205220Y-89800781D01*
X140205218Y-89800778D01*
X140205218Y-89800776D01*
X140171503Y-89734607D01*
X140112287Y-89618390D01*
X140104556Y-89607749D01*
X139991971Y-89452786D01*
X139847213Y-89308028D01*
X139681613Y-89187715D01*
X139681612Y-89187714D01*
X139681610Y-89187713D01*
X139596855Y-89144528D01*
X139499223Y-89094781D01*
X139304534Y-89031522D01*
X139129995Y-89003878D01*
X139102352Y-88999500D01*
X138897648Y-88999500D01*
X138873329Y-89003351D01*
X138695465Y-89031522D01*
X138500776Y-89094781D01*
X138318386Y-89187715D01*
X138152786Y-89308028D01*
X138008028Y-89452786D01*
X137887715Y-89618386D01*
X137794781Y-89800776D01*
X137731522Y-89995465D01*
X137699500Y-90197648D01*
X137699500Y-90402351D01*
X137731522Y-90604534D01*
X137794781Y-90799223D01*
X137858691Y-90924653D01*
X137874976Y-90956613D01*
X137887715Y-90981613D01*
X138008028Y-91147213D01*
X138152786Y-91291971D01*
X138307749Y-91404556D01*
X138318390Y-91412287D01*
X138401238Y-91454500D01*
X138411080Y-91459515D01*
X138461876Y-91507490D01*
X138478671Y-91575311D01*
X138456134Y-91641446D01*
X138411080Y-91680485D01*
X138318386Y-91727715D01*
X138152786Y-91848028D01*
X138008028Y-91992786D01*
X137887715Y-92158386D01*
X137794781Y-92340776D01*
X137731522Y-92535465D01*
X137699500Y-92737648D01*
X137699500Y-92942351D01*
X137731522Y-93144534D01*
X137794781Y-93339223D01*
X137858691Y-93464653D01*
X137887145Y-93520496D01*
X137887715Y-93521613D01*
X138008028Y-93687213D01*
X138152782Y-93831967D01*
X138152787Y-93831971D01*
X138229583Y-93887767D01*
X138272249Y-93943097D01*
X138278228Y-94012710D01*
X138245622Y-94074505D01*
X138187365Y-94108233D01*
X138166973Y-94113437D01*
X138166962Y-94113441D01*
X138110415Y-94136863D01*
X138870589Y-94897037D01*
X138807007Y-94914075D01*
X138692993Y-94979901D01*
X138599901Y-95072993D01*
X138534075Y-95187007D01*
X138517037Y-95250589D01*
X137756863Y-94490415D01*
X137756862Y-94490415D01*
X137733446Y-94546947D01*
X137733431Y-94546987D01*
X137715457Y-94597939D01*
X137715455Y-94597946D01*
X137695000Y-94740219D01*
X137695000Y-96019785D01*
X137697893Y-96073762D01*
X137697893Y-96073764D01*
X137733438Y-96213030D01*
X137733442Y-96213043D01*
X137756862Y-96269584D01*
X138517037Y-95509410D01*
X138534075Y-95572993D01*
X138599901Y-95687007D01*
X138692993Y-95780099D01*
X138807007Y-95845925D01*
X138870589Y-95862962D01*
X138110414Y-96623135D01*
X138166960Y-96646557D01*
X138166986Y-96646567D01*
X138195621Y-96656669D01*
X138252294Y-96697534D01*
X138277876Y-96762552D01*
X138264246Y-96831080D01*
X138227256Y-96873924D01*
X138152782Y-96928032D01*
X138008028Y-97072786D01*
X137887715Y-97238386D01*
X137794781Y-97420776D01*
X137731522Y-97615465D01*
X137699500Y-97817648D01*
X137699500Y-98022351D01*
X137731522Y-98224534D01*
X137794781Y-98419223D01*
X137844152Y-98516117D01*
X137883048Y-98592455D01*
X137887715Y-98601613D01*
X138008028Y-98767213D01*
X138152786Y-98911971D01*
X138234987Y-98971692D01*
X138318390Y-99032287D01*
X138409840Y-99078883D01*
X138411080Y-99079515D01*
X138461876Y-99127490D01*
X138478671Y-99195311D01*
X138456134Y-99261446D01*
X138411080Y-99300485D01*
X138318386Y-99347715D01*
X138152786Y-99468028D01*
X138008028Y-99612786D01*
X137887715Y-99778386D01*
X137794781Y-99960776D01*
X137731522Y-100155465D01*
X137699500Y-100357648D01*
X137699500Y-100562351D01*
X137731522Y-100764534D01*
X137794781Y-100959223D01*
X137887715Y-101141613D01*
X138008028Y-101307213D01*
X138152786Y-101451971D01*
X138307749Y-101564556D01*
X138318390Y-101572287D01*
X138409840Y-101618883D01*
X138411080Y-101619515D01*
X138461876Y-101667490D01*
X138478671Y-101735311D01*
X138456134Y-101801446D01*
X138411080Y-101840485D01*
X138318386Y-101887715D01*
X138152786Y-102008028D01*
X138008028Y-102152786D01*
X137887715Y-102318386D01*
X137794781Y-102500776D01*
X137731522Y-102695465D01*
X137699500Y-102897648D01*
X137699500Y-103102351D01*
X137731522Y-103304534D01*
X137794781Y-103499223D01*
X137887715Y-103681613D01*
X138008028Y-103847213D01*
X138152786Y-103991971D01*
X138307749Y-104104556D01*
X138318390Y-104112287D01*
X138409840Y-104158883D01*
X138411080Y-104159515D01*
X138461876Y-104207490D01*
X138478671Y-104275311D01*
X138456134Y-104341446D01*
X138411080Y-104380485D01*
X138318386Y-104427715D01*
X138152786Y-104548028D01*
X138008028Y-104692786D01*
X137887715Y-104858386D01*
X137794781Y-105040776D01*
X137731522Y-105235465D01*
X137699500Y-105437648D01*
X137699500Y-105642351D01*
X137731522Y-105844534D01*
X137794781Y-106039223D01*
X137887715Y-106221613D01*
X138008028Y-106387213D01*
X138152782Y-106531967D01*
X138152787Y-106531971D01*
X138229063Y-106587389D01*
X138271729Y-106642719D01*
X138277708Y-106712332D01*
X138245102Y-106774127D01*
X138186845Y-106807855D01*
X138166776Y-106812977D01*
X138166766Y-106812980D01*
X138093280Y-106843419D01*
X138093252Y-106843431D01*
X138044451Y-106866779D01*
X138044446Y-106866782D01*
X137929268Y-106953005D01*
X137929256Y-106953015D01*
X137873019Y-107009252D01*
X137836843Y-107049524D01*
X137836837Y-107049532D01*
X137763426Y-107173263D01*
X137732978Y-107246774D01*
X137732970Y-107246795D01*
X137714976Y-107297800D01*
X137694500Y-107440219D01*
X122525000Y-107440219D01*
X122524999Y-107440204D01*
X122522106Y-107386237D01*
X122522106Y-107386235D01*
X122486561Y-107246969D01*
X122486559Y-107246962D01*
X122463135Y-107190414D01*
X121702962Y-107950588D01*
X121685925Y-107887007D01*
X121620099Y-107772993D01*
X121527007Y-107679901D01*
X121412993Y-107614075D01*
X121349410Y-107597037D01*
X122109584Y-106836862D01*
X122053059Y-106813449D01*
X122053048Y-106813445D01*
X122024374Y-106803329D01*
X121967703Y-106762462D01*
X121942122Y-106697443D01*
X121955754Y-106628916D01*
X121992745Y-106586074D01*
X122067215Y-106531969D01*
X122067215Y-106531968D01*
X122067219Y-106531966D01*
X122211966Y-106387219D01*
X122211968Y-106387215D01*
X122211971Y-106387213D01*
X122264732Y-106314590D01*
X122332287Y-106221610D01*
X122425220Y-106039219D01*
X122488477Y-105844534D01*
X122520500Y-105642352D01*
X122520500Y-105437648D01*
X122488477Y-105235466D01*
X122425220Y-105040781D01*
X122425218Y-105040778D01*
X122425218Y-105040776D01*
X122391503Y-104974607D01*
X122332287Y-104858390D01*
X122324556Y-104847749D01*
X122211971Y-104692786D01*
X122067213Y-104548028D01*
X121901614Y-104427715D01*
X121895006Y-104424348D01*
X121808917Y-104380483D01*
X121758123Y-104332511D01*
X121741328Y-104264690D01*
X121763865Y-104198555D01*
X121808917Y-104159516D01*
X121901610Y-104112287D01*
X121922770Y-104096913D01*
X122067213Y-103991971D01*
X122067215Y-103991968D01*
X122067219Y-103991966D01*
X122211966Y-103847219D01*
X122211968Y-103847215D01*
X122211971Y-103847213D01*
X122264732Y-103774590D01*
X122332287Y-103681610D01*
X122425220Y-103499219D01*
X122488477Y-103304534D01*
X122520500Y-103102352D01*
X122520500Y-102897648D01*
X122488477Y-102695466D01*
X122425220Y-102500781D01*
X122425218Y-102500778D01*
X122425218Y-102500776D01*
X122391503Y-102434607D01*
X122332287Y-102318390D01*
X122324556Y-102307749D01*
X122211971Y-102152786D01*
X122067213Y-102008028D01*
X121901614Y-101887715D01*
X121895006Y-101884348D01*
X121808917Y-101840483D01*
X121758123Y-101792511D01*
X121741328Y-101724690D01*
X121763865Y-101658555D01*
X121808917Y-101619516D01*
X121901610Y-101572287D01*
X121922770Y-101556913D01*
X122067213Y-101451971D01*
X122067215Y-101451968D01*
X122067219Y-101451966D01*
X122211966Y-101307219D01*
X122211968Y-101307215D01*
X122211971Y-101307213D01*
X122264732Y-101234590D01*
X122332287Y-101141610D01*
X122425220Y-100959219D01*
X122488477Y-100764534D01*
X122520500Y-100562352D01*
X122520500Y-100357648D01*
X122516185Y-100330405D01*
X122488477Y-100155465D01*
X122425218Y-99960776D01*
X122391503Y-99894607D01*
X122332287Y-99778390D01*
X122324556Y-99767749D01*
X122211971Y-99612786D01*
X122067213Y-99468028D01*
X121901614Y-99347715D01*
X121895006Y-99344348D01*
X121808917Y-99300483D01*
X121758123Y-99252511D01*
X121741328Y-99184690D01*
X121763865Y-99118555D01*
X121808917Y-99079516D01*
X121901610Y-99032287D01*
X121985013Y-98971692D01*
X122067213Y-98911971D01*
X122067215Y-98911968D01*
X122067219Y-98911966D01*
X122211966Y-98767219D01*
X122211968Y-98767215D01*
X122211971Y-98767213D01*
X122311313Y-98630478D01*
X122332287Y-98601610D01*
X122425220Y-98419219D01*
X122488477Y-98224534D01*
X122520500Y-98022352D01*
X122520500Y-97817648D01*
X122488477Y-97615466D01*
X122425220Y-97420781D01*
X122425218Y-97420778D01*
X122425218Y-97420776D01*
X122391503Y-97354607D01*
X122332287Y-97238390D01*
X122324556Y-97227749D01*
X122211971Y-97072786D01*
X122067217Y-96928032D01*
X121990415Y-96872232D01*
X121947750Y-96816902D01*
X121941771Y-96747288D01*
X121974377Y-96685494D01*
X122032640Y-96651765D01*
X122053039Y-96646559D01*
X122109584Y-96623136D01*
X122109584Y-96623135D01*
X121349410Y-95862962D01*
X121412993Y-95845925D01*
X121527007Y-95780099D01*
X121620099Y-95687007D01*
X121685925Y-95572993D01*
X121702962Y-95509411D01*
X122463135Y-96269584D01*
X122463136Y-96269584D01*
X122486552Y-96213053D01*
X122504544Y-96162053D01*
X122524999Y-96019780D01*
X122525000Y-96019779D01*
X122525000Y-94740224D01*
X122524999Y-94740204D01*
X122522106Y-94686237D01*
X122522106Y-94686235D01*
X122486561Y-94546969D01*
X122486559Y-94546962D01*
X122463135Y-94490414D01*
X121702962Y-95250588D01*
X121685925Y-95187007D01*
X121620099Y-95072993D01*
X121527007Y-94979901D01*
X121412993Y-94914075D01*
X121349410Y-94897037D01*
X122109584Y-94136862D01*
X122053059Y-94113449D01*
X122053048Y-94113445D01*
X122024374Y-94103329D01*
X121967703Y-94062462D01*
X121942122Y-93997443D01*
X121955754Y-93928916D01*
X121992745Y-93886074D01*
X121993815Y-93885297D01*
X122067219Y-93831966D01*
X122211966Y-93687219D01*
X122211968Y-93687215D01*
X122211971Y-93687213D01*
X122264732Y-93614590D01*
X122332287Y-93521610D01*
X122408812Y-93371421D01*
X126559500Y-93371421D01*
X126559500Y-93548578D01*
X126587214Y-93723556D01*
X126641956Y-93892039D01*
X126641957Y-93892042D01*
X126722386Y-94049890D01*
X126826517Y-94193214D01*
X126951786Y-94318483D01*
X127095110Y-94422614D01*
X127172529Y-94462061D01*
X127252957Y-94503042D01*
X127252960Y-94503043D01*
X127337201Y-94530414D01*
X127421445Y-94557786D01*
X127596421Y-94585500D01*
X127596422Y-94585500D01*
X127773578Y-94585500D01*
X127773579Y-94585500D01*
X127948555Y-94557786D01*
X128117042Y-94503042D01*
X128274890Y-94422614D01*
X128418214Y-94318483D01*
X128543483Y-94193214D01*
X128647614Y-94049890D01*
X128728042Y-93892042D01*
X128782786Y-93723555D01*
X128810500Y-93548579D01*
X128810500Y-93371421D01*
X131409500Y-93371421D01*
X131409500Y-93548578D01*
X131437214Y-93723556D01*
X131491956Y-93892039D01*
X131491957Y-93892042D01*
X131572386Y-94049890D01*
X131676517Y-94193214D01*
X131801786Y-94318483D01*
X131945110Y-94422614D01*
X132022529Y-94462061D01*
X132102957Y-94503042D01*
X132102960Y-94503043D01*
X132187201Y-94530414D01*
X132271445Y-94557786D01*
X132446421Y-94585500D01*
X132446422Y-94585500D01*
X132623578Y-94585500D01*
X132623579Y-94585500D01*
X132798555Y-94557786D01*
X132967042Y-94503042D01*
X133124890Y-94422614D01*
X133268214Y-94318483D01*
X133393483Y-94193214D01*
X133497614Y-94049890D01*
X133578042Y-93892042D01*
X133632786Y-93723555D01*
X133660500Y-93548579D01*
X133660500Y-93371421D01*
X133632786Y-93196445D01*
X133578042Y-93027958D01*
X133578042Y-93027957D01*
X133497613Y-92870109D01*
X133493467Y-92864402D01*
X133393483Y-92726786D01*
X133268214Y-92601517D01*
X133124890Y-92497386D01*
X132967042Y-92416957D01*
X132967039Y-92416956D01*
X132798556Y-92362214D01*
X132711067Y-92348357D01*
X132623579Y-92334500D01*
X132446421Y-92334500D01*
X132406797Y-92340776D01*
X132271443Y-92362214D01*
X132102960Y-92416956D01*
X132102957Y-92416957D01*
X131945109Y-92497386D01*
X131892697Y-92535466D01*
X131801786Y-92601517D01*
X131801784Y-92601519D01*
X131801783Y-92601519D01*
X131676519Y-92726783D01*
X131676519Y-92726784D01*
X131676517Y-92726786D01*
X131631796Y-92788338D01*
X131572386Y-92870109D01*
X131491957Y-93027957D01*
X131491956Y-93027960D01*
X131437214Y-93196443D01*
X131409500Y-93371421D01*
X128810500Y-93371421D01*
X128782786Y-93196445D01*
X128728042Y-93027958D01*
X128728042Y-93027957D01*
X128647613Y-92870109D01*
X128643467Y-92864402D01*
X128543483Y-92726786D01*
X128418214Y-92601517D01*
X128274890Y-92497386D01*
X128117042Y-92416957D01*
X128117039Y-92416956D01*
X127948556Y-92362214D01*
X127861067Y-92348357D01*
X127773579Y-92334500D01*
X127596421Y-92334500D01*
X127556797Y-92340776D01*
X127421443Y-92362214D01*
X127252960Y-92416956D01*
X127252957Y-92416957D01*
X127095109Y-92497386D01*
X127042697Y-92535466D01*
X126951786Y-92601517D01*
X126951784Y-92601519D01*
X126951783Y-92601519D01*
X126826519Y-92726783D01*
X126826519Y-92726784D01*
X126826517Y-92726786D01*
X126781796Y-92788338D01*
X126722386Y-92870109D01*
X126641957Y-93027957D01*
X126641956Y-93027960D01*
X126587214Y-93196443D01*
X126559500Y-93371421D01*
X122408812Y-93371421D01*
X122425220Y-93339219D01*
X122488477Y-93144534D01*
X122520500Y-92942352D01*
X122520500Y-92737648D01*
X122488477Y-92535466D01*
X122425220Y-92340781D01*
X122425218Y-92340778D01*
X122425218Y-92340776D01*
X122351484Y-92196067D01*
X122332287Y-92158390D01*
X122322182Y-92144481D01*
X122211971Y-91992786D01*
X122067217Y-91848032D01*
X122067212Y-91848028D01*
X121986440Y-91789344D01*
X121943774Y-91734015D01*
X121937795Y-91664401D01*
X121970400Y-91602606D01*
X122022433Y-91570641D01*
X122109606Y-91543478D01*
X122255185Y-91455472D01*
X122375472Y-91335185D01*
X122463478Y-91189606D01*
X122514086Y-91027196D01*
X122520500Y-90956616D01*
X122520500Y-90327648D01*
X126084500Y-90327648D01*
X126084500Y-90532351D01*
X126116522Y-90734534D01*
X126179781Y-90929223D01*
X126272715Y-91111613D01*
X126393028Y-91277213D01*
X126537786Y-91421971D01*
X126671265Y-91518947D01*
X126703390Y-91542287D01*
X126800824Y-91591932D01*
X126885776Y-91635218D01*
X126885778Y-91635218D01*
X126885781Y-91635220D01*
X126965607Y-91661157D01*
X127080465Y-91698477D01*
X127181557Y-91714488D01*
X127282648Y-91730500D01*
X127282649Y-91730500D01*
X127487351Y-91730500D01*
X127487352Y-91730500D01*
X127689534Y-91698477D01*
X127884219Y-91635220D01*
X128066610Y-91542287D01*
X128187438Y-91454501D01*
X128232213Y-91421971D01*
X128232215Y-91421968D01*
X128232219Y-91421966D01*
X128376966Y-91277219D01*
X128376968Y-91277215D01*
X128376971Y-91277213D01*
X128440620Y-91189606D01*
X128497287Y-91111610D01*
X128590220Y-90929219D01*
X128653477Y-90734534D01*
X128685500Y-90532352D01*
X128685500Y-90327648D01*
X131534500Y-90327648D01*
X131534500Y-90532351D01*
X131566522Y-90734534D01*
X131629781Y-90929223D01*
X131722715Y-91111613D01*
X131843028Y-91277213D01*
X131987786Y-91421971D01*
X132121265Y-91518947D01*
X132153390Y-91542287D01*
X132250824Y-91591932D01*
X132335776Y-91635218D01*
X132335778Y-91635218D01*
X132335781Y-91635220D01*
X132415607Y-91661157D01*
X132530465Y-91698477D01*
X132631557Y-91714488D01*
X132732648Y-91730500D01*
X132732649Y-91730500D01*
X132937351Y-91730500D01*
X132937352Y-91730500D01*
X133139534Y-91698477D01*
X133334219Y-91635220D01*
X133516610Y-91542287D01*
X133637438Y-91454501D01*
X133682213Y-91421971D01*
X133682215Y-91421968D01*
X133682219Y-91421966D01*
X133826966Y-91277219D01*
X133826968Y-91277215D01*
X133826971Y-91277213D01*
X133890620Y-91189606D01*
X133947287Y-91111610D01*
X134040220Y-90929219D01*
X134103477Y-90734534D01*
X134135500Y-90532352D01*
X134135500Y-90327648D01*
X134103477Y-90125466D01*
X134040220Y-89930781D01*
X134040218Y-89930778D01*
X134040218Y-89930776D01*
X134006503Y-89864607D01*
X133947287Y-89748390D01*
X133939556Y-89737749D01*
X133826971Y-89582786D01*
X133682213Y-89438028D01*
X133516613Y-89317715D01*
X133516612Y-89317714D01*
X133516610Y-89317713D01*
X133459653Y-89288691D01*
X133334223Y-89224781D01*
X133139534Y-89161522D01*
X132964995Y-89133878D01*
X132937352Y-89129500D01*
X132732648Y-89129500D01*
X132708329Y-89133351D01*
X132530465Y-89161522D01*
X132335776Y-89224781D01*
X132153386Y-89317715D01*
X131987786Y-89438028D01*
X131843028Y-89582786D01*
X131722715Y-89748386D01*
X131629781Y-89930776D01*
X131566522Y-90125465D01*
X131534500Y-90327648D01*
X128685500Y-90327648D01*
X128653477Y-90125465D01*
X128590218Y-89930776D01*
X128556503Y-89864607D01*
X128497287Y-89748390D01*
X128489556Y-89737749D01*
X128376971Y-89582786D01*
X128232213Y-89438028D01*
X128066613Y-89317715D01*
X128066612Y-89317714D01*
X128066610Y-89317713D01*
X128009653Y-89288691D01*
X127884223Y-89224781D01*
X127689534Y-89161522D01*
X127514995Y-89133878D01*
X127487352Y-89129500D01*
X127282648Y-89129500D01*
X127258329Y-89133351D01*
X127080465Y-89161522D01*
X126885776Y-89224781D01*
X126703386Y-89317715D01*
X126537786Y-89438028D01*
X126393028Y-89582786D01*
X126272715Y-89748386D01*
X126179781Y-89930776D01*
X126116522Y-90125465D01*
X126084500Y-90327648D01*
X122520500Y-90327648D01*
X122520500Y-89643384D01*
X122514086Y-89572804D01*
X122463478Y-89410394D01*
X122375472Y-89264815D01*
X122375470Y-89264813D01*
X122375469Y-89264811D01*
X122255188Y-89144530D01*
X122109606Y-89056522D01*
X121947196Y-89005914D01*
X121947194Y-89005913D01*
X121947192Y-89005913D01*
X121897778Y-89001423D01*
X121876616Y-88999500D01*
X120563384Y-88999500D01*
X120544145Y-89001248D01*
X120492807Y-89005913D01*
X120330393Y-89056522D01*
X120184811Y-89144530D01*
X120064530Y-89264811D01*
X119976522Y-89410393D01*
X119925913Y-89572807D01*
X119919500Y-89643386D01*
X119919500Y-90956613D01*
X119925913Y-91027192D01*
X119976522Y-91189606D01*
X120064530Y-91335188D01*
X120184811Y-91455469D01*
X120184813Y-91455470D01*
X120184815Y-91455472D01*
X120330394Y-91543478D01*
X120417566Y-91570641D01*
X120475712Y-91609378D01*
X120503686Y-91673403D01*
X120492605Y-91742388D01*
X120453560Y-91789344D01*
X120372782Y-91848032D01*
X120228028Y-91992786D01*
X120107715Y-92158386D01*
X120014781Y-92340776D01*
X119951522Y-92535465D01*
X119919500Y-92737648D01*
X119919500Y-92942351D01*
X119951522Y-93144534D01*
X120014781Y-93339223D01*
X120078691Y-93464653D01*
X120107145Y-93520496D01*
X120107715Y-93521613D01*
X120228028Y-93687213D01*
X120372786Y-93831971D01*
X120538388Y-93952286D01*
X120538390Y-93952287D01*
X120624294Y-93996057D01*
X120675090Y-94044031D01*
X120691886Y-94111852D01*
X120669349Y-94177987D01*
X120626455Y-94215899D01*
X120560497Y-94251155D01*
X120491086Y-94297534D01*
X120491085Y-94297534D01*
X121090589Y-94897037D01*
X121027007Y-94914075D01*
X120912993Y-94979901D01*
X120819901Y-95072993D01*
X120754075Y-95187007D01*
X120737037Y-95250588D01*
X120137534Y-94651085D01*
X120137534Y-94651086D01*
X120091158Y-94720493D01*
X120044490Y-94807801D01*
X119984185Y-94953387D01*
X119955444Y-95048135D01*
X119924701Y-95202697D01*
X119924701Y-95202700D01*
X119915000Y-95301210D01*
X96300500Y-95301210D01*
X96300500Y-92826402D01*
X99549100Y-92826402D01*
X99549100Y-93062597D01*
X99586046Y-93295868D01*
X99659033Y-93520496D01*
X99762498Y-93723555D01*
X99766257Y-93730933D01*
X99905083Y-93922010D01*
X100072090Y-94089017D01*
X100263167Y-94227843D01*
X100337746Y-94265843D01*
X100473603Y-94335066D01*
X100473605Y-94335066D01*
X100473608Y-94335068D01*
X100590553Y-94373066D01*
X100698231Y-94408053D01*
X100931503Y-94445000D01*
X100931508Y-94445000D01*
X101167697Y-94445000D01*
X101400968Y-94408053D01*
X101625592Y-94335068D01*
X101836033Y-94227843D01*
X102027110Y-94089017D01*
X102027116Y-94089011D01*
X102030821Y-94085848D01*
X102032384Y-94087679D01*
X102084892Y-94058839D01*
X102154596Y-94063652D01*
X102210632Y-94105385D01*
X102217087Y-94114842D01*
X102234693Y-94143385D01*
X102246888Y-94163156D01*
X102370944Y-94287212D01*
X102520266Y-94379314D01*
X102686803Y-94434499D01*
X102789591Y-94445000D01*
X104389608Y-94444999D01*
X104492397Y-94434499D01*
X104658934Y-94379314D01*
X104808256Y-94287212D01*
X104932312Y-94163156D01*
X105024414Y-94013834D01*
X105079599Y-93847297D01*
X105090100Y-93744509D01*
X105090099Y-92864402D01*
X111434500Y-92864402D01*
X111434500Y-93100597D01*
X111471446Y-93333868D01*
X111544433Y-93558496D01*
X111628536Y-93723555D01*
X111651657Y-93768933D01*
X111790483Y-93960010D01*
X111957490Y-94127017D01*
X112148567Y-94265843D01*
X112210764Y-94297534D01*
X112359003Y-94373066D01*
X112359005Y-94373066D01*
X112359008Y-94373068D01*
X112479412Y-94412189D01*
X112583631Y-94446053D01*
X112816903Y-94483000D01*
X112816908Y-94483000D01*
X113053097Y-94483000D01*
X113286368Y-94446053D01*
X113321927Y-94434499D01*
X113510992Y-94373068D01*
X113721433Y-94265843D01*
X113912510Y-94127017D01*
X113912516Y-94127011D01*
X113916221Y-94123848D01*
X113917784Y-94125679D01*
X113970292Y-94096839D01*
X114039996Y-94101652D01*
X114096032Y-94143385D01*
X114102487Y-94152842D01*
X114132287Y-94201155D01*
X114132288Y-94201156D01*
X114256344Y-94325212D01*
X114405666Y-94417314D01*
X114572203Y-94472499D01*
X114674991Y-94483000D01*
X116275008Y-94482999D01*
X116377797Y-94472499D01*
X116544334Y-94417314D01*
X116693656Y-94325212D01*
X116817712Y-94201156D01*
X116909814Y-94051834D01*
X116964999Y-93885297D01*
X116975500Y-93782509D01*
X116975499Y-92182492D01*
X116964999Y-92079703D01*
X116909814Y-91913166D01*
X116817712Y-91763844D01*
X116693656Y-91639788D01*
X116554462Y-91553933D01*
X116544336Y-91547687D01*
X116544331Y-91547685D01*
X116528032Y-91542284D01*
X116377797Y-91492501D01*
X116377795Y-91492500D01*
X116275010Y-91482000D01*
X114674998Y-91482000D01*
X114674981Y-91482001D01*
X114572203Y-91492500D01*
X114572200Y-91492501D01*
X114405668Y-91547685D01*
X114405663Y-91547687D01*
X114256342Y-91639789D01*
X114132287Y-91763844D01*
X114102487Y-91812158D01*
X114050539Y-91858882D01*
X113981576Y-91870103D01*
X113917494Y-91842259D01*
X113916241Y-91841114D01*
X113916214Y-91841147D01*
X113912517Y-91837990D01*
X113912510Y-91837983D01*
X113721433Y-91699157D01*
X113670888Y-91673403D01*
X113510996Y-91591933D01*
X113286368Y-91518946D01*
X113053097Y-91482000D01*
X113053092Y-91482000D01*
X112816908Y-91482000D01*
X112816903Y-91482000D01*
X112583631Y-91518946D01*
X112359003Y-91591933D01*
X112148566Y-91699157D01*
X112059536Y-91763842D01*
X111957490Y-91837983D01*
X111957488Y-91837985D01*
X111957487Y-91837985D01*
X111790485Y-92004987D01*
X111790485Y-92004988D01*
X111790483Y-92004990D01*
X111736203Y-92079700D01*
X111651657Y-92196066D01*
X111544433Y-92406503D01*
X111471446Y-92631131D01*
X111434500Y-92864402D01*
X105090099Y-92864402D01*
X105090099Y-92144492D01*
X105079599Y-92041703D01*
X105024414Y-91875166D01*
X104932312Y-91725844D01*
X104808256Y-91601788D01*
X104658934Y-91509686D01*
X104492397Y-91454501D01*
X104492395Y-91454500D01*
X104389610Y-91444000D01*
X102789598Y-91444000D01*
X102789581Y-91444001D01*
X102686803Y-91454500D01*
X102686800Y-91454501D01*
X102520268Y-91509685D01*
X102520263Y-91509687D01*
X102370942Y-91601789D01*
X102246887Y-91725844D01*
X102217087Y-91774158D01*
X102165139Y-91820882D01*
X102096176Y-91832103D01*
X102032094Y-91804259D01*
X102030841Y-91803114D01*
X102030814Y-91803147D01*
X102027117Y-91799990D01*
X102027110Y-91799983D01*
X101836033Y-91661157D01*
X101785125Y-91635218D01*
X101625596Y-91553933D01*
X101400968Y-91480946D01*
X101167697Y-91444000D01*
X101167692Y-91444000D01*
X100931508Y-91444000D01*
X100931503Y-91444000D01*
X100698231Y-91480946D01*
X100473603Y-91553933D01*
X100263166Y-91661157D01*
X100174136Y-91725842D01*
X100072090Y-91799983D01*
X100072088Y-91799985D01*
X100072087Y-91799985D01*
X99905085Y-91966987D01*
X99905085Y-91966988D01*
X99905083Y-91966990D01*
X99850803Y-92041700D01*
X99766257Y-92158066D01*
X99659033Y-92368503D01*
X99586046Y-92593131D01*
X99549100Y-92826402D01*
X96300500Y-92826402D01*
X96300500Y-86924500D01*
X96320185Y-86857461D01*
X96372989Y-86811706D01*
X96424500Y-86800500D01*
X145075500Y-86800500D01*
X145142539Y-86820185D01*
G37*
%TD.AperFunction*%
%TD*%
M02*
