M48
; DRILL file {KiCad 9.0.7-9.0.7~ubuntu24.04.1} date 2026-03-04T01:18:58+0000
; FORMAT={-:-/ absolute / metric / decimal}
; #@! TF.CreationDate,2026-03-04T01:18:58+00:00
; #@! TF.GenerationSoftware,Kicad,Pcbnew,9.0.7-9.0.7~ubuntu24.04.1
; #@! TF.FileFunction,Plated,1,2,PTH
FMAT,2
METRIC
; #@! TA.AperFunction,Plated,PTH,ViaDrill
T1C0.200
; #@! TA.AperFunction,Plated,PTH,ViaDrill
T2C0.250
; #@! TA.AperFunction,Plated,PTH,ComponentDrill
T3C0.864
; #@! TA.AperFunction,Plated,PTH,ComponentDrill
T4C0.889
; #@! TA.AperFunction,Plated,PTH,ComponentDrill
T5C1.000
; #@! TA.AperFunction,Plated,PTH,ComponentDrill
T6C1.100
; #@! TA.AperFunction,Plated,PTH,ComponentDrill
T7C1.200
%
G90
G05
T1
X97.437Y-120.813
T2
X110.44Y-127.05
X114.945Y-127.284
T3
X108.73Y-132.69
X108.73Y-140.31
X111.27Y-132.69
X111.27Y-140.31
T4
X100.525Y-99.675
X100.55Y-123.225
X102.625Y-99.675
X102.65Y-123.225
X113.6Y-99.7
X113.625Y-123.25
X115.7Y-99.7
X115.725Y-123.25
T5
X119.0Y-146.44
X119.0Y-148.98
X119.0Y-151.52
X119.0Y-154.06
X119.0Y-156.6
X119.0Y-159.14
X119.0Y-161.68
X119.0Y-164.22
X121.22Y-90.3
X121.22Y-92.84
X121.22Y-95.38
X121.22Y-97.92
X121.22Y-100.46
X121.22Y-103.0
X121.22Y-105.54
X121.22Y-108.08
X121.22Y-110.62
X121.22Y-113.16
X121.22Y-115.7
X121.22Y-118.24
X121.22Y-120.78
X121.22Y-123.32
X121.22Y-125.86
X121.22Y-128.4
X121.22Y-130.94
X121.22Y-133.48
X121.22Y-136.02
X121.22Y-138.56
X139.0Y-90.3
X139.0Y-92.84
X139.0Y-95.38
X139.0Y-97.92
X139.0Y-100.46
X139.0Y-103.0
X139.0Y-105.54
X139.0Y-108.08
X139.0Y-110.62
X139.0Y-113.16
X139.0Y-115.7
X139.0Y-118.24
X139.0Y-120.78
X139.0Y-123.32
X139.0Y-125.86
X139.0Y-128.4
X139.0Y-130.94
X139.0Y-133.48
X139.0Y-136.02
X139.0Y-138.56
X141.8Y-146.44
X141.8Y-148.98
X141.8Y-151.52
X141.8Y-154.06
X141.8Y-156.6
X141.8Y-159.14
X141.8Y-161.68
X141.8Y-164.22
T6
X114.5Y-131.261
X114.5Y-133.801
X114.5Y-136.341
T7
X101.05Y-92.944
X102.35Y-147.525
X102.35Y-150.065
X102.4Y-128.725
X102.4Y-131.265
X102.4Y-136.3
X102.4Y-138.84
X103.59Y-92.944
X111.16Y-163.5
X112.935Y-92.983
X113.7Y-163.5
X115.475Y-92.983
M30
