%TF.GenerationSoftware,KiCad,Pcbnew,9.0.7-9.0.7~ubuntu24.04.1*%
%TF.CreationDate,2026-03-04T01:19:00+00:00*%
%TF.ProjectId,ignition,69676e69-7469-46f6-9e2e-6b696361645f,rev?*%
%TF.SameCoordinates,Original*%
%TF.FileFunction,Soldermask,Bot*%
%TF.FilePolarity,Negative*%
%FSLAX46Y46*%
G04 Gerber Fmt 4.6, Leading zero omitted, Abs format (unit mm)*
G04 Created by KiCad (PCBNEW 9.0.7-9.0.7~ubuntu24.04.1) date 2026-03-04 01:19:00*
%MOMM*%
%LPD*%
G01*
G04 APERTURE LIST*
G04 Aperture macros list*
%AMRoundRect*
0 Rectangle with rounded corners*
0 $1 Rounding radius*
0 $2 $3 $4 $5 $6 $7 $8 $9 X,Y pos of 4 corners*
0 Add a 4 corners polygon primitive as box body*
4,1,4,$2,$3,$4,$5,$6,$7,$8,$9,$2,$3,0*
0 Add four circle primitives for the rounded corners*
1,1,$1+$1,$2,$3*
1,1,$1+$1,$4,$5*
1,1,$1+$1,$6,$7*
1,1,$1+$1,$8,$9*
0 Add four rect primitives between the rounded corners*
20,1,$1+$1,$2,$3,$4,$5,0*
20,1,$1+$1,$4,$5,$6,$7,0*
20,1,$1+$1,$6,$7,$8,$9,0*
20,1,$1+$1,$8,$9,$2,$3,0*%
%AMFreePoly0*
4,1,37,0.603843,0.796157,0.639018,0.796157,0.711114,0.766294,0.766294,0.711114,0.796157,0.639018,0.796157,0.603843,0.800000,0.600000,0.800000,-0.600000,0.796157,-0.603843,0.796157,-0.639018,0.766294,-0.711114,0.711114,-0.766294,0.639018,-0.796157,0.603843,-0.796157,0.600000,-0.800000,0.000000,-0.800000,0.000000,-0.796148,-0.078414,-0.796148,-0.232228,-0.765552,-0.377117,-0.705537,
-0.507515,-0.618408,-0.618408,-0.507515,-0.705537,-0.377117,-0.765552,-0.232228,-0.796148,-0.078414,-0.796148,0.078414,-0.765552,0.232228,-0.705537,0.377117,-0.618408,0.507515,-0.507515,0.618408,-0.377117,0.705537,-0.232228,0.765552,-0.078414,0.796148,0.000000,0.796148,0.000000,0.800000,0.600000,0.800000,0.603843,0.796157,0.603843,0.796157,$1*%
%AMFreePoly1*
4,1,37,0.000000,0.796148,0.078414,0.796148,0.232228,0.765552,0.377117,0.705537,0.507515,0.618408,0.618408,0.507515,0.705537,0.377117,0.765552,0.232228,0.796148,0.078414,0.796148,-0.078414,0.765552,-0.232228,0.705537,-0.377117,0.618408,-0.507515,0.507515,-0.618408,0.377117,-0.705537,0.232228,-0.765552,0.078414,-0.796148,0.000000,-0.796148,0.000000,-0.800000,-0.600000,-0.800000,
-0.603843,-0.796157,-0.639018,-0.796157,-0.711114,-0.766294,-0.766294,-0.711114,-0.796157,-0.639018,-0.796157,-0.603843,-0.800000,-0.600000,-0.800000,0.600000,-0.796157,0.603843,-0.796157,0.639018,-0.766294,0.711114,-0.711114,0.766294,-0.639018,0.796157,-0.603843,0.796157,-0.600000,0.800000,0.000000,0.800000,0.000000,0.796148,0.000000,0.796148,$1*%
G04 Aperture macros list end*
%ADD10R,2.000000X1.905000*%
%ADD11O,2.000000X1.905000*%
%ADD12R,1.700000X1.700000*%
%ADD13C,1.700000*%
%ADD14RoundRect,0.250000X0.750000X0.750000X-0.750000X0.750000X-0.750000X-0.750000X0.750000X-0.750000X0*%
%ADD15C,2.000000*%
%ADD16RoundRect,0.250000X-0.750000X-0.750000X0.750000X-0.750000X0.750000X0.750000X-0.750000X0.750000X0*%
%ADD17C,1.500000*%
%ADD18R,1.500000X1.500000*%
%ADD19RoundRect,0.250000X-0.750000X0.750000X-0.750000X-0.750000X0.750000X-0.750000X0.750000X0.750000X0*%
%ADD20C,2.200000*%
%ADD21C,1.850000*%
%ADD22RoundRect,0.200000X-0.600000X-0.600000X0.600000X-0.600000X0.600000X0.600000X-0.600000X0.600000X0*%
%ADD23C,1.600000*%
%ADD24FreePoly0,0.000000*%
%ADD25FreePoly1,0.000000*%
%ADD26C,1.371600*%
G04 APERTURE END LIST*
D10*
%TO.C,Q1*%
X114500000Y-131260999D03*
D11*
X114500000Y-133800999D03*
X114500000Y-136340999D03*
%TD*%
D12*
%TO.C,U1*%
X141800000Y-164220000D03*
D13*
X141800000Y-161680000D03*
X141800000Y-159140000D03*
X141800000Y-156600000D03*
X141800000Y-154060000D03*
X141800000Y-151520000D03*
X141800000Y-148980000D03*
X141800000Y-146440000D03*
X119000000Y-146440000D03*
X119000000Y-148980000D03*
X119000000Y-151520000D03*
X119000000Y-154060000D03*
X119000000Y-156600000D03*
X119000000Y-159140000D03*
X119000000Y-161680000D03*
D12*
X119000000Y-164220000D03*
%TD*%
D14*
%TO.C,Switch1*%
X103589600Y-92944500D03*
D15*
X101049600Y-92944500D03*
%TD*%
D16*
%TO.C,Switch2*%
X111160000Y-163500000D03*
D15*
X113700000Y-163500000D03*
%TD*%
D17*
%TO.C,U2*%
X102625000Y-99675000D03*
D18*
X100525000Y-99675000D03*
D17*
X115700000Y-99700000D03*
D18*
X113600000Y-99700000D03*
D17*
X102650000Y-123225000D03*
D18*
X100550000Y-123225000D03*
D17*
X115725000Y-123250000D03*
D18*
X113625000Y-123250000D03*
%TD*%
D19*
%TO.C,KEY1*%
X102350000Y-147525000D03*
D15*
X102350000Y-150065000D03*
%TD*%
D19*
%TO.C,J2*%
X102400000Y-136300000D03*
D15*
X102400000Y-138840000D03*
%TD*%
D14*
%TO.C,PILHAS1*%
X115475000Y-92982500D03*
D15*
X112935000Y-92982500D03*
%TD*%
D20*
%TO.C,A1*%
X127385000Y-90430000D03*
D21*
X127685000Y-93460000D03*
X132535000Y-93460000D03*
D20*
X132835000Y-90430000D03*
D22*
X121220000Y-90300000D03*
D23*
X121220000Y-92840000D03*
D24*
X121220000Y-95380000D03*
D23*
X121220000Y-97920000D03*
X121220000Y-100460000D03*
X121220000Y-103000000D03*
X121220000Y-105540000D03*
D24*
X121220000Y-108080000D03*
D23*
X121220000Y-110620000D03*
X121220000Y-113160000D03*
X121220000Y-115700000D03*
X121220000Y-118240000D03*
D24*
X121220000Y-120780000D03*
D23*
X121220000Y-123320000D03*
X121220000Y-125860000D03*
X121220000Y-128400000D03*
X121220000Y-130940000D03*
D24*
X121220000Y-133480000D03*
D23*
X121220000Y-136020000D03*
X121220000Y-138560000D03*
X139000000Y-138560000D03*
X139000000Y-136020000D03*
D25*
X139000000Y-133480000D03*
D23*
X139000000Y-130940000D03*
X139000000Y-128400000D03*
X139000000Y-125860000D03*
X139000000Y-123320000D03*
D25*
X139000000Y-120780000D03*
D23*
X139000000Y-118240000D03*
X139000000Y-115700000D03*
X139000000Y-113160000D03*
X139000000Y-110620000D03*
D25*
X139000000Y-108080000D03*
D23*
X139000000Y-105540000D03*
X139000000Y-103000000D03*
X139000000Y-100460000D03*
X139000000Y-97920000D03*
D25*
X139000000Y-95380000D03*
D23*
X139000000Y-92840000D03*
X139000000Y-90300000D03*
%TD*%
D26*
%TO.C,U3*%
X108730000Y-140310000D03*
X111270000Y-140310000D03*
X111270000Y-132690000D03*
X108730000Y-132690000D03*
%TD*%
D19*
%TO.C,Switch3*%
X102400000Y-128725000D03*
D15*
X102400000Y-131265000D03*
%TD*%
M02*
