%TF.GenerationSoftware,KiCad,Pcbnew,9.0.7-9.0.7~ubuntu24.04.1*%
%TF.CreationDate,2026-03-04T01:19:00+00:00*%
%TF.ProjectId,ignition,69676e69-7469-46f6-9e2e-6b696361645f,rev?*%
%TF.SameCoordinates,Original*%
%TF.FileFunction,Legend,Top*%
%TF.FilePolarity,Positive*%
%FSLAX46Y46*%
G04 Gerber Fmt 4.6, Leading zero omitted, Abs format (unit mm)*
G04 Created by KiCad (PCBNEW 9.0.7-9.0.7~ubuntu24.04.1) date 2026-03-04 01:19:00*
%MOMM*%
%LPD*%
G01*
G04 APERTURE LIST*
%ADD10C,0.200000*%
%ADD11C,0.100000*%
%ADD12C,0.150000*%
%ADD13C,0.120000*%
%ADD14C,0.050000*%
%ADD15C,0.000000*%
%ADD16C,0.152400*%
G04 APERTURE END LIST*
D10*
X96915280Y-146871428D02*
X97915280Y-146871428D01*
X96915280Y-147442856D02*
X97486709Y-147014285D01*
X97915280Y-147442856D02*
X97343852Y-146871428D01*
X96962900Y-148252380D02*
X96915280Y-148157142D01*
X96915280Y-148157142D02*
X96915280Y-147966666D01*
X96915280Y-147966666D02*
X96962900Y-147871428D01*
X96962900Y-147871428D02*
X97058138Y-147823809D01*
X97058138Y-147823809D02*
X97439090Y-147823809D01*
X97439090Y-147823809D02*
X97534328Y-147871428D01*
X97534328Y-147871428D02*
X97581947Y-147966666D01*
X97581947Y-147966666D02*
X97581947Y-148157142D01*
X97581947Y-148157142D02*
X97534328Y-148252380D01*
X97534328Y-148252380D02*
X97439090Y-148299999D01*
X97439090Y-148299999D02*
X97343852Y-148299999D01*
X97343852Y-148299999D02*
X97248614Y-147823809D01*
X97581947Y-148633333D02*
X96915280Y-148871428D01*
X97581947Y-149109523D02*
X96915280Y-148871428D01*
X96915280Y-148871428D02*
X96677185Y-148776190D01*
X96677185Y-148776190D02*
X96629566Y-148728571D01*
X96629566Y-148728571D02*
X96581947Y-148633333D01*
X96915280Y-150776190D02*
X96915280Y-150204762D01*
X96915280Y-150490476D02*
X97915280Y-150490476D01*
X97915280Y-150490476D02*
X97772423Y-150395238D01*
X97772423Y-150395238D02*
X97677185Y-150300000D01*
X97677185Y-150300000D02*
X97629566Y-150204762D01*
X105371428Y-87545400D02*
X105228571Y-87497780D01*
X105228571Y-87497780D02*
X104990476Y-87497780D01*
X104990476Y-87497780D02*
X104895238Y-87545400D01*
X104895238Y-87545400D02*
X104847619Y-87593019D01*
X104847619Y-87593019D02*
X104800000Y-87688257D01*
X104800000Y-87688257D02*
X104800000Y-87783495D01*
X104800000Y-87783495D02*
X104847619Y-87878733D01*
X104847619Y-87878733D02*
X104895238Y-87926352D01*
X104895238Y-87926352D02*
X104990476Y-87973971D01*
X104990476Y-87973971D02*
X105180952Y-88021590D01*
X105180952Y-88021590D02*
X105276190Y-88069209D01*
X105276190Y-88069209D02*
X105323809Y-88116828D01*
X105323809Y-88116828D02*
X105371428Y-88212066D01*
X105371428Y-88212066D02*
X105371428Y-88307304D01*
X105371428Y-88307304D02*
X105323809Y-88402542D01*
X105323809Y-88402542D02*
X105276190Y-88450161D01*
X105276190Y-88450161D02*
X105180952Y-88497780D01*
X105180952Y-88497780D02*
X104942857Y-88497780D01*
X104942857Y-88497780D02*
X104800000Y-88450161D01*
X104466666Y-88164447D02*
X104276190Y-87497780D01*
X104276190Y-87497780D02*
X104085714Y-87973971D01*
X104085714Y-87973971D02*
X103895238Y-87497780D01*
X103895238Y-87497780D02*
X103704762Y-88164447D01*
X103323809Y-87497780D02*
X103323809Y-88164447D01*
X103323809Y-88497780D02*
X103371428Y-88450161D01*
X103371428Y-88450161D02*
X103323809Y-88402542D01*
X103323809Y-88402542D02*
X103276190Y-88450161D01*
X103276190Y-88450161D02*
X103323809Y-88497780D01*
X103323809Y-88497780D02*
X103323809Y-88402542D01*
X102990476Y-88164447D02*
X102609524Y-88164447D01*
X102847619Y-88497780D02*
X102847619Y-87640638D01*
X102847619Y-87640638D02*
X102800000Y-87545400D01*
X102800000Y-87545400D02*
X102704762Y-87497780D01*
X102704762Y-87497780D02*
X102609524Y-87497780D01*
X101847619Y-87545400D02*
X101942857Y-87497780D01*
X101942857Y-87497780D02*
X102133333Y-87497780D01*
X102133333Y-87497780D02*
X102228571Y-87545400D01*
X102228571Y-87545400D02*
X102276190Y-87593019D01*
X102276190Y-87593019D02*
X102323809Y-87688257D01*
X102323809Y-87688257D02*
X102323809Y-87973971D01*
X102323809Y-87973971D02*
X102276190Y-88069209D01*
X102276190Y-88069209D02*
X102228571Y-88116828D01*
X102228571Y-88116828D02*
X102133333Y-88164447D01*
X102133333Y-88164447D02*
X101942857Y-88164447D01*
X101942857Y-88164447D02*
X101847619Y-88116828D01*
X101419047Y-87497780D02*
X101419047Y-88497780D01*
X100990476Y-87497780D02*
X100990476Y-88021590D01*
X100990476Y-88021590D02*
X101038095Y-88116828D01*
X101038095Y-88116828D02*
X101133333Y-88164447D01*
X101133333Y-88164447D02*
X101276190Y-88164447D01*
X101276190Y-88164447D02*
X101371428Y-88116828D01*
X101371428Y-88116828D02*
X101419047Y-88069209D01*
X99228571Y-87497780D02*
X99799999Y-87497780D01*
X99514285Y-87497780D02*
X99514285Y-88497780D01*
X99514285Y-88497780D02*
X99609523Y-88354923D01*
X99609523Y-88354923D02*
X99704761Y-88259685D01*
X99704761Y-88259685D02*
X99799999Y-88212066D01*
X117128572Y-88121590D02*
X116985715Y-88073971D01*
X116985715Y-88073971D02*
X116938096Y-88026352D01*
X116938096Y-88026352D02*
X116890477Y-87931114D01*
X116890477Y-87931114D02*
X116890477Y-87788257D01*
X116890477Y-87788257D02*
X116938096Y-87693019D01*
X116938096Y-87693019D02*
X116985715Y-87645400D01*
X116985715Y-87645400D02*
X117080953Y-87597780D01*
X117080953Y-87597780D02*
X117461905Y-87597780D01*
X117461905Y-87597780D02*
X117461905Y-88597780D01*
X117461905Y-88597780D02*
X117128572Y-88597780D01*
X117128572Y-88597780D02*
X117033334Y-88550161D01*
X117033334Y-88550161D02*
X116985715Y-88502542D01*
X116985715Y-88502542D02*
X116938096Y-88407304D01*
X116938096Y-88407304D02*
X116938096Y-88312066D01*
X116938096Y-88312066D02*
X116985715Y-88216828D01*
X116985715Y-88216828D02*
X117033334Y-88169209D01*
X117033334Y-88169209D02*
X117128572Y-88121590D01*
X117128572Y-88121590D02*
X117461905Y-88121590D01*
X116033334Y-87597780D02*
X116033334Y-88121590D01*
X116033334Y-88121590D02*
X116080953Y-88216828D01*
X116080953Y-88216828D02*
X116176191Y-88264447D01*
X116176191Y-88264447D02*
X116366667Y-88264447D01*
X116366667Y-88264447D02*
X116461905Y-88216828D01*
X116033334Y-87645400D02*
X116128572Y-87597780D01*
X116128572Y-87597780D02*
X116366667Y-87597780D01*
X116366667Y-87597780D02*
X116461905Y-87645400D01*
X116461905Y-87645400D02*
X116509524Y-87740638D01*
X116509524Y-87740638D02*
X116509524Y-87835876D01*
X116509524Y-87835876D02*
X116461905Y-87931114D01*
X116461905Y-87931114D02*
X116366667Y-87978733D01*
X116366667Y-87978733D02*
X116128572Y-87978733D01*
X116128572Y-87978733D02*
X116033334Y-88026352D01*
X115700000Y-88264447D02*
X115319048Y-88264447D01*
X115557143Y-88597780D02*
X115557143Y-87740638D01*
X115557143Y-87740638D02*
X115509524Y-87645400D01*
X115509524Y-87645400D02*
X115414286Y-87597780D01*
X115414286Y-87597780D02*
X115319048Y-87597780D01*
X115128571Y-88264447D02*
X114747619Y-88264447D01*
X114985714Y-88597780D02*
X114985714Y-87740638D01*
X114985714Y-87740638D02*
X114938095Y-87645400D01*
X114938095Y-87645400D02*
X114842857Y-87597780D01*
X114842857Y-87597780D02*
X114747619Y-87597780D01*
X114033333Y-87645400D02*
X114128571Y-87597780D01*
X114128571Y-87597780D02*
X114319047Y-87597780D01*
X114319047Y-87597780D02*
X114414285Y-87645400D01*
X114414285Y-87645400D02*
X114461904Y-87740638D01*
X114461904Y-87740638D02*
X114461904Y-88121590D01*
X114461904Y-88121590D02*
X114414285Y-88216828D01*
X114414285Y-88216828D02*
X114319047Y-88264447D01*
X114319047Y-88264447D02*
X114128571Y-88264447D01*
X114128571Y-88264447D02*
X114033333Y-88216828D01*
X114033333Y-88216828D02*
X113985714Y-88121590D01*
X113985714Y-88121590D02*
X113985714Y-88026352D01*
X113985714Y-88026352D02*
X114461904Y-87931114D01*
X113557142Y-87597780D02*
X113557142Y-88264447D01*
X113557142Y-88073971D02*
X113509523Y-88169209D01*
X113509523Y-88169209D02*
X113461904Y-88216828D01*
X113461904Y-88216828D02*
X113366666Y-88264447D01*
X113366666Y-88264447D02*
X113271428Y-88264447D01*
X113033332Y-88264447D02*
X112795237Y-87597780D01*
X112557142Y-88264447D02*
X112795237Y-87597780D01*
X112795237Y-87597780D02*
X112890475Y-87359685D01*
X112890475Y-87359685D02*
X112938094Y-87312066D01*
X112938094Y-87312066D02*
X113033332Y-87264447D01*
X110890475Y-87597780D02*
X111461903Y-87597780D01*
X111176189Y-87597780D02*
X111176189Y-88597780D01*
X111176189Y-88597780D02*
X111271427Y-88454923D01*
X111271427Y-88454923D02*
X111366665Y-88359685D01*
X111366665Y-88359685D02*
X111461903Y-88312066D01*
X97321590Y-134461905D02*
X97321590Y-134795238D01*
X96797780Y-134938095D02*
X96797780Y-134461905D01*
X96797780Y-134461905D02*
X97797780Y-134461905D01*
X97797780Y-134461905D02*
X97797780Y-134938095D01*
X97178733Y-135366667D02*
X97178733Y-136128572D01*
X96797780Y-136604762D02*
X97797780Y-136604762D01*
X97797780Y-136604762D02*
X97083495Y-136938095D01*
X97083495Y-136938095D02*
X97797780Y-137271428D01*
X97797780Y-137271428D02*
X96797780Y-137271428D01*
X97083495Y-137700000D02*
X97083495Y-138176190D01*
X96797780Y-137604762D02*
X97797780Y-137938095D01*
X97797780Y-137938095D02*
X96797780Y-138271428D01*
X97797780Y-138461905D02*
X97797780Y-139033333D01*
X96797780Y-138747619D02*
X97797780Y-138747619D01*
X96893019Y-139938095D02*
X96845400Y-139890476D01*
X96845400Y-139890476D02*
X96797780Y-139747619D01*
X96797780Y-139747619D02*
X96797780Y-139652381D01*
X96797780Y-139652381D02*
X96845400Y-139509524D01*
X96845400Y-139509524D02*
X96940638Y-139414286D01*
X96940638Y-139414286D02*
X97035876Y-139366667D01*
X97035876Y-139366667D02*
X97226352Y-139319048D01*
X97226352Y-139319048D02*
X97369209Y-139319048D01*
X97369209Y-139319048D02*
X97559685Y-139366667D01*
X97559685Y-139366667D02*
X97654923Y-139414286D01*
X97654923Y-139414286D02*
X97750161Y-139509524D01*
X97750161Y-139509524D02*
X97797780Y-139652381D01*
X97797780Y-139652381D02*
X97797780Y-139747619D01*
X97797780Y-139747619D02*
X97750161Y-139890476D01*
X97750161Y-139890476D02*
X97702542Y-139938095D01*
X96797780Y-140366667D02*
X97797780Y-140366667D01*
X97321590Y-140366667D02*
X97321590Y-140938095D01*
X96797780Y-140938095D02*
X97797780Y-140938095D01*
X96895400Y-126978571D02*
X96847780Y-127121428D01*
X96847780Y-127121428D02*
X96847780Y-127359523D01*
X96847780Y-127359523D02*
X96895400Y-127454761D01*
X96895400Y-127454761D02*
X96943019Y-127502380D01*
X96943019Y-127502380D02*
X97038257Y-127549999D01*
X97038257Y-127549999D02*
X97133495Y-127549999D01*
X97133495Y-127549999D02*
X97228733Y-127502380D01*
X97228733Y-127502380D02*
X97276352Y-127454761D01*
X97276352Y-127454761D02*
X97323971Y-127359523D01*
X97323971Y-127359523D02*
X97371590Y-127169047D01*
X97371590Y-127169047D02*
X97419209Y-127073809D01*
X97419209Y-127073809D02*
X97466828Y-127026190D01*
X97466828Y-127026190D02*
X97562066Y-126978571D01*
X97562066Y-126978571D02*
X97657304Y-126978571D01*
X97657304Y-126978571D02*
X97752542Y-127026190D01*
X97752542Y-127026190D02*
X97800161Y-127073809D01*
X97800161Y-127073809D02*
X97847780Y-127169047D01*
X97847780Y-127169047D02*
X97847780Y-127407142D01*
X97847780Y-127407142D02*
X97800161Y-127549999D01*
X97514447Y-127883333D02*
X96847780Y-128073809D01*
X96847780Y-128073809D02*
X97323971Y-128264285D01*
X97323971Y-128264285D02*
X96847780Y-128454761D01*
X96847780Y-128454761D02*
X97514447Y-128645237D01*
X96847780Y-129026190D02*
X97514447Y-129026190D01*
X97847780Y-129026190D02*
X97800161Y-128978571D01*
X97800161Y-128978571D02*
X97752542Y-129026190D01*
X97752542Y-129026190D02*
X97800161Y-129073809D01*
X97800161Y-129073809D02*
X97847780Y-129026190D01*
X97847780Y-129026190D02*
X97752542Y-129026190D01*
X97514447Y-129359523D02*
X97514447Y-129740475D01*
X97847780Y-129502380D02*
X96990638Y-129502380D01*
X96990638Y-129502380D02*
X96895400Y-129549999D01*
X96895400Y-129549999D02*
X96847780Y-129645237D01*
X96847780Y-129645237D02*
X96847780Y-129740475D01*
X96895400Y-130502380D02*
X96847780Y-130407142D01*
X96847780Y-130407142D02*
X96847780Y-130216666D01*
X96847780Y-130216666D02*
X96895400Y-130121428D01*
X96895400Y-130121428D02*
X96943019Y-130073809D01*
X96943019Y-130073809D02*
X97038257Y-130026190D01*
X97038257Y-130026190D02*
X97323971Y-130026190D01*
X97323971Y-130026190D02*
X97419209Y-130073809D01*
X97419209Y-130073809D02*
X97466828Y-130121428D01*
X97466828Y-130121428D02*
X97514447Y-130216666D01*
X97514447Y-130216666D02*
X97514447Y-130407142D01*
X97514447Y-130407142D02*
X97466828Y-130502380D01*
X96847780Y-130930952D02*
X97847780Y-130930952D01*
X96847780Y-131359523D02*
X97371590Y-131359523D01*
X97371590Y-131359523D02*
X97466828Y-131311904D01*
X97466828Y-131311904D02*
X97514447Y-131216666D01*
X97514447Y-131216666D02*
X97514447Y-131073809D01*
X97514447Y-131073809D02*
X97466828Y-130978571D01*
X97466828Y-130978571D02*
X97419209Y-130930952D01*
X97847780Y-132502381D02*
X97847780Y-133121428D01*
X97847780Y-133121428D02*
X97466828Y-132788095D01*
X97466828Y-132788095D02*
X97466828Y-132930952D01*
X97466828Y-132930952D02*
X97419209Y-133026190D01*
X97419209Y-133026190D02*
X97371590Y-133073809D01*
X97371590Y-133073809D02*
X97276352Y-133121428D01*
X97276352Y-133121428D02*
X97038257Y-133121428D01*
X97038257Y-133121428D02*
X96943019Y-133073809D01*
X96943019Y-133073809D02*
X96895400Y-133026190D01*
X96895400Y-133026190D02*
X96847780Y-132930952D01*
X96847780Y-132930952D02*
X96847780Y-132645238D01*
X96847780Y-132645238D02*
X96895400Y-132550000D01*
X96895400Y-132550000D02*
X96943019Y-132502381D01*
D11*
X131261904Y-158062580D02*
X131261904Y-157253057D01*
X131261904Y-157253057D02*
X131214285Y-157157819D01*
X131214285Y-157157819D02*
X131166666Y-157110200D01*
X131166666Y-157110200D02*
X131071428Y-157062580D01*
X131071428Y-157062580D02*
X130880952Y-157062580D01*
X130880952Y-157062580D02*
X130785714Y-157110200D01*
X130785714Y-157110200D02*
X130738095Y-157157819D01*
X130738095Y-157157819D02*
X130690476Y-157253057D01*
X130690476Y-157253057D02*
X130690476Y-158062580D01*
X129690476Y-157062580D02*
X130261904Y-157062580D01*
X129976190Y-157062580D02*
X129976190Y-158062580D01*
X129976190Y-158062580D02*
X130071428Y-157919723D01*
X130071428Y-157919723D02*
X130166666Y-157824485D01*
X130166666Y-157824485D02*
X130261904Y-157776866D01*
D10*
X109644524Y-168987100D02*
X109787381Y-169034719D01*
X109787381Y-169034719D02*
X110025476Y-169034719D01*
X110025476Y-169034719D02*
X110120714Y-168987100D01*
X110120714Y-168987100D02*
X110168333Y-168939480D01*
X110168333Y-168939480D02*
X110215952Y-168844242D01*
X110215952Y-168844242D02*
X110215952Y-168749004D01*
X110215952Y-168749004D02*
X110168333Y-168653766D01*
X110168333Y-168653766D02*
X110120714Y-168606147D01*
X110120714Y-168606147D02*
X110025476Y-168558528D01*
X110025476Y-168558528D02*
X109835000Y-168510909D01*
X109835000Y-168510909D02*
X109739762Y-168463290D01*
X109739762Y-168463290D02*
X109692143Y-168415671D01*
X109692143Y-168415671D02*
X109644524Y-168320433D01*
X109644524Y-168320433D02*
X109644524Y-168225195D01*
X109644524Y-168225195D02*
X109692143Y-168129957D01*
X109692143Y-168129957D02*
X109739762Y-168082338D01*
X109739762Y-168082338D02*
X109835000Y-168034719D01*
X109835000Y-168034719D02*
X110073095Y-168034719D01*
X110073095Y-168034719D02*
X110215952Y-168082338D01*
X110549286Y-168368052D02*
X110739762Y-169034719D01*
X110739762Y-169034719D02*
X110930238Y-168558528D01*
X110930238Y-168558528D02*
X111120714Y-169034719D01*
X111120714Y-169034719D02*
X111311190Y-168368052D01*
X111692143Y-169034719D02*
X111692143Y-168368052D01*
X111692143Y-168034719D02*
X111644524Y-168082338D01*
X111644524Y-168082338D02*
X111692143Y-168129957D01*
X111692143Y-168129957D02*
X111739762Y-168082338D01*
X111739762Y-168082338D02*
X111692143Y-168034719D01*
X111692143Y-168034719D02*
X111692143Y-168129957D01*
X112025476Y-168368052D02*
X112406428Y-168368052D01*
X112168333Y-168034719D02*
X112168333Y-168891861D01*
X112168333Y-168891861D02*
X112215952Y-168987100D01*
X112215952Y-168987100D02*
X112311190Y-169034719D01*
X112311190Y-169034719D02*
X112406428Y-169034719D01*
X113168333Y-168987100D02*
X113073095Y-169034719D01*
X113073095Y-169034719D02*
X112882619Y-169034719D01*
X112882619Y-169034719D02*
X112787381Y-168987100D01*
X112787381Y-168987100D02*
X112739762Y-168939480D01*
X112739762Y-168939480D02*
X112692143Y-168844242D01*
X112692143Y-168844242D02*
X112692143Y-168558528D01*
X112692143Y-168558528D02*
X112739762Y-168463290D01*
X112739762Y-168463290D02*
X112787381Y-168415671D01*
X112787381Y-168415671D02*
X112882619Y-168368052D01*
X112882619Y-168368052D02*
X113073095Y-168368052D01*
X113073095Y-168368052D02*
X113168333Y-168415671D01*
X113596905Y-169034719D02*
X113596905Y-168034719D01*
X114025476Y-169034719D02*
X114025476Y-168510909D01*
X114025476Y-168510909D02*
X113977857Y-168415671D01*
X113977857Y-168415671D02*
X113882619Y-168368052D01*
X113882619Y-168368052D02*
X113739762Y-168368052D01*
X113739762Y-168368052D02*
X113644524Y-168415671D01*
X113644524Y-168415671D02*
X113596905Y-168463290D01*
X114454048Y-168129957D02*
X114501667Y-168082338D01*
X114501667Y-168082338D02*
X114596905Y-168034719D01*
X114596905Y-168034719D02*
X114835000Y-168034719D01*
X114835000Y-168034719D02*
X114930238Y-168082338D01*
X114930238Y-168082338D02*
X114977857Y-168129957D01*
X114977857Y-168129957D02*
X115025476Y-168225195D01*
X115025476Y-168225195D02*
X115025476Y-168320433D01*
X115025476Y-168320433D02*
X114977857Y-168463290D01*
X114977857Y-168463290D02*
X114406429Y-169034719D01*
X114406429Y-169034719D02*
X115025476Y-169034719D01*
X107832780Y-99244673D02*
X108832780Y-99244673D01*
X107832780Y-99720863D02*
X108832780Y-99720863D01*
X108832780Y-99720863D02*
X107832780Y-100292291D01*
X107832780Y-100292291D02*
X108832780Y-100292291D01*
X111838733Y-122944673D02*
X111838733Y-123706578D01*
X111813733Y-99394673D02*
X111813733Y-100156578D01*
X108682780Y-122185149D02*
X108682780Y-122375625D01*
X108682780Y-122375625D02*
X108635161Y-122470863D01*
X108635161Y-122470863D02*
X108539923Y-122566101D01*
X108539923Y-122566101D02*
X108349447Y-122613720D01*
X108349447Y-122613720D02*
X108016114Y-122613720D01*
X108016114Y-122613720D02*
X107825638Y-122566101D01*
X107825638Y-122566101D02*
X107730400Y-122470863D01*
X107730400Y-122470863D02*
X107682780Y-122375625D01*
X107682780Y-122375625D02*
X107682780Y-122185149D01*
X107682780Y-122185149D02*
X107730400Y-122089911D01*
X107730400Y-122089911D02*
X107825638Y-121994673D01*
X107825638Y-121994673D02*
X108016114Y-121947054D01*
X108016114Y-121947054D02*
X108349447Y-121947054D01*
X108349447Y-121947054D02*
X108539923Y-121994673D01*
X108539923Y-121994673D02*
X108635161Y-122089911D01*
X108635161Y-122089911D02*
X108682780Y-122185149D01*
X108682780Y-123042292D02*
X107873257Y-123042292D01*
X107873257Y-123042292D02*
X107778019Y-123089911D01*
X107778019Y-123089911D02*
X107730400Y-123137530D01*
X107730400Y-123137530D02*
X107682780Y-123232768D01*
X107682780Y-123232768D02*
X107682780Y-123423244D01*
X107682780Y-123423244D02*
X107730400Y-123518482D01*
X107730400Y-123518482D02*
X107778019Y-123566101D01*
X107778019Y-123566101D02*
X107873257Y-123613720D01*
X107873257Y-123613720D02*
X108682780Y-123613720D01*
X108682780Y-123947054D02*
X108682780Y-124518482D01*
X107682780Y-124232768D02*
X108682780Y-124232768D01*
X104738733Y-122844673D02*
X104738733Y-123606578D01*
X104357780Y-123225625D02*
X105119685Y-123225625D01*
X104913733Y-99294673D02*
X104913733Y-100056578D01*
X104532780Y-99675625D02*
X105294685Y-99675625D01*
D12*
X106074819Y-137903333D02*
X106789104Y-137903333D01*
X106789104Y-137903333D02*
X106931961Y-137950952D01*
X106931961Y-137950952D02*
X107027200Y-138046190D01*
X107027200Y-138046190D02*
X107074819Y-138189047D01*
X107074819Y-138189047D02*
X107074819Y-138284285D01*
X106170057Y-137474761D02*
X106122438Y-137427142D01*
X106122438Y-137427142D02*
X106074819Y-137331904D01*
X106074819Y-137331904D02*
X106074819Y-137093809D01*
X106074819Y-137093809D02*
X106122438Y-136998571D01*
X106122438Y-136998571D02*
X106170057Y-136950952D01*
X106170057Y-136950952D02*
X106265295Y-136903333D01*
X106265295Y-136903333D02*
X106360533Y-136903333D01*
X106360533Y-136903333D02*
X106503390Y-136950952D01*
X106503390Y-136950952D02*
X107074819Y-137522380D01*
X107074819Y-137522380D02*
X107074819Y-136903333D01*
X109454819Y-137261904D02*
X110264342Y-137261904D01*
X110264342Y-137261904D02*
X110359580Y-137214285D01*
X110359580Y-137214285D02*
X110407200Y-137166666D01*
X110407200Y-137166666D02*
X110454819Y-137071428D01*
X110454819Y-137071428D02*
X110454819Y-136880952D01*
X110454819Y-136880952D02*
X110407200Y-136785714D01*
X110407200Y-136785714D02*
X110359580Y-136738095D01*
X110359580Y-136738095D02*
X110264342Y-136690476D01*
X110264342Y-136690476D02*
X109454819Y-136690476D01*
X109454819Y-136309523D02*
X109454819Y-135690476D01*
X109454819Y-135690476D02*
X109835771Y-136023809D01*
X109835771Y-136023809D02*
X109835771Y-135880952D01*
X109835771Y-135880952D02*
X109883390Y-135785714D01*
X109883390Y-135785714D02*
X109931009Y-135738095D01*
X109931009Y-135738095D02*
X110026247Y-135690476D01*
X110026247Y-135690476D02*
X110264342Y-135690476D01*
X110264342Y-135690476D02*
X110359580Y-135738095D01*
X110359580Y-135738095D02*
X110407200Y-135785714D01*
X110407200Y-135785714D02*
X110454819Y-135880952D01*
X110454819Y-135880952D02*
X110454819Y-136166666D01*
X110454819Y-136166666D02*
X110407200Y-136261904D01*
X110407200Y-136261904D02*
X110359580Y-136309523D01*
X106737019Y-140309999D02*
X106975114Y-140309999D01*
X106879876Y-140548094D02*
X106975114Y-140309999D01*
X106975114Y-140309999D02*
X106879876Y-140071904D01*
X107165590Y-140452856D02*
X106975114Y-140309999D01*
X106975114Y-140309999D02*
X107165590Y-140167142D01*
X106737019Y-140309999D02*
X106975114Y-140309999D01*
X106879876Y-140548094D02*
X106975114Y-140309999D01*
X106975114Y-140309999D02*
X106879876Y-140071904D01*
X107165590Y-140452856D02*
X106975114Y-140309999D01*
X106975114Y-140309999D02*
X107165590Y-140167142D01*
D13*
%TO.C,R4*%
X104120000Y-142346359D02*
X104120000Y-142653641D01*
X104880000Y-142346359D02*
X104880000Y-142653641D01*
%TO.C,Q1*%
X113140000Y-128690999D02*
X117760000Y-128690999D01*
X113140000Y-138910999D02*
X113140000Y-128690999D01*
X116380000Y-128690999D02*
X116380000Y-138910999D01*
X117760000Y-128690999D02*
X117760000Y-138910999D01*
X117760000Y-131950999D02*
X116380000Y-131950999D01*
X117760000Y-135650999D02*
X116380000Y-135650999D01*
X117760000Y-138910999D02*
X113140000Y-138910999D01*
%TO.C,U1*%
D14*
X143900000Y-169500000D02*
X116900000Y-169500000D01*
X116900000Y-141200000D01*
X143900000Y-141200000D01*
X143900000Y-169500000D01*
D15*
%TO.C,G\u002A\u002A\u002A*%
G36*
X105752930Y-166424669D02*
G01*
X105752930Y-166508696D01*
X105597293Y-166508696D01*
X105441656Y-166508696D01*
X105435242Y-167114886D01*
X105428828Y-167721077D01*
X105368809Y-167725707D01*
X105310454Y-167724539D01*
X105278781Y-167717704D01*
X105268948Y-167701849D01*
X105261334Y-167660665D01*
X105255725Y-167589814D01*
X105251908Y-167484963D01*
X105249671Y-167341774D01*
X105248801Y-167155912D01*
X105248771Y-167106884D01*
X105248771Y-166508696D01*
X105092722Y-166508696D01*
X104936673Y-166508696D01*
X104936673Y-166424669D01*
X104936673Y-166340643D01*
X105344801Y-166340643D01*
X105752930Y-166340643D01*
X105752930Y-166424669D01*
G37*
G36*
X100687334Y-166424669D02*
G01*
X100683319Y-166481123D01*
X100662955Y-166504278D01*
X100615312Y-166508696D01*
X100543289Y-166508696D01*
X100543289Y-167024858D01*
X100543289Y-167541021D01*
X100615312Y-167541021D01*
X100663701Y-167545705D01*
X100683548Y-167569464D01*
X100687334Y-167625047D01*
X100687334Y-167709074D01*
X100525283Y-167709401D01*
X100434699Y-167711065D01*
X100358067Y-167715083D01*
X100315217Y-167720071D01*
X100260962Y-167722927D01*
X100237193Y-167717743D01*
X100216898Y-167687439D01*
X100207300Y-167630331D01*
X100207183Y-167623046D01*
X100211454Y-167567475D01*
X100232869Y-167545036D01*
X100279206Y-167541021D01*
X100351229Y-167541021D01*
X100351229Y-167024858D01*
X100351229Y-166508696D01*
X100279206Y-166508696D01*
X100230817Y-166504011D01*
X100210969Y-166480252D01*
X100207183Y-166424669D01*
X100207183Y-166340643D01*
X100447259Y-166340643D01*
X100687334Y-166340643D01*
X100687334Y-166424669D01*
G37*
G36*
X104840643Y-166424669D02*
G01*
X104836628Y-166481123D01*
X104816263Y-166504278D01*
X104768620Y-166508696D01*
X104696597Y-166508696D01*
X104696597Y-167024858D01*
X104696597Y-167541021D01*
X104768620Y-167541021D01*
X104817009Y-167545705D01*
X104836856Y-167569464D01*
X104840643Y-167625047D01*
X104832815Y-167684874D01*
X104812483Y-167712031D01*
X104810633Y-167712362D01*
X104756317Y-167715642D01*
X104675153Y-167717650D01*
X104582979Y-167718349D01*
X104495631Y-167717703D01*
X104428947Y-167715674D01*
X104402505Y-167713315D01*
X104371389Y-167691015D01*
X104360622Y-167633726D01*
X104360491Y-167623287D01*
X104364730Y-167567609D01*
X104386015Y-167545083D01*
X104432514Y-167541021D01*
X104504537Y-167541021D01*
X104504537Y-167024858D01*
X104504537Y-166508696D01*
X104432514Y-166508696D01*
X104384125Y-166504011D01*
X104364278Y-166480252D01*
X104360491Y-166424669D01*
X104360491Y-166340643D01*
X104600567Y-166340643D01*
X104840643Y-166340643D01*
X104840643Y-166424669D01*
G37*
G36*
X102374045Y-160511759D02*
G01*
X102547920Y-160518809D01*
X102555093Y-161899244D01*
X102556160Y-162157344D01*
X102556656Y-162404989D01*
X102556608Y-162637303D01*
X102556041Y-162849412D01*
X102554979Y-163036438D01*
X102553449Y-163193507D01*
X102551474Y-163315743D01*
X102549082Y-163398271D01*
X102547162Y-163429902D01*
X102511465Y-163579907D01*
X102440933Y-163709824D01*
X102342610Y-163814777D01*
X102223546Y-163889890D01*
X102090787Y-163930286D01*
X101951381Y-163931089D01*
X101857654Y-163907007D01*
X101712732Y-163829654D01*
X101600159Y-163719113D01*
X101548062Y-163634443D01*
X101491588Y-163519754D01*
X101491588Y-162019282D01*
X101491588Y-160518809D01*
X101665643Y-160511755D01*
X101755357Y-160508972D01*
X101807395Y-160511583D01*
X101832028Y-160522416D01*
X101839526Y-160544297D01*
X101840056Y-160559770D01*
X101840108Y-160593133D01*
X101840136Y-160670176D01*
X101840139Y-160786565D01*
X101840118Y-160937964D01*
X101840076Y-161120040D01*
X101840012Y-161328456D01*
X101839929Y-161558879D01*
X101839826Y-161806974D01*
X101839704Y-162068405D01*
X101839702Y-162072752D01*
X101838991Y-163530666D01*
X101894952Y-163544711D01*
X101952402Y-163551630D01*
X102032651Y-163552826D01*
X102069360Y-163551259D01*
X102187807Y-163543762D01*
X102193988Y-162024235D01*
X102200170Y-160504709D01*
X102374045Y-160511759D01*
G37*
G36*
X103376181Y-166851178D02*
G01*
X103376587Y-167024054D01*
X103378159Y-167155960D01*
X103381427Y-167253936D01*
X103386923Y-167325025D01*
X103395179Y-167376266D01*
X103406725Y-167414700D01*
X103421012Y-167445365D01*
X103487895Y-167525638D01*
X103576040Y-167570746D01*
X103674025Y-167580697D01*
X103770428Y-167555501D01*
X103853828Y-167495166D01*
X103891209Y-167444990D01*
X103907762Y-167412928D01*
X103920378Y-167376136D01*
X103929741Y-167327542D01*
X103936537Y-167260070D01*
X103941450Y-167166648D01*
X103945166Y-167040202D01*
X103948369Y-166873658D01*
X103948749Y-166850803D01*
X103957139Y-166340643D01*
X104053386Y-166340643D01*
X104149633Y-166340643D01*
X104140628Y-166874811D01*
X104137386Y-167050237D01*
X104133864Y-167184886D01*
X104129344Y-167285995D01*
X104123105Y-167360799D01*
X104114430Y-167416535D01*
X104102598Y-167460439D01*
X104086891Y-167499748D01*
X104076301Y-167522110D01*
X104008194Y-167626377D01*
X103918914Y-167696201D01*
X103800493Y-167736296D01*
X103691999Y-167749447D01*
X103582301Y-167750850D01*
X103499156Y-167737563D01*
X103436200Y-167713457D01*
X103364100Y-167674813D01*
X103307022Y-167631170D01*
X103263255Y-167576702D01*
X103231092Y-167505582D01*
X103208824Y-167411984D01*
X103194742Y-167290079D01*
X103187138Y-167134042D01*
X103184303Y-166938044D01*
X103184121Y-166853787D01*
X103184121Y-166340643D01*
X103280151Y-166340643D01*
X103376181Y-166340643D01*
X103376181Y-166851178D01*
G37*
G36*
X99711525Y-166309625D02*
G01*
X99739874Y-166316870D01*
X99843569Y-166367151D01*
X99940316Y-166451192D01*
X100017006Y-166555134D01*
X100057687Y-166652829D01*
X100082040Y-166748771D01*
X99979161Y-166748771D01*
X99912424Y-166744929D01*
X99878382Y-166728439D01*
X99862001Y-166691857D01*
X99861683Y-166690603D01*
X99825169Y-166612220D01*
X99763706Y-166538755D01*
X99692639Y-166486500D01*
X99656847Y-166473088D01*
X99555118Y-166473465D01*
X99463122Y-166518202D01*
X99386865Y-166603791D01*
X99364345Y-166644082D01*
X99338112Y-166703393D01*
X99321219Y-166761791D01*
X99311704Y-166832289D01*
X99307604Y-166927903D01*
X99306900Y-167024858D01*
X99314064Y-167201158D01*
X99336999Y-167337419D01*
X99377870Y-167439652D01*
X99438839Y-167513865D01*
X99497402Y-167553864D01*
X99593804Y-167581375D01*
X99690632Y-167567546D01*
X99778045Y-167517943D01*
X99846207Y-167438132D01*
X99885122Y-167334521D01*
X99899298Y-167281440D01*
X99925715Y-167258385D01*
X99980853Y-167252983D01*
X99993787Y-167252930D01*
X100054315Y-167256152D01*
X100080681Y-167272335D01*
X100086631Y-167311256D01*
X100086618Y-167318951D01*
X100070331Y-167405545D01*
X100029388Y-167503812D01*
X99973903Y-167592313D01*
X99939938Y-167629903D01*
X99820695Y-167708569D01*
X99682728Y-167749094D01*
X99538671Y-167749701D01*
X99401158Y-167708608D01*
X99396694Y-167706430D01*
X99285372Y-167625457D01*
X99196553Y-167507523D01*
X99132483Y-167359199D01*
X99095410Y-167187059D01*
X99087581Y-166997674D01*
X99102574Y-166846238D01*
X99148390Y-166660823D01*
X99219771Y-166511063D01*
X99314245Y-166399011D01*
X99429343Y-166326719D01*
X99562593Y-166296240D01*
X99711525Y-166309625D01*
G37*
G36*
X102606456Y-166307558D02*
G01*
X102728618Y-166355520D01*
X102834831Y-166438566D01*
X102916487Y-166555785D01*
X102922677Y-166568714D01*
X102958541Y-166656407D01*
X102966513Y-166710897D01*
X102944839Y-166739260D01*
X102891761Y-166748572D01*
X102877998Y-166748771D01*
X102820297Y-166744374D01*
X102783733Y-166723200D01*
X102751876Y-166673279D01*
X102739206Y-166647647D01*
X102670712Y-166546385D01*
X102588136Y-166487236D01*
X102498483Y-166469180D01*
X102408758Y-166491192D01*
X102325966Y-166552251D01*
X102257111Y-166651335D01*
X102227490Y-166722344D01*
X102215231Y-166782653D01*
X102205811Y-166875082D01*
X102200625Y-166983761D01*
X102200045Y-167034442D01*
X102202211Y-167153285D01*
X102210168Y-167239983D01*
X102226535Y-167310302D01*
X102253927Y-167380007D01*
X102259398Y-167391920D01*
X102328024Y-167497636D01*
X102410758Y-167561121D01*
X102500390Y-167583172D01*
X102589712Y-167564583D01*
X102671515Y-167506147D01*
X102738591Y-167408660D01*
X102767472Y-167335923D01*
X102792284Y-167262045D01*
X102814517Y-167222978D01*
X102845683Y-167207633D01*
X102897296Y-167204918D01*
X102903483Y-167204915D01*
X102998197Y-167204915D01*
X102982489Y-167303148D01*
X102938105Y-167454979D01*
X102861689Y-167579982D01*
X102759697Y-167674267D01*
X102638586Y-167733948D01*
X102504810Y-167755136D01*
X102364827Y-167733942D01*
X102305058Y-167711159D01*
X102188513Y-167632249D01*
X102097416Y-167513816D01*
X102032703Y-167357627D01*
X101995309Y-167165448D01*
X101990835Y-167118426D01*
X101990671Y-166951350D01*
X102013669Y-166783829D01*
X102056618Y-166630426D01*
X102116310Y-166505703D01*
X102130476Y-166484787D01*
X102230356Y-166383294D01*
X102348718Y-166320533D01*
X102476954Y-166295591D01*
X102606456Y-166307558D01*
G37*
G36*
X105710934Y-160524073D02*
G01*
X105835947Y-160595813D01*
X105939698Y-160704382D01*
X105974439Y-160759709D01*
X106039899Y-160878922D01*
X106040460Y-162202599D01*
X106041021Y-163526275D01*
X105973938Y-163654685D01*
X105883899Y-163778405D01*
X105765091Y-163867924D01*
X105625531Y-163919902D01*
X105473236Y-163930999D01*
X105358186Y-163911245D01*
X105258689Y-163863603D01*
X105160654Y-163783178D01*
X105077270Y-163683751D01*
X105021725Y-163579101D01*
X105012889Y-163550472D01*
X105005672Y-163502424D01*
X104999592Y-163418955D01*
X104994610Y-163298159D01*
X104990684Y-163138133D01*
X104987776Y-162936972D01*
X104985844Y-162692771D01*
X104984851Y-162403625D01*
X104984688Y-162205068D01*
X104984690Y-162195337D01*
X104984757Y-161909805D01*
X104985270Y-161658520D01*
X104986682Y-161447176D01*
X104989451Y-161271737D01*
X104994032Y-161128165D01*
X105000881Y-161012423D01*
X105010456Y-160920474D01*
X105019919Y-160866919D01*
X105344801Y-160866919D01*
X105344801Y-162195337D01*
X105345083Y-162443491D01*
X105345892Y-162677136D01*
X105347176Y-162891881D01*
X105348884Y-163083336D01*
X105350963Y-163247111D01*
X105353361Y-163378814D01*
X105356024Y-163474055D01*
X105358903Y-163528443D01*
X105360806Y-163539760D01*
X105391508Y-163548091D01*
X105455591Y-163553880D01*
X105528859Y-163555765D01*
X105680907Y-163555765D01*
X105680907Y-162211342D01*
X105680907Y-160866919D01*
X105512854Y-160866919D01*
X105344801Y-160866919D01*
X105019919Y-160866919D01*
X105023212Y-160848281D01*
X105039607Y-160791808D01*
X105060096Y-160747018D01*
X105085135Y-160709873D01*
X105115182Y-160676336D01*
X105150692Y-160642371D01*
X105162599Y-160631384D01*
X105290490Y-160542817D01*
X105429988Y-160496276D01*
X105572875Y-160490461D01*
X105710934Y-160524073D01*
G37*
G36*
X101395267Y-166343850D02*
G01*
X101516961Y-166355163D01*
X101606959Y-166377122D01*
X101673261Y-166412266D01*
X101723864Y-166463132D01*
X101751637Y-166504994D01*
X101788091Y-166605101D01*
X101797019Y-166721788D01*
X101780437Y-166839581D01*
X101740360Y-166943005D01*
X101685711Y-167011143D01*
X101663521Y-167037105D01*
X101675980Y-167062631D01*
X101700507Y-167083981D01*
X101725583Y-167111473D01*
X101744353Y-167153310D01*
X101759491Y-167219270D01*
X101773669Y-167319133D01*
X101780202Y-167375532D01*
X101793450Y-167483604D01*
X101807065Y-167576462D01*
X101819147Y-167641988D01*
X101825578Y-167664891D01*
X101822812Y-167701566D01*
X101784182Y-167723389D01*
X101720674Y-167726002D01*
X101687104Y-167719799D01*
X101655860Y-167708273D01*
X101633508Y-167686514D01*
X101617400Y-167646219D01*
X101604889Y-167579082D01*
X101593329Y-167476798D01*
X101586586Y-167404434D01*
X101573425Y-167290616D01*
X101552509Y-167215962D01*
X101514835Y-167171635D01*
X101451398Y-167148801D01*
X101353194Y-167138622D01*
X101313667Y-167136627D01*
X101119471Y-167127808D01*
X101119471Y-167415872D01*
X101118517Y-167541012D01*
X101114996Y-167626045D01*
X101107920Y-167678854D01*
X101096298Y-167707322D01*
X101081496Y-167718509D01*
X100999503Y-167729028D01*
X100957420Y-167717181D01*
X100948181Y-167702228D01*
X100940892Y-167662906D01*
X100935375Y-167595084D01*
X100931450Y-167494632D01*
X100928939Y-167357419D01*
X100927664Y-167179314D01*
X100927410Y-167022857D01*
X100927410Y-166964839D01*
X101119471Y-166964839D01*
X101245510Y-166964705D01*
X101339377Y-166959590D01*
X101430111Y-166946827D01*
X101461296Y-166939647D01*
X101526215Y-166912066D01*
X101570912Y-166876115D01*
X101575332Y-166869337D01*
X101597226Y-166790892D01*
X101596351Y-166697534D01*
X101574409Y-166612494D01*
X101553958Y-166577661D01*
X101524722Y-166548725D01*
X101486227Y-166530579D01*
X101426190Y-166519886D01*
X101332332Y-166513309D01*
X101313883Y-166512440D01*
X101119471Y-166503611D01*
X101119471Y-166734225D01*
X101119471Y-166964839D01*
X100927410Y-166964839D01*
X100927410Y-166734225D01*
X100927410Y-166340643D01*
X101233881Y-166340643D01*
X101395267Y-166343850D01*
G37*
G36*
X100850424Y-160692216D02*
G01*
X100857465Y-160865623D01*
X100506743Y-160872273D01*
X100156021Y-160878922D01*
X100151593Y-161443100D01*
X100147164Y-162007278D01*
X100399244Y-162019282D01*
X100651323Y-162031285D01*
X100658377Y-162205340D01*
X100665430Y-162379395D01*
X100412299Y-162379395D01*
X100308412Y-162380987D01*
X100224918Y-162385293D01*
X100171784Y-162391607D01*
X100157831Y-162397401D01*
X100155114Y-162455936D01*
X100152720Y-162548699D01*
X100150695Y-162667070D01*
X100149085Y-162802432D01*
X100147935Y-162946167D01*
X100147291Y-163089655D01*
X100147198Y-163224279D01*
X100147702Y-163341421D01*
X100148849Y-163432461D01*
X100150684Y-163488782D01*
X100151983Y-163501748D01*
X100158530Y-163522832D01*
X100171906Y-163537565D01*
X100199674Y-163547083D01*
X100249394Y-163552525D01*
X100328625Y-163555030D01*
X100444930Y-163555733D01*
X100510932Y-163555765D01*
X100857491Y-163555765D01*
X100850437Y-163729820D01*
X100843384Y-163903875D01*
X100471266Y-163910399D01*
X100327663Y-163912437D01*
X100222747Y-163912106D01*
X100147211Y-163908476D01*
X100091749Y-163900615D01*
X100047053Y-163887590D01*
X100003818Y-163868470D01*
X99991664Y-163862384D01*
X99951924Y-163842803D01*
X99917868Y-163824992D01*
X99889058Y-163805309D01*
X99865059Y-163780112D01*
X99845436Y-163745759D01*
X99829751Y-163698609D01*
X99817569Y-163635018D01*
X99808454Y-163551346D01*
X99801969Y-163443950D01*
X99797678Y-163309188D01*
X99795146Y-163143419D01*
X99793936Y-162942999D01*
X99793612Y-162704288D01*
X99793738Y-162423644D01*
X99793857Y-162210478D01*
X99794029Y-161910743D01*
X99794393Y-161655258D01*
X99795061Y-161440259D01*
X99796143Y-161261978D01*
X99797752Y-161116653D01*
X99799999Y-161000517D01*
X99802996Y-160909805D01*
X99806853Y-160840753D01*
X99811683Y-160789595D01*
X99817597Y-160752565D01*
X99824706Y-160725900D01*
X99833123Y-160705833D01*
X99838722Y-160695607D01*
X99890056Y-160627139D01*
X99950795Y-160569334D01*
X99978825Y-160550845D01*
X100010975Y-160537495D01*
X100055116Y-160528456D01*
X100119118Y-160522899D01*
X100210851Y-160519998D01*
X100338184Y-160518922D01*
X100430946Y-160518809D01*
X100843384Y-160518809D01*
X100850424Y-160692216D01*
G37*
G36*
X106439240Y-166329469D02*
G01*
X106555819Y-166398465D01*
X106643353Y-166500711D01*
X106696690Y-166632964D01*
X106702087Y-166658743D01*
X106718576Y-166748771D01*
X106619274Y-166748771D01*
X106554905Y-166745171D01*
X106522954Y-166728347D01*
X106508006Y-166689265D01*
X106506644Y-166682750D01*
X106464243Y-166582198D01*
X106388426Y-166510424D01*
X106287772Y-166472930D01*
X106180237Y-166473500D01*
X106088189Y-166509849D01*
X106022837Y-166577315D01*
X105993679Y-166665340D01*
X105993006Y-166681564D01*
X106003180Y-166761428D01*
X106039238Y-166817585D01*
X106109483Y-166859007D01*
X106179290Y-166882831D01*
X106350693Y-166934101D01*
X106481406Y-166977165D01*
X106577189Y-167015976D01*
X106643801Y-167054486D01*
X106687004Y-167096648D01*
X106712557Y-167146413D01*
X106726221Y-167207734D01*
X106731997Y-167262059D01*
X106728141Y-167410793D01*
X106688017Y-167531525D01*
X106609734Y-167629773D01*
X106604389Y-167634541D01*
X106486592Y-167708200D01*
X106346909Y-167748878D01*
X106200079Y-167754647D01*
X106060839Y-167723577D01*
X106029017Y-167709863D01*
X105959274Y-167673270D01*
X105902715Y-167638438D01*
X105891462Y-167630076D01*
X105848475Y-167577204D01*
X105805517Y-167496545D01*
X105771181Y-167407561D01*
X105754058Y-167329710D01*
X105753457Y-167317501D01*
X105757151Y-167273579D01*
X105778504Y-167256444D01*
X105831503Y-167256626D01*
X105842106Y-167257483D01*
X105902705Y-167267641D01*
X105932489Y-167293916D01*
X105947429Y-167344527D01*
X105991291Y-167446352D01*
X106072357Y-167524435D01*
X106167506Y-167566764D01*
X106292400Y-167580105D01*
X106404373Y-167547805D01*
X106473732Y-167500841D01*
X106521412Y-167451107D01*
X106541769Y-167395210D01*
X106545179Y-167335376D01*
X106540907Y-167275639D01*
X106523385Y-167229933D01*
X106485555Y-167193047D01*
X106420357Y-167159772D01*
X106320734Y-167124898D01*
X106218694Y-167094420D01*
X106070781Y-167047388D01*
X105963325Y-167001967D01*
X105889124Y-166953946D01*
X105840974Y-166899116D01*
X105822172Y-166862595D01*
X105791438Y-166732395D01*
X105803735Y-166605580D01*
X105854332Y-166490472D01*
X105938500Y-166395394D01*
X106051508Y-166328668D01*
X106139541Y-166304211D01*
X106298764Y-166296969D01*
X106439240Y-166329469D01*
G37*
G36*
X98748207Y-165236739D02*
G01*
X98837915Y-165239072D01*
X98898377Y-165244794D01*
X98938977Y-165255404D01*
X98969098Y-165272403D01*
X98997426Y-165296643D01*
X99062543Y-165356992D01*
X103193984Y-165356328D01*
X103636215Y-165356259D01*
X104065758Y-165356196D01*
X104480129Y-165356138D01*
X104876845Y-165356087D01*
X105253422Y-165356043D01*
X105607377Y-165356004D01*
X105936227Y-165355973D01*
X106237487Y-165355949D01*
X106508675Y-165355932D01*
X106747307Y-165355922D01*
X106950900Y-165355920D01*
X107116969Y-165355925D01*
X107243033Y-165355939D01*
X107326606Y-165355960D01*
X107365206Y-165355991D01*
X107367438Y-165355998D01*
X107403183Y-165369764D01*
X107405593Y-165399416D01*
X107377060Y-165428757D01*
X107355435Y-165437364D01*
X107325991Y-165438924D01*
X107251024Y-165440434D01*
X107133022Y-165441886D01*
X106974478Y-165443270D01*
X106777882Y-165444578D01*
X106545725Y-165445803D01*
X106280497Y-165446935D01*
X105984690Y-165447966D01*
X105660794Y-165448887D01*
X105311299Y-165449691D01*
X104938697Y-165450368D01*
X104545478Y-165450910D01*
X104134134Y-165451308D01*
X103707154Y-165451555D01*
X103267031Y-165451641D01*
X103162745Y-165451637D01*
X102640424Y-165451600D01*
X102163989Y-165451592D01*
X101731311Y-165451640D01*
X101340263Y-165451767D01*
X100988714Y-165451997D01*
X100674537Y-165452356D01*
X100395603Y-165452868D01*
X100149782Y-165453558D01*
X99934947Y-165454451D01*
X99748967Y-165455570D01*
X99589716Y-165456940D01*
X99455063Y-165458587D01*
X99342881Y-165460534D01*
X99251040Y-165462807D01*
X99177411Y-165465429D01*
X99119867Y-165468426D01*
X99076277Y-165471822D01*
X99044514Y-165475642D01*
X99022449Y-165479910D01*
X99007952Y-165484651D01*
X98998896Y-165489889D01*
X98993151Y-165495649D01*
X98990070Y-165499847D01*
X98972916Y-165519357D01*
X98948029Y-165532791D01*
X98907124Y-165541242D01*
X98841918Y-165545800D01*
X98744127Y-165547558D01*
X98627325Y-165547663D01*
X98503379Y-165545668D01*
X98394326Y-165540714D01*
X98310393Y-165533497D01*
X98261806Y-165524711D01*
X98256569Y-165522463D01*
X98225296Y-165479993D01*
X98212264Y-165412708D01*
X98217145Y-165340021D01*
X98239610Y-165281342D01*
X98260992Y-165261147D01*
X98301790Y-165251762D01*
X98379836Y-165244000D01*
X98484368Y-165238605D01*
X98604628Y-165236324D01*
X98619869Y-165236295D01*
X98748207Y-165236739D01*
G37*
G36*
X98747981Y-164744504D02*
G01*
X98844911Y-164746345D01*
X98910108Y-164750786D01*
X98951710Y-164758950D01*
X98977858Y-164771960D01*
X98996692Y-164790939D01*
X99002227Y-164798089D01*
X99042921Y-164852038D01*
X103220184Y-164858108D01*
X103749767Y-164858911D01*
X104233370Y-164859728D01*
X104673032Y-164860578D01*
X105070787Y-164861482D01*
X105428674Y-164862460D01*
X105748727Y-164863534D01*
X106032984Y-164864723D01*
X106283482Y-164866048D01*
X106502255Y-164867530D01*
X106691342Y-164869189D01*
X106852778Y-164871046D01*
X106988600Y-164873120D01*
X107100845Y-164875434D01*
X107191548Y-164878006D01*
X107262746Y-164880858D01*
X107316477Y-164884010D01*
X107354775Y-164887483D01*
X107379678Y-164891298D01*
X107393222Y-164895474D01*
X107397444Y-164900032D01*
X107397448Y-164900189D01*
X107393500Y-164904755D01*
X107380300Y-164908939D01*
X107355814Y-164912761D01*
X107318007Y-164916242D01*
X107264847Y-164919403D01*
X107194298Y-164922263D01*
X107104327Y-164924843D01*
X106992899Y-164927164D01*
X106857980Y-164929246D01*
X106697537Y-164931110D01*
X106509536Y-164932775D01*
X106291941Y-164934263D01*
X106042720Y-164935594D01*
X105759838Y-164936788D01*
X105441260Y-164937865D01*
X105084954Y-164938847D01*
X104688884Y-164939753D01*
X104251017Y-164940605D01*
X103769319Y-164941421D01*
X103241756Y-164942224D01*
X103210341Y-164942270D01*
X102684811Y-164943038D01*
X102205180Y-164943768D01*
X101769332Y-164944486D01*
X101375152Y-164945221D01*
X101020523Y-164945999D01*
X100703329Y-164946847D01*
X100421454Y-164947792D01*
X100172783Y-164948861D01*
X99955200Y-164950082D01*
X99766588Y-164951481D01*
X99604832Y-164953086D01*
X99467815Y-164954924D01*
X99353422Y-164957021D01*
X99259537Y-164959405D01*
X99184044Y-164962103D01*
X99124827Y-164965142D01*
X99079770Y-164968549D01*
X99046757Y-164972351D01*
X99023672Y-164976575D01*
X99008399Y-164981249D01*
X98998822Y-164986398D01*
X98992826Y-164992052D01*
X98989651Y-164996287D01*
X98972831Y-165015253D01*
X98948077Y-165028454D01*
X98907312Y-165036922D01*
X98842461Y-165041687D01*
X98745450Y-165043781D01*
X98614121Y-165044234D01*
X98454316Y-165042344D01*
X98340298Y-165036563D01*
X98269983Y-165026732D01*
X98243365Y-165015425D01*
X98223096Y-164969401D01*
X98215687Y-164899216D01*
X98221641Y-164827107D01*
X98238055Y-164780151D01*
X98255570Y-164765624D01*
X98291423Y-164755444D01*
X98352679Y-164748929D01*
X98446405Y-164745399D01*
X98579666Y-164744169D01*
X98611176Y-164744140D01*
X98747981Y-164744504D01*
G37*
G36*
X98749727Y-165740949D02*
G01*
X98845398Y-165743124D01*
X98909208Y-165748008D01*
X98949234Y-165756633D01*
X98973549Y-165770031D01*
X98989651Y-165788401D01*
X98994407Y-165794420D01*
X99001273Y-165799917D01*
X99012367Y-165804918D01*
X99029805Y-165809451D01*
X99055702Y-165813544D01*
X99092175Y-165817222D01*
X99141339Y-165820514D01*
X99205310Y-165823445D01*
X99286205Y-165826044D01*
X99386140Y-165828338D01*
X99507230Y-165830353D01*
X99651592Y-165832116D01*
X99821342Y-165833655D01*
X100018595Y-165834997D01*
X100245468Y-165836169D01*
X100504077Y-165837198D01*
X100796537Y-165838110D01*
X101124966Y-165838934D01*
X101491478Y-165839695D01*
X101898190Y-165840422D01*
X102347218Y-165841142D01*
X102840678Y-165841880D01*
X103210013Y-165842418D01*
X103736371Y-165843199D01*
X104216807Y-165843962D01*
X104653415Y-165844733D01*
X105048286Y-165845534D01*
X105403513Y-165846390D01*
X105721191Y-165847325D01*
X106003412Y-165848363D01*
X106252268Y-165849527D01*
X106469854Y-165850843D01*
X106658261Y-165852333D01*
X106819583Y-165854022D01*
X106955913Y-165855933D01*
X107069344Y-165858091D01*
X107161969Y-165860520D01*
X107235880Y-165863244D01*
X107293172Y-165866287D01*
X107335936Y-165869672D01*
X107366266Y-165873424D01*
X107386255Y-165877566D01*
X107397996Y-165882123D01*
X107403581Y-165887119D01*
X107404882Y-165890501D01*
X107404196Y-165895781D01*
X107398623Y-165900600D01*
X107386079Y-165904979D01*
X107364479Y-165908940D01*
X107331738Y-165912502D01*
X107285771Y-165915688D01*
X107224494Y-165918519D01*
X107145821Y-165921014D01*
X107047668Y-165923195D01*
X106927950Y-165925083D01*
X106784582Y-165926699D01*
X106615480Y-165928064D01*
X106418559Y-165929199D01*
X106191733Y-165930125D01*
X105932918Y-165930862D01*
X105640029Y-165931432D01*
X105310982Y-165931856D01*
X104943692Y-165932154D01*
X104536073Y-165932348D01*
X104086042Y-165932459D01*
X103591512Y-165932506D01*
X103224821Y-165932514D01*
X99036669Y-165932514D01*
X99000851Y-165986531D01*
X98983484Y-166008463D01*
X98959852Y-166023786D01*
X98921492Y-166033950D01*
X98859940Y-166040409D01*
X98766733Y-166044613D01*
X98643811Y-166047782D01*
X98507152Y-166049867D01*
X98409853Y-166048472D01*
X98343335Y-166042882D01*
X98299024Y-166032379D01*
X98268573Y-166016411D01*
X98231213Y-165965063D01*
X98213778Y-165891877D01*
X98218447Y-165818244D01*
X98243365Y-165769263D01*
X98279111Y-165755958D01*
X98356837Y-165746839D01*
X98478627Y-165741744D01*
X98614121Y-165740454D01*
X98749727Y-165740949D01*
G37*
G36*
X98749727Y-164252480D02*
G01*
X98845398Y-164254655D01*
X98909208Y-164259539D01*
X98949234Y-164268165D01*
X98973549Y-164281562D01*
X98989651Y-164299932D01*
X98994407Y-164305951D01*
X99001273Y-164311448D01*
X99012367Y-164316449D01*
X99029805Y-164320983D01*
X99055702Y-164325075D01*
X99092175Y-164328753D01*
X99141339Y-164332045D01*
X99205310Y-164334977D01*
X99286205Y-164337576D01*
X99386140Y-164339869D01*
X99507230Y-164341884D01*
X99651592Y-164343648D01*
X99821342Y-164345187D01*
X100018595Y-164346529D01*
X100245468Y-164347700D01*
X100504077Y-164348729D01*
X100796537Y-164349641D01*
X101124966Y-164350465D01*
X101491478Y-164351227D01*
X101898190Y-164351954D01*
X102347218Y-164352673D01*
X102840678Y-164353411D01*
X103210013Y-164353949D01*
X103736371Y-164354730D01*
X104216807Y-164355494D01*
X104653415Y-164356264D01*
X105048286Y-164357065D01*
X105403513Y-164357922D01*
X105721191Y-164358856D01*
X106003412Y-164359894D01*
X106252268Y-164361059D01*
X106469854Y-164362374D01*
X106658261Y-164363864D01*
X106819583Y-164365553D01*
X106955913Y-164367464D01*
X107069344Y-164369623D01*
X107161969Y-164372052D01*
X107235880Y-164374775D01*
X107293172Y-164377818D01*
X107335936Y-164381203D01*
X107366266Y-164384955D01*
X107386255Y-164389097D01*
X107397996Y-164393655D01*
X107403581Y-164398651D01*
X107404882Y-164402032D01*
X107404196Y-164407312D01*
X107398623Y-164412131D01*
X107386079Y-164416510D01*
X107364479Y-164420471D01*
X107331738Y-164424034D01*
X107285771Y-164427220D01*
X107224494Y-164430050D01*
X107145821Y-164432545D01*
X107047668Y-164434726D01*
X106927950Y-164436614D01*
X106784582Y-164438230D01*
X106615480Y-164439595D01*
X106418559Y-164440730D01*
X106191733Y-164441656D01*
X105932918Y-164442393D01*
X105640029Y-164442963D01*
X105310982Y-164443387D01*
X104943692Y-164443685D01*
X104536073Y-164443879D01*
X104086042Y-164443990D01*
X103591512Y-164444038D01*
X103224821Y-164444045D01*
X99036669Y-164444045D01*
X99000851Y-164498062D01*
X98983610Y-164519962D01*
X98960340Y-164535178D01*
X98922575Y-164545110D01*
X98861851Y-164551158D01*
X98769703Y-164554722D01*
X98643811Y-164557106D01*
X98521943Y-164557920D01*
X98415639Y-164556595D01*
X98335043Y-164553402D01*
X98290298Y-164548615D01*
X98286578Y-164547504D01*
X98243520Y-164518757D01*
X98232929Y-164506466D01*
X98218083Y-164456586D01*
X98215911Y-164386745D01*
X98225352Y-164319898D01*
X98243365Y-164280794D01*
X98279111Y-164267490D01*
X98356837Y-164258370D01*
X98478627Y-164253275D01*
X98614121Y-164251985D01*
X98749727Y-164252480D01*
G37*
G36*
X103585551Y-160510461D02*
G01*
X103623033Y-160511145D01*
X103783536Y-160515103D01*
X103904226Y-160521555D01*
X103993304Y-160532947D01*
X104058970Y-160551725D01*
X104109426Y-160580335D01*
X104152873Y-160621222D01*
X104197512Y-160676834D01*
X104202959Y-160684104D01*
X104217660Y-160705934D01*
X104229126Y-160731255D01*
X104237756Y-160765924D01*
X104243951Y-160815800D01*
X104248113Y-160886739D01*
X104250643Y-160984599D01*
X104251941Y-161115239D01*
X104252409Y-161284515D01*
X104252457Y-161407273D01*
X104252457Y-162064144D01*
X104185940Y-162133573D01*
X104144567Y-162179066D01*
X104133843Y-162206239D01*
X104151154Y-162231402D01*
X104167800Y-162246782D01*
X104194994Y-162277007D01*
X104216667Y-162316657D01*
X104233419Y-162371064D01*
X104245846Y-162445558D01*
X104254547Y-162545470D01*
X104260121Y-162676130D01*
X104263166Y-162842871D01*
X104264281Y-163051021D01*
X104264327Y-163106816D01*
X104264852Y-163309592D01*
X104266511Y-163469772D01*
X104269573Y-163592766D01*
X104274303Y-163683985D01*
X104280972Y-163748839D01*
X104289845Y-163792739D01*
X104299515Y-163817997D01*
X104319559Y-163869103D01*
X104320137Y-163900121D01*
X104319521Y-163900831D01*
X104289577Y-163908384D01*
X104225438Y-163913785D01*
X104140912Y-163915879D01*
X104139828Y-163915879D01*
X104052158Y-163914629D01*
X103999888Y-163908021D01*
X103970416Y-163891767D01*
X103951138Y-163861579D01*
X103945767Y-163849858D01*
X103935258Y-163803695D01*
X103926095Y-163714707D01*
X103918215Y-163581704D01*
X103911552Y-163403499D01*
X103906042Y-163178902D01*
X103904348Y-163087618D01*
X103892344Y-162391399D01*
X103724291Y-162391399D01*
X103556238Y-162391399D01*
X103551071Y-163099622D01*
X103549728Y-163281728D01*
X103548458Y-163450171D01*
X103547313Y-163598418D01*
X103546343Y-163719933D01*
X103545601Y-163808182D01*
X103545137Y-163856632D01*
X103545070Y-163861862D01*
X103541208Y-163890309D01*
X103523703Y-163906504D01*
X103482014Y-163913871D01*
X103405601Y-163915832D01*
X103378750Y-163915879D01*
X103285331Y-163913269D01*
X103230010Y-163904075D01*
X103203086Y-163886251D01*
X103198693Y-163877904D01*
X103195530Y-163846068D01*
X103192786Y-163771335D01*
X103190451Y-163658482D01*
X103188517Y-163512285D01*
X103186975Y-163337519D01*
X103185817Y-163138960D01*
X103185032Y-162921385D01*
X103184613Y-162689568D01*
X103184550Y-162448286D01*
X103184834Y-162202315D01*
X103185456Y-161956430D01*
X103186409Y-161715408D01*
X103187681Y-161484024D01*
X103188150Y-161419834D01*
X103544948Y-161419834D01*
X103545101Y-161561289D01*
X103546277Y-161695666D01*
X103548481Y-161813976D01*
X103551718Y-161907234D01*
X103555992Y-161966451D01*
X103558807Y-161981307D01*
X103578318Y-162002514D01*
X103622944Y-162014400D01*
X103702385Y-162019008D01*
X103738863Y-162019282D01*
X103904348Y-162019282D01*
X103904348Y-161443100D01*
X103904348Y-160866919D01*
X103739095Y-160866919D01*
X103651130Y-160868312D01*
X103599688Y-160874790D01*
X103573305Y-160889798D01*
X103560517Y-160916781D01*
X103559366Y-160920936D01*
X103554474Y-160962974D01*
X103550581Y-161042871D01*
X103547693Y-161151638D01*
X103545813Y-161280288D01*
X103544948Y-161419834D01*
X103188150Y-161419834D01*
X103189266Y-161267054D01*
X103191153Y-161069273D01*
X103193334Y-160895458D01*
X103195800Y-160750385D01*
X103198542Y-160638829D01*
X103201551Y-160565567D01*
X103204818Y-160535373D01*
X103204938Y-160535153D01*
X103223396Y-160523045D01*
X103264742Y-160514863D01*
X103334921Y-160510266D01*
X103439876Y-160508912D01*
X103585551Y-160510461D01*
G37*
G36*
X111880994Y-148631666D02*
G01*
X111973832Y-148672228D01*
X112046895Y-148740995D01*
X112066259Y-148772525D01*
X112071547Y-148785913D01*
X112075854Y-148805542D01*
X112079097Y-148833937D01*
X112081181Y-148873631D01*
X112082017Y-148927146D01*
X112081517Y-148997013D01*
X112079588Y-149085757D01*
X112076144Y-149195909D01*
X112071088Y-149329994D01*
X112064337Y-149490538D01*
X112055795Y-149680073D01*
X112045375Y-149901124D01*
X112032989Y-150156214D01*
X112018543Y-150447879D01*
X112001948Y-150778641D01*
X111983115Y-151151030D01*
X111977582Y-151260092D01*
X111961031Y-151586460D01*
X111945134Y-151900605D01*
X111930038Y-152199574D01*
X111915895Y-152480415D01*
X111902846Y-152740180D01*
X111891043Y-152975912D01*
X111880631Y-153184665D01*
X111871761Y-153363484D01*
X111864576Y-153509415D01*
X111859225Y-153619511D01*
X111855857Y-153690818D01*
X111854618Y-153720383D01*
X111854615Y-153720725D01*
X111840275Y-153750620D01*
X111792072Y-153760001D01*
X111789007Y-153760016D01*
X111753089Y-153757772D01*
X111732229Y-153744160D01*
X111720661Y-153708870D01*
X111712628Y-153641592D01*
X111710601Y-153619690D01*
X111707291Y-153572207D01*
X111702206Y-153483986D01*
X111695523Y-153358839D01*
X111687415Y-153200580D01*
X111678060Y-153013017D01*
X111667631Y-152799961D01*
X111656305Y-152565222D01*
X111644256Y-152312611D01*
X111631661Y-152045942D01*
X111618692Y-151769020D01*
X111605529Y-151485660D01*
X111592346Y-151199672D01*
X111579315Y-150914864D01*
X111566616Y-150635051D01*
X111554423Y-150364040D01*
X111542908Y-150105644D01*
X111532251Y-149863676D01*
X111522625Y-149641940D01*
X111514206Y-149444249D01*
X111507168Y-149274418D01*
X111501689Y-149136254D01*
X111497942Y-149033567D01*
X111496103Y-148970171D01*
X111495947Y-148955255D01*
X111500833Y-148870352D01*
X111512537Y-148797018D01*
X111525717Y-148757447D01*
X111590742Y-148682201D01*
X111678758Y-148636355D01*
X111779074Y-148619609D01*
X111880994Y-148631666D01*
G37*
G36*
X112186375Y-145932776D02*
G01*
X112480758Y-145972729D01*
X112539365Y-145982507D01*
X112906446Y-146066496D01*
X113272457Y-146191153D01*
X113629265Y-146352797D01*
X113968742Y-146547752D01*
X114280040Y-146770175D01*
X114405403Y-146875802D01*
X114537879Y-146997598D01*
X114671120Y-147128783D01*
X114798779Y-147262576D01*
X114914505Y-147392203D01*
X115011952Y-147510877D01*
X115084769Y-147611829D01*
X115113525Y-147660167D01*
X115139153Y-147702344D01*
X115154462Y-147720388D01*
X115173190Y-147745718D01*
X115207413Y-147801837D01*
X115252092Y-147879599D01*
X115302178Y-147969860D01*
X115352633Y-148063478D01*
X115398412Y-148151303D01*
X115434474Y-148224197D01*
X115445441Y-148248012D01*
X115552113Y-148517422D01*
X115645157Y-148810663D01*
X115718854Y-149107792D01*
X115762687Y-149353321D01*
X115774728Y-149478890D01*
X115781278Y-149637105D01*
X115782686Y-149817397D01*
X115779299Y-150009188D01*
X115771466Y-150201905D01*
X115759533Y-150384977D01*
X115743851Y-150547826D01*
X115724768Y-150679880D01*
X115717888Y-150714411D01*
X115604938Y-151131191D01*
X115453163Y-151526533D01*
X115263443Y-151898993D01*
X115036652Y-152247128D01*
X114773671Y-152569505D01*
X114475377Y-152864678D01*
X114335539Y-152983639D01*
X114232198Y-153065445D01*
X114123356Y-153148008D01*
X114022936Y-153220951D01*
X113953851Y-153268121D01*
X113701651Y-153414562D01*
X113417994Y-153548966D01*
X113115812Y-153666092D01*
X112808027Y-153760697D01*
X112635410Y-153802459D01*
X112543598Y-153819206D01*
X112424410Y-153836452D01*
X112288632Y-153853109D01*
X112147061Y-153868091D01*
X112010485Y-153880312D01*
X111889696Y-153888687D01*
X111795485Y-153892130D01*
X111753542Y-153891203D01*
X111712576Y-153888261D01*
X111638990Y-153882905D01*
X111544946Y-153876017D01*
X111484115Y-153871547D01*
X111077582Y-153819686D01*
X110683414Y-153726144D01*
X110304124Y-153593051D01*
X109942226Y-153422538D01*
X109600227Y-153216733D01*
X109280642Y-152977766D01*
X108985981Y-152707767D01*
X108718756Y-152408865D01*
X108481478Y-152083189D01*
X108276662Y-151732868D01*
X108106814Y-151360034D01*
X107974448Y-150966817D01*
X107949874Y-150874913D01*
X107917787Y-150741059D01*
X107892044Y-150613099D01*
X107870543Y-150478006D01*
X107851186Y-150322749D01*
X107833939Y-150155813D01*
X107823841Y-149893571D01*
X107948313Y-149893571D01*
X107967149Y-150309362D01*
X108025359Y-150705845D01*
X108124139Y-151087346D01*
X108264688Y-151458189D01*
X108448196Y-151822705D01*
X108511018Y-151930166D01*
X108700625Y-152208125D01*
X108927799Y-152479100D01*
X109185206Y-152736400D01*
X109465505Y-152973330D01*
X109761367Y-153183204D01*
X110065451Y-153359327D01*
X110093721Y-153373671D01*
X110336609Y-153482461D01*
X110604550Y-153579960D01*
X110883280Y-153662060D01*
X111158544Y-153724649D01*
X111416076Y-153763617D01*
X111461663Y-153767997D01*
X111613762Y-153775199D01*
X111795713Y-153774525D01*
X111993315Y-153766775D01*
X112192367Y-153752750D01*
X112378660Y-153733250D01*
X112537995Y-153709074D01*
X112550591Y-153706683D01*
X112948813Y-153607072D01*
X113331511Y-153466536D01*
X113695840Y-153287235D01*
X114038957Y-153071323D01*
X114358025Y-152820953D01*
X114650198Y-152538281D01*
X114912636Y-152225462D01*
X115142497Y-151884650D01*
X115278603Y-151638287D01*
X115375671Y-151425197D01*
X115467211Y-151184033D01*
X115547561Y-150931632D01*
X115611056Y-150684823D01*
X115629921Y-150594262D01*
X115648394Y-150490598D01*
X115661750Y-150393298D01*
X115670721Y-150291779D01*
X115676042Y-150175457D01*
X115678439Y-150033752D01*
X115678727Y-149887021D01*
X115677719Y-149722484D01*
X115674899Y-149592167D01*
X115669402Y-149485397D01*
X115660361Y-149391500D01*
X115646906Y-149299803D01*
X115628172Y-149199632D01*
X115619313Y-149156293D01*
X115515979Y-148755243D01*
X115376240Y-148376528D01*
X115197927Y-148015611D01*
X114978867Y-147667957D01*
X114780737Y-147406057D01*
X114530962Y-147132271D01*
X114248177Y-146882513D01*
X113937947Y-146659615D01*
X113605838Y-146466415D01*
X113257414Y-146305750D01*
X112898242Y-146180452D01*
X112533885Y-146093360D01*
X112169909Y-146047309D01*
X112107160Y-146043703D01*
X111983990Y-146038654D01*
X111899126Y-146037317D01*
X111846089Y-146040073D01*
X111818403Y-146047297D01*
X111809594Y-146059376D01*
X111809498Y-146061176D01*
X111813279Y-146091639D01*
X111823962Y-146159483D01*
X111840404Y-146257913D01*
X111861460Y-146380136D01*
X111885985Y-146519354D01*
X111897994Y-146586552D01*
X111928525Y-146757114D01*
X111960746Y-146937941D01*
X111992278Y-147115631D01*
X112020746Y-147276783D01*
X112043768Y-147407995D01*
X112044990Y-147414993D01*
X112103320Y-147749485D01*
X112332567Y-148177352D01*
X112400409Y-148304182D01*
X112461053Y-148417967D01*
X112511289Y-148512644D01*
X112547906Y-148582157D01*
X112567690Y-148620445D01*
X112570117Y-148625519D01*
X112558646Y-148622826D01*
X112520676Y-148596785D01*
X112464132Y-148552881D01*
X112457855Y-148547795D01*
X112284110Y-148428774D01*
X112104309Y-148351513D01*
X111910587Y-148312899D01*
X111852368Y-148308571D01*
X111635849Y-148316103D01*
X111440964Y-148362161D01*
X111264497Y-148447859D01*
X111110465Y-148567499D01*
X111055813Y-148616735D01*
X111016681Y-148648398D01*
X111001399Y-148655755D01*
X111001394Y-148655622D01*
X111011563Y-148632659D01*
X111040053Y-148576004D01*
X111083837Y-148491473D01*
X111139897Y-148384880D01*
X111205199Y-148262035D01*
X111239537Y-148197894D01*
X111477681Y-147754064D01*
X111532737Y-147439735D01*
X111579384Y-147174169D01*
X111622588Y-146929697D01*
X111661782Y-146709448D01*
X111696401Y-146516555D01*
X111725876Y-146354158D01*
X111749642Y-146225383D01*
X111767132Y-146133367D01*
X111777779Y-146081244D01*
X111779961Y-146072388D01*
X111782823Y-146054744D01*
X111774522Y-146043299D01*
X111748077Y-146037269D01*
X111696506Y-146035873D01*
X111612833Y-146038328D01*
X111514766Y-146042698D01*
X111159730Y-146080465D01*
X110800339Y-146159203D01*
X110442912Y-146276263D01*
X110093767Y-146429004D01*
X109759223Y-146614775D01*
X109445602Y-146830935D01*
X109251176Y-146990693D01*
X108958157Y-147278559D01*
X108697629Y-147595267D01*
X108472241Y-147936819D01*
X108284639Y-148299221D01*
X108142434Y-148663378D01*
X108069185Y-148902065D01*
X108015512Y-149121653D01*
X107979104Y-149336791D01*
X107957650Y-149562134D01*
X107948836Y-149812331D01*
X107948313Y-149893571D01*
X107823841Y-149893571D01*
X107822552Y-149860070D01*
X107841602Y-149542873D01*
X107889170Y-149213897D01*
X107963325Y-148882815D01*
X108062145Y-148559306D01*
X108183706Y-148253039D01*
X108233593Y-148146979D01*
X108436725Y-147783812D01*
X108674635Y-147446254D01*
X108944396Y-147136524D01*
X109243074Y-146856840D01*
X109567742Y-146609426D01*
X109915469Y-146396495D01*
X110283321Y-146220274D01*
X110668370Y-146082977D01*
X111067686Y-145986824D01*
X111091203Y-145982560D01*
X111381433Y-145938672D01*
X111651110Y-145915746D01*
X111914622Y-145913780D01*
X112186375Y-145932776D01*
G37*
D13*
%TO.C,Switch1*%
X99409600Y-89424500D02*
X103289600Y-89424500D01*
X99409600Y-96164500D02*
X99409600Y-89424500D01*
X103889600Y-89424500D02*
X105229600Y-89424500D01*
X105229600Y-89424500D02*
X105229600Y-96164500D01*
X105229600Y-90344500D02*
X99409600Y-90344500D01*
X105229600Y-91344500D02*
X99409600Y-91344500D01*
X105229600Y-94444500D02*
X99409600Y-94444500D01*
X105229600Y-96164500D02*
X99409600Y-96164500D01*
X103589600Y-89424500D02*
X103149600Y-88814500D01*
X104029600Y-88814500D01*
X103589600Y-89424500D01*
G36*
X103589600Y-89424500D02*
G01*
X103149600Y-88814500D01*
X104029600Y-88814500D01*
X103589600Y-89424500D01*
G37*
%TO.C,Switch2*%
X109520000Y-160280000D02*
X115340000Y-160280000D01*
X109520000Y-162000000D02*
X115340000Y-162000000D01*
X109520000Y-165100000D02*
X115340000Y-165100000D01*
X109520000Y-166100000D02*
X115340000Y-166100000D01*
X109520000Y-167020000D02*
X109520000Y-160280000D01*
X110860000Y-167020000D02*
X109520000Y-167020000D01*
X115340000Y-160280000D02*
X115340000Y-167020000D01*
X115340000Y-167020000D02*
X111460000Y-167020000D01*
X111600000Y-167630000D02*
X110720000Y-167630000D01*
X111160000Y-167020000D01*
X111600000Y-167630000D01*
G36*
X111600000Y-167630000D02*
G01*
X110720000Y-167630000D01*
X111160000Y-167020000D01*
X111600000Y-167630000D01*
G37*
%TO.C,R1*%
X116809802Y-127620000D02*
X117117084Y-127620000D01*
X116809802Y-128380000D02*
X117117084Y-128380000D01*
%TO.C,R2*%
X117102792Y-126458990D02*
X116795510Y-126458990D01*
X117102792Y-127218990D02*
X116795510Y-127218990D01*
%TO.C,U2*%
D11*
X103625000Y-98675000D02*
X99625000Y-98675000D01*
X99625000Y-100675000D01*
X103625000Y-100675000D01*
X103625000Y-98675000D01*
X103650000Y-122225000D02*
X99650000Y-122225000D01*
X99650000Y-124225000D01*
X103650000Y-124225000D01*
X103650000Y-122225000D01*
X116600000Y-98700000D02*
X112600000Y-98700000D01*
X112600000Y-100700000D01*
X116600000Y-100700000D01*
X116600000Y-98700000D01*
X116625000Y-122250000D02*
X112625000Y-122250000D01*
X112625000Y-124250000D01*
X116625000Y-124250000D01*
X116625000Y-122250000D01*
D10*
X118100000Y-97754705D02*
X98100000Y-97754705D01*
X98100000Y-125059705D01*
X118100000Y-125059705D01*
X118100000Y-97754705D01*
D13*
%TO.C,KEY1*%
X98830000Y-145885000D02*
X105570000Y-145885000D01*
X98830000Y-147225000D02*
X98830000Y-145885000D01*
X98830000Y-151705000D02*
X98830000Y-147825000D01*
X99750000Y-145885000D02*
X99750000Y-151705000D01*
X100750000Y-145885000D02*
X100750000Y-151705000D01*
X103850000Y-145885000D02*
X103850000Y-151705000D01*
X105570000Y-145885000D02*
X105570000Y-151705000D01*
X105570000Y-151705000D02*
X98830000Y-151705000D01*
X98830000Y-147525000D02*
X98220000Y-147965000D01*
X98220000Y-147085000D01*
X98830000Y-147525000D01*
G36*
X98830000Y-147525000D02*
G01*
X98220000Y-147965000D01*
X98220000Y-147085000D01*
X98830000Y-147525000D01*
G37*
%TO.C,J2*%
X98880000Y-134660000D02*
X105620000Y-134660000D01*
X98880000Y-136000000D02*
X98880000Y-134660000D01*
X98880000Y-140480000D02*
X98880000Y-136600000D01*
X99800000Y-134660000D02*
X99800000Y-140480000D01*
X100800000Y-134660000D02*
X100800000Y-140480000D01*
X103900000Y-134660000D02*
X103900000Y-140480000D01*
X105620000Y-134660000D02*
X105620000Y-140480000D01*
X105620000Y-140480000D02*
X98880000Y-140480000D01*
X98880000Y-136300000D02*
X98270000Y-136740000D01*
X98270000Y-135860000D01*
X98880000Y-136300000D01*
G36*
X98880000Y-136300000D02*
G01*
X98270000Y-136740000D01*
X98270000Y-135860000D01*
X98880000Y-136300000D01*
G37*
%TO.C,PILHAS1*%
X111295000Y-89462500D02*
X115175000Y-89462500D01*
X111295000Y-96202500D02*
X111295000Y-89462500D01*
X115775000Y-89462500D02*
X117115000Y-89462500D01*
X117115000Y-89462500D02*
X117115000Y-96202500D01*
X117115000Y-90382500D02*
X111295000Y-90382500D01*
X117115000Y-91382500D02*
X111295000Y-91382500D01*
X117115000Y-94482500D02*
X111295000Y-94482500D01*
X117115000Y-96202500D02*
X111295000Y-96202500D01*
X115475000Y-89462500D02*
X115035000Y-88852500D01*
X115915000Y-88852500D01*
X115475000Y-89462500D01*
G36*
X115475000Y-89462500D02*
G01*
X115035000Y-88852500D01*
X115915000Y-88852500D01*
X115475000Y-89462500D01*
G37*
%TO.C,R3*%
X109093641Y-128570000D02*
X108786359Y-128570000D01*
X109093641Y-129330000D02*
X108786359Y-129330000D01*
%TO.C,R5*%
X110060000Y-128643641D02*
X110060000Y-128336359D01*
X110820000Y-128643641D02*
X110820000Y-128336359D01*
%TO.C,A1*%
X119500000Y-91360000D02*
X119020000Y-91360000D01*
X119500000Y-91360000D02*
X119500000Y-91780000D01*
X119500000Y-93900000D02*
X119500000Y-94320000D01*
X119500000Y-96440000D02*
X119500000Y-96860000D01*
X119500000Y-98980000D02*
X119500000Y-99400000D01*
X119500000Y-101520000D02*
X119500000Y-101940000D01*
X119500000Y-104060000D02*
X119500000Y-104480000D01*
X119500000Y-106600000D02*
X119500000Y-107020000D01*
X119500000Y-109140000D02*
X119500000Y-109560000D01*
X119500000Y-111680000D02*
X119500000Y-112100000D01*
X119500000Y-114220000D02*
X119500000Y-114640000D01*
X119500000Y-116760000D02*
X119500000Y-117180000D01*
X119500000Y-119300000D02*
X119500000Y-119720000D01*
X119500000Y-121840000D02*
X119500000Y-122260000D01*
X119500000Y-124380000D02*
X119500000Y-124800000D01*
X119500000Y-126920000D02*
X119500000Y-127340000D01*
X119500000Y-129460000D02*
X119500000Y-129880000D01*
X119500000Y-132000000D02*
X119500000Y-132420000D01*
X119500000Y-134540000D02*
X119500000Y-134960000D01*
X119500000Y-137080000D02*
X119500000Y-137500000D01*
X119530324Y-89240000D02*
X119020000Y-89240000D01*
X119840000Y-89240063D02*
X119840000Y-88883000D01*
X119840000Y-91360000D02*
X119840000Y-91780000D01*
X119840000Y-93900000D02*
X119840000Y-94320000D01*
X119840000Y-96440000D02*
X119840000Y-96860000D01*
X119840000Y-98980000D02*
X119840000Y-99400000D01*
X119840000Y-101520000D02*
X119840000Y-101940000D01*
X119840000Y-104060000D02*
X119840000Y-104480000D01*
X119840000Y-106600000D02*
X119840000Y-107020000D01*
X119840000Y-109140000D02*
X119840000Y-109560000D01*
X119840000Y-111680000D02*
X119840000Y-112100000D01*
X119840000Y-114220000D02*
X119840000Y-114640000D01*
X119840000Y-116760000D02*
X119840000Y-117180000D01*
X119840000Y-119300000D02*
X119840000Y-119720000D01*
X119840000Y-121840000D02*
X119840000Y-122260000D01*
X119840000Y-124380000D02*
X119840000Y-124800000D01*
X119840000Y-126920000D02*
X119840000Y-127340000D01*
X119840000Y-129460000D02*
X119840000Y-129880000D01*
X119840000Y-132000000D02*
X119840000Y-132420000D01*
X119840000Y-134540000D02*
X119840000Y-134960000D01*
X119840000Y-137080000D02*
X119840000Y-137500000D01*
X119840000Y-139619937D02*
X119840000Y-139977000D01*
X120110000Y-88820000D02*
X122600000Y-88820000D01*
X120110000Y-140040000D02*
X123947939Y-140040000D01*
X122600000Y-88820000D02*
X122600000Y-89733520D01*
X122600000Y-88820000D02*
X123947940Y-88820000D01*
X122600000Y-92126480D02*
X122600000Y-136733520D01*
X122600000Y-139126480D02*
X122600000Y-140040000D01*
X124872061Y-88820000D02*
X125875000Y-88820000D01*
X125875000Y-88820000D02*
X134345000Y-88820000D01*
X126210000Y-88820000D02*
X126210000Y-89736000D01*
X126210000Y-92124000D02*
X126210000Y-93340000D01*
X126210000Y-93340000D02*
X126506090Y-93340000D01*
X126510000Y-140040000D02*
X124872061Y-140040000D01*
X128863910Y-93340000D02*
X131356090Y-93340000D01*
X133713910Y-93340000D02*
X134010000Y-93340000D01*
X134010000Y-88820000D02*
X134010000Y-89736000D01*
X134010000Y-92124000D02*
X134010000Y-93340000D01*
X134345000Y-88820000D02*
X135347939Y-88820000D01*
X135347939Y-140040000D02*
X133710000Y-140040000D01*
X136272061Y-88820000D02*
X137620000Y-88820000D01*
X136272061Y-140040000D02*
X140110000Y-140040000D01*
X137620000Y-88820000D02*
X137620000Y-89733520D01*
X137620000Y-92126480D02*
X137620000Y-136733520D01*
X137620000Y-139126480D02*
X137620000Y-140040000D01*
X140110000Y-88820000D02*
X137620000Y-88820000D01*
X140380000Y-89240063D02*
X140380000Y-88883000D01*
X140380000Y-91360000D02*
X140380000Y-91780000D01*
X140380000Y-93900000D02*
X140380000Y-94320000D01*
X140380000Y-96440000D02*
X140380000Y-96860000D01*
X140380000Y-98980000D02*
X140380000Y-99400000D01*
X140380000Y-101520000D02*
X140380000Y-101940000D01*
X140380000Y-104060000D02*
X140380000Y-104480000D01*
X140380000Y-106600000D02*
X140380000Y-107020000D01*
X140380000Y-109140000D02*
X140380000Y-109560000D01*
X140380000Y-111680000D02*
X140380000Y-112100000D01*
X140380000Y-114220000D02*
X140380000Y-114640000D01*
X140380000Y-116760000D02*
X140380000Y-117180000D01*
X140380000Y-119300000D02*
X140380000Y-119720000D01*
X140380000Y-121840000D02*
X140380000Y-122260000D01*
X140380000Y-124380000D02*
X140380000Y-124800000D01*
X140380000Y-126920000D02*
X140380000Y-127340000D01*
X140380000Y-129460000D02*
X140380000Y-129880000D01*
X140380000Y-132000000D02*
X140380000Y-132420000D01*
X140380000Y-134540000D02*
X140380000Y-134960000D01*
X140380000Y-137080000D02*
X140380000Y-137500000D01*
X140380000Y-139619937D02*
X140380000Y-139977000D01*
X140720000Y-91360000D02*
X140720000Y-91780000D01*
X140720000Y-93900000D02*
X140720000Y-94320000D01*
X140720000Y-96440000D02*
X140720000Y-96860000D01*
X140720000Y-98980000D02*
X140720000Y-99400000D01*
X140720000Y-101520000D02*
X140720000Y-101940000D01*
X140720000Y-104060000D02*
X140720000Y-104480000D01*
X140720000Y-106600000D02*
X140720000Y-107020000D01*
X140720000Y-109140000D02*
X140720000Y-109560000D01*
X140720000Y-111680000D02*
X140720000Y-112100000D01*
X140720000Y-114220000D02*
X140720000Y-114640000D01*
X140720000Y-116760000D02*
X140720000Y-117180000D01*
X140720000Y-119300000D02*
X140720000Y-119720000D01*
X140720000Y-121840000D02*
X140720000Y-122260000D01*
X140720000Y-124380000D02*
X140720000Y-124800000D01*
X140720000Y-126920000D02*
X140720000Y-127340000D01*
X140720000Y-129460000D02*
X140720000Y-129880000D01*
X140720000Y-132000000D02*
X140720000Y-132420000D01*
X140720000Y-134540000D02*
X140720000Y-134960000D01*
X140720000Y-137080000D02*
X140720000Y-137500000D01*
X119530324Y-89240000D02*
G75*
G02*
X120110000Y-88820000I579692J-190051D01*
G01*
X140110000Y-88820000D02*
G75*
G02*
X140689676Y-89240063I0J-610000D01*
G01*
D16*
%TO.C,U3*%
X107333000Y-132867800D02*
X107333000Y-140132200D01*
X107333000Y-140132200D02*
X107727099Y-140132200D01*
X107727099Y-132867800D02*
X107333000Y-132867800D01*
X109732901Y-140132200D02*
X110267099Y-140132200D01*
X110267099Y-132867800D02*
X109732901Y-132867800D01*
X112272901Y-140132200D02*
X112667000Y-140132200D01*
X112667000Y-132867800D02*
X112272901Y-132867800D01*
X112667000Y-140132200D02*
X112667000Y-132867800D01*
D13*
%TO.C,Switch3*%
X98880000Y-127085000D02*
X105620000Y-127085000D01*
X98880000Y-128425000D02*
X98880000Y-127085000D01*
X98880000Y-132905000D02*
X98880000Y-129025000D01*
X99800000Y-127085000D02*
X99800000Y-132905000D01*
X100800000Y-127085000D02*
X100800000Y-132905000D01*
X103900000Y-127085000D02*
X103900000Y-132905000D01*
X105620000Y-127085000D02*
X105620000Y-132905000D01*
X105620000Y-132905000D02*
X98880000Y-132905000D01*
X98880000Y-128725000D02*
X98270000Y-129165000D01*
X98270000Y-128285000D01*
X98880000Y-128725000D01*
G36*
X98880000Y-128725000D02*
G01*
X98270000Y-129165000D01*
X98270000Y-128285000D01*
X98880000Y-128725000D01*
G37*
%TO.C,C7*%
X96876761Y-122270362D02*
X96876761Y-122054690D01*
X97596761Y-122270362D02*
X97596761Y-122054690D01*
%TD*%
M02*
