%TF.GenerationSoftware,KiCad,Pcbnew,9.0.7-9.0.7~ubuntu24.04.1*%
%TF.CreationDate,2026-01-14T12:58:48+00:00*%
%TF.ProjectId,LIFT,4c494654-2e6b-4696-9361-645f70636258,rev?*%
%TF.SameCoordinates,Original*%
%TF.FileFunction,Soldermask,Bot*%
%TF.FilePolarity,Negative*%
%FSLAX46Y46*%
G04 Gerber Fmt 4.6, Leading zero omitted, Abs format (unit mm)*
G04 Created by KiCad (PCBNEW 9.0.7-9.0.7~ubuntu24.04.1) date 2026-01-14 12:58:48*
%MOMM*%
%LPD*%
G01*
G04 APERTURE LIST*
G04 Aperture macros list*
%AMRoundRect*
0 Rectangle with rounded corners*
0 $1 Rounding radius*
0 $2 $3 $4 $5 $6 $7 $8 $9 X,Y pos of 4 corners*
0 Add a 4 corners polygon primitive as box body*
4,1,4,$2,$3,$4,$5,$6,$7,$8,$9,$2,$3,0*
0 Add four circle primitives for the rounded corners*
1,1,$1+$1,$2,$3*
1,1,$1+$1,$4,$5*
1,1,$1+$1,$6,$7*
1,1,$1+$1,$8,$9*
0 Add four rect primitives between the rounded corners*
20,1,$1+$1,$2,$3,$4,$5,0*
20,1,$1+$1,$4,$5,$6,$7,0*
20,1,$1+$1,$6,$7,$8,$9,0*
20,1,$1+$1,$8,$9,$2,$3,0*%
%AMFreePoly0*
4,1,37,0.603843,0.796157,0.639018,0.796157,0.711114,0.766294,0.766294,0.711114,0.796157,0.639018,0.796157,0.603843,0.800000,0.600000,0.800000,-0.600000,0.796157,-0.603843,0.796157,-0.639018,0.766294,-0.711114,0.711114,-0.766294,0.639018,-0.796157,0.603843,-0.796157,0.600000,-0.800000,0.000000,-0.800000,0.000000,-0.796148,-0.078414,-0.796148,-0.232228,-0.765552,-0.377117,-0.705537,
-0.507515,-0.618408,-0.618408,-0.507515,-0.705537,-0.377117,-0.765552,-0.232228,-0.796148,-0.078414,-0.796148,0.078414,-0.765552,0.232228,-0.705537,0.377117,-0.618408,0.507515,-0.507515,0.618408,-0.377117,0.705537,-0.232228,0.765552,-0.078414,0.796148,0.000000,0.796148,0.000000,0.800000,0.600000,0.800000,0.603843,0.796157,0.603843,0.796157,$1*%
%AMFreePoly1*
4,1,37,0.000000,0.796148,0.078414,0.796148,0.232228,0.765552,0.377117,0.705537,0.507515,0.618408,0.618408,0.507515,0.705537,0.377117,0.765552,0.232228,0.796148,0.078414,0.796148,-0.078414,0.765552,-0.232228,0.705537,-0.377117,0.618408,-0.507515,0.507515,-0.618408,0.377117,-0.705537,0.232228,-0.765552,0.078414,-0.796148,0.000000,-0.796148,0.000000,-0.800000,-0.600000,-0.800000,
-0.603843,-0.796157,-0.639018,-0.796157,-0.711114,-0.766294,-0.766294,-0.711114,-0.796157,-0.639018,-0.796157,-0.603843,-0.800000,-0.600000,-0.800000,0.600000,-0.796157,0.603843,-0.796157,0.639018,-0.766294,0.711114,-0.711114,0.766294,-0.639018,0.796157,-0.603843,0.796157,-0.600000,0.800000,0.000000,0.800000,0.000000,0.796148,0.000000,0.796148,$1*%
G04 Aperture macros list end*
%ADD10R,1.540000X2.540000*%
%ADD11C,1.600200*%
%ADD12C,2.250000*%
%ADD13C,2.540000*%
%ADD14C,3.200000*%
%ADD15RoundRect,0.102000X0.765000X0.765000X-0.765000X0.765000X-0.765000X-0.765000X0.765000X-0.765000X0*%
%ADD16C,1.734000*%
%ADD17RoundRect,0.200000X-0.600000X0.600000X-0.600000X-0.600000X0.600000X-0.600000X0.600000X0.600000X0*%
%ADD18C,1.600000*%
%ADD19FreePoly0,270.000000*%
%ADD20FreePoly1,270.000000*%
%ADD21C,2.500000*%
G04 APERTURE END LIST*
D10*
%TO.C,U5*%
X165400000Y-44840000D03*
X167940000Y-44840000D03*
X170480000Y-44840000D03*
X173020000Y-44840000D03*
X175560000Y-44840000D03*
X178100000Y-44840000D03*
X167940000Y-65160000D03*
X170480000Y-65160000D03*
X173020000Y-65160000D03*
X175560000Y-65160000D03*
%TD*%
%TO.C,U1*%
X127400000Y-44840000D03*
X129940000Y-44840000D03*
X132480000Y-44840000D03*
X135020000Y-44840000D03*
X137560000Y-44840000D03*
X140100000Y-44840000D03*
X129940000Y-65160000D03*
X132480000Y-65160000D03*
X135020000Y-65160000D03*
X137560000Y-65160000D03*
%TD*%
D11*
%TO.C,J7*%
X175144500Y-116910400D03*
X175144500Y-120410402D03*
%TD*%
D12*
%TO.C,U7*%
X169100000Y-149000000D03*
X169100000Y-146350000D03*
X169100000Y-143700000D03*
X169100000Y-141100000D03*
X169100000Y-138350000D03*
X169100000Y-135700000D03*
X169100000Y-132950000D03*
X169100000Y-130350000D03*
%TD*%
D13*
%TO.C,U2*%
X126975000Y-111615000D03*
X130785000Y-111615000D03*
X134595000Y-111615000D03*
X138405000Y-111615000D03*
X142215000Y-111615000D03*
X146025000Y-111615000D03*
%TD*%
D11*
%TO.C,J3*%
X147499999Y-38000000D03*
X151000000Y-38000000D03*
X154500000Y-38000000D03*
X158000001Y-38000000D03*
%TD*%
D14*
%TO.C,H4*%
X119000000Y-40000000D03*
%TD*%
%TO.C,H3*%
X187000000Y-39750000D03*
%TD*%
D11*
%TO.C,J8*%
X175250000Y-96000000D03*
X175250000Y-99500002D03*
%TD*%
D10*
%TO.C,U4*%
X146400000Y-44840000D03*
X148940000Y-44840000D03*
X151480000Y-44840000D03*
X154020000Y-44840000D03*
X156560000Y-44840000D03*
X159100000Y-44840000D03*
X148940000Y-65160000D03*
X151480000Y-65160000D03*
X154020000Y-65160000D03*
X156560000Y-65160000D03*
%TD*%
D15*
%TO.C,U3*%
X168210000Y-101535000D03*
D16*
X168210000Y-98995000D03*
X168210000Y-96455000D03*
X168210000Y-93915000D03*
X126990000Y-93915000D03*
X126990000Y-96455000D03*
X126990000Y-98995000D03*
X126990000Y-101535000D03*
%TD*%
D11*
%TO.C,J9*%
X175144500Y-104910400D03*
X175144500Y-108410402D03*
%TD*%
D14*
%TO.C,H1*%
X187250000Y-146500000D03*
%TD*%
D11*
%TO.C,J4*%
X128749999Y-38000000D03*
X132250000Y-38000000D03*
X135750000Y-38000000D03*
X139250001Y-38000000D03*
%TD*%
%TO.C,J2*%
X166910400Y-38105500D03*
X170410401Y-38105500D03*
X173910401Y-38105500D03*
X177410402Y-38105500D03*
%TD*%
D17*
%TO.C,A1*%
X178270000Y-70195000D03*
D18*
X175730000Y-70195000D03*
D19*
X173190000Y-70195000D03*
D18*
X170650000Y-70195000D03*
X168110000Y-70195000D03*
X165570000Y-70195000D03*
X163030000Y-70195000D03*
D19*
X160490000Y-70195000D03*
D18*
X157950000Y-70195000D03*
X155410000Y-70195000D03*
X152870000Y-70195000D03*
X150330000Y-70195000D03*
D19*
X147790000Y-70195000D03*
D18*
X145250000Y-70195000D03*
X142710000Y-70195000D03*
X140170000Y-70195000D03*
X137630000Y-70195000D03*
D19*
X135090000Y-70195000D03*
D18*
X132550000Y-70195000D03*
X130010000Y-70195000D03*
X130010000Y-87975000D03*
X132550000Y-87975000D03*
D20*
X135090000Y-87975000D03*
D18*
X137630000Y-87975000D03*
X140170000Y-87975000D03*
X142710000Y-87975000D03*
X145250000Y-87975000D03*
D20*
X147790000Y-87975000D03*
D18*
X150330000Y-87975000D03*
X152870000Y-87975000D03*
X155410000Y-87975000D03*
X157950000Y-87975000D03*
D20*
X160490000Y-87975000D03*
D18*
X163030000Y-87975000D03*
X165570000Y-87975000D03*
X168110000Y-87975000D03*
X170650000Y-87975000D03*
D20*
X173190000Y-87975000D03*
D18*
X175730000Y-87975000D03*
X178270000Y-87975000D03*
%TD*%
D21*
%TO.C,U6*%
X169500000Y-107000000D03*
X169500000Y-121000000D03*
X150500000Y-107000000D03*
X150500000Y-121000000D03*
%TD*%
D14*
%TO.C,H5*%
X119000000Y-146500000D03*
%TD*%
M02*
