%TF.GenerationSoftware,KiCad,Pcbnew,9.0.7-9.0.7~ubuntu24.04.1*%
%TF.CreationDate,2026-01-14T12:58:48+00:00*%
%TF.ProjectId,LIFT,4c494654-2e6b-4696-9361-645f70636258,rev?*%
%TF.SameCoordinates,Original*%
%TF.FileFunction,Legend,Top*%
%TF.FilePolarity,Positive*%
%FSLAX46Y46*%
G04 Gerber Fmt 4.6, Leading zero omitted, Abs format (unit mm)*
G04 Created by KiCad (PCBNEW 9.0.7-9.0.7~ubuntu24.04.1) date 2026-01-14 12:58:48*
%MOMM*%
%LPD*%
G01*
G04 APERTURE LIST*
%ADD10C,0.150000*%
%ADD11C,0.187500*%
%ADD12C,0.200000*%
%ADD13C,0.100000*%
%ADD14C,0.152400*%
%ADD15C,0.508000*%
%ADD16C,0.127000*%
%ADD17C,0.120000*%
G04 APERTURE END LIST*
D10*
X179889411Y-32582561D02*
X179984649Y-32630180D01*
X179984649Y-32630180D02*
X180127506Y-32630180D01*
X180127506Y-32630180D02*
X180270363Y-32582561D01*
X180270363Y-32582561D02*
X180365601Y-32487323D01*
X180365601Y-32487323D02*
X180413220Y-32392085D01*
X180413220Y-32392085D02*
X180460839Y-32201609D01*
X180460839Y-32201609D02*
X180460839Y-32058752D01*
X180460839Y-32058752D02*
X180413220Y-31868276D01*
X180413220Y-31868276D02*
X180365601Y-31773038D01*
X180365601Y-31773038D02*
X180270363Y-31677800D01*
X180270363Y-31677800D02*
X180127506Y-31630180D01*
X180127506Y-31630180D02*
X180032268Y-31630180D01*
X180032268Y-31630180D02*
X179889411Y-31677800D01*
X179889411Y-31677800D02*
X179841792Y-31725419D01*
X179841792Y-31725419D02*
X179841792Y-32058752D01*
X179841792Y-32058752D02*
X180032268Y-32058752D01*
X179413220Y-31630180D02*
X179413220Y-32296847D01*
X179413220Y-32106371D02*
X179365601Y-32201609D01*
X179365601Y-32201609D02*
X179317982Y-32249228D01*
X179317982Y-32249228D02*
X179222744Y-32296847D01*
X179222744Y-32296847D02*
X179127506Y-32296847D01*
X178413220Y-31677800D02*
X178508458Y-31630180D01*
X178508458Y-31630180D02*
X178698934Y-31630180D01*
X178698934Y-31630180D02*
X178794172Y-31677800D01*
X178794172Y-31677800D02*
X178841791Y-31773038D01*
X178841791Y-31773038D02*
X178841791Y-32153990D01*
X178841791Y-32153990D02*
X178794172Y-32249228D01*
X178794172Y-32249228D02*
X178698934Y-32296847D01*
X178698934Y-32296847D02*
X178508458Y-32296847D01*
X178508458Y-32296847D02*
X178413220Y-32249228D01*
X178413220Y-32249228D02*
X178365601Y-32153990D01*
X178365601Y-32153990D02*
X178365601Y-32058752D01*
X178365601Y-32058752D02*
X178841791Y-31963514D01*
X177556077Y-31677800D02*
X177651315Y-31630180D01*
X177651315Y-31630180D02*
X177841791Y-31630180D01*
X177841791Y-31630180D02*
X177937029Y-31677800D01*
X177937029Y-31677800D02*
X177984648Y-31773038D01*
X177984648Y-31773038D02*
X177984648Y-32153990D01*
X177984648Y-32153990D02*
X177937029Y-32249228D01*
X177937029Y-32249228D02*
X177841791Y-32296847D01*
X177841791Y-32296847D02*
X177651315Y-32296847D01*
X177651315Y-32296847D02*
X177556077Y-32249228D01*
X177556077Y-32249228D02*
X177508458Y-32153990D01*
X177508458Y-32153990D02*
X177508458Y-32058752D01*
X177508458Y-32058752D02*
X177984648Y-31963514D01*
X177079886Y-32296847D02*
X177079886Y-31630180D01*
X177079886Y-32201609D02*
X177032267Y-32249228D01*
X177032267Y-32249228D02*
X176937029Y-32296847D01*
X176937029Y-32296847D02*
X176794172Y-32296847D01*
X176794172Y-32296847D02*
X176698934Y-32249228D01*
X176698934Y-32249228D02*
X176651315Y-32153990D01*
X176651315Y-32153990D02*
X176651315Y-31630180D01*
X175508457Y-32630180D02*
X175270362Y-31630180D01*
X175270362Y-31630180D02*
X175079886Y-32344466D01*
X175079886Y-32344466D02*
X174889410Y-31630180D01*
X174889410Y-31630180D02*
X174651315Y-32630180D01*
X174270362Y-31630180D02*
X174270362Y-32630180D01*
X173841791Y-31630180D02*
X173841791Y-32153990D01*
X173841791Y-32153990D02*
X173889410Y-32249228D01*
X173889410Y-32249228D02*
X173984648Y-32296847D01*
X173984648Y-32296847D02*
X174127505Y-32296847D01*
X174127505Y-32296847D02*
X174222743Y-32249228D01*
X174222743Y-32249228D02*
X174270362Y-32201609D01*
X173365600Y-31630180D02*
X173365600Y-32296847D01*
X173365600Y-32630180D02*
X173413219Y-32582561D01*
X173413219Y-32582561D02*
X173365600Y-32534942D01*
X173365600Y-32534942D02*
X173317981Y-32582561D01*
X173317981Y-32582561D02*
X173365600Y-32630180D01*
X173365600Y-32630180D02*
X173365600Y-32534942D01*
X173032267Y-32296847D02*
X172651315Y-32296847D01*
X172889410Y-32630180D02*
X172889410Y-31773038D01*
X172889410Y-31773038D02*
X172841791Y-31677800D01*
X172841791Y-31677800D02*
X172746553Y-31630180D01*
X172746553Y-31630180D02*
X172651315Y-31630180D01*
X171937029Y-31677800D02*
X172032267Y-31630180D01*
X172032267Y-31630180D02*
X172222743Y-31630180D01*
X172222743Y-31630180D02*
X172317981Y-31677800D01*
X172317981Y-31677800D02*
X172365600Y-31773038D01*
X172365600Y-31773038D02*
X172365600Y-32153990D01*
X172365600Y-32153990D02*
X172317981Y-32249228D01*
X172317981Y-32249228D02*
X172222743Y-32296847D01*
X172222743Y-32296847D02*
X172032267Y-32296847D01*
X172032267Y-32296847D02*
X171937029Y-32249228D01*
X171937029Y-32249228D02*
X171889410Y-32153990D01*
X171889410Y-32153990D02*
X171889410Y-32058752D01*
X171889410Y-32058752D02*
X172365600Y-31963514D01*
X170365600Y-32153990D02*
X170222743Y-32106371D01*
X170222743Y-32106371D02*
X170175124Y-32058752D01*
X170175124Y-32058752D02*
X170127505Y-31963514D01*
X170127505Y-31963514D02*
X170127505Y-31820657D01*
X170127505Y-31820657D02*
X170175124Y-31725419D01*
X170175124Y-31725419D02*
X170222743Y-31677800D01*
X170222743Y-31677800D02*
X170317981Y-31630180D01*
X170317981Y-31630180D02*
X170698933Y-31630180D01*
X170698933Y-31630180D02*
X170698933Y-32630180D01*
X170698933Y-32630180D02*
X170365600Y-32630180D01*
X170365600Y-32630180D02*
X170270362Y-32582561D01*
X170270362Y-32582561D02*
X170222743Y-32534942D01*
X170222743Y-32534942D02*
X170175124Y-32439704D01*
X170175124Y-32439704D02*
X170175124Y-32344466D01*
X170175124Y-32344466D02*
X170222743Y-32249228D01*
X170222743Y-32249228D02*
X170270362Y-32201609D01*
X170270362Y-32201609D02*
X170365600Y-32153990D01*
X170365600Y-32153990D02*
X170698933Y-32153990D01*
X169556076Y-31630180D02*
X169651314Y-31677800D01*
X169651314Y-31677800D02*
X169698933Y-31773038D01*
X169698933Y-31773038D02*
X169698933Y-32630180D01*
X168746552Y-31630180D02*
X168746552Y-32153990D01*
X168746552Y-32153990D02*
X168794171Y-32249228D01*
X168794171Y-32249228D02*
X168889409Y-32296847D01*
X168889409Y-32296847D02*
X169079885Y-32296847D01*
X169079885Y-32296847D02*
X169175123Y-32249228D01*
X168746552Y-31677800D02*
X168841790Y-31630180D01*
X168841790Y-31630180D02*
X169079885Y-31630180D01*
X169079885Y-31630180D02*
X169175123Y-31677800D01*
X169175123Y-31677800D02*
X169222742Y-31773038D01*
X169222742Y-31773038D02*
X169222742Y-31868276D01*
X169222742Y-31868276D02*
X169175123Y-31963514D01*
X169175123Y-31963514D02*
X169079885Y-32011133D01*
X169079885Y-32011133D02*
X168841790Y-32011133D01*
X168841790Y-32011133D02*
X168746552Y-32058752D01*
X167841790Y-31677800D02*
X167937028Y-31630180D01*
X167937028Y-31630180D02*
X168127504Y-31630180D01*
X168127504Y-31630180D02*
X168222742Y-31677800D01*
X168222742Y-31677800D02*
X168270361Y-31725419D01*
X168270361Y-31725419D02*
X168317980Y-31820657D01*
X168317980Y-31820657D02*
X168317980Y-32106371D01*
X168317980Y-32106371D02*
X168270361Y-32201609D01*
X168270361Y-32201609D02*
X168222742Y-32249228D01*
X168222742Y-32249228D02*
X168127504Y-32296847D01*
X168127504Y-32296847D02*
X167937028Y-32296847D01*
X167937028Y-32296847D02*
X167841790Y-32249228D01*
X167413218Y-31630180D02*
X167413218Y-32630180D01*
X167317980Y-32011133D02*
X167032266Y-31630180D01*
X167032266Y-32296847D02*
X167413218Y-31915895D01*
X165270361Y-31630180D02*
X165603694Y-32106371D01*
X165841789Y-31630180D02*
X165841789Y-32630180D01*
X165841789Y-32630180D02*
X165460837Y-32630180D01*
X165460837Y-32630180D02*
X165365599Y-32582561D01*
X165365599Y-32582561D02*
X165317980Y-32534942D01*
X165317980Y-32534942D02*
X165270361Y-32439704D01*
X165270361Y-32439704D02*
X165270361Y-32296847D01*
X165270361Y-32296847D02*
X165317980Y-32201609D01*
X165317980Y-32201609D02*
X165365599Y-32153990D01*
X165365599Y-32153990D02*
X165460837Y-32106371D01*
X165460837Y-32106371D02*
X165841789Y-32106371D01*
X164460837Y-31677800D02*
X164556075Y-31630180D01*
X164556075Y-31630180D02*
X164746551Y-31630180D01*
X164746551Y-31630180D02*
X164841789Y-31677800D01*
X164841789Y-31677800D02*
X164889408Y-31773038D01*
X164889408Y-31773038D02*
X164889408Y-32153990D01*
X164889408Y-32153990D02*
X164841789Y-32249228D01*
X164841789Y-32249228D02*
X164746551Y-32296847D01*
X164746551Y-32296847D02*
X164556075Y-32296847D01*
X164556075Y-32296847D02*
X164460837Y-32249228D01*
X164460837Y-32249228D02*
X164413218Y-32153990D01*
X164413218Y-32153990D02*
X164413218Y-32058752D01*
X164413218Y-32058752D02*
X164889408Y-31963514D01*
X163556075Y-31630180D02*
X163556075Y-32630180D01*
X163556075Y-31677800D02*
X163651313Y-31630180D01*
X163651313Y-31630180D02*
X163841789Y-31630180D01*
X163841789Y-31630180D02*
X163937027Y-31677800D01*
X163937027Y-31677800D02*
X163984646Y-31725419D01*
X163984646Y-31725419D02*
X164032265Y-31820657D01*
X164032265Y-31820657D02*
X164032265Y-32106371D01*
X164032265Y-32106371D02*
X163984646Y-32201609D01*
X163984646Y-32201609D02*
X163937027Y-32249228D01*
X163937027Y-32249228D02*
X163841789Y-32296847D01*
X163841789Y-32296847D02*
X163651313Y-32296847D01*
X163651313Y-32296847D02*
X163556075Y-32249228D01*
D11*
X181306678Y-111662359D02*
X180592392Y-112162359D01*
X181306678Y-112519502D02*
X179806678Y-112519502D01*
X179806678Y-112519502D02*
X179806678Y-111948073D01*
X179806678Y-111948073D02*
X179878107Y-111805216D01*
X179878107Y-111805216D02*
X179949535Y-111733787D01*
X179949535Y-111733787D02*
X180092392Y-111662359D01*
X180092392Y-111662359D02*
X180306678Y-111662359D01*
X180306678Y-111662359D02*
X180449535Y-111733787D01*
X180449535Y-111733787D02*
X180520964Y-111805216D01*
X180520964Y-111805216D02*
X180592392Y-111948073D01*
X180592392Y-111948073D02*
X180592392Y-112519502D01*
X181235250Y-111090930D02*
X181306678Y-110876645D01*
X181306678Y-110876645D02*
X181306678Y-110519502D01*
X181306678Y-110519502D02*
X181235250Y-110376645D01*
X181235250Y-110376645D02*
X181163821Y-110305216D01*
X181163821Y-110305216D02*
X181020964Y-110233787D01*
X181020964Y-110233787D02*
X180878107Y-110233787D01*
X180878107Y-110233787D02*
X180735250Y-110305216D01*
X180735250Y-110305216D02*
X180663821Y-110376645D01*
X180663821Y-110376645D02*
X180592392Y-110519502D01*
X180592392Y-110519502D02*
X180520964Y-110805216D01*
X180520964Y-110805216D02*
X180449535Y-110948073D01*
X180449535Y-110948073D02*
X180378107Y-111019502D01*
X180378107Y-111019502D02*
X180235250Y-111090930D01*
X180235250Y-111090930D02*
X180092392Y-111090930D01*
X180092392Y-111090930D02*
X179949535Y-111019502D01*
X179949535Y-111019502D02*
X179878107Y-110948073D01*
X179878107Y-110948073D02*
X179806678Y-110805216D01*
X179806678Y-110805216D02*
X179806678Y-110448073D01*
X179806678Y-110448073D02*
X179878107Y-110233787D01*
X180735250Y-109590931D02*
X180735250Y-108448074D01*
X181306678Y-109019502D02*
X180163821Y-109019502D01*
X181306678Y-105733788D02*
X180592392Y-106233788D01*
X181306678Y-106590931D02*
X179806678Y-106590931D01*
X179806678Y-106590931D02*
X179806678Y-106019502D01*
X179806678Y-106019502D02*
X179878107Y-105876645D01*
X179878107Y-105876645D02*
X179949535Y-105805216D01*
X179949535Y-105805216D02*
X180092392Y-105733788D01*
X180092392Y-105733788D02*
X180306678Y-105733788D01*
X180306678Y-105733788D02*
X180449535Y-105805216D01*
X180449535Y-105805216D02*
X180520964Y-105876645D01*
X180520964Y-105876645D02*
X180592392Y-106019502D01*
X180592392Y-106019502D02*
X180592392Y-106590931D01*
X181235250Y-105162359D02*
X181306678Y-104948074D01*
X181306678Y-104948074D02*
X181306678Y-104590931D01*
X181306678Y-104590931D02*
X181235250Y-104448074D01*
X181235250Y-104448074D02*
X181163821Y-104376645D01*
X181163821Y-104376645D02*
X181020964Y-104305216D01*
X181020964Y-104305216D02*
X180878107Y-104305216D01*
X180878107Y-104305216D02*
X180735250Y-104376645D01*
X180735250Y-104376645D02*
X180663821Y-104448074D01*
X180663821Y-104448074D02*
X180592392Y-104590931D01*
X180592392Y-104590931D02*
X180520964Y-104876645D01*
X180520964Y-104876645D02*
X180449535Y-105019502D01*
X180449535Y-105019502D02*
X180378107Y-105090931D01*
X180378107Y-105090931D02*
X180235250Y-105162359D01*
X180235250Y-105162359D02*
X180092392Y-105162359D01*
X180092392Y-105162359D02*
X179949535Y-105090931D01*
X179949535Y-105090931D02*
X179878107Y-105019502D01*
X179878107Y-105019502D02*
X179806678Y-104876645D01*
X179806678Y-104876645D02*
X179806678Y-104519502D01*
X179806678Y-104519502D02*
X179878107Y-104305216D01*
X180735250Y-103662360D02*
X180735250Y-102519503D01*
D12*
X181013733Y-116869048D02*
X181013733Y-117630953D01*
X180632780Y-117250000D02*
X181394685Y-117250000D01*
X181013733Y-118869048D02*
X181013733Y-119630953D01*
X127345863Y-108117219D02*
X126869673Y-108117219D01*
X126869673Y-108117219D02*
X126869673Y-107117219D01*
X127679197Y-107593409D02*
X128012530Y-107593409D01*
X128155387Y-108117219D02*
X127679197Y-108117219D01*
X127679197Y-108117219D02*
X127679197Y-107117219D01*
X127679197Y-107117219D02*
X128155387Y-107117219D01*
X128536340Y-107831504D02*
X129012530Y-107831504D01*
X128441102Y-108117219D02*
X128774435Y-107117219D01*
X128774435Y-107117219D02*
X129107768Y-108117219D01*
X129298245Y-107117219D02*
X129631578Y-108117219D01*
X129631578Y-108117219D02*
X129964911Y-107117219D01*
X130298245Y-107593409D02*
X130631578Y-107593409D01*
X130774435Y-108117219D02*
X130298245Y-108117219D01*
X130298245Y-108117219D02*
X130298245Y-107117219D01*
X130298245Y-107117219D02*
X130774435Y-107117219D01*
X131917293Y-108069600D02*
X132060150Y-108117219D01*
X132060150Y-108117219D02*
X132298245Y-108117219D01*
X132298245Y-108117219D02*
X132393483Y-108069600D01*
X132393483Y-108069600D02*
X132441102Y-108021980D01*
X132441102Y-108021980D02*
X132488721Y-107926742D01*
X132488721Y-107926742D02*
X132488721Y-107831504D01*
X132488721Y-107831504D02*
X132441102Y-107736266D01*
X132441102Y-107736266D02*
X132393483Y-107688647D01*
X132393483Y-107688647D02*
X132298245Y-107641028D01*
X132298245Y-107641028D02*
X132107769Y-107593409D01*
X132107769Y-107593409D02*
X132012531Y-107545790D01*
X132012531Y-107545790D02*
X131964912Y-107498171D01*
X131964912Y-107498171D02*
X131917293Y-107402933D01*
X131917293Y-107402933D02*
X131917293Y-107307695D01*
X131917293Y-107307695D02*
X131964912Y-107212457D01*
X131964912Y-107212457D02*
X132012531Y-107164838D01*
X132012531Y-107164838D02*
X132107769Y-107117219D01*
X132107769Y-107117219D02*
X132345864Y-107117219D01*
X132345864Y-107117219D02*
X132488721Y-107164838D01*
X132917293Y-108117219D02*
X132917293Y-107117219D01*
X132917293Y-107117219D02*
X133298245Y-107117219D01*
X133298245Y-107117219D02*
X133393483Y-107164838D01*
X133393483Y-107164838D02*
X133441102Y-107212457D01*
X133441102Y-107212457D02*
X133488721Y-107307695D01*
X133488721Y-107307695D02*
X133488721Y-107450552D01*
X133488721Y-107450552D02*
X133441102Y-107545790D01*
X133441102Y-107545790D02*
X133393483Y-107593409D01*
X133393483Y-107593409D02*
X133298245Y-107641028D01*
X133298245Y-107641028D02*
X132917293Y-107641028D01*
X133869674Y-107831504D02*
X134345864Y-107831504D01*
X133774436Y-108117219D02*
X134107769Y-107117219D01*
X134107769Y-107117219D02*
X134441102Y-108117219D01*
X135345864Y-108021980D02*
X135298245Y-108069600D01*
X135298245Y-108069600D02*
X135155388Y-108117219D01*
X135155388Y-108117219D02*
X135060150Y-108117219D01*
X135060150Y-108117219D02*
X134917293Y-108069600D01*
X134917293Y-108069600D02*
X134822055Y-107974361D01*
X134822055Y-107974361D02*
X134774436Y-107879123D01*
X134774436Y-107879123D02*
X134726817Y-107688647D01*
X134726817Y-107688647D02*
X134726817Y-107545790D01*
X134726817Y-107545790D02*
X134774436Y-107355314D01*
X134774436Y-107355314D02*
X134822055Y-107260076D01*
X134822055Y-107260076D02*
X134917293Y-107164838D01*
X134917293Y-107164838D02*
X135060150Y-107117219D01*
X135060150Y-107117219D02*
X135155388Y-107117219D01*
X135155388Y-107117219D02*
X135298245Y-107164838D01*
X135298245Y-107164838D02*
X135345864Y-107212457D01*
X135774436Y-107593409D02*
X136107769Y-107593409D01*
X136250626Y-108117219D02*
X135774436Y-108117219D01*
X135774436Y-108117219D02*
X135774436Y-107117219D01*
X135774436Y-107117219D02*
X136250626Y-107117219D01*
X137774436Y-107593409D02*
X137441103Y-107593409D01*
X137441103Y-108117219D02*
X137441103Y-107117219D01*
X137441103Y-107117219D02*
X137917293Y-107117219D01*
X138488722Y-107117219D02*
X138679198Y-107117219D01*
X138679198Y-107117219D02*
X138774436Y-107164838D01*
X138774436Y-107164838D02*
X138869674Y-107260076D01*
X138869674Y-107260076D02*
X138917293Y-107450552D01*
X138917293Y-107450552D02*
X138917293Y-107783885D01*
X138917293Y-107783885D02*
X138869674Y-107974361D01*
X138869674Y-107974361D02*
X138774436Y-108069600D01*
X138774436Y-108069600D02*
X138679198Y-108117219D01*
X138679198Y-108117219D02*
X138488722Y-108117219D01*
X138488722Y-108117219D02*
X138393484Y-108069600D01*
X138393484Y-108069600D02*
X138298246Y-107974361D01*
X138298246Y-107974361D02*
X138250627Y-107783885D01*
X138250627Y-107783885D02*
X138250627Y-107450552D01*
X138250627Y-107450552D02*
X138298246Y-107260076D01*
X138298246Y-107260076D02*
X138393484Y-107164838D01*
X138393484Y-107164838D02*
X138488722Y-107117219D01*
X139917293Y-108117219D02*
X139583960Y-107641028D01*
X139345865Y-108117219D02*
X139345865Y-107117219D01*
X139345865Y-107117219D02*
X139726817Y-107117219D01*
X139726817Y-107117219D02*
X139822055Y-107164838D01*
X139822055Y-107164838D02*
X139869674Y-107212457D01*
X139869674Y-107212457D02*
X139917293Y-107307695D01*
X139917293Y-107307695D02*
X139917293Y-107450552D01*
X139917293Y-107450552D02*
X139869674Y-107545790D01*
X139869674Y-107545790D02*
X139822055Y-107593409D01*
X139822055Y-107593409D02*
X139726817Y-107641028D01*
X139726817Y-107641028D02*
X139345865Y-107641028D01*
X141060151Y-108069600D02*
X141203008Y-108117219D01*
X141203008Y-108117219D02*
X141441103Y-108117219D01*
X141441103Y-108117219D02*
X141536341Y-108069600D01*
X141536341Y-108069600D02*
X141583960Y-108021980D01*
X141583960Y-108021980D02*
X141631579Y-107926742D01*
X141631579Y-107926742D02*
X141631579Y-107831504D01*
X141631579Y-107831504D02*
X141583960Y-107736266D01*
X141583960Y-107736266D02*
X141536341Y-107688647D01*
X141536341Y-107688647D02*
X141441103Y-107641028D01*
X141441103Y-107641028D02*
X141250627Y-107593409D01*
X141250627Y-107593409D02*
X141155389Y-107545790D01*
X141155389Y-107545790D02*
X141107770Y-107498171D01*
X141107770Y-107498171D02*
X141060151Y-107402933D01*
X141060151Y-107402933D02*
X141060151Y-107307695D01*
X141060151Y-107307695D02*
X141107770Y-107212457D01*
X141107770Y-107212457D02*
X141155389Y-107164838D01*
X141155389Y-107164838D02*
X141250627Y-107117219D01*
X141250627Y-107117219D02*
X141488722Y-107117219D01*
X141488722Y-107117219D02*
X141631579Y-107164838D01*
X142060151Y-108117219D02*
X142060151Y-107117219D01*
X142060151Y-107117219D02*
X142298246Y-107117219D01*
X142298246Y-107117219D02*
X142441103Y-107164838D01*
X142441103Y-107164838D02*
X142536341Y-107260076D01*
X142536341Y-107260076D02*
X142583960Y-107355314D01*
X142583960Y-107355314D02*
X142631579Y-107545790D01*
X142631579Y-107545790D02*
X142631579Y-107688647D01*
X142631579Y-107688647D02*
X142583960Y-107879123D01*
X142583960Y-107879123D02*
X142536341Y-107974361D01*
X142536341Y-107974361D02*
X142441103Y-108069600D01*
X142441103Y-108069600D02*
X142298246Y-108117219D01*
X142298246Y-108117219D02*
X142060151Y-108117219D01*
X144393484Y-108021980D02*
X144345865Y-108069600D01*
X144345865Y-108069600D02*
X144203008Y-108117219D01*
X144203008Y-108117219D02*
X144107770Y-108117219D01*
X144107770Y-108117219D02*
X143964913Y-108069600D01*
X143964913Y-108069600D02*
X143869675Y-107974361D01*
X143869675Y-107974361D02*
X143822056Y-107879123D01*
X143822056Y-107879123D02*
X143774437Y-107688647D01*
X143774437Y-107688647D02*
X143774437Y-107545790D01*
X143774437Y-107545790D02*
X143822056Y-107355314D01*
X143822056Y-107355314D02*
X143869675Y-107260076D01*
X143869675Y-107260076D02*
X143964913Y-107164838D01*
X143964913Y-107164838D02*
X144107770Y-107117219D01*
X144107770Y-107117219D02*
X144203008Y-107117219D01*
X144203008Y-107117219D02*
X144345865Y-107164838D01*
X144345865Y-107164838D02*
X144393484Y-107212457D01*
X144774437Y-107831504D02*
X145250627Y-107831504D01*
X144679199Y-108117219D02*
X145012532Y-107117219D01*
X145012532Y-107117219D02*
X145345865Y-108117219D01*
X146250627Y-108117219D02*
X145917294Y-107641028D01*
X145679199Y-108117219D02*
X145679199Y-107117219D01*
X145679199Y-107117219D02*
X146060151Y-107117219D01*
X146060151Y-107117219D02*
X146155389Y-107164838D01*
X146155389Y-107164838D02*
X146203008Y-107212457D01*
X146203008Y-107212457D02*
X146250627Y-107307695D01*
X146250627Y-107307695D02*
X146250627Y-107450552D01*
X146250627Y-107450552D02*
X146203008Y-107545790D01*
X146203008Y-107545790D02*
X146155389Y-107593409D01*
X146155389Y-107593409D02*
X146060151Y-107641028D01*
X146060151Y-107641028D02*
X145679199Y-107641028D01*
X146679199Y-108117219D02*
X146679199Y-107117219D01*
X146679199Y-107117219D02*
X146917294Y-107117219D01*
X146917294Y-107117219D02*
X147060151Y-107164838D01*
X147060151Y-107164838D02*
X147155389Y-107260076D01*
X147155389Y-107260076D02*
X147203008Y-107355314D01*
X147203008Y-107355314D02*
X147250627Y-107545790D01*
X147250627Y-107545790D02*
X147250627Y-107688647D01*
X147250627Y-107688647D02*
X147203008Y-107879123D01*
X147203008Y-107879123D02*
X147155389Y-107974361D01*
X147155389Y-107974361D02*
X147060151Y-108069600D01*
X147060151Y-108069600D02*
X146917294Y-108117219D01*
X146917294Y-108117219D02*
X146679199Y-108117219D01*
D10*
X160389411Y-32582561D02*
X160484649Y-32630180D01*
X160484649Y-32630180D02*
X160627506Y-32630180D01*
X160627506Y-32630180D02*
X160770363Y-32582561D01*
X160770363Y-32582561D02*
X160865601Y-32487323D01*
X160865601Y-32487323D02*
X160913220Y-32392085D01*
X160913220Y-32392085D02*
X160960839Y-32201609D01*
X160960839Y-32201609D02*
X160960839Y-32058752D01*
X160960839Y-32058752D02*
X160913220Y-31868276D01*
X160913220Y-31868276D02*
X160865601Y-31773038D01*
X160865601Y-31773038D02*
X160770363Y-31677800D01*
X160770363Y-31677800D02*
X160627506Y-31630180D01*
X160627506Y-31630180D02*
X160532268Y-31630180D01*
X160532268Y-31630180D02*
X160389411Y-31677800D01*
X160389411Y-31677800D02*
X160341792Y-31725419D01*
X160341792Y-31725419D02*
X160341792Y-32058752D01*
X160341792Y-32058752D02*
X160532268Y-32058752D01*
X159913220Y-31630180D02*
X159913220Y-32296847D01*
X159913220Y-32106371D02*
X159865601Y-32201609D01*
X159865601Y-32201609D02*
X159817982Y-32249228D01*
X159817982Y-32249228D02*
X159722744Y-32296847D01*
X159722744Y-32296847D02*
X159627506Y-32296847D01*
X158913220Y-31677800D02*
X159008458Y-31630180D01*
X159008458Y-31630180D02*
X159198934Y-31630180D01*
X159198934Y-31630180D02*
X159294172Y-31677800D01*
X159294172Y-31677800D02*
X159341791Y-31773038D01*
X159341791Y-31773038D02*
X159341791Y-32153990D01*
X159341791Y-32153990D02*
X159294172Y-32249228D01*
X159294172Y-32249228D02*
X159198934Y-32296847D01*
X159198934Y-32296847D02*
X159008458Y-32296847D01*
X159008458Y-32296847D02*
X158913220Y-32249228D01*
X158913220Y-32249228D02*
X158865601Y-32153990D01*
X158865601Y-32153990D02*
X158865601Y-32058752D01*
X158865601Y-32058752D02*
X159341791Y-31963514D01*
X158056077Y-31677800D02*
X158151315Y-31630180D01*
X158151315Y-31630180D02*
X158341791Y-31630180D01*
X158341791Y-31630180D02*
X158437029Y-31677800D01*
X158437029Y-31677800D02*
X158484648Y-31773038D01*
X158484648Y-31773038D02*
X158484648Y-32153990D01*
X158484648Y-32153990D02*
X158437029Y-32249228D01*
X158437029Y-32249228D02*
X158341791Y-32296847D01*
X158341791Y-32296847D02*
X158151315Y-32296847D01*
X158151315Y-32296847D02*
X158056077Y-32249228D01*
X158056077Y-32249228D02*
X158008458Y-32153990D01*
X158008458Y-32153990D02*
X158008458Y-32058752D01*
X158008458Y-32058752D02*
X158484648Y-31963514D01*
X157579886Y-32296847D02*
X157579886Y-31630180D01*
X157579886Y-32201609D02*
X157532267Y-32249228D01*
X157532267Y-32249228D02*
X157437029Y-32296847D01*
X157437029Y-32296847D02*
X157294172Y-32296847D01*
X157294172Y-32296847D02*
X157198934Y-32249228D01*
X157198934Y-32249228D02*
X157151315Y-32153990D01*
X157151315Y-32153990D02*
X157151315Y-31630180D01*
X156008457Y-32630180D02*
X155770362Y-31630180D01*
X155770362Y-31630180D02*
X155579886Y-32344466D01*
X155579886Y-32344466D02*
X155389410Y-31630180D01*
X155389410Y-31630180D02*
X155151315Y-32630180D01*
X154770362Y-31630180D02*
X154770362Y-32630180D01*
X154341791Y-31630180D02*
X154341791Y-32153990D01*
X154341791Y-32153990D02*
X154389410Y-32249228D01*
X154389410Y-32249228D02*
X154484648Y-32296847D01*
X154484648Y-32296847D02*
X154627505Y-32296847D01*
X154627505Y-32296847D02*
X154722743Y-32249228D01*
X154722743Y-32249228D02*
X154770362Y-32201609D01*
X153865600Y-31630180D02*
X153865600Y-32296847D01*
X153865600Y-32630180D02*
X153913219Y-32582561D01*
X153913219Y-32582561D02*
X153865600Y-32534942D01*
X153865600Y-32534942D02*
X153817981Y-32582561D01*
X153817981Y-32582561D02*
X153865600Y-32630180D01*
X153865600Y-32630180D02*
X153865600Y-32534942D01*
X153532267Y-32296847D02*
X153151315Y-32296847D01*
X153389410Y-32630180D02*
X153389410Y-31773038D01*
X153389410Y-31773038D02*
X153341791Y-31677800D01*
X153341791Y-31677800D02*
X153246553Y-31630180D01*
X153246553Y-31630180D02*
X153151315Y-31630180D01*
X152437029Y-31677800D02*
X152532267Y-31630180D01*
X152532267Y-31630180D02*
X152722743Y-31630180D01*
X152722743Y-31630180D02*
X152817981Y-31677800D01*
X152817981Y-31677800D02*
X152865600Y-31773038D01*
X152865600Y-31773038D02*
X152865600Y-32153990D01*
X152865600Y-32153990D02*
X152817981Y-32249228D01*
X152817981Y-32249228D02*
X152722743Y-32296847D01*
X152722743Y-32296847D02*
X152532267Y-32296847D01*
X152532267Y-32296847D02*
X152437029Y-32249228D01*
X152437029Y-32249228D02*
X152389410Y-32153990D01*
X152389410Y-32153990D02*
X152389410Y-32058752D01*
X152389410Y-32058752D02*
X152865600Y-31963514D01*
X150865600Y-32153990D02*
X150722743Y-32106371D01*
X150722743Y-32106371D02*
X150675124Y-32058752D01*
X150675124Y-32058752D02*
X150627505Y-31963514D01*
X150627505Y-31963514D02*
X150627505Y-31820657D01*
X150627505Y-31820657D02*
X150675124Y-31725419D01*
X150675124Y-31725419D02*
X150722743Y-31677800D01*
X150722743Y-31677800D02*
X150817981Y-31630180D01*
X150817981Y-31630180D02*
X151198933Y-31630180D01*
X151198933Y-31630180D02*
X151198933Y-32630180D01*
X151198933Y-32630180D02*
X150865600Y-32630180D01*
X150865600Y-32630180D02*
X150770362Y-32582561D01*
X150770362Y-32582561D02*
X150722743Y-32534942D01*
X150722743Y-32534942D02*
X150675124Y-32439704D01*
X150675124Y-32439704D02*
X150675124Y-32344466D01*
X150675124Y-32344466D02*
X150722743Y-32249228D01*
X150722743Y-32249228D02*
X150770362Y-32201609D01*
X150770362Y-32201609D02*
X150865600Y-32153990D01*
X150865600Y-32153990D02*
X151198933Y-32153990D01*
X150056076Y-31630180D02*
X150151314Y-31677800D01*
X150151314Y-31677800D02*
X150198933Y-31773038D01*
X150198933Y-31773038D02*
X150198933Y-32630180D01*
X149246552Y-31630180D02*
X149246552Y-32153990D01*
X149246552Y-32153990D02*
X149294171Y-32249228D01*
X149294171Y-32249228D02*
X149389409Y-32296847D01*
X149389409Y-32296847D02*
X149579885Y-32296847D01*
X149579885Y-32296847D02*
X149675123Y-32249228D01*
X149246552Y-31677800D02*
X149341790Y-31630180D01*
X149341790Y-31630180D02*
X149579885Y-31630180D01*
X149579885Y-31630180D02*
X149675123Y-31677800D01*
X149675123Y-31677800D02*
X149722742Y-31773038D01*
X149722742Y-31773038D02*
X149722742Y-31868276D01*
X149722742Y-31868276D02*
X149675123Y-31963514D01*
X149675123Y-31963514D02*
X149579885Y-32011133D01*
X149579885Y-32011133D02*
X149341790Y-32011133D01*
X149341790Y-32011133D02*
X149246552Y-32058752D01*
X148341790Y-31677800D02*
X148437028Y-31630180D01*
X148437028Y-31630180D02*
X148627504Y-31630180D01*
X148627504Y-31630180D02*
X148722742Y-31677800D01*
X148722742Y-31677800D02*
X148770361Y-31725419D01*
X148770361Y-31725419D02*
X148817980Y-31820657D01*
X148817980Y-31820657D02*
X148817980Y-32106371D01*
X148817980Y-32106371D02*
X148770361Y-32201609D01*
X148770361Y-32201609D02*
X148722742Y-32249228D01*
X148722742Y-32249228D02*
X148627504Y-32296847D01*
X148627504Y-32296847D02*
X148437028Y-32296847D01*
X148437028Y-32296847D02*
X148341790Y-32249228D01*
X147913218Y-31630180D02*
X147913218Y-32630180D01*
X147817980Y-32011133D02*
X147532266Y-31630180D01*
X147532266Y-32296847D02*
X147913218Y-31915895D01*
X145770361Y-31630180D02*
X146103694Y-32106371D01*
X146341789Y-31630180D02*
X146341789Y-32630180D01*
X146341789Y-32630180D02*
X145960837Y-32630180D01*
X145960837Y-32630180D02*
X145865599Y-32582561D01*
X145865599Y-32582561D02*
X145817980Y-32534942D01*
X145817980Y-32534942D02*
X145770361Y-32439704D01*
X145770361Y-32439704D02*
X145770361Y-32296847D01*
X145770361Y-32296847D02*
X145817980Y-32201609D01*
X145817980Y-32201609D02*
X145865599Y-32153990D01*
X145865599Y-32153990D02*
X145960837Y-32106371D01*
X145960837Y-32106371D02*
X146341789Y-32106371D01*
X144960837Y-31677800D02*
X145056075Y-31630180D01*
X145056075Y-31630180D02*
X145246551Y-31630180D01*
X145246551Y-31630180D02*
X145341789Y-31677800D01*
X145341789Y-31677800D02*
X145389408Y-31773038D01*
X145389408Y-31773038D02*
X145389408Y-32153990D01*
X145389408Y-32153990D02*
X145341789Y-32249228D01*
X145341789Y-32249228D02*
X145246551Y-32296847D01*
X145246551Y-32296847D02*
X145056075Y-32296847D01*
X145056075Y-32296847D02*
X144960837Y-32249228D01*
X144960837Y-32249228D02*
X144913218Y-32153990D01*
X144913218Y-32153990D02*
X144913218Y-32058752D01*
X144913218Y-32058752D02*
X145389408Y-31963514D01*
X144056075Y-31630180D02*
X144056075Y-32630180D01*
X144056075Y-31677800D02*
X144151313Y-31630180D01*
X144151313Y-31630180D02*
X144341789Y-31630180D01*
X144341789Y-31630180D02*
X144437027Y-31677800D01*
X144437027Y-31677800D02*
X144484646Y-31725419D01*
X144484646Y-31725419D02*
X144532265Y-31820657D01*
X144532265Y-31820657D02*
X144532265Y-32106371D01*
X144532265Y-32106371D02*
X144484646Y-32201609D01*
X144484646Y-32201609D02*
X144437027Y-32249228D01*
X144437027Y-32249228D02*
X144341789Y-32296847D01*
X144341789Y-32296847D02*
X144151313Y-32296847D01*
X144151313Y-32296847D02*
X144056075Y-32249228D01*
X141389411Y-32582561D02*
X141484649Y-32630180D01*
X141484649Y-32630180D02*
X141627506Y-32630180D01*
X141627506Y-32630180D02*
X141770363Y-32582561D01*
X141770363Y-32582561D02*
X141865601Y-32487323D01*
X141865601Y-32487323D02*
X141913220Y-32392085D01*
X141913220Y-32392085D02*
X141960839Y-32201609D01*
X141960839Y-32201609D02*
X141960839Y-32058752D01*
X141960839Y-32058752D02*
X141913220Y-31868276D01*
X141913220Y-31868276D02*
X141865601Y-31773038D01*
X141865601Y-31773038D02*
X141770363Y-31677800D01*
X141770363Y-31677800D02*
X141627506Y-31630180D01*
X141627506Y-31630180D02*
X141532268Y-31630180D01*
X141532268Y-31630180D02*
X141389411Y-31677800D01*
X141389411Y-31677800D02*
X141341792Y-31725419D01*
X141341792Y-31725419D02*
X141341792Y-32058752D01*
X141341792Y-32058752D02*
X141532268Y-32058752D01*
X140913220Y-31630180D02*
X140913220Y-32296847D01*
X140913220Y-32106371D02*
X140865601Y-32201609D01*
X140865601Y-32201609D02*
X140817982Y-32249228D01*
X140817982Y-32249228D02*
X140722744Y-32296847D01*
X140722744Y-32296847D02*
X140627506Y-32296847D01*
X139913220Y-31677800D02*
X140008458Y-31630180D01*
X140008458Y-31630180D02*
X140198934Y-31630180D01*
X140198934Y-31630180D02*
X140294172Y-31677800D01*
X140294172Y-31677800D02*
X140341791Y-31773038D01*
X140341791Y-31773038D02*
X140341791Y-32153990D01*
X140341791Y-32153990D02*
X140294172Y-32249228D01*
X140294172Y-32249228D02*
X140198934Y-32296847D01*
X140198934Y-32296847D02*
X140008458Y-32296847D01*
X140008458Y-32296847D02*
X139913220Y-32249228D01*
X139913220Y-32249228D02*
X139865601Y-32153990D01*
X139865601Y-32153990D02*
X139865601Y-32058752D01*
X139865601Y-32058752D02*
X140341791Y-31963514D01*
X139056077Y-31677800D02*
X139151315Y-31630180D01*
X139151315Y-31630180D02*
X139341791Y-31630180D01*
X139341791Y-31630180D02*
X139437029Y-31677800D01*
X139437029Y-31677800D02*
X139484648Y-31773038D01*
X139484648Y-31773038D02*
X139484648Y-32153990D01*
X139484648Y-32153990D02*
X139437029Y-32249228D01*
X139437029Y-32249228D02*
X139341791Y-32296847D01*
X139341791Y-32296847D02*
X139151315Y-32296847D01*
X139151315Y-32296847D02*
X139056077Y-32249228D01*
X139056077Y-32249228D02*
X139008458Y-32153990D01*
X139008458Y-32153990D02*
X139008458Y-32058752D01*
X139008458Y-32058752D02*
X139484648Y-31963514D01*
X138579886Y-32296847D02*
X138579886Y-31630180D01*
X138579886Y-32201609D02*
X138532267Y-32249228D01*
X138532267Y-32249228D02*
X138437029Y-32296847D01*
X138437029Y-32296847D02*
X138294172Y-32296847D01*
X138294172Y-32296847D02*
X138198934Y-32249228D01*
X138198934Y-32249228D02*
X138151315Y-32153990D01*
X138151315Y-32153990D02*
X138151315Y-31630180D01*
X137008457Y-32630180D02*
X136770362Y-31630180D01*
X136770362Y-31630180D02*
X136579886Y-32344466D01*
X136579886Y-32344466D02*
X136389410Y-31630180D01*
X136389410Y-31630180D02*
X136151315Y-32630180D01*
X135770362Y-31630180D02*
X135770362Y-32630180D01*
X135341791Y-31630180D02*
X135341791Y-32153990D01*
X135341791Y-32153990D02*
X135389410Y-32249228D01*
X135389410Y-32249228D02*
X135484648Y-32296847D01*
X135484648Y-32296847D02*
X135627505Y-32296847D01*
X135627505Y-32296847D02*
X135722743Y-32249228D01*
X135722743Y-32249228D02*
X135770362Y-32201609D01*
X134865600Y-31630180D02*
X134865600Y-32296847D01*
X134865600Y-32630180D02*
X134913219Y-32582561D01*
X134913219Y-32582561D02*
X134865600Y-32534942D01*
X134865600Y-32534942D02*
X134817981Y-32582561D01*
X134817981Y-32582561D02*
X134865600Y-32630180D01*
X134865600Y-32630180D02*
X134865600Y-32534942D01*
X134532267Y-32296847D02*
X134151315Y-32296847D01*
X134389410Y-32630180D02*
X134389410Y-31773038D01*
X134389410Y-31773038D02*
X134341791Y-31677800D01*
X134341791Y-31677800D02*
X134246553Y-31630180D01*
X134246553Y-31630180D02*
X134151315Y-31630180D01*
X133437029Y-31677800D02*
X133532267Y-31630180D01*
X133532267Y-31630180D02*
X133722743Y-31630180D01*
X133722743Y-31630180D02*
X133817981Y-31677800D01*
X133817981Y-31677800D02*
X133865600Y-31773038D01*
X133865600Y-31773038D02*
X133865600Y-32153990D01*
X133865600Y-32153990D02*
X133817981Y-32249228D01*
X133817981Y-32249228D02*
X133722743Y-32296847D01*
X133722743Y-32296847D02*
X133532267Y-32296847D01*
X133532267Y-32296847D02*
X133437029Y-32249228D01*
X133437029Y-32249228D02*
X133389410Y-32153990D01*
X133389410Y-32153990D02*
X133389410Y-32058752D01*
X133389410Y-32058752D02*
X133865600Y-31963514D01*
X131865600Y-32153990D02*
X131722743Y-32106371D01*
X131722743Y-32106371D02*
X131675124Y-32058752D01*
X131675124Y-32058752D02*
X131627505Y-31963514D01*
X131627505Y-31963514D02*
X131627505Y-31820657D01*
X131627505Y-31820657D02*
X131675124Y-31725419D01*
X131675124Y-31725419D02*
X131722743Y-31677800D01*
X131722743Y-31677800D02*
X131817981Y-31630180D01*
X131817981Y-31630180D02*
X132198933Y-31630180D01*
X132198933Y-31630180D02*
X132198933Y-32630180D01*
X132198933Y-32630180D02*
X131865600Y-32630180D01*
X131865600Y-32630180D02*
X131770362Y-32582561D01*
X131770362Y-32582561D02*
X131722743Y-32534942D01*
X131722743Y-32534942D02*
X131675124Y-32439704D01*
X131675124Y-32439704D02*
X131675124Y-32344466D01*
X131675124Y-32344466D02*
X131722743Y-32249228D01*
X131722743Y-32249228D02*
X131770362Y-32201609D01*
X131770362Y-32201609D02*
X131865600Y-32153990D01*
X131865600Y-32153990D02*
X132198933Y-32153990D01*
X131056076Y-31630180D02*
X131151314Y-31677800D01*
X131151314Y-31677800D02*
X131198933Y-31773038D01*
X131198933Y-31773038D02*
X131198933Y-32630180D01*
X130246552Y-31630180D02*
X130246552Y-32153990D01*
X130246552Y-32153990D02*
X130294171Y-32249228D01*
X130294171Y-32249228D02*
X130389409Y-32296847D01*
X130389409Y-32296847D02*
X130579885Y-32296847D01*
X130579885Y-32296847D02*
X130675123Y-32249228D01*
X130246552Y-31677800D02*
X130341790Y-31630180D01*
X130341790Y-31630180D02*
X130579885Y-31630180D01*
X130579885Y-31630180D02*
X130675123Y-31677800D01*
X130675123Y-31677800D02*
X130722742Y-31773038D01*
X130722742Y-31773038D02*
X130722742Y-31868276D01*
X130722742Y-31868276D02*
X130675123Y-31963514D01*
X130675123Y-31963514D02*
X130579885Y-32011133D01*
X130579885Y-32011133D02*
X130341790Y-32011133D01*
X130341790Y-32011133D02*
X130246552Y-32058752D01*
X129341790Y-31677800D02*
X129437028Y-31630180D01*
X129437028Y-31630180D02*
X129627504Y-31630180D01*
X129627504Y-31630180D02*
X129722742Y-31677800D01*
X129722742Y-31677800D02*
X129770361Y-31725419D01*
X129770361Y-31725419D02*
X129817980Y-31820657D01*
X129817980Y-31820657D02*
X129817980Y-32106371D01*
X129817980Y-32106371D02*
X129770361Y-32201609D01*
X129770361Y-32201609D02*
X129722742Y-32249228D01*
X129722742Y-32249228D02*
X129627504Y-32296847D01*
X129627504Y-32296847D02*
X129437028Y-32296847D01*
X129437028Y-32296847D02*
X129341790Y-32249228D01*
X128913218Y-31630180D02*
X128913218Y-32630180D01*
X128817980Y-32011133D02*
X128532266Y-31630180D01*
X128532266Y-32296847D02*
X128913218Y-31915895D01*
X126770361Y-31630180D02*
X127103694Y-32106371D01*
X127341789Y-31630180D02*
X127341789Y-32630180D01*
X127341789Y-32630180D02*
X126960837Y-32630180D01*
X126960837Y-32630180D02*
X126865599Y-32582561D01*
X126865599Y-32582561D02*
X126817980Y-32534942D01*
X126817980Y-32534942D02*
X126770361Y-32439704D01*
X126770361Y-32439704D02*
X126770361Y-32296847D01*
X126770361Y-32296847D02*
X126817980Y-32201609D01*
X126817980Y-32201609D02*
X126865599Y-32153990D01*
X126865599Y-32153990D02*
X126960837Y-32106371D01*
X126960837Y-32106371D02*
X127341789Y-32106371D01*
X125960837Y-31677800D02*
X126056075Y-31630180D01*
X126056075Y-31630180D02*
X126246551Y-31630180D01*
X126246551Y-31630180D02*
X126341789Y-31677800D01*
X126341789Y-31677800D02*
X126389408Y-31773038D01*
X126389408Y-31773038D02*
X126389408Y-32153990D01*
X126389408Y-32153990D02*
X126341789Y-32249228D01*
X126341789Y-32249228D02*
X126246551Y-32296847D01*
X126246551Y-32296847D02*
X126056075Y-32296847D01*
X126056075Y-32296847D02*
X125960837Y-32249228D01*
X125960837Y-32249228D02*
X125913218Y-32153990D01*
X125913218Y-32153990D02*
X125913218Y-32058752D01*
X125913218Y-32058752D02*
X126389408Y-31963514D01*
X125056075Y-31630180D02*
X125056075Y-32630180D01*
X125056075Y-31677800D02*
X125151313Y-31630180D01*
X125151313Y-31630180D02*
X125341789Y-31630180D01*
X125341789Y-31630180D02*
X125437027Y-31677800D01*
X125437027Y-31677800D02*
X125484646Y-31725419D01*
X125484646Y-31725419D02*
X125532265Y-31820657D01*
X125532265Y-31820657D02*
X125532265Y-32106371D01*
X125532265Y-32106371D02*
X125484646Y-32201609D01*
X125484646Y-32201609D02*
X125437027Y-32249228D01*
X125437027Y-32249228D02*
X125341789Y-32296847D01*
X125341789Y-32296847D02*
X125151313Y-32296847D01*
X125151313Y-32296847D02*
X125056075Y-32249228D01*
D11*
X181306678Y-101162359D02*
X180592392Y-101662359D01*
X181306678Y-102019502D02*
X179806678Y-102019502D01*
X179806678Y-102019502D02*
X179806678Y-101448073D01*
X179806678Y-101448073D02*
X179878107Y-101305216D01*
X179878107Y-101305216D02*
X179949535Y-101233787D01*
X179949535Y-101233787D02*
X180092392Y-101162359D01*
X180092392Y-101162359D02*
X180306678Y-101162359D01*
X180306678Y-101162359D02*
X180449535Y-101233787D01*
X180449535Y-101233787D02*
X180520964Y-101305216D01*
X180520964Y-101305216D02*
X180592392Y-101448073D01*
X180592392Y-101448073D02*
X180592392Y-102019502D01*
X181235250Y-100590930D02*
X181306678Y-100376645D01*
X181306678Y-100376645D02*
X181306678Y-100019502D01*
X181306678Y-100019502D02*
X181235250Y-99876645D01*
X181235250Y-99876645D02*
X181163821Y-99805216D01*
X181163821Y-99805216D02*
X181020964Y-99733787D01*
X181020964Y-99733787D02*
X180878107Y-99733787D01*
X180878107Y-99733787D02*
X180735250Y-99805216D01*
X180735250Y-99805216D02*
X180663821Y-99876645D01*
X180663821Y-99876645D02*
X180592392Y-100019502D01*
X180592392Y-100019502D02*
X180520964Y-100305216D01*
X180520964Y-100305216D02*
X180449535Y-100448073D01*
X180449535Y-100448073D02*
X180378107Y-100519502D01*
X180378107Y-100519502D02*
X180235250Y-100590930D01*
X180235250Y-100590930D02*
X180092392Y-100590930D01*
X180092392Y-100590930D02*
X179949535Y-100519502D01*
X179949535Y-100519502D02*
X179878107Y-100448073D01*
X179878107Y-100448073D02*
X179806678Y-100305216D01*
X179806678Y-100305216D02*
X179806678Y-99948073D01*
X179806678Y-99948073D02*
X179878107Y-99733787D01*
X180735250Y-99090931D02*
X180735250Y-97948074D01*
X181306678Y-98519502D02*
X180163821Y-98519502D01*
X181306678Y-95233788D02*
X180592392Y-95733788D01*
X181306678Y-96090931D02*
X179806678Y-96090931D01*
X179806678Y-96090931D02*
X179806678Y-95519502D01*
X179806678Y-95519502D02*
X179878107Y-95376645D01*
X179878107Y-95376645D02*
X179949535Y-95305216D01*
X179949535Y-95305216D02*
X180092392Y-95233788D01*
X180092392Y-95233788D02*
X180306678Y-95233788D01*
X180306678Y-95233788D02*
X180449535Y-95305216D01*
X180449535Y-95305216D02*
X180520964Y-95376645D01*
X180520964Y-95376645D02*
X180592392Y-95519502D01*
X180592392Y-95519502D02*
X180592392Y-96090931D01*
X181235250Y-94662359D02*
X181306678Y-94448074D01*
X181306678Y-94448074D02*
X181306678Y-94090931D01*
X181306678Y-94090931D02*
X181235250Y-93948074D01*
X181235250Y-93948074D02*
X181163821Y-93876645D01*
X181163821Y-93876645D02*
X181020964Y-93805216D01*
X181020964Y-93805216D02*
X180878107Y-93805216D01*
X180878107Y-93805216D02*
X180735250Y-93876645D01*
X180735250Y-93876645D02*
X180663821Y-93948074D01*
X180663821Y-93948074D02*
X180592392Y-94090931D01*
X180592392Y-94090931D02*
X180520964Y-94376645D01*
X180520964Y-94376645D02*
X180449535Y-94519502D01*
X180449535Y-94519502D02*
X180378107Y-94590931D01*
X180378107Y-94590931D02*
X180235250Y-94662359D01*
X180235250Y-94662359D02*
X180092392Y-94662359D01*
X180092392Y-94662359D02*
X179949535Y-94590931D01*
X179949535Y-94590931D02*
X179878107Y-94519502D01*
X179878107Y-94519502D02*
X179806678Y-94376645D01*
X179806678Y-94376645D02*
X179806678Y-94019502D01*
X179806678Y-94019502D02*
X179878107Y-93805216D01*
X180735250Y-93162360D02*
X180735250Y-92019503D01*
D10*
X175689680Y-118327066D02*
X174975395Y-118327066D01*
X174975395Y-118327066D02*
X174832538Y-118279447D01*
X174832538Y-118279447D02*
X174737300Y-118184209D01*
X174737300Y-118184209D02*
X174689680Y-118041352D01*
X174689680Y-118041352D02*
X174689680Y-117946114D01*
X175689680Y-118708019D02*
X175689680Y-119374685D01*
X175689680Y-119374685D02*
X174689680Y-118946114D01*
D13*
X149711904Y-140892580D02*
X149711904Y-140083057D01*
X149711904Y-140083057D02*
X149664285Y-139987819D01*
X149664285Y-139987819D02*
X149616666Y-139940200D01*
X149616666Y-139940200D02*
X149521428Y-139892580D01*
X149521428Y-139892580D02*
X149330952Y-139892580D01*
X149330952Y-139892580D02*
X149235714Y-139940200D01*
X149235714Y-139940200D02*
X149188095Y-139987819D01*
X149188095Y-139987819D02*
X149140476Y-140083057D01*
X149140476Y-140083057D02*
X149140476Y-140892580D01*
X148759523Y-140892580D02*
X148092857Y-140892580D01*
X148092857Y-140892580D02*
X148521428Y-139892580D01*
D10*
X152416665Y-37454819D02*
X152416665Y-38169104D01*
X152416665Y-38169104D02*
X152369046Y-38311961D01*
X152369046Y-38311961D02*
X152273808Y-38407200D01*
X152273808Y-38407200D02*
X152130951Y-38454819D01*
X152130951Y-38454819D02*
X152035713Y-38454819D01*
X152797618Y-37454819D02*
X153416665Y-37454819D01*
X153416665Y-37454819D02*
X153083332Y-37835771D01*
X153083332Y-37835771D02*
X153226189Y-37835771D01*
X153226189Y-37835771D02*
X153321427Y-37883390D01*
X153321427Y-37883390D02*
X153369046Y-37931009D01*
X153369046Y-37931009D02*
X153416665Y-38026247D01*
X153416665Y-38026247D02*
X153416665Y-38264342D01*
X153416665Y-38264342D02*
X153369046Y-38359580D01*
X153369046Y-38359580D02*
X153321427Y-38407200D01*
X153321427Y-38407200D02*
X153226189Y-38454819D01*
X153226189Y-38454819D02*
X152940475Y-38454819D01*
X152940475Y-38454819D02*
X152845237Y-38407200D01*
X152845237Y-38407200D02*
X152797618Y-38359580D01*
X175795180Y-97416666D02*
X175080895Y-97416666D01*
X175080895Y-97416666D02*
X174938038Y-97369047D01*
X174938038Y-97369047D02*
X174842800Y-97273809D01*
X174842800Y-97273809D02*
X174795180Y-97130952D01*
X174795180Y-97130952D02*
X174795180Y-97035714D01*
X175366609Y-98035714D02*
X175414228Y-97940476D01*
X175414228Y-97940476D02*
X175461847Y-97892857D01*
X175461847Y-97892857D02*
X175557085Y-97845238D01*
X175557085Y-97845238D02*
X175604704Y-97845238D01*
X175604704Y-97845238D02*
X175699942Y-97892857D01*
X175699942Y-97892857D02*
X175747561Y-97940476D01*
X175747561Y-97940476D02*
X175795180Y-98035714D01*
X175795180Y-98035714D02*
X175795180Y-98226190D01*
X175795180Y-98226190D02*
X175747561Y-98321428D01*
X175747561Y-98321428D02*
X175699942Y-98369047D01*
X175699942Y-98369047D02*
X175604704Y-98416666D01*
X175604704Y-98416666D02*
X175557085Y-98416666D01*
X175557085Y-98416666D02*
X175461847Y-98369047D01*
X175461847Y-98369047D02*
X175414228Y-98321428D01*
X175414228Y-98321428D02*
X175366609Y-98226190D01*
X175366609Y-98226190D02*
X175366609Y-98035714D01*
X175366609Y-98035714D02*
X175318990Y-97940476D01*
X175318990Y-97940476D02*
X175271371Y-97892857D01*
X175271371Y-97892857D02*
X175176133Y-97845238D01*
X175176133Y-97845238D02*
X174985657Y-97845238D01*
X174985657Y-97845238D02*
X174890419Y-97892857D01*
X174890419Y-97892857D02*
X174842800Y-97940476D01*
X174842800Y-97940476D02*
X174795180Y-98035714D01*
X174795180Y-98035714D02*
X174795180Y-98226190D01*
X174795180Y-98226190D02*
X174842800Y-98321428D01*
X174842800Y-98321428D02*
X174890419Y-98369047D01*
X174890419Y-98369047D02*
X174985657Y-98416666D01*
X174985657Y-98416666D02*
X175176133Y-98416666D01*
X175176133Y-98416666D02*
X175271371Y-98369047D01*
X175271371Y-98369047D02*
X175318990Y-98321428D01*
X175318990Y-98321428D02*
X175366609Y-98226190D01*
X175689680Y-106327066D02*
X174975395Y-106327066D01*
X174975395Y-106327066D02*
X174832538Y-106279447D01*
X174832538Y-106279447D02*
X174737300Y-106184209D01*
X174737300Y-106184209D02*
X174689680Y-106041352D01*
X174689680Y-106041352D02*
X174689680Y-105946114D01*
X174689680Y-106850876D02*
X174689680Y-107041352D01*
X174689680Y-107041352D02*
X174737300Y-107136590D01*
X174737300Y-107136590D02*
X174784919Y-107184209D01*
X174784919Y-107184209D02*
X174927776Y-107279447D01*
X174927776Y-107279447D02*
X175118252Y-107327066D01*
X175118252Y-107327066D02*
X175499204Y-107327066D01*
X175499204Y-107327066D02*
X175594442Y-107279447D01*
X175594442Y-107279447D02*
X175642061Y-107231828D01*
X175642061Y-107231828D02*
X175689680Y-107136590D01*
X175689680Y-107136590D02*
X175689680Y-106946114D01*
X175689680Y-106946114D02*
X175642061Y-106850876D01*
X175642061Y-106850876D02*
X175594442Y-106803257D01*
X175594442Y-106803257D02*
X175499204Y-106755638D01*
X175499204Y-106755638D02*
X175261109Y-106755638D01*
X175261109Y-106755638D02*
X175165871Y-106803257D01*
X175165871Y-106803257D02*
X175118252Y-106850876D01*
X175118252Y-106850876D02*
X175070633Y-106946114D01*
X175070633Y-106946114D02*
X175070633Y-107136590D01*
X175070633Y-107136590D02*
X175118252Y-107231828D01*
X175118252Y-107231828D02*
X175165871Y-107279447D01*
X175165871Y-107279447D02*
X175261109Y-107327066D01*
X133666665Y-37454819D02*
X133666665Y-38169104D01*
X133666665Y-38169104D02*
X133619046Y-38311961D01*
X133619046Y-38311961D02*
X133523808Y-38407200D01*
X133523808Y-38407200D02*
X133380951Y-38454819D01*
X133380951Y-38454819D02*
X133285713Y-38454819D01*
X134571427Y-37788152D02*
X134571427Y-38454819D01*
X134333332Y-37407200D02*
X134095237Y-38121485D01*
X134095237Y-38121485D02*
X134714284Y-38121485D01*
X171827066Y-37560319D02*
X171827066Y-38274604D01*
X171827066Y-38274604D02*
X171779447Y-38417461D01*
X171779447Y-38417461D02*
X171684209Y-38512700D01*
X171684209Y-38512700D02*
X171541352Y-38560319D01*
X171541352Y-38560319D02*
X171446114Y-38560319D01*
X172255638Y-37655557D02*
X172303257Y-37607938D01*
X172303257Y-37607938D02*
X172398495Y-37560319D01*
X172398495Y-37560319D02*
X172636590Y-37560319D01*
X172636590Y-37560319D02*
X172731828Y-37607938D01*
X172731828Y-37607938D02*
X172779447Y-37655557D01*
X172779447Y-37655557D02*
X172827066Y-37750795D01*
X172827066Y-37750795D02*
X172827066Y-37846033D01*
X172827066Y-37846033D02*
X172779447Y-37988890D01*
X172779447Y-37988890D02*
X172208019Y-38560319D01*
X172208019Y-38560319D02*
X172827066Y-38560319D01*
X129205895Y-91121660D02*
X129205895Y-91597850D01*
X128920180Y-91026422D02*
X129920180Y-91359755D01*
X129920180Y-91359755D02*
X128920180Y-91693088D01*
X128920180Y-92550231D02*
X128920180Y-91978803D01*
X128920180Y-92264517D02*
X129920180Y-92264517D01*
X129920180Y-92264517D02*
X129777323Y-92169279D01*
X129777323Y-92169279D02*
X129682085Y-92074041D01*
X129682085Y-92074041D02*
X129634466Y-91978803D01*
D13*
X159238095Y-112957419D02*
X159238095Y-113766942D01*
X159238095Y-113766942D02*
X159285714Y-113862180D01*
X159285714Y-113862180D02*
X159333333Y-113909800D01*
X159333333Y-113909800D02*
X159428571Y-113957419D01*
X159428571Y-113957419D02*
X159619047Y-113957419D01*
X159619047Y-113957419D02*
X159714285Y-113909800D01*
X159714285Y-113909800D02*
X159761904Y-113862180D01*
X159761904Y-113862180D02*
X159809523Y-113766942D01*
X159809523Y-113766942D02*
X159809523Y-112957419D01*
X160714285Y-112957419D02*
X160523809Y-112957419D01*
X160523809Y-112957419D02*
X160428571Y-113005038D01*
X160428571Y-113005038D02*
X160380952Y-113052657D01*
X160380952Y-113052657D02*
X160285714Y-113195514D01*
X160285714Y-113195514D02*
X160238095Y-113385990D01*
X160238095Y-113385990D02*
X160238095Y-113766942D01*
X160238095Y-113766942D02*
X160285714Y-113862180D01*
X160285714Y-113862180D02*
X160333333Y-113909800D01*
X160333333Y-113909800D02*
X160428571Y-113957419D01*
X160428571Y-113957419D02*
X160619047Y-113957419D01*
X160619047Y-113957419D02*
X160714285Y-113909800D01*
X160714285Y-113909800D02*
X160761904Y-113862180D01*
X160761904Y-113862180D02*
X160809523Y-113766942D01*
X160809523Y-113766942D02*
X160809523Y-113528847D01*
X160809523Y-113528847D02*
X160761904Y-113433609D01*
X160761904Y-113433609D02*
X160714285Y-113385990D01*
X160714285Y-113385990D02*
X160619047Y-113338371D01*
X160619047Y-113338371D02*
X160428571Y-113338371D01*
X160428571Y-113338371D02*
X160333333Y-113385990D01*
X160333333Y-113385990D02*
X160285714Y-113433609D01*
X160285714Y-113433609D02*
X160238095Y-113528847D01*
%TO.C,U5*%
D12*
X180640000Y-42300000D02*
X162860000Y-42300000D01*
X162860000Y-67700000D01*
X180640000Y-67700000D01*
X180640000Y-42300000D01*
%TO.C,U1*%
X142640000Y-42300000D02*
X124860000Y-42300000D01*
X124860000Y-67700000D01*
X142640000Y-67700000D01*
X142640000Y-42300000D01*
D14*
%TO.C,J7*%
X171567700Y-115028200D02*
X171567700Y-122292600D01*
X171567700Y-122292600D02*
X179111500Y-122292600D01*
X179111500Y-115028200D02*
X171567700Y-115028200D01*
X179111500Y-122292600D02*
X179111500Y-115028200D01*
D15*
X175525500Y-114139200D02*
G75*
G02*
X174763500Y-114139200I-381000J0D01*
G01*
X174763500Y-114139200D02*
G75*
G02*
X175525500Y-114139200I381000J0D01*
G01*
%TO.C,U7*%
D13*
X170950000Y-156850000D02*
X126950000Y-156850000D01*
X126950000Y-122850000D01*
X170950000Y-122850000D01*
X170950000Y-156850000D01*
X133150000Y-126050000D02*
G75*
G02*
X127150000Y-126050000I-3000000J0D01*
G01*
X127150000Y-126050000D02*
G75*
G02*
X133150000Y-126050000I3000000J0D01*
G01*
X133150000Y-153650000D02*
G75*
G02*
X127150000Y-153650000I-3000000J0D01*
G01*
X127150000Y-153650000D02*
G75*
G02*
X133150000Y-153650000I3000000J0D01*
G01*
X170750000Y-126050000D02*
G75*
G02*
X164750000Y-126050000I-3000000J0D01*
G01*
X164750000Y-126050000D02*
G75*
G02*
X170750000Y-126050000I3000000J0D01*
G01*
X170750000Y-153650000D02*
G75*
G02*
X164750000Y-153650000I-3000000J0D01*
G01*
X164750000Y-153650000D02*
G75*
G02*
X170750000Y-153650000I3000000J0D01*
G01*
%TO.C,U2*%
D12*
X124435000Y-105265000D02*
X148565000Y-105265000D01*
X148565000Y-114155000D01*
X124435000Y-114155000D01*
X124435000Y-105265000D01*
D14*
%TO.C,J3*%
X145625299Y-34033000D02*
X145625299Y-41576800D01*
X145625299Y-41576800D02*
X159874699Y-41576800D01*
X159874699Y-34033000D02*
X145625299Y-34033000D01*
X159874699Y-41576800D02*
X159874699Y-34033000D01*
D15*
X145117299Y-38000000D02*
G75*
G02*
X144355299Y-38000000I-381000J0D01*
G01*
X144355299Y-38000000D02*
G75*
G02*
X145117299Y-38000000I381000J0D01*
G01*
D14*
%TO.C,J8*%
X171673200Y-94117800D02*
X171673200Y-101382200D01*
X171673200Y-101382200D02*
X179217000Y-101382200D01*
X179217000Y-94117800D02*
X171673200Y-94117800D01*
X179217000Y-101382200D02*
X179217000Y-94117800D01*
D15*
X175631000Y-93228800D02*
G75*
G02*
X174869000Y-93228800I-381000J0D01*
G01*
X174869000Y-93228800D02*
G75*
G02*
X175631000Y-93228800I381000J0D01*
G01*
%TO.C,U4*%
D12*
X161640000Y-42300000D02*
X143860000Y-42300000D01*
X143860000Y-67700000D01*
X161640000Y-67700000D01*
X161640000Y-42300000D01*
D16*
%TO.C,U3*%
X125610000Y-90725000D02*
X169610000Y-90725000D01*
X125610000Y-104725000D02*
X125610000Y-90725000D01*
X169610000Y-90725000D02*
X169610000Y-104725000D01*
X169610000Y-104725000D02*
X125610000Y-104725000D01*
D12*
X170342000Y-101665000D02*
G75*
G02*
X170142000Y-101665000I-100000J0D01*
G01*
X170142000Y-101665000D02*
G75*
G02*
X170342000Y-101665000I100000J0D01*
G01*
D14*
%TO.C,J9*%
X171567700Y-103028200D02*
X171567700Y-110292600D01*
X171567700Y-110292600D02*
X179111500Y-110292600D01*
X179111500Y-103028200D02*
X171567700Y-103028200D01*
X179111500Y-110292600D02*
X179111500Y-103028200D01*
D15*
X175525500Y-102139200D02*
G75*
G02*
X174763500Y-102139200I-381000J0D01*
G01*
X174763500Y-102139200D02*
G75*
G02*
X175525500Y-102139200I381000J0D01*
G01*
D14*
%TO.C,J4*%
X126875299Y-34033000D02*
X126875299Y-41576800D01*
X126875299Y-41576800D02*
X141124699Y-41576800D01*
X141124699Y-34033000D02*
X126875299Y-34033000D01*
X141124699Y-41576800D02*
X141124699Y-34033000D01*
D15*
X126367299Y-38000000D02*
G75*
G02*
X125605299Y-38000000I-381000J0D01*
G01*
X125605299Y-38000000D02*
G75*
G02*
X126367299Y-38000000I381000J0D01*
G01*
D14*
%TO.C,J2*%
X165035700Y-34138500D02*
X165035700Y-41682300D01*
X165035700Y-41682300D02*
X179285100Y-41682300D01*
X179285100Y-34138500D02*
X165035700Y-34138500D01*
X179285100Y-41682300D02*
X179285100Y-34138500D01*
D15*
X164527700Y-38105500D02*
G75*
G02*
X163765700Y-38105500I-381000J0D01*
G01*
X163765700Y-38105500D02*
G75*
G02*
X164527700Y-38105500I381000J0D01*
G01*
D17*
%TO.C,A1*%
X128530000Y-69085000D02*
X128530000Y-72922939D01*
X128530000Y-75485000D02*
X128530000Y-73847061D01*
X128530000Y-84322939D02*
X128530000Y-82685000D01*
X128530000Y-85247061D02*
X128530000Y-89085000D01*
X128593000Y-89355000D02*
X179687000Y-89355000D01*
X129443520Y-71575000D02*
X128530000Y-71575000D01*
X129443520Y-86595000D02*
X128530000Y-86595000D01*
X175230000Y-82985000D02*
X175230000Y-75185000D01*
X176443520Y-71575000D02*
X131836480Y-71575000D01*
X176443520Y-86595000D02*
X131836480Y-86595000D01*
X176446000Y-75185000D02*
X175230000Y-75185000D01*
X176446000Y-82985000D02*
X175230000Y-82985000D01*
X177470000Y-68155000D02*
X179070000Y-68155000D01*
X179140000Y-68475000D02*
X129140000Y-68475000D01*
X179140000Y-89695000D02*
X129140000Y-89695000D01*
X179687000Y-68815000D02*
X128593000Y-68815000D01*
X179750000Y-69085000D02*
X179750000Y-71575000D01*
X179750000Y-71575000D02*
X178836480Y-71575000D01*
X179750000Y-71575000D02*
X179750000Y-72922940D01*
X179750000Y-73847061D02*
X179750000Y-74850000D01*
X179750000Y-74850000D02*
X179750000Y-83320000D01*
X179750000Y-83320000D02*
X179750000Y-84322939D01*
X179750000Y-85247061D02*
X179750000Y-86595000D01*
X179750000Y-86595000D02*
X178836480Y-86595000D01*
X179750000Y-89085000D02*
X179750000Y-86595000D01*
X180230000Y-74975000D02*
X180230000Y-75185000D01*
X180230000Y-75185000D02*
X178834000Y-75185000D01*
X180230000Y-82985000D02*
X178834000Y-82985000D01*
X180230000Y-83195000D02*
X180230000Y-82985000D01*
X181050000Y-74975000D02*
X180230000Y-74975000D01*
X181050000Y-74975000D02*
X181050000Y-83195000D01*
X181050000Y-83195000D02*
X180230000Y-83195000D01*
X179140000Y-68475000D02*
G75*
G02*
X179750000Y-69085000I0J-610000D01*
G01*
X179750000Y-89085000D02*
G75*
G02*
X179140000Y-89695000I-610000J0D01*
G01*
%TO.C,U6*%
D13*
X149000000Y-105500000D02*
X171000000Y-105500000D01*
X171000000Y-122500000D01*
X149000000Y-122500000D01*
X149000000Y-105500000D01*
%TD*%
M02*
